M48
; DRILL file {KiCad (5.1.6-0-10_14)} date Wednesday, March 24, 2021 at 06:08:32 PM
; FORMAT={-:-/ absolute / inch / decimal}
; #@! TF.CreationDate,2021-03-24T18:08:32-04:00
; #@! TF.GenerationSoftware,Kicad,Pcbnew,(5.1.6-0-10_14)
FMAT,2
INCH
T1C0.0197
T2C0.0236
T3C0.0394
T4C0.0433
%
G90
G05
T3
X10.3481Y-3.6966
X10.4466Y-3.6966
X10.545Y-3.6966
X10.3481Y-4.415
X10.4466Y-4.415
X10.545Y-4.415
X10.3481Y-5.115
X10.4466Y-5.115
X10.545Y-5.115
X9.5681Y-3.695
X9.6666Y-3.695
X9.765Y-3.695
X9.5681Y-4.41
X9.6666Y-4.41
X9.765Y-4.41
X9.5681Y-5.115
X9.6666Y-5.115
X9.765Y-5.115
T4
X5.9017Y-1.5646
X5.9017Y-2.1646
X6.0017Y-1.5646
X6.0017Y-1.6646
X6.0017Y-2.1646
X6.1017Y-1.5646
X6.1017Y-2.1646
X6.1517Y-2.0465
X6.2017Y-1.5646
X6.2017Y-1.6646
X6.2017Y-2.1646
X6.2517Y-2.0465
X6.3017Y-1.5646
X6.3017Y-1.6646
X6.3017Y-2.1646
X6.3517Y-2.0465
X6.4017Y-1.5646
X6.4017Y-1.6646
X6.4017Y-2.1646
X6.4517Y-2.0465
X6.5017Y-1.5646
X6.5017Y-2.1646
X6.5517Y-2.0465
X6.6017Y-1.5646
X6.6017Y-2.1646
X6.7017Y-1.5646
X6.7017Y-2.1646
X6.8017Y-1.5646
X6.8017Y-2.1646
X6.9017Y-1.5646
X6.9017Y-2.1646
X7.0017Y-1.5646
X7.0017Y-2.1646
X7.1017Y-1.5646
X7.1017Y-2.1646
X7.2017Y-1.5646
X7.2017Y-2.1646
X7.3017Y-1.5646
X7.3017Y-2.1646
X7.4017Y-1.5646
X7.4017Y-2.1646
X7.5017Y-1.5646
X7.5017Y-2.1646
X7.6017Y-1.5646
X7.6017Y-2.1646
X7.7017Y-1.5646
X7.7017Y-1.6646
X7.7017Y-1.7646
X7.7017Y-1.8646
X7.7017Y-1.9646
X7.7017Y-2.0646
X7.7017Y-2.1646
X7.8017Y-1.5646
X7.8017Y-2.1646
X7.9017Y-1.5646
X7.9017Y-2.1646
X8.0017Y-1.5646
X8.0017Y-2.1646
X8.1017Y-1.5646
X8.1017Y-2.1646
X8.2017Y-1.5646
X8.2017Y-2.1646
T1
G00X10.2797Y-1.6337
M15
G01X10.2403Y-1.6337
M16
G05
G00X10.6797Y-3.3137
M15
G01X10.6403Y-3.3137
M16
G05
G00X9.4797Y-2.1937
M15
G01X9.4403Y-2.1937
M16
G05
G00X9.8797Y-2.1937
M15
G01X9.8403Y-2.1937
M16
G05
G00X10.2797Y-2.1937
M15
G01X10.2403Y-2.1937
M16
G05
G00X10.6797Y-1.6337
M15
G01X10.6403Y-1.6337
M16
G05
G00X10.6797Y-2.7537
M15
G01X10.6403Y-2.7537
M16
G05
G00X10.2797Y-2.7537
M15
G01X10.2403Y-2.7537
M16
G05
G00X10.2797Y-3.3137
M15
G01X10.2403Y-3.3137
M16
G05
G00X9.4797Y-3.3137
M15
G01X9.4403Y-3.3137
M16
G05
G00X9.8797Y-2.7537
M15
G01X9.8403Y-2.7537
M16
G05
G00X9.4797Y-1.6337
M15
G01X9.4403Y-1.6337
M16
G05
G00X10.6797Y-2.1937
M15
G01X10.6403Y-2.1937
M16
G05
G00X9.8797Y-1.6337
M15
G01X9.8403Y-1.6337
M16
G05
G00X9.8797Y-3.3137
M15
G01X9.8403Y-3.3137
M16
G05
G00X9.4797Y-2.7537
M15
G01X9.4403Y-2.7537
M16
G05
T2
G00X9.4738Y-2.3049
M15
G01X9.4462Y-2.3049
M16
G05
G00X9.4777Y-2.4269
M15
G01X9.4423Y-2.4269
M16
G05
G00X10.2738Y-1.1849
M15
G01X10.2462Y-1.1849
M16
G05
G00X10.2777Y-1.3069
M15
G01X10.2423Y-1.3069
M16
G05
G00X10.6738Y-2.8649
M15
G01X10.6462Y-2.8649
M16
G05
G00X10.6777Y-2.9869
M15
G01X10.6423Y-2.9869
M16
G05
G00X9.4738Y-1.7449
M15
G01X9.4462Y-1.7449
M16
G05
G00X9.4777Y-1.8669
M15
G01X9.4423Y-1.8669
M16
G05
G00X9.8738Y-1.7449
M15
G01X9.8462Y-1.7449
M16
G05
G00X9.8777Y-1.8669
M15
G01X9.8423Y-1.8669
M16
G05
G00X10.2738Y-1.7449
M15
G01X10.2462Y-1.7449
M16
G05
G00X10.2777Y-1.8669
M15
G01X10.2423Y-1.8669
M16
G05
G00X10.6738Y-1.1849
M15
G01X10.6462Y-1.1849
M16
G05
G00X10.6777Y-1.3069
M15
G01X10.6423Y-1.3069
M16
G05
G00X10.6738Y-2.3049
M15
G01X10.6462Y-2.3049
M16
G05
G00X10.6777Y-2.4269
M15
G01X10.6423Y-2.4269
M16
G05
G00X10.2738Y-2.3049
M15
G01X10.2462Y-2.3049
M16
G05
G00X10.2777Y-2.4269
M15
G01X10.2423Y-2.4269
M16
G05
G00X10.2738Y-2.8649
M15
G01X10.2462Y-2.8649
M16
G05
G00X10.2777Y-2.9869
M15
G01X10.2423Y-2.9869
M16
G05
G00X9.4738Y-2.8649
M15
G01X9.4462Y-2.8649
M16
G05
G00X9.4777Y-2.9869
M15
G01X9.4423Y-2.9869
M16
G05
G00X9.8738Y-2.3049
M15
G01X9.8462Y-2.3049
M16
G05
G00X9.8777Y-2.4269
M15
G01X9.8423Y-2.4269
M16
G05
G00X9.4738Y-1.1849
M15
G01X9.4462Y-1.1849
M16
G05
G00X9.4777Y-1.3069
M15
G01X9.4423Y-1.3069
M16
G05
G00X10.6738Y-1.7449
M15
G01X10.6462Y-1.7449
M16
G05
G00X10.6777Y-1.8669
M15
G01X10.6423Y-1.8669
M16
G05
G00X9.8738Y-1.1849
M15
G01X9.8462Y-1.1849
M16
G05
G00X9.8777Y-1.3069
M15
G01X9.8423Y-1.3069
M16
G05
G00X9.8738Y-2.8649
M15
G01X9.8462Y-2.8649
M16
G05
G00X9.8777Y-2.9869
M15
G01X9.8423Y-2.9869
M16
G05
T4
G00X9.4776Y-5.3965
M15
G01X9.4776Y-5.4241
M16
G05
G00X9.8556Y-5.3965
M15
G01X9.8556Y-5.4241
M16
G05
G00X10.2576Y-3.9781
M15
G01X10.2576Y-4.0056
M16
G05
G00X10.6356Y-3.9781
M15
G01X10.6356Y-4.0056
M16
G05
G00X10.2576Y-4.6965
M15
G01X10.2576Y-4.7241
M16
G05
G00X10.6356Y-4.6965
M15
G01X10.6356Y-4.7241
M16
G05
G00X10.2576Y-5.3965
M15
G01X10.2576Y-5.4241
M16
G05
G00X10.6356Y-5.3965
M15
G01X10.6356Y-5.4241
M16
G05
G00X9.4776Y-3.9765
M15
G01X9.4776Y-4.0041
M16
G05
G00X9.8556Y-3.9765
M15
G01X9.8556Y-4.0041
M16
G05
G00X9.4776Y-4.6915
M15
G01X9.4776Y-4.7191
M16
G05
G00X9.8556Y-4.6915
M15
G01X9.8556Y-4.7191
M16
G05
T0
M30
