%TF.GenerationSoftware,KiCad,Pcbnew,(5.1.6-0-10_14)*%
%TF.CreationDate,2021-03-24T18:08:36-04:00*%
%TF.ProjectId,lowstepper_hardware,6c6f7773-7465-4707-9065-725f68617264,rev?*%
%TF.SameCoordinates,Original*%
%TF.FileFunction,Copper,L1,Top*%
%TF.FilePolarity,Positive*%
%FSLAX46Y46*%
G04 Gerber Fmt 4.6, Leading zero omitted, Abs format (unit mm)*
G04 Created by KiCad (PCBNEW (5.1.6-0-10_14)) date 2021-03-24 18:08:36*
%MOMM*%
%LPD*%
G01*
G04 APERTURE LIST*
%TA.AperFunction,ComponentPad*%
%ADD10O,2.216000X1.108000*%
%TD*%
%TA.AperFunction,ComponentPad*%
%ADD11O,2.016000X1.008000*%
%TD*%
%TA.AperFunction,SMDPad,CuDef*%
%ADD12R,1.200000X0.900000*%
%TD*%
%TA.AperFunction,SMDPad,CuDef*%
%ADD13R,0.900000X0.800000*%
%TD*%
%TA.AperFunction,ComponentPad*%
%ADD14C,1.600000*%
%TD*%
%TA.AperFunction,ComponentPad*%
%ADD15R,1.600000X1.600000*%
%TD*%
%TA.AperFunction,ComponentPad*%
%ADD16R,1.800000X1.800000*%
%TD*%
%TA.AperFunction,ComponentPad*%
%ADD17C,1.800000*%
%TD*%
%TA.AperFunction,ComponentPad*%
%ADD18O,2.720000X3.240000*%
%TD*%
G04 APERTURE END LIST*
%TO.P,R49,2*%
%TO.N,Net-(D2-Pad2)*%
%TA.AperFunction,SMDPad,CuDef*%
G36*
G01*
X216230000Y-71297500D02*
X216230000Y-70822500D01*
G75*
G02*
X216467500Y-70585000I237500J0D01*
G01*
X216967500Y-70585000D01*
G75*
G02*
X217205000Y-70822500I0J-237500D01*
G01*
X217205000Y-71297500D01*
G75*
G02*
X216967500Y-71535000I-237500J0D01*
G01*
X216467500Y-71535000D01*
G75*
G02*
X216230000Y-71297500I0J237500D01*
G01*
G37*
%TD.AperFunction*%
%TO.P,R49,1*%
%TO.N,/LED_B_G*%
%TA.AperFunction,SMDPad,CuDef*%
G36*
G01*
X214405000Y-71297500D02*
X214405000Y-70822500D01*
G75*
G02*
X214642500Y-70585000I237500J0D01*
G01*
X215142500Y-70585000D01*
G75*
G02*
X215380000Y-70822500I0J-237500D01*
G01*
X215380000Y-71297500D01*
G75*
G02*
X215142500Y-71535000I-237500J0D01*
G01*
X214642500Y-71535000D01*
G75*
G02*
X214405000Y-71297500I0J237500D01*
G01*
G37*
%TD.AperFunction*%
%TD*%
%TO.P,R48,2*%
%TO.N,Net-(D2-Pad1)*%
%TA.AperFunction,SMDPad,CuDef*%
G36*
G01*
X220580000Y-66277500D02*
X220580000Y-65802500D01*
G75*
G02*
X220817500Y-65565000I237500J0D01*
G01*
X221317500Y-65565000D01*
G75*
G02*
X221555000Y-65802500I0J-237500D01*
G01*
X221555000Y-66277500D01*
G75*
G02*
X221317500Y-66515000I-237500J0D01*
G01*
X220817500Y-66515000D01*
G75*
G02*
X220580000Y-66277500I0J237500D01*
G01*
G37*
%TD.AperFunction*%
%TO.P,R48,1*%
%TO.N,/LED_B_R*%
%TA.AperFunction,SMDPad,CuDef*%
G36*
G01*
X218755000Y-66277500D02*
X218755000Y-65802500D01*
G75*
G02*
X218992500Y-65565000I237500J0D01*
G01*
X219492500Y-65565000D01*
G75*
G02*
X219730000Y-65802500I0J-237500D01*
G01*
X219730000Y-66277500D01*
G75*
G02*
X219492500Y-66515000I-237500J0D01*
G01*
X218992500Y-66515000D01*
G75*
G02*
X218755000Y-66277500I0J237500D01*
G01*
G37*
%TD.AperFunction*%
%TD*%
%TO.P,R47,2*%
%TO.N,Net-(D2-Pad3)*%
%TA.AperFunction,SMDPad,CuDef*%
G36*
G01*
X216230000Y-68787500D02*
X216230000Y-68312500D01*
G75*
G02*
X216467500Y-68075000I237500J0D01*
G01*
X216967500Y-68075000D01*
G75*
G02*
X217205000Y-68312500I0J-237500D01*
G01*
X217205000Y-68787500D01*
G75*
G02*
X216967500Y-69025000I-237500J0D01*
G01*
X216467500Y-69025000D01*
G75*
G02*
X216230000Y-68787500I0J237500D01*
G01*
G37*
%TD.AperFunction*%
%TO.P,R47,1*%
%TO.N,/LED_B_B*%
%TA.AperFunction,SMDPad,CuDef*%
G36*
G01*
X214405000Y-68787500D02*
X214405000Y-68312500D01*
G75*
G02*
X214642500Y-68075000I237500J0D01*
G01*
X215142500Y-68075000D01*
G75*
G02*
X215380000Y-68312500I0J-237500D01*
G01*
X215380000Y-68787500D01*
G75*
G02*
X215142500Y-69025000I-237500J0D01*
G01*
X214642500Y-69025000D01*
G75*
G02*
X214405000Y-68787500I0J237500D01*
G01*
G37*
%TD.AperFunction*%
%TD*%
%TO.P,R18,2*%
%TO.N,Net-(D1-Pad2)*%
%TA.AperFunction,SMDPad,CuDef*%
G36*
G01*
X211880000Y-71297500D02*
X211880000Y-70822500D01*
G75*
G02*
X212117500Y-70585000I237500J0D01*
G01*
X212617500Y-70585000D01*
G75*
G02*
X212855000Y-70822500I0J-237500D01*
G01*
X212855000Y-71297500D01*
G75*
G02*
X212617500Y-71535000I-237500J0D01*
G01*
X212117500Y-71535000D01*
G75*
G02*
X211880000Y-71297500I0J237500D01*
G01*
G37*
%TD.AperFunction*%
%TO.P,R18,1*%
%TO.N,/LED_A_G*%
%TA.AperFunction,SMDPad,CuDef*%
G36*
G01*
X210055000Y-71297500D02*
X210055000Y-70822500D01*
G75*
G02*
X210292500Y-70585000I237500J0D01*
G01*
X210792500Y-70585000D01*
G75*
G02*
X211030000Y-70822500I0J-237500D01*
G01*
X211030000Y-71297500D01*
G75*
G02*
X210792500Y-71535000I-237500J0D01*
G01*
X210292500Y-71535000D01*
G75*
G02*
X210055000Y-71297500I0J237500D01*
G01*
G37*
%TD.AperFunction*%
%TD*%
%TO.P,R17,2*%
%TO.N,Net-(D1-Pad1)*%
%TA.AperFunction,SMDPad,CuDef*%
G36*
G01*
X216230000Y-66277500D02*
X216230000Y-65802500D01*
G75*
G02*
X216467500Y-65565000I237500J0D01*
G01*
X216967500Y-65565000D01*
G75*
G02*
X217205000Y-65802500I0J-237500D01*
G01*
X217205000Y-66277500D01*
G75*
G02*
X216967500Y-66515000I-237500J0D01*
G01*
X216467500Y-66515000D01*
G75*
G02*
X216230000Y-66277500I0J237500D01*
G01*
G37*
%TD.AperFunction*%
%TO.P,R17,1*%
%TO.N,/LED_A_R*%
%TA.AperFunction,SMDPad,CuDef*%
G36*
G01*
X214405000Y-66277500D02*
X214405000Y-65802500D01*
G75*
G02*
X214642500Y-65565000I237500J0D01*
G01*
X215142500Y-65565000D01*
G75*
G02*
X215380000Y-65802500I0J-237500D01*
G01*
X215380000Y-66277500D01*
G75*
G02*
X215142500Y-66515000I-237500J0D01*
G01*
X214642500Y-66515000D01*
G75*
G02*
X214405000Y-66277500I0J237500D01*
G01*
G37*
%TD.AperFunction*%
%TD*%
%TO.P,R16,2*%
%TO.N,Net-(D1-Pad3)*%
%TA.AperFunction,SMDPad,CuDef*%
G36*
G01*
X211880000Y-68787500D02*
X211880000Y-68312500D01*
G75*
G02*
X212117500Y-68075000I237500J0D01*
G01*
X212617500Y-68075000D01*
G75*
G02*
X212855000Y-68312500I0J-237500D01*
G01*
X212855000Y-68787500D01*
G75*
G02*
X212617500Y-69025000I-237500J0D01*
G01*
X212117500Y-69025000D01*
G75*
G02*
X211880000Y-68787500I0J237500D01*
G01*
G37*
%TD.AperFunction*%
%TO.P,R16,1*%
%TO.N,/LED_A_B*%
%TA.AperFunction,SMDPad,CuDef*%
G36*
G01*
X210055000Y-68787500D02*
X210055000Y-68312500D01*
G75*
G02*
X210292500Y-68075000I237500J0D01*
G01*
X210792500Y-68075000D01*
G75*
G02*
X211030000Y-68312500I0J-237500D01*
G01*
X211030000Y-68787500D01*
G75*
G02*
X210792500Y-69025000I-237500J0D01*
G01*
X210292500Y-69025000D01*
G75*
G02*
X210055000Y-68787500I0J237500D01*
G01*
G37*
%TD.AperFunction*%
%TD*%
%TO.P,R2,2*%
%TO.N,-12V*%
%TA.AperFunction,SMDPad,CuDef*%
G36*
G01*
X211880000Y-66277500D02*
X211880000Y-65802500D01*
G75*
G02*
X212117500Y-65565000I237500J0D01*
G01*
X212617500Y-65565000D01*
G75*
G02*
X212855000Y-65802500I0J-237500D01*
G01*
X212855000Y-66277500D01*
G75*
G02*
X212617500Y-66515000I-237500J0D01*
G01*
X212117500Y-66515000D01*
G75*
G02*
X211880000Y-66277500I0J237500D01*
G01*
G37*
%TD.AperFunction*%
%TO.P,R2,1*%
%TO.N,/AREF_-10V*%
%TA.AperFunction,SMDPad,CuDef*%
G36*
G01*
X210055000Y-66277500D02*
X210055000Y-65802500D01*
G75*
G02*
X210292500Y-65565000I237500J0D01*
G01*
X210792500Y-65565000D01*
G75*
G02*
X211030000Y-65802500I0J-237500D01*
G01*
X211030000Y-66277500D01*
G75*
G02*
X210792500Y-66515000I-237500J0D01*
G01*
X210292500Y-66515000D01*
G75*
G02*
X210055000Y-66277500I0J237500D01*
G01*
G37*
%TD.AperFunction*%
%TD*%
D10*
%TO.P,J17,1*%
%TO.N,GND*%
X260604000Y-44320000D03*
%TO.P,J17,2*%
%TO.N,/RESET_SENSE_B*%
X260604000Y-47420000D03*
D11*
%TO.P,J17,3*%
%TO.N,Net-(J17-Pad3)*%
X260604000Y-55720000D03*
%TD*%
D10*
%TO.P,J16,1*%
%TO.N,GND*%
X240284000Y-44320000D03*
%TO.P,J16,2*%
%TO.N,/TRIG_SENSE_B*%
X240284000Y-47420000D03*
D11*
%TO.P,J16,3*%
%TO.N,Net-(J16-Pad3)*%
X240284000Y-55720000D03*
%TD*%
D10*
%TO.P,J15,1*%
%TO.N,GND*%
X250444000Y-44320000D03*
%TO.P,J15,2*%
%TO.N,/CLK_SENSE_B*%
X250444000Y-47420000D03*
D11*
%TO.P,J15,3*%
%TO.N,Net-(J15-Pad3)*%
X250444000Y-55720000D03*
%TD*%
D10*
%TO.P,J14,1*%
%TO.N,GND*%
X260604000Y-30096000D03*
%TO.P,J14,2*%
%TO.N,/RESET_SENSE_A*%
X260604000Y-33196000D03*
D11*
%TO.P,J14,3*%
%TO.N,Net-(J14-Pad3)*%
X260604000Y-41496000D03*
%TD*%
D10*
%TO.P,J13,1*%
%TO.N,GND*%
X240284000Y-30096000D03*
%TO.P,J13,2*%
%TO.N,/TRIG_SENSE_A*%
X240284000Y-33196000D03*
D11*
%TO.P,J13,3*%
%TO.N,Net-(J13-Pad3)*%
X240284000Y-41496000D03*
%TD*%
D10*
%TO.P,J12,1*%
%TO.N,GND*%
X250444000Y-30096000D03*
%TO.P,J12,2*%
%TO.N,/CLK_SENSE_A*%
X250444000Y-33196000D03*
D11*
%TO.P,J12,3*%
%TO.N,Net-(J12-Pad3)*%
X250444000Y-41496000D03*
%TD*%
D10*
%TO.P,J11,1*%
%TO.N,GND*%
X260604000Y-72768000D03*
%TO.P,J11,2*%
X260604000Y-75868000D03*
D11*
%TO.P,J11,3*%
%TO.N,Net-(J11-Pad3)*%
X260604000Y-84168000D03*
%TD*%
D10*
%TO.P,J10,1*%
%TO.N,GND*%
X240284000Y-72768000D03*
%TO.P,J10,2*%
X240284000Y-75868000D03*
D11*
%TO.P,J10,3*%
%TO.N,Net-(J10-Pad3)*%
X240284000Y-84168000D03*
%TD*%
D10*
%TO.P,J9,1*%
%TO.N,GND*%
X250444000Y-72768000D03*
%TO.P,J9,2*%
X250444000Y-75868000D03*
D11*
%TO.P,J9,3*%
%TO.N,Net-(J9-Pad3)*%
X250444000Y-84168000D03*
%TD*%
D10*
%TO.P,J7,1*%
%TO.N,GND*%
X260604000Y-58544000D03*
%TO.P,J7,2*%
X260604000Y-61644000D03*
D11*
%TO.P,J7,3*%
%TO.N,Net-(J7-Pad3)*%
X260604000Y-69944000D03*
%TD*%
D10*
%TO.P,J6,1*%
%TO.N,GND*%
X240284000Y-58544000D03*
%TO.P,J6,2*%
X240284000Y-61644000D03*
D11*
%TO.P,J6,3*%
%TO.N,Net-(J6-Pad3)*%
X240284000Y-69944000D03*
%TD*%
D10*
%TO.P,J5,1*%
%TO.N,GND*%
X250444000Y-58544000D03*
%TO.P,J5,2*%
X250444000Y-61644000D03*
D11*
%TO.P,J5,3*%
%TO.N,Net-(J5-Pad3)*%
X250444000Y-69944000D03*
%TD*%
D10*
%TO.P,J4,1*%
%TO.N,GND*%
X270764000Y-44320000D03*
%TO.P,J4,2*%
%TO.N,Net-(J4-Pad2)*%
X270764000Y-47420000D03*
D11*
%TO.P,J4,3*%
%TO.N,Net-(J4-Pad3)*%
X270764000Y-55720000D03*
%TD*%
D10*
%TO.P,J3,1*%
%TO.N,GND*%
X270764000Y-30096000D03*
%TO.P,J3,2*%
%TO.N,Net-(J3-Pad2)*%
X270764000Y-33196000D03*
D11*
%TO.P,J3,3*%
%TO.N,Net-(J3-Pad3)*%
X270764000Y-41496000D03*
%TD*%
D10*
%TO.P,J2,1*%
%TO.N,GND*%
X270764000Y-72768000D03*
%TO.P,J2,2*%
%TO.N,Net-(J2-Pad2)*%
X270764000Y-75868000D03*
D11*
%TO.P,J2,3*%
%TO.N,Net-(J2-Pad3)*%
X270764000Y-84168000D03*
%TD*%
D10*
%TO.P,J1,1*%
%TO.N,GND*%
X270764000Y-58544000D03*
%TO.P,J1,2*%
%TO.N,Net-(J1-Pad2)*%
X270764000Y-61644000D03*
D11*
%TO.P,J1,3*%
%TO.N,Net-(J1-Pad3)*%
X270764000Y-69944000D03*
%TD*%
D12*
%TO.P,D2,4*%
%TO.N,GND*%
X248790000Y-89625000D03*
%TO.P,D2,3*%
%TO.N,Net-(D2-Pad3)*%
X251590000Y-89625000D03*
%TO.P,D2,2*%
%TO.N,Net-(D2-Pad2)*%
X251590000Y-88175000D03*
%TO.P,D2,1*%
%TO.N,Net-(D2-Pad1)*%
X248790000Y-88175000D03*
%TD*%
%TO.P,D1,4*%
%TO.N,GND*%
X259585000Y-89625000D03*
%TO.P,D1,3*%
%TO.N,Net-(D1-Pad3)*%
X262385000Y-89625000D03*
%TO.P,D1,2*%
%TO.N,Net-(D1-Pad2)*%
X262385000Y-88175000D03*
%TO.P,D1,1*%
%TO.N,Net-(D1-Pad1)*%
X259585000Y-88175000D03*
%TD*%
%TO.P,U6,8*%
%TO.N,+3V3*%
%TA.AperFunction,SMDPad,CuDef*%
G36*
G01*
X167980001Y-82250001D02*
X167980001Y-81950001D01*
G75*
G02*
X168130001Y-81800001I150000J0D01*
G01*
X169780001Y-81800001D01*
G75*
G02*
X169930001Y-81950001I0J-150000D01*
G01*
X169930001Y-82250001D01*
G75*
G02*
X169780001Y-82400001I-150000J0D01*
G01*
X168130001Y-82400001D01*
G75*
G02*
X167980001Y-82250001I0J150000D01*
G01*
G37*
%TD.AperFunction*%
%TO.P,U6,7*%
%TO.N,Net-(J4-Pad3)*%
%TA.AperFunction,SMDPad,CuDef*%
G36*
G01*
X167980001Y-83520001D02*
X167980001Y-83220001D01*
G75*
G02*
X168130001Y-83070001I150000J0D01*
G01*
X169780001Y-83070001D01*
G75*
G02*
X169930001Y-83220001I0J-150000D01*
G01*
X169930001Y-83520001D01*
G75*
G02*
X169780001Y-83670001I-150000J0D01*
G01*
X168130001Y-83670001D01*
G75*
G02*
X167980001Y-83520001I0J150000D01*
G01*
G37*
%TD.AperFunction*%
%TO.P,U6,6*%
%TA.AperFunction,SMDPad,CuDef*%
G36*
G01*
X167980001Y-84790001D02*
X167980001Y-84490001D01*
G75*
G02*
X168130001Y-84340001I150000J0D01*
G01*
X169780001Y-84340001D01*
G75*
G02*
X169930001Y-84490001I0J-150000D01*
G01*
X169930001Y-84790001D01*
G75*
G02*
X169780001Y-84940001I-150000J0D01*
G01*
X168130001Y-84940001D01*
G75*
G02*
X167980001Y-84790001I0J150000D01*
G01*
G37*
%TD.AperFunction*%
%TO.P,U6,5*%
%TO.N,/EOC_B*%
%TA.AperFunction,SMDPad,CuDef*%
G36*
G01*
X167980001Y-86060001D02*
X167980001Y-85760001D01*
G75*
G02*
X168130001Y-85610001I150000J0D01*
G01*
X169780001Y-85610001D01*
G75*
G02*
X169930001Y-85760001I0J-150000D01*
G01*
X169930001Y-86060001D01*
G75*
G02*
X169780001Y-86210001I-150000J0D01*
G01*
X168130001Y-86210001D01*
G75*
G02*
X167980001Y-86060001I0J150000D01*
G01*
G37*
%TD.AperFunction*%
%TO.P,U6,4*%
%TO.N,GND*%
%TA.AperFunction,SMDPad,CuDef*%
G36*
G01*
X163030001Y-86060001D02*
X163030001Y-85760001D01*
G75*
G02*
X163180001Y-85610001I150000J0D01*
G01*
X164830001Y-85610001D01*
G75*
G02*
X164980001Y-85760001I0J-150000D01*
G01*
X164980001Y-86060001D01*
G75*
G02*
X164830001Y-86210001I-150000J0D01*
G01*
X163180001Y-86210001D01*
G75*
G02*
X163030001Y-86060001I0J150000D01*
G01*
G37*
%TD.AperFunction*%
%TO.P,U6,3*%
%TO.N,/EOC_A*%
%TA.AperFunction,SMDPad,CuDef*%
G36*
G01*
X163030001Y-84790001D02*
X163030001Y-84490001D01*
G75*
G02*
X163180001Y-84340001I150000J0D01*
G01*
X164830001Y-84340001D01*
G75*
G02*
X164980001Y-84490001I0J-150000D01*
G01*
X164980001Y-84790001D01*
G75*
G02*
X164830001Y-84940001I-150000J0D01*
G01*
X163180001Y-84940001D01*
G75*
G02*
X163030001Y-84790001I0J150000D01*
G01*
G37*
%TD.AperFunction*%
%TO.P,U6,2*%
%TO.N,Net-(J3-Pad3)*%
%TA.AperFunction,SMDPad,CuDef*%
G36*
G01*
X163030001Y-83520001D02*
X163030001Y-83220001D01*
G75*
G02*
X163180001Y-83070001I150000J0D01*
G01*
X164830001Y-83070001D01*
G75*
G02*
X164980001Y-83220001I0J-150000D01*
G01*
X164980001Y-83520001D01*
G75*
G02*
X164830001Y-83670001I-150000J0D01*
G01*
X163180001Y-83670001D01*
G75*
G02*
X163030001Y-83520001I0J150000D01*
G01*
G37*
%TD.AperFunction*%
%TO.P,U6,1*%
%TA.AperFunction,SMDPad,CuDef*%
G36*
G01*
X163030001Y-82250001D02*
X163030001Y-81950001D01*
G75*
G02*
X163180001Y-81800001I150000J0D01*
G01*
X164830001Y-81800001D01*
G75*
G02*
X164980001Y-81950001I0J-150000D01*
G01*
X164980001Y-82250001D01*
G75*
G02*
X164830001Y-82400001I-150000J0D01*
G01*
X163180001Y-82400001D01*
G75*
G02*
X163030001Y-82250001I0J150000D01*
G01*
G37*
%TD.AperFunction*%
%TD*%
%TO.P,U5,8*%
%TO.N,+3V3*%
%TA.AperFunction,SMDPad,CuDef*%
G36*
G01*
X167980001Y-88700001D02*
X167980001Y-88400001D01*
G75*
G02*
X168130001Y-88250001I150000J0D01*
G01*
X169780001Y-88250001D01*
G75*
G02*
X169930001Y-88400001I0J-150000D01*
G01*
X169930001Y-88700001D01*
G75*
G02*
X169780001Y-88850001I-150000J0D01*
G01*
X168130001Y-88850001D01*
G75*
G02*
X167980001Y-88700001I0J150000D01*
G01*
G37*
%TD.AperFunction*%
%TO.P,U5,7*%
%TO.N,/CHUNK_CV_B*%
%TA.AperFunction,SMDPad,CuDef*%
G36*
G01*
X167980001Y-89970001D02*
X167980001Y-89670001D01*
G75*
G02*
X168130001Y-89520001I150000J0D01*
G01*
X169780001Y-89520001D01*
G75*
G02*
X169930001Y-89670001I0J-150000D01*
G01*
X169930001Y-89970001D01*
G75*
G02*
X169780001Y-90120001I-150000J0D01*
G01*
X168130001Y-90120001D01*
G75*
G02*
X167980001Y-89970001I0J150000D01*
G01*
G37*
%TD.AperFunction*%
%TO.P,U5,6*%
%TO.N,/Chunks_CV_B_cct/OPAMP_INV*%
%TA.AperFunction,SMDPad,CuDef*%
G36*
G01*
X167980001Y-91240001D02*
X167980001Y-90940001D01*
G75*
G02*
X168130001Y-90790001I150000J0D01*
G01*
X169780001Y-90790001D01*
G75*
G02*
X169930001Y-90940001I0J-150000D01*
G01*
X169930001Y-91240001D01*
G75*
G02*
X169780001Y-91390001I-150000J0D01*
G01*
X168130001Y-91390001D01*
G75*
G02*
X167980001Y-91240001I0J150000D01*
G01*
G37*
%TD.AperFunction*%
%TO.P,U5,5*%
%TO.N,GND*%
%TA.AperFunction,SMDPad,CuDef*%
G36*
G01*
X167980001Y-92510001D02*
X167980001Y-92210001D01*
G75*
G02*
X168130001Y-92060001I150000J0D01*
G01*
X169780001Y-92060001D01*
G75*
G02*
X169930001Y-92210001I0J-150000D01*
G01*
X169930001Y-92510001D01*
G75*
G02*
X169780001Y-92660001I-150000J0D01*
G01*
X168130001Y-92660001D01*
G75*
G02*
X167980001Y-92510001I0J150000D01*
G01*
G37*
%TD.AperFunction*%
%TO.P,U5,4*%
%TA.AperFunction,SMDPad,CuDef*%
G36*
G01*
X163030001Y-92510001D02*
X163030001Y-92210001D01*
G75*
G02*
X163180001Y-92060001I150000J0D01*
G01*
X164830001Y-92060001D01*
G75*
G02*
X164980001Y-92210001I0J-150000D01*
G01*
X164980001Y-92510001D01*
G75*
G02*
X164830001Y-92660001I-150000J0D01*
G01*
X163180001Y-92660001D01*
G75*
G02*
X163030001Y-92510001I0J150000D01*
G01*
G37*
%TD.AperFunction*%
%TO.P,U5,3*%
%TA.AperFunction,SMDPad,CuDef*%
G36*
G01*
X163030001Y-91240001D02*
X163030001Y-90940001D01*
G75*
G02*
X163180001Y-90790001I150000J0D01*
G01*
X164830001Y-90790001D01*
G75*
G02*
X164980001Y-90940001I0J-150000D01*
G01*
X164980001Y-91240001D01*
G75*
G02*
X164830001Y-91390001I-150000J0D01*
G01*
X163180001Y-91390001D01*
G75*
G02*
X163030001Y-91240001I0J150000D01*
G01*
G37*
%TD.AperFunction*%
%TO.P,U5,2*%
%TO.N,/Rate_CV_B_cct/OPAMP_INV*%
%TA.AperFunction,SMDPad,CuDef*%
G36*
G01*
X163030001Y-89970001D02*
X163030001Y-89670001D01*
G75*
G02*
X163180001Y-89520001I150000J0D01*
G01*
X164830001Y-89520001D01*
G75*
G02*
X164980001Y-89670001I0J-150000D01*
G01*
X164980001Y-89970001D01*
G75*
G02*
X164830001Y-90120001I-150000J0D01*
G01*
X163180001Y-90120001D01*
G75*
G02*
X163030001Y-89970001I0J150000D01*
G01*
G37*
%TD.AperFunction*%
%TO.P,U5,1*%
%TO.N,/RATE_CV_B*%
%TA.AperFunction,SMDPad,CuDef*%
G36*
G01*
X163030001Y-88700001D02*
X163030001Y-88400001D01*
G75*
G02*
X163180001Y-88250001I150000J0D01*
G01*
X164830001Y-88250001D01*
G75*
G02*
X164980001Y-88400001I0J-150000D01*
G01*
X164980001Y-88700001D01*
G75*
G02*
X164830001Y-88850001I-150000J0D01*
G01*
X163180001Y-88850001D01*
G75*
G02*
X163030001Y-88700001I0J150000D01*
G01*
G37*
%TD.AperFunction*%
%TD*%
%TO.P,U2,14*%
%TO.N,/MORPH_CV_B*%
%TA.AperFunction,SMDPad,CuDef*%
G36*
G01*
X159530001Y-82225001D02*
X159530001Y-81925001D01*
G75*
G02*
X159680001Y-81775001I150000J0D01*
G01*
X161330001Y-81775001D01*
G75*
G02*
X161480001Y-81925001I0J-150000D01*
G01*
X161480001Y-82225001D01*
G75*
G02*
X161330001Y-82375001I-150000J0D01*
G01*
X159680001Y-82375001D01*
G75*
G02*
X159530001Y-82225001I0J150000D01*
G01*
G37*
%TD.AperFunction*%
%TO.P,U2,13*%
%TO.N,/Morph_CV_B_cct/OPAMP_INV*%
%TA.AperFunction,SMDPad,CuDef*%
G36*
G01*
X159530001Y-83495001D02*
X159530001Y-83195001D01*
G75*
G02*
X159680001Y-83045001I150000J0D01*
G01*
X161330001Y-83045001D01*
G75*
G02*
X161480001Y-83195001I0J-150000D01*
G01*
X161480001Y-83495001D01*
G75*
G02*
X161330001Y-83645001I-150000J0D01*
G01*
X159680001Y-83645001D01*
G75*
G02*
X159530001Y-83495001I0J150000D01*
G01*
G37*
%TD.AperFunction*%
%TO.P,U2,12*%
%TO.N,GND*%
%TA.AperFunction,SMDPad,CuDef*%
G36*
G01*
X159530001Y-84765001D02*
X159530001Y-84465001D01*
G75*
G02*
X159680001Y-84315001I150000J0D01*
G01*
X161330001Y-84315001D01*
G75*
G02*
X161480001Y-84465001I0J-150000D01*
G01*
X161480001Y-84765001D01*
G75*
G02*
X161330001Y-84915001I-150000J0D01*
G01*
X159680001Y-84915001D01*
G75*
G02*
X159530001Y-84765001I0J150000D01*
G01*
G37*
%TD.AperFunction*%
%TO.P,U2,11*%
%TA.AperFunction,SMDPad,CuDef*%
G36*
G01*
X159530001Y-86035001D02*
X159530001Y-85735001D01*
G75*
G02*
X159680001Y-85585001I150000J0D01*
G01*
X161330001Y-85585001D01*
G75*
G02*
X161480001Y-85735001I0J-150000D01*
G01*
X161480001Y-86035001D01*
G75*
G02*
X161330001Y-86185001I-150000J0D01*
G01*
X159680001Y-86185001D01*
G75*
G02*
X159530001Y-86035001I0J150000D01*
G01*
G37*
%TD.AperFunction*%
%TO.P,U2,10*%
%TA.AperFunction,SMDPad,CuDef*%
G36*
G01*
X159530001Y-87305001D02*
X159530001Y-87005001D01*
G75*
G02*
X159680001Y-86855001I150000J0D01*
G01*
X161330001Y-86855001D01*
G75*
G02*
X161480001Y-87005001I0J-150000D01*
G01*
X161480001Y-87305001D01*
G75*
G02*
X161330001Y-87455001I-150000J0D01*
G01*
X159680001Y-87455001D01*
G75*
G02*
X159530001Y-87305001I0J150000D01*
G01*
G37*
%TD.AperFunction*%
%TO.P,U2,9*%
%TO.N,/Chunks_CV_A_cct/OPAMP_INV*%
%TA.AperFunction,SMDPad,CuDef*%
G36*
G01*
X159530001Y-88575001D02*
X159530001Y-88275001D01*
G75*
G02*
X159680001Y-88125001I150000J0D01*
G01*
X161330001Y-88125001D01*
G75*
G02*
X161480001Y-88275001I0J-150000D01*
G01*
X161480001Y-88575001D01*
G75*
G02*
X161330001Y-88725001I-150000J0D01*
G01*
X159680001Y-88725001D01*
G75*
G02*
X159530001Y-88575001I0J150000D01*
G01*
G37*
%TD.AperFunction*%
%TO.P,U2,8*%
%TO.N,/CHUNK_CV_A*%
%TA.AperFunction,SMDPad,CuDef*%
G36*
G01*
X159530001Y-89845001D02*
X159530001Y-89545001D01*
G75*
G02*
X159680001Y-89395001I150000J0D01*
G01*
X161330001Y-89395001D01*
G75*
G02*
X161480001Y-89545001I0J-150000D01*
G01*
X161480001Y-89845001D01*
G75*
G02*
X161330001Y-89995001I-150000J0D01*
G01*
X159680001Y-89995001D01*
G75*
G02*
X159530001Y-89845001I0J150000D01*
G01*
G37*
%TD.AperFunction*%
%TO.P,U2,7*%
%TO.N,/RATE_CV_A*%
%TA.AperFunction,SMDPad,CuDef*%
G36*
G01*
X154580001Y-89845001D02*
X154580001Y-89545001D01*
G75*
G02*
X154730001Y-89395001I150000J0D01*
G01*
X156380001Y-89395001D01*
G75*
G02*
X156530001Y-89545001I0J-150000D01*
G01*
X156530001Y-89845001D01*
G75*
G02*
X156380001Y-89995001I-150000J0D01*
G01*
X154730001Y-89995001D01*
G75*
G02*
X154580001Y-89845001I0J150000D01*
G01*
G37*
%TD.AperFunction*%
%TO.P,U2,6*%
%TO.N,/Rate_CV_A_cct/OPAMP_INV*%
%TA.AperFunction,SMDPad,CuDef*%
G36*
G01*
X154580001Y-88575001D02*
X154580001Y-88275001D01*
G75*
G02*
X154730001Y-88125001I150000J0D01*
G01*
X156380001Y-88125001D01*
G75*
G02*
X156530001Y-88275001I0J-150000D01*
G01*
X156530001Y-88575001D01*
G75*
G02*
X156380001Y-88725001I-150000J0D01*
G01*
X154730001Y-88725001D01*
G75*
G02*
X154580001Y-88575001I0J150000D01*
G01*
G37*
%TD.AperFunction*%
%TO.P,U2,5*%
%TO.N,GND*%
%TA.AperFunction,SMDPad,CuDef*%
G36*
G01*
X154580001Y-87305001D02*
X154580001Y-87005001D01*
G75*
G02*
X154730001Y-86855001I150000J0D01*
G01*
X156380001Y-86855001D01*
G75*
G02*
X156530001Y-87005001I0J-150000D01*
G01*
X156530001Y-87305001D01*
G75*
G02*
X156380001Y-87455001I-150000J0D01*
G01*
X154730001Y-87455001D01*
G75*
G02*
X154580001Y-87305001I0J150000D01*
G01*
G37*
%TD.AperFunction*%
%TO.P,U2,4*%
%TO.N,+3V3*%
%TA.AperFunction,SMDPad,CuDef*%
G36*
G01*
X154580001Y-86035001D02*
X154580001Y-85735001D01*
G75*
G02*
X154730001Y-85585001I150000J0D01*
G01*
X156380001Y-85585001D01*
G75*
G02*
X156530001Y-85735001I0J-150000D01*
G01*
X156530001Y-86035001D01*
G75*
G02*
X156380001Y-86185001I-150000J0D01*
G01*
X154730001Y-86185001D01*
G75*
G02*
X154580001Y-86035001I0J150000D01*
G01*
G37*
%TD.AperFunction*%
%TO.P,U2,3*%
%TO.N,GND*%
%TA.AperFunction,SMDPad,CuDef*%
G36*
G01*
X154580001Y-84765001D02*
X154580001Y-84465001D01*
G75*
G02*
X154730001Y-84315001I150000J0D01*
G01*
X156380001Y-84315001D01*
G75*
G02*
X156530001Y-84465001I0J-150000D01*
G01*
X156530001Y-84765001D01*
G75*
G02*
X156380001Y-84915001I-150000J0D01*
G01*
X154730001Y-84915001D01*
G75*
G02*
X154580001Y-84765001I0J150000D01*
G01*
G37*
%TD.AperFunction*%
%TO.P,U2,2*%
%TO.N,/Morph_CV_A_cct/OPAMP_INV*%
%TA.AperFunction,SMDPad,CuDef*%
G36*
G01*
X154580001Y-83495001D02*
X154580001Y-83195001D01*
G75*
G02*
X154730001Y-83045001I150000J0D01*
G01*
X156380001Y-83045001D01*
G75*
G02*
X156530001Y-83195001I0J-150000D01*
G01*
X156530001Y-83495001D01*
G75*
G02*
X156380001Y-83645001I-150000J0D01*
G01*
X154730001Y-83645001D01*
G75*
G02*
X154580001Y-83495001I0J150000D01*
G01*
G37*
%TD.AperFunction*%
%TO.P,U2,1*%
%TO.N,/MORPH_CV_A*%
%TA.AperFunction,SMDPad,CuDef*%
G36*
G01*
X154580001Y-82225001D02*
X154580001Y-81925001D01*
G75*
G02*
X154730001Y-81775001I150000J0D01*
G01*
X156380001Y-81775001D01*
G75*
G02*
X156530001Y-81925001I0J-150000D01*
G01*
X156530001Y-82225001D01*
G75*
G02*
X156380001Y-82375001I-150000J0D01*
G01*
X154730001Y-82375001D01*
G75*
G02*
X154580001Y-82225001I0J150000D01*
G01*
G37*
%TD.AperFunction*%
%TD*%
%TO.P,U1,8*%
%TO.N,+12V*%
%TA.AperFunction,SMDPad,CuDef*%
G36*
G01*
X176430001Y-82250001D02*
X176430001Y-81950001D01*
G75*
G02*
X176580001Y-81800001I150000J0D01*
G01*
X178230001Y-81800001D01*
G75*
G02*
X178380001Y-81950001I0J-150000D01*
G01*
X178380001Y-82250001D01*
G75*
G02*
X178230001Y-82400001I-150000J0D01*
G01*
X176580001Y-82400001D01*
G75*
G02*
X176430001Y-82250001I0J150000D01*
G01*
G37*
%TD.AperFunction*%
%TO.P,U1,7*%
%TO.N,Net-(J2-Pad3)*%
%TA.AperFunction,SMDPad,CuDef*%
G36*
G01*
X176430001Y-83520001D02*
X176430001Y-83220001D01*
G75*
G02*
X176580001Y-83070001I150000J0D01*
G01*
X178230001Y-83070001D01*
G75*
G02*
X178380001Y-83220001I0J-150000D01*
G01*
X178380001Y-83520001D01*
G75*
G02*
X178230001Y-83670001I-150000J0D01*
G01*
X176580001Y-83670001D01*
G75*
G02*
X176430001Y-83520001I0J150000D01*
G01*
G37*
%TD.AperFunction*%
%TO.P,U1,6*%
%TO.N,Net-(R15-Pad2)*%
%TA.AperFunction,SMDPad,CuDef*%
G36*
G01*
X176430001Y-84790001D02*
X176430001Y-84490001D01*
G75*
G02*
X176580001Y-84340001I150000J0D01*
G01*
X178230001Y-84340001D01*
G75*
G02*
X178380001Y-84490001I0J-150000D01*
G01*
X178380001Y-84790001D01*
G75*
G02*
X178230001Y-84940001I-150000J0D01*
G01*
X176580001Y-84940001D01*
G75*
G02*
X176430001Y-84790001I0J150000D01*
G01*
G37*
%TD.AperFunction*%
%TO.P,U1,5*%
%TO.N,/V_bias*%
%TA.AperFunction,SMDPad,CuDef*%
G36*
G01*
X176430001Y-86060001D02*
X176430001Y-85760001D01*
G75*
G02*
X176580001Y-85610001I150000J0D01*
G01*
X178230001Y-85610001D01*
G75*
G02*
X178380001Y-85760001I0J-150000D01*
G01*
X178380001Y-86060001D01*
G75*
G02*
X178230001Y-86210001I-150000J0D01*
G01*
X176580001Y-86210001D01*
G75*
G02*
X176430001Y-86060001I0J150000D01*
G01*
G37*
%TD.AperFunction*%
%TO.P,U1,4*%
%TO.N,-12V*%
%TA.AperFunction,SMDPad,CuDef*%
G36*
G01*
X171480001Y-86060001D02*
X171480001Y-85760001D01*
G75*
G02*
X171630001Y-85610001I150000J0D01*
G01*
X173280001Y-85610001D01*
G75*
G02*
X173430001Y-85760001I0J-150000D01*
G01*
X173430001Y-86060001D01*
G75*
G02*
X173280001Y-86210001I-150000J0D01*
G01*
X171630001Y-86210001D01*
G75*
G02*
X171480001Y-86060001I0J150000D01*
G01*
G37*
%TD.AperFunction*%
%TO.P,U1,3*%
%TO.N,/V_bias*%
%TA.AperFunction,SMDPad,CuDef*%
G36*
G01*
X171480001Y-84790001D02*
X171480001Y-84490001D01*
G75*
G02*
X171630001Y-84340001I150000J0D01*
G01*
X173280001Y-84340001D01*
G75*
G02*
X173430001Y-84490001I0J-150000D01*
G01*
X173430001Y-84790001D01*
G75*
G02*
X173280001Y-84940001I-150000J0D01*
G01*
X171630001Y-84940001D01*
G75*
G02*
X171480001Y-84790001I0J150000D01*
G01*
G37*
%TD.AperFunction*%
%TO.P,U1,2*%
%TO.N,Net-(R19-Pad1)*%
%TA.AperFunction,SMDPad,CuDef*%
G36*
G01*
X171480001Y-83520001D02*
X171480001Y-83220001D01*
G75*
G02*
X171630001Y-83070001I150000J0D01*
G01*
X173280001Y-83070001D01*
G75*
G02*
X173430001Y-83220001I0J-150000D01*
G01*
X173430001Y-83520001D01*
G75*
G02*
X173280001Y-83670001I-150000J0D01*
G01*
X171630001Y-83670001D01*
G75*
G02*
X171480001Y-83520001I0J150000D01*
G01*
G37*
%TD.AperFunction*%
%TO.P,U1,1*%
%TO.N,Net-(J1-Pad3)*%
%TA.AperFunction,SMDPad,CuDef*%
G36*
G01*
X171480001Y-82250001D02*
X171480001Y-81950001D01*
G75*
G02*
X171630001Y-81800001I150000J0D01*
G01*
X173280001Y-81800001D01*
G75*
G02*
X173430001Y-81950001I0J-150000D01*
G01*
X173430001Y-82250001D01*
G75*
G02*
X173280001Y-82400001I-150000J0D01*
G01*
X171630001Y-82400001D01*
G75*
G02*
X171480001Y-82250001I0J150000D01*
G01*
G37*
%TD.AperFunction*%
%TD*%
%TO.P,R46,2*%
%TO.N,+3V3*%
%TA.AperFunction,SMDPad,CuDef*%
G36*
G01*
X176775001Y-113702501D02*
X176775001Y-113227501D01*
G75*
G02*
X177012501Y-112990001I237500J0D01*
G01*
X177512501Y-112990001D01*
G75*
G02*
X177750001Y-113227501I0J-237500D01*
G01*
X177750001Y-113702501D01*
G75*
G02*
X177512501Y-113940001I-237500J0D01*
G01*
X177012501Y-113940001D01*
G75*
G02*
X176775001Y-113702501I0J237500D01*
G01*
G37*
%TD.AperFunction*%
%TO.P,R46,1*%
%TO.N,/RESET_IN_B*%
%TA.AperFunction,SMDPad,CuDef*%
G36*
G01*
X174950001Y-113702501D02*
X174950001Y-113227501D01*
G75*
G02*
X175187501Y-112990001I237500J0D01*
G01*
X175687501Y-112990001D01*
G75*
G02*
X175925001Y-113227501I0J-237500D01*
G01*
X175925001Y-113702501D01*
G75*
G02*
X175687501Y-113940001I-237500J0D01*
G01*
X175187501Y-113940001D01*
G75*
G02*
X174950001Y-113702501I0J237500D01*
G01*
G37*
%TD.AperFunction*%
%TD*%
%TO.P,R45,2*%
%TO.N,Net-(J17-Pad3)*%
%TA.AperFunction,SMDPad,CuDef*%
G36*
G01*
X176775001Y-111192501D02*
X176775001Y-110717501D01*
G75*
G02*
X177012501Y-110480001I237500J0D01*
G01*
X177512501Y-110480001D01*
G75*
G02*
X177750001Y-110717501I0J-237500D01*
G01*
X177750001Y-111192501D01*
G75*
G02*
X177512501Y-111430001I-237500J0D01*
G01*
X177012501Y-111430001D01*
G75*
G02*
X176775001Y-111192501I0J237500D01*
G01*
G37*
%TD.AperFunction*%
%TO.P,R45,1*%
%TO.N,Net-(Q6-Pad1)*%
%TA.AperFunction,SMDPad,CuDef*%
G36*
G01*
X174950001Y-111192501D02*
X174950001Y-110717501D01*
G75*
G02*
X175187501Y-110480001I237500J0D01*
G01*
X175687501Y-110480001D01*
G75*
G02*
X175925001Y-110717501I0J-237500D01*
G01*
X175925001Y-111192501D01*
G75*
G02*
X175687501Y-111430001I-237500J0D01*
G01*
X175187501Y-111430001D01*
G75*
G02*
X174950001Y-111192501I0J237500D01*
G01*
G37*
%TD.AperFunction*%
%TD*%
%TO.P,R44,2*%
%TO.N,Net-(J17-Pad3)*%
%TA.AperFunction,SMDPad,CuDef*%
G36*
G01*
X172325001Y-115742501D02*
X172325001Y-115267501D01*
G75*
G02*
X172562501Y-115030001I237500J0D01*
G01*
X173062501Y-115030001D01*
G75*
G02*
X173300001Y-115267501I0J-237500D01*
G01*
X173300001Y-115742501D01*
G75*
G02*
X173062501Y-115980001I-237500J0D01*
G01*
X172562501Y-115980001D01*
G75*
G02*
X172325001Y-115742501I0J237500D01*
G01*
G37*
%TD.AperFunction*%
%TO.P,R44,1*%
%TO.N,GND*%
%TA.AperFunction,SMDPad,CuDef*%
G36*
G01*
X170500001Y-115742501D02*
X170500001Y-115267501D01*
G75*
G02*
X170737501Y-115030001I237500J0D01*
G01*
X171237501Y-115030001D01*
G75*
G02*
X171475001Y-115267501I0J-237500D01*
G01*
X171475001Y-115742501D01*
G75*
G02*
X171237501Y-115980001I-237500J0D01*
G01*
X170737501Y-115980001D01*
G75*
G02*
X170500001Y-115742501I0J237500D01*
G01*
G37*
%TD.AperFunction*%
%TD*%
%TO.P,R43,2*%
%TO.N,+3V3*%
%TA.AperFunction,SMDPad,CuDef*%
G36*
G01*
X207565001Y-84782501D02*
X207565001Y-84307501D01*
G75*
G02*
X207802501Y-84070001I237500J0D01*
G01*
X208302501Y-84070001D01*
G75*
G02*
X208540001Y-84307501I0J-237500D01*
G01*
X208540001Y-84782501D01*
G75*
G02*
X208302501Y-85020001I-237500J0D01*
G01*
X207802501Y-85020001D01*
G75*
G02*
X207565001Y-84782501I0J237500D01*
G01*
G37*
%TD.AperFunction*%
%TO.P,R43,1*%
%TO.N,/TRIG_IN_B*%
%TA.AperFunction,SMDPad,CuDef*%
G36*
G01*
X205740001Y-84782501D02*
X205740001Y-84307501D01*
G75*
G02*
X205977501Y-84070001I237500J0D01*
G01*
X206477501Y-84070001D01*
G75*
G02*
X206715001Y-84307501I0J-237500D01*
G01*
X206715001Y-84782501D01*
G75*
G02*
X206477501Y-85020001I-237500J0D01*
G01*
X205977501Y-85020001D01*
G75*
G02*
X205740001Y-84782501I0J237500D01*
G01*
G37*
%TD.AperFunction*%
%TD*%
%TO.P,R42,2*%
%TO.N,Net-(J16-Pad3)*%
%TA.AperFunction,SMDPad,CuDef*%
G36*
G01*
X207565001Y-82272501D02*
X207565001Y-81797501D01*
G75*
G02*
X207802501Y-81560001I237500J0D01*
G01*
X208302501Y-81560001D01*
G75*
G02*
X208540001Y-81797501I0J-237500D01*
G01*
X208540001Y-82272501D01*
G75*
G02*
X208302501Y-82510001I-237500J0D01*
G01*
X207802501Y-82510001D01*
G75*
G02*
X207565001Y-82272501I0J237500D01*
G01*
G37*
%TD.AperFunction*%
%TO.P,R42,1*%
%TO.N,Net-(Q5-Pad1)*%
%TA.AperFunction,SMDPad,CuDef*%
G36*
G01*
X205740001Y-82272501D02*
X205740001Y-81797501D01*
G75*
G02*
X205977501Y-81560001I237500J0D01*
G01*
X206477501Y-81560001D01*
G75*
G02*
X206715001Y-81797501I0J-237500D01*
G01*
X206715001Y-82272501D01*
G75*
G02*
X206477501Y-82510001I-237500J0D01*
G01*
X205977501Y-82510001D01*
G75*
G02*
X205740001Y-82272501I0J237500D01*
G01*
G37*
%TD.AperFunction*%
%TD*%
%TO.P,R41,2*%
%TO.N,Net-(J16-Pad3)*%
%TA.AperFunction,SMDPad,CuDef*%
G36*
G01*
X203115001Y-86822501D02*
X203115001Y-86347501D01*
G75*
G02*
X203352501Y-86110001I237500J0D01*
G01*
X203852501Y-86110001D01*
G75*
G02*
X204090001Y-86347501I0J-237500D01*
G01*
X204090001Y-86822501D01*
G75*
G02*
X203852501Y-87060001I-237500J0D01*
G01*
X203352501Y-87060001D01*
G75*
G02*
X203115001Y-86822501I0J237500D01*
G01*
G37*
%TD.AperFunction*%
%TO.P,R41,1*%
%TO.N,GND*%
%TA.AperFunction,SMDPad,CuDef*%
G36*
G01*
X201290001Y-86822501D02*
X201290001Y-86347501D01*
G75*
G02*
X201527501Y-86110001I237500J0D01*
G01*
X202027501Y-86110001D01*
G75*
G02*
X202265001Y-86347501I0J-237500D01*
G01*
X202265001Y-86822501D01*
G75*
G02*
X202027501Y-87060001I-237500J0D01*
G01*
X201527501Y-87060001D01*
G75*
G02*
X201290001Y-86822501I0J237500D01*
G01*
G37*
%TD.AperFunction*%
%TD*%
%TO.P,R40,2*%
%TO.N,+3V3*%
%TA.AperFunction,SMDPad,CuDef*%
G36*
G01*
X176775001Y-103412501D02*
X176775001Y-102937501D01*
G75*
G02*
X177012501Y-102700001I237500J0D01*
G01*
X177512501Y-102700001D01*
G75*
G02*
X177750001Y-102937501I0J-237500D01*
G01*
X177750001Y-103412501D01*
G75*
G02*
X177512501Y-103650001I-237500J0D01*
G01*
X177012501Y-103650001D01*
G75*
G02*
X176775001Y-103412501I0J237500D01*
G01*
G37*
%TD.AperFunction*%
%TO.P,R40,1*%
%TO.N,/CLK_IN_B*%
%TA.AperFunction,SMDPad,CuDef*%
G36*
G01*
X174950001Y-103412501D02*
X174950001Y-102937501D01*
G75*
G02*
X175187501Y-102700001I237500J0D01*
G01*
X175687501Y-102700001D01*
G75*
G02*
X175925001Y-102937501I0J-237500D01*
G01*
X175925001Y-103412501D01*
G75*
G02*
X175687501Y-103650001I-237500J0D01*
G01*
X175187501Y-103650001D01*
G75*
G02*
X174950001Y-103412501I0J237500D01*
G01*
G37*
%TD.AperFunction*%
%TD*%
%TO.P,R39,2*%
%TO.N,Net-(J15-Pad3)*%
%TA.AperFunction,SMDPad,CuDef*%
G36*
G01*
X176775001Y-100902501D02*
X176775001Y-100427501D01*
G75*
G02*
X177012501Y-100190001I237500J0D01*
G01*
X177512501Y-100190001D01*
G75*
G02*
X177750001Y-100427501I0J-237500D01*
G01*
X177750001Y-100902501D01*
G75*
G02*
X177512501Y-101140001I-237500J0D01*
G01*
X177012501Y-101140001D01*
G75*
G02*
X176775001Y-100902501I0J237500D01*
G01*
G37*
%TD.AperFunction*%
%TO.P,R39,1*%
%TO.N,Net-(Q4-Pad1)*%
%TA.AperFunction,SMDPad,CuDef*%
G36*
G01*
X174950001Y-100902501D02*
X174950001Y-100427501D01*
G75*
G02*
X175187501Y-100190001I237500J0D01*
G01*
X175687501Y-100190001D01*
G75*
G02*
X175925001Y-100427501I0J-237500D01*
G01*
X175925001Y-100902501D01*
G75*
G02*
X175687501Y-101140001I-237500J0D01*
G01*
X175187501Y-101140001D01*
G75*
G02*
X174950001Y-100902501I0J237500D01*
G01*
G37*
%TD.AperFunction*%
%TD*%
%TO.P,R38,2*%
%TO.N,Net-(J15-Pad3)*%
%TA.AperFunction,SMDPad,CuDef*%
G36*
G01*
X172325001Y-105452501D02*
X172325001Y-104977501D01*
G75*
G02*
X172562501Y-104740001I237500J0D01*
G01*
X173062501Y-104740001D01*
G75*
G02*
X173300001Y-104977501I0J-237500D01*
G01*
X173300001Y-105452501D01*
G75*
G02*
X173062501Y-105690001I-237500J0D01*
G01*
X172562501Y-105690001D01*
G75*
G02*
X172325001Y-105452501I0J237500D01*
G01*
G37*
%TD.AperFunction*%
%TO.P,R38,1*%
%TO.N,GND*%
%TA.AperFunction,SMDPad,CuDef*%
G36*
G01*
X170500001Y-105452501D02*
X170500001Y-104977501D01*
G75*
G02*
X170737501Y-104740001I237500J0D01*
G01*
X171237501Y-104740001D01*
G75*
G02*
X171475001Y-104977501I0J-237500D01*
G01*
X171475001Y-105452501D01*
G75*
G02*
X171237501Y-105690001I-237500J0D01*
G01*
X170737501Y-105690001D01*
G75*
G02*
X170500001Y-105452501I0J237500D01*
G01*
G37*
%TD.AperFunction*%
%TD*%
%TO.P,R37,2*%
%TO.N,+3V3*%
%TA.AperFunction,SMDPad,CuDef*%
G36*
G01*
X160855001Y-113702501D02*
X160855001Y-113227501D01*
G75*
G02*
X161092501Y-112990001I237500J0D01*
G01*
X161592501Y-112990001D01*
G75*
G02*
X161830001Y-113227501I0J-237500D01*
G01*
X161830001Y-113702501D01*
G75*
G02*
X161592501Y-113940001I-237500J0D01*
G01*
X161092501Y-113940001D01*
G75*
G02*
X160855001Y-113702501I0J237500D01*
G01*
G37*
%TD.AperFunction*%
%TO.P,R37,1*%
%TO.N,/RESET_IN_A*%
%TA.AperFunction,SMDPad,CuDef*%
G36*
G01*
X159030001Y-113702501D02*
X159030001Y-113227501D01*
G75*
G02*
X159267501Y-112990001I237500J0D01*
G01*
X159767501Y-112990001D01*
G75*
G02*
X160005001Y-113227501I0J-237500D01*
G01*
X160005001Y-113702501D01*
G75*
G02*
X159767501Y-113940001I-237500J0D01*
G01*
X159267501Y-113940001D01*
G75*
G02*
X159030001Y-113702501I0J237500D01*
G01*
G37*
%TD.AperFunction*%
%TD*%
%TO.P,R36,2*%
%TO.N,Net-(J14-Pad3)*%
%TA.AperFunction,SMDPad,CuDef*%
G36*
G01*
X160855001Y-111192501D02*
X160855001Y-110717501D01*
G75*
G02*
X161092501Y-110480001I237500J0D01*
G01*
X161592501Y-110480001D01*
G75*
G02*
X161830001Y-110717501I0J-237500D01*
G01*
X161830001Y-111192501D01*
G75*
G02*
X161592501Y-111430001I-237500J0D01*
G01*
X161092501Y-111430001D01*
G75*
G02*
X160855001Y-111192501I0J237500D01*
G01*
G37*
%TD.AperFunction*%
%TO.P,R36,1*%
%TO.N,Net-(Q3-Pad1)*%
%TA.AperFunction,SMDPad,CuDef*%
G36*
G01*
X159030001Y-111192501D02*
X159030001Y-110717501D01*
G75*
G02*
X159267501Y-110480001I237500J0D01*
G01*
X159767501Y-110480001D01*
G75*
G02*
X160005001Y-110717501I0J-237500D01*
G01*
X160005001Y-111192501D01*
G75*
G02*
X159767501Y-111430001I-237500J0D01*
G01*
X159267501Y-111430001D01*
G75*
G02*
X159030001Y-111192501I0J237500D01*
G01*
G37*
%TD.AperFunction*%
%TD*%
%TO.P,R35,2*%
%TO.N,Net-(J14-Pad3)*%
%TA.AperFunction,SMDPad,CuDef*%
G36*
G01*
X156405001Y-115742501D02*
X156405001Y-115267501D01*
G75*
G02*
X156642501Y-115030001I237500J0D01*
G01*
X157142501Y-115030001D01*
G75*
G02*
X157380001Y-115267501I0J-237500D01*
G01*
X157380001Y-115742501D01*
G75*
G02*
X157142501Y-115980001I-237500J0D01*
G01*
X156642501Y-115980001D01*
G75*
G02*
X156405001Y-115742501I0J237500D01*
G01*
G37*
%TD.AperFunction*%
%TO.P,R35,1*%
%TO.N,GND*%
%TA.AperFunction,SMDPad,CuDef*%
G36*
G01*
X154580001Y-115742501D02*
X154580001Y-115267501D01*
G75*
G02*
X154817501Y-115030001I237500J0D01*
G01*
X155317501Y-115030001D01*
G75*
G02*
X155555001Y-115267501I0J-237500D01*
G01*
X155555001Y-115742501D01*
G75*
G02*
X155317501Y-115980001I-237500J0D01*
G01*
X154817501Y-115980001D01*
G75*
G02*
X154580001Y-115742501I0J237500D01*
G01*
G37*
%TD.AperFunction*%
%TD*%
%TO.P,R34,2*%
%TO.N,+3V3*%
%TA.AperFunction,SMDPad,CuDef*%
G36*
G01*
X191645001Y-84782501D02*
X191645001Y-84307501D01*
G75*
G02*
X191882501Y-84070001I237500J0D01*
G01*
X192382501Y-84070001D01*
G75*
G02*
X192620001Y-84307501I0J-237500D01*
G01*
X192620001Y-84782501D01*
G75*
G02*
X192382501Y-85020001I-237500J0D01*
G01*
X191882501Y-85020001D01*
G75*
G02*
X191645001Y-84782501I0J237500D01*
G01*
G37*
%TD.AperFunction*%
%TO.P,R34,1*%
%TO.N,/TRIG_IN_A*%
%TA.AperFunction,SMDPad,CuDef*%
G36*
G01*
X189820001Y-84782501D02*
X189820001Y-84307501D01*
G75*
G02*
X190057501Y-84070001I237500J0D01*
G01*
X190557501Y-84070001D01*
G75*
G02*
X190795001Y-84307501I0J-237500D01*
G01*
X190795001Y-84782501D01*
G75*
G02*
X190557501Y-85020001I-237500J0D01*
G01*
X190057501Y-85020001D01*
G75*
G02*
X189820001Y-84782501I0J237500D01*
G01*
G37*
%TD.AperFunction*%
%TD*%
%TO.P,R33,2*%
%TO.N,Net-(J13-Pad3)*%
%TA.AperFunction,SMDPad,CuDef*%
G36*
G01*
X191645001Y-82272501D02*
X191645001Y-81797501D01*
G75*
G02*
X191882501Y-81560001I237500J0D01*
G01*
X192382501Y-81560001D01*
G75*
G02*
X192620001Y-81797501I0J-237500D01*
G01*
X192620001Y-82272501D01*
G75*
G02*
X192382501Y-82510001I-237500J0D01*
G01*
X191882501Y-82510001D01*
G75*
G02*
X191645001Y-82272501I0J237500D01*
G01*
G37*
%TD.AperFunction*%
%TO.P,R33,1*%
%TO.N,Net-(Q2-Pad1)*%
%TA.AperFunction,SMDPad,CuDef*%
G36*
G01*
X189820001Y-82272501D02*
X189820001Y-81797501D01*
G75*
G02*
X190057501Y-81560001I237500J0D01*
G01*
X190557501Y-81560001D01*
G75*
G02*
X190795001Y-81797501I0J-237500D01*
G01*
X190795001Y-82272501D01*
G75*
G02*
X190557501Y-82510001I-237500J0D01*
G01*
X190057501Y-82510001D01*
G75*
G02*
X189820001Y-82272501I0J237500D01*
G01*
G37*
%TD.AperFunction*%
%TD*%
%TO.P,R32,2*%
%TO.N,Net-(J13-Pad3)*%
%TA.AperFunction,SMDPad,CuDef*%
G36*
G01*
X187195001Y-86822501D02*
X187195001Y-86347501D01*
G75*
G02*
X187432501Y-86110001I237500J0D01*
G01*
X187932501Y-86110001D01*
G75*
G02*
X188170001Y-86347501I0J-237500D01*
G01*
X188170001Y-86822501D01*
G75*
G02*
X187932501Y-87060001I-237500J0D01*
G01*
X187432501Y-87060001D01*
G75*
G02*
X187195001Y-86822501I0J237500D01*
G01*
G37*
%TD.AperFunction*%
%TO.P,R32,1*%
%TO.N,GND*%
%TA.AperFunction,SMDPad,CuDef*%
G36*
G01*
X185370001Y-86822501D02*
X185370001Y-86347501D01*
G75*
G02*
X185607501Y-86110001I237500J0D01*
G01*
X186107501Y-86110001D01*
G75*
G02*
X186345001Y-86347501I0J-237500D01*
G01*
X186345001Y-86822501D01*
G75*
G02*
X186107501Y-87060001I-237500J0D01*
G01*
X185607501Y-87060001D01*
G75*
G02*
X185370001Y-86822501I0J237500D01*
G01*
G37*
%TD.AperFunction*%
%TD*%
%TO.P,R31,2*%
%TO.N,/Chunks_CV_B_cct/OPAMP_INV*%
%TA.AperFunction,SMDPad,CuDef*%
G36*
G01*
X205295001Y-103522501D02*
X205295001Y-103047501D01*
G75*
G02*
X205532501Y-102810001I237500J0D01*
G01*
X206032501Y-102810001D01*
G75*
G02*
X206270001Y-103047501I0J-237500D01*
G01*
X206270001Y-103522501D01*
G75*
G02*
X206032501Y-103760001I-237500J0D01*
G01*
X205532501Y-103760001D01*
G75*
G02*
X205295001Y-103522501I0J237500D01*
G01*
G37*
%TD.AperFunction*%
%TO.P,R31,1*%
%TO.N,/CHUNK_CV_B*%
%TA.AperFunction,SMDPad,CuDef*%
G36*
G01*
X203470001Y-103522501D02*
X203470001Y-103047501D01*
G75*
G02*
X203707501Y-102810001I237500J0D01*
G01*
X204207501Y-102810001D01*
G75*
G02*
X204445001Y-103047501I0J-237500D01*
G01*
X204445001Y-103522501D01*
G75*
G02*
X204207501Y-103760001I-237500J0D01*
G01*
X203707501Y-103760001D01*
G75*
G02*
X203470001Y-103522501I0J237500D01*
G01*
G37*
%TD.AperFunction*%
%TD*%
%TO.P,R30,2*%
%TO.N,Net-(J11-Pad3)*%
%TA.AperFunction,SMDPad,CuDef*%
G36*
G01*
X205295001Y-101012501D02*
X205295001Y-100537501D01*
G75*
G02*
X205532501Y-100300001I237500J0D01*
G01*
X206032501Y-100300001D01*
G75*
G02*
X206270001Y-100537501I0J-237500D01*
G01*
X206270001Y-101012501D01*
G75*
G02*
X206032501Y-101250001I-237500J0D01*
G01*
X205532501Y-101250001D01*
G75*
G02*
X205295001Y-101012501I0J237500D01*
G01*
G37*
%TD.AperFunction*%
%TO.P,R30,1*%
%TO.N,/Chunks_CV_B_cct/OPAMP_INV*%
%TA.AperFunction,SMDPad,CuDef*%
G36*
G01*
X203470001Y-101012501D02*
X203470001Y-100537501D01*
G75*
G02*
X203707501Y-100300001I237500J0D01*
G01*
X204207501Y-100300001D01*
G75*
G02*
X204445001Y-100537501I0J-237500D01*
G01*
X204445001Y-101012501D01*
G75*
G02*
X204207501Y-101250001I-237500J0D01*
G01*
X203707501Y-101250001D01*
G75*
G02*
X203470001Y-101012501I0J237500D01*
G01*
G37*
%TD.AperFunction*%
%TD*%
%TO.P,R29,2*%
%TO.N,/Chunks_CV_B_cct/AREF_-10V*%
%TA.AperFunction,SMDPad,CuDef*%
G36*
G01*
X200945001Y-103522501D02*
X200945001Y-103047501D01*
G75*
G02*
X201182501Y-102810001I237500J0D01*
G01*
X201682501Y-102810001D01*
G75*
G02*
X201920001Y-103047501I0J-237500D01*
G01*
X201920001Y-103522501D01*
G75*
G02*
X201682501Y-103760001I-237500J0D01*
G01*
X201182501Y-103760001D01*
G75*
G02*
X200945001Y-103522501I0J237500D01*
G01*
G37*
%TD.AperFunction*%
%TO.P,R29,1*%
%TO.N,/Chunks_CV_B_cct/OPAMP_INV*%
%TA.AperFunction,SMDPad,CuDef*%
G36*
G01*
X199120001Y-103522501D02*
X199120001Y-103047501D01*
G75*
G02*
X199357501Y-102810001I237500J0D01*
G01*
X199857501Y-102810001D01*
G75*
G02*
X200095001Y-103047501I0J-237500D01*
G01*
X200095001Y-103522501D01*
G75*
G02*
X199857501Y-103760001I-237500J0D01*
G01*
X199357501Y-103760001D01*
G75*
G02*
X199120001Y-103522501I0J237500D01*
G01*
G37*
%TD.AperFunction*%
%TD*%
%TO.P,R28,2*%
%TO.N,/Rate_CV_B_cct/OPAMP_INV*%
%TA.AperFunction,SMDPad,CuDef*%
G36*
G01*
X192595001Y-111972501D02*
X192595001Y-111497501D01*
G75*
G02*
X192832501Y-111260001I237500J0D01*
G01*
X193332501Y-111260001D01*
G75*
G02*
X193570001Y-111497501I0J-237500D01*
G01*
X193570001Y-111972501D01*
G75*
G02*
X193332501Y-112210001I-237500J0D01*
G01*
X192832501Y-112210001D01*
G75*
G02*
X192595001Y-111972501I0J237500D01*
G01*
G37*
%TD.AperFunction*%
%TO.P,R28,1*%
%TO.N,/RATE_CV_B*%
%TA.AperFunction,SMDPad,CuDef*%
G36*
G01*
X190770001Y-111972501D02*
X190770001Y-111497501D01*
G75*
G02*
X191007501Y-111260001I237500J0D01*
G01*
X191507501Y-111260001D01*
G75*
G02*
X191745001Y-111497501I0J-237500D01*
G01*
X191745001Y-111972501D01*
G75*
G02*
X191507501Y-112210001I-237500J0D01*
G01*
X191007501Y-112210001D01*
G75*
G02*
X190770001Y-111972501I0J237500D01*
G01*
G37*
%TD.AperFunction*%
%TD*%
%TO.P,R27,2*%
%TO.N,Net-(J10-Pad3)*%
%TA.AperFunction,SMDPad,CuDef*%
G36*
G01*
X188245001Y-109462501D02*
X188245001Y-108987501D01*
G75*
G02*
X188482501Y-108750001I237500J0D01*
G01*
X188982501Y-108750001D01*
G75*
G02*
X189220001Y-108987501I0J-237500D01*
G01*
X189220001Y-109462501D01*
G75*
G02*
X188982501Y-109700001I-237500J0D01*
G01*
X188482501Y-109700001D01*
G75*
G02*
X188245001Y-109462501I0J237500D01*
G01*
G37*
%TD.AperFunction*%
%TO.P,R27,1*%
%TO.N,/Rate_CV_B_cct/OPAMP_INV*%
%TA.AperFunction,SMDPad,CuDef*%
G36*
G01*
X186420001Y-109462501D02*
X186420001Y-108987501D01*
G75*
G02*
X186657501Y-108750001I237500J0D01*
G01*
X187157501Y-108750001D01*
G75*
G02*
X187395001Y-108987501I0J-237500D01*
G01*
X187395001Y-109462501D01*
G75*
G02*
X187157501Y-109700001I-237500J0D01*
G01*
X186657501Y-109700001D01*
G75*
G02*
X186420001Y-109462501I0J237500D01*
G01*
G37*
%TD.AperFunction*%
%TD*%
%TO.P,R26,2*%
%TO.N,/Rate_CV_B_cct/AREF_-10V*%
%TA.AperFunction,SMDPad,CuDef*%
G36*
G01*
X192595001Y-109462501D02*
X192595001Y-108987501D01*
G75*
G02*
X192832501Y-108750001I237500J0D01*
G01*
X193332501Y-108750001D01*
G75*
G02*
X193570001Y-108987501I0J-237500D01*
G01*
X193570001Y-109462501D01*
G75*
G02*
X193332501Y-109700001I-237500J0D01*
G01*
X192832501Y-109700001D01*
G75*
G02*
X192595001Y-109462501I0J237500D01*
G01*
G37*
%TD.AperFunction*%
%TO.P,R26,1*%
%TO.N,/Rate_CV_B_cct/OPAMP_INV*%
%TA.AperFunction,SMDPad,CuDef*%
G36*
G01*
X190770001Y-109462501D02*
X190770001Y-108987501D01*
G75*
G02*
X191007501Y-108750001I237500J0D01*
G01*
X191507501Y-108750001D01*
G75*
G02*
X191745001Y-108987501I0J-237500D01*
G01*
X191745001Y-109462501D01*
G75*
G02*
X191507501Y-109700001I-237500J0D01*
G01*
X191007501Y-109700001D01*
G75*
G02*
X190770001Y-109462501I0J237500D01*
G01*
G37*
%TD.AperFunction*%
%TD*%
%TO.P,R25,2*%
%TO.N,/Morph_CV_B_cct/OPAMP_INV*%
%TA.AperFunction,SMDPad,CuDef*%
G36*
G01*
X219035001Y-84782501D02*
X219035001Y-84307501D01*
G75*
G02*
X219272501Y-84070001I237500J0D01*
G01*
X219772501Y-84070001D01*
G75*
G02*
X220010001Y-84307501I0J-237500D01*
G01*
X220010001Y-84782501D01*
G75*
G02*
X219772501Y-85020001I-237500J0D01*
G01*
X219272501Y-85020001D01*
G75*
G02*
X219035001Y-84782501I0J237500D01*
G01*
G37*
%TD.AperFunction*%
%TO.P,R25,1*%
%TO.N,/MORPH_CV_B*%
%TA.AperFunction,SMDPad,CuDef*%
G36*
G01*
X217210001Y-84782501D02*
X217210001Y-84307501D01*
G75*
G02*
X217447501Y-84070001I237500J0D01*
G01*
X217947501Y-84070001D01*
G75*
G02*
X218185001Y-84307501I0J-237500D01*
G01*
X218185001Y-84782501D01*
G75*
G02*
X217947501Y-85020001I-237500J0D01*
G01*
X217447501Y-85020001D01*
G75*
G02*
X217210001Y-84782501I0J237500D01*
G01*
G37*
%TD.AperFunction*%
%TD*%
%TO.P,R24,2*%
%TO.N,Net-(J9-Pad3)*%
%TA.AperFunction,SMDPad,CuDef*%
G36*
G01*
X223385001Y-82272501D02*
X223385001Y-81797501D01*
G75*
G02*
X223622501Y-81560001I237500J0D01*
G01*
X224122501Y-81560001D01*
G75*
G02*
X224360001Y-81797501I0J-237500D01*
G01*
X224360001Y-82272501D01*
G75*
G02*
X224122501Y-82510001I-237500J0D01*
G01*
X223622501Y-82510001D01*
G75*
G02*
X223385001Y-82272501I0J237500D01*
G01*
G37*
%TD.AperFunction*%
%TO.P,R24,1*%
%TO.N,/Morph_CV_B_cct/OPAMP_INV*%
%TA.AperFunction,SMDPad,CuDef*%
G36*
G01*
X221560001Y-82272501D02*
X221560001Y-81797501D01*
G75*
G02*
X221797501Y-81560001I237500J0D01*
G01*
X222297501Y-81560001D01*
G75*
G02*
X222535001Y-81797501I0J-237500D01*
G01*
X222535001Y-82272501D01*
G75*
G02*
X222297501Y-82510001I-237500J0D01*
G01*
X221797501Y-82510001D01*
G75*
G02*
X221560001Y-82272501I0J237500D01*
G01*
G37*
%TD.AperFunction*%
%TD*%
%TO.P,R23,2*%
%TO.N,/Morph_CV_B_cct/AREF_-10V*%
%TA.AperFunction,SMDPad,CuDef*%
G36*
G01*
X223385001Y-84782501D02*
X223385001Y-84307501D01*
G75*
G02*
X223622501Y-84070001I237500J0D01*
G01*
X224122501Y-84070001D01*
G75*
G02*
X224360001Y-84307501I0J-237500D01*
G01*
X224360001Y-84782501D01*
G75*
G02*
X224122501Y-85020001I-237500J0D01*
G01*
X223622501Y-85020001D01*
G75*
G02*
X223385001Y-84782501I0J237500D01*
G01*
G37*
%TD.AperFunction*%
%TO.P,R23,1*%
%TO.N,/Morph_CV_B_cct/OPAMP_INV*%
%TA.AperFunction,SMDPad,CuDef*%
G36*
G01*
X221560001Y-84782501D02*
X221560001Y-84307501D01*
G75*
G02*
X221797501Y-84070001I237500J0D01*
G01*
X222297501Y-84070001D01*
G75*
G02*
X222535001Y-84307501I0J-237500D01*
G01*
X222535001Y-84782501D01*
G75*
G02*
X222297501Y-85020001I-237500J0D01*
G01*
X221797501Y-85020001D01*
G75*
G02*
X221560001Y-84782501I0J237500D01*
G01*
G37*
%TD.AperFunction*%
%TD*%
%TO.P,R22,2*%
%TO.N,Net-(R19-Pad1)*%
%TA.AperFunction,SMDPad,CuDef*%
G36*
G01*
X165105001Y-95172501D02*
X165105001Y-94697501D01*
G75*
G02*
X165342501Y-94460001I237500J0D01*
G01*
X165842501Y-94460001D01*
G75*
G02*
X166080001Y-94697501I0J-237500D01*
G01*
X166080001Y-95172501D01*
G75*
G02*
X165842501Y-95410001I-237500J0D01*
G01*
X165342501Y-95410001D01*
G75*
G02*
X165105001Y-95172501I0J237500D01*
G01*
G37*
%TD.AperFunction*%
%TO.P,R22,1*%
%TO.N,/DAC_OUT_A*%
%TA.AperFunction,SMDPad,CuDef*%
G36*
G01*
X163280001Y-95172501D02*
X163280001Y-94697501D01*
G75*
G02*
X163517501Y-94460001I237500J0D01*
G01*
X164017501Y-94460001D01*
G75*
G02*
X164255001Y-94697501I0J-237500D01*
G01*
X164255001Y-95172501D01*
G75*
G02*
X164017501Y-95410001I-237500J0D01*
G01*
X163517501Y-95410001D01*
G75*
G02*
X163280001Y-95172501I0J237500D01*
G01*
G37*
%TD.AperFunction*%
%TD*%
%TO.P,R21,2*%
%TO.N,/V_bias*%
%TA.AperFunction,SMDPad,CuDef*%
G36*
G01*
X173305001Y-91232501D02*
X173305001Y-90757501D01*
G75*
G02*
X173542501Y-90520001I237500J0D01*
G01*
X174042501Y-90520001D01*
G75*
G02*
X174280001Y-90757501I0J-237500D01*
G01*
X174280001Y-91232501D01*
G75*
G02*
X174042501Y-91470001I-237500J0D01*
G01*
X173542501Y-91470001D01*
G75*
G02*
X173305001Y-91232501I0J237500D01*
G01*
G37*
%TD.AperFunction*%
%TO.P,R21,1*%
%TO.N,GND*%
%TA.AperFunction,SMDPad,CuDef*%
G36*
G01*
X171480001Y-91232501D02*
X171480001Y-90757501D01*
G75*
G02*
X171717501Y-90520001I237500J0D01*
G01*
X172217501Y-90520001D01*
G75*
G02*
X172455001Y-90757501I0J-237500D01*
G01*
X172455001Y-91232501D01*
G75*
G02*
X172217501Y-91470001I-237500J0D01*
G01*
X171717501Y-91470001D01*
G75*
G02*
X171480001Y-91232501I0J237500D01*
G01*
G37*
%TD.AperFunction*%
%TD*%
%TO.P,R20,2*%
%TO.N,/V_bias*%
%TA.AperFunction,SMDPad,CuDef*%
G36*
G01*
X177655001Y-88722501D02*
X177655001Y-88247501D01*
G75*
G02*
X177892501Y-88010001I237500J0D01*
G01*
X178392501Y-88010001D01*
G75*
G02*
X178630001Y-88247501I0J-237500D01*
G01*
X178630001Y-88722501D01*
G75*
G02*
X178392501Y-88960001I-237500J0D01*
G01*
X177892501Y-88960001D01*
G75*
G02*
X177655001Y-88722501I0J237500D01*
G01*
G37*
%TD.AperFunction*%
%TO.P,R20,1*%
%TO.N,+5V*%
%TA.AperFunction,SMDPad,CuDef*%
G36*
G01*
X175830001Y-88722501D02*
X175830001Y-88247501D01*
G75*
G02*
X176067501Y-88010001I237500J0D01*
G01*
X176567501Y-88010001D01*
G75*
G02*
X176805001Y-88247501I0J-237500D01*
G01*
X176805001Y-88722501D01*
G75*
G02*
X176567501Y-88960001I-237500J0D01*
G01*
X176067501Y-88960001D01*
G75*
G02*
X175830001Y-88722501I0J237500D01*
G01*
G37*
%TD.AperFunction*%
%TD*%
%TO.P,R19,2*%
%TO.N,Net-(J1-Pad3)*%
%TA.AperFunction,SMDPad,CuDef*%
G36*
G01*
X169455001Y-95172501D02*
X169455001Y-94697501D01*
G75*
G02*
X169692501Y-94460001I237500J0D01*
G01*
X170192501Y-94460001D01*
G75*
G02*
X170430001Y-94697501I0J-237500D01*
G01*
X170430001Y-95172501D01*
G75*
G02*
X170192501Y-95410001I-237500J0D01*
G01*
X169692501Y-95410001D01*
G75*
G02*
X169455001Y-95172501I0J237500D01*
G01*
G37*
%TD.AperFunction*%
%TO.P,R19,1*%
%TO.N,Net-(R19-Pad1)*%
%TA.AperFunction,SMDPad,CuDef*%
G36*
G01*
X167630001Y-95172501D02*
X167630001Y-94697501D01*
G75*
G02*
X167867501Y-94460001I237500J0D01*
G01*
X168367501Y-94460001D01*
G75*
G02*
X168605001Y-94697501I0J-237500D01*
G01*
X168605001Y-95172501D01*
G75*
G02*
X168367501Y-95410001I-237500J0D01*
G01*
X167867501Y-95410001D01*
G75*
G02*
X167630001Y-95172501I0J237500D01*
G01*
G37*
%TD.AperFunction*%
%TD*%
%TO.P,R15,2*%
%TO.N,Net-(R15-Pad2)*%
%TA.AperFunction,SMDPad,CuDef*%
G36*
G01*
X177655001Y-91232501D02*
X177655001Y-90757501D01*
G75*
G02*
X177892501Y-90520001I237500J0D01*
G01*
X178392501Y-90520001D01*
G75*
G02*
X178630001Y-90757501I0J-237500D01*
G01*
X178630001Y-91232501D01*
G75*
G02*
X178392501Y-91470001I-237500J0D01*
G01*
X177892501Y-91470001D01*
G75*
G02*
X177655001Y-91232501I0J237500D01*
G01*
G37*
%TD.AperFunction*%
%TO.P,R15,1*%
%TO.N,/DAC_OUT_B*%
%TA.AperFunction,SMDPad,CuDef*%
G36*
G01*
X175830001Y-91232501D02*
X175830001Y-90757501D01*
G75*
G02*
X176067501Y-90520001I237500J0D01*
G01*
X176567501Y-90520001D01*
G75*
G02*
X176805001Y-90757501I0J-237500D01*
G01*
X176805001Y-91232501D01*
G75*
G02*
X176567501Y-91470001I-237500J0D01*
G01*
X176067501Y-91470001D01*
G75*
G02*
X175830001Y-91232501I0J237500D01*
G01*
G37*
%TD.AperFunction*%
%TD*%
%TO.P,R14,2*%
%TO.N,/Chunks_CV_A_cct/OPAMP_INV*%
%TA.AperFunction,SMDPad,CuDef*%
G36*
G01*
X192595001Y-103522501D02*
X192595001Y-103047501D01*
G75*
G02*
X192832501Y-102810001I237500J0D01*
G01*
X193332501Y-102810001D01*
G75*
G02*
X193570001Y-103047501I0J-237500D01*
G01*
X193570001Y-103522501D01*
G75*
G02*
X193332501Y-103760001I-237500J0D01*
G01*
X192832501Y-103760001D01*
G75*
G02*
X192595001Y-103522501I0J237500D01*
G01*
G37*
%TD.AperFunction*%
%TO.P,R14,1*%
%TO.N,/CHUNK_CV_A*%
%TA.AperFunction,SMDPad,CuDef*%
G36*
G01*
X190770001Y-103522501D02*
X190770001Y-103047501D01*
G75*
G02*
X191007501Y-102810001I237500J0D01*
G01*
X191507501Y-102810001D01*
G75*
G02*
X191745001Y-103047501I0J-237500D01*
G01*
X191745001Y-103522501D01*
G75*
G02*
X191507501Y-103760001I-237500J0D01*
G01*
X191007501Y-103760001D01*
G75*
G02*
X190770001Y-103522501I0J237500D01*
G01*
G37*
%TD.AperFunction*%
%TD*%
%TO.P,R13,2*%
%TO.N,Net-(J7-Pad3)*%
%TA.AperFunction,SMDPad,CuDef*%
G36*
G01*
X192595001Y-101012501D02*
X192595001Y-100537501D01*
G75*
G02*
X192832501Y-100300001I237500J0D01*
G01*
X193332501Y-100300001D01*
G75*
G02*
X193570001Y-100537501I0J-237500D01*
G01*
X193570001Y-101012501D01*
G75*
G02*
X193332501Y-101250001I-237500J0D01*
G01*
X192832501Y-101250001D01*
G75*
G02*
X192595001Y-101012501I0J237500D01*
G01*
G37*
%TD.AperFunction*%
%TO.P,R13,1*%
%TO.N,/Chunks_CV_A_cct/OPAMP_INV*%
%TA.AperFunction,SMDPad,CuDef*%
G36*
G01*
X190770001Y-101012501D02*
X190770001Y-100537501D01*
G75*
G02*
X191007501Y-100300001I237500J0D01*
G01*
X191507501Y-100300001D01*
G75*
G02*
X191745001Y-100537501I0J-237500D01*
G01*
X191745001Y-101012501D01*
G75*
G02*
X191507501Y-101250001I-237500J0D01*
G01*
X191007501Y-101250001D01*
G75*
G02*
X190770001Y-101012501I0J237500D01*
G01*
G37*
%TD.AperFunction*%
%TD*%
%TO.P,R12,2*%
%TO.N,/Chunks_CV_A_cct/AREF_-10V*%
%TA.AperFunction,SMDPad,CuDef*%
G36*
G01*
X188245001Y-103522501D02*
X188245001Y-103047501D01*
G75*
G02*
X188482501Y-102810001I237500J0D01*
G01*
X188982501Y-102810001D01*
G75*
G02*
X189220001Y-103047501I0J-237500D01*
G01*
X189220001Y-103522501D01*
G75*
G02*
X188982501Y-103760001I-237500J0D01*
G01*
X188482501Y-103760001D01*
G75*
G02*
X188245001Y-103522501I0J237500D01*
G01*
G37*
%TD.AperFunction*%
%TO.P,R12,1*%
%TO.N,/Chunks_CV_A_cct/OPAMP_INV*%
%TA.AperFunction,SMDPad,CuDef*%
G36*
G01*
X186420001Y-103522501D02*
X186420001Y-103047501D01*
G75*
G02*
X186657501Y-102810001I237500J0D01*
G01*
X187157501Y-102810001D01*
G75*
G02*
X187395001Y-103047501I0J-237500D01*
G01*
X187395001Y-103522501D01*
G75*
G02*
X187157501Y-103760001I-237500J0D01*
G01*
X186657501Y-103760001D01*
G75*
G02*
X186420001Y-103522501I0J237500D01*
G01*
G37*
%TD.AperFunction*%
%TD*%
%TO.P,R11,2*%
%TO.N,/Rate_CV_A_cct/OPAMP_INV*%
%TA.AperFunction,SMDPad,CuDef*%
G36*
G01*
X205295001Y-95072501D02*
X205295001Y-94597501D01*
G75*
G02*
X205532501Y-94360001I237500J0D01*
G01*
X206032501Y-94360001D01*
G75*
G02*
X206270001Y-94597501I0J-237500D01*
G01*
X206270001Y-95072501D01*
G75*
G02*
X206032501Y-95310001I-237500J0D01*
G01*
X205532501Y-95310001D01*
G75*
G02*
X205295001Y-95072501I0J237500D01*
G01*
G37*
%TD.AperFunction*%
%TO.P,R11,1*%
%TO.N,/RATE_CV_A*%
%TA.AperFunction,SMDPad,CuDef*%
G36*
G01*
X203470001Y-95072501D02*
X203470001Y-94597501D01*
G75*
G02*
X203707501Y-94360001I237500J0D01*
G01*
X204207501Y-94360001D01*
G75*
G02*
X204445001Y-94597501I0J-237500D01*
G01*
X204445001Y-95072501D01*
G75*
G02*
X204207501Y-95310001I-237500J0D01*
G01*
X203707501Y-95310001D01*
G75*
G02*
X203470001Y-95072501I0J237500D01*
G01*
G37*
%TD.AperFunction*%
%TD*%
%TO.P,R10,2*%
%TO.N,Net-(J6-Pad3)*%
%TA.AperFunction,SMDPad,CuDef*%
G36*
G01*
X205295001Y-92562501D02*
X205295001Y-92087501D01*
G75*
G02*
X205532501Y-91850001I237500J0D01*
G01*
X206032501Y-91850001D01*
G75*
G02*
X206270001Y-92087501I0J-237500D01*
G01*
X206270001Y-92562501D01*
G75*
G02*
X206032501Y-92800001I-237500J0D01*
G01*
X205532501Y-92800001D01*
G75*
G02*
X205295001Y-92562501I0J237500D01*
G01*
G37*
%TD.AperFunction*%
%TO.P,R10,1*%
%TO.N,/Rate_CV_A_cct/OPAMP_INV*%
%TA.AperFunction,SMDPad,CuDef*%
G36*
G01*
X203470001Y-92562501D02*
X203470001Y-92087501D01*
G75*
G02*
X203707501Y-91850001I237500J0D01*
G01*
X204207501Y-91850001D01*
G75*
G02*
X204445001Y-92087501I0J-237500D01*
G01*
X204445001Y-92562501D01*
G75*
G02*
X204207501Y-92800001I-237500J0D01*
G01*
X203707501Y-92800001D01*
G75*
G02*
X203470001Y-92562501I0J237500D01*
G01*
G37*
%TD.AperFunction*%
%TD*%
%TO.P,R9,2*%
%TO.N,/Rate_CV_A_cct/AREF_-10V*%
%TA.AperFunction,SMDPad,CuDef*%
G36*
G01*
X200945001Y-95072501D02*
X200945001Y-94597501D01*
G75*
G02*
X201182501Y-94360001I237500J0D01*
G01*
X201682501Y-94360001D01*
G75*
G02*
X201920001Y-94597501I0J-237500D01*
G01*
X201920001Y-95072501D01*
G75*
G02*
X201682501Y-95310001I-237500J0D01*
G01*
X201182501Y-95310001D01*
G75*
G02*
X200945001Y-95072501I0J237500D01*
G01*
G37*
%TD.AperFunction*%
%TO.P,R9,1*%
%TO.N,/Rate_CV_A_cct/OPAMP_INV*%
%TA.AperFunction,SMDPad,CuDef*%
G36*
G01*
X199120001Y-95072501D02*
X199120001Y-94597501D01*
G75*
G02*
X199357501Y-94360001I237500J0D01*
G01*
X199857501Y-94360001D01*
G75*
G02*
X200095001Y-94597501I0J-237500D01*
G01*
X200095001Y-95072501D01*
G75*
G02*
X199857501Y-95310001I-237500J0D01*
G01*
X199357501Y-95310001D01*
G75*
G02*
X199120001Y-95072501I0J237500D01*
G01*
G37*
%TD.AperFunction*%
%TD*%
%TO.P,R8,2*%
%TO.N,/Morph_CV_A_cct/OPAMP_INV*%
%TA.AperFunction,SMDPad,CuDef*%
G36*
G01*
X192595001Y-95072501D02*
X192595001Y-94597501D01*
G75*
G02*
X192832501Y-94360001I237500J0D01*
G01*
X193332501Y-94360001D01*
G75*
G02*
X193570001Y-94597501I0J-237500D01*
G01*
X193570001Y-95072501D01*
G75*
G02*
X193332501Y-95310001I-237500J0D01*
G01*
X192832501Y-95310001D01*
G75*
G02*
X192595001Y-95072501I0J237500D01*
G01*
G37*
%TD.AperFunction*%
%TO.P,R8,1*%
%TO.N,/MORPH_CV_A*%
%TA.AperFunction,SMDPad,CuDef*%
G36*
G01*
X190770001Y-95072501D02*
X190770001Y-94597501D01*
G75*
G02*
X191007501Y-94360001I237500J0D01*
G01*
X191507501Y-94360001D01*
G75*
G02*
X191745001Y-94597501I0J-237500D01*
G01*
X191745001Y-95072501D01*
G75*
G02*
X191507501Y-95310001I-237500J0D01*
G01*
X191007501Y-95310001D01*
G75*
G02*
X190770001Y-95072501I0J237500D01*
G01*
G37*
%TD.AperFunction*%
%TD*%
%TO.P,R7,2*%
%TO.N,+3V3*%
%TA.AperFunction,SMDPad,CuDef*%
G36*
G01*
X160855001Y-100902501D02*
X160855001Y-100427501D01*
G75*
G02*
X161092501Y-100190001I237500J0D01*
G01*
X161592501Y-100190001D01*
G75*
G02*
X161830001Y-100427501I0J-237500D01*
G01*
X161830001Y-100902501D01*
G75*
G02*
X161592501Y-101140001I-237500J0D01*
G01*
X161092501Y-101140001D01*
G75*
G02*
X160855001Y-100902501I0J237500D01*
G01*
G37*
%TD.AperFunction*%
%TO.P,R7,1*%
%TO.N,/CLK_IN_A*%
%TA.AperFunction,SMDPad,CuDef*%
G36*
G01*
X159030001Y-100902501D02*
X159030001Y-100427501D01*
G75*
G02*
X159267501Y-100190001I237500J0D01*
G01*
X159767501Y-100190001D01*
G75*
G02*
X160005001Y-100427501I0J-237500D01*
G01*
X160005001Y-100902501D01*
G75*
G02*
X159767501Y-101140001I-237500J0D01*
G01*
X159267501Y-101140001D01*
G75*
G02*
X159030001Y-100902501I0J237500D01*
G01*
G37*
%TD.AperFunction*%
%TD*%
%TO.P,R6,2*%
%TO.N,Net-(J5-Pad3)*%
%TA.AperFunction,SMDPad,CuDef*%
G36*
G01*
X192595001Y-92562501D02*
X192595001Y-92087501D01*
G75*
G02*
X192832501Y-91850001I237500J0D01*
G01*
X193332501Y-91850001D01*
G75*
G02*
X193570001Y-92087501I0J-237500D01*
G01*
X193570001Y-92562501D01*
G75*
G02*
X193332501Y-92800001I-237500J0D01*
G01*
X192832501Y-92800001D01*
G75*
G02*
X192595001Y-92562501I0J237500D01*
G01*
G37*
%TD.AperFunction*%
%TO.P,R6,1*%
%TO.N,/Morph_CV_A_cct/OPAMP_INV*%
%TA.AperFunction,SMDPad,CuDef*%
G36*
G01*
X190770001Y-92562501D02*
X190770001Y-92087501D01*
G75*
G02*
X191007501Y-91850001I237500J0D01*
G01*
X191507501Y-91850001D01*
G75*
G02*
X191745001Y-92087501I0J-237500D01*
G01*
X191745001Y-92562501D01*
G75*
G02*
X191507501Y-92800001I-237500J0D01*
G01*
X191007501Y-92800001D01*
G75*
G02*
X190770001Y-92562501I0J237500D01*
G01*
G37*
%TD.AperFunction*%
%TD*%
%TO.P,R5,2*%
%TO.N,/Morph_CV_A_cct/AREF_-10V*%
%TA.AperFunction,SMDPad,CuDef*%
G36*
G01*
X188245001Y-95072501D02*
X188245001Y-94597501D01*
G75*
G02*
X188482501Y-94360001I237500J0D01*
G01*
X188982501Y-94360001D01*
G75*
G02*
X189220001Y-94597501I0J-237500D01*
G01*
X189220001Y-95072501D01*
G75*
G02*
X188982501Y-95310001I-237500J0D01*
G01*
X188482501Y-95310001D01*
G75*
G02*
X188245001Y-95072501I0J237500D01*
G01*
G37*
%TD.AperFunction*%
%TO.P,R5,1*%
%TO.N,/Morph_CV_A_cct/OPAMP_INV*%
%TA.AperFunction,SMDPad,CuDef*%
G36*
G01*
X186420001Y-95072501D02*
X186420001Y-94597501D01*
G75*
G02*
X186657501Y-94360001I237500J0D01*
G01*
X187157501Y-94360001D01*
G75*
G02*
X187395001Y-94597501I0J-237500D01*
G01*
X187395001Y-95072501D01*
G75*
G02*
X187157501Y-95310001I-237500J0D01*
G01*
X186657501Y-95310001D01*
G75*
G02*
X186420001Y-95072501I0J237500D01*
G01*
G37*
%TD.AperFunction*%
%TD*%
%TO.P,R4,2*%
%TO.N,Net-(J12-Pad3)*%
%TA.AperFunction,SMDPad,CuDef*%
G36*
G01*
X160855001Y-103412501D02*
X160855001Y-102937501D01*
G75*
G02*
X161092501Y-102700001I237500J0D01*
G01*
X161592501Y-102700001D01*
G75*
G02*
X161830001Y-102937501I0J-237500D01*
G01*
X161830001Y-103412501D01*
G75*
G02*
X161592501Y-103650001I-237500J0D01*
G01*
X161092501Y-103650001D01*
G75*
G02*
X160855001Y-103412501I0J237500D01*
G01*
G37*
%TD.AperFunction*%
%TO.P,R4,1*%
%TO.N,Net-(Q1-Pad1)*%
%TA.AperFunction,SMDPad,CuDef*%
G36*
G01*
X159030001Y-103412501D02*
X159030001Y-102937501D01*
G75*
G02*
X159267501Y-102700001I237500J0D01*
G01*
X159767501Y-102700001D01*
G75*
G02*
X160005001Y-102937501I0J-237500D01*
G01*
X160005001Y-103412501D01*
G75*
G02*
X159767501Y-103650001I-237500J0D01*
G01*
X159267501Y-103650001D01*
G75*
G02*
X159030001Y-103412501I0J237500D01*
G01*
G37*
%TD.AperFunction*%
%TD*%
%TO.P,R3,2*%
%TO.N,Net-(J2-Pad3)*%
%TA.AperFunction,SMDPad,CuDef*%
G36*
G01*
X173805001Y-93742501D02*
X173805001Y-93267501D01*
G75*
G02*
X174042501Y-93030001I237500J0D01*
G01*
X174542501Y-93030001D01*
G75*
G02*
X174780001Y-93267501I0J-237500D01*
G01*
X174780001Y-93742501D01*
G75*
G02*
X174542501Y-93980001I-237500J0D01*
G01*
X174042501Y-93980001D01*
G75*
G02*
X173805001Y-93742501I0J237500D01*
G01*
G37*
%TD.AperFunction*%
%TO.P,R3,1*%
%TO.N,Net-(R15-Pad2)*%
%TA.AperFunction,SMDPad,CuDef*%
G36*
G01*
X171980001Y-93742501D02*
X171980001Y-93267501D01*
G75*
G02*
X172217501Y-93030001I237500J0D01*
G01*
X172717501Y-93030001D01*
G75*
G02*
X172955001Y-93267501I0J-237500D01*
G01*
X172955001Y-93742501D01*
G75*
G02*
X172717501Y-93980001I-237500J0D01*
G01*
X172217501Y-93980001D01*
G75*
G02*
X171980001Y-93742501I0J237500D01*
G01*
G37*
%TD.AperFunction*%
%TD*%
%TO.P,R1,2*%
%TO.N,Net-(J12-Pad3)*%
%TA.AperFunction,SMDPad,CuDef*%
G36*
G01*
X156405001Y-105452501D02*
X156405001Y-104977501D01*
G75*
G02*
X156642501Y-104740001I237500J0D01*
G01*
X157142501Y-104740001D01*
G75*
G02*
X157380001Y-104977501I0J-237500D01*
G01*
X157380001Y-105452501D01*
G75*
G02*
X157142501Y-105690001I-237500J0D01*
G01*
X156642501Y-105690001D01*
G75*
G02*
X156405001Y-105452501I0J237500D01*
G01*
G37*
%TD.AperFunction*%
%TO.P,R1,1*%
%TO.N,GND*%
%TA.AperFunction,SMDPad,CuDef*%
G36*
G01*
X154580001Y-105452501D02*
X154580001Y-104977501D01*
G75*
G02*
X154817501Y-104740001I237500J0D01*
G01*
X155317501Y-104740001D01*
G75*
G02*
X155555001Y-104977501I0J-237500D01*
G01*
X155555001Y-105452501D01*
G75*
G02*
X155317501Y-105690001I-237500J0D01*
G01*
X154817501Y-105690001D01*
G75*
G02*
X154580001Y-105452501I0J237500D01*
G01*
G37*
%TD.AperFunction*%
%TD*%
D13*
%TO.P,Q6,3*%
%TO.N,/RESET_IN_B*%
X172950001Y-111975001D03*
%TO.P,Q6,2*%
%TO.N,GND*%
X170950001Y-112925001D03*
%TO.P,Q6,1*%
%TO.N,Net-(Q6-Pad1)*%
X170950001Y-111025001D03*
%TD*%
%TO.P,Q5,3*%
%TO.N,/TRIG_IN_B*%
X203740001Y-83055001D03*
%TO.P,Q5,2*%
%TO.N,GND*%
X201740001Y-84005001D03*
%TO.P,Q5,1*%
%TO.N,Net-(Q5-Pad1)*%
X201740001Y-82105001D03*
%TD*%
%TO.P,Q4,3*%
%TO.N,/CLK_IN_B*%
X172950001Y-101685001D03*
%TO.P,Q4,2*%
%TO.N,GND*%
X170950001Y-102635001D03*
%TO.P,Q4,1*%
%TO.N,Net-(Q4-Pad1)*%
X170950001Y-100735001D03*
%TD*%
%TO.P,Q3,3*%
%TO.N,/RESET_IN_A*%
X157030001Y-111975001D03*
%TO.P,Q3,2*%
%TO.N,GND*%
X155030001Y-112925001D03*
%TO.P,Q3,1*%
%TO.N,Net-(Q3-Pad1)*%
X155030001Y-111025001D03*
%TD*%
%TO.P,Q2,3*%
%TO.N,/TRIG_IN_A*%
X187820001Y-83055001D03*
%TO.P,Q2,2*%
%TO.N,GND*%
X185820001Y-84005001D03*
%TO.P,Q2,1*%
%TO.N,Net-(Q2-Pad1)*%
X185820001Y-82105001D03*
%TD*%
%TO.P,Q1,3*%
%TO.N,/CLK_IN_A*%
X157030001Y-101685001D03*
%TO.P,Q1,2*%
%TO.N,GND*%
X155030001Y-102635001D03*
%TO.P,Q1,1*%
%TO.N,Net-(Q1-Pad1)*%
X155030001Y-100735001D03*
%TD*%
%TO.P,C10,2*%
%TO.N,/Chunks_CV_B_cct/OPAMP_INV*%
%TA.AperFunction,SMDPad,CuDef*%
G36*
G01*
X200845001Y-101012501D02*
X200845001Y-100537501D01*
G75*
G02*
X201082501Y-100300001I237500J0D01*
G01*
X201682501Y-100300001D01*
G75*
G02*
X201920001Y-100537501I0J-237500D01*
G01*
X201920001Y-101012501D01*
G75*
G02*
X201682501Y-101250001I-237500J0D01*
G01*
X201082501Y-101250001D01*
G75*
G02*
X200845001Y-101012501I0J237500D01*
G01*
G37*
%TD.AperFunction*%
%TO.P,C10,1*%
%TO.N,/CHUNK_CV_B*%
%TA.AperFunction,SMDPad,CuDef*%
G36*
G01*
X199120001Y-101012501D02*
X199120001Y-100537501D01*
G75*
G02*
X199357501Y-100300001I237500J0D01*
G01*
X199957501Y-100300001D01*
G75*
G02*
X200195001Y-100537501I0J-237500D01*
G01*
X200195001Y-101012501D01*
G75*
G02*
X199957501Y-101250001I-237500J0D01*
G01*
X199357501Y-101250001D01*
G75*
G02*
X199120001Y-101012501I0J237500D01*
G01*
G37*
%TD.AperFunction*%
%TD*%
%TO.P,C9,2*%
%TO.N,/Rate_CV_B_cct/OPAMP_INV*%
%TA.AperFunction,SMDPad,CuDef*%
G36*
G01*
X188145001Y-111972501D02*
X188145001Y-111497501D01*
G75*
G02*
X188382501Y-111260001I237500J0D01*
G01*
X188982501Y-111260001D01*
G75*
G02*
X189220001Y-111497501I0J-237500D01*
G01*
X189220001Y-111972501D01*
G75*
G02*
X188982501Y-112210001I-237500J0D01*
G01*
X188382501Y-112210001D01*
G75*
G02*
X188145001Y-111972501I0J237500D01*
G01*
G37*
%TD.AperFunction*%
%TO.P,C9,1*%
%TO.N,/RATE_CV_B*%
%TA.AperFunction,SMDPad,CuDef*%
G36*
G01*
X186420001Y-111972501D02*
X186420001Y-111497501D01*
G75*
G02*
X186657501Y-111260001I237500J0D01*
G01*
X187257501Y-111260001D01*
G75*
G02*
X187495001Y-111497501I0J-237500D01*
G01*
X187495001Y-111972501D01*
G75*
G02*
X187257501Y-112210001I-237500J0D01*
G01*
X186657501Y-112210001D01*
G75*
G02*
X186420001Y-111972501I0J237500D01*
G01*
G37*
%TD.AperFunction*%
%TD*%
%TO.P,C8,2*%
%TO.N,/Morph_CV_B_cct/OPAMP_INV*%
%TA.AperFunction,SMDPad,CuDef*%
G36*
G01*
X218935001Y-82272501D02*
X218935001Y-81797501D01*
G75*
G02*
X219172501Y-81560001I237500J0D01*
G01*
X219772501Y-81560001D01*
G75*
G02*
X220010001Y-81797501I0J-237500D01*
G01*
X220010001Y-82272501D01*
G75*
G02*
X219772501Y-82510001I-237500J0D01*
G01*
X219172501Y-82510001D01*
G75*
G02*
X218935001Y-82272501I0J237500D01*
G01*
G37*
%TD.AperFunction*%
%TO.P,C8,1*%
%TO.N,/MORPH_CV_B*%
%TA.AperFunction,SMDPad,CuDef*%
G36*
G01*
X217210001Y-82272501D02*
X217210001Y-81797501D01*
G75*
G02*
X217447501Y-81560001I237500J0D01*
G01*
X218047501Y-81560001D01*
G75*
G02*
X218285001Y-81797501I0J-237500D01*
G01*
X218285001Y-82272501D01*
G75*
G02*
X218047501Y-82510001I-237500J0D01*
G01*
X217447501Y-82510001D01*
G75*
G02*
X217210001Y-82272501I0J237500D01*
G01*
G37*
%TD.AperFunction*%
%TD*%
%TO.P,C7,2*%
%TO.N,GND*%
%TA.AperFunction,SMDPad,CuDef*%
G36*
G01*
X160655001Y-95172501D02*
X160655001Y-94697501D01*
G75*
G02*
X160892501Y-94460001I237500J0D01*
G01*
X161492501Y-94460001D01*
G75*
G02*
X161730001Y-94697501I0J-237500D01*
G01*
X161730001Y-95172501D01*
G75*
G02*
X161492501Y-95410001I-237500J0D01*
G01*
X160892501Y-95410001D01*
G75*
G02*
X160655001Y-95172501I0J237500D01*
G01*
G37*
%TD.AperFunction*%
%TO.P,C7,1*%
%TO.N,/AREF_-10V*%
%TA.AperFunction,SMDPad,CuDef*%
G36*
G01*
X158930001Y-95172501D02*
X158930001Y-94697501D01*
G75*
G02*
X159167501Y-94460001I237500J0D01*
G01*
X159767501Y-94460001D01*
G75*
G02*
X160005001Y-94697501I0J-237500D01*
G01*
X160005001Y-95172501D01*
G75*
G02*
X159767501Y-95410001I-237500J0D01*
G01*
X159167501Y-95410001D01*
G75*
G02*
X158930001Y-95172501I0J237500D01*
G01*
G37*
%TD.AperFunction*%
%TD*%
%TO.P,C6,2*%
%TO.N,GND*%
%TA.AperFunction,SMDPad,CuDef*%
G36*
G01*
X173205001Y-88722501D02*
X173205001Y-88247501D01*
G75*
G02*
X173442501Y-88010001I237500J0D01*
G01*
X174042501Y-88010001D01*
G75*
G02*
X174280001Y-88247501I0J-237500D01*
G01*
X174280001Y-88722501D01*
G75*
G02*
X174042501Y-88960001I-237500J0D01*
G01*
X173442501Y-88960001D01*
G75*
G02*
X173205001Y-88722501I0J237500D01*
G01*
G37*
%TD.AperFunction*%
%TO.P,C6,1*%
%TO.N,+5V*%
%TA.AperFunction,SMDPad,CuDef*%
G36*
G01*
X171480001Y-88722501D02*
X171480001Y-88247501D01*
G75*
G02*
X171717501Y-88010001I237500J0D01*
G01*
X172317501Y-88010001D01*
G75*
G02*
X172555001Y-88247501I0J-237500D01*
G01*
X172555001Y-88722501D01*
G75*
G02*
X172317501Y-88960001I-237500J0D01*
G01*
X171717501Y-88960001D01*
G75*
G02*
X171480001Y-88722501I0J237500D01*
G01*
G37*
%TD.AperFunction*%
%TD*%
%TO.P,C5,2*%
%TO.N,GND*%
%TA.AperFunction,SMDPad,CuDef*%
G36*
G01*
X156305001Y-95172501D02*
X156305001Y-94697501D01*
G75*
G02*
X156542501Y-94460001I237500J0D01*
G01*
X157142501Y-94460001D01*
G75*
G02*
X157380001Y-94697501I0J-237500D01*
G01*
X157380001Y-95172501D01*
G75*
G02*
X157142501Y-95410001I-237500J0D01*
G01*
X156542501Y-95410001D01*
G75*
G02*
X156305001Y-95172501I0J237500D01*
G01*
G37*
%TD.AperFunction*%
%TO.P,C5,1*%
%TO.N,+12V*%
%TA.AperFunction,SMDPad,CuDef*%
G36*
G01*
X154580001Y-95172501D02*
X154580001Y-94697501D01*
G75*
G02*
X154817501Y-94460001I237500J0D01*
G01*
X155417501Y-94460001D01*
G75*
G02*
X155655001Y-94697501I0J-237500D01*
G01*
X155655001Y-95172501D01*
G75*
G02*
X155417501Y-95410001I-237500J0D01*
G01*
X154817501Y-95410001D01*
G75*
G02*
X154580001Y-95172501I0J237500D01*
G01*
G37*
%TD.AperFunction*%
%TD*%
%TO.P,C4,2*%
%TO.N,/Chunks_CV_A_cct/OPAMP_INV*%
%TA.AperFunction,SMDPad,CuDef*%
G36*
G01*
X188145001Y-101012501D02*
X188145001Y-100537501D01*
G75*
G02*
X188382501Y-100300001I237500J0D01*
G01*
X188982501Y-100300001D01*
G75*
G02*
X189220001Y-100537501I0J-237500D01*
G01*
X189220001Y-101012501D01*
G75*
G02*
X188982501Y-101250001I-237500J0D01*
G01*
X188382501Y-101250001D01*
G75*
G02*
X188145001Y-101012501I0J237500D01*
G01*
G37*
%TD.AperFunction*%
%TO.P,C4,1*%
%TO.N,/CHUNK_CV_A*%
%TA.AperFunction,SMDPad,CuDef*%
G36*
G01*
X186420001Y-101012501D02*
X186420001Y-100537501D01*
G75*
G02*
X186657501Y-100300001I237500J0D01*
G01*
X187257501Y-100300001D01*
G75*
G02*
X187495001Y-100537501I0J-237500D01*
G01*
X187495001Y-101012501D01*
G75*
G02*
X187257501Y-101250001I-237500J0D01*
G01*
X186657501Y-101250001D01*
G75*
G02*
X186420001Y-101012501I0J237500D01*
G01*
G37*
%TD.AperFunction*%
%TD*%
%TO.P,C3,2*%
%TO.N,/Rate_CV_A_cct/OPAMP_INV*%
%TA.AperFunction,SMDPad,CuDef*%
G36*
G01*
X200845001Y-92562501D02*
X200845001Y-92087501D01*
G75*
G02*
X201082501Y-91850001I237500J0D01*
G01*
X201682501Y-91850001D01*
G75*
G02*
X201920001Y-92087501I0J-237500D01*
G01*
X201920001Y-92562501D01*
G75*
G02*
X201682501Y-92800001I-237500J0D01*
G01*
X201082501Y-92800001D01*
G75*
G02*
X200845001Y-92562501I0J237500D01*
G01*
G37*
%TD.AperFunction*%
%TO.P,C3,1*%
%TO.N,/RATE_CV_A*%
%TA.AperFunction,SMDPad,CuDef*%
G36*
G01*
X199120001Y-92562501D02*
X199120001Y-92087501D01*
G75*
G02*
X199357501Y-91850001I237500J0D01*
G01*
X199957501Y-91850001D01*
G75*
G02*
X200195001Y-92087501I0J-237500D01*
G01*
X200195001Y-92562501D01*
G75*
G02*
X199957501Y-92800001I-237500J0D01*
G01*
X199357501Y-92800001D01*
G75*
G02*
X199120001Y-92562501I0J237500D01*
G01*
G37*
%TD.AperFunction*%
%TD*%
%TO.P,C2,2*%
%TO.N,/Morph_CV_A_cct/OPAMP_INV*%
%TA.AperFunction,SMDPad,CuDef*%
G36*
G01*
X188145001Y-92562501D02*
X188145001Y-92087501D01*
G75*
G02*
X188382501Y-91850001I237500J0D01*
G01*
X188982501Y-91850001D01*
G75*
G02*
X189220001Y-92087501I0J-237500D01*
G01*
X189220001Y-92562501D01*
G75*
G02*
X188982501Y-92800001I-237500J0D01*
G01*
X188382501Y-92800001D01*
G75*
G02*
X188145001Y-92562501I0J237500D01*
G01*
G37*
%TD.AperFunction*%
%TO.P,C2,1*%
%TO.N,/MORPH_CV_A*%
%TA.AperFunction,SMDPad,CuDef*%
G36*
G01*
X186420001Y-92562501D02*
X186420001Y-92087501D01*
G75*
G02*
X186657501Y-91850001I237500J0D01*
G01*
X187257501Y-91850001D01*
G75*
G02*
X187495001Y-92087501I0J-237500D01*
G01*
X187495001Y-92562501D01*
G75*
G02*
X187257501Y-92800001I-237500J0D01*
G01*
X186657501Y-92800001D01*
G75*
G02*
X186420001Y-92562501I0J237500D01*
G01*
G37*
%TD.AperFunction*%
%TD*%
%TO.P,C1,2*%
%TO.N,-12V*%
%TA.AperFunction,SMDPad,CuDef*%
G36*
G01*
X156305001Y-92482501D02*
X156305001Y-92007501D01*
G75*
G02*
X156542501Y-91770001I237500J0D01*
G01*
X157142501Y-91770001D01*
G75*
G02*
X157380001Y-92007501I0J-237500D01*
G01*
X157380001Y-92482501D01*
G75*
G02*
X157142501Y-92720001I-237500J0D01*
G01*
X156542501Y-92720001D01*
G75*
G02*
X156305001Y-92482501I0J237500D01*
G01*
G37*
%TD.AperFunction*%
%TO.P,C1,1*%
%TO.N,GND*%
%TA.AperFunction,SMDPad,CuDef*%
G36*
G01*
X154580001Y-92482501D02*
X154580001Y-92007501D01*
G75*
G02*
X154817501Y-91770001I237500J0D01*
G01*
X155417501Y-91770001D01*
G75*
G02*
X155655001Y-92007501I0J-237500D01*
G01*
X155655001Y-92482501D01*
G75*
G02*
X155417501Y-92720001I-237500J0D01*
G01*
X154817501Y-92720001D01*
G75*
G02*
X154580001Y-92482501I0J237500D01*
G01*
G37*
%TD.AperFunction*%
%TD*%
%TO.P,U4,3*%
%TO.N,N/C*%
X201660000Y-112395000D03*
%TO.P,U4,2*%
%TO.N,/AREF_-10V*%
X199660000Y-113345000D03*
%TO.P,U4,1*%
%TO.N,GND*%
X199660000Y-111445000D03*
%TD*%
D14*
%TO.P,U3,62*%
%TO.N,N/C*%
X166412000Y-51981000D03*
%TO.P,U3,61*%
X163872000Y-51981000D03*
%TO.P,U3,60*%
X161332000Y-51981000D03*
%TO.P,U3,59*%
X158792000Y-51981000D03*
%TO.P,U3,58*%
X156252000Y-51981000D03*
%TO.P,U3,57*%
%TO.N,/EOC_A*%
X162602000Y-42281000D03*
%TO.P,U3,56*%
%TO.N,/EOC_B*%
X160062000Y-42281000D03*
%TO.P,U3,55*%
%TO.N,Net-(U3-Pad55)*%
X157522000Y-42281000D03*
%TO.P,U3,54*%
%TO.N,Net-(U3-Pad54)*%
X152442000Y-42281000D03*
%TO.P,U3,53*%
%TO.N,+5V*%
X149902000Y-39741000D03*
%TO.P,U3,52*%
%TO.N,Net-(U3-Pad52)*%
X152442000Y-39741000D03*
%TO.P,U3,51*%
%TO.N,+3V3*%
X154982000Y-39741000D03*
%TO.P,U3,50*%
%TO.N,/RATE_POT_B*%
X157522000Y-39741000D03*
%TO.P,U3,49*%
%TO.N,/MORPH_POT_B*%
X160062000Y-39741000D03*
%TO.P,U3,48*%
%TO.N,/CHUNK_POT_B*%
X162602000Y-39741000D03*
%TO.P,U3,47*%
%TO.N,/RATE_CV_B*%
X165142000Y-39741000D03*
%TO.P,U3,46*%
%TO.N,/MORPH_CV_B*%
X167682000Y-39741000D03*
%TO.P,U3,45*%
%TO.N,/CHUNK_CV_B*%
X170222000Y-39741000D03*
%TO.P,U3,44*%
%TO.N,/RESET_SENSE_B*%
X172762000Y-39741000D03*
%TO.P,U3,43*%
%TO.N,/TRIG_SENSE_B*%
X175302000Y-39741000D03*
%TO.P,U3,42*%
%TO.N,/CLK_SENSE_B*%
X177842000Y-39741000D03*
%TO.P,U3,41*%
%TO.N,/BTN_MODE_SELECT*%
X180382000Y-39741000D03*
%TO.P,U3,40*%
%TO.N,Net-(U3-Pad40)*%
X182922000Y-39741000D03*
%TO.P,U3,39*%
%TO.N,GND*%
X185462000Y-39741000D03*
%TO.P,U3,38*%
%TO.N,/DAC_OUT_B*%
X188002000Y-39741000D03*
D15*
%TO.P,U3,1*%
%TO.N,GND*%
X149902000Y-54981000D03*
D14*
%TO.P,U3,2*%
%TO.N,Net-(U3-Pad2)*%
X152442000Y-54981000D03*
%TO.P,U3,3*%
%TO.N,Net-(U3-Pad3)*%
X154982000Y-54981000D03*
%TO.P,U3,4*%
%TO.N,Net-(U3-Pad4)*%
X157522000Y-54981000D03*
%TO.P,U3,5*%
%TO.N,/LED_A_R*%
X160062000Y-54981000D03*
%TO.P,U3,6*%
%TO.N,/LED_A_G*%
X162602000Y-54981000D03*
%TO.P,U3,7*%
%TO.N,/LED_A_B*%
X165142000Y-54981000D03*
%TO.P,U3,8*%
%TO.N,/LED_B_R*%
X167682000Y-54981000D03*
%TO.P,U3,9*%
%TO.N,Net-(U3-Pad9)*%
X170222000Y-54981000D03*
%TO.P,U3,10*%
%TO.N,Net-(U3-Pad10)*%
X172762000Y-54981000D03*
%TO.P,U3,11*%
%TO.N,/LED_B_G*%
X175302000Y-54981000D03*
%TO.P,U3,12*%
%TO.N,/LED_B_B*%
X177842000Y-54981000D03*
%TO.P,U3,13*%
%TO.N,Net-(U3-Pad13)*%
X180382000Y-54981000D03*
%TO.P,U3,37*%
%TO.N,/DAC_OUT_A*%
X190542000Y-39741000D03*
%TO.P,U3,36*%
%TO.N,Net-(U3-Pad36)*%
X193082000Y-39741000D03*
%TO.P,U3,35*%
%TO.N,/CHUNK_CV_A*%
X195622000Y-39741000D03*
%TO.P,U3,34*%
%TO.N,/MORPH_CV_A*%
X198162000Y-39741000D03*
%TO.P,U3,33*%
%TO.N,/RATE_CV_A*%
X200702000Y-39741000D03*
%TO.P,U3,32*%
%TO.N,/CHUNK_POT_A*%
X203242000Y-39741000D03*
%TO.P,U3,31*%
%TO.N,/MORPH_POT_A*%
X205782000Y-39741000D03*
%TO.P,U3,30*%
%TO.N,/RATE_POT_A*%
X208322000Y-39741000D03*
%TO.P,U3,29*%
%TO.N,Net-(U3-Pad29)*%
X195622000Y-42281000D03*
%TO.P,U3,28*%
%TO.N,Net-(U3-Pad28)*%
X195622000Y-44821000D03*
%TO.P,U3,27*%
%TO.N,GND*%
X195622000Y-47361000D03*
%TO.P,U3,26*%
%TO.N,Net-(U3-Pad26)*%
X195622000Y-49901000D03*
%TO.P,U3,25*%
%TO.N,Net-(U3-Pad25)*%
X195622000Y-52441000D03*
%TO.P,U3,24*%
%TO.N,/RESET_SENSE_A*%
X208322000Y-54981000D03*
%TO.P,U3,23*%
%TO.N,/TRIG_SENSE_A*%
X205782000Y-54981000D03*
%TO.P,U3,22*%
%TO.N,/CLK_SENSE_A*%
X203242000Y-54981000D03*
%TO.P,U3,21*%
%TO.N,/RESET_IN_B*%
X200702000Y-54981000D03*
%TO.P,U3,14*%
%TO.N,Net-(U3-Pad14)*%
X182922000Y-54981000D03*
%TO.P,U3,15*%
%TO.N,Net-(U3-Pad15)*%
X185462000Y-54981000D03*
%TO.P,U3,16*%
%TO.N,/CLK_IN_A*%
X188002000Y-54981000D03*
%TO.P,U3,20*%
%TO.N,/TRIG_IN_B*%
X198162000Y-54981000D03*
%TO.P,U3,19*%
%TO.N,/CLK_IN_B*%
X195622000Y-54981000D03*
%TO.P,U3,18*%
%TO.N,/RESET_IN_A*%
X193082000Y-54981000D03*
%TO.P,U3,17*%
%TO.N,/TRIG_IN_A*%
X190542000Y-54981000D03*
%TD*%
D16*
%TO.P,RV6,1*%
%TO.N,+3V3*%
X267843000Y-129921000D03*
D17*
%TO.P,RV6,2*%
%TO.N,/CHUNK_POT_B*%
X265343000Y-129921000D03*
%TO.P,RV6,3*%
%TO.N,GND*%
X262843000Y-129921000D03*
D18*
%TO.P,RV6,*%
%TO.N,*%
X260543000Y-137421000D03*
X270143000Y-137421000D03*
%TD*%
D16*
%TO.P,RV5,1*%
%TO.N,+3V3*%
X267843000Y-112141000D03*
D17*
%TO.P,RV5,2*%
%TO.N,/RATE_POT_B*%
X265343000Y-112141000D03*
%TO.P,RV5,3*%
%TO.N,GND*%
X262843000Y-112141000D03*
D18*
%TO.P,RV5,*%
%TO.N,*%
X260543000Y-119641000D03*
X270143000Y-119641000D03*
%TD*%
%TO.P,RV4,*%
%TO.N,*%
X270143000Y-101393000D03*
X260543000Y-101393000D03*
D17*
%TO.P,RV4,3*%
%TO.N,GND*%
X262843000Y-93893000D03*
%TO.P,RV4,2*%
%TO.N,/MORPH_POT_B*%
X265343000Y-93893000D03*
D16*
%TO.P,RV4,1*%
%TO.N,+3V3*%
X267843000Y-93893000D03*
%TD*%
%TO.P,RV3,1*%
%TO.N,+3V3*%
X248031000Y-129921000D03*
D17*
%TO.P,RV3,2*%
%TO.N,/CHUNK_POT_A*%
X245531000Y-129921000D03*
%TO.P,RV3,3*%
%TO.N,GND*%
X243031000Y-129921000D03*
D18*
%TO.P,RV3,*%
%TO.N,*%
X240731000Y-137421000D03*
X250331000Y-137421000D03*
%TD*%
D16*
%TO.P,RV2,1*%
%TO.N,+3V3*%
X248031000Y-112014000D03*
D17*
%TO.P,RV2,2*%
%TO.N,/RATE_POT_A*%
X245531000Y-112014000D03*
%TO.P,RV2,3*%
%TO.N,GND*%
X243031000Y-112014000D03*
D18*
%TO.P,RV2,*%
%TO.N,*%
X240731000Y-119514000D03*
X250331000Y-119514000D03*
%TD*%
%TO.P,RV1,*%
%TO.N,*%
X250331000Y-101353000D03*
X240731000Y-101353000D03*
D17*
%TO.P,RV1,3*%
%TO.N,GND*%
X243031000Y-93853000D03*
%TO.P,RV1,2*%
%TO.N,/MORPH_POT_A*%
X245531000Y-93853000D03*
D16*
%TO.P,RV1,1*%
%TO.N,+3V3*%
X248031000Y-93853000D03*
%TD*%
M02*
