%TF.GenerationSoftware,KiCad,Pcbnew,(5.1.6-0-10_14)*%
%TF.CreationDate,2021-03-26T18:44:24-04:00*%
%TF.ProjectId,lowstepper_hardware,6c6f7773-7465-4707-9065-725f68617264,rev?*%
%TF.SameCoordinates,Original*%
%TF.FileFunction,Legend,Bot*%
%TF.FilePolarity,Positive*%
%FSLAX46Y46*%
G04 Gerber Fmt 4.6, Leading zero omitted, Abs format (unit mm)*
G04 Created by KiCad (PCBNEW (5.1.6-0-10_14)) date 2021-03-26 18:44:24*
%MOMM*%
%LPD*%
G01*
G04 APERTURE LIST*
%ADD10C,0.120000*%
%ADD11C,0.150000*%
G04 APERTURE END LIST*
D10*
%TO.C,J19*%
X238185000Y-142935000D02*
X235525000Y-142935000D01*
X238185000Y-94615000D02*
X238185000Y-142935000D01*
X235525000Y-94615000D02*
X235525000Y-142935000D01*
X238185000Y-94615000D02*
X235525000Y-94615000D01*
X238185000Y-93345000D02*
X238185000Y-92015000D01*
X238185000Y-92015000D02*
X236855000Y-92015000D01*
%TO.C,J18*%
X275650000Y-142935000D02*
X272990000Y-142935000D01*
X275650000Y-94615000D02*
X275650000Y-142935000D01*
X272990000Y-94615000D02*
X272990000Y-142935000D01*
X275650000Y-94615000D02*
X272990000Y-94615000D01*
X275650000Y-93345000D02*
X275650000Y-92015000D01*
X275650000Y-92015000D02*
X274320000Y-92015000D01*
%TO.C,J20*%
X174050000Y-94615000D02*
X171390000Y-94615000D01*
X174050000Y-94615000D02*
X174050000Y-142935000D01*
X174050000Y-142935000D02*
X171390000Y-142935000D01*
X171390000Y-94615000D02*
X171390000Y-142935000D01*
X171390000Y-92015000D02*
X171390000Y-93345000D01*
X172720000Y-92015000D02*
X171390000Y-92015000D01*
%TO.C,J21*%
X211515000Y-94615000D02*
X208855000Y-94615000D01*
X211515000Y-94615000D02*
X211515000Y-142935000D01*
X211515000Y-142935000D02*
X208855000Y-142935000D01*
X208855000Y-94615000D02*
X208855000Y-142935000D01*
X208855000Y-92015000D02*
X208855000Y-93345000D01*
X210185000Y-92015000D02*
X208855000Y-92015000D01*
%TO.C,J19*%
D11*
X237664523Y-90467380D02*
X237664523Y-91181666D01*
X237712142Y-91324523D01*
X237807380Y-91419761D01*
X237950238Y-91467380D01*
X238045476Y-91467380D01*
X236664523Y-91467380D02*
X237235952Y-91467380D01*
X236950238Y-91467380D02*
X236950238Y-90467380D01*
X237045476Y-90610238D01*
X237140714Y-90705476D01*
X237235952Y-90753095D01*
X236188333Y-91467380D02*
X235997857Y-91467380D01*
X235902619Y-91419761D01*
X235855000Y-91372142D01*
X235759761Y-91229285D01*
X235712142Y-91038809D01*
X235712142Y-90657857D01*
X235759761Y-90562619D01*
X235807380Y-90515000D01*
X235902619Y-90467380D01*
X236093095Y-90467380D01*
X236188333Y-90515000D01*
X236235952Y-90562619D01*
X236283571Y-90657857D01*
X236283571Y-90895952D01*
X236235952Y-90991190D01*
X236188333Y-91038809D01*
X236093095Y-91086428D01*
X235902619Y-91086428D01*
X235807380Y-91038809D01*
X235759761Y-90991190D01*
X235712142Y-90895952D01*
%TO.C,J18*%
X275129523Y-90467380D02*
X275129523Y-91181666D01*
X275177142Y-91324523D01*
X275272380Y-91419761D01*
X275415238Y-91467380D01*
X275510476Y-91467380D01*
X274129523Y-91467380D02*
X274700952Y-91467380D01*
X274415238Y-91467380D02*
X274415238Y-90467380D01*
X274510476Y-90610238D01*
X274605714Y-90705476D01*
X274700952Y-90753095D01*
X273558095Y-90895952D02*
X273653333Y-90848333D01*
X273700952Y-90800714D01*
X273748571Y-90705476D01*
X273748571Y-90657857D01*
X273700952Y-90562619D01*
X273653333Y-90515000D01*
X273558095Y-90467380D01*
X273367619Y-90467380D01*
X273272380Y-90515000D01*
X273224761Y-90562619D01*
X273177142Y-90657857D01*
X273177142Y-90705476D01*
X273224761Y-90800714D01*
X273272380Y-90848333D01*
X273367619Y-90895952D01*
X273558095Y-90895952D01*
X273653333Y-90943571D01*
X273700952Y-90991190D01*
X273748571Y-91086428D01*
X273748571Y-91276904D01*
X273700952Y-91372142D01*
X273653333Y-91419761D01*
X273558095Y-91467380D01*
X273367619Y-91467380D01*
X273272380Y-91419761D01*
X273224761Y-91372142D01*
X273177142Y-91276904D01*
X273177142Y-91086428D01*
X273224761Y-90991190D01*
X273272380Y-90943571D01*
X273367619Y-90895952D01*
%TO.C,J20*%
X173529523Y-90027380D02*
X173529523Y-90741666D01*
X173577142Y-90884523D01*
X173672380Y-90979761D01*
X173815238Y-91027380D01*
X173910476Y-91027380D01*
X173100952Y-90122619D02*
X173053333Y-90075000D01*
X172958095Y-90027380D01*
X172720000Y-90027380D01*
X172624761Y-90075000D01*
X172577142Y-90122619D01*
X172529523Y-90217857D01*
X172529523Y-90313095D01*
X172577142Y-90455952D01*
X173148571Y-91027380D01*
X172529523Y-91027380D01*
X171910476Y-90027380D02*
X171815238Y-90027380D01*
X171720000Y-90075000D01*
X171672380Y-90122619D01*
X171624761Y-90217857D01*
X171577142Y-90408333D01*
X171577142Y-90646428D01*
X171624761Y-90836904D01*
X171672380Y-90932142D01*
X171720000Y-90979761D01*
X171815238Y-91027380D01*
X171910476Y-91027380D01*
X172005714Y-90979761D01*
X172053333Y-90932142D01*
X172100952Y-90836904D01*
X172148571Y-90646428D01*
X172148571Y-90408333D01*
X172100952Y-90217857D01*
X172053333Y-90122619D01*
X172005714Y-90075000D01*
X171910476Y-90027380D01*
%TO.C,J21*%
X210994523Y-90027380D02*
X210994523Y-90741666D01*
X211042142Y-90884523D01*
X211137380Y-90979761D01*
X211280238Y-91027380D01*
X211375476Y-91027380D01*
X210565952Y-90122619D02*
X210518333Y-90075000D01*
X210423095Y-90027380D01*
X210185000Y-90027380D01*
X210089761Y-90075000D01*
X210042142Y-90122619D01*
X209994523Y-90217857D01*
X209994523Y-90313095D01*
X210042142Y-90455952D01*
X210613571Y-91027380D01*
X209994523Y-91027380D01*
X209042142Y-91027380D02*
X209613571Y-91027380D01*
X209327857Y-91027380D02*
X209327857Y-90027380D01*
X209423095Y-90170238D01*
X209518333Y-90265476D01*
X209613571Y-90313095D01*
%TD*%
M02*
