%TF.GenerationSoftware,KiCad,Pcbnew,(5.1.6-0-10_14)*%
%TF.CreationDate,2021-03-26T18:44:24-04:00*%
%TF.ProjectId,lowstepper_hardware,6c6f7773-7465-4707-9065-725f68617264,rev?*%
%TF.SameCoordinates,Original*%
%TF.FileFunction,Legend,Top*%
%TF.FilePolarity,Positive*%
%FSLAX46Y46*%
G04 Gerber Fmt 4.6, Leading zero omitted, Abs format (unit mm)*
G04 Created by KiCad (PCBNEW (5.1.6-0-10_14)) date 2021-03-26 18:44:24*
%MOMM*%
%LPD*%
G01*
G04 APERTURE LIST*
%ADD10C,0.300000*%
%ADD11C,0.200000*%
%ADD12C,0.010000*%
%ADD13C,0.120000*%
%ADD14C,0.127000*%
%ADD15C,0.150000*%
%ADD16C,0.100000*%
%ADD17C,0.015000*%
G04 APERTURE END LIST*
D10*
X195409428Y-32880142D02*
X195409428Y-32165857D01*
X196909428Y-32165857D01*
X196909428Y-33665857D02*
X196909428Y-33951571D01*
X196838000Y-34094428D01*
X196695142Y-34237285D01*
X196409428Y-34308714D01*
X195909428Y-34308714D01*
X195623714Y-34237285D01*
X195480857Y-34094428D01*
X195409428Y-33951571D01*
X195409428Y-33665857D01*
X195480857Y-33523000D01*
X195623714Y-33380142D01*
X195909428Y-33308714D01*
X196409428Y-33308714D01*
X196695142Y-33380142D01*
X196838000Y-33523000D01*
X196909428Y-33665857D01*
X195409428Y-35808714D02*
X196123714Y-35308714D01*
X195409428Y-34951571D02*
X196909428Y-34951571D01*
X196909428Y-35523000D01*
X196838000Y-35665857D01*
X196766571Y-35737285D01*
X196623714Y-35808714D01*
X196409428Y-35808714D01*
X196266571Y-35737285D01*
X196195142Y-35665857D01*
X196123714Y-35523000D01*
X196123714Y-34951571D01*
X195409428Y-36451571D02*
X196909428Y-36451571D01*
X196909428Y-36808714D01*
X196838000Y-37023000D01*
X196695142Y-37165857D01*
X196552285Y-37237285D01*
X196266571Y-37308714D01*
X196052285Y-37308714D01*
X195766571Y-37237285D01*
X195623714Y-37165857D01*
X195480857Y-37023000D01*
X195409428Y-36808714D01*
X195409428Y-36451571D01*
X195409428Y-39094428D02*
X196909428Y-39094428D01*
X196909428Y-39665857D01*
X196838000Y-39808714D01*
X196766571Y-39880142D01*
X196623714Y-39951571D01*
X196409428Y-39951571D01*
X196266571Y-39880142D01*
X196195142Y-39808714D01*
X196123714Y-39665857D01*
X196123714Y-39094428D01*
X195409428Y-41451571D02*
X196123714Y-40951571D01*
X195409428Y-40594428D02*
X196909428Y-40594428D01*
X196909428Y-41165857D01*
X196838000Y-41308714D01*
X196766571Y-41380142D01*
X196623714Y-41451571D01*
X196409428Y-41451571D01*
X196266571Y-41380142D01*
X196195142Y-41308714D01*
X196123714Y-41165857D01*
X196123714Y-40594428D01*
X195838000Y-42023000D02*
X195838000Y-42737285D01*
X195409428Y-41880142D02*
X196909428Y-42380142D01*
X195409428Y-42880142D01*
X196123714Y-43665857D02*
X195409428Y-43665857D01*
X196909428Y-43165857D02*
X196123714Y-43665857D01*
X196909428Y-44165857D01*
X196909428Y-45594428D02*
X196909428Y-46451571D01*
X195409428Y-46023000D02*
X196909428Y-46023000D01*
X195409428Y-46951571D02*
X196909428Y-46951571D01*
X196195142Y-46951571D02*
X196195142Y-47808714D01*
X195409428Y-47808714D02*
X196909428Y-47808714D01*
X195838000Y-48451571D02*
X195838000Y-49165857D01*
X195409428Y-48308714D02*
X196909428Y-48808714D01*
X195409428Y-49308714D01*
X196909428Y-49594428D02*
X196909428Y-50451571D01*
X195409428Y-50023000D02*
X196909428Y-50023000D01*
X196909428Y-51880142D02*
X196909428Y-52737285D01*
X195409428Y-52308714D02*
X196909428Y-52308714D01*
X195409428Y-53237285D02*
X196909428Y-53237285D01*
X196195142Y-53237285D02*
X196195142Y-54094428D01*
X195409428Y-54094428D02*
X196909428Y-54094428D01*
X195409428Y-54808714D02*
X196909428Y-54808714D01*
X195480857Y-55451571D02*
X195409428Y-55665857D01*
X195409428Y-56023000D01*
X195480857Y-56165857D01*
X195552285Y-56237285D01*
X195695142Y-56308714D01*
X195838000Y-56308714D01*
X195980857Y-56237285D01*
X196052285Y-56165857D01*
X196123714Y-56023000D01*
X196195142Y-55737285D01*
X196266571Y-55594428D01*
X196338000Y-55523000D01*
X196480857Y-55451571D01*
X196623714Y-55451571D01*
X196766571Y-55523000D01*
X196838000Y-55594428D01*
X196909428Y-55737285D01*
X196909428Y-56094428D01*
X196838000Y-56308714D01*
X195480857Y-58023000D02*
X195409428Y-58237285D01*
X195409428Y-58594428D01*
X195480857Y-58737285D01*
X195552285Y-58808714D01*
X195695142Y-58880142D01*
X195838000Y-58880142D01*
X195980857Y-58808714D01*
X196052285Y-58737285D01*
X196123714Y-58594428D01*
X196195142Y-58308714D01*
X196266571Y-58165857D01*
X196338000Y-58094428D01*
X196480857Y-58023000D01*
X196623714Y-58023000D01*
X196766571Y-58094428D01*
X196838000Y-58165857D01*
X196909428Y-58308714D01*
X196909428Y-58665857D01*
X196838000Y-58880142D01*
X195409428Y-59523000D02*
X196909428Y-59523000D01*
X196195142Y-59523000D02*
X196195142Y-60380142D01*
X195409428Y-60380142D02*
X196909428Y-60380142D01*
X195409428Y-61094428D02*
X196909428Y-61094428D01*
X196909428Y-61594428D02*
X196909428Y-62451571D01*
X195409428Y-62023000D02*
X196909428Y-62023000D01*
X196195142Y-64594428D02*
X196195142Y-64094428D01*
X195409428Y-64094428D02*
X196909428Y-64094428D01*
X196909428Y-64808714D01*
X196909428Y-65380142D02*
X195695142Y-65380142D01*
X195552285Y-65451571D01*
X195480857Y-65523000D01*
X195409428Y-65665857D01*
X195409428Y-65951571D01*
X195480857Y-66094428D01*
X195552285Y-66165857D01*
X195695142Y-66237285D01*
X196909428Y-66237285D01*
X195552285Y-67808714D02*
X195480857Y-67737285D01*
X195409428Y-67523000D01*
X195409428Y-67380142D01*
X195480857Y-67165857D01*
X195623714Y-67023000D01*
X195766571Y-66951571D01*
X196052285Y-66880142D01*
X196266571Y-66880142D01*
X196552285Y-66951571D01*
X196695142Y-67023000D01*
X196838000Y-67165857D01*
X196909428Y-67380142D01*
X196909428Y-67523000D01*
X196838000Y-67737285D01*
X196766571Y-67808714D01*
X195409428Y-68451571D02*
X196909428Y-68451571D01*
X195409428Y-69308714D02*
X196266571Y-68665857D01*
X196909428Y-69308714D02*
X196052285Y-68451571D01*
X195409428Y-69951571D02*
X196909428Y-69951571D01*
X195409428Y-70665857D02*
X196909428Y-70665857D01*
X195409428Y-71523000D01*
X196909428Y-71523000D01*
X196838000Y-73023000D02*
X196909428Y-72880142D01*
X196909428Y-72665857D01*
X196838000Y-72451571D01*
X196695142Y-72308714D01*
X196552285Y-72237285D01*
X196266571Y-72165857D01*
X196052285Y-72165857D01*
X195766571Y-72237285D01*
X195623714Y-72308714D01*
X195480857Y-72451571D01*
X195409428Y-72665857D01*
X195409428Y-72808714D01*
X195480857Y-73023000D01*
X195552285Y-73094428D01*
X196052285Y-73094428D01*
X196052285Y-72808714D01*
X196909428Y-74737285D02*
X195409428Y-75094428D01*
X196480857Y-75380142D01*
X195409428Y-75665857D01*
X196909428Y-76023000D01*
X196909428Y-76880142D02*
X196909428Y-77165857D01*
X196838000Y-77308714D01*
X196695142Y-77451571D01*
X196409428Y-77523000D01*
X195909428Y-77523000D01*
X195623714Y-77451571D01*
X195480857Y-77308714D01*
X195409428Y-77165857D01*
X195409428Y-76880142D01*
X195480857Y-76737285D01*
X195623714Y-76594428D01*
X195909428Y-76523000D01*
X196409428Y-76523000D01*
X196695142Y-76594428D01*
X196838000Y-76737285D01*
X196909428Y-76880142D01*
X195409428Y-79023000D02*
X196123714Y-78523000D01*
X195409428Y-78165857D02*
X196909428Y-78165857D01*
X196909428Y-78737285D01*
X196838000Y-78880142D01*
X196766571Y-78951571D01*
X196623714Y-79023000D01*
X196409428Y-79023000D01*
X196266571Y-78951571D01*
X196195142Y-78880142D01*
X196123714Y-78737285D01*
X196123714Y-78165857D01*
X195409428Y-79665857D02*
X196909428Y-79665857D01*
X195409428Y-80523000D02*
X196266571Y-79880142D01*
X196909428Y-80523000D02*
X196052285Y-79665857D01*
X195480857Y-81094428D02*
X195409428Y-81308714D01*
X195409428Y-81665857D01*
X195480857Y-81808714D01*
X195552285Y-81880142D01*
X195695142Y-81951571D01*
X195838000Y-81951571D01*
X195980857Y-81880142D01*
X196052285Y-81808714D01*
X196123714Y-81665857D01*
X196195142Y-81380142D01*
X196266571Y-81237285D01*
X196338000Y-81165857D01*
X196480857Y-81094428D01*
X196623714Y-81094428D01*
X196766571Y-81165857D01*
X196838000Y-81237285D01*
X196909428Y-81380142D01*
X196909428Y-81737285D01*
X196838000Y-81951571D01*
D11*
X199747857Y-30297380D02*
X199247857Y-29821190D01*
X198890714Y-30297380D02*
X198890714Y-29297380D01*
X199462142Y-29297380D01*
X199605000Y-29345000D01*
X199676428Y-29392619D01*
X199747857Y-29487857D01*
X199747857Y-29630714D01*
X199676428Y-29725952D01*
X199605000Y-29773571D01*
X199462142Y-29821190D01*
X198890714Y-29821190D01*
X200390714Y-29773571D02*
X200890714Y-29773571D01*
X201105000Y-30297380D02*
X200390714Y-30297380D01*
X200390714Y-29297380D01*
X201105000Y-29297380D01*
X201747857Y-30297380D02*
X201747857Y-29297380D01*
X202105000Y-29297380D01*
X202319285Y-29345000D01*
X202462142Y-29440238D01*
X202533571Y-29535476D01*
X202605000Y-29725952D01*
X202605000Y-29868809D01*
X202533571Y-30059285D01*
X202462142Y-30154523D01*
X202319285Y-30249761D01*
X202105000Y-30297380D01*
X201747857Y-30297380D01*
X204319285Y-30249761D02*
X204533571Y-30297380D01*
X204890714Y-30297380D01*
X205033571Y-30249761D01*
X205105000Y-30202142D01*
X205176428Y-30106904D01*
X205176428Y-30011666D01*
X205105000Y-29916428D01*
X205033571Y-29868809D01*
X204890714Y-29821190D01*
X204605000Y-29773571D01*
X204462142Y-29725952D01*
X204390714Y-29678333D01*
X204319285Y-29583095D01*
X204319285Y-29487857D01*
X204390714Y-29392619D01*
X204462142Y-29345000D01*
X204605000Y-29297380D01*
X204962142Y-29297380D01*
X205176428Y-29345000D01*
X205605000Y-29297380D02*
X206462142Y-29297380D01*
X206033571Y-30297380D02*
X206033571Y-29297380D01*
X207819285Y-30297380D02*
X207319285Y-29821190D01*
X206962142Y-30297380D02*
X206962142Y-29297380D01*
X207533571Y-29297380D01*
X207676428Y-29345000D01*
X207747857Y-29392619D01*
X207819285Y-29487857D01*
X207819285Y-29630714D01*
X207747857Y-29725952D01*
X207676428Y-29773571D01*
X207533571Y-29821190D01*
X206962142Y-29821190D01*
X208462142Y-30297380D02*
X208462142Y-29297380D01*
X209176428Y-30297380D02*
X209176428Y-29297380D01*
X209747857Y-29297380D01*
X209890714Y-29345000D01*
X209962142Y-29392619D01*
X210033571Y-29487857D01*
X210033571Y-29630714D01*
X209962142Y-29725952D01*
X209890714Y-29773571D01*
X209747857Y-29821190D01*
X209176428Y-29821190D01*
X210676428Y-29773571D02*
X211176428Y-29773571D01*
X211390714Y-30297380D02*
X210676428Y-30297380D01*
X210676428Y-29297380D01*
X211390714Y-29297380D01*
D12*
%TO.C,G\u002A\u002A\u002A*%
G36*
X256546355Y-130052088D02*
G01*
X256556700Y-129960326D01*
X256578519Y-129914241D01*
X256621407Y-129896035D01*
X256631359Y-129894449D01*
X256680074Y-129892739D01*
X256695916Y-129917886D01*
X256687563Y-129986433D01*
X256685483Y-129997637D01*
X256680613Y-130076883D01*
X256696837Y-130111341D01*
X256724437Y-130094415D01*
X256747990Y-130040063D01*
X256802312Y-129935100D01*
X256880367Y-129872790D01*
X256968482Y-129858917D01*
X257052987Y-129899265D01*
X257061607Y-129907393D01*
X257096159Y-129975612D01*
X257110748Y-130073585D01*
X257105177Y-130174695D01*
X257079250Y-130252324D01*
X257064279Y-130269915D01*
X257002375Y-130297804D01*
X256954985Y-130283946D01*
X256941060Y-130238514D01*
X256951380Y-130209309D01*
X256978754Y-130136345D01*
X256984500Y-130097713D01*
X256972245Y-130052089D01*
X256940200Y-130059786D01*
X256895440Y-130116591D01*
X256868052Y-130167063D01*
X256809659Y-130255761D01*
X256741029Y-130293461D01*
X256726554Y-130295787D01*
X256629530Y-130282819D01*
X256568649Y-130218581D01*
X256545295Y-130104947D01*
X256546355Y-130052088D01*
G37*
X256546355Y-130052088D02*
X256556700Y-129960326D01*
X256578519Y-129914241D01*
X256621407Y-129896035D01*
X256631359Y-129894449D01*
X256680074Y-129892739D01*
X256695916Y-129917886D01*
X256687563Y-129986433D01*
X256685483Y-129997637D01*
X256680613Y-130076883D01*
X256696837Y-130111341D01*
X256724437Y-130094415D01*
X256747990Y-130040063D01*
X256802312Y-129935100D01*
X256880367Y-129872790D01*
X256968482Y-129858917D01*
X257052987Y-129899265D01*
X257061607Y-129907393D01*
X257096159Y-129975612D01*
X257110748Y-130073585D01*
X257105177Y-130174695D01*
X257079250Y-130252324D01*
X257064279Y-130269915D01*
X257002375Y-130297804D01*
X256954985Y-130283946D01*
X256941060Y-130238514D01*
X256951380Y-130209309D01*
X256978754Y-130136345D01*
X256984500Y-130097713D01*
X256972245Y-130052089D01*
X256940200Y-130059786D01*
X256895440Y-130116591D01*
X256868052Y-130167063D01*
X256809659Y-130255761D01*
X256741029Y-130293461D01*
X256726554Y-130295787D01*
X256629530Y-130282819D01*
X256568649Y-130218581D01*
X256545295Y-130104947D01*
X256546355Y-130052088D01*
G36*
X256580983Y-129259763D02*
G01*
X256625847Y-129247703D01*
X256698846Y-129271836D01*
X256758849Y-129303500D01*
X256864251Y-129350701D01*
X256969011Y-129378297D01*
X257003615Y-129381250D01*
X257077679Y-129387920D01*
X257107320Y-129416359D01*
X257111500Y-129455334D01*
X257103292Y-129522012D01*
X257090333Y-129550584D01*
X257045062Y-129567102D01*
X256992799Y-129571750D01*
X256921087Y-129587541D01*
X256825148Y-129627661D01*
X256775449Y-129654372D01*
X256685920Y-129698488D01*
X256612939Y-129719932D01*
X256587233Y-129718869D01*
X256543965Y-129679095D01*
X256553635Y-129622136D01*
X256612742Y-129559913D01*
X256639065Y-129542322D01*
X256738130Y-129482077D01*
X256639065Y-129430848D01*
X256560525Y-129372596D01*
X256543596Y-129312469D01*
X256580983Y-129259763D01*
G37*
X256580983Y-129259763D02*
X256625847Y-129247703D01*
X256698846Y-129271836D01*
X256758849Y-129303500D01*
X256864251Y-129350701D01*
X256969011Y-129378297D01*
X257003615Y-129381250D01*
X257077679Y-129387920D01*
X257107320Y-129416359D01*
X257111500Y-129455334D01*
X257103292Y-129522012D01*
X257090333Y-129550584D01*
X257045062Y-129567102D01*
X256992799Y-129571750D01*
X256921087Y-129587541D01*
X256825148Y-129627661D01*
X256775449Y-129654372D01*
X256685920Y-129698488D01*
X256612939Y-129719932D01*
X256587233Y-129718869D01*
X256543965Y-129679095D01*
X256553635Y-129622136D01*
X256612742Y-129559913D01*
X256639065Y-129542322D01*
X256738130Y-129482077D01*
X256639065Y-129430848D01*
X256560525Y-129372596D01*
X256543596Y-129312469D01*
X256580983Y-129259763D01*
G36*
X256545729Y-128643063D02*
G01*
X256554614Y-128608381D01*
X256577866Y-128587221D01*
X256628507Y-128576260D01*
X256719562Y-128572175D01*
X256825750Y-128571625D01*
X257095625Y-128571625D01*
X257095625Y-128666875D01*
X257086957Y-128729479D01*
X257051002Y-128775511D01*
X256972835Y-128822247D01*
X256952750Y-128832254D01*
X256809875Y-128902383D01*
X256960687Y-128903692D01*
X257051906Y-128907389D01*
X257096303Y-128922420D01*
X257110514Y-128957820D01*
X257111500Y-128985612D01*
X257111500Y-129066223D01*
X256833687Y-129057049D01*
X256700539Y-129051833D01*
X256618056Y-129044247D01*
X256573423Y-129030263D01*
X256553826Y-129005853D01*
X256546453Y-128966986D01*
X256546424Y-128966734D01*
X256550031Y-128913435D01*
X256583735Y-128868508D01*
X256660073Y-128817392D01*
X256689299Y-128800819D01*
X256841625Y-128716045D01*
X256688604Y-128715273D01*
X256597017Y-128712081D01*
X256553671Y-128698600D01*
X256543360Y-128667145D01*
X256545729Y-128643063D01*
G37*
X256545729Y-128643063D02*
X256554614Y-128608381D01*
X256577866Y-128587221D01*
X256628507Y-128576260D01*
X256719562Y-128572175D01*
X256825750Y-128571625D01*
X257095625Y-128571625D01*
X257095625Y-128666875D01*
X257086957Y-128729479D01*
X257051002Y-128775511D01*
X256972835Y-128822247D01*
X256952750Y-128832254D01*
X256809875Y-128902383D01*
X256960687Y-128903692D01*
X257051906Y-128907389D01*
X257096303Y-128922420D01*
X257110514Y-128957820D01*
X257111500Y-128985612D01*
X257111500Y-129066223D01*
X256833687Y-129057049D01*
X256700539Y-129051833D01*
X256618056Y-129044247D01*
X256573423Y-129030263D01*
X256553826Y-129005853D01*
X256546453Y-128966986D01*
X256546424Y-128966734D01*
X256550031Y-128913435D01*
X256583735Y-128868508D01*
X256660073Y-128817392D01*
X256689299Y-128800819D01*
X256841625Y-128716045D01*
X256688604Y-128715273D01*
X256597017Y-128712081D01*
X256553671Y-128698600D01*
X256543360Y-128667145D01*
X256545729Y-128643063D01*
G36*
X256545592Y-127960782D02*
G01*
X256558974Y-127929831D01*
X256586488Y-127923653D01*
X256609998Y-127926291D01*
X256675130Y-127961897D01*
X256693020Y-128008063D01*
X256704018Y-128046834D01*
X256733112Y-128068316D01*
X256795374Y-128077530D01*
X256905871Y-128079500D01*
X256907333Y-128079500D01*
X257018978Y-128081810D01*
X257080985Y-128091355D01*
X257107133Y-128112065D01*
X257111500Y-128137709D01*
X257101134Y-128198079D01*
X257090333Y-128217084D01*
X257049333Y-128228574D01*
X256965385Y-128236261D01*
X256886166Y-128238250D01*
X256782103Y-128240696D01*
X256725535Y-128251961D01*
X256700524Y-128277941D01*
X256693020Y-128309688D01*
X256661479Y-128369419D01*
X256619375Y-128381125D01*
X256586268Y-128374731D01*
X256566018Y-128346734D01*
X256554484Y-128283917D01*
X256547522Y-128173062D01*
X256546498Y-128148541D01*
X256542660Y-128029391D01*
X256545592Y-127960782D01*
G37*
X256545592Y-127960782D02*
X256558974Y-127929831D01*
X256586488Y-127923653D01*
X256609998Y-127926291D01*
X256675130Y-127961897D01*
X256693020Y-128008063D01*
X256704018Y-128046834D01*
X256733112Y-128068316D01*
X256795374Y-128077530D01*
X256905871Y-128079500D01*
X256907333Y-128079500D01*
X257018978Y-128081810D01*
X257080985Y-128091355D01*
X257107133Y-128112065D01*
X257111500Y-128137709D01*
X257101134Y-128198079D01*
X257090333Y-128217084D01*
X257049333Y-128228574D01*
X256965385Y-128236261D01*
X256886166Y-128238250D01*
X256782103Y-128240696D01*
X256725535Y-128251961D01*
X256700524Y-128277941D01*
X256693020Y-128309688D01*
X256661479Y-128369419D01*
X256619375Y-128381125D01*
X256586268Y-128374731D01*
X256566018Y-128346734D01*
X256554484Y-128283917D01*
X256547522Y-128173062D01*
X256546498Y-128148541D01*
X256542660Y-128029391D01*
X256545592Y-127960782D01*
G36*
X256542248Y-127295916D02*
G01*
X256557110Y-127272605D01*
X256596758Y-127260086D01*
X256673364Y-127255005D01*
X256799102Y-127254006D01*
X256827958Y-127254000D01*
X256963752Y-127254719D01*
X257047762Y-127258881D01*
X257091702Y-127269500D01*
X257107287Y-127289588D01*
X257106229Y-127322157D01*
X257105770Y-127325438D01*
X257081445Y-127379310D01*
X257017329Y-127403761D01*
X256992437Y-127406825D01*
X256919872Y-127422318D01*
X256892099Y-127459680D01*
X256889250Y-127494137D01*
X256897921Y-127546528D01*
X256936305Y-127567962D01*
X257000375Y-127571500D01*
X257075524Y-127577431D01*
X257106289Y-127604118D01*
X257111500Y-127650875D01*
X257109251Y-127688335D01*
X257094389Y-127711646D01*
X257054741Y-127724165D01*
X256978135Y-127729246D01*
X256852397Y-127730245D01*
X256823541Y-127730250D01*
X256687747Y-127729532D01*
X256603737Y-127725370D01*
X256559797Y-127714751D01*
X256544212Y-127694663D01*
X256545270Y-127662094D01*
X256545729Y-127658813D01*
X256570054Y-127604941D01*
X256634170Y-127580490D01*
X256659062Y-127577426D01*
X256731627Y-127561933D01*
X256759400Y-127524571D01*
X256762250Y-127490114D01*
X256753578Y-127437723D01*
X256715194Y-127416289D01*
X256651125Y-127412750D01*
X256575975Y-127406820D01*
X256545210Y-127380133D01*
X256540000Y-127333375D01*
X256542248Y-127295916D01*
G37*
X256542248Y-127295916D02*
X256557110Y-127272605D01*
X256596758Y-127260086D01*
X256673364Y-127255005D01*
X256799102Y-127254006D01*
X256827958Y-127254000D01*
X256963752Y-127254719D01*
X257047762Y-127258881D01*
X257091702Y-127269500D01*
X257107287Y-127289588D01*
X257106229Y-127322157D01*
X257105770Y-127325438D01*
X257081445Y-127379310D01*
X257017329Y-127403761D01*
X256992437Y-127406825D01*
X256919872Y-127422318D01*
X256892099Y-127459680D01*
X256889250Y-127494137D01*
X256897921Y-127546528D01*
X256936305Y-127567962D01*
X257000375Y-127571500D01*
X257075524Y-127577431D01*
X257106289Y-127604118D01*
X257111500Y-127650875D01*
X257109251Y-127688335D01*
X257094389Y-127711646D01*
X257054741Y-127724165D01*
X256978135Y-127729246D01*
X256852397Y-127730245D01*
X256823541Y-127730250D01*
X256687747Y-127729532D01*
X256603737Y-127725370D01*
X256559797Y-127714751D01*
X256544212Y-127694663D01*
X256545270Y-127662094D01*
X256545729Y-127658813D01*
X256570054Y-127604941D01*
X256634170Y-127580490D01*
X256659062Y-127577426D01*
X256731627Y-127561933D01*
X256759400Y-127524571D01*
X256762250Y-127490114D01*
X256753578Y-127437723D01*
X256715194Y-127416289D01*
X256651125Y-127412750D01*
X256575975Y-127406820D01*
X256545210Y-127380133D01*
X256540000Y-127333375D01*
X256542248Y-127295916D01*
G36*
X256558191Y-126718977D02*
G01*
X256568369Y-126661485D01*
X256591249Y-126638378D01*
X256619375Y-126634875D01*
X256663607Y-126648449D01*
X256685910Y-126699802D01*
X256692768Y-126754603D01*
X256709472Y-126833171D01*
X256734096Y-126852931D01*
X256755321Y-126815590D01*
X256762250Y-126744127D01*
X256772678Y-126675249D01*
X256811209Y-126651508D01*
X256825750Y-126650750D01*
X256869115Y-126662841D01*
X256886920Y-126710349D01*
X256889250Y-126764521D01*
X256899973Y-126843194D01*
X256925014Y-126866966D01*
X256953675Y-126839303D01*
X256975262Y-126763671D01*
X256978479Y-126735609D01*
X256993216Y-126655087D01*
X257025171Y-126622286D01*
X257049916Y-126619000D01*
X257084310Y-126626454D01*
X257102936Y-126658402D01*
X257110417Y-126729227D01*
X257111500Y-126810497D01*
X257104950Y-126936602D01*
X257084735Y-127004656D01*
X257068841Y-127018363D01*
X257017703Y-127025159D01*
X256922750Y-127027794D01*
X256803560Y-127025781D01*
X256791028Y-127025304D01*
X256555875Y-127015875D01*
X256555875Y-126825375D01*
X256558191Y-126718977D01*
G37*
X256558191Y-126718977D02*
X256568369Y-126661485D01*
X256591249Y-126638378D01*
X256619375Y-126634875D01*
X256663607Y-126648449D01*
X256685910Y-126699802D01*
X256692768Y-126754603D01*
X256709472Y-126833171D01*
X256734096Y-126852931D01*
X256755321Y-126815590D01*
X256762250Y-126744127D01*
X256772678Y-126675249D01*
X256811209Y-126651508D01*
X256825750Y-126650750D01*
X256869115Y-126662841D01*
X256886920Y-126710349D01*
X256889250Y-126764521D01*
X256899973Y-126843194D01*
X256925014Y-126866966D01*
X256953675Y-126839303D01*
X256975262Y-126763671D01*
X256978479Y-126735609D01*
X256993216Y-126655087D01*
X257025171Y-126622286D01*
X257049916Y-126619000D01*
X257084310Y-126626454D01*
X257102936Y-126658402D01*
X257110417Y-126729227D01*
X257111500Y-126810497D01*
X257104950Y-126936602D01*
X257084735Y-127004656D01*
X257068841Y-127018363D01*
X257017703Y-127025159D01*
X256922750Y-127027794D01*
X256803560Y-127025781D01*
X256791028Y-127025304D01*
X256555875Y-127015875D01*
X256555875Y-126825375D01*
X256558191Y-126718977D01*
G36*
X256551039Y-126121717D02*
G01*
X256580236Y-126054551D01*
X256586234Y-126048655D01*
X256643916Y-126024431D01*
X256680530Y-126053062D01*
X256686155Y-126124890D01*
X256682875Y-126142750D01*
X256675975Y-126221268D01*
X256694855Y-126247225D01*
X256729802Y-126220719D01*
X256771103Y-126141863D01*
X256808463Y-126061474D01*
X256850197Y-126025138D01*
X256918150Y-126015860D01*
X256933203Y-126015750D01*
X257029132Y-126031332D01*
X257078632Y-126077163D01*
X257104602Y-126163007D01*
X257110457Y-126267187D01*
X257097290Y-126363678D01*
X257066193Y-126426452D01*
X257063875Y-126428500D01*
X257004013Y-126451920D01*
X256960283Y-126426544D01*
X256945978Y-126367014D01*
X256960017Y-126314103D01*
X256978136Y-126236254D01*
X256964422Y-126205223D01*
X256932094Y-126209204D01*
X256890191Y-126273421D01*
X256877985Y-126299694D01*
X256811780Y-126405056D01*
X256733450Y-126448157D01*
X256642707Y-126429127D01*
X256617820Y-126414527D01*
X256565931Y-126366556D01*
X256543540Y-126297987D01*
X256540000Y-126225281D01*
X256551039Y-126121717D01*
G37*
X256551039Y-126121717D02*
X256580236Y-126054551D01*
X256586234Y-126048655D01*
X256643916Y-126024431D01*
X256680530Y-126053062D01*
X256686155Y-126124890D01*
X256682875Y-126142750D01*
X256675975Y-126221268D01*
X256694855Y-126247225D01*
X256729802Y-126220719D01*
X256771103Y-126141863D01*
X256808463Y-126061474D01*
X256850197Y-126025138D01*
X256918150Y-126015860D01*
X256933203Y-126015750D01*
X257029132Y-126031332D01*
X257078632Y-126077163D01*
X257104602Y-126163007D01*
X257110457Y-126267187D01*
X257097290Y-126363678D01*
X257066193Y-126426452D01*
X257063875Y-126428500D01*
X257004013Y-126451920D01*
X256960283Y-126426544D01*
X256945978Y-126367014D01*
X256960017Y-126314103D01*
X256978136Y-126236254D01*
X256964422Y-126205223D01*
X256932094Y-126209204D01*
X256890191Y-126273421D01*
X256877985Y-126299694D01*
X256811780Y-126405056D01*
X256733450Y-126448157D01*
X256642707Y-126429127D01*
X256617820Y-126414527D01*
X256565931Y-126366556D01*
X256543540Y-126297987D01*
X256540000Y-126225281D01*
X256551039Y-126121717D01*
G36*
X256548310Y-125697651D02*
G01*
X256580303Y-125664011D01*
X256646567Y-125644744D01*
X256757693Y-125636238D01*
X256875971Y-125634750D01*
X256996379Y-125635915D01*
X257066710Y-125642221D01*
X257100381Y-125657888D01*
X257110809Y-125687138D01*
X257111500Y-125708834D01*
X257103292Y-125775512D01*
X257090333Y-125804084D01*
X257050805Y-125813813D01*
X256964119Y-125821184D01*
X256846610Y-125824985D01*
X256804583Y-125825250D01*
X256675417Y-125824401D01*
X256597062Y-125819423D01*
X256556834Y-125806674D01*
X256542045Y-125782512D01*
X256540000Y-125749272D01*
X256548310Y-125697651D01*
G37*
X256548310Y-125697651D02*
X256580303Y-125664011D01*
X256646567Y-125644744D01*
X256757693Y-125636238D01*
X256875971Y-125634750D01*
X256996379Y-125635915D01*
X257066710Y-125642221D01*
X257100381Y-125657888D01*
X257110809Y-125687138D01*
X257111500Y-125708834D01*
X257103292Y-125775512D01*
X257090333Y-125804084D01*
X257050805Y-125813813D01*
X256964119Y-125821184D01*
X256846610Y-125824985D01*
X256804583Y-125825250D01*
X256675417Y-125824401D01*
X256597062Y-125819423D01*
X256556834Y-125806674D01*
X256542045Y-125782512D01*
X256540000Y-125749272D01*
X256548310Y-125697651D01*
G36*
X256543985Y-125122330D02*
G01*
X256557921Y-125053425D01*
X256584777Y-125021481D01*
X256590490Y-125018919D01*
X256628245Y-125009762D01*
X256668298Y-125018860D01*
X256725479Y-125053239D01*
X256814620Y-125119921D01*
X256831600Y-125133093D01*
X256948575Y-125224030D01*
X256958600Y-125119828D01*
X256975830Y-125044668D01*
X257014638Y-125016950D01*
X257032125Y-125015625D01*
X257066824Y-125022773D01*
X257087401Y-125053468D01*
X257098716Y-125121588D01*
X257104862Y-125223346D01*
X257106399Y-125333067D01*
X257101368Y-125416355D01*
X257091633Y-125453533D01*
X257049974Y-125473939D01*
X256990862Y-125459317D01*
X256903356Y-125405651D01*
X256846190Y-125363421D01*
X256698750Y-125250842D01*
X256698750Y-125347546D01*
X256690508Y-125416287D01*
X256655271Y-125441740D01*
X256619375Y-125444250D01*
X256576434Y-125440549D01*
X256552667Y-125419803D01*
X256542418Y-125367551D01*
X256540031Y-125269330D01*
X256540000Y-125241272D01*
X256543985Y-125122330D01*
G37*
X256543985Y-125122330D02*
X256557921Y-125053425D01*
X256584777Y-125021481D01*
X256590490Y-125018919D01*
X256628245Y-125009762D01*
X256668298Y-125018860D01*
X256725479Y-125053239D01*
X256814620Y-125119921D01*
X256831600Y-125133093D01*
X256948575Y-125224030D01*
X256958600Y-125119828D01*
X256975830Y-125044668D01*
X257014638Y-125016950D01*
X257032125Y-125015625D01*
X257066824Y-125022773D01*
X257087401Y-125053468D01*
X257098716Y-125121588D01*
X257104862Y-125223346D01*
X257106399Y-125333067D01*
X257101368Y-125416355D01*
X257091633Y-125453533D01*
X257049974Y-125473939D01*
X256990862Y-125459317D01*
X256903356Y-125405651D01*
X256846190Y-125363421D01*
X256698750Y-125250842D01*
X256698750Y-125347546D01*
X256690508Y-125416287D01*
X256655271Y-125441740D01*
X256619375Y-125444250D01*
X256576434Y-125440549D01*
X256552667Y-125419803D01*
X256542418Y-125367551D01*
X256540031Y-125269330D01*
X256540000Y-125241272D01*
X256543985Y-125122330D01*
G36*
X256542153Y-124496167D02*
G01*
X256552959Y-124446856D01*
X256578931Y-124431763D01*
X256611437Y-124433980D01*
X256665309Y-124458305D01*
X256689760Y-124522421D01*
X256692824Y-124547313D01*
X256707071Y-124617593D01*
X256728409Y-124650215D01*
X256730500Y-124650500D01*
X256752064Y-124622698D01*
X256767358Y-124554993D01*
X256768175Y-124547313D01*
X256789421Y-124468312D01*
X256825750Y-124444125D01*
X256865058Y-124473654D01*
X256883324Y-124547313D01*
X256905270Y-124627766D01*
X256939848Y-124653075D01*
X256971449Y-124623647D01*
X256984500Y-124544667D01*
X256992010Y-124451965D01*
X257018256Y-124412822D01*
X257066979Y-124417960D01*
X257093492Y-124457811D01*
X257108501Y-124537736D01*
X257111632Y-124635290D01*
X257102509Y-124728031D01*
X257080760Y-124793513D01*
X257073400Y-124802900D01*
X257019392Y-124824566D01*
X256924452Y-124837086D01*
X256810482Y-124840458D01*
X256699388Y-124834684D01*
X256613073Y-124819764D01*
X256578100Y-124802900D01*
X256556557Y-124751288D01*
X256542745Y-124660438D01*
X256540000Y-124594317D01*
X256542153Y-124496167D01*
G37*
X256542153Y-124496167D02*
X256552959Y-124446856D01*
X256578931Y-124431763D01*
X256611437Y-124433980D01*
X256665309Y-124458305D01*
X256689760Y-124522421D01*
X256692824Y-124547313D01*
X256707071Y-124617593D01*
X256728409Y-124650215D01*
X256730500Y-124650500D01*
X256752064Y-124622698D01*
X256767358Y-124554993D01*
X256768175Y-124547313D01*
X256789421Y-124468312D01*
X256825750Y-124444125D01*
X256865058Y-124473654D01*
X256883324Y-124547313D01*
X256905270Y-124627766D01*
X256939848Y-124653075D01*
X256971449Y-124623647D01*
X256984500Y-124544667D01*
X256992010Y-124451965D01*
X257018256Y-124412822D01*
X257066979Y-124417960D01*
X257093492Y-124457811D01*
X257108501Y-124537736D01*
X257111632Y-124635290D01*
X257102509Y-124728031D01*
X257080760Y-124793513D01*
X257073400Y-124802900D01*
X257019392Y-124824566D01*
X256924452Y-124837086D01*
X256810482Y-124840458D01*
X256699388Y-124834684D01*
X256613073Y-124819764D01*
X256578100Y-124802900D01*
X256556557Y-124751288D01*
X256542745Y-124660438D01*
X256540000Y-124594317D01*
X256542153Y-124496167D01*
G36*
X256564694Y-123875787D02*
G01*
X256601896Y-123826604D01*
X256692631Y-123769182D01*
X256787366Y-123775101D01*
X256843494Y-123806702D01*
X256897591Y-123835258D01*
X256942941Y-123817040D01*
X256959504Y-123802851D01*
X257027181Y-123770508D01*
X257084594Y-123787863D01*
X257111301Y-123847910D01*
X257111500Y-123854939D01*
X257082412Y-123918091D01*
X257008312Y-123974919D01*
X256905125Y-124031218D01*
X257008312Y-124041246D01*
X257080792Y-124056714D01*
X257108569Y-124094060D01*
X257111500Y-124129634D01*
X257096123Y-124195657D01*
X257068841Y-124224363D01*
X257017703Y-124231159D01*
X256922750Y-124233794D01*
X256803560Y-124231781D01*
X256791028Y-124231304D01*
X256727854Y-124228771D01*
X256727854Y-124047250D01*
X256782434Y-124027081D01*
X256794000Y-123997297D01*
X256770195Y-123959150D01*
X256741068Y-123957610D01*
X256688144Y-123984124D01*
X256676319Y-124020809D01*
X256708861Y-124045498D01*
X256727854Y-124047250D01*
X256727854Y-124228771D01*
X256555875Y-124221875D01*
X256546333Y-124056792D01*
X256546031Y-123946781D01*
X256564694Y-123875787D01*
G37*
X256564694Y-123875787D02*
X256601896Y-123826604D01*
X256692631Y-123769182D01*
X256787366Y-123775101D01*
X256843494Y-123806702D01*
X256897591Y-123835258D01*
X256942941Y-123817040D01*
X256959504Y-123802851D01*
X257027181Y-123770508D01*
X257084594Y-123787863D01*
X257111301Y-123847910D01*
X257111500Y-123854939D01*
X257082412Y-123918091D01*
X257008312Y-123974919D01*
X256905125Y-124031218D01*
X257008312Y-124041246D01*
X257080792Y-124056714D01*
X257108569Y-124094060D01*
X257111500Y-124129634D01*
X257096123Y-124195657D01*
X257068841Y-124224363D01*
X257017703Y-124231159D01*
X256922750Y-124233794D01*
X256803560Y-124231781D01*
X256791028Y-124231304D01*
X256727854Y-124228771D01*
X256727854Y-124047250D01*
X256782434Y-124027081D01*
X256794000Y-123997297D01*
X256770195Y-123959150D01*
X256741068Y-123957610D01*
X256688144Y-123984124D01*
X256676319Y-124020809D01*
X256708861Y-124045498D01*
X256727854Y-124047250D01*
X256727854Y-124228771D01*
X256555875Y-124221875D01*
X256546333Y-124056792D01*
X256546031Y-123946781D01*
X256564694Y-123875787D01*
G36*
X254337719Y-122129856D02*
G01*
X254397397Y-122021555D01*
X254495060Y-121962755D01*
X254577994Y-121951973D01*
X254753742Y-121969228D01*
X254970191Y-122017009D01*
X255215418Y-122090307D01*
X255477497Y-122184114D01*
X255744506Y-122293421D01*
X256004518Y-122413218D01*
X256245611Y-122538497D01*
X256455859Y-122664249D01*
X256623339Y-122785465D01*
X256678632Y-122834366D01*
X256800639Y-122983912D01*
X256872079Y-123145042D01*
X256890193Y-123306831D01*
X256852224Y-123458355D01*
X256841526Y-123479514D01*
X256790499Y-123538115D01*
X256709956Y-123599883D01*
X256624813Y-123648133D01*
X256562677Y-123666250D01*
X256535486Y-123644958D01*
X256474418Y-123587542D01*
X256389566Y-123503692D01*
X256323706Y-123436803D01*
X256100086Y-123207356D01*
X256031067Y-123295099D01*
X255934919Y-123381517D01*
X255780216Y-123473296D01*
X255571480Y-123568509D01*
X255313236Y-123665228D01*
X255010008Y-123761525D01*
X254794656Y-123821981D01*
X254644851Y-123861647D01*
X254544063Y-123885672D01*
X254480011Y-123894996D01*
X254440416Y-123890559D01*
X254412997Y-123873301D01*
X254393216Y-123852707D01*
X254356320Y-123778921D01*
X254331308Y-123666917D01*
X254320469Y-123541245D01*
X254326090Y-123426459D01*
X254346696Y-123353522D01*
X254374189Y-123313489D01*
X254415902Y-123277649D01*
X254480169Y-123242549D01*
X254575326Y-123204738D01*
X254709709Y-123160764D01*
X254891655Y-123107175D01*
X255047750Y-123063217D01*
X255215927Y-123015508D01*
X255362494Y-122972324D01*
X255476527Y-122937010D01*
X255547104Y-122912913D01*
X255564347Y-122904988D01*
X255545591Y-122889152D01*
X255475339Y-122861604D01*
X255363870Y-122825318D01*
X255221465Y-122783274D01*
X255058404Y-122738445D01*
X254884968Y-122693810D01*
X254711438Y-122652345D01*
X254626394Y-122633417D01*
X254484588Y-122598427D01*
X254394259Y-122558949D01*
X254343943Y-122502079D01*
X254322178Y-122414918D01*
X254317500Y-122285770D01*
X254337719Y-122129856D01*
G37*
X254337719Y-122129856D02*
X254397397Y-122021555D01*
X254495060Y-121962755D01*
X254577994Y-121951973D01*
X254753742Y-121969228D01*
X254970191Y-122017009D01*
X255215418Y-122090307D01*
X255477497Y-122184114D01*
X255744506Y-122293421D01*
X256004518Y-122413218D01*
X256245611Y-122538497D01*
X256455859Y-122664249D01*
X256623339Y-122785465D01*
X256678632Y-122834366D01*
X256800639Y-122983912D01*
X256872079Y-123145042D01*
X256890193Y-123306831D01*
X256852224Y-123458355D01*
X256841526Y-123479514D01*
X256790499Y-123538115D01*
X256709956Y-123599883D01*
X256624813Y-123648133D01*
X256562677Y-123666250D01*
X256535486Y-123644958D01*
X256474418Y-123587542D01*
X256389566Y-123503692D01*
X256323706Y-123436803D01*
X256100086Y-123207356D01*
X256031067Y-123295099D01*
X255934919Y-123381517D01*
X255780216Y-123473296D01*
X255571480Y-123568509D01*
X255313236Y-123665228D01*
X255010008Y-123761525D01*
X254794656Y-123821981D01*
X254644851Y-123861647D01*
X254544063Y-123885672D01*
X254480011Y-123894996D01*
X254440416Y-123890559D01*
X254412997Y-123873301D01*
X254393216Y-123852707D01*
X254356320Y-123778921D01*
X254331308Y-123666917D01*
X254320469Y-123541245D01*
X254326090Y-123426459D01*
X254346696Y-123353522D01*
X254374189Y-123313489D01*
X254415902Y-123277649D01*
X254480169Y-123242549D01*
X254575326Y-123204738D01*
X254709709Y-123160764D01*
X254891655Y-123107175D01*
X255047750Y-123063217D01*
X255215927Y-123015508D01*
X255362494Y-122972324D01*
X255476527Y-122937010D01*
X255547104Y-122912913D01*
X255564347Y-122904988D01*
X255545591Y-122889152D01*
X255475339Y-122861604D01*
X255363870Y-122825318D01*
X255221465Y-122783274D01*
X255058404Y-122738445D01*
X254884968Y-122693810D01*
X254711438Y-122652345D01*
X254626394Y-122633417D01*
X254484588Y-122598427D01*
X254394259Y-122558949D01*
X254343943Y-122502079D01*
X254322178Y-122414918D01*
X254317500Y-122285770D01*
X254337719Y-122129856D01*
G36*
X253828050Y-129032712D02*
G01*
X253834876Y-128918985D01*
X253850666Y-128830445D01*
X253878523Y-128747962D01*
X253910744Y-128675275D01*
X254017291Y-128476896D01*
X254131901Y-128326712D01*
X254266843Y-128209558D01*
X254311998Y-128179299D01*
X254546521Y-128066034D01*
X254808342Y-128000504D01*
X255082886Y-127982710D01*
X255355574Y-128012653D01*
X255611831Y-128090331D01*
X255783501Y-128179299D01*
X255964627Y-128330582D01*
X256108232Y-128525401D01*
X256211102Y-128753860D01*
X256270024Y-129006061D01*
X256281782Y-129272107D01*
X256243164Y-129542098D01*
X256235666Y-129571750D01*
X256159194Y-129767656D01*
X256041219Y-129957559D01*
X255896939Y-130119704D01*
X255797472Y-130199090D01*
X255629585Y-130294350D01*
X255453605Y-130355892D01*
X255253099Y-130387565D01*
X255177293Y-130389339D01*
X255177293Y-129693419D01*
X255348998Y-129665237D01*
X255485888Y-129604636D01*
X255599607Y-129508207D01*
X255603419Y-129504020D01*
X255671029Y-129420546D01*
X255703965Y-129346055D01*
X255714118Y-129249205D01*
X255714500Y-129211229D01*
X255701483Y-129069226D01*
X255657646Y-128958450D01*
X255642954Y-128935225D01*
X255567435Y-128847554D01*
X255478425Y-128774997D01*
X255469262Y-128769402D01*
X255361054Y-128728393D01*
X255212882Y-128700858D01*
X255047192Y-128688562D01*
X254886430Y-128693269D01*
X254763151Y-128713870D01*
X254640285Y-128766860D01*
X254525711Y-128849866D01*
X254434743Y-128948244D01*
X254382697Y-129047350D01*
X254376212Y-129083828D01*
X254384018Y-129287408D01*
X254433472Y-129445888D01*
X254527780Y-129562613D01*
X254670144Y-129640931D01*
X254863769Y-129684188D01*
X254959124Y-129692589D01*
X255177293Y-129693419D01*
X255177293Y-130389339D01*
X255011634Y-130393218D01*
X254973437Y-130392146D01*
X254816680Y-130384943D01*
X254702265Y-130372593D01*
X254609038Y-130350551D01*
X254515845Y-130314276D01*
X254437353Y-130277021D01*
X254213292Y-130133752D01*
X254036099Y-129949010D01*
X253908748Y-129725969D01*
X253899555Y-129703421D01*
X253864210Y-129599345D01*
X253842233Y-129491370D01*
X253830791Y-129359458D01*
X253827084Y-129190750D01*
X253828050Y-129032712D01*
G37*
X253828050Y-129032712D02*
X253834876Y-128918985D01*
X253850666Y-128830445D01*
X253878523Y-128747962D01*
X253910744Y-128675275D01*
X254017291Y-128476896D01*
X254131901Y-128326712D01*
X254266843Y-128209558D01*
X254311998Y-128179299D01*
X254546521Y-128066034D01*
X254808342Y-128000504D01*
X255082886Y-127982710D01*
X255355574Y-128012653D01*
X255611831Y-128090331D01*
X255783501Y-128179299D01*
X255964627Y-128330582D01*
X256108232Y-128525401D01*
X256211102Y-128753860D01*
X256270024Y-129006061D01*
X256281782Y-129272107D01*
X256243164Y-129542098D01*
X256235666Y-129571750D01*
X256159194Y-129767656D01*
X256041219Y-129957559D01*
X255896939Y-130119704D01*
X255797472Y-130199090D01*
X255629585Y-130294350D01*
X255453605Y-130355892D01*
X255253099Y-130387565D01*
X255177293Y-130389339D01*
X255177293Y-129693419D01*
X255348998Y-129665237D01*
X255485888Y-129604636D01*
X255599607Y-129508207D01*
X255603419Y-129504020D01*
X255671029Y-129420546D01*
X255703965Y-129346055D01*
X255714118Y-129249205D01*
X255714500Y-129211229D01*
X255701483Y-129069226D01*
X255657646Y-128958450D01*
X255642954Y-128935225D01*
X255567435Y-128847554D01*
X255478425Y-128774997D01*
X255469262Y-128769402D01*
X255361054Y-128728393D01*
X255212882Y-128700858D01*
X255047192Y-128688562D01*
X254886430Y-128693269D01*
X254763151Y-128713870D01*
X254640285Y-128766860D01*
X254525711Y-128849866D01*
X254434743Y-128948244D01*
X254382697Y-129047350D01*
X254376212Y-129083828D01*
X254384018Y-129287408D01*
X254433472Y-129445888D01*
X254527780Y-129562613D01*
X254670144Y-129640931D01*
X254863769Y-129684188D01*
X254959124Y-129692589D01*
X255177293Y-129693419D01*
X255177293Y-130389339D01*
X255011634Y-130393218D01*
X254973437Y-130392146D01*
X254816680Y-130384943D01*
X254702265Y-130372593D01*
X254609038Y-130350551D01*
X254515845Y-130314276D01*
X254437353Y-130277021D01*
X254213292Y-130133752D01*
X254036099Y-129949010D01*
X253908748Y-129725969D01*
X253899555Y-129703421D01*
X253864210Y-129599345D01*
X253842233Y-129491370D01*
X253830791Y-129359458D01*
X253827084Y-129190750D01*
X253828050Y-129032712D01*
G36*
X254305944Y-124688562D02*
G01*
X254366946Y-124456867D01*
X254469377Y-124271488D01*
X254613864Y-124130998D01*
X254667215Y-124096383D01*
X254711153Y-124073436D01*
X254760159Y-124056591D01*
X254824372Y-124044921D01*
X254913934Y-124037495D01*
X255038984Y-124033385D01*
X255209663Y-124031661D01*
X255376603Y-124031375D01*
X255975331Y-124031375D01*
X256068243Y-124142500D01*
X256136512Y-124245560D01*
X256193436Y-124367072D01*
X256205325Y-124402194D01*
X256240251Y-124566510D01*
X256262114Y-124765619D01*
X256269351Y-124971866D01*
X256260403Y-125157593D01*
X256251588Y-125222000D01*
X256199298Y-125402442D01*
X256113357Y-125565632D01*
X256004561Y-125693687D01*
X255936346Y-125744170D01*
X255804191Y-125792907D01*
X255644902Y-125810469D01*
X255638655Y-125809935D01*
X255638655Y-125154270D01*
X255711798Y-125132592D01*
X255736533Y-125107822D01*
X255762664Y-125037744D01*
X255776326Y-124933354D01*
X255775847Y-124822913D01*
X255759556Y-124734684D01*
X255758728Y-124732472D01*
X255718694Y-124696831D01*
X255628919Y-124682743D01*
X255599978Y-124682250D01*
X255460500Y-124682250D01*
X255460968Y-124833063D01*
X255469739Y-124942482D01*
X255491213Y-125037957D01*
X255501450Y-125063250D01*
X255561148Y-125129755D01*
X255638655Y-125154270D01*
X255638655Y-125809935D01*
X255485029Y-125796796D01*
X255351123Y-125751829D01*
X255340011Y-125745506D01*
X255231503Y-125648594D01*
X255146366Y-125500303D01*
X255083390Y-125297706D01*
X255041368Y-125037874D01*
X255039044Y-125016161D01*
X255022656Y-124866862D01*
X255008474Y-124770106D01*
X254993237Y-124715170D01*
X254973681Y-124691334D01*
X254946544Y-124687876D01*
X254939416Y-124688758D01*
X254877737Y-124722379D01*
X254834700Y-124777500D01*
X254806699Y-124877419D01*
X254795967Y-125017494D01*
X254802182Y-125176870D01*
X254825017Y-125334690D01*
X254844576Y-125413378D01*
X254872188Y-125511583D01*
X254879504Y-125568916D01*
X254864838Y-125605216D01*
X254826501Y-125640323D01*
X254825184Y-125641390D01*
X254741343Y-125681703D01*
X254635988Y-125698246D01*
X254634304Y-125698250D01*
X254513616Y-125669114D01*
X254417603Y-125582865D01*
X254347097Y-125441243D01*
X254302927Y-125245988D01*
X254285926Y-124998840D01*
X254285750Y-124968000D01*
X254305944Y-124688562D01*
G37*
X254305944Y-124688562D02*
X254366946Y-124456867D01*
X254469377Y-124271488D01*
X254613864Y-124130998D01*
X254667215Y-124096383D01*
X254711153Y-124073436D01*
X254760159Y-124056591D01*
X254824372Y-124044921D01*
X254913934Y-124037495D01*
X255038984Y-124033385D01*
X255209663Y-124031661D01*
X255376603Y-124031375D01*
X255975331Y-124031375D01*
X256068243Y-124142500D01*
X256136512Y-124245560D01*
X256193436Y-124367072D01*
X256205325Y-124402194D01*
X256240251Y-124566510D01*
X256262114Y-124765619D01*
X256269351Y-124971866D01*
X256260403Y-125157593D01*
X256251588Y-125222000D01*
X256199298Y-125402442D01*
X256113357Y-125565632D01*
X256004561Y-125693687D01*
X255936346Y-125744170D01*
X255804191Y-125792907D01*
X255644902Y-125810469D01*
X255638655Y-125809935D01*
X255638655Y-125154270D01*
X255711798Y-125132592D01*
X255736533Y-125107822D01*
X255762664Y-125037744D01*
X255776326Y-124933354D01*
X255775847Y-124822913D01*
X255759556Y-124734684D01*
X255758728Y-124732472D01*
X255718694Y-124696831D01*
X255628919Y-124682743D01*
X255599978Y-124682250D01*
X255460500Y-124682250D01*
X255460968Y-124833063D01*
X255469739Y-124942482D01*
X255491213Y-125037957D01*
X255501450Y-125063250D01*
X255561148Y-125129755D01*
X255638655Y-125154270D01*
X255638655Y-125809935D01*
X255485029Y-125796796D01*
X255351123Y-125751829D01*
X255340011Y-125745506D01*
X255231503Y-125648594D01*
X255146366Y-125500303D01*
X255083390Y-125297706D01*
X255041368Y-125037874D01*
X255039044Y-125016161D01*
X255022656Y-124866862D01*
X255008474Y-124770106D01*
X254993237Y-124715170D01*
X254973681Y-124691334D01*
X254946544Y-124687876D01*
X254939416Y-124688758D01*
X254877737Y-124722379D01*
X254834700Y-124777500D01*
X254806699Y-124877419D01*
X254795967Y-125017494D01*
X254802182Y-125176870D01*
X254825017Y-125334690D01*
X254844576Y-125413378D01*
X254872188Y-125511583D01*
X254879504Y-125568916D01*
X254864838Y-125605216D01*
X254826501Y-125640323D01*
X254825184Y-125641390D01*
X254741343Y-125681703D01*
X254635988Y-125698246D01*
X254634304Y-125698250D01*
X254513616Y-125669114D01*
X254417603Y-125582865D01*
X254347097Y-125441243D01*
X254302927Y-125245988D01*
X254285926Y-124998840D01*
X254285750Y-124968000D01*
X254305944Y-124688562D01*
G36*
X255544404Y-121520867D02*
G01*
X255609408Y-121409214D01*
X255714850Y-121332444D01*
X255854127Y-121291486D01*
X255995707Y-121302190D01*
X256122636Y-121359407D01*
X256217962Y-121457989D01*
X256235921Y-121490690D01*
X256279595Y-121628035D01*
X256270061Y-121760387D01*
X256239528Y-121846508D01*
X256162553Y-121951402D01*
X256049869Y-122017888D01*
X255917780Y-122043987D01*
X255782587Y-122027721D01*
X255660592Y-121967111D01*
X255612342Y-121922621D01*
X255552555Y-121838849D01*
X255527366Y-121746753D01*
X255524000Y-121672564D01*
X255544404Y-121520867D01*
G37*
X255544404Y-121520867D02*
X255609408Y-121409214D01*
X255714850Y-121332444D01*
X255854127Y-121291486D01*
X255995707Y-121302190D01*
X256122636Y-121359407D01*
X256217962Y-121457989D01*
X256235921Y-121490690D01*
X256279595Y-121628035D01*
X256270061Y-121760387D01*
X256239528Y-121846508D01*
X256162553Y-121951402D01*
X256049869Y-122017888D01*
X255917780Y-122043987D01*
X255782587Y-122027721D01*
X255660592Y-121967111D01*
X255612342Y-121922621D01*
X255552555Y-121838849D01*
X255527366Y-121746753D01*
X255524000Y-121672564D01*
X255544404Y-121520867D01*
G36*
X253685554Y-127334144D02*
G01*
X253697018Y-127254972D01*
X253722026Y-127201754D01*
X253755983Y-127164285D01*
X253785492Y-127139600D01*
X253820141Y-127121619D01*
X253869771Y-127109284D01*
X253944225Y-127101538D01*
X254053345Y-127097322D01*
X254206971Y-127095579D01*
X254398354Y-127095250D01*
X254967240Y-127095250D01*
X254642370Y-126769271D01*
X254506204Y-126630464D01*
X254411224Y-126525184D01*
X254352496Y-126443305D01*
X254325086Y-126374705D01*
X254324061Y-126309261D01*
X254344487Y-126236849D01*
X254361771Y-126193505D01*
X254439151Y-126072921D01*
X254542964Y-126003224D01*
X254662123Y-125988325D01*
X254785545Y-126032135D01*
X254797509Y-126039772D01*
X254856222Y-126089075D01*
X254940192Y-126172178D01*
X255034305Y-126273867D01*
X255066091Y-126310160D01*
X255251538Y-126525195D01*
X255558434Y-126219451D01*
X255686753Y-126092791D01*
X255781248Y-126006377D01*
X255852946Y-125955510D01*
X255912880Y-125935487D01*
X255972078Y-125941610D01*
X256041571Y-125969178D01*
X256090271Y-125992811D01*
X256173585Y-126064534D01*
X256233002Y-126173286D01*
X256254250Y-126287188D01*
X256240019Y-126387750D01*
X256193242Y-126488344D01*
X256107788Y-126597161D01*
X255977528Y-126722392D01*
X255846246Y-126832414D01*
X255539875Y-127079375D01*
X255877201Y-127088347D01*
X256214527Y-127097318D01*
X256234039Y-127215347D01*
X256247905Y-127434747D01*
X256232277Y-127560247D01*
X256198816Y-127633434D01*
X256153934Y-127687247D01*
X256133430Y-127702569D01*
X256104880Y-127715089D01*
X256061948Y-127725156D01*
X255998297Y-127733119D01*
X255907590Y-127739326D01*
X255783488Y-127744126D01*
X255619656Y-127747867D01*
X255409755Y-127750898D01*
X255147449Y-127753568D01*
X254912310Y-127755544D01*
X254595635Y-127757663D01*
X254337135Y-127758363D01*
X254131499Y-127757502D01*
X253973416Y-127754941D01*
X253857574Y-127750540D01*
X253778661Y-127744159D01*
X253731366Y-127735657D01*
X253710377Y-127724893D01*
X253709587Y-127723794D01*
X253696473Y-127672970D01*
X253686938Y-127578781D01*
X253682996Y-127461343D01*
X253682986Y-127457972D01*
X253685554Y-127334144D01*
G37*
X253685554Y-127334144D02*
X253697018Y-127254972D01*
X253722026Y-127201754D01*
X253755983Y-127164285D01*
X253785492Y-127139600D01*
X253820141Y-127121619D01*
X253869771Y-127109284D01*
X253944225Y-127101538D01*
X254053345Y-127097322D01*
X254206971Y-127095579D01*
X254398354Y-127095250D01*
X254967240Y-127095250D01*
X254642370Y-126769271D01*
X254506204Y-126630464D01*
X254411224Y-126525184D01*
X254352496Y-126443305D01*
X254325086Y-126374705D01*
X254324061Y-126309261D01*
X254344487Y-126236849D01*
X254361771Y-126193505D01*
X254439151Y-126072921D01*
X254542964Y-126003224D01*
X254662123Y-125988325D01*
X254785545Y-126032135D01*
X254797509Y-126039772D01*
X254856222Y-126089075D01*
X254940192Y-126172178D01*
X255034305Y-126273867D01*
X255066091Y-126310160D01*
X255251538Y-126525195D01*
X255558434Y-126219451D01*
X255686753Y-126092791D01*
X255781248Y-126006377D01*
X255852946Y-125955510D01*
X255912880Y-125935487D01*
X255972078Y-125941610D01*
X256041571Y-125969178D01*
X256090271Y-125992811D01*
X256173585Y-126064534D01*
X256233002Y-126173286D01*
X256254250Y-126287188D01*
X256240019Y-126387750D01*
X256193242Y-126488344D01*
X256107788Y-126597161D01*
X255977528Y-126722392D01*
X255846246Y-126832414D01*
X255539875Y-127079375D01*
X255877201Y-127088347D01*
X256214527Y-127097318D01*
X256234039Y-127215347D01*
X256247905Y-127434747D01*
X256232277Y-127560247D01*
X256198816Y-127633434D01*
X256153934Y-127687247D01*
X256133430Y-127702569D01*
X256104880Y-127715089D01*
X256061948Y-127725156D01*
X255998297Y-127733119D01*
X255907590Y-127739326D01*
X255783488Y-127744126D01*
X255619656Y-127747867D01*
X255409755Y-127750898D01*
X255147449Y-127753568D01*
X254912310Y-127755544D01*
X254595635Y-127757663D01*
X254337135Y-127758363D01*
X254131499Y-127757502D01*
X253973416Y-127754941D01*
X253857574Y-127750540D01*
X253778661Y-127744159D01*
X253731366Y-127735657D01*
X253710377Y-127724893D01*
X253709587Y-127723794D01*
X253696473Y-127672970D01*
X253686938Y-127578781D01*
X253682996Y-127461343D01*
X253682986Y-127457972D01*
X253685554Y-127334144D01*
D13*
%TO.C,RV6*%
X260473000Y-142391000D02*
X270213000Y-142391000D01*
X260473000Y-130801000D02*
X261963000Y-130801000D01*
X260473000Y-139331000D02*
X260473000Y-142391000D01*
X270223000Y-130801000D02*
X270223000Y-135521000D01*
X270213000Y-139331000D02*
X270213000Y-142391000D01*
X260473000Y-130801000D02*
X260473000Y-135521000D01*
X269033000Y-130801000D02*
X270213000Y-130801000D01*
X266133000Y-130801000D02*
X266663000Y-130801000D01*
X263683000Y-130801000D02*
X264513000Y-130801000D01*
%TO.C,RV3*%
X240661000Y-142391000D02*
X250401000Y-142391000D01*
X240661000Y-130801000D02*
X242151000Y-130801000D01*
X240661000Y-139331000D02*
X240661000Y-142391000D01*
X250411000Y-130801000D02*
X250411000Y-135521000D01*
X250401000Y-139331000D02*
X250401000Y-142391000D01*
X240661000Y-130801000D02*
X240661000Y-135521000D01*
X249221000Y-130801000D02*
X250401000Y-130801000D01*
X246321000Y-130801000D02*
X246851000Y-130801000D01*
X243871000Y-130801000D02*
X244701000Y-130801000D01*
%TO.C,RV2*%
X240661000Y-106259500D02*
X250401000Y-106259500D01*
X240661000Y-94669500D02*
X242151000Y-94669500D01*
X240661000Y-103199500D02*
X240661000Y-106259500D01*
X250411000Y-94669500D02*
X250411000Y-99389500D01*
X250401000Y-103199500D02*
X250401000Y-106259500D01*
X240661000Y-94669500D02*
X240661000Y-99389500D01*
X249221000Y-94669500D02*
X250401000Y-94669500D01*
X246321000Y-94669500D02*
X246851000Y-94669500D01*
X243871000Y-94669500D02*
X244701000Y-94669500D01*
%TO.C,R49*%
X257785776Y-90629000D02*
X258295224Y-90629000D01*
X257785776Y-89584000D02*
X258295224Y-89584000D01*
%TO.C,R48*%
X259563776Y-92153000D02*
X260073224Y-92153000D01*
X259563776Y-91108000D02*
X260073224Y-91108000D01*
%TO.C,R47*%
X257832776Y-88787500D02*
X258342224Y-88787500D01*
X257832776Y-87742500D02*
X258342224Y-87742500D01*
%TO.C,R18*%
X248897224Y-91171500D02*
X248387776Y-91171500D01*
X248897224Y-92216500D02*
X248387776Y-92216500D01*
%TO.C,R17*%
X253215224Y-89520500D02*
X252705776Y-89520500D01*
X253215224Y-90565500D02*
X252705776Y-90565500D01*
%TO.C,R16*%
X253262224Y-87869500D02*
X252752776Y-87869500D01*
X253262224Y-88914500D02*
X252752776Y-88914500D01*
D11*
%TO.C,D1*%
X251744000Y-90291000D02*
G75*
G03*
X251744000Y-90291000I-100000J0D01*
G01*
D14*
X250644000Y-90691000D02*
X247444000Y-90691000D01*
X250644000Y-87691000D02*
X247444000Y-87691000D01*
D11*
%TO.C,D2*%
X264825000Y-90291000D02*
G75*
G03*
X264825000Y-90291000I-100000J0D01*
G01*
D14*
X263725000Y-90691000D02*
X260525000Y-90691000D01*
X263725000Y-87691000D02*
X260525000Y-87691000D01*
D11*
%TO.C,J1*%
X270864000Y-57474000D02*
G75*
G03*
X270864000Y-57474000I-100000J0D01*
G01*
D14*
X270364000Y-59419000D02*
X270364000Y-60524000D01*
X271164000Y-60524000D02*
X271164000Y-59419000D01*
X266264000Y-60524000D02*
X266264000Y-71024000D01*
X270364000Y-60524000D02*
X266264000Y-60524000D01*
X275264000Y-60524000D02*
X271164000Y-60524000D01*
X275264000Y-71024000D02*
X275264000Y-60524000D01*
X275264000Y-71024000D02*
X266264000Y-71024000D01*
D11*
%TO.C,J2*%
X270864000Y-71698000D02*
G75*
G03*
X270864000Y-71698000I-100000J0D01*
G01*
D14*
X270364000Y-73643000D02*
X270364000Y-74748000D01*
X271164000Y-74748000D02*
X271164000Y-73643000D01*
X266264000Y-74748000D02*
X266264000Y-85248000D01*
X270364000Y-74748000D02*
X266264000Y-74748000D01*
X275264000Y-74748000D02*
X271164000Y-74748000D01*
X275264000Y-85248000D02*
X275264000Y-74748000D01*
X275264000Y-85248000D02*
X266264000Y-85248000D01*
D11*
%TO.C,J3*%
X270864000Y-29026000D02*
G75*
G03*
X270864000Y-29026000I-100000J0D01*
G01*
D14*
X270364000Y-30971000D02*
X270364000Y-32076000D01*
X271164000Y-32076000D02*
X271164000Y-30971000D01*
X266264000Y-32076000D02*
X266264000Y-42576000D01*
X270364000Y-32076000D02*
X266264000Y-32076000D01*
X275264000Y-32076000D02*
X271164000Y-32076000D01*
X275264000Y-42576000D02*
X275264000Y-32076000D01*
X275264000Y-42576000D02*
X266264000Y-42576000D01*
D11*
%TO.C,J4*%
X270864000Y-43250000D02*
G75*
G03*
X270864000Y-43250000I-100000J0D01*
G01*
D14*
X270364000Y-45195000D02*
X270364000Y-46300000D01*
X271164000Y-46300000D02*
X271164000Y-45195000D01*
X266264000Y-46300000D02*
X266264000Y-56800000D01*
X270364000Y-46300000D02*
X266264000Y-46300000D01*
X275264000Y-46300000D02*
X271164000Y-46300000D01*
X275264000Y-56800000D02*
X275264000Y-46300000D01*
X275264000Y-56800000D02*
X266264000Y-56800000D01*
D11*
%TO.C,J5*%
X250544000Y-57474000D02*
G75*
G03*
X250544000Y-57474000I-100000J0D01*
G01*
D14*
X250044000Y-59419000D02*
X250044000Y-60524000D01*
X250844000Y-60524000D02*
X250844000Y-59419000D01*
X245944000Y-60524000D02*
X245944000Y-71024000D01*
X250044000Y-60524000D02*
X245944000Y-60524000D01*
X254944000Y-60524000D02*
X250844000Y-60524000D01*
X254944000Y-71024000D02*
X254944000Y-60524000D01*
X254944000Y-71024000D02*
X245944000Y-71024000D01*
D11*
%TO.C,J6*%
X240384000Y-57474000D02*
G75*
G03*
X240384000Y-57474000I-100000J0D01*
G01*
D14*
X239884000Y-59419000D02*
X239884000Y-60524000D01*
X240684000Y-60524000D02*
X240684000Y-59419000D01*
X235784000Y-60524000D02*
X235784000Y-71024000D01*
X239884000Y-60524000D02*
X235784000Y-60524000D01*
X244784000Y-60524000D02*
X240684000Y-60524000D01*
X244784000Y-71024000D02*
X244784000Y-60524000D01*
X244784000Y-71024000D02*
X235784000Y-71024000D01*
D11*
%TO.C,J7*%
X260704000Y-57474000D02*
G75*
G03*
X260704000Y-57474000I-100000J0D01*
G01*
D14*
X260204000Y-59419000D02*
X260204000Y-60524000D01*
X261004000Y-60524000D02*
X261004000Y-59419000D01*
X256104000Y-60524000D02*
X256104000Y-71024000D01*
X260204000Y-60524000D02*
X256104000Y-60524000D01*
X265104000Y-60524000D02*
X261004000Y-60524000D01*
X265104000Y-71024000D02*
X265104000Y-60524000D01*
X265104000Y-71024000D02*
X256104000Y-71024000D01*
D11*
%TO.C,J9*%
X250544000Y-71698000D02*
G75*
G03*
X250544000Y-71698000I-100000J0D01*
G01*
D14*
X250044000Y-73643000D02*
X250044000Y-74748000D01*
X250844000Y-74748000D02*
X250844000Y-73643000D01*
X245944000Y-74748000D02*
X245944000Y-85248000D01*
X250044000Y-74748000D02*
X245944000Y-74748000D01*
X254944000Y-74748000D02*
X250844000Y-74748000D01*
X254944000Y-85248000D02*
X254944000Y-74748000D01*
X254944000Y-85248000D02*
X245944000Y-85248000D01*
D11*
%TO.C,J10*%
X240384000Y-71698000D02*
G75*
G03*
X240384000Y-71698000I-100000J0D01*
G01*
D14*
X239884000Y-73643000D02*
X239884000Y-74748000D01*
X240684000Y-74748000D02*
X240684000Y-73643000D01*
X235784000Y-74748000D02*
X235784000Y-85248000D01*
X239884000Y-74748000D02*
X235784000Y-74748000D01*
X244784000Y-74748000D02*
X240684000Y-74748000D01*
X244784000Y-85248000D02*
X244784000Y-74748000D01*
X244784000Y-85248000D02*
X235784000Y-85248000D01*
D11*
%TO.C,J11*%
X260704000Y-71698000D02*
G75*
G03*
X260704000Y-71698000I-100000J0D01*
G01*
D14*
X260204000Y-73643000D02*
X260204000Y-74748000D01*
X261004000Y-74748000D02*
X261004000Y-73643000D01*
X256104000Y-74748000D02*
X256104000Y-85248000D01*
X260204000Y-74748000D02*
X256104000Y-74748000D01*
X265104000Y-74748000D02*
X261004000Y-74748000D01*
X265104000Y-85248000D02*
X265104000Y-74748000D01*
X265104000Y-85248000D02*
X256104000Y-85248000D01*
D11*
%TO.C,J12*%
X250544000Y-29026000D02*
G75*
G03*
X250544000Y-29026000I-100000J0D01*
G01*
D14*
X250044000Y-30971000D02*
X250044000Y-32076000D01*
X250844000Y-32076000D02*
X250844000Y-30971000D01*
X245944000Y-32076000D02*
X245944000Y-42576000D01*
X250044000Y-32076000D02*
X245944000Y-32076000D01*
X254944000Y-32076000D02*
X250844000Y-32076000D01*
X254944000Y-42576000D02*
X254944000Y-32076000D01*
X254944000Y-42576000D02*
X245944000Y-42576000D01*
D11*
%TO.C,J13*%
X240384000Y-29026000D02*
G75*
G03*
X240384000Y-29026000I-100000J0D01*
G01*
D14*
X239884000Y-30971000D02*
X239884000Y-32076000D01*
X240684000Y-32076000D02*
X240684000Y-30971000D01*
X235784000Y-32076000D02*
X235784000Y-42576000D01*
X239884000Y-32076000D02*
X235784000Y-32076000D01*
X244784000Y-32076000D02*
X240684000Y-32076000D01*
X244784000Y-42576000D02*
X244784000Y-32076000D01*
X244784000Y-42576000D02*
X235784000Y-42576000D01*
D11*
%TO.C,J14*%
X260704000Y-29026000D02*
G75*
G03*
X260704000Y-29026000I-100000J0D01*
G01*
D14*
X260204000Y-30971000D02*
X260204000Y-32076000D01*
X261004000Y-32076000D02*
X261004000Y-30971000D01*
X256104000Y-32076000D02*
X256104000Y-42576000D01*
X260204000Y-32076000D02*
X256104000Y-32076000D01*
X265104000Y-32076000D02*
X261004000Y-32076000D01*
X265104000Y-42576000D02*
X265104000Y-32076000D01*
X265104000Y-42576000D02*
X256104000Y-42576000D01*
D11*
%TO.C,J15*%
X250544000Y-43250000D02*
G75*
G03*
X250544000Y-43250000I-100000J0D01*
G01*
D14*
X250044000Y-45195000D02*
X250044000Y-46300000D01*
X250844000Y-46300000D02*
X250844000Y-45195000D01*
X245944000Y-46300000D02*
X245944000Y-56800000D01*
X250044000Y-46300000D02*
X245944000Y-46300000D01*
X254944000Y-46300000D02*
X250844000Y-46300000D01*
X254944000Y-56800000D02*
X254944000Y-46300000D01*
X254944000Y-56800000D02*
X245944000Y-56800000D01*
D11*
%TO.C,J16*%
X240384000Y-43250000D02*
G75*
G03*
X240384000Y-43250000I-100000J0D01*
G01*
D14*
X239884000Y-45195000D02*
X239884000Y-46300000D01*
X240684000Y-46300000D02*
X240684000Y-45195000D01*
X235784000Y-46300000D02*
X235784000Y-56800000D01*
X239884000Y-46300000D02*
X235784000Y-46300000D01*
X244784000Y-46300000D02*
X240684000Y-46300000D01*
X244784000Y-56800000D02*
X244784000Y-46300000D01*
X244784000Y-56800000D02*
X235784000Y-56800000D01*
D11*
%TO.C,J17*%
X260704000Y-43250000D02*
G75*
G03*
X260704000Y-43250000I-100000J0D01*
G01*
D14*
X260204000Y-45195000D02*
X260204000Y-46300000D01*
X261004000Y-46300000D02*
X261004000Y-45195000D01*
X256104000Y-46300000D02*
X256104000Y-56800000D01*
X260204000Y-46300000D02*
X256104000Y-46300000D01*
X265104000Y-46300000D02*
X261004000Y-46300000D01*
X265104000Y-56800000D02*
X265104000Y-46300000D01*
X265104000Y-56800000D02*
X256104000Y-56800000D01*
D13*
%TO.C,RV1*%
X243831600Y-113014000D02*
X244661600Y-113014000D01*
X246281600Y-113014000D02*
X246811600Y-113014000D01*
X249181600Y-113014000D02*
X250361600Y-113014000D01*
X240621600Y-113014000D02*
X240621600Y-117734000D01*
X250361600Y-121544000D02*
X250361600Y-124604000D01*
X250371600Y-113014000D02*
X250371600Y-117734000D01*
X240621600Y-121544000D02*
X240621600Y-124604000D01*
X240621600Y-113014000D02*
X242111600Y-113014000D01*
X240621600Y-124604000D02*
X250361600Y-124604000D01*
%TO.C,SW1*%
X245187000Y-87881000D02*
X245187000Y-88181000D01*
X241887000Y-87881000D02*
X245187000Y-87881000D01*
X241887000Y-88181000D02*
X241887000Y-87881000D01*
X245187000Y-90681000D02*
X245187000Y-90381000D01*
X241887000Y-90681000D02*
X245187000Y-90681000D01*
X241887000Y-90381000D02*
X241887000Y-90681000D01*
%TO.C,RV5*%
X260473000Y-106570000D02*
X270213000Y-106570000D01*
X260473000Y-94980000D02*
X261963000Y-94980000D01*
X260473000Y-103510000D02*
X260473000Y-106570000D01*
X270223000Y-94980000D02*
X270223000Y-99700000D01*
X270213000Y-103510000D02*
X270213000Y-106570000D01*
X260473000Y-94980000D02*
X260473000Y-99700000D01*
X269033000Y-94980000D02*
X270213000Y-94980000D01*
X266133000Y-94980000D02*
X266663000Y-94980000D01*
X263683000Y-94980000D02*
X264513000Y-94980000D01*
%TO.C,RV4*%
X263617000Y-113014000D02*
X264447000Y-113014000D01*
X266067000Y-113014000D02*
X266597000Y-113014000D01*
X268967000Y-113014000D02*
X270147000Y-113014000D01*
X260407000Y-113014000D02*
X260407000Y-117734000D01*
X270147000Y-121544000D02*
X270147000Y-124604000D01*
X270157000Y-113014000D02*
X270157000Y-117734000D01*
X260407000Y-121544000D02*
X260407000Y-124604000D01*
X260407000Y-113014000D02*
X261897000Y-113014000D01*
X260407000Y-124604000D02*
X270147000Y-124604000D01*
%TO.C,U2*%
X193332100Y-105318400D02*
X189882100Y-105318400D01*
X193332100Y-105318400D02*
X195282100Y-105318400D01*
X193332100Y-114188400D02*
X191382100Y-114188400D01*
X193332100Y-114188400D02*
X195282100Y-114188400D01*
%TO.C,C2*%
X188212000Y-106470233D02*
X188212000Y-106762767D01*
X189232000Y-106470233D02*
X189232000Y-106762767D01*
%TO.C,R5*%
X184889224Y-105141500D02*
X184379776Y-105141500D01*
X184889224Y-106186500D02*
X184379776Y-106186500D01*
%TO.C,R6*%
X184952724Y-107046500D02*
X184443276Y-107046500D01*
X184952724Y-108091500D02*
X184443276Y-108091500D01*
%TO.C,R15*%
X205588776Y-71007500D02*
X206098224Y-71007500D01*
X205588776Y-69962500D02*
X206098224Y-69962500D01*
%TO.C,R7*%
X182865500Y-123466776D02*
X182865500Y-123976224D01*
X183910500Y-123466776D02*
X183910500Y-123976224D01*
%TO.C,R4*%
X177836300Y-122530776D02*
X177836300Y-123040224D01*
X178881300Y-122530776D02*
X178881300Y-123040224D01*
%TO.C,R3*%
X204764724Y-71550000D02*
X204255276Y-71550000D01*
X204764724Y-72595000D02*
X204255276Y-72595000D01*
%TO.C,R1*%
X179538724Y-124699500D02*
X179029276Y-124699500D01*
X179538724Y-125744500D02*
X179029276Y-125744500D01*
%TO.C,Q6*%
X202563000Y-133787000D02*
X201103000Y-133787000D01*
X202563000Y-130627000D02*
X200403000Y-130627000D01*
X202563000Y-130627000D02*
X202563000Y-131557000D01*
X202563000Y-133787000D02*
X202563000Y-132857000D01*
%TO.C,Q5*%
X192038000Y-133787000D02*
X190578000Y-133787000D01*
X192038000Y-130627000D02*
X189878000Y-130627000D01*
X192038000Y-130627000D02*
X192038000Y-131557000D01*
X192038000Y-133787000D02*
X192038000Y-132857000D01*
%TO.C,Q4*%
X181497000Y-133787000D02*
X180037000Y-133787000D01*
X181497000Y-130627000D02*
X179337000Y-130627000D01*
X181497000Y-130627000D02*
X181497000Y-131557000D01*
X181497000Y-133787000D02*
X181497000Y-132857000D01*
%TO.C,Q3*%
X202563000Y-124262000D02*
X201103000Y-124262000D01*
X202563000Y-121102000D02*
X200403000Y-121102000D01*
X202563000Y-121102000D02*
X202563000Y-122032000D01*
X202563000Y-124262000D02*
X202563000Y-123332000D01*
%TO.C,Q2*%
X192149000Y-124135000D02*
X190689000Y-124135000D01*
X192149000Y-120975000D02*
X189989000Y-120975000D01*
X192149000Y-120975000D02*
X192149000Y-121905000D01*
X192149000Y-124135000D02*
X192149000Y-123205000D01*
%TO.C,Q1*%
X181608000Y-124262000D02*
X180148000Y-124262000D01*
X181608000Y-121102000D02*
X179448000Y-121102000D01*
X181608000Y-121102000D02*
X181608000Y-122032000D01*
X181608000Y-124262000D02*
X181608000Y-123332000D01*
%TO.C,C10*%
X197483000Y-99739233D02*
X197483000Y-100031767D01*
X198503000Y-99739233D02*
X198503000Y-100031767D01*
%TO.C,C9*%
X188275500Y-98659733D02*
X188275500Y-98952267D01*
X189295500Y-98659733D02*
X189295500Y-98952267D01*
%TO.C,C8*%
X197356000Y-106279733D02*
X197356000Y-106572267D01*
X198376000Y-106279733D02*
X198376000Y-106572267D01*
%TO.C,C7*%
X200789000Y-50030767D02*
X200789000Y-49738233D01*
X199769000Y-50030767D02*
X199769000Y-49738233D01*
%TO.C,C6*%
X203309267Y-44194000D02*
X203016733Y-44194000D01*
X203309267Y-45214000D02*
X203016733Y-45214000D01*
%TO.C,C5*%
X203319767Y-41146000D02*
X203027233Y-41146000D01*
X203319767Y-42166000D02*
X203027233Y-42166000D01*
%TO.C,C1*%
X202826233Y-33784000D02*
X203118767Y-33784000D01*
X202826233Y-32764000D02*
X203118767Y-32764000D01*
%TO.C,U4*%
X203849000Y-51491000D02*
X202389000Y-51491000D01*
X203849000Y-48331000D02*
X201689000Y-48331000D01*
X203849000Y-48331000D02*
X203849000Y-49261000D01*
X203849000Y-51491000D02*
X203849000Y-50561000D01*
%TO.C,U1*%
X203434000Y-76517500D02*
X203434000Y-79967500D01*
X203434000Y-76517500D02*
X203434000Y-74567500D01*
X208554000Y-76517500D02*
X208554000Y-78467500D01*
X208554000Y-76517500D02*
X208554000Y-74567500D01*
%TO.C,U5*%
X193421000Y-97325500D02*
X189971000Y-97325500D01*
X193421000Y-97325500D02*
X195371000Y-97325500D01*
X193421000Y-102445500D02*
X191471000Y-102445500D01*
X193421000Y-102445500D02*
X195371000Y-102445500D01*
D15*
%TO.C,U3*%
X187706000Y-47815500D02*
X185166000Y-47815500D01*
X185166000Y-47815500D02*
X185166000Y-50355500D01*
X185166000Y-50355500D02*
X187706000Y-50355500D01*
X187706000Y-50355500D02*
X187706000Y-47815500D01*
X178816000Y-55435500D02*
X178816000Y-51625500D01*
X178816000Y-51625500D02*
X181356000Y-51625500D01*
X181356000Y-51625500D02*
X181356000Y-55435500D01*
X181356000Y-55435500D02*
X178816000Y-55435500D01*
X177546000Y-69405500D02*
X190246000Y-69405500D01*
X190246000Y-56705500D02*
X177546000Y-56705500D01*
X177546000Y-56705500D02*
X177546000Y-69405500D01*
X190246000Y-56705500D02*
X190246000Y-69405500D01*
X178816000Y-90995500D02*
X178816000Y-92265500D01*
X180086000Y-90995500D02*
X180086000Y-92265500D01*
X181356000Y-90995500D02*
X181356000Y-92265500D01*
X182626000Y-90995500D02*
X182626000Y-92265500D01*
X183896000Y-90995500D02*
X183896000Y-92265500D01*
X185166000Y-90995500D02*
X185166000Y-92265500D01*
X186436000Y-90995500D02*
X186436000Y-92265500D01*
X187706000Y-90995500D02*
X187706000Y-92265500D01*
X188976000Y-90995500D02*
X188976000Y-92265500D01*
X177546000Y-92265500D02*
X178816000Y-90995500D01*
X178816000Y-90995500D02*
X188976000Y-90995500D01*
X188976000Y-90995500D02*
X190246000Y-92265500D01*
X190246000Y-92265500D02*
X190246000Y-79565500D01*
X190246000Y-79565500D02*
X177546000Y-79565500D01*
X177546000Y-79565500D02*
X177546000Y-92265500D01*
X192786000Y-92265500D02*
X192786000Y-31305500D01*
X175006000Y-31305500D02*
X175006000Y-92265500D01*
X180086000Y-31305500D02*
X180086000Y-30035500D01*
X180086000Y-30035500D02*
X187706000Y-30035500D01*
X187706000Y-30035500D02*
X187706000Y-31305500D01*
X180086000Y-36385500D02*
X187706000Y-36385500D01*
X187706000Y-36385500D02*
X187706000Y-31305500D01*
X180086000Y-36385500D02*
X180086000Y-31305500D01*
X186436000Y-75755500D02*
X181356000Y-75755500D01*
X181356000Y-75755500D02*
X181356000Y-73215500D01*
X181356000Y-73215500D02*
X186436000Y-73215500D01*
X186436000Y-73215500D02*
X186436000Y-75755500D01*
X192786000Y-92265500D02*
X175006000Y-92265500D01*
X175006000Y-31305500D02*
X192786000Y-31305500D01*
D16*
G36*
X188849000Y-62801500D02*
G01*
X188595000Y-63055500D01*
X188341000Y-62674500D01*
X188595000Y-62420500D01*
X188849000Y-62801500D01*
G37*
X188849000Y-62801500D02*
X188595000Y-63055500D01*
X188341000Y-62674500D01*
X188595000Y-62420500D01*
X188849000Y-62801500D01*
G36*
X187325000Y-62547500D02*
G01*
X187071000Y-62801500D01*
X186817000Y-62420500D01*
X187071000Y-62166500D01*
X187325000Y-62547500D01*
G37*
X187325000Y-62547500D02*
X187071000Y-62801500D01*
X186817000Y-62420500D01*
X187071000Y-62166500D01*
X187325000Y-62547500D01*
G36*
X186563000Y-62420500D02*
G01*
X186309000Y-62674500D01*
X186055000Y-62293500D01*
X186309000Y-62039500D01*
X186563000Y-62420500D01*
G37*
X186563000Y-62420500D02*
X186309000Y-62674500D01*
X186055000Y-62293500D01*
X186309000Y-62039500D01*
X186563000Y-62420500D01*
G36*
X188087000Y-63563500D02*
G01*
X187833000Y-63817500D01*
X187579000Y-63436500D01*
X187833000Y-63182500D01*
X188087000Y-63563500D01*
G37*
X188087000Y-63563500D02*
X187833000Y-63817500D01*
X187579000Y-63436500D01*
X187833000Y-63182500D01*
X188087000Y-63563500D01*
G36*
X186944000Y-62928500D02*
G01*
X186690000Y-63182500D01*
X186436000Y-62801500D01*
X186690000Y-62547500D01*
X186944000Y-62928500D01*
G37*
X186944000Y-62928500D02*
X186690000Y-63182500D01*
X186436000Y-62801500D01*
X186690000Y-62547500D01*
X186944000Y-62928500D01*
G36*
X187325000Y-63436500D02*
G01*
X187071000Y-63690500D01*
X186817000Y-63309500D01*
X187071000Y-63055500D01*
X187325000Y-63436500D01*
G37*
X187325000Y-63436500D02*
X187071000Y-63690500D01*
X186817000Y-63309500D01*
X187071000Y-63055500D01*
X187325000Y-63436500D01*
G36*
X188468000Y-63182500D02*
G01*
X188214000Y-63436500D01*
X187960000Y-63055500D01*
X188214000Y-62801500D01*
X188468000Y-63182500D01*
G37*
X188468000Y-63182500D02*
X188214000Y-63436500D01*
X187960000Y-63055500D01*
X188214000Y-62801500D01*
X188468000Y-63182500D01*
G36*
X187706000Y-63055500D02*
G01*
X187452000Y-63309500D01*
X187198000Y-62928500D01*
X187452000Y-62674500D01*
X187706000Y-63055500D01*
G37*
X187706000Y-63055500D02*
X187452000Y-63309500D01*
X187198000Y-62928500D01*
X187452000Y-62674500D01*
X187706000Y-63055500D01*
D13*
%TO.C,R8*%
X186675500Y-106338276D02*
X186675500Y-106847724D01*
X187720500Y-106338276D02*
X187720500Y-106847724D01*
%TO.C,R11*%
X187784000Y-113498724D02*
X187784000Y-112989276D01*
X186739000Y-113498724D02*
X186739000Y-112989276D01*
%TO.C,R9*%
X185016224Y-113650500D02*
X184506776Y-113650500D01*
X185016224Y-114695500D02*
X184506776Y-114695500D01*
%TO.C,R10*%
X185016224Y-111809000D02*
X184506776Y-111809000D01*
X185016224Y-112854000D02*
X184506776Y-112854000D01*
%TO.C,C3*%
X189295500Y-113403767D02*
X189295500Y-113111233D01*
X188275500Y-113403767D02*
X188275500Y-113111233D01*
%TO.C,C4*%
X198312500Y-113139267D02*
X198312500Y-112846733D01*
X197292500Y-113139267D02*
X197292500Y-112846733D01*
%TO.C,R14*%
X199849000Y-113261224D02*
X199849000Y-112751776D01*
X198804000Y-113261224D02*
X198804000Y-112751776D01*
%TO.C,R12*%
X201571776Y-114441500D02*
X202081224Y-114441500D01*
X201571776Y-113396500D02*
X202081224Y-113396500D01*
%TO.C,R13*%
X201524776Y-112600000D02*
X202034224Y-112600000D01*
X201524776Y-111555000D02*
X202034224Y-111555000D01*
%TO.C,J8*%
X205553000Y-31944000D02*
X206883000Y-31944000D01*
X205553000Y-33274000D02*
X205553000Y-31944000D01*
X208153000Y-31944000D02*
X210753000Y-31944000D01*
X208153000Y-34544000D02*
X208153000Y-31944000D01*
X205553000Y-34544000D02*
X208153000Y-34544000D01*
X210753000Y-31944000D02*
X210753000Y-52384000D01*
X205553000Y-34544000D02*
X205553000Y-52384000D01*
X205553000Y-52384000D02*
X210753000Y-52384000D01*
%TO.C,R2*%
X202921776Y-53608500D02*
X203431224Y-53608500D01*
X202921776Y-52563500D02*
X203431224Y-52563500D01*
%TO.C,U6*%
X205563700Y-84574700D02*
X202113700Y-84574700D01*
X205563700Y-84574700D02*
X207513700Y-84574700D01*
X205563700Y-89694700D02*
X203613700Y-89694700D01*
X205563700Y-89694700D02*
X207513700Y-89694700D01*
%TO.C,R46*%
X203820500Y-132968276D02*
X203820500Y-133477724D01*
X204865500Y-132968276D02*
X204865500Y-133477724D01*
%TO.C,R45*%
X198740500Y-131928776D02*
X198740500Y-132438224D01*
X199785500Y-131928776D02*
X199785500Y-132438224D01*
%TO.C,R44*%
X200510224Y-134351500D02*
X200000776Y-134351500D01*
X200510224Y-135396500D02*
X200000776Y-135396500D01*
%TO.C,R43*%
X193343000Y-132944776D02*
X193343000Y-133454224D01*
X194388000Y-132944776D02*
X194388000Y-133454224D01*
%TO.C,R42*%
X188263000Y-132055776D02*
X188263000Y-132565224D01*
X189308000Y-132055776D02*
X189308000Y-132565224D01*
%TO.C,R41*%
X189969224Y-134288000D02*
X189459776Y-134288000D01*
X189969224Y-135333000D02*
X189459776Y-135333000D01*
%TO.C,R40*%
X182738500Y-132968276D02*
X182738500Y-133477724D01*
X183783500Y-132968276D02*
X183783500Y-133477724D01*
%TO.C,R39*%
X177658500Y-131952276D02*
X177658500Y-132461724D01*
X178703500Y-131952276D02*
X178703500Y-132461724D01*
%TO.C,R38*%
X179301224Y-134224500D02*
X178791776Y-134224500D01*
X179301224Y-135269500D02*
X178791776Y-135269500D01*
%TO.C,R37*%
X203820500Y-123419776D02*
X203820500Y-123929224D01*
X204865500Y-123419776D02*
X204865500Y-123929224D01*
%TO.C,R36*%
X198740500Y-122403776D02*
X198740500Y-122913224D01*
X199785500Y-122403776D02*
X199785500Y-122913224D01*
%TO.C,R35*%
X200510224Y-124826500D02*
X200000776Y-124826500D01*
X200510224Y-125871500D02*
X200000776Y-125871500D01*
%TO.C,R34*%
X193406500Y-123339776D02*
X193406500Y-123849224D01*
X194451500Y-123339776D02*
X194451500Y-123849224D01*
%TO.C,R33*%
X188326500Y-122403776D02*
X188326500Y-122913224D01*
X189371500Y-122403776D02*
X189371500Y-122913224D01*
%TO.C,R32*%
X190096224Y-124572500D02*
X189586776Y-124572500D01*
X190096224Y-125617500D02*
X189586776Y-125617500D01*
%TO.C,R31*%
X198994500Y-99630776D02*
X198994500Y-100140224D01*
X200039500Y-99630776D02*
X200039500Y-100140224D01*
%TO.C,R30*%
X201651776Y-101297000D02*
X202161224Y-101297000D01*
X201651776Y-100252000D02*
X202161224Y-100252000D01*
%TO.C,R29*%
X201698776Y-99519000D02*
X202208224Y-99519000D01*
X201698776Y-98474000D02*
X202208224Y-98474000D01*
%TO.C,R28*%
X186675500Y-98511276D02*
X186675500Y-99020724D01*
X187720500Y-98511276D02*
X187720500Y-99020724D01*
%TO.C,R27*%
X184936224Y-99109000D02*
X184426776Y-99109000D01*
X184936224Y-100154000D02*
X184426776Y-100154000D01*
%TO.C,R26*%
X184952724Y-97331000D02*
X184443276Y-97331000D01*
X184952724Y-98376000D02*
X184443276Y-98376000D01*
%TO.C,R25*%
X198994500Y-106147776D02*
X198994500Y-106657224D01*
X200039500Y-106147776D02*
X200039500Y-106657224D01*
%TO.C,R24*%
X201778776Y-107837500D02*
X202288224Y-107837500D01*
X201778776Y-106792500D02*
X202288224Y-106792500D01*
%TO.C,R23*%
X201778776Y-105996000D02*
X202288224Y-105996000D01*
X201778776Y-104951000D02*
X202288224Y-104951000D01*
%TO.C,R22*%
X202818276Y-81612000D02*
X203327724Y-81612000D01*
X202818276Y-80567000D02*
X203327724Y-80567000D01*
%TO.C,R21*%
X209154500Y-78319724D02*
X209154500Y-77810276D01*
X210199500Y-78319724D02*
X210199500Y-77810276D01*
%TO.C,R20*%
X209154500Y-74508276D02*
X209154500Y-75017724D01*
X210199500Y-74508276D02*
X210199500Y-75017724D01*
%TO.C,R19*%
X202833500Y-78804224D02*
X202833500Y-78294776D01*
X201788500Y-78804224D02*
X201788500Y-78294776D01*
D12*
%TO.C,G\u002A\u002A\u002A*%
G36*
X187828912Y-141484355D02*
G01*
X187920674Y-141494700D01*
X187966759Y-141516519D01*
X187984965Y-141559407D01*
X187986551Y-141569359D01*
X187988261Y-141618074D01*
X187963114Y-141633916D01*
X187894567Y-141625563D01*
X187883363Y-141623483D01*
X187804117Y-141618613D01*
X187769659Y-141634837D01*
X187786585Y-141662437D01*
X187840937Y-141685990D01*
X187945900Y-141740312D01*
X188008210Y-141818367D01*
X188022083Y-141906482D01*
X187981735Y-141990987D01*
X187973607Y-141999607D01*
X187905388Y-142034159D01*
X187807415Y-142048748D01*
X187706305Y-142043177D01*
X187628676Y-142017250D01*
X187611085Y-142002279D01*
X187583196Y-141940375D01*
X187597054Y-141892985D01*
X187642486Y-141879060D01*
X187671691Y-141889380D01*
X187744655Y-141916754D01*
X187783287Y-141922500D01*
X187828911Y-141910245D01*
X187821214Y-141878200D01*
X187764409Y-141833440D01*
X187713937Y-141806052D01*
X187625239Y-141747659D01*
X187587539Y-141679029D01*
X187585213Y-141664554D01*
X187598181Y-141567530D01*
X187662419Y-141506649D01*
X187776053Y-141483295D01*
X187828912Y-141484355D01*
G37*
X187828912Y-141484355D02*
X187920674Y-141494700D01*
X187966759Y-141516519D01*
X187984965Y-141559407D01*
X187986551Y-141569359D01*
X187988261Y-141618074D01*
X187963114Y-141633916D01*
X187894567Y-141625563D01*
X187883363Y-141623483D01*
X187804117Y-141618613D01*
X187769659Y-141634837D01*
X187786585Y-141662437D01*
X187840937Y-141685990D01*
X187945900Y-141740312D01*
X188008210Y-141818367D01*
X188022083Y-141906482D01*
X187981735Y-141990987D01*
X187973607Y-141999607D01*
X187905388Y-142034159D01*
X187807415Y-142048748D01*
X187706305Y-142043177D01*
X187628676Y-142017250D01*
X187611085Y-142002279D01*
X187583196Y-141940375D01*
X187597054Y-141892985D01*
X187642486Y-141879060D01*
X187671691Y-141889380D01*
X187744655Y-141916754D01*
X187783287Y-141922500D01*
X187828911Y-141910245D01*
X187821214Y-141878200D01*
X187764409Y-141833440D01*
X187713937Y-141806052D01*
X187625239Y-141747659D01*
X187587539Y-141679029D01*
X187585213Y-141664554D01*
X187598181Y-141567530D01*
X187662419Y-141506649D01*
X187776053Y-141483295D01*
X187828912Y-141484355D01*
G36*
X188621237Y-141518983D02*
G01*
X188633297Y-141563847D01*
X188609164Y-141636846D01*
X188577500Y-141696849D01*
X188530299Y-141802251D01*
X188502703Y-141907011D01*
X188499750Y-141941615D01*
X188493080Y-142015679D01*
X188464641Y-142045320D01*
X188425666Y-142049500D01*
X188358988Y-142041292D01*
X188330416Y-142028333D01*
X188313898Y-141983062D01*
X188309250Y-141930799D01*
X188293459Y-141859087D01*
X188253339Y-141763148D01*
X188226628Y-141713449D01*
X188182512Y-141623920D01*
X188161068Y-141550939D01*
X188162131Y-141525233D01*
X188201905Y-141481965D01*
X188258864Y-141491635D01*
X188321087Y-141550742D01*
X188338678Y-141577065D01*
X188398923Y-141676130D01*
X188450152Y-141577065D01*
X188508404Y-141498525D01*
X188568531Y-141481596D01*
X188621237Y-141518983D01*
G37*
X188621237Y-141518983D02*
X188633297Y-141563847D01*
X188609164Y-141636846D01*
X188577500Y-141696849D01*
X188530299Y-141802251D01*
X188502703Y-141907011D01*
X188499750Y-141941615D01*
X188493080Y-142015679D01*
X188464641Y-142045320D01*
X188425666Y-142049500D01*
X188358988Y-142041292D01*
X188330416Y-142028333D01*
X188313898Y-141983062D01*
X188309250Y-141930799D01*
X188293459Y-141859087D01*
X188253339Y-141763148D01*
X188226628Y-141713449D01*
X188182512Y-141623920D01*
X188161068Y-141550939D01*
X188162131Y-141525233D01*
X188201905Y-141481965D01*
X188258864Y-141491635D01*
X188321087Y-141550742D01*
X188338678Y-141577065D01*
X188398923Y-141676130D01*
X188450152Y-141577065D01*
X188508404Y-141498525D01*
X188568531Y-141481596D01*
X188621237Y-141518983D01*
G36*
X189237937Y-141483729D02*
G01*
X189272619Y-141492614D01*
X189293779Y-141515866D01*
X189304740Y-141566507D01*
X189308825Y-141657562D01*
X189309375Y-141763750D01*
X189309375Y-142033625D01*
X189214125Y-142033625D01*
X189151521Y-142024957D01*
X189105489Y-141989002D01*
X189058753Y-141910835D01*
X189048746Y-141890750D01*
X188978617Y-141747875D01*
X188977308Y-141898687D01*
X188973611Y-141989906D01*
X188958580Y-142034303D01*
X188923180Y-142048514D01*
X188895388Y-142049500D01*
X188814777Y-142049500D01*
X188823951Y-141771687D01*
X188829167Y-141638539D01*
X188836753Y-141556056D01*
X188850737Y-141511423D01*
X188875147Y-141491826D01*
X188914014Y-141484453D01*
X188914266Y-141484424D01*
X188967565Y-141488031D01*
X189012492Y-141521735D01*
X189063608Y-141598073D01*
X189080181Y-141627299D01*
X189164955Y-141779625D01*
X189165727Y-141626604D01*
X189168919Y-141535017D01*
X189182400Y-141491671D01*
X189213855Y-141481360D01*
X189237937Y-141483729D01*
G37*
X189237937Y-141483729D02*
X189272619Y-141492614D01*
X189293779Y-141515866D01*
X189304740Y-141566507D01*
X189308825Y-141657562D01*
X189309375Y-141763750D01*
X189309375Y-142033625D01*
X189214125Y-142033625D01*
X189151521Y-142024957D01*
X189105489Y-141989002D01*
X189058753Y-141910835D01*
X189048746Y-141890750D01*
X188978617Y-141747875D01*
X188977308Y-141898687D01*
X188973611Y-141989906D01*
X188958580Y-142034303D01*
X188923180Y-142048514D01*
X188895388Y-142049500D01*
X188814777Y-142049500D01*
X188823951Y-141771687D01*
X188829167Y-141638539D01*
X188836753Y-141556056D01*
X188850737Y-141511423D01*
X188875147Y-141491826D01*
X188914014Y-141484453D01*
X188914266Y-141484424D01*
X188967565Y-141488031D01*
X189012492Y-141521735D01*
X189063608Y-141598073D01*
X189080181Y-141627299D01*
X189164955Y-141779625D01*
X189165727Y-141626604D01*
X189168919Y-141535017D01*
X189182400Y-141491671D01*
X189213855Y-141481360D01*
X189237937Y-141483729D01*
G36*
X189920218Y-141483592D02*
G01*
X189951169Y-141496974D01*
X189957347Y-141524488D01*
X189954709Y-141547998D01*
X189919103Y-141613130D01*
X189872937Y-141631020D01*
X189834166Y-141642018D01*
X189812684Y-141671112D01*
X189803470Y-141733374D01*
X189801500Y-141843871D01*
X189801500Y-141845333D01*
X189799190Y-141956978D01*
X189789645Y-142018985D01*
X189768935Y-142045133D01*
X189743291Y-142049500D01*
X189682921Y-142039134D01*
X189663916Y-142028333D01*
X189652426Y-141987333D01*
X189644739Y-141903385D01*
X189642750Y-141824166D01*
X189640304Y-141720103D01*
X189629039Y-141663535D01*
X189603059Y-141638524D01*
X189571312Y-141631020D01*
X189511581Y-141599479D01*
X189499875Y-141557375D01*
X189506269Y-141524268D01*
X189534266Y-141504018D01*
X189597083Y-141492484D01*
X189707938Y-141485522D01*
X189732459Y-141484498D01*
X189851609Y-141480660D01*
X189920218Y-141483592D01*
G37*
X189920218Y-141483592D02*
X189951169Y-141496974D01*
X189957347Y-141524488D01*
X189954709Y-141547998D01*
X189919103Y-141613130D01*
X189872937Y-141631020D01*
X189834166Y-141642018D01*
X189812684Y-141671112D01*
X189803470Y-141733374D01*
X189801500Y-141843871D01*
X189801500Y-141845333D01*
X189799190Y-141956978D01*
X189789645Y-142018985D01*
X189768935Y-142045133D01*
X189743291Y-142049500D01*
X189682921Y-142039134D01*
X189663916Y-142028333D01*
X189652426Y-141987333D01*
X189644739Y-141903385D01*
X189642750Y-141824166D01*
X189640304Y-141720103D01*
X189629039Y-141663535D01*
X189603059Y-141638524D01*
X189571312Y-141631020D01*
X189511581Y-141599479D01*
X189499875Y-141557375D01*
X189506269Y-141524268D01*
X189534266Y-141504018D01*
X189597083Y-141492484D01*
X189707938Y-141485522D01*
X189732459Y-141484498D01*
X189851609Y-141480660D01*
X189920218Y-141483592D01*
G36*
X190585084Y-141480248D02*
G01*
X190608395Y-141495110D01*
X190620914Y-141534758D01*
X190625995Y-141611364D01*
X190626994Y-141737102D01*
X190627000Y-141765958D01*
X190626281Y-141901752D01*
X190622119Y-141985762D01*
X190611500Y-142029702D01*
X190591412Y-142045287D01*
X190558843Y-142044229D01*
X190555562Y-142043770D01*
X190501690Y-142019445D01*
X190477239Y-141955329D01*
X190474175Y-141930437D01*
X190458682Y-141857872D01*
X190421320Y-141830099D01*
X190386863Y-141827250D01*
X190334472Y-141835921D01*
X190313038Y-141874305D01*
X190309500Y-141938375D01*
X190303569Y-142013524D01*
X190276882Y-142044289D01*
X190230125Y-142049500D01*
X190192665Y-142047251D01*
X190169354Y-142032389D01*
X190156835Y-141992741D01*
X190151754Y-141916135D01*
X190150755Y-141790397D01*
X190150750Y-141761541D01*
X190151468Y-141625747D01*
X190155630Y-141541737D01*
X190166249Y-141497797D01*
X190186337Y-141482212D01*
X190218906Y-141483270D01*
X190222187Y-141483729D01*
X190276059Y-141508054D01*
X190300510Y-141572170D01*
X190303574Y-141597062D01*
X190319067Y-141669627D01*
X190356429Y-141697400D01*
X190390886Y-141700250D01*
X190443277Y-141691578D01*
X190464711Y-141653194D01*
X190468250Y-141589125D01*
X190474180Y-141513975D01*
X190500867Y-141483210D01*
X190547625Y-141478000D01*
X190585084Y-141480248D01*
G37*
X190585084Y-141480248D02*
X190608395Y-141495110D01*
X190620914Y-141534758D01*
X190625995Y-141611364D01*
X190626994Y-141737102D01*
X190627000Y-141765958D01*
X190626281Y-141901752D01*
X190622119Y-141985762D01*
X190611500Y-142029702D01*
X190591412Y-142045287D01*
X190558843Y-142044229D01*
X190555562Y-142043770D01*
X190501690Y-142019445D01*
X190477239Y-141955329D01*
X190474175Y-141930437D01*
X190458682Y-141857872D01*
X190421320Y-141830099D01*
X190386863Y-141827250D01*
X190334472Y-141835921D01*
X190313038Y-141874305D01*
X190309500Y-141938375D01*
X190303569Y-142013524D01*
X190276882Y-142044289D01*
X190230125Y-142049500D01*
X190192665Y-142047251D01*
X190169354Y-142032389D01*
X190156835Y-141992741D01*
X190151754Y-141916135D01*
X190150755Y-141790397D01*
X190150750Y-141761541D01*
X190151468Y-141625747D01*
X190155630Y-141541737D01*
X190166249Y-141497797D01*
X190186337Y-141482212D01*
X190218906Y-141483270D01*
X190222187Y-141483729D01*
X190276059Y-141508054D01*
X190300510Y-141572170D01*
X190303574Y-141597062D01*
X190319067Y-141669627D01*
X190356429Y-141697400D01*
X190390886Y-141700250D01*
X190443277Y-141691578D01*
X190464711Y-141653194D01*
X190468250Y-141589125D01*
X190474180Y-141513975D01*
X190500867Y-141483210D01*
X190547625Y-141478000D01*
X190585084Y-141480248D01*
G36*
X191162023Y-141496191D02*
G01*
X191219515Y-141506369D01*
X191242622Y-141529249D01*
X191246125Y-141557375D01*
X191232551Y-141601607D01*
X191181198Y-141623910D01*
X191126397Y-141630768D01*
X191047829Y-141647472D01*
X191028069Y-141672096D01*
X191065410Y-141693321D01*
X191136873Y-141700250D01*
X191205751Y-141710678D01*
X191229492Y-141749209D01*
X191230250Y-141763750D01*
X191218159Y-141807115D01*
X191170651Y-141824920D01*
X191116479Y-141827250D01*
X191037806Y-141837973D01*
X191014034Y-141863014D01*
X191041697Y-141891675D01*
X191117329Y-141913262D01*
X191145391Y-141916479D01*
X191225913Y-141931216D01*
X191258714Y-141963171D01*
X191262000Y-141987916D01*
X191254546Y-142022310D01*
X191222598Y-142040936D01*
X191151773Y-142048417D01*
X191070503Y-142049500D01*
X190944398Y-142042950D01*
X190876344Y-142022735D01*
X190862637Y-142006841D01*
X190855841Y-141955703D01*
X190853206Y-141860750D01*
X190855219Y-141741560D01*
X190855696Y-141729028D01*
X190865125Y-141493875D01*
X191055625Y-141493875D01*
X191162023Y-141496191D01*
G37*
X191162023Y-141496191D02*
X191219515Y-141506369D01*
X191242622Y-141529249D01*
X191246125Y-141557375D01*
X191232551Y-141601607D01*
X191181198Y-141623910D01*
X191126397Y-141630768D01*
X191047829Y-141647472D01*
X191028069Y-141672096D01*
X191065410Y-141693321D01*
X191136873Y-141700250D01*
X191205751Y-141710678D01*
X191229492Y-141749209D01*
X191230250Y-141763750D01*
X191218159Y-141807115D01*
X191170651Y-141824920D01*
X191116479Y-141827250D01*
X191037806Y-141837973D01*
X191014034Y-141863014D01*
X191041697Y-141891675D01*
X191117329Y-141913262D01*
X191145391Y-141916479D01*
X191225913Y-141931216D01*
X191258714Y-141963171D01*
X191262000Y-141987916D01*
X191254546Y-142022310D01*
X191222598Y-142040936D01*
X191151773Y-142048417D01*
X191070503Y-142049500D01*
X190944398Y-142042950D01*
X190876344Y-142022735D01*
X190862637Y-142006841D01*
X190855841Y-141955703D01*
X190853206Y-141860750D01*
X190855219Y-141741560D01*
X190855696Y-141729028D01*
X190865125Y-141493875D01*
X191055625Y-141493875D01*
X191162023Y-141496191D01*
G36*
X191759283Y-141489039D02*
G01*
X191826449Y-141518236D01*
X191832345Y-141524234D01*
X191856569Y-141581916D01*
X191827938Y-141618530D01*
X191756110Y-141624155D01*
X191738250Y-141620875D01*
X191659732Y-141613975D01*
X191633775Y-141632855D01*
X191660281Y-141667802D01*
X191739137Y-141709103D01*
X191819526Y-141746463D01*
X191855862Y-141788197D01*
X191865140Y-141856150D01*
X191865250Y-141871203D01*
X191849668Y-141967132D01*
X191803837Y-142016632D01*
X191717993Y-142042602D01*
X191613813Y-142048457D01*
X191517322Y-142035290D01*
X191454548Y-142004193D01*
X191452500Y-142001875D01*
X191429080Y-141942013D01*
X191454456Y-141898283D01*
X191513986Y-141883978D01*
X191566897Y-141898017D01*
X191644746Y-141916136D01*
X191675777Y-141902422D01*
X191671796Y-141870094D01*
X191607579Y-141828191D01*
X191581306Y-141815985D01*
X191475944Y-141749780D01*
X191432843Y-141671450D01*
X191451873Y-141580707D01*
X191466473Y-141555820D01*
X191514444Y-141503931D01*
X191583013Y-141481540D01*
X191655719Y-141478000D01*
X191759283Y-141489039D01*
G37*
X191759283Y-141489039D02*
X191826449Y-141518236D01*
X191832345Y-141524234D01*
X191856569Y-141581916D01*
X191827938Y-141618530D01*
X191756110Y-141624155D01*
X191738250Y-141620875D01*
X191659732Y-141613975D01*
X191633775Y-141632855D01*
X191660281Y-141667802D01*
X191739137Y-141709103D01*
X191819526Y-141746463D01*
X191855862Y-141788197D01*
X191865140Y-141856150D01*
X191865250Y-141871203D01*
X191849668Y-141967132D01*
X191803837Y-142016632D01*
X191717993Y-142042602D01*
X191613813Y-142048457D01*
X191517322Y-142035290D01*
X191454548Y-142004193D01*
X191452500Y-142001875D01*
X191429080Y-141942013D01*
X191454456Y-141898283D01*
X191513986Y-141883978D01*
X191566897Y-141898017D01*
X191644746Y-141916136D01*
X191675777Y-141902422D01*
X191671796Y-141870094D01*
X191607579Y-141828191D01*
X191581306Y-141815985D01*
X191475944Y-141749780D01*
X191432843Y-141671450D01*
X191451873Y-141580707D01*
X191466473Y-141555820D01*
X191514444Y-141503931D01*
X191583013Y-141481540D01*
X191655719Y-141478000D01*
X191759283Y-141489039D01*
G36*
X192183349Y-141486310D02*
G01*
X192216989Y-141518303D01*
X192236256Y-141584567D01*
X192244762Y-141695693D01*
X192246250Y-141813971D01*
X192245085Y-141934379D01*
X192238779Y-142004710D01*
X192223112Y-142038381D01*
X192193862Y-142048809D01*
X192172166Y-142049500D01*
X192105488Y-142041292D01*
X192076916Y-142028333D01*
X192067187Y-141988805D01*
X192059816Y-141902119D01*
X192056015Y-141784610D01*
X192055750Y-141742583D01*
X192056599Y-141613417D01*
X192061577Y-141535062D01*
X192074326Y-141494834D01*
X192098488Y-141480045D01*
X192131728Y-141478000D01*
X192183349Y-141486310D01*
G37*
X192183349Y-141486310D02*
X192216989Y-141518303D01*
X192236256Y-141584567D01*
X192244762Y-141695693D01*
X192246250Y-141813971D01*
X192245085Y-141934379D01*
X192238779Y-142004710D01*
X192223112Y-142038381D01*
X192193862Y-142048809D01*
X192172166Y-142049500D01*
X192105488Y-142041292D01*
X192076916Y-142028333D01*
X192067187Y-141988805D01*
X192059816Y-141902119D01*
X192056015Y-141784610D01*
X192055750Y-141742583D01*
X192056599Y-141613417D01*
X192061577Y-141535062D01*
X192074326Y-141494834D01*
X192098488Y-141480045D01*
X192131728Y-141478000D01*
X192183349Y-141486310D01*
G36*
X192758670Y-141481985D02*
G01*
X192827575Y-141495921D01*
X192859519Y-141522777D01*
X192862081Y-141528490D01*
X192871238Y-141566245D01*
X192862140Y-141606298D01*
X192827761Y-141663479D01*
X192761079Y-141752620D01*
X192747907Y-141769600D01*
X192656970Y-141886575D01*
X192761172Y-141896600D01*
X192836332Y-141913830D01*
X192864050Y-141952638D01*
X192865375Y-141970125D01*
X192858227Y-142004824D01*
X192827532Y-142025401D01*
X192759412Y-142036716D01*
X192657654Y-142042862D01*
X192547933Y-142044399D01*
X192464645Y-142039368D01*
X192427467Y-142029633D01*
X192407061Y-141987974D01*
X192421683Y-141928862D01*
X192475349Y-141841356D01*
X192517579Y-141784190D01*
X192630158Y-141636750D01*
X192533454Y-141636750D01*
X192464713Y-141628508D01*
X192439260Y-141593271D01*
X192436750Y-141557375D01*
X192440451Y-141514434D01*
X192461197Y-141490667D01*
X192513449Y-141480418D01*
X192611670Y-141478031D01*
X192639728Y-141478000D01*
X192758670Y-141481985D01*
G37*
X192758670Y-141481985D02*
X192827575Y-141495921D01*
X192859519Y-141522777D01*
X192862081Y-141528490D01*
X192871238Y-141566245D01*
X192862140Y-141606298D01*
X192827761Y-141663479D01*
X192761079Y-141752620D01*
X192747907Y-141769600D01*
X192656970Y-141886575D01*
X192761172Y-141896600D01*
X192836332Y-141913830D01*
X192864050Y-141952638D01*
X192865375Y-141970125D01*
X192858227Y-142004824D01*
X192827532Y-142025401D01*
X192759412Y-142036716D01*
X192657654Y-142042862D01*
X192547933Y-142044399D01*
X192464645Y-142039368D01*
X192427467Y-142029633D01*
X192407061Y-141987974D01*
X192421683Y-141928862D01*
X192475349Y-141841356D01*
X192517579Y-141784190D01*
X192630158Y-141636750D01*
X192533454Y-141636750D01*
X192464713Y-141628508D01*
X192439260Y-141593271D01*
X192436750Y-141557375D01*
X192440451Y-141514434D01*
X192461197Y-141490667D01*
X192513449Y-141480418D01*
X192611670Y-141478031D01*
X192639728Y-141478000D01*
X192758670Y-141481985D01*
G36*
X193384833Y-141480153D02*
G01*
X193434144Y-141490959D01*
X193449237Y-141516931D01*
X193447020Y-141549437D01*
X193422695Y-141603309D01*
X193358579Y-141627760D01*
X193333687Y-141630824D01*
X193263407Y-141645071D01*
X193230785Y-141666409D01*
X193230500Y-141668500D01*
X193258302Y-141690064D01*
X193326007Y-141705358D01*
X193333687Y-141706175D01*
X193412688Y-141727421D01*
X193436875Y-141763750D01*
X193407346Y-141803058D01*
X193333687Y-141821324D01*
X193253234Y-141843270D01*
X193227925Y-141877848D01*
X193257353Y-141909449D01*
X193336333Y-141922500D01*
X193429035Y-141930010D01*
X193468178Y-141956256D01*
X193463040Y-142004979D01*
X193423189Y-142031492D01*
X193343264Y-142046501D01*
X193245710Y-142049632D01*
X193152969Y-142040509D01*
X193087487Y-142018760D01*
X193078100Y-142011400D01*
X193056434Y-141957392D01*
X193043914Y-141862452D01*
X193040542Y-141748482D01*
X193046316Y-141637388D01*
X193061236Y-141551073D01*
X193078100Y-141516100D01*
X193129712Y-141494557D01*
X193220562Y-141480745D01*
X193286683Y-141478000D01*
X193384833Y-141480153D01*
G37*
X193384833Y-141480153D02*
X193434144Y-141490959D01*
X193449237Y-141516931D01*
X193447020Y-141549437D01*
X193422695Y-141603309D01*
X193358579Y-141627760D01*
X193333687Y-141630824D01*
X193263407Y-141645071D01*
X193230785Y-141666409D01*
X193230500Y-141668500D01*
X193258302Y-141690064D01*
X193326007Y-141705358D01*
X193333687Y-141706175D01*
X193412688Y-141727421D01*
X193436875Y-141763750D01*
X193407346Y-141803058D01*
X193333687Y-141821324D01*
X193253234Y-141843270D01*
X193227925Y-141877848D01*
X193257353Y-141909449D01*
X193336333Y-141922500D01*
X193429035Y-141930010D01*
X193468178Y-141956256D01*
X193463040Y-142004979D01*
X193423189Y-142031492D01*
X193343264Y-142046501D01*
X193245710Y-142049632D01*
X193152969Y-142040509D01*
X193087487Y-142018760D01*
X193078100Y-142011400D01*
X193056434Y-141957392D01*
X193043914Y-141862452D01*
X193040542Y-141748482D01*
X193046316Y-141637388D01*
X193061236Y-141551073D01*
X193078100Y-141516100D01*
X193129712Y-141494557D01*
X193220562Y-141480745D01*
X193286683Y-141478000D01*
X193384833Y-141480153D01*
G36*
X194005213Y-141502694D02*
G01*
X194054396Y-141539896D01*
X194111818Y-141630631D01*
X194105899Y-141725366D01*
X194074298Y-141781494D01*
X194045742Y-141835591D01*
X194063960Y-141880941D01*
X194078149Y-141897504D01*
X194110492Y-141965181D01*
X194093137Y-142022594D01*
X194033090Y-142049301D01*
X194026061Y-142049500D01*
X193962909Y-142020412D01*
X193906081Y-141946312D01*
X193849782Y-141843125D01*
X193839754Y-141946312D01*
X193824286Y-142018792D01*
X193786940Y-142046569D01*
X193751366Y-142049500D01*
X193685343Y-142034123D01*
X193656637Y-142006841D01*
X193649841Y-141955703D01*
X193647206Y-141860750D01*
X193649219Y-141741560D01*
X193649696Y-141729028D01*
X193652229Y-141665854D01*
X193833750Y-141665854D01*
X193853919Y-141720434D01*
X193883703Y-141732000D01*
X193921850Y-141708195D01*
X193923390Y-141679068D01*
X193896876Y-141626144D01*
X193860191Y-141614319D01*
X193835502Y-141646861D01*
X193833750Y-141665854D01*
X193652229Y-141665854D01*
X193659125Y-141493875D01*
X193824208Y-141484333D01*
X193934219Y-141484031D01*
X194005213Y-141502694D01*
G37*
X194005213Y-141502694D02*
X194054396Y-141539896D01*
X194111818Y-141630631D01*
X194105899Y-141725366D01*
X194074298Y-141781494D01*
X194045742Y-141835591D01*
X194063960Y-141880941D01*
X194078149Y-141897504D01*
X194110492Y-141965181D01*
X194093137Y-142022594D01*
X194033090Y-142049301D01*
X194026061Y-142049500D01*
X193962909Y-142020412D01*
X193906081Y-141946312D01*
X193849782Y-141843125D01*
X193839754Y-141946312D01*
X193824286Y-142018792D01*
X193786940Y-142046569D01*
X193751366Y-142049500D01*
X193685343Y-142034123D01*
X193656637Y-142006841D01*
X193649841Y-141955703D01*
X193647206Y-141860750D01*
X193649219Y-141741560D01*
X193649696Y-141729028D01*
X193652229Y-141665854D01*
X193833750Y-141665854D01*
X193853919Y-141720434D01*
X193883703Y-141732000D01*
X193921850Y-141708195D01*
X193923390Y-141679068D01*
X193896876Y-141626144D01*
X193860191Y-141614319D01*
X193835502Y-141646861D01*
X193833750Y-141665854D01*
X193652229Y-141665854D01*
X193659125Y-141493875D01*
X193824208Y-141484333D01*
X193934219Y-141484031D01*
X194005213Y-141502694D01*
G36*
X195751144Y-139275719D02*
G01*
X195859445Y-139335397D01*
X195918245Y-139433060D01*
X195929027Y-139515994D01*
X195911772Y-139691742D01*
X195863991Y-139908191D01*
X195790693Y-140153418D01*
X195696886Y-140415497D01*
X195587579Y-140682506D01*
X195467782Y-140942518D01*
X195342503Y-141183611D01*
X195216751Y-141393859D01*
X195095535Y-141561339D01*
X195046634Y-141616632D01*
X194897088Y-141738639D01*
X194735958Y-141810079D01*
X194574169Y-141828193D01*
X194422645Y-141790224D01*
X194401486Y-141779526D01*
X194342885Y-141728499D01*
X194281117Y-141647956D01*
X194232867Y-141562813D01*
X194214750Y-141500677D01*
X194236042Y-141473486D01*
X194293458Y-141412418D01*
X194377308Y-141327566D01*
X194444197Y-141261706D01*
X194673644Y-141038086D01*
X194585901Y-140969067D01*
X194499483Y-140872919D01*
X194407704Y-140718216D01*
X194312491Y-140509480D01*
X194215772Y-140251236D01*
X194119475Y-139948008D01*
X194059019Y-139732656D01*
X194019353Y-139582851D01*
X193995328Y-139482063D01*
X193986004Y-139418011D01*
X193990441Y-139378416D01*
X194007699Y-139350997D01*
X194028293Y-139331216D01*
X194102079Y-139294320D01*
X194214083Y-139269308D01*
X194339755Y-139258469D01*
X194454541Y-139264090D01*
X194527478Y-139284696D01*
X194567511Y-139312189D01*
X194603351Y-139353902D01*
X194638451Y-139418169D01*
X194676262Y-139513326D01*
X194720236Y-139647709D01*
X194773825Y-139829655D01*
X194817783Y-139985750D01*
X194865492Y-140153927D01*
X194908676Y-140300494D01*
X194943990Y-140414527D01*
X194968087Y-140485104D01*
X194976012Y-140502347D01*
X194991848Y-140483591D01*
X195019396Y-140413339D01*
X195055682Y-140301870D01*
X195097726Y-140159465D01*
X195142555Y-139996404D01*
X195187190Y-139822968D01*
X195228655Y-139649438D01*
X195247583Y-139564394D01*
X195282573Y-139422588D01*
X195322051Y-139332259D01*
X195378921Y-139281943D01*
X195466082Y-139260178D01*
X195595230Y-139255500D01*
X195751144Y-139275719D01*
G37*
X195751144Y-139275719D02*
X195859445Y-139335397D01*
X195918245Y-139433060D01*
X195929027Y-139515994D01*
X195911772Y-139691742D01*
X195863991Y-139908191D01*
X195790693Y-140153418D01*
X195696886Y-140415497D01*
X195587579Y-140682506D01*
X195467782Y-140942518D01*
X195342503Y-141183611D01*
X195216751Y-141393859D01*
X195095535Y-141561339D01*
X195046634Y-141616632D01*
X194897088Y-141738639D01*
X194735958Y-141810079D01*
X194574169Y-141828193D01*
X194422645Y-141790224D01*
X194401486Y-141779526D01*
X194342885Y-141728499D01*
X194281117Y-141647956D01*
X194232867Y-141562813D01*
X194214750Y-141500677D01*
X194236042Y-141473486D01*
X194293458Y-141412418D01*
X194377308Y-141327566D01*
X194444197Y-141261706D01*
X194673644Y-141038086D01*
X194585901Y-140969067D01*
X194499483Y-140872919D01*
X194407704Y-140718216D01*
X194312491Y-140509480D01*
X194215772Y-140251236D01*
X194119475Y-139948008D01*
X194059019Y-139732656D01*
X194019353Y-139582851D01*
X193995328Y-139482063D01*
X193986004Y-139418011D01*
X193990441Y-139378416D01*
X194007699Y-139350997D01*
X194028293Y-139331216D01*
X194102079Y-139294320D01*
X194214083Y-139269308D01*
X194339755Y-139258469D01*
X194454541Y-139264090D01*
X194527478Y-139284696D01*
X194567511Y-139312189D01*
X194603351Y-139353902D01*
X194638451Y-139418169D01*
X194676262Y-139513326D01*
X194720236Y-139647709D01*
X194773825Y-139829655D01*
X194817783Y-139985750D01*
X194865492Y-140153927D01*
X194908676Y-140300494D01*
X194943990Y-140414527D01*
X194968087Y-140485104D01*
X194976012Y-140502347D01*
X194991848Y-140483591D01*
X195019396Y-140413339D01*
X195055682Y-140301870D01*
X195097726Y-140159465D01*
X195142555Y-139996404D01*
X195187190Y-139822968D01*
X195228655Y-139649438D01*
X195247583Y-139564394D01*
X195282573Y-139422588D01*
X195322051Y-139332259D01*
X195378921Y-139281943D01*
X195466082Y-139260178D01*
X195595230Y-139255500D01*
X195751144Y-139275719D01*
G36*
X188848288Y-138766050D02*
G01*
X188962015Y-138772876D01*
X189050555Y-138788666D01*
X189133038Y-138816523D01*
X189205725Y-138848744D01*
X189404104Y-138955291D01*
X189554288Y-139069901D01*
X189671442Y-139204843D01*
X189701701Y-139249998D01*
X189814966Y-139484521D01*
X189880496Y-139746342D01*
X189898290Y-140020886D01*
X189868347Y-140293574D01*
X189790669Y-140549831D01*
X189701701Y-140721501D01*
X189550418Y-140902627D01*
X189355599Y-141046232D01*
X189127140Y-141149102D01*
X188874939Y-141208024D01*
X188608893Y-141219782D01*
X188338902Y-141181164D01*
X188309250Y-141173666D01*
X188113344Y-141097194D01*
X187923441Y-140979219D01*
X187761296Y-140834939D01*
X187681910Y-140735472D01*
X187586650Y-140567585D01*
X187525108Y-140391605D01*
X187493435Y-140191099D01*
X187491661Y-140115293D01*
X188187581Y-140115293D01*
X188215763Y-140286998D01*
X188276364Y-140423888D01*
X188372793Y-140537607D01*
X188376980Y-140541419D01*
X188460454Y-140609029D01*
X188534945Y-140641965D01*
X188631795Y-140652118D01*
X188669771Y-140652500D01*
X188811774Y-140639483D01*
X188922550Y-140595646D01*
X188945775Y-140580954D01*
X189033446Y-140505435D01*
X189106003Y-140416425D01*
X189111598Y-140407262D01*
X189152607Y-140299054D01*
X189180142Y-140150882D01*
X189192438Y-139985192D01*
X189187731Y-139824430D01*
X189167130Y-139701151D01*
X189114140Y-139578285D01*
X189031134Y-139463711D01*
X188932756Y-139372743D01*
X188833650Y-139320697D01*
X188797172Y-139314212D01*
X188593592Y-139322018D01*
X188435112Y-139371472D01*
X188318387Y-139465780D01*
X188240069Y-139608144D01*
X188196812Y-139801769D01*
X188188411Y-139897124D01*
X188187581Y-140115293D01*
X187491661Y-140115293D01*
X187487782Y-139949634D01*
X187488854Y-139911437D01*
X187496057Y-139754680D01*
X187508407Y-139640265D01*
X187530449Y-139547038D01*
X187566724Y-139453845D01*
X187603979Y-139375353D01*
X187747248Y-139151292D01*
X187931990Y-138974099D01*
X188155031Y-138846748D01*
X188177579Y-138837555D01*
X188281655Y-138802210D01*
X188389630Y-138780233D01*
X188521542Y-138768791D01*
X188690250Y-138765084D01*
X188848288Y-138766050D01*
G37*
X188848288Y-138766050D02*
X188962015Y-138772876D01*
X189050555Y-138788666D01*
X189133038Y-138816523D01*
X189205725Y-138848744D01*
X189404104Y-138955291D01*
X189554288Y-139069901D01*
X189671442Y-139204843D01*
X189701701Y-139249998D01*
X189814966Y-139484521D01*
X189880496Y-139746342D01*
X189898290Y-140020886D01*
X189868347Y-140293574D01*
X189790669Y-140549831D01*
X189701701Y-140721501D01*
X189550418Y-140902627D01*
X189355599Y-141046232D01*
X189127140Y-141149102D01*
X188874939Y-141208024D01*
X188608893Y-141219782D01*
X188338902Y-141181164D01*
X188309250Y-141173666D01*
X188113344Y-141097194D01*
X187923441Y-140979219D01*
X187761296Y-140834939D01*
X187681910Y-140735472D01*
X187586650Y-140567585D01*
X187525108Y-140391605D01*
X187493435Y-140191099D01*
X187491661Y-140115293D01*
X188187581Y-140115293D01*
X188215763Y-140286998D01*
X188276364Y-140423888D01*
X188372793Y-140537607D01*
X188376980Y-140541419D01*
X188460454Y-140609029D01*
X188534945Y-140641965D01*
X188631795Y-140652118D01*
X188669771Y-140652500D01*
X188811774Y-140639483D01*
X188922550Y-140595646D01*
X188945775Y-140580954D01*
X189033446Y-140505435D01*
X189106003Y-140416425D01*
X189111598Y-140407262D01*
X189152607Y-140299054D01*
X189180142Y-140150882D01*
X189192438Y-139985192D01*
X189187731Y-139824430D01*
X189167130Y-139701151D01*
X189114140Y-139578285D01*
X189031134Y-139463711D01*
X188932756Y-139372743D01*
X188833650Y-139320697D01*
X188797172Y-139314212D01*
X188593592Y-139322018D01*
X188435112Y-139371472D01*
X188318387Y-139465780D01*
X188240069Y-139608144D01*
X188196812Y-139801769D01*
X188188411Y-139897124D01*
X188187581Y-140115293D01*
X187491661Y-140115293D01*
X187487782Y-139949634D01*
X187488854Y-139911437D01*
X187496057Y-139754680D01*
X187508407Y-139640265D01*
X187530449Y-139547038D01*
X187566724Y-139453845D01*
X187603979Y-139375353D01*
X187747248Y-139151292D01*
X187931990Y-138974099D01*
X188155031Y-138846748D01*
X188177579Y-138837555D01*
X188281655Y-138802210D01*
X188389630Y-138780233D01*
X188521542Y-138768791D01*
X188690250Y-138765084D01*
X188848288Y-138766050D01*
G36*
X193192438Y-139243944D02*
G01*
X193424133Y-139304946D01*
X193609512Y-139407377D01*
X193750002Y-139551864D01*
X193784617Y-139605215D01*
X193807564Y-139649153D01*
X193824409Y-139698159D01*
X193836079Y-139762372D01*
X193843505Y-139851934D01*
X193847615Y-139976984D01*
X193849339Y-140147663D01*
X193849625Y-140314603D01*
X193849625Y-140913331D01*
X193738500Y-141006243D01*
X193635440Y-141074512D01*
X193513928Y-141131436D01*
X193478806Y-141143325D01*
X193314490Y-141178251D01*
X193115381Y-141200114D01*
X192909134Y-141207351D01*
X192723407Y-141198403D01*
X192659000Y-141189588D01*
X192478558Y-141137298D01*
X192315368Y-141051357D01*
X192187313Y-140942561D01*
X192136830Y-140874346D01*
X192088093Y-140742191D01*
X192070531Y-140582902D01*
X192071065Y-140576655D01*
X192726730Y-140576655D01*
X192748408Y-140649798D01*
X192773178Y-140674533D01*
X192843256Y-140700664D01*
X192947646Y-140714326D01*
X193058087Y-140713847D01*
X193146316Y-140697556D01*
X193148528Y-140696728D01*
X193184169Y-140656694D01*
X193198257Y-140566919D01*
X193198750Y-140537978D01*
X193198750Y-140398500D01*
X193047937Y-140398968D01*
X192938518Y-140407739D01*
X192843043Y-140429213D01*
X192817750Y-140439450D01*
X192751245Y-140499148D01*
X192726730Y-140576655D01*
X192071065Y-140576655D01*
X192084204Y-140423029D01*
X192129171Y-140289123D01*
X192135494Y-140278011D01*
X192232406Y-140169503D01*
X192380697Y-140084366D01*
X192583294Y-140021390D01*
X192843126Y-139979368D01*
X192864839Y-139977044D01*
X193014138Y-139960656D01*
X193110894Y-139946474D01*
X193165830Y-139931237D01*
X193189666Y-139911681D01*
X193193124Y-139884544D01*
X193192242Y-139877416D01*
X193158621Y-139815737D01*
X193103500Y-139772700D01*
X193003581Y-139744699D01*
X192863506Y-139733967D01*
X192704130Y-139740182D01*
X192546310Y-139763017D01*
X192467622Y-139782576D01*
X192369417Y-139810188D01*
X192312084Y-139817504D01*
X192275784Y-139802838D01*
X192240677Y-139764501D01*
X192239610Y-139763184D01*
X192199297Y-139679343D01*
X192182754Y-139573988D01*
X192182750Y-139572304D01*
X192211886Y-139451616D01*
X192298135Y-139355603D01*
X192439757Y-139285097D01*
X192635012Y-139240927D01*
X192882160Y-139223926D01*
X192913000Y-139223750D01*
X193192438Y-139243944D01*
G37*
X193192438Y-139243944D02*
X193424133Y-139304946D01*
X193609512Y-139407377D01*
X193750002Y-139551864D01*
X193784617Y-139605215D01*
X193807564Y-139649153D01*
X193824409Y-139698159D01*
X193836079Y-139762372D01*
X193843505Y-139851934D01*
X193847615Y-139976984D01*
X193849339Y-140147663D01*
X193849625Y-140314603D01*
X193849625Y-140913331D01*
X193738500Y-141006243D01*
X193635440Y-141074512D01*
X193513928Y-141131436D01*
X193478806Y-141143325D01*
X193314490Y-141178251D01*
X193115381Y-141200114D01*
X192909134Y-141207351D01*
X192723407Y-141198403D01*
X192659000Y-141189588D01*
X192478558Y-141137298D01*
X192315368Y-141051357D01*
X192187313Y-140942561D01*
X192136830Y-140874346D01*
X192088093Y-140742191D01*
X192070531Y-140582902D01*
X192071065Y-140576655D01*
X192726730Y-140576655D01*
X192748408Y-140649798D01*
X192773178Y-140674533D01*
X192843256Y-140700664D01*
X192947646Y-140714326D01*
X193058087Y-140713847D01*
X193146316Y-140697556D01*
X193148528Y-140696728D01*
X193184169Y-140656694D01*
X193198257Y-140566919D01*
X193198750Y-140537978D01*
X193198750Y-140398500D01*
X193047937Y-140398968D01*
X192938518Y-140407739D01*
X192843043Y-140429213D01*
X192817750Y-140439450D01*
X192751245Y-140499148D01*
X192726730Y-140576655D01*
X192071065Y-140576655D01*
X192084204Y-140423029D01*
X192129171Y-140289123D01*
X192135494Y-140278011D01*
X192232406Y-140169503D01*
X192380697Y-140084366D01*
X192583294Y-140021390D01*
X192843126Y-139979368D01*
X192864839Y-139977044D01*
X193014138Y-139960656D01*
X193110894Y-139946474D01*
X193165830Y-139931237D01*
X193189666Y-139911681D01*
X193193124Y-139884544D01*
X193192242Y-139877416D01*
X193158621Y-139815737D01*
X193103500Y-139772700D01*
X193003581Y-139744699D01*
X192863506Y-139733967D01*
X192704130Y-139740182D01*
X192546310Y-139763017D01*
X192467622Y-139782576D01*
X192369417Y-139810188D01*
X192312084Y-139817504D01*
X192275784Y-139802838D01*
X192240677Y-139764501D01*
X192239610Y-139763184D01*
X192199297Y-139679343D01*
X192182754Y-139573988D01*
X192182750Y-139572304D01*
X192211886Y-139451616D01*
X192298135Y-139355603D01*
X192439757Y-139285097D01*
X192635012Y-139240927D01*
X192882160Y-139223926D01*
X192913000Y-139223750D01*
X193192438Y-139243944D01*
G36*
X196360133Y-140482404D02*
G01*
X196471786Y-140547408D01*
X196548556Y-140652850D01*
X196589514Y-140792127D01*
X196578810Y-140933707D01*
X196521593Y-141060636D01*
X196423011Y-141155962D01*
X196390310Y-141173921D01*
X196252965Y-141217595D01*
X196120613Y-141208061D01*
X196034492Y-141177528D01*
X195929598Y-141100553D01*
X195863112Y-140987869D01*
X195837013Y-140855780D01*
X195853279Y-140720587D01*
X195913889Y-140598592D01*
X195958379Y-140550342D01*
X196042151Y-140490555D01*
X196134247Y-140465366D01*
X196208436Y-140462000D01*
X196360133Y-140482404D01*
G37*
X196360133Y-140482404D02*
X196471786Y-140547408D01*
X196548556Y-140652850D01*
X196589514Y-140792127D01*
X196578810Y-140933707D01*
X196521593Y-141060636D01*
X196423011Y-141155962D01*
X196390310Y-141173921D01*
X196252965Y-141217595D01*
X196120613Y-141208061D01*
X196034492Y-141177528D01*
X195929598Y-141100553D01*
X195863112Y-140987869D01*
X195837013Y-140855780D01*
X195853279Y-140720587D01*
X195913889Y-140598592D01*
X195958379Y-140550342D01*
X196042151Y-140490555D01*
X196134247Y-140465366D01*
X196208436Y-140462000D01*
X196360133Y-140482404D01*
G36*
X190546856Y-138623554D02*
G01*
X190626028Y-138635018D01*
X190679246Y-138660026D01*
X190716715Y-138693983D01*
X190741400Y-138723492D01*
X190759381Y-138758141D01*
X190771716Y-138807771D01*
X190779462Y-138882225D01*
X190783678Y-138991345D01*
X190785421Y-139144971D01*
X190785750Y-139336354D01*
X190785750Y-139905240D01*
X191111729Y-139580370D01*
X191250536Y-139444204D01*
X191355816Y-139349224D01*
X191437695Y-139290496D01*
X191506295Y-139263086D01*
X191571739Y-139262061D01*
X191644151Y-139282487D01*
X191687495Y-139299771D01*
X191808079Y-139377151D01*
X191877776Y-139480964D01*
X191892675Y-139600123D01*
X191848865Y-139723545D01*
X191841228Y-139735509D01*
X191791925Y-139794222D01*
X191708822Y-139878192D01*
X191607133Y-139972305D01*
X191570840Y-140004091D01*
X191355805Y-140189538D01*
X191661549Y-140496434D01*
X191788209Y-140624753D01*
X191874623Y-140719248D01*
X191925490Y-140790946D01*
X191945513Y-140850880D01*
X191939390Y-140910078D01*
X191911822Y-140979571D01*
X191888189Y-141028271D01*
X191816466Y-141111585D01*
X191707714Y-141171002D01*
X191593812Y-141192250D01*
X191493250Y-141178019D01*
X191392656Y-141131242D01*
X191283839Y-141045788D01*
X191158608Y-140915528D01*
X191048586Y-140784246D01*
X190801625Y-140477875D01*
X190792653Y-140815201D01*
X190783682Y-141152527D01*
X190665653Y-141172039D01*
X190446253Y-141185905D01*
X190320753Y-141170277D01*
X190247566Y-141136816D01*
X190193753Y-141091934D01*
X190178431Y-141071430D01*
X190165911Y-141042880D01*
X190155844Y-140999948D01*
X190147881Y-140936297D01*
X190141674Y-140845590D01*
X190136874Y-140721488D01*
X190133133Y-140557656D01*
X190130102Y-140347755D01*
X190127432Y-140085449D01*
X190125456Y-139850310D01*
X190123337Y-139533635D01*
X190122637Y-139275135D01*
X190123498Y-139069499D01*
X190126059Y-138911416D01*
X190130460Y-138795574D01*
X190136841Y-138716661D01*
X190145343Y-138669366D01*
X190156107Y-138648377D01*
X190157206Y-138647587D01*
X190208030Y-138634473D01*
X190302219Y-138624938D01*
X190419657Y-138620996D01*
X190423028Y-138620986D01*
X190546856Y-138623554D01*
G37*
X190546856Y-138623554D02*
X190626028Y-138635018D01*
X190679246Y-138660026D01*
X190716715Y-138693983D01*
X190741400Y-138723492D01*
X190759381Y-138758141D01*
X190771716Y-138807771D01*
X190779462Y-138882225D01*
X190783678Y-138991345D01*
X190785421Y-139144971D01*
X190785750Y-139336354D01*
X190785750Y-139905240D01*
X191111729Y-139580370D01*
X191250536Y-139444204D01*
X191355816Y-139349224D01*
X191437695Y-139290496D01*
X191506295Y-139263086D01*
X191571739Y-139262061D01*
X191644151Y-139282487D01*
X191687495Y-139299771D01*
X191808079Y-139377151D01*
X191877776Y-139480964D01*
X191892675Y-139600123D01*
X191848865Y-139723545D01*
X191841228Y-139735509D01*
X191791925Y-139794222D01*
X191708822Y-139878192D01*
X191607133Y-139972305D01*
X191570840Y-140004091D01*
X191355805Y-140189538D01*
X191661549Y-140496434D01*
X191788209Y-140624753D01*
X191874623Y-140719248D01*
X191925490Y-140790946D01*
X191945513Y-140850880D01*
X191939390Y-140910078D01*
X191911822Y-140979571D01*
X191888189Y-141028271D01*
X191816466Y-141111585D01*
X191707714Y-141171002D01*
X191593812Y-141192250D01*
X191493250Y-141178019D01*
X191392656Y-141131242D01*
X191283839Y-141045788D01*
X191158608Y-140915528D01*
X191048586Y-140784246D01*
X190801625Y-140477875D01*
X190792653Y-140815201D01*
X190783682Y-141152527D01*
X190665653Y-141172039D01*
X190446253Y-141185905D01*
X190320753Y-141170277D01*
X190247566Y-141136816D01*
X190193753Y-141091934D01*
X190178431Y-141071430D01*
X190165911Y-141042880D01*
X190155844Y-140999948D01*
X190147881Y-140936297D01*
X190141674Y-140845590D01*
X190136874Y-140721488D01*
X190133133Y-140557656D01*
X190130102Y-140347755D01*
X190127432Y-140085449D01*
X190125456Y-139850310D01*
X190123337Y-139533635D01*
X190122637Y-139275135D01*
X190123498Y-139069499D01*
X190126059Y-138911416D01*
X190130460Y-138795574D01*
X190136841Y-138716661D01*
X190145343Y-138669366D01*
X190156107Y-138648377D01*
X190157206Y-138647587D01*
X190208030Y-138634473D01*
X190302219Y-138624938D01*
X190419657Y-138620996D01*
X190423028Y-138620986D01*
X190546856Y-138623554D01*
%TO.C,RV6*%
D15*
X272935380Y-137226238D02*
X272459190Y-137559571D01*
X272935380Y-137797666D02*
X271935380Y-137797666D01*
X271935380Y-137416714D01*
X271983000Y-137321476D01*
X272030619Y-137273857D01*
X272125857Y-137226238D01*
X272268714Y-137226238D01*
X272363952Y-137273857D01*
X272411571Y-137321476D01*
X272459190Y-137416714D01*
X272459190Y-137797666D01*
X271935380Y-136940523D02*
X272935380Y-136607190D01*
X271935380Y-136273857D01*
X271935380Y-135511952D02*
X271935380Y-135702428D01*
X271983000Y-135797666D01*
X272030619Y-135845285D01*
X272173476Y-135940523D01*
X272363952Y-135988142D01*
X272744904Y-135988142D01*
X272840142Y-135940523D01*
X272887761Y-135892904D01*
X272935380Y-135797666D01*
X272935380Y-135607190D01*
X272887761Y-135511952D01*
X272840142Y-135464333D01*
X272744904Y-135416714D01*
X272506809Y-135416714D01*
X272411571Y-135464333D01*
X272363952Y-135511952D01*
X272316333Y-135607190D01*
X272316333Y-135797666D01*
X272363952Y-135892904D01*
X272411571Y-135940523D01*
X272506809Y-135988142D01*
%TO.C,RV3*%
X253123380Y-137226238D02*
X252647190Y-137559571D01*
X253123380Y-137797666D02*
X252123380Y-137797666D01*
X252123380Y-137416714D01*
X252171000Y-137321476D01*
X252218619Y-137273857D01*
X252313857Y-137226238D01*
X252456714Y-137226238D01*
X252551952Y-137273857D01*
X252599571Y-137321476D01*
X252647190Y-137416714D01*
X252647190Y-137797666D01*
X252123380Y-136940523D02*
X253123380Y-136607190D01*
X252123380Y-136273857D01*
X252123380Y-136035761D02*
X252123380Y-135416714D01*
X252504333Y-135750047D01*
X252504333Y-135607190D01*
X252551952Y-135511952D01*
X252599571Y-135464333D01*
X252694809Y-135416714D01*
X252932904Y-135416714D01*
X253028142Y-135464333D01*
X253075761Y-135511952D01*
X253123380Y-135607190D01*
X253123380Y-135892904D01*
X253075761Y-135988142D01*
X253028142Y-136035761D01*
%TO.C,RV2*%
X253123380Y-101094738D02*
X252647190Y-101428071D01*
X253123380Y-101666166D02*
X252123380Y-101666166D01*
X252123380Y-101285214D01*
X252171000Y-101189976D01*
X252218619Y-101142357D01*
X252313857Y-101094738D01*
X252456714Y-101094738D01*
X252551952Y-101142357D01*
X252599571Y-101189976D01*
X252647190Y-101285214D01*
X252647190Y-101666166D01*
X252123380Y-100809023D02*
X253123380Y-100475690D01*
X252123380Y-100142357D01*
X252218619Y-99856642D02*
X252171000Y-99809023D01*
X252123380Y-99713785D01*
X252123380Y-99475690D01*
X252171000Y-99380452D01*
X252218619Y-99332833D01*
X252313857Y-99285214D01*
X252409095Y-99285214D01*
X252551952Y-99332833D01*
X253123380Y-99904261D01*
X253123380Y-99285214D01*
%TO.C,R49*%
X257500380Y-93098857D02*
X257024190Y-93432190D01*
X257500380Y-93670285D02*
X256500380Y-93670285D01*
X256500380Y-93289333D01*
X256548000Y-93194095D01*
X256595619Y-93146476D01*
X256690857Y-93098857D01*
X256833714Y-93098857D01*
X256928952Y-93146476D01*
X256976571Y-93194095D01*
X257024190Y-93289333D01*
X257024190Y-93670285D01*
X256833714Y-92241714D02*
X257500380Y-92241714D01*
X256452761Y-92479809D02*
X257167047Y-92717904D01*
X257167047Y-92098857D01*
X257500380Y-91670285D02*
X257500380Y-91479809D01*
X257452761Y-91384571D01*
X257405142Y-91336952D01*
X257262285Y-91241714D01*
X257071809Y-91194095D01*
X256690857Y-91194095D01*
X256595619Y-91241714D01*
X256548000Y-91289333D01*
X256500380Y-91384571D01*
X256500380Y-91575047D01*
X256548000Y-91670285D01*
X256595619Y-91717904D01*
X256690857Y-91765523D01*
X256928952Y-91765523D01*
X257024190Y-91717904D01*
X257071809Y-91670285D01*
X257119428Y-91575047D01*
X257119428Y-91384571D01*
X257071809Y-91289333D01*
X257024190Y-91241714D01*
X256928952Y-91194095D01*
%TO.C,R48*%
X259072142Y-93670380D02*
X258738809Y-93194190D01*
X258500714Y-93670380D02*
X258500714Y-92670380D01*
X258881666Y-92670380D01*
X258976904Y-92718000D01*
X259024523Y-92765619D01*
X259072142Y-92860857D01*
X259072142Y-93003714D01*
X259024523Y-93098952D01*
X258976904Y-93146571D01*
X258881666Y-93194190D01*
X258500714Y-93194190D01*
X259929285Y-93003714D02*
X259929285Y-93670380D01*
X259691190Y-92622761D02*
X259453095Y-93337047D01*
X260072142Y-93337047D01*
X260595952Y-93098952D02*
X260500714Y-93051333D01*
X260453095Y-93003714D01*
X260405476Y-92908476D01*
X260405476Y-92860857D01*
X260453095Y-92765619D01*
X260500714Y-92718000D01*
X260595952Y-92670380D01*
X260786428Y-92670380D01*
X260881666Y-92718000D01*
X260929285Y-92765619D01*
X260976904Y-92860857D01*
X260976904Y-92908476D01*
X260929285Y-93003714D01*
X260881666Y-93051333D01*
X260786428Y-93098952D01*
X260595952Y-93098952D01*
X260500714Y-93146571D01*
X260453095Y-93194190D01*
X260405476Y-93289428D01*
X260405476Y-93479904D01*
X260453095Y-93575142D01*
X260500714Y-93622761D01*
X260595952Y-93670380D01*
X260786428Y-93670380D01*
X260881666Y-93622761D01*
X260929285Y-93575142D01*
X260976904Y-93479904D01*
X260976904Y-93289428D01*
X260929285Y-93194190D01*
X260881666Y-93146571D01*
X260786428Y-93098952D01*
%TO.C,R47*%
X257421142Y-87193380D02*
X257087809Y-86717190D01*
X256849714Y-87193380D02*
X256849714Y-86193380D01*
X257230666Y-86193380D01*
X257325904Y-86241000D01*
X257373523Y-86288619D01*
X257421142Y-86383857D01*
X257421142Y-86526714D01*
X257373523Y-86621952D01*
X257325904Y-86669571D01*
X257230666Y-86717190D01*
X256849714Y-86717190D01*
X258278285Y-86526714D02*
X258278285Y-87193380D01*
X258040190Y-86145761D02*
X257802095Y-86860047D01*
X258421142Y-86860047D01*
X258706857Y-86193380D02*
X259373523Y-86193380D01*
X258944952Y-87193380D01*
%TO.C,R18*%
X250618880Y-94876857D02*
X250142690Y-95210190D01*
X250618880Y-95448285D02*
X249618880Y-95448285D01*
X249618880Y-95067333D01*
X249666500Y-94972095D01*
X249714119Y-94924476D01*
X249809357Y-94876857D01*
X249952214Y-94876857D01*
X250047452Y-94924476D01*
X250095071Y-94972095D01*
X250142690Y-95067333D01*
X250142690Y-95448285D01*
X250618880Y-93924476D02*
X250618880Y-94495904D01*
X250618880Y-94210190D02*
X249618880Y-94210190D01*
X249761738Y-94305428D01*
X249856976Y-94400666D01*
X249904595Y-94495904D01*
X250047452Y-93353047D02*
X249999833Y-93448285D01*
X249952214Y-93495904D01*
X249856976Y-93543523D01*
X249809357Y-93543523D01*
X249714119Y-93495904D01*
X249666500Y-93448285D01*
X249618880Y-93353047D01*
X249618880Y-93162571D01*
X249666500Y-93067333D01*
X249714119Y-93019714D01*
X249809357Y-92972095D01*
X249856976Y-92972095D01*
X249952214Y-93019714D01*
X249999833Y-93067333D01*
X250047452Y-93162571D01*
X250047452Y-93353047D01*
X250095071Y-93448285D01*
X250142690Y-93495904D01*
X250237928Y-93543523D01*
X250428404Y-93543523D01*
X250523642Y-93495904D01*
X250571261Y-93448285D01*
X250618880Y-93353047D01*
X250618880Y-93162571D01*
X250571261Y-93067333D01*
X250523642Y-93019714D01*
X250428404Y-92972095D01*
X250237928Y-92972095D01*
X250142690Y-93019714D01*
X250095071Y-93067333D01*
X250047452Y-93162571D01*
%TO.C,R17*%
X252421142Y-92019380D02*
X252087809Y-91543190D01*
X251849714Y-92019380D02*
X251849714Y-91019380D01*
X252230666Y-91019380D01*
X252325904Y-91067000D01*
X252373523Y-91114619D01*
X252421142Y-91209857D01*
X252421142Y-91352714D01*
X252373523Y-91447952D01*
X252325904Y-91495571D01*
X252230666Y-91543190D01*
X251849714Y-91543190D01*
X253373523Y-92019380D02*
X252802095Y-92019380D01*
X253087809Y-92019380D02*
X253087809Y-91019380D01*
X252992571Y-91162238D01*
X252897333Y-91257476D01*
X252802095Y-91305095D01*
X253706857Y-91019380D02*
X254373523Y-91019380D01*
X253944952Y-92019380D01*
%TO.C,R16*%
X253277142Y-87320380D02*
X252943809Y-86844190D01*
X252705714Y-87320380D02*
X252705714Y-86320380D01*
X253086666Y-86320380D01*
X253181904Y-86368000D01*
X253229523Y-86415619D01*
X253277142Y-86510857D01*
X253277142Y-86653714D01*
X253229523Y-86748952D01*
X253181904Y-86796571D01*
X253086666Y-86844190D01*
X252705714Y-86844190D01*
X254229523Y-87320380D02*
X253658095Y-87320380D01*
X253943809Y-87320380D02*
X253943809Y-86320380D01*
X253848571Y-86463238D01*
X253753333Y-86558476D01*
X253658095Y-86606095D01*
X255086666Y-86320380D02*
X254896190Y-86320380D01*
X254800952Y-86368000D01*
X254753333Y-86415619D01*
X254658095Y-86558476D01*
X254610476Y-86748952D01*
X254610476Y-87129904D01*
X254658095Y-87225142D01*
X254705714Y-87272761D01*
X254800952Y-87320380D01*
X254991428Y-87320380D01*
X255086666Y-87272761D01*
X255134285Y-87225142D01*
X255181904Y-87129904D01*
X255181904Y-86891809D01*
X255134285Y-86796571D01*
X255086666Y-86748952D01*
X254991428Y-86701333D01*
X254800952Y-86701333D01*
X254705714Y-86748952D01*
X254658095Y-86796571D01*
X254610476Y-86891809D01*
%TO.C,D1*%
D17*
X248789619Y-91636923D02*
X248789619Y-90996923D01*
X248942000Y-90996923D01*
X249033428Y-91027400D01*
X249094380Y-91088352D01*
X249124857Y-91149304D01*
X249155333Y-91271209D01*
X249155333Y-91362638D01*
X249124857Y-91484542D01*
X249094380Y-91545495D01*
X249033428Y-91606447D01*
X248942000Y-91636923D01*
X248789619Y-91636923D01*
X249764857Y-91636923D02*
X249399142Y-91636923D01*
X249582000Y-91636923D02*
X249582000Y-90996923D01*
X249521047Y-91088352D01*
X249460095Y-91149304D01*
X249399142Y-91179780D01*
%TO.C,D2*%
X261870619Y-91636923D02*
X261870619Y-90996923D01*
X262023000Y-90996923D01*
X262114428Y-91027400D01*
X262175380Y-91088352D01*
X262205857Y-91149304D01*
X262236333Y-91271209D01*
X262236333Y-91362638D01*
X262205857Y-91484542D01*
X262175380Y-91545495D01*
X262114428Y-91606447D01*
X262023000Y-91636923D01*
X261870619Y-91636923D01*
X262480142Y-91057876D02*
X262510619Y-91027400D01*
X262571571Y-90996923D01*
X262723952Y-90996923D01*
X262784904Y-91027400D01*
X262815380Y-91057876D01*
X262845857Y-91118828D01*
X262845857Y-91179780D01*
X262815380Y-91271209D01*
X262449666Y-91636923D01*
X262845857Y-91636923D01*
%TO.C,J1*%
X271755666Y-71611380D02*
X271755666Y-72325666D01*
X271708047Y-72468523D01*
X271612809Y-72563761D01*
X271469952Y-72611380D01*
X271374714Y-72611380D01*
X272755666Y-72611380D02*
X272184238Y-72611380D01*
X272469952Y-72611380D02*
X272469952Y-71611380D01*
X272374714Y-71754238D01*
X272279476Y-71849476D01*
X272184238Y-71897095D01*
%TO.C,J2*%
X271755666Y-85835380D02*
X271755666Y-86549666D01*
X271708047Y-86692523D01*
X271612809Y-86787761D01*
X271469952Y-86835380D01*
X271374714Y-86835380D01*
X272184238Y-85930619D02*
X272231857Y-85883000D01*
X272327095Y-85835380D01*
X272565190Y-85835380D01*
X272660428Y-85883000D01*
X272708047Y-85930619D01*
X272755666Y-86025857D01*
X272755666Y-86121095D01*
X272708047Y-86263952D01*
X272136619Y-86835380D01*
X272755666Y-86835380D01*
%TO.C,J3*%
X271755666Y-43163380D02*
X271755666Y-43877666D01*
X271708047Y-44020523D01*
X271612809Y-44115761D01*
X271469952Y-44163380D01*
X271374714Y-44163380D01*
X272136619Y-43163380D02*
X272755666Y-43163380D01*
X272422333Y-43544333D01*
X272565190Y-43544333D01*
X272660428Y-43591952D01*
X272708047Y-43639571D01*
X272755666Y-43734809D01*
X272755666Y-43972904D01*
X272708047Y-44068142D01*
X272660428Y-44115761D01*
X272565190Y-44163380D01*
X272279476Y-44163380D01*
X272184238Y-44115761D01*
X272136619Y-44068142D01*
%TO.C,J4*%
X271755666Y-57387380D02*
X271755666Y-58101666D01*
X271708047Y-58244523D01*
X271612809Y-58339761D01*
X271469952Y-58387380D01*
X271374714Y-58387380D01*
X272660428Y-57720714D02*
X272660428Y-58387380D01*
X272422333Y-57339761D02*
X272184238Y-58054047D01*
X272803285Y-58054047D01*
%TO.C,J5*%
X251435666Y-71611380D02*
X251435666Y-72325666D01*
X251388047Y-72468523D01*
X251292809Y-72563761D01*
X251149952Y-72611380D01*
X251054714Y-72611380D01*
X252388047Y-71611380D02*
X251911857Y-71611380D01*
X251864238Y-72087571D01*
X251911857Y-72039952D01*
X252007095Y-71992333D01*
X252245190Y-71992333D01*
X252340428Y-72039952D01*
X252388047Y-72087571D01*
X252435666Y-72182809D01*
X252435666Y-72420904D01*
X252388047Y-72516142D01*
X252340428Y-72563761D01*
X252245190Y-72611380D01*
X252007095Y-72611380D01*
X251911857Y-72563761D01*
X251864238Y-72516142D01*
%TO.C,J6*%
X241275666Y-71611380D02*
X241275666Y-72325666D01*
X241228047Y-72468523D01*
X241132809Y-72563761D01*
X240989952Y-72611380D01*
X240894714Y-72611380D01*
X242180428Y-71611380D02*
X241989952Y-71611380D01*
X241894714Y-71659000D01*
X241847095Y-71706619D01*
X241751857Y-71849476D01*
X241704238Y-72039952D01*
X241704238Y-72420904D01*
X241751857Y-72516142D01*
X241799476Y-72563761D01*
X241894714Y-72611380D01*
X242085190Y-72611380D01*
X242180428Y-72563761D01*
X242228047Y-72516142D01*
X242275666Y-72420904D01*
X242275666Y-72182809D01*
X242228047Y-72087571D01*
X242180428Y-72039952D01*
X242085190Y-71992333D01*
X241894714Y-71992333D01*
X241799476Y-72039952D01*
X241751857Y-72087571D01*
X241704238Y-72182809D01*
%TO.C,J7*%
X261595666Y-71611380D02*
X261595666Y-72325666D01*
X261548047Y-72468523D01*
X261452809Y-72563761D01*
X261309952Y-72611380D01*
X261214714Y-72611380D01*
X261976619Y-71611380D02*
X262643285Y-71611380D01*
X262214714Y-72611380D01*
%TO.C,J9*%
X251435666Y-85835380D02*
X251435666Y-86549666D01*
X251388047Y-86692523D01*
X251292809Y-86787761D01*
X251149952Y-86835380D01*
X251054714Y-86835380D01*
X251959476Y-86835380D02*
X252149952Y-86835380D01*
X252245190Y-86787761D01*
X252292809Y-86740142D01*
X252388047Y-86597285D01*
X252435666Y-86406809D01*
X252435666Y-86025857D01*
X252388047Y-85930619D01*
X252340428Y-85883000D01*
X252245190Y-85835380D01*
X252054714Y-85835380D01*
X251959476Y-85883000D01*
X251911857Y-85930619D01*
X251864238Y-86025857D01*
X251864238Y-86263952D01*
X251911857Y-86359190D01*
X251959476Y-86406809D01*
X252054714Y-86454428D01*
X252245190Y-86454428D01*
X252340428Y-86406809D01*
X252388047Y-86359190D01*
X252435666Y-86263952D01*
%TO.C,J10*%
X240799476Y-85835380D02*
X240799476Y-86549666D01*
X240751857Y-86692523D01*
X240656619Y-86787761D01*
X240513761Y-86835380D01*
X240418523Y-86835380D01*
X241799476Y-86835380D02*
X241228047Y-86835380D01*
X241513761Y-86835380D02*
X241513761Y-85835380D01*
X241418523Y-85978238D01*
X241323285Y-86073476D01*
X241228047Y-86121095D01*
X242418523Y-85835380D02*
X242513761Y-85835380D01*
X242609000Y-85883000D01*
X242656619Y-85930619D01*
X242704238Y-86025857D01*
X242751857Y-86216333D01*
X242751857Y-86454428D01*
X242704238Y-86644904D01*
X242656619Y-86740142D01*
X242609000Y-86787761D01*
X242513761Y-86835380D01*
X242418523Y-86835380D01*
X242323285Y-86787761D01*
X242275666Y-86740142D01*
X242228047Y-86644904D01*
X242180428Y-86454428D01*
X242180428Y-86216333D01*
X242228047Y-86025857D01*
X242275666Y-85930619D01*
X242323285Y-85883000D01*
X242418523Y-85835380D01*
%TO.C,J11*%
X261119476Y-85835380D02*
X261119476Y-86549666D01*
X261071857Y-86692523D01*
X260976619Y-86787761D01*
X260833761Y-86835380D01*
X260738523Y-86835380D01*
X262119476Y-86835380D02*
X261548047Y-86835380D01*
X261833761Y-86835380D02*
X261833761Y-85835380D01*
X261738523Y-85978238D01*
X261643285Y-86073476D01*
X261548047Y-86121095D01*
X263071857Y-86835380D02*
X262500428Y-86835380D01*
X262786142Y-86835380D02*
X262786142Y-85835380D01*
X262690904Y-85978238D01*
X262595666Y-86073476D01*
X262500428Y-86121095D01*
%TO.C,J12*%
X250959476Y-43163380D02*
X250959476Y-43877666D01*
X250911857Y-44020523D01*
X250816619Y-44115761D01*
X250673761Y-44163380D01*
X250578523Y-44163380D01*
X251959476Y-44163380D02*
X251388047Y-44163380D01*
X251673761Y-44163380D02*
X251673761Y-43163380D01*
X251578523Y-43306238D01*
X251483285Y-43401476D01*
X251388047Y-43449095D01*
X252340428Y-43258619D02*
X252388047Y-43211000D01*
X252483285Y-43163380D01*
X252721380Y-43163380D01*
X252816619Y-43211000D01*
X252864238Y-43258619D01*
X252911857Y-43353857D01*
X252911857Y-43449095D01*
X252864238Y-43591952D01*
X252292809Y-44163380D01*
X252911857Y-44163380D01*
%TO.C,J13*%
X240799476Y-43163380D02*
X240799476Y-43877666D01*
X240751857Y-44020523D01*
X240656619Y-44115761D01*
X240513761Y-44163380D01*
X240418523Y-44163380D01*
X241799476Y-44163380D02*
X241228047Y-44163380D01*
X241513761Y-44163380D02*
X241513761Y-43163380D01*
X241418523Y-43306238D01*
X241323285Y-43401476D01*
X241228047Y-43449095D01*
X242132809Y-43163380D02*
X242751857Y-43163380D01*
X242418523Y-43544333D01*
X242561380Y-43544333D01*
X242656619Y-43591952D01*
X242704238Y-43639571D01*
X242751857Y-43734809D01*
X242751857Y-43972904D01*
X242704238Y-44068142D01*
X242656619Y-44115761D01*
X242561380Y-44163380D01*
X242275666Y-44163380D01*
X242180428Y-44115761D01*
X242132809Y-44068142D01*
%TO.C,J14*%
X261119476Y-43163380D02*
X261119476Y-43877666D01*
X261071857Y-44020523D01*
X260976619Y-44115761D01*
X260833761Y-44163380D01*
X260738523Y-44163380D01*
X262119476Y-44163380D02*
X261548047Y-44163380D01*
X261833761Y-44163380D02*
X261833761Y-43163380D01*
X261738523Y-43306238D01*
X261643285Y-43401476D01*
X261548047Y-43449095D01*
X262976619Y-43496714D02*
X262976619Y-44163380D01*
X262738523Y-43115761D02*
X262500428Y-43830047D01*
X263119476Y-43830047D01*
%TO.C,J15*%
X250959476Y-57387380D02*
X250959476Y-58101666D01*
X250911857Y-58244523D01*
X250816619Y-58339761D01*
X250673761Y-58387380D01*
X250578523Y-58387380D01*
X251959476Y-58387380D02*
X251388047Y-58387380D01*
X251673761Y-58387380D02*
X251673761Y-57387380D01*
X251578523Y-57530238D01*
X251483285Y-57625476D01*
X251388047Y-57673095D01*
X252864238Y-57387380D02*
X252388047Y-57387380D01*
X252340428Y-57863571D01*
X252388047Y-57815952D01*
X252483285Y-57768333D01*
X252721380Y-57768333D01*
X252816619Y-57815952D01*
X252864238Y-57863571D01*
X252911857Y-57958809D01*
X252911857Y-58196904D01*
X252864238Y-58292142D01*
X252816619Y-58339761D01*
X252721380Y-58387380D01*
X252483285Y-58387380D01*
X252388047Y-58339761D01*
X252340428Y-58292142D01*
%TO.C,J16*%
X240799476Y-57387380D02*
X240799476Y-58101666D01*
X240751857Y-58244523D01*
X240656619Y-58339761D01*
X240513761Y-58387380D01*
X240418523Y-58387380D01*
X241799476Y-58387380D02*
X241228047Y-58387380D01*
X241513761Y-58387380D02*
X241513761Y-57387380D01*
X241418523Y-57530238D01*
X241323285Y-57625476D01*
X241228047Y-57673095D01*
X242656619Y-57387380D02*
X242466142Y-57387380D01*
X242370904Y-57435000D01*
X242323285Y-57482619D01*
X242228047Y-57625476D01*
X242180428Y-57815952D01*
X242180428Y-58196904D01*
X242228047Y-58292142D01*
X242275666Y-58339761D01*
X242370904Y-58387380D01*
X242561380Y-58387380D01*
X242656619Y-58339761D01*
X242704238Y-58292142D01*
X242751857Y-58196904D01*
X242751857Y-57958809D01*
X242704238Y-57863571D01*
X242656619Y-57815952D01*
X242561380Y-57768333D01*
X242370904Y-57768333D01*
X242275666Y-57815952D01*
X242228047Y-57863571D01*
X242180428Y-57958809D01*
%TO.C,J17*%
X261119476Y-57387380D02*
X261119476Y-58101666D01*
X261071857Y-58244523D01*
X260976619Y-58339761D01*
X260833761Y-58387380D01*
X260738523Y-58387380D01*
X262119476Y-58387380D02*
X261548047Y-58387380D01*
X261833761Y-58387380D02*
X261833761Y-57387380D01*
X261738523Y-57530238D01*
X261643285Y-57625476D01*
X261548047Y-57673095D01*
X262452809Y-57387380D02*
X263119476Y-57387380D01*
X262690904Y-58387380D01*
%TO.C,RV1*%
D15*
X253083980Y-119439238D02*
X252607790Y-119772571D01*
X253083980Y-120010666D02*
X252083980Y-120010666D01*
X252083980Y-119629714D01*
X252131600Y-119534476D01*
X252179219Y-119486857D01*
X252274457Y-119439238D01*
X252417314Y-119439238D01*
X252512552Y-119486857D01*
X252560171Y-119534476D01*
X252607790Y-119629714D01*
X252607790Y-120010666D01*
X252083980Y-119153523D02*
X253083980Y-118820190D01*
X252083980Y-118486857D01*
X253083980Y-117629714D02*
X253083980Y-118201142D01*
X253083980Y-117915428D02*
X252083980Y-117915428D01*
X252226838Y-118010666D01*
X252322076Y-118105904D01*
X252369695Y-118201142D01*
%TO.C,SW1*%
X242203666Y-87185761D02*
X242346523Y-87233380D01*
X242584619Y-87233380D01*
X242679857Y-87185761D01*
X242727476Y-87138142D01*
X242775095Y-87042904D01*
X242775095Y-86947666D01*
X242727476Y-86852428D01*
X242679857Y-86804809D01*
X242584619Y-86757190D01*
X242394142Y-86709571D01*
X242298904Y-86661952D01*
X242251285Y-86614333D01*
X242203666Y-86519095D01*
X242203666Y-86423857D01*
X242251285Y-86328619D01*
X242298904Y-86281000D01*
X242394142Y-86233380D01*
X242632238Y-86233380D01*
X242775095Y-86281000D01*
X243108428Y-86233380D02*
X243346523Y-87233380D01*
X243537000Y-86519095D01*
X243727476Y-87233380D01*
X243965571Y-86233380D01*
X244870333Y-87233380D02*
X244298904Y-87233380D01*
X244584619Y-87233380D02*
X244584619Y-86233380D01*
X244489380Y-86376238D01*
X244394142Y-86471476D01*
X244298904Y-86519095D01*
%TO.C,RV5*%
X272935380Y-101405238D02*
X272459190Y-101738571D01*
X272935380Y-101976666D02*
X271935380Y-101976666D01*
X271935380Y-101595714D01*
X271983000Y-101500476D01*
X272030619Y-101452857D01*
X272125857Y-101405238D01*
X272268714Y-101405238D01*
X272363952Y-101452857D01*
X272411571Y-101500476D01*
X272459190Y-101595714D01*
X272459190Y-101976666D01*
X271935380Y-101119523D02*
X272935380Y-100786190D01*
X271935380Y-100452857D01*
X271935380Y-99643333D02*
X271935380Y-100119523D01*
X272411571Y-100167142D01*
X272363952Y-100119523D01*
X272316333Y-100024285D01*
X272316333Y-99786190D01*
X272363952Y-99690952D01*
X272411571Y-99643333D01*
X272506809Y-99595714D01*
X272744904Y-99595714D01*
X272840142Y-99643333D01*
X272887761Y-99690952D01*
X272935380Y-99786190D01*
X272935380Y-100024285D01*
X272887761Y-100119523D01*
X272840142Y-100167142D01*
%TO.C,RV4*%
X272869380Y-119439238D02*
X272393190Y-119772571D01*
X272869380Y-120010666D02*
X271869380Y-120010666D01*
X271869380Y-119629714D01*
X271917000Y-119534476D01*
X271964619Y-119486857D01*
X272059857Y-119439238D01*
X272202714Y-119439238D01*
X272297952Y-119486857D01*
X272345571Y-119534476D01*
X272393190Y-119629714D01*
X272393190Y-120010666D01*
X271869380Y-119153523D02*
X272869380Y-118820190D01*
X271869380Y-118486857D01*
X272202714Y-117724952D02*
X272869380Y-117724952D01*
X271821761Y-117963047D02*
X272536047Y-118201142D01*
X272536047Y-117582095D01*
%TO.C,U2*%
X192570195Y-103925780D02*
X192570195Y-104735304D01*
X192617814Y-104830542D01*
X192665433Y-104878161D01*
X192760671Y-104925780D01*
X192951147Y-104925780D01*
X193046385Y-104878161D01*
X193094004Y-104830542D01*
X193141623Y-104735304D01*
X193141623Y-103925780D01*
X193570195Y-104021019D02*
X193617814Y-103973400D01*
X193713052Y-103925780D01*
X193951147Y-103925780D01*
X194046385Y-103973400D01*
X194094004Y-104021019D01*
X194141623Y-104116257D01*
X194141623Y-104211495D01*
X194094004Y-104354352D01*
X193522576Y-104925780D01*
X194141623Y-104925780D01*
%TO.C,C2*%
X188936333Y-104433642D02*
X188888714Y-104481261D01*
X188745857Y-104528880D01*
X188650619Y-104528880D01*
X188507761Y-104481261D01*
X188412523Y-104386023D01*
X188364904Y-104290785D01*
X188317285Y-104100309D01*
X188317285Y-103957452D01*
X188364904Y-103766976D01*
X188412523Y-103671738D01*
X188507761Y-103576500D01*
X188650619Y-103528880D01*
X188745857Y-103528880D01*
X188888714Y-103576500D01*
X188936333Y-103624119D01*
X189317285Y-103624119D02*
X189364904Y-103576500D01*
X189460142Y-103528880D01*
X189698238Y-103528880D01*
X189793476Y-103576500D01*
X189841095Y-103624119D01*
X189888714Y-103719357D01*
X189888714Y-103814595D01*
X189841095Y-103957452D01*
X189269666Y-104528880D01*
X189888714Y-104528880D01*
%TO.C,R5*%
X181697333Y-106179880D02*
X181364000Y-105703690D01*
X181125904Y-106179880D02*
X181125904Y-105179880D01*
X181506857Y-105179880D01*
X181602095Y-105227500D01*
X181649714Y-105275119D01*
X181697333Y-105370357D01*
X181697333Y-105513214D01*
X181649714Y-105608452D01*
X181602095Y-105656071D01*
X181506857Y-105703690D01*
X181125904Y-105703690D01*
X182602095Y-105179880D02*
X182125904Y-105179880D01*
X182078285Y-105656071D01*
X182125904Y-105608452D01*
X182221142Y-105560833D01*
X182459238Y-105560833D01*
X182554476Y-105608452D01*
X182602095Y-105656071D01*
X182649714Y-105751309D01*
X182649714Y-105989404D01*
X182602095Y-106084642D01*
X182554476Y-106132261D01*
X182459238Y-106179880D01*
X182221142Y-106179880D01*
X182125904Y-106132261D01*
X182078285Y-106084642D01*
%TO.C,R6*%
X184618333Y-109608880D02*
X184285000Y-109132690D01*
X184046904Y-109608880D02*
X184046904Y-108608880D01*
X184427857Y-108608880D01*
X184523095Y-108656500D01*
X184570714Y-108704119D01*
X184618333Y-108799357D01*
X184618333Y-108942214D01*
X184570714Y-109037452D01*
X184523095Y-109085071D01*
X184427857Y-109132690D01*
X184046904Y-109132690D01*
X185475476Y-108608880D02*
X185285000Y-108608880D01*
X185189761Y-108656500D01*
X185142142Y-108704119D01*
X185046904Y-108846976D01*
X184999285Y-109037452D01*
X184999285Y-109418404D01*
X185046904Y-109513642D01*
X185094523Y-109561261D01*
X185189761Y-109608880D01*
X185380238Y-109608880D01*
X185475476Y-109561261D01*
X185523095Y-109513642D01*
X185570714Y-109418404D01*
X185570714Y-109180309D01*
X185523095Y-109085071D01*
X185475476Y-109037452D01*
X185380238Y-108989833D01*
X185189761Y-108989833D01*
X185094523Y-109037452D01*
X185046904Y-109085071D01*
X184999285Y-109180309D01*
%TO.C,R15*%
X208399142Y-71000880D02*
X208065809Y-70524690D01*
X207827714Y-71000880D02*
X207827714Y-70000880D01*
X208208666Y-70000880D01*
X208303904Y-70048500D01*
X208351523Y-70096119D01*
X208399142Y-70191357D01*
X208399142Y-70334214D01*
X208351523Y-70429452D01*
X208303904Y-70477071D01*
X208208666Y-70524690D01*
X207827714Y-70524690D01*
X209351523Y-71000880D02*
X208780095Y-71000880D01*
X209065809Y-71000880D02*
X209065809Y-70000880D01*
X208970571Y-70143738D01*
X208875333Y-70238976D01*
X208780095Y-70286595D01*
X210256285Y-70000880D02*
X209780095Y-70000880D01*
X209732476Y-70477071D01*
X209780095Y-70429452D01*
X209875333Y-70381833D01*
X210113428Y-70381833D01*
X210208666Y-70429452D01*
X210256285Y-70477071D01*
X210303904Y-70572309D01*
X210303904Y-70810404D01*
X210256285Y-70905642D01*
X210208666Y-70953261D01*
X210113428Y-71000880D01*
X209875333Y-71000880D01*
X209780095Y-70953261D01*
X209732476Y-70905642D01*
%TO.C,R7*%
X185364380Y-124015166D02*
X184888190Y-124348500D01*
X185364380Y-124586595D02*
X184364380Y-124586595D01*
X184364380Y-124205642D01*
X184412000Y-124110404D01*
X184459619Y-124062785D01*
X184554857Y-124015166D01*
X184697714Y-124015166D01*
X184792952Y-124062785D01*
X184840571Y-124110404D01*
X184888190Y-124205642D01*
X184888190Y-124586595D01*
X184364380Y-123681833D02*
X184364380Y-123015166D01*
X185364380Y-123443738D01*
%TO.C,R4*%
X177287180Y-122952166D02*
X176810990Y-123285500D01*
X177287180Y-123523595D02*
X176287180Y-123523595D01*
X176287180Y-123142642D01*
X176334800Y-123047404D01*
X176382419Y-122999785D01*
X176477657Y-122952166D01*
X176620514Y-122952166D01*
X176715752Y-122999785D01*
X176763371Y-123047404D01*
X176810990Y-123142642D01*
X176810990Y-123523595D01*
X176620514Y-122095023D02*
X177287180Y-122095023D01*
X176239561Y-122333119D02*
X176953847Y-122571214D01*
X176953847Y-121952166D01*
%TO.C,R3*%
X206970333Y-72397880D02*
X206637000Y-71921690D01*
X206398904Y-72397880D02*
X206398904Y-71397880D01*
X206779857Y-71397880D01*
X206875095Y-71445500D01*
X206922714Y-71493119D01*
X206970333Y-71588357D01*
X206970333Y-71731214D01*
X206922714Y-71826452D01*
X206875095Y-71874071D01*
X206779857Y-71921690D01*
X206398904Y-71921690D01*
X207303666Y-71397880D02*
X207922714Y-71397880D01*
X207589380Y-71778833D01*
X207732238Y-71778833D01*
X207827476Y-71826452D01*
X207875095Y-71874071D01*
X207922714Y-71969309D01*
X207922714Y-72207404D01*
X207875095Y-72302642D01*
X207827476Y-72350261D01*
X207732238Y-72397880D01*
X207446523Y-72397880D01*
X207351285Y-72350261D01*
X207303666Y-72302642D01*
%TO.C,R1*%
X179117333Y-127104380D02*
X178784000Y-126628190D01*
X178545904Y-127104380D02*
X178545904Y-126104380D01*
X178926857Y-126104380D01*
X179022095Y-126152000D01*
X179069714Y-126199619D01*
X179117333Y-126294857D01*
X179117333Y-126437714D01*
X179069714Y-126532952D01*
X179022095Y-126580571D01*
X178926857Y-126628190D01*
X178545904Y-126628190D01*
X180069714Y-127104380D02*
X179498285Y-127104380D01*
X179784000Y-127104380D02*
X179784000Y-126104380D01*
X179688761Y-126247238D01*
X179593523Y-126342476D01*
X179498285Y-126390095D01*
%TO.C,Q6*%
X201707761Y-130254619D02*
X201612523Y-130207000D01*
X201517285Y-130111761D01*
X201374428Y-129968904D01*
X201279190Y-129921285D01*
X201183952Y-129921285D01*
X201231571Y-130159380D02*
X201136333Y-130111761D01*
X201041095Y-130016523D01*
X200993476Y-129826047D01*
X200993476Y-129492714D01*
X201041095Y-129302238D01*
X201136333Y-129207000D01*
X201231571Y-129159380D01*
X201422047Y-129159380D01*
X201517285Y-129207000D01*
X201612523Y-129302238D01*
X201660142Y-129492714D01*
X201660142Y-129826047D01*
X201612523Y-130016523D01*
X201517285Y-130111761D01*
X201422047Y-130159380D01*
X201231571Y-130159380D01*
X202517285Y-129159380D02*
X202326809Y-129159380D01*
X202231571Y-129207000D01*
X202183952Y-129254619D01*
X202088714Y-129397476D01*
X202041095Y-129587952D01*
X202041095Y-129968904D01*
X202088714Y-130064142D01*
X202136333Y-130111761D01*
X202231571Y-130159380D01*
X202422047Y-130159380D01*
X202517285Y-130111761D01*
X202564904Y-130064142D01*
X202612523Y-129968904D01*
X202612523Y-129730809D01*
X202564904Y-129635571D01*
X202517285Y-129587952D01*
X202422047Y-129540333D01*
X202231571Y-129540333D01*
X202136333Y-129587952D01*
X202088714Y-129635571D01*
X202041095Y-129730809D01*
%TO.C,Q5*%
X191182761Y-130254619D02*
X191087523Y-130207000D01*
X190992285Y-130111761D01*
X190849428Y-129968904D01*
X190754190Y-129921285D01*
X190658952Y-129921285D01*
X190706571Y-130159380D02*
X190611333Y-130111761D01*
X190516095Y-130016523D01*
X190468476Y-129826047D01*
X190468476Y-129492714D01*
X190516095Y-129302238D01*
X190611333Y-129207000D01*
X190706571Y-129159380D01*
X190897047Y-129159380D01*
X190992285Y-129207000D01*
X191087523Y-129302238D01*
X191135142Y-129492714D01*
X191135142Y-129826047D01*
X191087523Y-130016523D01*
X190992285Y-130111761D01*
X190897047Y-130159380D01*
X190706571Y-130159380D01*
X192039904Y-129159380D02*
X191563714Y-129159380D01*
X191516095Y-129635571D01*
X191563714Y-129587952D01*
X191658952Y-129540333D01*
X191897047Y-129540333D01*
X191992285Y-129587952D01*
X192039904Y-129635571D01*
X192087523Y-129730809D01*
X192087523Y-129968904D01*
X192039904Y-130064142D01*
X191992285Y-130111761D01*
X191897047Y-130159380D01*
X191658952Y-130159380D01*
X191563714Y-130111761D01*
X191516095Y-130064142D01*
%TO.C,Q4*%
X180641761Y-130254619D02*
X180546523Y-130207000D01*
X180451285Y-130111761D01*
X180308428Y-129968904D01*
X180213190Y-129921285D01*
X180117952Y-129921285D01*
X180165571Y-130159380D02*
X180070333Y-130111761D01*
X179975095Y-130016523D01*
X179927476Y-129826047D01*
X179927476Y-129492714D01*
X179975095Y-129302238D01*
X180070333Y-129207000D01*
X180165571Y-129159380D01*
X180356047Y-129159380D01*
X180451285Y-129207000D01*
X180546523Y-129302238D01*
X180594142Y-129492714D01*
X180594142Y-129826047D01*
X180546523Y-130016523D01*
X180451285Y-130111761D01*
X180356047Y-130159380D01*
X180165571Y-130159380D01*
X181451285Y-129492714D02*
X181451285Y-130159380D01*
X181213190Y-129111761D02*
X180975095Y-129826047D01*
X181594142Y-129826047D01*
%TO.C,Q3*%
X201707761Y-120729619D02*
X201612523Y-120682000D01*
X201517285Y-120586761D01*
X201374428Y-120443904D01*
X201279190Y-120396285D01*
X201183952Y-120396285D01*
X201231571Y-120634380D02*
X201136333Y-120586761D01*
X201041095Y-120491523D01*
X200993476Y-120301047D01*
X200993476Y-119967714D01*
X201041095Y-119777238D01*
X201136333Y-119682000D01*
X201231571Y-119634380D01*
X201422047Y-119634380D01*
X201517285Y-119682000D01*
X201612523Y-119777238D01*
X201660142Y-119967714D01*
X201660142Y-120301047D01*
X201612523Y-120491523D01*
X201517285Y-120586761D01*
X201422047Y-120634380D01*
X201231571Y-120634380D01*
X201993476Y-119634380D02*
X202612523Y-119634380D01*
X202279190Y-120015333D01*
X202422047Y-120015333D01*
X202517285Y-120062952D01*
X202564904Y-120110571D01*
X202612523Y-120205809D01*
X202612523Y-120443904D01*
X202564904Y-120539142D01*
X202517285Y-120586761D01*
X202422047Y-120634380D01*
X202136333Y-120634380D01*
X202041095Y-120586761D01*
X201993476Y-120539142D01*
%TO.C,Q2*%
X191293761Y-120602619D02*
X191198523Y-120555000D01*
X191103285Y-120459761D01*
X190960428Y-120316904D01*
X190865190Y-120269285D01*
X190769952Y-120269285D01*
X190817571Y-120507380D02*
X190722333Y-120459761D01*
X190627095Y-120364523D01*
X190579476Y-120174047D01*
X190579476Y-119840714D01*
X190627095Y-119650238D01*
X190722333Y-119555000D01*
X190817571Y-119507380D01*
X191008047Y-119507380D01*
X191103285Y-119555000D01*
X191198523Y-119650238D01*
X191246142Y-119840714D01*
X191246142Y-120174047D01*
X191198523Y-120364523D01*
X191103285Y-120459761D01*
X191008047Y-120507380D01*
X190817571Y-120507380D01*
X191627095Y-119602619D02*
X191674714Y-119555000D01*
X191769952Y-119507380D01*
X192008047Y-119507380D01*
X192103285Y-119555000D01*
X192150904Y-119602619D01*
X192198523Y-119697857D01*
X192198523Y-119793095D01*
X192150904Y-119935952D01*
X191579476Y-120507380D01*
X192198523Y-120507380D01*
%TO.C,Q1*%
X180752761Y-120729619D02*
X180657523Y-120682000D01*
X180562285Y-120586761D01*
X180419428Y-120443904D01*
X180324190Y-120396285D01*
X180228952Y-120396285D01*
X180276571Y-120634380D02*
X180181333Y-120586761D01*
X180086095Y-120491523D01*
X180038476Y-120301047D01*
X180038476Y-119967714D01*
X180086095Y-119777238D01*
X180181333Y-119682000D01*
X180276571Y-119634380D01*
X180467047Y-119634380D01*
X180562285Y-119682000D01*
X180657523Y-119777238D01*
X180705142Y-119967714D01*
X180705142Y-120301047D01*
X180657523Y-120491523D01*
X180562285Y-120586761D01*
X180467047Y-120634380D01*
X180276571Y-120634380D01*
X181657523Y-120634380D02*
X181086095Y-120634380D01*
X181371809Y-120634380D02*
X181371809Y-119634380D01*
X181276571Y-119777238D01*
X181181333Y-119872476D01*
X181086095Y-119920095D01*
%TO.C,C10*%
X198350142Y-97226357D02*
X198397761Y-97273976D01*
X198445380Y-97416833D01*
X198445380Y-97512071D01*
X198397761Y-97654928D01*
X198302523Y-97750166D01*
X198207285Y-97797785D01*
X198016809Y-97845404D01*
X197873952Y-97845404D01*
X197683476Y-97797785D01*
X197588238Y-97750166D01*
X197493000Y-97654928D01*
X197445380Y-97512071D01*
X197445380Y-97416833D01*
X197493000Y-97273976D01*
X197540619Y-97226357D01*
X198445380Y-96273976D02*
X198445380Y-96845404D01*
X198445380Y-96559690D02*
X197445380Y-96559690D01*
X197588238Y-96654928D01*
X197683476Y-96750166D01*
X197731095Y-96845404D01*
X197445380Y-95654928D02*
X197445380Y-95559690D01*
X197493000Y-95464452D01*
X197540619Y-95416833D01*
X197635857Y-95369214D01*
X197826333Y-95321595D01*
X198064428Y-95321595D01*
X198254904Y-95369214D01*
X198350142Y-95416833D01*
X198397761Y-95464452D01*
X198445380Y-95559690D01*
X198445380Y-95654928D01*
X198397761Y-95750166D01*
X198350142Y-95797785D01*
X198254904Y-95845404D01*
X198064428Y-95893023D01*
X197826333Y-95893023D01*
X197635857Y-95845404D01*
X197540619Y-95797785D01*
X197493000Y-95750166D01*
X197445380Y-95654928D01*
%TO.C,C9*%
X189079142Y-96178666D02*
X189126761Y-96226285D01*
X189174380Y-96369142D01*
X189174380Y-96464380D01*
X189126761Y-96607238D01*
X189031523Y-96702476D01*
X188936285Y-96750095D01*
X188745809Y-96797714D01*
X188602952Y-96797714D01*
X188412476Y-96750095D01*
X188317238Y-96702476D01*
X188222000Y-96607238D01*
X188174380Y-96464380D01*
X188174380Y-96369142D01*
X188222000Y-96226285D01*
X188269619Y-96178666D01*
X189174380Y-95702476D02*
X189174380Y-95512000D01*
X189126761Y-95416761D01*
X189079142Y-95369142D01*
X188936285Y-95273904D01*
X188745809Y-95226285D01*
X188364857Y-95226285D01*
X188269619Y-95273904D01*
X188222000Y-95321523D01*
X188174380Y-95416761D01*
X188174380Y-95607238D01*
X188222000Y-95702476D01*
X188269619Y-95750095D01*
X188364857Y-95797714D01*
X188602952Y-95797714D01*
X188698190Y-95750095D01*
X188745809Y-95702476D01*
X188793428Y-95607238D01*
X188793428Y-95416761D01*
X188745809Y-95321523D01*
X188698190Y-95273904D01*
X188602952Y-95226285D01*
%TO.C,C8*%
X197445333Y-104179642D02*
X197397714Y-104227261D01*
X197254857Y-104274880D01*
X197159619Y-104274880D01*
X197016761Y-104227261D01*
X196921523Y-104132023D01*
X196873904Y-104036785D01*
X196826285Y-103846309D01*
X196826285Y-103703452D01*
X196873904Y-103512976D01*
X196921523Y-103417738D01*
X197016761Y-103322500D01*
X197159619Y-103274880D01*
X197254857Y-103274880D01*
X197397714Y-103322500D01*
X197445333Y-103370119D01*
X198016761Y-103703452D02*
X197921523Y-103655833D01*
X197873904Y-103608214D01*
X197826285Y-103512976D01*
X197826285Y-103465357D01*
X197873904Y-103370119D01*
X197921523Y-103322500D01*
X198016761Y-103274880D01*
X198207238Y-103274880D01*
X198302476Y-103322500D01*
X198350095Y-103370119D01*
X198397714Y-103465357D01*
X198397714Y-103512976D01*
X198350095Y-103608214D01*
X198302476Y-103655833D01*
X198207238Y-103703452D01*
X198016761Y-103703452D01*
X197921523Y-103751071D01*
X197873904Y-103798690D01*
X197826285Y-103893928D01*
X197826285Y-104084404D01*
X197873904Y-104179642D01*
X197921523Y-104227261D01*
X198016761Y-104274880D01*
X198207238Y-104274880D01*
X198302476Y-104227261D01*
X198350095Y-104179642D01*
X198397714Y-104084404D01*
X198397714Y-103893928D01*
X198350095Y-103798690D01*
X198302476Y-103751071D01*
X198207238Y-103703452D01*
%TO.C,C7*%
X199206142Y-50051166D02*
X199253761Y-50098785D01*
X199301380Y-50241642D01*
X199301380Y-50336880D01*
X199253761Y-50479738D01*
X199158523Y-50574976D01*
X199063285Y-50622595D01*
X198872809Y-50670214D01*
X198729952Y-50670214D01*
X198539476Y-50622595D01*
X198444238Y-50574976D01*
X198349000Y-50479738D01*
X198301380Y-50336880D01*
X198301380Y-50241642D01*
X198349000Y-50098785D01*
X198396619Y-50051166D01*
X198301380Y-49717833D02*
X198301380Y-49051166D01*
X199301380Y-49479738D01*
%TO.C,C6*%
X202996333Y-46491142D02*
X202948714Y-46538761D01*
X202805857Y-46586380D01*
X202710619Y-46586380D01*
X202567761Y-46538761D01*
X202472523Y-46443523D01*
X202424904Y-46348285D01*
X202377285Y-46157809D01*
X202377285Y-46014952D01*
X202424904Y-45824476D01*
X202472523Y-45729238D01*
X202567761Y-45634000D01*
X202710619Y-45586380D01*
X202805857Y-45586380D01*
X202948714Y-45634000D01*
X202996333Y-45681619D01*
X203853476Y-45586380D02*
X203663000Y-45586380D01*
X203567761Y-45634000D01*
X203520142Y-45681619D01*
X203424904Y-45824476D01*
X203377285Y-46014952D01*
X203377285Y-46395904D01*
X203424904Y-46491142D01*
X203472523Y-46538761D01*
X203567761Y-46586380D01*
X203758238Y-46586380D01*
X203853476Y-46538761D01*
X203901095Y-46491142D01*
X203948714Y-46395904D01*
X203948714Y-46157809D01*
X203901095Y-46062571D01*
X203853476Y-46014952D01*
X203758238Y-45967333D01*
X203567761Y-45967333D01*
X203472523Y-46014952D01*
X203424904Y-46062571D01*
X203377285Y-46157809D01*
%TO.C,C5*%
X202906333Y-40235142D02*
X202858714Y-40282761D01*
X202715857Y-40330380D01*
X202620619Y-40330380D01*
X202477761Y-40282761D01*
X202382523Y-40187523D01*
X202334904Y-40092285D01*
X202287285Y-39901809D01*
X202287285Y-39758952D01*
X202334904Y-39568476D01*
X202382523Y-39473238D01*
X202477761Y-39378000D01*
X202620619Y-39330380D01*
X202715857Y-39330380D01*
X202858714Y-39378000D01*
X202906333Y-39425619D01*
X203811095Y-39330380D02*
X203334904Y-39330380D01*
X203287285Y-39806571D01*
X203334904Y-39758952D01*
X203430142Y-39711333D01*
X203668238Y-39711333D01*
X203763476Y-39758952D01*
X203811095Y-39806571D01*
X203858714Y-39901809D01*
X203858714Y-40139904D01*
X203811095Y-40235142D01*
X203763476Y-40282761D01*
X203668238Y-40330380D01*
X203430142Y-40330380D01*
X203334904Y-40282761D01*
X203287285Y-40235142D01*
%TO.C,C1*%
X202652333Y-35917142D02*
X202604714Y-35964761D01*
X202461857Y-36012380D01*
X202366619Y-36012380D01*
X202223761Y-35964761D01*
X202128523Y-35869523D01*
X202080904Y-35774285D01*
X202033285Y-35583809D01*
X202033285Y-35440952D01*
X202080904Y-35250476D01*
X202128523Y-35155238D01*
X202223761Y-35060000D01*
X202366619Y-35012380D01*
X202461857Y-35012380D01*
X202604714Y-35060000D01*
X202652333Y-35107619D01*
X203604714Y-36012380D02*
X203033285Y-36012380D01*
X203319000Y-36012380D02*
X203319000Y-35012380D01*
X203223761Y-35155238D01*
X203128523Y-35250476D01*
X203033285Y-35298095D01*
%TO.C,U4*%
X202438095Y-47077380D02*
X202438095Y-47886904D01*
X202485714Y-47982142D01*
X202533333Y-48029761D01*
X202628571Y-48077380D01*
X202819047Y-48077380D01*
X202914285Y-48029761D01*
X202961904Y-47982142D01*
X203009523Y-47886904D01*
X203009523Y-47077380D01*
X203914285Y-47410714D02*
X203914285Y-48077380D01*
X203676190Y-47029761D02*
X203438095Y-47744047D01*
X204057142Y-47744047D01*
%TO.C,U1*%
X202017380Y-76009404D02*
X202826904Y-76009404D01*
X202922142Y-75961785D01*
X202969761Y-75914166D01*
X203017380Y-75818928D01*
X203017380Y-75628452D01*
X202969761Y-75533214D01*
X202922142Y-75485595D01*
X202826904Y-75437976D01*
X202017380Y-75437976D01*
X203017380Y-74437976D02*
X203017380Y-75009404D01*
X203017380Y-74723690D02*
X202017380Y-74723690D01*
X202160238Y-74818928D01*
X202255476Y-74914166D01*
X202303095Y-75009404D01*
%TO.C,U5*%
X192659095Y-95937880D02*
X192659095Y-96747404D01*
X192706714Y-96842642D01*
X192754333Y-96890261D01*
X192849571Y-96937880D01*
X193040047Y-96937880D01*
X193135285Y-96890261D01*
X193182904Y-96842642D01*
X193230523Y-96747404D01*
X193230523Y-95937880D01*
X194182904Y-95937880D02*
X193706714Y-95937880D01*
X193659095Y-96414071D01*
X193706714Y-96366452D01*
X193801952Y-96318833D01*
X194040047Y-96318833D01*
X194135285Y-96366452D01*
X194182904Y-96414071D01*
X194230523Y-96509309D01*
X194230523Y-96747404D01*
X194182904Y-96842642D01*
X194135285Y-96890261D01*
X194040047Y-96937880D01*
X193801952Y-96937880D01*
X193706714Y-96890261D01*
X193659095Y-96842642D01*
%TO.C,U3*%
X193508380Y-62547404D02*
X194317904Y-62547404D01*
X194413142Y-62499785D01*
X194460761Y-62452166D01*
X194508380Y-62356928D01*
X194508380Y-62166452D01*
X194460761Y-62071214D01*
X194413142Y-62023595D01*
X194317904Y-61975976D01*
X193508380Y-61975976D01*
X193508380Y-61595023D02*
X193508380Y-60975976D01*
X193889333Y-61309309D01*
X193889333Y-61166452D01*
X193936952Y-61071214D01*
X193984571Y-61023595D01*
X194079809Y-60975976D01*
X194317904Y-60975976D01*
X194413142Y-61023595D01*
X194460761Y-61071214D01*
X194508380Y-61166452D01*
X194508380Y-61452166D01*
X194460761Y-61547404D01*
X194413142Y-61595023D01*
X183069666Y-67655500D02*
X182369666Y-67655500D01*
X182869666Y-67422166D01*
X182369666Y-67188833D01*
X183069666Y-67188833D01*
X183069666Y-66855500D02*
X182369666Y-66855500D01*
X183069666Y-66455500D02*
X182669666Y-66755500D01*
X182369666Y-66455500D02*
X182769666Y-66855500D01*
X182369666Y-65855500D02*
X182369666Y-65988833D01*
X182403000Y-66055500D01*
X182436333Y-66088833D01*
X182536333Y-66155500D01*
X182669666Y-66188833D01*
X182936333Y-66188833D01*
X183003000Y-66155500D01*
X183036333Y-66122166D01*
X183069666Y-66055500D01*
X183069666Y-65922166D01*
X183036333Y-65855500D01*
X183003000Y-65822166D01*
X182936333Y-65788833D01*
X182769666Y-65788833D01*
X182703000Y-65822166D01*
X182669666Y-65855500D01*
X182636333Y-65922166D01*
X182636333Y-66055500D01*
X182669666Y-66122166D01*
X182703000Y-66155500D01*
X182769666Y-66188833D01*
X182603000Y-65188833D02*
X183069666Y-65188833D01*
X182336333Y-65355500D02*
X182836333Y-65522166D01*
X182836333Y-65088833D01*
X182703000Y-64588833D02*
X182703000Y-64822166D01*
X183069666Y-64822166D02*
X182369666Y-64822166D01*
X182369666Y-64488833D01*
X182369666Y-64288833D02*
X183069666Y-63822166D01*
X182369666Y-63822166D02*
X183069666Y-64288833D01*
X182369666Y-63222166D02*
X182369666Y-63555500D01*
X182703000Y-63588833D01*
X182669666Y-63555500D01*
X182636333Y-63488833D01*
X182636333Y-63322166D01*
X182669666Y-63255500D01*
X182703000Y-63222166D01*
X182769666Y-63188833D01*
X182936333Y-63188833D01*
X183003000Y-63222166D01*
X183036333Y-63255500D01*
X183069666Y-63322166D01*
X183069666Y-63488833D01*
X183036333Y-63555500D01*
X183003000Y-63588833D01*
X183069666Y-62522166D02*
X183069666Y-62922166D01*
X183069666Y-62722166D02*
X182369666Y-62722166D01*
X182469666Y-62788833D01*
X182536333Y-62855500D01*
X182569666Y-62922166D01*
X182436333Y-62255500D02*
X182403000Y-62222166D01*
X182369666Y-62155500D01*
X182369666Y-61988833D01*
X182403000Y-61922166D01*
X182436333Y-61888833D01*
X182503000Y-61855500D01*
X182569666Y-61855500D01*
X182669666Y-61888833D01*
X183069666Y-62288833D01*
X183069666Y-61855500D01*
X182369666Y-61655500D02*
X183069666Y-61422166D01*
X182369666Y-61188833D01*
X183069666Y-60955500D02*
X182369666Y-60955500D01*
X182869666Y-60722166D01*
X182369666Y-60488833D01*
X183069666Y-60488833D01*
X183069666Y-60155500D02*
X182369666Y-60155500D01*
X182369666Y-59988833D01*
X182403000Y-59888833D01*
X182469666Y-59822166D01*
X182536333Y-59788833D01*
X182669666Y-59755500D01*
X182769666Y-59755500D01*
X182903000Y-59788833D01*
X182969666Y-59822166D01*
X183036333Y-59888833D01*
X183069666Y-59988833D01*
X183069666Y-60155500D01*
X183069666Y-59088833D02*
X183069666Y-59488833D01*
X183069666Y-59288833D02*
X182369666Y-59288833D01*
X182469666Y-59355500D01*
X182536333Y-59422166D01*
X182569666Y-59488833D01*
X182436333Y-58822166D02*
X182403000Y-58788833D01*
X182369666Y-58722166D01*
X182369666Y-58555500D01*
X182403000Y-58488833D01*
X182436333Y-58455500D01*
X182503000Y-58422166D01*
X182569666Y-58422166D01*
X182669666Y-58455500D01*
X183069666Y-58855500D01*
X183069666Y-58422166D01*
X184212666Y-68105500D02*
X183512666Y-68105500D01*
X184012666Y-67872166D01*
X183512666Y-67638833D01*
X184212666Y-67638833D01*
X184212666Y-67305500D02*
X183512666Y-67305500D01*
X184212666Y-66905500D02*
X183812666Y-67205500D01*
X183512666Y-66905500D02*
X183912666Y-67305500D01*
X183512666Y-66305500D02*
X183512666Y-66438833D01*
X183546000Y-66505500D01*
X183579333Y-66538833D01*
X183679333Y-66605500D01*
X183812666Y-66638833D01*
X184079333Y-66638833D01*
X184146000Y-66605500D01*
X184179333Y-66572166D01*
X184212666Y-66505500D01*
X184212666Y-66372166D01*
X184179333Y-66305500D01*
X184146000Y-66272166D01*
X184079333Y-66238833D01*
X183912666Y-66238833D01*
X183846000Y-66272166D01*
X183812666Y-66305500D01*
X183779333Y-66372166D01*
X183779333Y-66505500D01*
X183812666Y-66572166D01*
X183846000Y-66605500D01*
X183912666Y-66638833D01*
X183512666Y-65638833D02*
X183512666Y-65772166D01*
X183546000Y-65838833D01*
X183579333Y-65872166D01*
X183679333Y-65938833D01*
X183812666Y-65972166D01*
X184079333Y-65972166D01*
X184146000Y-65938833D01*
X184179333Y-65905500D01*
X184212666Y-65838833D01*
X184212666Y-65705500D01*
X184179333Y-65638833D01*
X184146000Y-65605500D01*
X184079333Y-65572166D01*
X183912666Y-65572166D01*
X183846000Y-65605500D01*
X183812666Y-65638833D01*
X183779333Y-65705500D01*
X183779333Y-65838833D01*
X183812666Y-65905500D01*
X183846000Y-65938833D01*
X183912666Y-65972166D01*
X183846000Y-65038833D02*
X183846000Y-65272166D01*
X184212666Y-65272166D02*
X183512666Y-65272166D01*
X183512666Y-64938833D01*
X183512666Y-64738833D02*
X184212666Y-64272166D01*
X183512666Y-64272166D02*
X184212666Y-64738833D01*
X184212666Y-63638833D02*
X184212666Y-64038833D01*
X184212666Y-63838833D02*
X183512666Y-63838833D01*
X183612666Y-63905500D01*
X183679333Y-63972166D01*
X183712666Y-64038833D01*
X184212666Y-63338833D02*
X183512666Y-63338833D01*
X184012666Y-63105500D01*
X183512666Y-62872166D01*
X184212666Y-62872166D01*
X183846000Y-62305500D02*
X183879333Y-62205500D01*
X183912666Y-62172166D01*
X183979333Y-62138833D01*
X184079333Y-62138833D01*
X184146000Y-62172166D01*
X184179333Y-62205500D01*
X184212666Y-62272166D01*
X184212666Y-62538833D01*
X183512666Y-62538833D01*
X183512666Y-62305500D01*
X183546000Y-62238833D01*
X183579333Y-62205500D01*
X183646000Y-62172166D01*
X183712666Y-62172166D01*
X183779333Y-62205500D01*
X183812666Y-62238833D01*
X183846000Y-62305500D01*
X183846000Y-62538833D01*
X183512666Y-61938833D02*
X184212666Y-61705500D01*
X183512666Y-61472166D01*
X184212666Y-61238833D02*
X183512666Y-61238833D01*
X184012666Y-61005500D01*
X183512666Y-60772166D01*
X184212666Y-60772166D01*
X184212666Y-60438833D02*
X183512666Y-60438833D01*
X183512666Y-60272166D01*
X183546000Y-60172166D01*
X183612666Y-60105500D01*
X183679333Y-60072166D01*
X183812666Y-60038833D01*
X183912666Y-60038833D01*
X184046000Y-60072166D01*
X184112666Y-60105500D01*
X184179333Y-60172166D01*
X184212666Y-60272166D01*
X184212666Y-60438833D01*
X184212666Y-59372166D02*
X184212666Y-59772166D01*
X184212666Y-59572166D02*
X183512666Y-59572166D01*
X183612666Y-59638833D01*
X183679333Y-59705500D01*
X183712666Y-59772166D01*
X183812666Y-58972166D02*
X183779333Y-59038833D01*
X183746000Y-59072166D01*
X183679333Y-59105500D01*
X183646000Y-59105500D01*
X183579333Y-59072166D01*
X183546000Y-59038833D01*
X183512666Y-58972166D01*
X183512666Y-58838833D01*
X183546000Y-58772166D01*
X183579333Y-58738833D01*
X183646000Y-58705500D01*
X183679333Y-58705500D01*
X183746000Y-58738833D01*
X183779333Y-58772166D01*
X183812666Y-58838833D01*
X183812666Y-58972166D01*
X183846000Y-59038833D01*
X183879333Y-59072166D01*
X183946000Y-59105500D01*
X184079333Y-59105500D01*
X184146000Y-59072166D01*
X184179333Y-59038833D01*
X184212666Y-58972166D01*
X184212666Y-58838833D01*
X184179333Y-58772166D01*
X184146000Y-58738833D01*
X184079333Y-58705500D01*
X183946000Y-58705500D01*
X183879333Y-58738833D01*
X183846000Y-58772166D01*
X183812666Y-58838833D01*
X183479333Y-57905500D02*
X184379333Y-58505500D01*
%TO.C,R8*%
X186523333Y-104528880D02*
X186190000Y-104052690D01*
X185951904Y-104528880D02*
X185951904Y-103528880D01*
X186332857Y-103528880D01*
X186428095Y-103576500D01*
X186475714Y-103624119D01*
X186523333Y-103719357D01*
X186523333Y-103862214D01*
X186475714Y-103957452D01*
X186428095Y-104005071D01*
X186332857Y-104052690D01*
X185951904Y-104052690D01*
X187094761Y-103957452D02*
X186999523Y-103909833D01*
X186951904Y-103862214D01*
X186904285Y-103766976D01*
X186904285Y-103719357D01*
X186951904Y-103624119D01*
X186999523Y-103576500D01*
X187094761Y-103528880D01*
X187285238Y-103528880D01*
X187380476Y-103576500D01*
X187428095Y-103624119D01*
X187475714Y-103719357D01*
X187475714Y-103766976D01*
X187428095Y-103862214D01*
X187380476Y-103909833D01*
X187285238Y-103957452D01*
X187094761Y-103957452D01*
X186999523Y-104005071D01*
X186951904Y-104052690D01*
X186904285Y-104147928D01*
X186904285Y-104338404D01*
X186951904Y-104433642D01*
X186999523Y-104481261D01*
X187094761Y-104528880D01*
X187285238Y-104528880D01*
X187380476Y-104481261D01*
X187428095Y-104433642D01*
X187475714Y-104338404D01*
X187475714Y-104147928D01*
X187428095Y-104052690D01*
X187380476Y-104005071D01*
X187285238Y-103957452D01*
%TO.C,R11*%
X187840880Y-117085357D02*
X187364690Y-117418690D01*
X187840880Y-117656785D02*
X186840880Y-117656785D01*
X186840880Y-117275833D01*
X186888500Y-117180595D01*
X186936119Y-117132976D01*
X187031357Y-117085357D01*
X187174214Y-117085357D01*
X187269452Y-117132976D01*
X187317071Y-117180595D01*
X187364690Y-117275833D01*
X187364690Y-117656785D01*
X187840880Y-116132976D02*
X187840880Y-116704404D01*
X187840880Y-116418690D02*
X186840880Y-116418690D01*
X186983738Y-116513928D01*
X187078976Y-116609166D01*
X187126595Y-116704404D01*
X187840880Y-115180595D02*
X187840880Y-115752023D01*
X187840880Y-115466309D02*
X186840880Y-115466309D01*
X186983738Y-115561547D01*
X187078976Y-115656785D01*
X187126595Y-115752023D01*
%TO.C,R9*%
X184745333Y-116212880D02*
X184412000Y-115736690D01*
X184173904Y-116212880D02*
X184173904Y-115212880D01*
X184554857Y-115212880D01*
X184650095Y-115260500D01*
X184697714Y-115308119D01*
X184745333Y-115403357D01*
X184745333Y-115546214D01*
X184697714Y-115641452D01*
X184650095Y-115689071D01*
X184554857Y-115736690D01*
X184173904Y-115736690D01*
X185221523Y-116212880D02*
X185412000Y-116212880D01*
X185507238Y-116165261D01*
X185554857Y-116117642D01*
X185650095Y-115974785D01*
X185697714Y-115784309D01*
X185697714Y-115403357D01*
X185650095Y-115308119D01*
X185602476Y-115260500D01*
X185507238Y-115212880D01*
X185316761Y-115212880D01*
X185221523Y-115260500D01*
X185173904Y-115308119D01*
X185126285Y-115403357D01*
X185126285Y-115641452D01*
X185173904Y-115736690D01*
X185221523Y-115784309D01*
X185316761Y-115831928D01*
X185507238Y-115831928D01*
X185602476Y-115784309D01*
X185650095Y-115736690D01*
X185697714Y-115641452D01*
%TO.C,R10*%
X184269142Y-111132880D02*
X183935809Y-110656690D01*
X183697714Y-111132880D02*
X183697714Y-110132880D01*
X184078666Y-110132880D01*
X184173904Y-110180500D01*
X184221523Y-110228119D01*
X184269142Y-110323357D01*
X184269142Y-110466214D01*
X184221523Y-110561452D01*
X184173904Y-110609071D01*
X184078666Y-110656690D01*
X183697714Y-110656690D01*
X185221523Y-111132880D02*
X184650095Y-111132880D01*
X184935809Y-111132880D02*
X184935809Y-110132880D01*
X184840571Y-110275738D01*
X184745333Y-110370976D01*
X184650095Y-110418595D01*
X185840571Y-110132880D02*
X185935809Y-110132880D01*
X186031047Y-110180500D01*
X186078666Y-110228119D01*
X186126285Y-110323357D01*
X186173904Y-110513833D01*
X186173904Y-110751928D01*
X186126285Y-110942404D01*
X186078666Y-111037642D01*
X186031047Y-111085261D01*
X185935809Y-111132880D01*
X185840571Y-111132880D01*
X185745333Y-111085261D01*
X185697714Y-111037642D01*
X185650095Y-110942404D01*
X185602476Y-110751928D01*
X185602476Y-110513833D01*
X185650095Y-110323357D01*
X185697714Y-110228119D01*
X185745333Y-110180500D01*
X185840571Y-110132880D01*
%TO.C,C3*%
X189206142Y-116218166D02*
X189253761Y-116265785D01*
X189301380Y-116408642D01*
X189301380Y-116503880D01*
X189253761Y-116646738D01*
X189158523Y-116741976D01*
X189063285Y-116789595D01*
X188872809Y-116837214D01*
X188729952Y-116837214D01*
X188539476Y-116789595D01*
X188444238Y-116741976D01*
X188349000Y-116646738D01*
X188301380Y-116503880D01*
X188301380Y-116408642D01*
X188349000Y-116265785D01*
X188396619Y-116218166D01*
X188301380Y-115884833D02*
X188301380Y-115265785D01*
X188682333Y-115599119D01*
X188682333Y-115456261D01*
X188729952Y-115361023D01*
X188777571Y-115313404D01*
X188872809Y-115265785D01*
X189110904Y-115265785D01*
X189206142Y-115313404D01*
X189253761Y-115361023D01*
X189301380Y-115456261D01*
X189301380Y-115741976D01*
X189253761Y-115837214D01*
X189206142Y-115884833D01*
%TO.C,C4*%
X198159642Y-115990666D02*
X198207261Y-116038285D01*
X198254880Y-116181142D01*
X198254880Y-116276380D01*
X198207261Y-116419238D01*
X198112023Y-116514476D01*
X198016785Y-116562095D01*
X197826309Y-116609714D01*
X197683452Y-116609714D01*
X197492976Y-116562095D01*
X197397738Y-116514476D01*
X197302500Y-116419238D01*
X197254880Y-116276380D01*
X197254880Y-116181142D01*
X197302500Y-116038285D01*
X197350119Y-115990666D01*
X197588214Y-115133523D02*
X198254880Y-115133523D01*
X197207261Y-115371619D02*
X197921547Y-115609714D01*
X197921547Y-114990666D01*
%TO.C,R14*%
X199651880Y-116974857D02*
X199175690Y-117308190D01*
X199651880Y-117546285D02*
X198651880Y-117546285D01*
X198651880Y-117165333D01*
X198699500Y-117070095D01*
X198747119Y-117022476D01*
X198842357Y-116974857D01*
X198985214Y-116974857D01*
X199080452Y-117022476D01*
X199128071Y-117070095D01*
X199175690Y-117165333D01*
X199175690Y-117546285D01*
X199651880Y-116022476D02*
X199651880Y-116593904D01*
X199651880Y-116308190D02*
X198651880Y-116308190D01*
X198794738Y-116403428D01*
X198889976Y-116498666D01*
X198937595Y-116593904D01*
X198985214Y-115165333D02*
X199651880Y-115165333D01*
X198604261Y-115403428D02*
X199318547Y-115641523D01*
X199318547Y-115022476D01*
%TO.C,R12*%
X201160142Y-116085880D02*
X200826809Y-115609690D01*
X200588714Y-116085880D02*
X200588714Y-115085880D01*
X200969666Y-115085880D01*
X201064904Y-115133500D01*
X201112523Y-115181119D01*
X201160142Y-115276357D01*
X201160142Y-115419214D01*
X201112523Y-115514452D01*
X201064904Y-115562071D01*
X200969666Y-115609690D01*
X200588714Y-115609690D01*
X202112523Y-116085880D02*
X201541095Y-116085880D01*
X201826809Y-116085880D02*
X201826809Y-115085880D01*
X201731571Y-115228738D01*
X201636333Y-115323976D01*
X201541095Y-115371595D01*
X202493476Y-115181119D02*
X202541095Y-115133500D01*
X202636333Y-115085880D01*
X202874428Y-115085880D01*
X202969666Y-115133500D01*
X203017285Y-115181119D01*
X203064904Y-115276357D01*
X203064904Y-115371595D01*
X203017285Y-115514452D01*
X202445857Y-116085880D01*
X203064904Y-116085880D01*
%TO.C,R13*%
X201160142Y-111132880D02*
X200826809Y-110656690D01*
X200588714Y-111132880D02*
X200588714Y-110132880D01*
X200969666Y-110132880D01*
X201064904Y-110180500D01*
X201112523Y-110228119D01*
X201160142Y-110323357D01*
X201160142Y-110466214D01*
X201112523Y-110561452D01*
X201064904Y-110609071D01*
X200969666Y-110656690D01*
X200588714Y-110656690D01*
X202112523Y-111132880D02*
X201541095Y-111132880D01*
X201826809Y-111132880D02*
X201826809Y-110132880D01*
X201731571Y-110275738D01*
X201636333Y-110370976D01*
X201541095Y-110418595D01*
X202445857Y-110132880D02*
X203064904Y-110132880D01*
X202731571Y-110513833D01*
X202874428Y-110513833D01*
X202969666Y-110561452D01*
X203017285Y-110609071D01*
X203064904Y-110704309D01*
X203064904Y-110942404D01*
X203017285Y-111037642D01*
X202969666Y-111085261D01*
X202874428Y-111132880D01*
X202588714Y-111132880D01*
X202493476Y-111085261D01*
X202445857Y-111037642D01*
%TO.C,J8*%
X207732380Y-54943333D02*
X208446666Y-54943333D01*
X208589523Y-54990952D01*
X208684761Y-55086190D01*
X208732380Y-55229047D01*
X208732380Y-55324285D01*
X208160952Y-54324285D02*
X208113333Y-54419523D01*
X208065714Y-54467142D01*
X207970476Y-54514761D01*
X207922857Y-54514761D01*
X207827619Y-54467142D01*
X207780000Y-54419523D01*
X207732380Y-54324285D01*
X207732380Y-54133809D01*
X207780000Y-54038571D01*
X207827619Y-53990952D01*
X207922857Y-53943333D01*
X207970476Y-53943333D01*
X208065714Y-53990952D01*
X208113333Y-54038571D01*
X208160952Y-54133809D01*
X208160952Y-54324285D01*
X208208571Y-54419523D01*
X208256190Y-54467142D01*
X208351428Y-54514761D01*
X208541904Y-54514761D01*
X208637142Y-54467142D01*
X208684761Y-54419523D01*
X208732380Y-54324285D01*
X208732380Y-54133809D01*
X208684761Y-54038571D01*
X208637142Y-53990952D01*
X208541904Y-53943333D01*
X208351428Y-53943333D01*
X208256190Y-53990952D01*
X208208571Y-54038571D01*
X208160952Y-54133809D01*
%TO.C,R2*%
X203009833Y-55252880D02*
X202676500Y-54776690D01*
X202438404Y-55252880D02*
X202438404Y-54252880D01*
X202819357Y-54252880D01*
X202914595Y-54300500D01*
X202962214Y-54348119D01*
X203009833Y-54443357D01*
X203009833Y-54586214D01*
X202962214Y-54681452D01*
X202914595Y-54729071D01*
X202819357Y-54776690D01*
X202438404Y-54776690D01*
X203390785Y-54348119D02*
X203438404Y-54300500D01*
X203533642Y-54252880D01*
X203771738Y-54252880D01*
X203866976Y-54300500D01*
X203914595Y-54348119D01*
X203962214Y-54443357D01*
X203962214Y-54538595D01*
X203914595Y-54681452D01*
X203343166Y-55252880D01*
X203962214Y-55252880D01*
%TO.C,U6*%
X204801795Y-83187080D02*
X204801795Y-83996604D01*
X204849414Y-84091842D01*
X204897033Y-84139461D01*
X204992271Y-84187080D01*
X205182747Y-84187080D01*
X205277985Y-84139461D01*
X205325604Y-84091842D01*
X205373223Y-83996604D01*
X205373223Y-83187080D01*
X206277985Y-83187080D02*
X206087509Y-83187080D01*
X205992271Y-83234700D01*
X205944652Y-83282319D01*
X205849414Y-83425176D01*
X205801795Y-83615652D01*
X205801795Y-83996604D01*
X205849414Y-84091842D01*
X205897033Y-84139461D01*
X205992271Y-84187080D01*
X206182747Y-84187080D01*
X206277985Y-84139461D01*
X206325604Y-84091842D01*
X206373223Y-83996604D01*
X206373223Y-83758509D01*
X206325604Y-83663271D01*
X206277985Y-83615652D01*
X206182747Y-83568033D01*
X205992271Y-83568033D01*
X205897033Y-83615652D01*
X205849414Y-83663271D01*
X205801795Y-83758509D01*
%TO.C,R46*%
X206225380Y-133865857D02*
X205749190Y-134199190D01*
X206225380Y-134437285D02*
X205225380Y-134437285D01*
X205225380Y-134056333D01*
X205273000Y-133961095D01*
X205320619Y-133913476D01*
X205415857Y-133865857D01*
X205558714Y-133865857D01*
X205653952Y-133913476D01*
X205701571Y-133961095D01*
X205749190Y-134056333D01*
X205749190Y-134437285D01*
X205558714Y-133008714D02*
X206225380Y-133008714D01*
X205177761Y-133246809D02*
X205892047Y-133484904D01*
X205892047Y-132865857D01*
X205225380Y-132056333D02*
X205225380Y-132246809D01*
X205273000Y-132342047D01*
X205320619Y-132389666D01*
X205463476Y-132484904D01*
X205653952Y-132532523D01*
X206034904Y-132532523D01*
X206130142Y-132484904D01*
X206177761Y-132437285D01*
X206225380Y-132342047D01*
X206225380Y-132151571D01*
X206177761Y-132056333D01*
X206130142Y-132008714D01*
X206034904Y-131961095D01*
X205796809Y-131961095D01*
X205701571Y-132008714D01*
X205653952Y-132056333D01*
X205606333Y-132151571D01*
X205606333Y-132342047D01*
X205653952Y-132437285D01*
X205701571Y-132484904D01*
X205796809Y-132532523D01*
%TO.C,R45*%
X198318380Y-132826357D02*
X197842190Y-133159690D01*
X198318380Y-133397785D02*
X197318380Y-133397785D01*
X197318380Y-133016833D01*
X197366000Y-132921595D01*
X197413619Y-132873976D01*
X197508857Y-132826357D01*
X197651714Y-132826357D01*
X197746952Y-132873976D01*
X197794571Y-132921595D01*
X197842190Y-133016833D01*
X197842190Y-133397785D01*
X197651714Y-131969214D02*
X198318380Y-131969214D01*
X197270761Y-132207309D02*
X197985047Y-132445404D01*
X197985047Y-131826357D01*
X197318380Y-130969214D02*
X197318380Y-131445404D01*
X197794571Y-131493023D01*
X197746952Y-131445404D01*
X197699333Y-131350166D01*
X197699333Y-131112071D01*
X197746952Y-131016833D01*
X197794571Y-130969214D01*
X197889809Y-130921595D01*
X198127904Y-130921595D01*
X198223142Y-130969214D01*
X198270761Y-131016833D01*
X198318380Y-131112071D01*
X198318380Y-131350166D01*
X198270761Y-131445404D01*
X198223142Y-131493023D01*
%TO.C,R44*%
X199612642Y-136756380D02*
X199279309Y-136280190D01*
X199041214Y-136756380D02*
X199041214Y-135756380D01*
X199422166Y-135756380D01*
X199517404Y-135804000D01*
X199565023Y-135851619D01*
X199612642Y-135946857D01*
X199612642Y-136089714D01*
X199565023Y-136184952D01*
X199517404Y-136232571D01*
X199422166Y-136280190D01*
X199041214Y-136280190D01*
X200469785Y-136089714D02*
X200469785Y-136756380D01*
X200231690Y-135708761D02*
X199993595Y-136423047D01*
X200612642Y-136423047D01*
X201422166Y-136089714D02*
X201422166Y-136756380D01*
X201184071Y-135708761D02*
X200945976Y-136423047D01*
X201565023Y-136423047D01*
%TO.C,R43*%
X195747880Y-133842357D02*
X195271690Y-134175690D01*
X195747880Y-134413785D02*
X194747880Y-134413785D01*
X194747880Y-134032833D01*
X194795500Y-133937595D01*
X194843119Y-133889976D01*
X194938357Y-133842357D01*
X195081214Y-133842357D01*
X195176452Y-133889976D01*
X195224071Y-133937595D01*
X195271690Y-134032833D01*
X195271690Y-134413785D01*
X195081214Y-132985214D02*
X195747880Y-132985214D01*
X194700261Y-133223309D02*
X195414547Y-133461404D01*
X195414547Y-132842357D01*
X194747880Y-132556642D02*
X194747880Y-131937595D01*
X195128833Y-132270928D01*
X195128833Y-132128071D01*
X195176452Y-132032833D01*
X195224071Y-131985214D01*
X195319309Y-131937595D01*
X195557404Y-131937595D01*
X195652642Y-131985214D01*
X195700261Y-132032833D01*
X195747880Y-132128071D01*
X195747880Y-132413785D01*
X195700261Y-132509023D01*
X195652642Y-132556642D01*
%TO.C,R42*%
X187713880Y-133040357D02*
X187237690Y-133373690D01*
X187713880Y-133611785D02*
X186713880Y-133611785D01*
X186713880Y-133230833D01*
X186761500Y-133135595D01*
X186809119Y-133087976D01*
X186904357Y-133040357D01*
X187047214Y-133040357D01*
X187142452Y-133087976D01*
X187190071Y-133135595D01*
X187237690Y-133230833D01*
X187237690Y-133611785D01*
X187047214Y-132183214D02*
X187713880Y-132183214D01*
X186666261Y-132421309D02*
X187380547Y-132659404D01*
X187380547Y-132040357D01*
X186809119Y-131707023D02*
X186761500Y-131659404D01*
X186713880Y-131564166D01*
X186713880Y-131326071D01*
X186761500Y-131230833D01*
X186809119Y-131183214D01*
X186904357Y-131135595D01*
X186999595Y-131135595D01*
X187142452Y-131183214D01*
X187713880Y-131754642D01*
X187713880Y-131135595D01*
%TO.C,R41*%
X189095142Y-136850380D02*
X188761809Y-136374190D01*
X188523714Y-136850380D02*
X188523714Y-135850380D01*
X188904666Y-135850380D01*
X188999904Y-135898000D01*
X189047523Y-135945619D01*
X189095142Y-136040857D01*
X189095142Y-136183714D01*
X189047523Y-136278952D01*
X188999904Y-136326571D01*
X188904666Y-136374190D01*
X188523714Y-136374190D01*
X189952285Y-136183714D02*
X189952285Y-136850380D01*
X189714190Y-135802761D02*
X189476095Y-136517047D01*
X190095142Y-136517047D01*
X190999904Y-136850380D02*
X190428476Y-136850380D01*
X190714190Y-136850380D02*
X190714190Y-135850380D01*
X190618952Y-135993238D01*
X190523714Y-136088476D01*
X190428476Y-136136095D01*
%TO.C,R40*%
X185143380Y-133865857D02*
X184667190Y-134199190D01*
X185143380Y-134437285D02*
X184143380Y-134437285D01*
X184143380Y-134056333D01*
X184191000Y-133961095D01*
X184238619Y-133913476D01*
X184333857Y-133865857D01*
X184476714Y-133865857D01*
X184571952Y-133913476D01*
X184619571Y-133961095D01*
X184667190Y-134056333D01*
X184667190Y-134437285D01*
X184476714Y-133008714D02*
X185143380Y-133008714D01*
X184095761Y-133246809D02*
X184810047Y-133484904D01*
X184810047Y-132865857D01*
X184143380Y-132294428D02*
X184143380Y-132199190D01*
X184191000Y-132103952D01*
X184238619Y-132056333D01*
X184333857Y-132008714D01*
X184524333Y-131961095D01*
X184762428Y-131961095D01*
X184952904Y-132008714D01*
X185048142Y-132056333D01*
X185095761Y-132103952D01*
X185143380Y-132199190D01*
X185143380Y-132294428D01*
X185095761Y-132389666D01*
X185048142Y-132437285D01*
X184952904Y-132484904D01*
X184762428Y-132532523D01*
X184524333Y-132532523D01*
X184333857Y-132484904D01*
X184238619Y-132437285D01*
X184191000Y-132389666D01*
X184143380Y-132294428D01*
%TO.C,R39*%
X177109380Y-132722857D02*
X176633190Y-133056190D01*
X177109380Y-133294285D02*
X176109380Y-133294285D01*
X176109380Y-132913333D01*
X176157000Y-132818095D01*
X176204619Y-132770476D01*
X176299857Y-132722857D01*
X176442714Y-132722857D01*
X176537952Y-132770476D01*
X176585571Y-132818095D01*
X176633190Y-132913333D01*
X176633190Y-133294285D01*
X176109380Y-132389523D02*
X176109380Y-131770476D01*
X176490333Y-132103809D01*
X176490333Y-131960952D01*
X176537952Y-131865714D01*
X176585571Y-131818095D01*
X176680809Y-131770476D01*
X176918904Y-131770476D01*
X177014142Y-131818095D01*
X177061761Y-131865714D01*
X177109380Y-131960952D01*
X177109380Y-132246666D01*
X177061761Y-132341904D01*
X177014142Y-132389523D01*
X177109380Y-131294285D02*
X177109380Y-131103809D01*
X177061761Y-131008571D01*
X177014142Y-130960952D01*
X176871285Y-130865714D01*
X176680809Y-130818095D01*
X176299857Y-130818095D01*
X176204619Y-130865714D01*
X176157000Y-130913333D01*
X176109380Y-131008571D01*
X176109380Y-131199047D01*
X176157000Y-131294285D01*
X176204619Y-131341904D01*
X176299857Y-131389523D01*
X176537952Y-131389523D01*
X176633190Y-131341904D01*
X176680809Y-131294285D01*
X176728428Y-131199047D01*
X176728428Y-131008571D01*
X176680809Y-130913333D01*
X176633190Y-130865714D01*
X176537952Y-130818095D01*
%TO.C,R38*%
X178427142Y-136723380D02*
X178093809Y-136247190D01*
X177855714Y-136723380D02*
X177855714Y-135723380D01*
X178236666Y-135723380D01*
X178331904Y-135771000D01*
X178379523Y-135818619D01*
X178427142Y-135913857D01*
X178427142Y-136056714D01*
X178379523Y-136151952D01*
X178331904Y-136199571D01*
X178236666Y-136247190D01*
X177855714Y-136247190D01*
X178760476Y-135723380D02*
X179379523Y-135723380D01*
X179046190Y-136104333D01*
X179189047Y-136104333D01*
X179284285Y-136151952D01*
X179331904Y-136199571D01*
X179379523Y-136294809D01*
X179379523Y-136532904D01*
X179331904Y-136628142D01*
X179284285Y-136675761D01*
X179189047Y-136723380D01*
X178903333Y-136723380D01*
X178808095Y-136675761D01*
X178760476Y-136628142D01*
X179950952Y-136151952D02*
X179855714Y-136104333D01*
X179808095Y-136056714D01*
X179760476Y-135961476D01*
X179760476Y-135913857D01*
X179808095Y-135818619D01*
X179855714Y-135771000D01*
X179950952Y-135723380D01*
X180141428Y-135723380D01*
X180236666Y-135771000D01*
X180284285Y-135818619D01*
X180331904Y-135913857D01*
X180331904Y-135961476D01*
X180284285Y-136056714D01*
X180236666Y-136104333D01*
X180141428Y-136151952D01*
X179950952Y-136151952D01*
X179855714Y-136199571D01*
X179808095Y-136247190D01*
X179760476Y-136342428D01*
X179760476Y-136532904D01*
X179808095Y-136628142D01*
X179855714Y-136675761D01*
X179950952Y-136723380D01*
X180141428Y-136723380D01*
X180236666Y-136675761D01*
X180284285Y-136628142D01*
X180331904Y-136532904D01*
X180331904Y-136342428D01*
X180284285Y-136247190D01*
X180236666Y-136199571D01*
X180141428Y-136151952D01*
%TO.C,R37*%
X206225380Y-124317357D02*
X205749190Y-124650690D01*
X206225380Y-124888785D02*
X205225380Y-124888785D01*
X205225380Y-124507833D01*
X205273000Y-124412595D01*
X205320619Y-124364976D01*
X205415857Y-124317357D01*
X205558714Y-124317357D01*
X205653952Y-124364976D01*
X205701571Y-124412595D01*
X205749190Y-124507833D01*
X205749190Y-124888785D01*
X205225380Y-123984023D02*
X205225380Y-123364976D01*
X205606333Y-123698309D01*
X205606333Y-123555452D01*
X205653952Y-123460214D01*
X205701571Y-123412595D01*
X205796809Y-123364976D01*
X206034904Y-123364976D01*
X206130142Y-123412595D01*
X206177761Y-123460214D01*
X206225380Y-123555452D01*
X206225380Y-123841166D01*
X206177761Y-123936404D01*
X206130142Y-123984023D01*
X205225380Y-123031642D02*
X205225380Y-122364976D01*
X206225380Y-122793547D01*
%TO.C,R36*%
X198318380Y-123277857D02*
X197842190Y-123611190D01*
X198318380Y-123849285D02*
X197318380Y-123849285D01*
X197318380Y-123468333D01*
X197366000Y-123373095D01*
X197413619Y-123325476D01*
X197508857Y-123277857D01*
X197651714Y-123277857D01*
X197746952Y-123325476D01*
X197794571Y-123373095D01*
X197842190Y-123468333D01*
X197842190Y-123849285D01*
X197318380Y-122944523D02*
X197318380Y-122325476D01*
X197699333Y-122658809D01*
X197699333Y-122515952D01*
X197746952Y-122420714D01*
X197794571Y-122373095D01*
X197889809Y-122325476D01*
X198127904Y-122325476D01*
X198223142Y-122373095D01*
X198270761Y-122420714D01*
X198318380Y-122515952D01*
X198318380Y-122801666D01*
X198270761Y-122896904D01*
X198223142Y-122944523D01*
X197318380Y-121468333D02*
X197318380Y-121658809D01*
X197366000Y-121754047D01*
X197413619Y-121801666D01*
X197556476Y-121896904D01*
X197746952Y-121944523D01*
X198127904Y-121944523D01*
X198223142Y-121896904D01*
X198270761Y-121849285D01*
X198318380Y-121754047D01*
X198318380Y-121563571D01*
X198270761Y-121468333D01*
X198223142Y-121420714D01*
X198127904Y-121373095D01*
X197889809Y-121373095D01*
X197794571Y-121420714D01*
X197746952Y-121468333D01*
X197699333Y-121563571D01*
X197699333Y-121754047D01*
X197746952Y-121849285D01*
X197794571Y-121896904D01*
X197889809Y-121944523D01*
%TO.C,R35*%
X199612642Y-127231380D02*
X199279309Y-126755190D01*
X199041214Y-127231380D02*
X199041214Y-126231380D01*
X199422166Y-126231380D01*
X199517404Y-126279000D01*
X199565023Y-126326619D01*
X199612642Y-126421857D01*
X199612642Y-126564714D01*
X199565023Y-126659952D01*
X199517404Y-126707571D01*
X199422166Y-126755190D01*
X199041214Y-126755190D01*
X199945976Y-126231380D02*
X200565023Y-126231380D01*
X200231690Y-126612333D01*
X200374547Y-126612333D01*
X200469785Y-126659952D01*
X200517404Y-126707571D01*
X200565023Y-126802809D01*
X200565023Y-127040904D01*
X200517404Y-127136142D01*
X200469785Y-127183761D01*
X200374547Y-127231380D01*
X200088833Y-127231380D01*
X199993595Y-127183761D01*
X199945976Y-127136142D01*
X201469785Y-126231380D02*
X200993595Y-126231380D01*
X200945976Y-126707571D01*
X200993595Y-126659952D01*
X201088833Y-126612333D01*
X201326928Y-126612333D01*
X201422166Y-126659952D01*
X201469785Y-126707571D01*
X201517404Y-126802809D01*
X201517404Y-127040904D01*
X201469785Y-127136142D01*
X201422166Y-127183761D01*
X201326928Y-127231380D01*
X201088833Y-127231380D01*
X200993595Y-127183761D01*
X200945976Y-127136142D01*
%TO.C,R34*%
X195811380Y-124237357D02*
X195335190Y-124570690D01*
X195811380Y-124808785D02*
X194811380Y-124808785D01*
X194811380Y-124427833D01*
X194859000Y-124332595D01*
X194906619Y-124284976D01*
X195001857Y-124237357D01*
X195144714Y-124237357D01*
X195239952Y-124284976D01*
X195287571Y-124332595D01*
X195335190Y-124427833D01*
X195335190Y-124808785D01*
X194811380Y-123904023D02*
X194811380Y-123284976D01*
X195192333Y-123618309D01*
X195192333Y-123475452D01*
X195239952Y-123380214D01*
X195287571Y-123332595D01*
X195382809Y-123284976D01*
X195620904Y-123284976D01*
X195716142Y-123332595D01*
X195763761Y-123380214D01*
X195811380Y-123475452D01*
X195811380Y-123761166D01*
X195763761Y-123856404D01*
X195716142Y-123904023D01*
X195144714Y-122427833D02*
X195811380Y-122427833D01*
X194763761Y-122665928D02*
X195478047Y-122904023D01*
X195478047Y-122284976D01*
%TO.C,R33*%
X187777380Y-123301357D02*
X187301190Y-123634690D01*
X187777380Y-123872785D02*
X186777380Y-123872785D01*
X186777380Y-123491833D01*
X186825000Y-123396595D01*
X186872619Y-123348976D01*
X186967857Y-123301357D01*
X187110714Y-123301357D01*
X187205952Y-123348976D01*
X187253571Y-123396595D01*
X187301190Y-123491833D01*
X187301190Y-123872785D01*
X186777380Y-122968023D02*
X186777380Y-122348976D01*
X187158333Y-122682309D01*
X187158333Y-122539452D01*
X187205952Y-122444214D01*
X187253571Y-122396595D01*
X187348809Y-122348976D01*
X187586904Y-122348976D01*
X187682142Y-122396595D01*
X187729761Y-122444214D01*
X187777380Y-122539452D01*
X187777380Y-122825166D01*
X187729761Y-122920404D01*
X187682142Y-122968023D01*
X186777380Y-122015642D02*
X186777380Y-121396595D01*
X187158333Y-121729928D01*
X187158333Y-121587071D01*
X187205952Y-121491833D01*
X187253571Y-121444214D01*
X187348809Y-121396595D01*
X187586904Y-121396595D01*
X187682142Y-121444214D01*
X187729761Y-121491833D01*
X187777380Y-121587071D01*
X187777380Y-121872785D01*
X187729761Y-121968023D01*
X187682142Y-122015642D01*
%TO.C,R32*%
X189198642Y-127071380D02*
X188865309Y-126595190D01*
X188627214Y-127071380D02*
X188627214Y-126071380D01*
X189008166Y-126071380D01*
X189103404Y-126119000D01*
X189151023Y-126166619D01*
X189198642Y-126261857D01*
X189198642Y-126404714D01*
X189151023Y-126499952D01*
X189103404Y-126547571D01*
X189008166Y-126595190D01*
X188627214Y-126595190D01*
X189531976Y-126071380D02*
X190151023Y-126071380D01*
X189817690Y-126452333D01*
X189960547Y-126452333D01*
X190055785Y-126499952D01*
X190103404Y-126547571D01*
X190151023Y-126642809D01*
X190151023Y-126880904D01*
X190103404Y-126976142D01*
X190055785Y-127023761D01*
X189960547Y-127071380D01*
X189674833Y-127071380D01*
X189579595Y-127023761D01*
X189531976Y-126976142D01*
X190531976Y-126166619D02*
X190579595Y-126119000D01*
X190674833Y-126071380D01*
X190912928Y-126071380D01*
X191008166Y-126119000D01*
X191055785Y-126166619D01*
X191103404Y-126261857D01*
X191103404Y-126357095D01*
X191055785Y-126499952D01*
X190484357Y-127071380D01*
X191103404Y-127071380D01*
%TO.C,R31*%
X199969380Y-97226357D02*
X199493190Y-97559690D01*
X199969380Y-97797785D02*
X198969380Y-97797785D01*
X198969380Y-97416833D01*
X199017000Y-97321595D01*
X199064619Y-97273976D01*
X199159857Y-97226357D01*
X199302714Y-97226357D01*
X199397952Y-97273976D01*
X199445571Y-97321595D01*
X199493190Y-97416833D01*
X199493190Y-97797785D01*
X198969380Y-96893023D02*
X198969380Y-96273976D01*
X199350333Y-96607309D01*
X199350333Y-96464452D01*
X199397952Y-96369214D01*
X199445571Y-96321595D01*
X199540809Y-96273976D01*
X199778904Y-96273976D01*
X199874142Y-96321595D01*
X199921761Y-96369214D01*
X199969380Y-96464452D01*
X199969380Y-96750166D01*
X199921761Y-96845404D01*
X199874142Y-96893023D01*
X199969380Y-95321595D02*
X199969380Y-95893023D01*
X199969380Y-95607309D02*
X198969380Y-95607309D01*
X199112238Y-95702547D01*
X199207476Y-95797785D01*
X199255095Y-95893023D01*
%TO.C,R30*%
X204843142Y-101226880D02*
X204509809Y-100750690D01*
X204271714Y-101226880D02*
X204271714Y-100226880D01*
X204652666Y-100226880D01*
X204747904Y-100274500D01*
X204795523Y-100322119D01*
X204843142Y-100417357D01*
X204843142Y-100560214D01*
X204795523Y-100655452D01*
X204747904Y-100703071D01*
X204652666Y-100750690D01*
X204271714Y-100750690D01*
X205176476Y-100226880D02*
X205795523Y-100226880D01*
X205462190Y-100607833D01*
X205605047Y-100607833D01*
X205700285Y-100655452D01*
X205747904Y-100703071D01*
X205795523Y-100798309D01*
X205795523Y-101036404D01*
X205747904Y-101131642D01*
X205700285Y-101179261D01*
X205605047Y-101226880D01*
X205319333Y-101226880D01*
X205224095Y-101179261D01*
X205176476Y-101131642D01*
X206414571Y-100226880D02*
X206509809Y-100226880D01*
X206605047Y-100274500D01*
X206652666Y-100322119D01*
X206700285Y-100417357D01*
X206747904Y-100607833D01*
X206747904Y-100845928D01*
X206700285Y-101036404D01*
X206652666Y-101131642D01*
X206605047Y-101179261D01*
X206509809Y-101226880D01*
X206414571Y-101226880D01*
X206319333Y-101179261D01*
X206271714Y-101131642D01*
X206224095Y-101036404D01*
X206176476Y-100845928D01*
X206176476Y-100607833D01*
X206224095Y-100417357D01*
X206271714Y-100322119D01*
X206319333Y-100274500D01*
X206414571Y-100226880D01*
%TO.C,R29*%
X201334142Y-97924880D02*
X201000809Y-97448690D01*
X200762714Y-97924880D02*
X200762714Y-96924880D01*
X201143666Y-96924880D01*
X201238904Y-96972500D01*
X201286523Y-97020119D01*
X201334142Y-97115357D01*
X201334142Y-97258214D01*
X201286523Y-97353452D01*
X201238904Y-97401071D01*
X201143666Y-97448690D01*
X200762714Y-97448690D01*
X201715095Y-97020119D02*
X201762714Y-96972500D01*
X201857952Y-96924880D01*
X202096047Y-96924880D01*
X202191285Y-96972500D01*
X202238904Y-97020119D01*
X202286523Y-97115357D01*
X202286523Y-97210595D01*
X202238904Y-97353452D01*
X201667476Y-97924880D01*
X202286523Y-97924880D01*
X202762714Y-97924880D02*
X202953190Y-97924880D01*
X203048428Y-97877261D01*
X203096047Y-97829642D01*
X203191285Y-97686785D01*
X203238904Y-97496309D01*
X203238904Y-97115357D01*
X203191285Y-97020119D01*
X203143666Y-96972500D01*
X203048428Y-96924880D01*
X202857952Y-96924880D01*
X202762714Y-96972500D01*
X202715095Y-97020119D01*
X202667476Y-97115357D01*
X202667476Y-97353452D01*
X202715095Y-97448690D01*
X202762714Y-97496309D01*
X202857952Y-97543928D01*
X203048428Y-97543928D01*
X203143666Y-97496309D01*
X203191285Y-97448690D01*
X203238904Y-97353452D01*
%TO.C,R28*%
X187713880Y-96273857D02*
X187237690Y-96607190D01*
X187713880Y-96845285D02*
X186713880Y-96845285D01*
X186713880Y-96464333D01*
X186761500Y-96369095D01*
X186809119Y-96321476D01*
X186904357Y-96273857D01*
X187047214Y-96273857D01*
X187142452Y-96321476D01*
X187190071Y-96369095D01*
X187237690Y-96464333D01*
X187237690Y-96845285D01*
X186809119Y-95892904D02*
X186761500Y-95845285D01*
X186713880Y-95750047D01*
X186713880Y-95511952D01*
X186761500Y-95416714D01*
X186809119Y-95369095D01*
X186904357Y-95321476D01*
X186999595Y-95321476D01*
X187142452Y-95369095D01*
X187713880Y-95940523D01*
X187713880Y-95321476D01*
X187142452Y-94750047D02*
X187094833Y-94845285D01*
X187047214Y-94892904D01*
X186951976Y-94940523D01*
X186904357Y-94940523D01*
X186809119Y-94892904D01*
X186761500Y-94845285D01*
X186713880Y-94750047D01*
X186713880Y-94559571D01*
X186761500Y-94464333D01*
X186809119Y-94416714D01*
X186904357Y-94369095D01*
X186951976Y-94369095D01*
X187047214Y-94416714D01*
X187094833Y-94464333D01*
X187142452Y-94559571D01*
X187142452Y-94750047D01*
X187190071Y-94845285D01*
X187237690Y-94892904D01*
X187332928Y-94940523D01*
X187523404Y-94940523D01*
X187618642Y-94892904D01*
X187666261Y-94845285D01*
X187713880Y-94750047D01*
X187713880Y-94559571D01*
X187666261Y-94464333D01*
X187618642Y-94416714D01*
X187523404Y-94369095D01*
X187332928Y-94369095D01*
X187237690Y-94416714D01*
X187190071Y-94464333D01*
X187142452Y-94559571D01*
%TO.C,R27*%
X184015142Y-101734880D02*
X183681809Y-101258690D01*
X183443714Y-101734880D02*
X183443714Y-100734880D01*
X183824666Y-100734880D01*
X183919904Y-100782500D01*
X183967523Y-100830119D01*
X184015142Y-100925357D01*
X184015142Y-101068214D01*
X183967523Y-101163452D01*
X183919904Y-101211071D01*
X183824666Y-101258690D01*
X183443714Y-101258690D01*
X184396095Y-100830119D02*
X184443714Y-100782500D01*
X184538952Y-100734880D01*
X184777047Y-100734880D01*
X184872285Y-100782500D01*
X184919904Y-100830119D01*
X184967523Y-100925357D01*
X184967523Y-101020595D01*
X184919904Y-101163452D01*
X184348476Y-101734880D01*
X184967523Y-101734880D01*
X185300857Y-100734880D02*
X185967523Y-100734880D01*
X185538952Y-101734880D01*
%TO.C,R26*%
X183928142Y-96781880D02*
X183594809Y-96305690D01*
X183356714Y-96781880D02*
X183356714Y-95781880D01*
X183737666Y-95781880D01*
X183832904Y-95829500D01*
X183880523Y-95877119D01*
X183928142Y-95972357D01*
X183928142Y-96115214D01*
X183880523Y-96210452D01*
X183832904Y-96258071D01*
X183737666Y-96305690D01*
X183356714Y-96305690D01*
X184309095Y-95877119D02*
X184356714Y-95829500D01*
X184451952Y-95781880D01*
X184690047Y-95781880D01*
X184785285Y-95829500D01*
X184832904Y-95877119D01*
X184880523Y-95972357D01*
X184880523Y-96067595D01*
X184832904Y-96210452D01*
X184261476Y-96781880D01*
X184880523Y-96781880D01*
X185737666Y-95781880D02*
X185547190Y-95781880D01*
X185451952Y-95829500D01*
X185404333Y-95877119D01*
X185309095Y-96019976D01*
X185261476Y-96210452D01*
X185261476Y-96591404D01*
X185309095Y-96686642D01*
X185356714Y-96734261D01*
X185451952Y-96781880D01*
X185642428Y-96781880D01*
X185737666Y-96734261D01*
X185785285Y-96686642D01*
X185832904Y-96591404D01*
X185832904Y-96353309D01*
X185785285Y-96258071D01*
X185737666Y-96210452D01*
X185642428Y-96162833D01*
X185451952Y-96162833D01*
X185356714Y-96210452D01*
X185309095Y-96258071D01*
X185261476Y-96353309D01*
%TO.C,R25*%
X199636142Y-104274880D02*
X199302809Y-103798690D01*
X199064714Y-104274880D02*
X199064714Y-103274880D01*
X199445666Y-103274880D01*
X199540904Y-103322500D01*
X199588523Y-103370119D01*
X199636142Y-103465357D01*
X199636142Y-103608214D01*
X199588523Y-103703452D01*
X199540904Y-103751071D01*
X199445666Y-103798690D01*
X199064714Y-103798690D01*
X200017095Y-103370119D02*
X200064714Y-103322500D01*
X200159952Y-103274880D01*
X200398047Y-103274880D01*
X200493285Y-103322500D01*
X200540904Y-103370119D01*
X200588523Y-103465357D01*
X200588523Y-103560595D01*
X200540904Y-103703452D01*
X199969476Y-104274880D01*
X200588523Y-104274880D01*
X201493285Y-103274880D02*
X201017095Y-103274880D01*
X200969476Y-103751071D01*
X201017095Y-103703452D01*
X201112333Y-103655833D01*
X201350428Y-103655833D01*
X201445666Y-103703452D01*
X201493285Y-103751071D01*
X201540904Y-103846309D01*
X201540904Y-104084404D01*
X201493285Y-104179642D01*
X201445666Y-104227261D01*
X201350428Y-104274880D01*
X201112333Y-104274880D01*
X201017095Y-104227261D01*
X200969476Y-104179642D01*
%TO.C,R24*%
X201160142Y-109481880D02*
X200826809Y-109005690D01*
X200588714Y-109481880D02*
X200588714Y-108481880D01*
X200969666Y-108481880D01*
X201064904Y-108529500D01*
X201112523Y-108577119D01*
X201160142Y-108672357D01*
X201160142Y-108815214D01*
X201112523Y-108910452D01*
X201064904Y-108958071D01*
X200969666Y-109005690D01*
X200588714Y-109005690D01*
X201541095Y-108577119D02*
X201588714Y-108529500D01*
X201683952Y-108481880D01*
X201922047Y-108481880D01*
X202017285Y-108529500D01*
X202064904Y-108577119D01*
X202112523Y-108672357D01*
X202112523Y-108767595D01*
X202064904Y-108910452D01*
X201493476Y-109481880D01*
X202112523Y-109481880D01*
X202969666Y-108815214D02*
X202969666Y-109481880D01*
X202731571Y-108434261D02*
X202493476Y-109148547D01*
X203112523Y-109148547D01*
%TO.C,R23*%
X204716142Y-106052880D02*
X204382809Y-105576690D01*
X204144714Y-106052880D02*
X204144714Y-105052880D01*
X204525666Y-105052880D01*
X204620904Y-105100500D01*
X204668523Y-105148119D01*
X204716142Y-105243357D01*
X204716142Y-105386214D01*
X204668523Y-105481452D01*
X204620904Y-105529071D01*
X204525666Y-105576690D01*
X204144714Y-105576690D01*
X205097095Y-105148119D02*
X205144714Y-105100500D01*
X205239952Y-105052880D01*
X205478047Y-105052880D01*
X205573285Y-105100500D01*
X205620904Y-105148119D01*
X205668523Y-105243357D01*
X205668523Y-105338595D01*
X205620904Y-105481452D01*
X205049476Y-106052880D01*
X205668523Y-106052880D01*
X206001857Y-105052880D02*
X206620904Y-105052880D01*
X206287571Y-105433833D01*
X206430428Y-105433833D01*
X206525666Y-105481452D01*
X206573285Y-105529071D01*
X206620904Y-105624309D01*
X206620904Y-105862404D01*
X206573285Y-105957642D01*
X206525666Y-106005261D01*
X206430428Y-106052880D01*
X206144714Y-106052880D01*
X206049476Y-106005261D01*
X206001857Y-105957642D01*
%TO.C,R22*%
X202430142Y-82938880D02*
X202096809Y-82462690D01*
X201858714Y-82938880D02*
X201858714Y-81938880D01*
X202239666Y-81938880D01*
X202334904Y-81986500D01*
X202382523Y-82034119D01*
X202430142Y-82129357D01*
X202430142Y-82272214D01*
X202382523Y-82367452D01*
X202334904Y-82415071D01*
X202239666Y-82462690D01*
X201858714Y-82462690D01*
X202811095Y-82034119D02*
X202858714Y-81986500D01*
X202953952Y-81938880D01*
X203192047Y-81938880D01*
X203287285Y-81986500D01*
X203334904Y-82034119D01*
X203382523Y-82129357D01*
X203382523Y-82224595D01*
X203334904Y-82367452D01*
X202763476Y-82938880D01*
X203382523Y-82938880D01*
X203763476Y-82034119D02*
X203811095Y-81986500D01*
X203906333Y-81938880D01*
X204144428Y-81938880D01*
X204239666Y-81986500D01*
X204287285Y-82034119D01*
X204334904Y-82129357D01*
X204334904Y-82224595D01*
X204287285Y-82367452D01*
X203715857Y-82938880D01*
X204334904Y-82938880D01*
%TO.C,R21*%
X211716880Y-78557357D02*
X211240690Y-78890690D01*
X211716880Y-79128785D02*
X210716880Y-79128785D01*
X210716880Y-78747833D01*
X210764500Y-78652595D01*
X210812119Y-78604976D01*
X210907357Y-78557357D01*
X211050214Y-78557357D01*
X211145452Y-78604976D01*
X211193071Y-78652595D01*
X211240690Y-78747833D01*
X211240690Y-79128785D01*
X210812119Y-78176404D02*
X210764500Y-78128785D01*
X210716880Y-78033547D01*
X210716880Y-77795452D01*
X210764500Y-77700214D01*
X210812119Y-77652595D01*
X210907357Y-77604976D01*
X211002595Y-77604976D01*
X211145452Y-77652595D01*
X211716880Y-78224023D01*
X211716880Y-77604976D01*
X211716880Y-76652595D02*
X211716880Y-77224023D01*
X211716880Y-76938309D02*
X210716880Y-76938309D01*
X210859738Y-77033547D01*
X210954976Y-77128785D01*
X211002595Y-77224023D01*
%TO.C,R20*%
X211716880Y-75445857D02*
X211240690Y-75779190D01*
X211716880Y-76017285D02*
X210716880Y-76017285D01*
X210716880Y-75636333D01*
X210764500Y-75541095D01*
X210812119Y-75493476D01*
X210907357Y-75445857D01*
X211050214Y-75445857D01*
X211145452Y-75493476D01*
X211193071Y-75541095D01*
X211240690Y-75636333D01*
X211240690Y-76017285D01*
X210812119Y-75064904D02*
X210764500Y-75017285D01*
X210716880Y-74922047D01*
X210716880Y-74683952D01*
X210764500Y-74588714D01*
X210812119Y-74541095D01*
X210907357Y-74493476D01*
X211002595Y-74493476D01*
X211145452Y-74541095D01*
X211716880Y-75112523D01*
X211716880Y-74493476D01*
X210716880Y-73874428D02*
X210716880Y-73779190D01*
X210764500Y-73683952D01*
X210812119Y-73636333D01*
X210907357Y-73588714D01*
X211097833Y-73541095D01*
X211335928Y-73541095D01*
X211526404Y-73588714D01*
X211621642Y-73636333D01*
X211669261Y-73683952D01*
X211716880Y-73779190D01*
X211716880Y-73874428D01*
X211669261Y-73969666D01*
X211621642Y-74017285D01*
X211526404Y-74064904D01*
X211335928Y-74112523D01*
X211097833Y-74112523D01*
X210907357Y-74064904D01*
X210812119Y-74017285D01*
X210764500Y-73969666D01*
X210716880Y-73874428D01*
%TO.C,R19*%
X201333380Y-79192357D02*
X200857190Y-79525690D01*
X201333380Y-79763785D02*
X200333380Y-79763785D01*
X200333380Y-79382833D01*
X200381000Y-79287595D01*
X200428619Y-79239976D01*
X200523857Y-79192357D01*
X200666714Y-79192357D01*
X200761952Y-79239976D01*
X200809571Y-79287595D01*
X200857190Y-79382833D01*
X200857190Y-79763785D01*
X201333380Y-78239976D02*
X201333380Y-78811404D01*
X201333380Y-78525690D02*
X200333380Y-78525690D01*
X200476238Y-78620928D01*
X200571476Y-78716166D01*
X200619095Y-78811404D01*
X201333380Y-77763785D02*
X201333380Y-77573309D01*
X201285761Y-77478071D01*
X201238142Y-77430452D01*
X201095285Y-77335214D01*
X200904809Y-77287595D01*
X200523857Y-77287595D01*
X200428619Y-77335214D01*
X200381000Y-77382833D01*
X200333380Y-77478071D01*
X200333380Y-77668547D01*
X200381000Y-77763785D01*
X200428619Y-77811404D01*
X200523857Y-77859023D01*
X200761952Y-77859023D01*
X200857190Y-77811404D01*
X200904809Y-77763785D01*
X200952428Y-77668547D01*
X200952428Y-77478071D01*
X200904809Y-77382833D01*
X200857190Y-77335214D01*
X200761952Y-77287595D01*
%TD*%
M02*
