%TF.GenerationSoftware,KiCad,Pcbnew,(5.1.6-0-10_14)*%
%TF.CreationDate,2021-03-26T18:44:24-04:00*%
%TF.ProjectId,lowstepper_hardware,6c6f7773-7465-4707-9065-725f68617264,rev?*%
%TF.SameCoordinates,Original*%
%TF.FileFunction,Soldermask,Bot*%
%TF.FilePolarity,Negative*%
%FSLAX46Y46*%
G04 Gerber Fmt 4.6, Leading zero omitted, Abs format (unit mm)*
G04 Created by KiCad (PCBNEW (5.1.6-0-10_14)) date 2021-03-26 18:44:24*
%MOMM*%
%LPD*%
G01*
G04 APERTURE LIST*
%ADD10R,1.800000X1.800000*%
%ADD11C,1.800000*%
%ADD12O,2.720000X3.240000*%
%ADD13O,2.216000X1.108000*%
%ADD14O,2.016000X1.008000*%
%ADD15O,1.700000X1.700000*%
%ADD16R,1.700000X1.700000*%
%ADD17C,1.600000*%
%ADD18R,1.600000X1.600000*%
G04 APERTURE END LIST*
D10*
%TO.C,RV6*%
X267843000Y-129921000D03*
D11*
X265343000Y-129921000D03*
X262843000Y-129921000D03*
D12*
X260543000Y-137421000D03*
X270143000Y-137421000D03*
%TD*%
D10*
%TO.C,RV3*%
X248031000Y-129921000D03*
D11*
X245531000Y-129921000D03*
X243031000Y-129921000D03*
D12*
X240731000Y-137421000D03*
X250331000Y-137421000D03*
%TD*%
D10*
%TO.C,RV2*%
X248031000Y-93789500D03*
D11*
X245531000Y-93789500D03*
X243031000Y-93789500D03*
D12*
X240731000Y-101289500D03*
X250331000Y-101289500D03*
%TD*%
D13*
%TO.C,J1*%
X270764000Y-58544000D03*
X270764000Y-61644000D03*
D14*
X270764000Y-69944000D03*
%TD*%
D13*
%TO.C,J2*%
X270764000Y-72768000D03*
X270764000Y-75868000D03*
D14*
X270764000Y-84168000D03*
%TD*%
D13*
%TO.C,J3*%
X270764000Y-30096000D03*
X270764000Y-33196000D03*
D14*
X270764000Y-41496000D03*
%TD*%
D13*
%TO.C,J4*%
X270764000Y-44320000D03*
X270764000Y-47420000D03*
D14*
X270764000Y-55720000D03*
%TD*%
D13*
%TO.C,J5*%
X250444000Y-58544000D03*
X250444000Y-61644000D03*
D14*
X250444000Y-69944000D03*
%TD*%
D13*
%TO.C,J6*%
X240284000Y-58544000D03*
X240284000Y-61644000D03*
D14*
X240284000Y-69944000D03*
%TD*%
D13*
%TO.C,J7*%
X260604000Y-58544000D03*
X260604000Y-61644000D03*
D14*
X260604000Y-69944000D03*
%TD*%
D13*
%TO.C,J9*%
X250444000Y-72768000D03*
X250444000Y-75868000D03*
D14*
X250444000Y-84168000D03*
%TD*%
D13*
%TO.C,J10*%
X240284000Y-72768000D03*
X240284000Y-75868000D03*
D14*
X240284000Y-84168000D03*
%TD*%
D13*
%TO.C,J11*%
X260604000Y-72768000D03*
X260604000Y-75868000D03*
D14*
X260604000Y-84168000D03*
%TD*%
D13*
%TO.C,J12*%
X250444000Y-30096000D03*
X250444000Y-33196000D03*
D14*
X250444000Y-41496000D03*
%TD*%
D13*
%TO.C,J13*%
X240284000Y-30096000D03*
X240284000Y-33196000D03*
D14*
X240284000Y-41496000D03*
%TD*%
D13*
%TO.C,J14*%
X260604000Y-30096000D03*
X260604000Y-33196000D03*
D14*
X260604000Y-41496000D03*
%TD*%
D13*
%TO.C,J15*%
X250444000Y-44320000D03*
X250444000Y-47420000D03*
D14*
X250444000Y-55720000D03*
%TD*%
D13*
%TO.C,J16*%
X240284000Y-44320000D03*
X240284000Y-47420000D03*
D14*
X240284000Y-55720000D03*
%TD*%
D13*
%TO.C,J17*%
X260604000Y-44320000D03*
X260604000Y-47420000D03*
D14*
X260604000Y-55720000D03*
%TD*%
D15*
%TO.C,J19*%
X236855000Y-141605000D03*
X236855000Y-139065000D03*
X236855000Y-136525000D03*
X236855000Y-133985000D03*
X236855000Y-131445000D03*
X236855000Y-128905000D03*
X236855000Y-126365000D03*
X236855000Y-123825000D03*
X236855000Y-121285000D03*
X236855000Y-118745000D03*
X236855000Y-116205000D03*
X236855000Y-113665000D03*
X236855000Y-111125000D03*
X236855000Y-108585000D03*
X236855000Y-106045000D03*
X236855000Y-103505000D03*
X236855000Y-100965000D03*
X236855000Y-98425000D03*
X236855000Y-95885000D03*
D16*
X236855000Y-93345000D03*
%TD*%
D12*
%TO.C,RV1*%
X250291600Y-119634000D03*
X240691600Y-119634000D03*
D11*
X242991600Y-112134000D03*
X245491600Y-112134000D03*
D10*
X247991600Y-112134000D03*
%TD*%
%TO.C,RV5*%
X267843000Y-94100000D03*
D11*
X265343000Y-94100000D03*
X262843000Y-94100000D03*
D12*
X260543000Y-101600000D03*
X270143000Y-101600000D03*
%TD*%
%TO.C,RV4*%
X270077000Y-119634000D03*
X260477000Y-119634000D03*
D11*
X262777000Y-112134000D03*
X265277000Y-112134000D03*
D10*
X267777000Y-112134000D03*
%TD*%
D15*
%TO.C,J18*%
X274320000Y-141605000D03*
X274320000Y-139065000D03*
X274320000Y-136525000D03*
X274320000Y-133985000D03*
X274320000Y-131445000D03*
X274320000Y-128905000D03*
X274320000Y-126365000D03*
X274320000Y-123825000D03*
X274320000Y-121285000D03*
X274320000Y-118745000D03*
X274320000Y-116205000D03*
X274320000Y-113665000D03*
X274320000Y-111125000D03*
X274320000Y-108585000D03*
X274320000Y-106045000D03*
X274320000Y-103505000D03*
X274320000Y-100965000D03*
X274320000Y-98425000D03*
X274320000Y-95885000D03*
D16*
X274320000Y-93345000D03*
%TD*%
D17*
%TO.C,U3*%
X179276000Y-49085500D03*
X179276000Y-46545500D03*
X179276000Y-44005500D03*
X179276000Y-41465500D03*
X179276000Y-38925500D03*
X188976000Y-45275500D03*
X188976000Y-42735500D03*
X188976000Y-40195500D03*
X188976000Y-35115500D03*
X191516000Y-32575500D03*
X191516000Y-35115500D03*
X191516000Y-37655500D03*
X191516000Y-40195500D03*
X191516000Y-42735500D03*
X191516000Y-45275500D03*
X191516000Y-47815500D03*
X191516000Y-50355500D03*
X191516000Y-52895500D03*
X191516000Y-55435500D03*
X191516000Y-57975500D03*
X191516000Y-60515500D03*
X191516000Y-63055500D03*
X191516000Y-65595500D03*
X191516000Y-68135500D03*
X191516000Y-70675500D03*
D18*
X176276000Y-32575500D03*
D17*
X176276000Y-35115500D03*
X176276000Y-37655500D03*
X176276000Y-40195500D03*
X176276000Y-42735500D03*
X176276000Y-45275500D03*
X176276000Y-47815500D03*
X176276000Y-50355500D03*
X176276000Y-52895500D03*
X176276000Y-55435500D03*
X176276000Y-57975500D03*
X176276000Y-60515500D03*
X176276000Y-63055500D03*
X191516000Y-73215500D03*
X191516000Y-75755500D03*
X191516000Y-78295500D03*
X191516000Y-80835500D03*
X191516000Y-83375500D03*
X191516000Y-85915500D03*
X191516000Y-88455500D03*
X191516000Y-90995500D03*
X188976000Y-78295500D03*
X186436000Y-78295500D03*
X183896000Y-78295500D03*
X181356000Y-78295500D03*
X178816000Y-78295500D03*
X176276000Y-90995500D03*
X176276000Y-88455500D03*
X176276000Y-85915500D03*
X176276000Y-83375500D03*
X176276000Y-65595500D03*
X176276000Y-68135500D03*
X176276000Y-70675500D03*
X176276000Y-80835500D03*
X176276000Y-78295500D03*
X176276000Y-75755500D03*
X176276000Y-73215500D03*
%TD*%
D15*
%TO.C,J8*%
X209423000Y-51054000D03*
X206883000Y-51054000D03*
X209423000Y-48514000D03*
X206883000Y-48514000D03*
X209423000Y-45974000D03*
X206883000Y-45974000D03*
X209423000Y-43434000D03*
X206883000Y-43434000D03*
X209423000Y-40894000D03*
X206883000Y-40894000D03*
X209423000Y-38354000D03*
X206883000Y-38354000D03*
X209423000Y-35814000D03*
X206883000Y-35814000D03*
X209423000Y-33274000D03*
D16*
X206883000Y-33274000D03*
%TD*%
D15*
%TO.C,J20*%
X172720000Y-141605000D03*
X172720000Y-139065000D03*
X172720000Y-136525000D03*
X172720000Y-133985000D03*
X172720000Y-131445000D03*
X172720000Y-128905000D03*
X172720000Y-126365000D03*
X172720000Y-123825000D03*
X172720000Y-121285000D03*
X172720000Y-118745000D03*
X172720000Y-116205000D03*
X172720000Y-113665000D03*
X172720000Y-111125000D03*
X172720000Y-108585000D03*
X172720000Y-106045000D03*
X172720000Y-103505000D03*
X172720000Y-100965000D03*
X172720000Y-98425000D03*
X172720000Y-95885000D03*
D16*
X172720000Y-93345000D03*
%TD*%
D15*
%TO.C,J21*%
X210185000Y-141605000D03*
X210185000Y-139065000D03*
X210185000Y-136525000D03*
X210185000Y-133985000D03*
X210185000Y-131445000D03*
X210185000Y-128905000D03*
X210185000Y-126365000D03*
X210185000Y-123825000D03*
X210185000Y-121285000D03*
X210185000Y-118745000D03*
X210185000Y-116205000D03*
X210185000Y-113665000D03*
X210185000Y-111125000D03*
X210185000Y-108585000D03*
X210185000Y-106045000D03*
X210185000Y-103505000D03*
X210185000Y-100965000D03*
X210185000Y-98425000D03*
X210185000Y-95885000D03*
D16*
X210185000Y-93345000D03*
%TD*%
M02*
