%TF.GenerationSoftware,KiCad,Pcbnew,(5.1.6-0-10_14)*%
%TF.CreationDate,2021-03-26T18:44:24-04:00*%
%TF.ProjectId,lowstepper_hardware,6c6f7773-7465-4707-9065-725f68617264,rev?*%
%TF.SameCoordinates,Original*%
%TF.FileFunction,Copper,L4,Inr*%
%TF.FilePolarity,Positive*%
%FSLAX46Y46*%
G04 Gerber Fmt 4.6, Leading zero omitted, Abs format (unit mm)*
G04 Created by KiCad (PCBNEW (5.1.6-0-10_14)) date 2021-03-26 18:44:24*
%MOMM*%
%LPD*%
G01*
G04 APERTURE LIST*
%TA.AperFunction,ViaPad*%
%ADD10R,1.800000X1.800000*%
%TD*%
%TA.AperFunction,ViaPad*%
%ADD11C,1.800000*%
%TD*%
%TA.AperFunction,ViaPad*%
%ADD12O,2.720000X3.240000*%
%TD*%
%TA.AperFunction,ViaPad*%
%ADD13O,2.216000X1.108000*%
%TD*%
%TA.AperFunction,ViaPad*%
%ADD14O,2.016000X1.008000*%
%TD*%
%TA.AperFunction,ViaPad*%
%ADD15O,1.700000X1.700000*%
%TD*%
%TA.AperFunction,ViaPad*%
%ADD16R,1.700000X1.700000*%
%TD*%
%TA.AperFunction,ViaPad*%
%ADD17C,1.600000*%
%TD*%
%TA.AperFunction,ViaPad*%
%ADD18R,1.600000X1.600000*%
%TD*%
%TA.AperFunction,ViaPad*%
%ADD19C,0.800000*%
%TD*%
%TA.AperFunction,Conductor*%
%ADD20C,0.890000*%
%TD*%
%TA.AperFunction,Conductor*%
%ADD21C,0.254000*%
%TD*%
G04 APERTURE END LIST*
D10*
%TO.N,+3V3*%
%TO.C,RV6*%
X267843000Y-129921000D03*
D11*
%TO.N,POT_CHUNKS_B_TOP*%
X265343000Y-129921000D03*
%TO.N,GND*%
X262843000Y-129921000D03*
D12*
%TO.N,*%
X260543000Y-137421000D03*
X270143000Y-137421000D03*
%TD*%
D10*
%TO.N,+3V3*%
%TO.C,RV3*%
X248031000Y-129921000D03*
D11*
%TO.N,POT_CHUNKS_A_TOP*%
X245531000Y-129921000D03*
%TO.N,GND*%
X243031000Y-129921000D03*
D12*
%TO.N,*%
X240731000Y-137421000D03*
X250331000Y-137421000D03*
%TD*%
D10*
%TO.N,+3V3*%
%TO.C,RV2*%
X248031000Y-93789500D03*
D11*
%TO.N,POT_RATE_A_TOP*%
X245531000Y-93789500D03*
%TO.N,GND*%
X243031000Y-93789500D03*
D12*
%TO.N,*%
X240731000Y-101289500D03*
X250331000Y-101289500D03*
%TD*%
D13*
%TO.N,GND*%
%TO.C,J1*%
X270764000Y-58544000D03*
%TO.N,Net-(J1-Pad2)*%
X270764000Y-61644000D03*
D14*
%TO.N,OUT_A_TOP*%
X270764000Y-69944000D03*
%TD*%
D13*
%TO.N,GND*%
%TO.C,J2*%
X270764000Y-72768000D03*
%TO.N,Net-(J2-Pad2)*%
X270764000Y-75868000D03*
D14*
%TO.N,OUT_B_TOP*%
X270764000Y-84168000D03*
%TD*%
D13*
%TO.N,GND*%
%TO.C,J3*%
X270764000Y-30096000D03*
%TO.N,Net-(J3-Pad2)*%
X270764000Y-33196000D03*
D14*
%TO.N,EOC_A_TOP*%
X270764000Y-41496000D03*
%TD*%
D13*
%TO.N,GND*%
%TO.C,J4*%
X270764000Y-44320000D03*
%TO.N,Net-(J4-Pad2)*%
X270764000Y-47420000D03*
D14*
%TO.N,EOC_B_TOP*%
X270764000Y-55720000D03*
%TD*%
D13*
%TO.N,GND*%
%TO.C,J5*%
X250444000Y-58544000D03*
X250444000Y-61644000D03*
D14*
%TO.N,MORPH_A_TOP*%
X250444000Y-69944000D03*
%TD*%
D13*
%TO.N,GND*%
%TO.C,J6*%
X240284000Y-58544000D03*
X240284000Y-61644000D03*
D14*
%TO.N,RATE_A_TOP*%
X240284000Y-69944000D03*
%TD*%
D13*
%TO.N,GND*%
%TO.C,J7*%
X260604000Y-58544000D03*
X260604000Y-61644000D03*
D14*
%TO.N,CHUNKS_A_TOP*%
X260604000Y-69944000D03*
%TD*%
D13*
%TO.N,GND*%
%TO.C,J9*%
X250444000Y-72768000D03*
X250444000Y-75868000D03*
D14*
%TO.N,MORPH_B_TOP*%
X250444000Y-84168000D03*
%TD*%
D13*
%TO.N,GND*%
%TO.C,J10*%
X240284000Y-72768000D03*
X240284000Y-75868000D03*
D14*
%TO.N,RATE_B_TOP*%
X240284000Y-84168000D03*
%TD*%
D13*
%TO.N,GND*%
%TO.C,J11*%
X260604000Y-72768000D03*
X260604000Y-75868000D03*
D14*
%TO.N,CHUNKS_B_TOP*%
X260604000Y-84168000D03*
%TD*%
D13*
%TO.N,GND*%
%TO.C,J12*%
X250444000Y-30096000D03*
%TO.N,CLK_A_SENSE_TOP*%
X250444000Y-33196000D03*
D14*
%TO.N,CLK_A_TOP*%
X250444000Y-41496000D03*
%TD*%
D13*
%TO.N,GND*%
%TO.C,J13*%
X240284000Y-30096000D03*
%TO.N,TRIG_A_SENSE_TOP*%
X240284000Y-33196000D03*
D14*
%TO.N,TRIG_A_TOP*%
X240284000Y-41496000D03*
%TD*%
D13*
%TO.N,GND*%
%TO.C,J14*%
X260604000Y-30096000D03*
%TO.N,RST_A_SENSE_TOP*%
X260604000Y-33196000D03*
D14*
%TO.N,RST_A_TOP*%
X260604000Y-41496000D03*
%TD*%
D13*
%TO.N,GND*%
%TO.C,J15*%
X250444000Y-44320000D03*
%TO.N,CLK_B_SENSE_TOP*%
X250444000Y-47420000D03*
D14*
%TO.N,CLK_B_TOP*%
X250444000Y-55720000D03*
%TD*%
D13*
%TO.N,GND*%
%TO.C,J16*%
X240284000Y-44320000D03*
%TO.N,TRIG_B_SENSE_TOP*%
X240284000Y-47420000D03*
D14*
%TO.N,TRIG_B_TOP*%
X240284000Y-55720000D03*
%TD*%
D13*
%TO.N,GND*%
%TO.C,J17*%
X260604000Y-44320000D03*
%TO.N,RST_B_SENSE_TOP*%
X260604000Y-47420000D03*
D14*
%TO.N,RST_B_TOP*%
X260604000Y-55720000D03*
%TD*%
D15*
%TO.N,GND*%
%TO.C,J19*%
X236855000Y-141605000D03*
%TO.N,BTN_TOP*%
X236855000Y-139065000D03*
%TO.N,POT_CHUNKS_A_TOP*%
X236855000Y-136525000D03*
%TO.N,POT_MORPH_A_TOP*%
X236855000Y-133985000D03*
%TO.N,POT_RATE_A_TOP*%
X236855000Y-131445000D03*
%TO.N,LED_A_B_TOP*%
X236855000Y-128905000D03*
%TO.N,LED_A_G_TOP*%
X236855000Y-126365000D03*
%TO.N,LED_A_R_TOP*%
X236855000Y-123825000D03*
%TO.N,MORPH_B_TOP*%
X236855000Y-121285000D03*
%TO.N,MORPH_A_TOP*%
X236855000Y-118745000D03*
%TO.N,CLK_B_TOP*%
X236855000Y-116205000D03*
%TO.N,CLK_B_SENSE_TOP*%
X236855000Y-113665000D03*
%TO.N,CLK_A_TOP*%
X236855000Y-111125000D03*
%TO.N,CLK_A_SENSE_TOP*%
X236855000Y-108585000D03*
%TO.N,TRIG_A_TOP*%
X236855000Y-106045000D03*
%TO.N,TRIG_A_SENSE_TOP*%
X236855000Y-103505000D03*
%TO.N,TRIG_B_TOP*%
X236855000Y-100965000D03*
%TO.N,TRIG_B_SENSE_TOP*%
X236855000Y-98425000D03*
%TO.N,RATE_A_TOP*%
X236855000Y-95885000D03*
D16*
%TO.N,RATE_B_TOP*%
X236855000Y-93345000D03*
%TD*%
D12*
%TO.N,*%
%TO.C,RV1*%
X250291600Y-119634000D03*
X240691600Y-119634000D03*
D11*
%TO.N,GND*%
X242991600Y-112134000D03*
%TO.N,POT_MORPH_A_TOP*%
X245491600Y-112134000D03*
D10*
%TO.N,+3V3*%
X247991600Y-112134000D03*
%TD*%
%TO.N,+3V3*%
%TO.C,RV5*%
X267843000Y-94100000D03*
D11*
%TO.N,POT_RATE_B_TOP*%
X265343000Y-94100000D03*
%TO.N,GND*%
X262843000Y-94100000D03*
D12*
%TO.N,*%
X260543000Y-101600000D03*
X270143000Y-101600000D03*
%TD*%
%TO.N,*%
%TO.C,RV4*%
X270077000Y-119634000D03*
X260477000Y-119634000D03*
D11*
%TO.N,GND*%
X262777000Y-112134000D03*
%TO.N,POT_MORPH_B_TOP*%
X265277000Y-112134000D03*
D10*
%TO.N,+3V3*%
X267777000Y-112134000D03*
%TD*%
D15*
%TO.N,+3V3*%
%TO.C,J18*%
X274320000Y-141605000D03*
%TO.N,Net-(J18-Pad19)*%
X274320000Y-139065000D03*
%TO.N,POT_CHUNKS_B_TOP*%
X274320000Y-136525000D03*
%TO.N,POT_MORPH_B_TOP*%
X274320000Y-133985000D03*
%TO.N,POT_RATE_B_TOP*%
X274320000Y-131445000D03*
%TO.N,LED_B_B_TOP*%
X274320000Y-128905000D03*
%TO.N,LED_B_G_TOP*%
X274320000Y-126365000D03*
%TO.N,LED_B_R_TOP*%
X274320000Y-123825000D03*
%TO.N,CHUNKS_B_TOP*%
X274320000Y-121285000D03*
%TO.N,CHUNKS_A_TOP*%
X274320000Y-118745000D03*
%TO.N,RST_B_TOP*%
X274320000Y-116205000D03*
%TO.N,RST_B_SENSE_TOP*%
X274320000Y-113665000D03*
%TO.N,RST_A_TOP*%
X274320000Y-111125000D03*
%TO.N,RST_A_SENSE_TOP*%
X274320000Y-108585000D03*
%TO.N,Net-(J18-Pad6)*%
X274320000Y-106045000D03*
%TO.N,Net-(J18-Pad5)*%
X274320000Y-103505000D03*
%TO.N,EOC_A_TOP*%
X274320000Y-100965000D03*
%TO.N,EOC_B_TOP*%
X274320000Y-98425000D03*
%TO.N,OUT_A_TOP*%
X274320000Y-95885000D03*
D16*
%TO.N,OUT_B_TOP*%
X274320000Y-93345000D03*
%TD*%
D17*
%TO.N,N/C*%
%TO.C,U3*%
X179276000Y-49085500D03*
X179276000Y-46545500D03*
X179276000Y-44005500D03*
X179276000Y-41465500D03*
X179276000Y-38925500D03*
%TO.N,Net-(U3-Pad57)*%
X188976000Y-45275500D03*
%TO.N,Net-(U3-Pad56)*%
X188976000Y-42735500D03*
%TO.N,Net-(U3-Pad55)*%
X188976000Y-40195500D03*
%TO.N,Net-(U3-Pad54)*%
X188976000Y-35115500D03*
%TO.N,+5V*%
X191516000Y-32575500D03*
%TO.N,Net-(U3-Pad52)*%
X191516000Y-35115500D03*
%TO.N,+3V3*%
X191516000Y-37655500D03*
%TO.N,POT_RATE_B_BOTTOM*%
X191516000Y-40195500D03*
%TO.N,POT_MORPH_B_BOTTOM*%
X191516000Y-42735500D03*
%TO.N,POT_CHUNKS_B_BOTTOM*%
X191516000Y-45275500D03*
%TO.N,/RATE_CV_B*%
X191516000Y-47815500D03*
%TO.N,/MORPH_CV_B*%
X191516000Y-50355500D03*
%TO.N,/CHUNK_CV_B*%
X191516000Y-52895500D03*
%TO.N,RST_B_SENSE_BOTTOM*%
X191516000Y-55435500D03*
%TO.N,TRIG_B_SENSE_BOTTOM*%
X191516000Y-57975500D03*
%TO.N,CLK_B_SENSE_BOTTOM*%
X191516000Y-60515500D03*
%TO.N,BTN_BOTTOM*%
X191516000Y-63055500D03*
%TO.N,Net-(U3-Pad40)*%
X191516000Y-65595500D03*
%TO.N,GND*%
X191516000Y-68135500D03*
%TO.N,/DAC_OUT_B*%
X191516000Y-70675500D03*
D18*
%TO.N,GND*%
X176276000Y-32575500D03*
D17*
%TO.N,/EOC_A*%
X176276000Y-35115500D03*
%TO.N,/EOC_B*%
X176276000Y-37655500D03*
%TO.N,Net-(U3-Pad4)*%
X176276000Y-40195500D03*
%TO.N,LED_A_R_BOTTOM*%
X176276000Y-42735500D03*
%TO.N,LED_A_G_BOTTOM*%
X176276000Y-45275500D03*
%TO.N,LED_A_B_BOTTOM*%
X176276000Y-47815500D03*
%TO.N,LED_B_R_BOTTOM*%
X176276000Y-50355500D03*
%TO.N,Net-(U3-Pad9)*%
X176276000Y-52895500D03*
%TO.N,Net-(U3-Pad10)*%
X176276000Y-55435500D03*
%TO.N,LED_B_G_BOTTOM*%
X176276000Y-57975500D03*
%TO.N,LED_B_B_BOTTOM*%
X176276000Y-60515500D03*
%TO.N,Net-(U3-Pad13)*%
X176276000Y-63055500D03*
%TO.N,/DAC_OUT_A*%
X191516000Y-73215500D03*
%TO.N,Net-(U3-Pad36)*%
X191516000Y-75755500D03*
%TO.N,/CHUNK_CV_A*%
X191516000Y-78295500D03*
%TO.N,/MORPH_CV_A*%
X191516000Y-80835500D03*
%TO.N,/RATE_CV_A*%
X191516000Y-83375500D03*
%TO.N,POT_CHUNKS_A_BOTTOM*%
X191516000Y-85915500D03*
%TO.N,POT_MORPH_A_BOTTOM*%
X191516000Y-88455500D03*
%TO.N,POT_RATE_A_BOTTOM*%
X191516000Y-90995500D03*
%TO.N,Net-(U3-Pad29)*%
X188976000Y-78295500D03*
%TO.N,Net-(U3-Pad28)*%
X186436000Y-78295500D03*
%TO.N,GND*%
X183896000Y-78295500D03*
%TO.N,Net-(U3-Pad26)*%
X181356000Y-78295500D03*
%TO.N,Net-(U3-Pad25)*%
X178816000Y-78295500D03*
%TO.N,RST_A_SENSE_BOTTOM*%
X176276000Y-90995500D03*
%TO.N,TRIG_A_SENSE_BOTTOM*%
X176276000Y-88455500D03*
%TO.N,CLK_A_SENSE_BOTTOM*%
X176276000Y-85915500D03*
%TO.N,/RESET_IN_B*%
X176276000Y-83375500D03*
%TO.N,Net-(U3-Pad14)*%
X176276000Y-65595500D03*
%TO.N,Net-(U3-Pad15)*%
X176276000Y-68135500D03*
%TO.N,/CLK_IN_A*%
X176276000Y-70675500D03*
%TO.N,/TRIG_IN_B*%
X176276000Y-80835500D03*
%TO.N,/CLK_IN_B*%
X176276000Y-78295500D03*
%TO.N,/RESET_IN_A*%
X176276000Y-75755500D03*
%TO.N,/TRIG_IN_A*%
X176276000Y-73215500D03*
%TD*%
D15*
%TO.N,Net-(J8-Pad16)*%
%TO.C,J8*%
X209423000Y-51054000D03*
%TO.N,Net-(J8-Pad15)*%
X206883000Y-51054000D03*
%TO.N,Net-(J8-Pad14)*%
X209423000Y-48514000D03*
%TO.N,Net-(J8-Pad13)*%
X206883000Y-48514000D03*
%TO.N,+5V*%
X209423000Y-45974000D03*
X206883000Y-45974000D03*
%TO.N,+12V*%
X209423000Y-43434000D03*
X206883000Y-43434000D03*
%TO.N,GND*%
X209423000Y-40894000D03*
X206883000Y-40894000D03*
X209423000Y-38354000D03*
X206883000Y-38354000D03*
X209423000Y-35814000D03*
X206883000Y-35814000D03*
%TO.N,-12V*%
X209423000Y-33274000D03*
D16*
X206883000Y-33274000D03*
%TD*%
D15*
%TO.N,+3V3*%
%TO.C,J20*%
X172720000Y-141605000D03*
%TO.N,Net-(J20-Pad19)*%
X172720000Y-139065000D03*
%TO.N,POT_CHUNKS_B_BOTTOM*%
X172720000Y-136525000D03*
%TO.N,POT_MORPH_B_BOTTOM*%
X172720000Y-133985000D03*
%TO.N,POT_RATE_B_BOTTOM*%
X172720000Y-131445000D03*
%TO.N,LED_B_B_BOTTOM*%
X172720000Y-128905000D03*
%TO.N,LED_B_G_BOTTOM*%
X172720000Y-126365000D03*
%TO.N,LED_B_R_BOTTOM*%
X172720000Y-123825000D03*
%TO.N,CHUNKS_B_BOTTOM*%
X172720000Y-121285000D03*
%TO.N,CHUNKS_A_BOTTOM*%
X172720000Y-118745000D03*
%TO.N,RST_B_BOTTOM*%
X172720000Y-116205000D03*
%TO.N,RST_B_SENSE_BOTTOM*%
X172720000Y-113665000D03*
%TO.N,RST_A_BOTTOM*%
X172720000Y-111125000D03*
%TO.N,RST_A_SENSE_BOTTOM*%
X172720000Y-108585000D03*
%TO.N,Net-(J20-Pad6)*%
X172720000Y-106045000D03*
%TO.N,Net-(J20-Pad5)*%
X172720000Y-103505000D03*
%TO.N,EOC_A_BOTTOM*%
X172720000Y-100965000D03*
%TO.N,EOC_B_BOTTOM*%
X172720000Y-98425000D03*
%TO.N,OUT_A_BOTTOM*%
X172720000Y-95885000D03*
D16*
%TO.N,OUT_B_BOTTOM*%
X172720000Y-93345000D03*
%TD*%
D15*
%TO.N,GND*%
%TO.C,J21*%
X210185000Y-141605000D03*
%TO.N,BTN_BOTTOM*%
X210185000Y-139065000D03*
%TO.N,POT_CHUNKS_A_BOTTOM*%
X210185000Y-136525000D03*
%TO.N,POT_MORPH_A_BOTTOM*%
X210185000Y-133985000D03*
%TO.N,POT_RATE_A_BOTTOM*%
X210185000Y-131445000D03*
%TO.N,LED_A_B_BOTTOM*%
X210185000Y-128905000D03*
%TO.N,LED_A_G_BOTTOM*%
X210185000Y-126365000D03*
%TO.N,LED_A_R_BOTTOM*%
X210185000Y-123825000D03*
%TO.N,MORPH_B_BOTTOM*%
X210185000Y-121285000D03*
%TO.N,MORPH_A_BOTTOM*%
X210185000Y-118745000D03*
%TO.N,CLK_B_BOTTOM*%
X210185000Y-116205000D03*
%TO.N,CLK_B_SENSE_BOTTOM*%
X210185000Y-113665000D03*
%TO.N,CLK_A_BOTTOM*%
X210185000Y-111125000D03*
%TO.N,CLK_A_SENSE_BOTTOM*%
X210185000Y-108585000D03*
%TO.N,TRIG_A_BOTTOM*%
X210185000Y-106045000D03*
%TO.N,TRIG_A_SENSE_BOTTOM*%
X210185000Y-103505000D03*
%TO.N,TRIG_B_BOTTOM*%
X210185000Y-100965000D03*
%TO.N,TRIG_B_SENSE_BOTTOM*%
X210185000Y-98425000D03*
%TO.N,RATE_A_BOTTOM*%
X210185000Y-95885000D03*
D16*
%TO.N,RATE_B_BOTTOM*%
X210185000Y-93345000D03*
%TD*%
D19*
%TO.N,GND*%
X203263500Y-125666500D03*
X201295000Y-102870000D03*
X209931000Y-82486500D03*
X201295000Y-96774000D03*
X193040000Y-100330000D03*
X202819000Y-90932000D03*
X187198000Y-122174000D03*
X192024000Y-124460000D03*
X181102000Y-135509000D03*
X191770000Y-133985000D03*
X202565000Y-135255000D03*
X192405000Y-111125000D03*
X194310000Y-109855000D03*
X248920041Y-88415999D03*
X241363500Y-90614500D03*
%TO.N,+3V3*%
X204470000Y-135255000D03*
X194310000Y-135255000D03*
X183515000Y-135255000D03*
X183515000Y-125730000D03*
X194310000Y-125730000D03*
X204470000Y-125730000D03*
X193206116Y-107735000D03*
X196850000Y-97155000D03*
X209550000Y-83820000D03*
%TO.N,/EOC_A*%
X184150000Y-41910000D03*
X180975000Y-38735000D03*
X201295000Y-87630000D03*
X189230000Y-76200000D03*
%TO.N,/EOC_B*%
X209550000Y-64135000D03*
%TO.N,+5V*%
X200660000Y-41910000D03*
X200025000Y-46990000D03*
X209677000Y-71247000D03*
%TO.N,/RATE_CV_B*%
X195656367Y-93215191D03*
X195677459Y-96676541D03*
X188722000Y-96266000D03*
%TO.N,/MORPH_CV_B*%
X194657041Y-93251959D03*
%TO.N,/CHUNK_CV_B*%
X198120000Y-95250000D03*
%TO.N,/CHUNK_CV_A*%
X181229000Y-111252000D03*
X181208065Y-114193935D03*
%TO.N,/RATE_CV_A*%
X181102000Y-83693000D03*
%TO.N,/TRIG_IN_B*%
X175475000Y-92475999D03*
%TO.N,/CLK_IN_B*%
X174625000Y-109855000D03*
%TO.N,/RESET_IN_A*%
X180086000Y-82550000D03*
%TO.N,/TRIG_IN_A*%
X178376001Y-74041000D03*
%TO.N,/AREF_-10V*%
X204470000Y-97155000D03*
X202565000Y-54610000D03*
%TO.N,-12V*%
X208280000Y-82550000D03*
X204089000Y-53086000D03*
%TO.N,+12V*%
X201930000Y-73660000D03*
%TO.N,/Morph_CV_A_cct/AREF_-10V*%
X185086688Y-104511228D03*
%TO.N,/Rate_CV_A_cct/AREF_-10V*%
X182346647Y-112928353D03*
%TO.N,/Chunks_CV_A_cct/AREF_-10V*%
X204470000Y-113665000D03*
%TO.N,/Morph_CV_B_cct/AREF_-10V*%
X204470000Y-105410000D03*
%TO.N,/Rate_CV_B_cct/AREF_-10V*%
X182968000Y-97155000D03*
%TO.N,/Chunks_CV_B_cct/AREF_-10V*%
X204470000Y-99060000D03*
%TO.N,POT_RATE_A_TOP*%
X246623693Y-100472093D03*
%TO.N,LED_A_B_TOP*%
X255016000Y-88392000D03*
%TO.N,LED_A_R_TOP*%
X253873000Y-91186000D03*
%TO.N,LED_B_G_BOTTOM*%
X172720000Y-61595000D03*
%TO.N,CHUNKS_A_BOTTOM*%
X182880000Y-116648020D03*
%TO.N,RST_B_BOTTOM*%
X198120000Y-135890000D03*
%TO.N,RST_A_BOTTOM*%
X197700000Y-124460000D03*
%TO.N,EOC_A_BOTTOM*%
X203200000Y-102870000D03*
%TO.N,EOC_B_BOTTOM*%
X210185000Y-88265000D03*
%TO.N,OUT_A_BOTTOM*%
X200660000Y-77470000D03*
X196357042Y-88900000D03*
X192825000Y-92710000D03*
%TO.N,OUT_B_BOTTOM*%
X184785000Y-93980000D03*
X196850000Y-80010000D03*
X196850000Y-76835000D03*
%TO.N,POT_RATE_B_TOP*%
X272169999Y-129413000D03*
%TO.N,RST_A_TOP*%
X268605000Y-89535000D03*
X265249015Y-85905986D03*
%TO.N,CHUNKS_B_BOTTOM*%
X183515000Y-118530000D03*
X198120000Y-116840000D03*
X206100465Y-109188688D03*
X203835000Y-100965000D03*
%TO.N,RST_B_SENSE_BOTTOM*%
X182274541Y-85119541D03*
%TO.N,MORPH_A_BOTTOM*%
X186690000Y-111125000D03*
%TO.N,RATE_A_BOTTOM*%
X182880000Y-103720000D03*
%TO.N,CLK_A_SENSE_BOTTOM*%
X198120000Y-108585000D03*
X185420000Y-90170000D03*
%TO.N,POT_CHUNKS_A_BOTTOM*%
X200025000Y-88265000D03*
%TO.N,POT_MORPH_A_BOTTOM*%
X195505005Y-119454995D03*
X207495010Y-131445000D03*
%TO.N,POT_RATE_A_BOTTOM*%
X194945000Y-117498020D03*
%TO.N,LED_A_B_BOTTOM*%
X188595000Y-55880000D03*
%TO.N,LED_A_G_BOTTOM*%
X203200000Y-93980000D03*
%TO.N,MORPH_B_BOTTOM*%
X206094990Y-119380000D03*
%TO.N,TRIG_A_SENSE_BOTTOM*%
X183515000Y-89535000D03*
X183001488Y-100671030D03*
%TO.N,TRIG_B_BOTTOM*%
X196850000Y-133973002D03*
%TO.N,RATE_B_BOTTOM*%
X208280000Y-99060000D03*
X194220209Y-103720000D03*
%TO.N,BTN_TOP*%
X255524000Y-87376000D03*
%TD*%
D20*
%TO.N,+3V3*%
X191516000Y-37655500D02*
X191516000Y-37846000D01*
X206375000Y-52705000D02*
X206375000Y-83820000D01*
X206375000Y-83820000D02*
X206375000Y-97155000D01*
X173990000Y-141605000D02*
X177800000Y-137795000D01*
X172720000Y-141605000D02*
X173990000Y-141605000D01*
X192427602Y-37846000D02*
X201070001Y-46488399D01*
X201070001Y-47400001D02*
X206375000Y-52705000D01*
X201070001Y-46488399D02*
X201070001Y-47400001D01*
X191516000Y-37846000D02*
X192427602Y-37846000D01*
X273812000Y-141859000D02*
X271208500Y-141859000D01*
X274320000Y-141605000D02*
X274320000Y-141351000D01*
X274320000Y-141351000D02*
X273812000Y-141859000D01*
X248031000Y-93789500D02*
X249872500Y-93789500D01*
X206375000Y-83820000D02*
X209550000Y-83820000D01*
%TD*%
D21*
%TO.N,+3V3*%
G36*
X187687000Y-96164061D02*
G01*
X187687000Y-96367939D01*
X187726774Y-96567898D01*
X187804795Y-96756256D01*
X187918063Y-96925774D01*
X188062226Y-97069937D01*
X188231744Y-97183205D01*
X188420102Y-97261226D01*
X188620061Y-97301000D01*
X188823939Y-97301000D01*
X189023898Y-97261226D01*
X189212256Y-97183205D01*
X189381774Y-97069937D01*
X189525937Y-96925774D01*
X189639205Y-96756256D01*
X189717226Y-96567898D01*
X189757000Y-96367939D01*
X189757000Y-96164061D01*
X189726753Y-96012000D01*
X194878289Y-96012000D01*
X194873522Y-96016767D01*
X194760254Y-96186285D01*
X194682233Y-96374643D01*
X194642459Y-96574602D01*
X194642459Y-96778480D01*
X194682233Y-96978439D01*
X194760254Y-97166797D01*
X194873522Y-97336315D01*
X195017685Y-97480478D01*
X195187203Y-97593746D01*
X195375561Y-97671767D01*
X195575520Y-97711541D01*
X195779398Y-97711541D01*
X195979357Y-97671767D01*
X196167715Y-97593746D01*
X196337233Y-97480478D01*
X196481396Y-97336315D01*
X196594664Y-97166797D01*
X196672685Y-96978439D01*
X196712459Y-96778480D01*
X196712459Y-96574602D01*
X196672685Y-96374643D01*
X196594664Y-96186285D01*
X196481396Y-96016767D01*
X196476629Y-96012000D01*
X197418289Y-96012000D01*
X197460226Y-96053937D01*
X197629744Y-96167205D01*
X197818102Y-96245226D01*
X198018061Y-96285000D01*
X198221939Y-96285000D01*
X198421898Y-96245226D01*
X198610256Y-96167205D01*
X198779774Y-96053937D01*
X198821711Y-96012000D01*
X200593289Y-96012000D01*
X200491063Y-96114226D01*
X200377795Y-96283744D01*
X200299774Y-96472102D01*
X200260000Y-96672061D01*
X200260000Y-96875939D01*
X200299774Y-97075898D01*
X200377795Y-97264256D01*
X200491063Y-97433774D01*
X200635226Y-97577937D01*
X200804744Y-97691205D01*
X200993102Y-97769226D01*
X201193061Y-97809000D01*
X201396939Y-97809000D01*
X201596898Y-97769226D01*
X201785256Y-97691205D01*
X201954774Y-97577937D01*
X202098937Y-97433774D01*
X202212205Y-97264256D01*
X202290226Y-97075898D01*
X202330000Y-96875939D01*
X202330000Y-96672061D01*
X202290226Y-96472102D01*
X202212205Y-96283744D01*
X202098937Y-96114226D01*
X201996711Y-96012000D01*
X207518000Y-96012000D01*
X207518000Y-98358289D01*
X207476063Y-98400226D01*
X207362795Y-98569744D01*
X207284774Y-98758102D01*
X207245000Y-98958061D01*
X207245000Y-99161939D01*
X207284774Y-99361898D01*
X207362795Y-99550256D01*
X207476063Y-99719774D01*
X207518000Y-99761711D01*
X207518000Y-130410000D01*
X207393071Y-130410000D01*
X207193112Y-130449774D01*
X207004754Y-130527795D01*
X206835236Y-130641063D01*
X206691073Y-130785226D01*
X206577805Y-130954744D01*
X206499784Y-131143102D01*
X206460010Y-131343061D01*
X206460010Y-131546939D01*
X206499784Y-131746898D01*
X206577805Y-131935256D01*
X206691073Y-132104774D01*
X206835236Y-132248937D01*
X207004754Y-132362205D01*
X207193112Y-132440226D01*
X207393071Y-132480000D01*
X207518000Y-132480000D01*
X207518000Y-138303000D01*
X176657000Y-138303000D01*
X176657000Y-135407061D01*
X180067000Y-135407061D01*
X180067000Y-135610939D01*
X180106774Y-135810898D01*
X180184795Y-135999256D01*
X180298063Y-136168774D01*
X180442226Y-136312937D01*
X180611744Y-136426205D01*
X180800102Y-136504226D01*
X181000061Y-136544000D01*
X181203939Y-136544000D01*
X181403898Y-136504226D01*
X181592256Y-136426205D01*
X181761774Y-136312937D01*
X181905937Y-136168774D01*
X182019205Y-135999256D01*
X182097226Y-135810898D01*
X182101768Y-135788061D01*
X197085000Y-135788061D01*
X197085000Y-135991939D01*
X197124774Y-136191898D01*
X197202795Y-136380256D01*
X197316063Y-136549774D01*
X197460226Y-136693937D01*
X197629744Y-136807205D01*
X197818102Y-136885226D01*
X198018061Y-136925000D01*
X198221939Y-136925000D01*
X198421898Y-136885226D01*
X198610256Y-136807205D01*
X198779774Y-136693937D01*
X198923937Y-136549774D01*
X199037205Y-136380256D01*
X199115226Y-136191898D01*
X199155000Y-135991939D01*
X199155000Y-135788061D01*
X199115226Y-135588102D01*
X199037205Y-135399744D01*
X198923937Y-135230226D01*
X198846772Y-135153061D01*
X201530000Y-135153061D01*
X201530000Y-135356939D01*
X201569774Y-135556898D01*
X201647795Y-135745256D01*
X201761063Y-135914774D01*
X201905226Y-136058937D01*
X202074744Y-136172205D01*
X202263102Y-136250226D01*
X202463061Y-136290000D01*
X202666939Y-136290000D01*
X202866898Y-136250226D01*
X203055256Y-136172205D01*
X203224774Y-136058937D01*
X203368937Y-135914774D01*
X203482205Y-135745256D01*
X203560226Y-135556898D01*
X203600000Y-135356939D01*
X203600000Y-135153061D01*
X203560226Y-134953102D01*
X203482205Y-134764744D01*
X203368937Y-134595226D01*
X203224774Y-134451063D01*
X203055256Y-134337795D01*
X202866898Y-134259774D01*
X202666939Y-134220000D01*
X202463061Y-134220000D01*
X202263102Y-134259774D01*
X202074744Y-134337795D01*
X201905226Y-134451063D01*
X201761063Y-134595226D01*
X201647795Y-134764744D01*
X201569774Y-134953102D01*
X201530000Y-135153061D01*
X198846772Y-135153061D01*
X198779774Y-135086063D01*
X198610256Y-134972795D01*
X198421898Y-134894774D01*
X198221939Y-134855000D01*
X198018061Y-134855000D01*
X197818102Y-134894774D01*
X197629744Y-134972795D01*
X197460226Y-135086063D01*
X197316063Y-135230226D01*
X197202795Y-135399744D01*
X197124774Y-135588102D01*
X197085000Y-135788061D01*
X182101768Y-135788061D01*
X182137000Y-135610939D01*
X182137000Y-135407061D01*
X182097226Y-135207102D01*
X182019205Y-135018744D01*
X181905937Y-134849226D01*
X181761774Y-134705063D01*
X181592256Y-134591795D01*
X181403898Y-134513774D01*
X181203939Y-134474000D01*
X181000061Y-134474000D01*
X180800102Y-134513774D01*
X180611744Y-134591795D01*
X180442226Y-134705063D01*
X180298063Y-134849226D01*
X180184795Y-135018744D01*
X180106774Y-135207102D01*
X180067000Y-135407061D01*
X176657000Y-135407061D01*
X176657000Y-133883061D01*
X190735000Y-133883061D01*
X190735000Y-134086939D01*
X190774774Y-134286898D01*
X190852795Y-134475256D01*
X190966063Y-134644774D01*
X191110226Y-134788937D01*
X191279744Y-134902205D01*
X191468102Y-134980226D01*
X191668061Y-135020000D01*
X191871939Y-135020000D01*
X192071898Y-134980226D01*
X192260256Y-134902205D01*
X192429774Y-134788937D01*
X192573937Y-134644774D01*
X192687205Y-134475256D01*
X192765226Y-134286898D01*
X192805000Y-134086939D01*
X192805000Y-133883061D01*
X192802614Y-133871063D01*
X195815000Y-133871063D01*
X195815000Y-134074941D01*
X195854774Y-134274900D01*
X195932795Y-134463258D01*
X196046063Y-134632776D01*
X196190226Y-134776939D01*
X196359744Y-134890207D01*
X196548102Y-134968228D01*
X196748061Y-135008002D01*
X196951939Y-135008002D01*
X197151898Y-134968228D01*
X197340256Y-134890207D01*
X197509774Y-134776939D01*
X197653937Y-134632776D01*
X197767205Y-134463258D01*
X197845226Y-134274900D01*
X197885000Y-134074941D01*
X197885000Y-133871063D01*
X197845226Y-133671104D01*
X197767205Y-133482746D01*
X197653937Y-133313228D01*
X197509774Y-133169065D01*
X197340256Y-133055797D01*
X197151898Y-132977776D01*
X196951939Y-132938002D01*
X196748061Y-132938002D01*
X196548102Y-132977776D01*
X196359744Y-133055797D01*
X196190226Y-133169065D01*
X196046063Y-133313228D01*
X195932795Y-133482746D01*
X195854774Y-133671104D01*
X195815000Y-133871063D01*
X192802614Y-133871063D01*
X192765226Y-133683102D01*
X192687205Y-133494744D01*
X192573937Y-133325226D01*
X192429774Y-133181063D01*
X192260256Y-133067795D01*
X192071898Y-132989774D01*
X191871939Y-132950000D01*
X191668061Y-132950000D01*
X191468102Y-132989774D01*
X191279744Y-133067795D01*
X191110226Y-133181063D01*
X190966063Y-133325226D01*
X190852795Y-133494744D01*
X190774774Y-133683102D01*
X190735000Y-133883061D01*
X176657000Y-133883061D01*
X176657000Y-125564561D01*
X202228500Y-125564561D01*
X202228500Y-125768439D01*
X202268274Y-125968398D01*
X202346295Y-126156756D01*
X202459563Y-126326274D01*
X202603726Y-126470437D01*
X202773244Y-126583705D01*
X202961602Y-126661726D01*
X203161561Y-126701500D01*
X203365439Y-126701500D01*
X203565398Y-126661726D01*
X203753756Y-126583705D01*
X203923274Y-126470437D01*
X204067437Y-126326274D01*
X204180705Y-126156756D01*
X204258726Y-125968398D01*
X204298500Y-125768439D01*
X204298500Y-125564561D01*
X204258726Y-125364602D01*
X204180705Y-125176244D01*
X204067437Y-125006726D01*
X203923274Y-124862563D01*
X203753756Y-124749295D01*
X203565398Y-124671274D01*
X203365439Y-124631500D01*
X203161561Y-124631500D01*
X202961602Y-124671274D01*
X202773244Y-124749295D01*
X202603726Y-124862563D01*
X202459563Y-125006726D01*
X202346295Y-125176244D01*
X202268274Y-125364602D01*
X202228500Y-125564561D01*
X176657000Y-125564561D01*
X176657000Y-124358061D01*
X190989000Y-124358061D01*
X190989000Y-124561939D01*
X191028774Y-124761898D01*
X191106795Y-124950256D01*
X191220063Y-125119774D01*
X191364226Y-125263937D01*
X191533744Y-125377205D01*
X191722102Y-125455226D01*
X191922061Y-125495000D01*
X192125939Y-125495000D01*
X192325898Y-125455226D01*
X192514256Y-125377205D01*
X192683774Y-125263937D01*
X192827937Y-125119774D01*
X192941205Y-124950256D01*
X193019226Y-124761898D01*
X193059000Y-124561939D01*
X193059000Y-124358061D01*
X196665000Y-124358061D01*
X196665000Y-124561939D01*
X196704774Y-124761898D01*
X196782795Y-124950256D01*
X196896063Y-125119774D01*
X197040226Y-125263937D01*
X197209744Y-125377205D01*
X197398102Y-125455226D01*
X197598061Y-125495000D01*
X197801939Y-125495000D01*
X198001898Y-125455226D01*
X198190256Y-125377205D01*
X198359774Y-125263937D01*
X198503937Y-125119774D01*
X198617205Y-124950256D01*
X198695226Y-124761898D01*
X198735000Y-124561939D01*
X198735000Y-124358061D01*
X198695226Y-124158102D01*
X198617205Y-123969744D01*
X198503937Y-123800226D01*
X198359774Y-123656063D01*
X198190256Y-123542795D01*
X198001898Y-123464774D01*
X197801939Y-123425000D01*
X197598061Y-123425000D01*
X197398102Y-123464774D01*
X197209744Y-123542795D01*
X197040226Y-123656063D01*
X196896063Y-123800226D01*
X196782795Y-123969744D01*
X196704774Y-124158102D01*
X196665000Y-124358061D01*
X193059000Y-124358061D01*
X193019226Y-124158102D01*
X192941205Y-123969744D01*
X192827937Y-123800226D01*
X192683774Y-123656063D01*
X192514256Y-123542795D01*
X192325898Y-123464774D01*
X192125939Y-123425000D01*
X191922061Y-123425000D01*
X191722102Y-123464774D01*
X191533744Y-123542795D01*
X191364226Y-123656063D01*
X191220063Y-123800226D01*
X191106795Y-123969744D01*
X191028774Y-124158102D01*
X190989000Y-124358061D01*
X176657000Y-124358061D01*
X176657000Y-122072061D01*
X186163000Y-122072061D01*
X186163000Y-122275939D01*
X186202774Y-122475898D01*
X186280795Y-122664256D01*
X186394063Y-122833774D01*
X186538226Y-122977937D01*
X186707744Y-123091205D01*
X186896102Y-123169226D01*
X187096061Y-123209000D01*
X187299939Y-123209000D01*
X187499898Y-123169226D01*
X187688256Y-123091205D01*
X187857774Y-122977937D01*
X188001937Y-122833774D01*
X188115205Y-122664256D01*
X188193226Y-122475898D01*
X188233000Y-122275939D01*
X188233000Y-122072061D01*
X188193226Y-121872102D01*
X188115205Y-121683744D01*
X188001937Y-121514226D01*
X187857774Y-121370063D01*
X187688256Y-121256795D01*
X187499898Y-121178774D01*
X187299939Y-121139000D01*
X187096061Y-121139000D01*
X186896102Y-121178774D01*
X186707744Y-121256795D01*
X186538226Y-121370063D01*
X186394063Y-121514226D01*
X186280795Y-121683744D01*
X186202774Y-121872102D01*
X186163000Y-122072061D01*
X176657000Y-122072061D01*
X176657000Y-116546081D01*
X181845000Y-116546081D01*
X181845000Y-116749959D01*
X181884774Y-116949918D01*
X181962795Y-117138276D01*
X182076063Y-117307794D01*
X182220226Y-117451957D01*
X182389744Y-117565225D01*
X182578102Y-117643246D01*
X182778061Y-117683020D01*
X182919645Y-117683020D01*
X182855226Y-117726063D01*
X182711063Y-117870226D01*
X182597795Y-118039744D01*
X182519774Y-118228102D01*
X182480000Y-118428061D01*
X182480000Y-118631939D01*
X182519774Y-118831898D01*
X182597795Y-119020256D01*
X182711063Y-119189774D01*
X182855226Y-119333937D01*
X183024744Y-119447205D01*
X183213102Y-119525226D01*
X183413061Y-119565000D01*
X183616939Y-119565000D01*
X183816898Y-119525226D01*
X184005256Y-119447205D01*
X184174774Y-119333937D01*
X184318937Y-119189774D01*
X184432205Y-119020256D01*
X184510226Y-118831898D01*
X184550000Y-118631939D01*
X184550000Y-118428061D01*
X184510226Y-118228102D01*
X184432205Y-118039744D01*
X184318937Y-117870226D01*
X184174774Y-117726063D01*
X184005256Y-117612795D01*
X183816898Y-117534774D01*
X183616939Y-117495000D01*
X183475355Y-117495000D01*
X183539774Y-117451957D01*
X183595650Y-117396081D01*
X193910000Y-117396081D01*
X193910000Y-117599959D01*
X193949774Y-117799918D01*
X194027795Y-117988276D01*
X194141063Y-118157794D01*
X194285226Y-118301957D01*
X194454744Y-118415225D01*
X194643102Y-118493246D01*
X194843061Y-118533020D01*
X195026265Y-118533020D01*
X195014749Y-118537790D01*
X194845231Y-118651058D01*
X194701068Y-118795221D01*
X194587800Y-118964739D01*
X194509779Y-119153097D01*
X194470005Y-119353056D01*
X194470005Y-119556934D01*
X194509779Y-119756893D01*
X194587800Y-119945251D01*
X194701068Y-120114769D01*
X194845231Y-120258932D01*
X195014749Y-120372200D01*
X195203107Y-120450221D01*
X195403066Y-120489995D01*
X195606944Y-120489995D01*
X195806903Y-120450221D01*
X195995261Y-120372200D01*
X196164779Y-120258932D01*
X196308942Y-120114769D01*
X196422210Y-119945251D01*
X196500231Y-119756893D01*
X196540005Y-119556934D01*
X196540005Y-119353056D01*
X196525088Y-119278061D01*
X205059990Y-119278061D01*
X205059990Y-119481939D01*
X205099764Y-119681898D01*
X205177785Y-119870256D01*
X205291053Y-120039774D01*
X205435216Y-120183937D01*
X205604734Y-120297205D01*
X205793092Y-120375226D01*
X205993051Y-120415000D01*
X206196929Y-120415000D01*
X206396888Y-120375226D01*
X206585246Y-120297205D01*
X206754764Y-120183937D01*
X206898927Y-120039774D01*
X207012195Y-119870256D01*
X207090216Y-119681898D01*
X207129990Y-119481939D01*
X207129990Y-119278061D01*
X207090216Y-119078102D01*
X207012195Y-118889744D01*
X206898927Y-118720226D01*
X206754764Y-118576063D01*
X206585246Y-118462795D01*
X206396888Y-118384774D01*
X206196929Y-118345000D01*
X205993051Y-118345000D01*
X205793092Y-118384774D01*
X205604734Y-118462795D01*
X205435216Y-118576063D01*
X205291053Y-118720226D01*
X205177785Y-118889744D01*
X205099764Y-119078102D01*
X205059990Y-119278061D01*
X196525088Y-119278061D01*
X196500231Y-119153097D01*
X196422210Y-118964739D01*
X196308942Y-118795221D01*
X196164779Y-118651058D01*
X195995261Y-118537790D01*
X195806903Y-118459769D01*
X195606944Y-118419995D01*
X195423740Y-118419995D01*
X195435256Y-118415225D01*
X195604774Y-118301957D01*
X195748937Y-118157794D01*
X195862205Y-117988276D01*
X195940226Y-117799918D01*
X195980000Y-117599959D01*
X195980000Y-117396081D01*
X195940226Y-117196122D01*
X195862205Y-117007764D01*
X195748937Y-116838246D01*
X195648752Y-116738061D01*
X197085000Y-116738061D01*
X197085000Y-116941939D01*
X197124774Y-117141898D01*
X197202795Y-117330256D01*
X197316063Y-117499774D01*
X197460226Y-117643937D01*
X197629744Y-117757205D01*
X197818102Y-117835226D01*
X198018061Y-117875000D01*
X198221939Y-117875000D01*
X198421898Y-117835226D01*
X198610256Y-117757205D01*
X198779774Y-117643937D01*
X198923937Y-117499774D01*
X199037205Y-117330256D01*
X199115226Y-117141898D01*
X199155000Y-116941939D01*
X199155000Y-116738061D01*
X199115226Y-116538102D01*
X199037205Y-116349744D01*
X198923937Y-116180226D01*
X198779774Y-116036063D01*
X198610256Y-115922795D01*
X198421898Y-115844774D01*
X198221939Y-115805000D01*
X198018061Y-115805000D01*
X197818102Y-115844774D01*
X197629744Y-115922795D01*
X197460226Y-116036063D01*
X197316063Y-116180226D01*
X197202795Y-116349744D01*
X197124774Y-116538102D01*
X197085000Y-116738061D01*
X195648752Y-116738061D01*
X195604774Y-116694083D01*
X195435256Y-116580815D01*
X195246898Y-116502794D01*
X195046939Y-116463020D01*
X194843061Y-116463020D01*
X194643102Y-116502794D01*
X194454744Y-116580815D01*
X194285226Y-116694083D01*
X194141063Y-116838246D01*
X194027795Y-117007764D01*
X193949774Y-117196122D01*
X193910000Y-117396081D01*
X183595650Y-117396081D01*
X183683937Y-117307794D01*
X183797205Y-117138276D01*
X183875226Y-116949918D01*
X183915000Y-116749959D01*
X183915000Y-116546081D01*
X183875226Y-116346122D01*
X183797205Y-116157764D01*
X183683937Y-115988246D01*
X183539774Y-115844083D01*
X183370256Y-115730815D01*
X183181898Y-115652794D01*
X182981939Y-115613020D01*
X182778061Y-115613020D01*
X182578102Y-115652794D01*
X182389744Y-115730815D01*
X182220226Y-115844083D01*
X182076063Y-115988246D01*
X181962795Y-116157764D01*
X181884774Y-116346122D01*
X181845000Y-116546081D01*
X176657000Y-116546081D01*
X176657000Y-114091996D01*
X180173065Y-114091996D01*
X180173065Y-114295874D01*
X180212839Y-114495833D01*
X180290860Y-114684191D01*
X180404128Y-114853709D01*
X180548291Y-114997872D01*
X180717809Y-115111140D01*
X180906167Y-115189161D01*
X181106126Y-115228935D01*
X181310004Y-115228935D01*
X181509963Y-115189161D01*
X181698321Y-115111140D01*
X181867839Y-114997872D01*
X182012002Y-114853709D01*
X182125270Y-114684191D01*
X182203291Y-114495833D01*
X182243065Y-114295874D01*
X182243065Y-114091996D01*
X182216355Y-113957713D01*
X182244708Y-113963353D01*
X182448586Y-113963353D01*
X182648545Y-113923579D01*
X182836903Y-113845558D01*
X183006421Y-113732290D01*
X183150584Y-113588127D01*
X183167332Y-113563061D01*
X203435000Y-113563061D01*
X203435000Y-113766939D01*
X203474774Y-113966898D01*
X203552795Y-114155256D01*
X203666063Y-114324774D01*
X203810226Y-114468937D01*
X203979744Y-114582205D01*
X204168102Y-114660226D01*
X204368061Y-114700000D01*
X204571939Y-114700000D01*
X204771898Y-114660226D01*
X204960256Y-114582205D01*
X205129774Y-114468937D01*
X205273937Y-114324774D01*
X205387205Y-114155256D01*
X205465226Y-113966898D01*
X205505000Y-113766939D01*
X205505000Y-113563061D01*
X205465226Y-113363102D01*
X205387205Y-113174744D01*
X205273937Y-113005226D01*
X205129774Y-112861063D01*
X204960256Y-112747795D01*
X204771898Y-112669774D01*
X204571939Y-112630000D01*
X204368061Y-112630000D01*
X204168102Y-112669774D01*
X203979744Y-112747795D01*
X203810226Y-112861063D01*
X203666063Y-113005226D01*
X203552795Y-113174744D01*
X203474774Y-113363102D01*
X203435000Y-113563061D01*
X183167332Y-113563061D01*
X183263852Y-113418609D01*
X183341873Y-113230251D01*
X183381647Y-113030292D01*
X183381647Y-112826414D01*
X183341873Y-112626455D01*
X183263852Y-112438097D01*
X183150584Y-112268579D01*
X183006421Y-112124416D01*
X182836903Y-112011148D01*
X182648545Y-111933127D01*
X182448586Y-111893353D01*
X182244708Y-111893353D01*
X182044749Y-111933127D01*
X181988133Y-111956578D01*
X182032937Y-111911774D01*
X182146205Y-111742256D01*
X182224226Y-111553898D01*
X182264000Y-111353939D01*
X182264000Y-111150061D01*
X182238739Y-111023061D01*
X185655000Y-111023061D01*
X185655000Y-111226939D01*
X185694774Y-111426898D01*
X185772795Y-111615256D01*
X185886063Y-111784774D01*
X186030226Y-111928937D01*
X186199744Y-112042205D01*
X186388102Y-112120226D01*
X186588061Y-112160000D01*
X186791939Y-112160000D01*
X186991898Y-112120226D01*
X187180256Y-112042205D01*
X187349774Y-111928937D01*
X187493937Y-111784774D01*
X187607205Y-111615256D01*
X187685226Y-111426898D01*
X187725000Y-111226939D01*
X187725000Y-111023061D01*
X191370000Y-111023061D01*
X191370000Y-111226939D01*
X191409774Y-111426898D01*
X191487795Y-111615256D01*
X191601063Y-111784774D01*
X191745226Y-111928937D01*
X191914744Y-112042205D01*
X192103102Y-112120226D01*
X192303061Y-112160000D01*
X192506939Y-112160000D01*
X192706898Y-112120226D01*
X192895256Y-112042205D01*
X193064774Y-111928937D01*
X193208937Y-111784774D01*
X193322205Y-111615256D01*
X193400226Y-111426898D01*
X193440000Y-111226939D01*
X193440000Y-111023061D01*
X193400226Y-110823102D01*
X193322205Y-110634744D01*
X193208937Y-110465226D01*
X193064774Y-110321063D01*
X192895256Y-110207795D01*
X192706898Y-110129774D01*
X192506939Y-110090000D01*
X192303061Y-110090000D01*
X192103102Y-110129774D01*
X191914744Y-110207795D01*
X191745226Y-110321063D01*
X191601063Y-110465226D01*
X191487795Y-110634744D01*
X191409774Y-110823102D01*
X191370000Y-111023061D01*
X187725000Y-111023061D01*
X187685226Y-110823102D01*
X187607205Y-110634744D01*
X187493937Y-110465226D01*
X187349774Y-110321063D01*
X187180256Y-110207795D01*
X186991898Y-110129774D01*
X186791939Y-110090000D01*
X186588061Y-110090000D01*
X186388102Y-110129774D01*
X186199744Y-110207795D01*
X186030226Y-110321063D01*
X185886063Y-110465226D01*
X185772795Y-110634744D01*
X185694774Y-110823102D01*
X185655000Y-111023061D01*
X182238739Y-111023061D01*
X182224226Y-110950102D01*
X182146205Y-110761744D01*
X182032937Y-110592226D01*
X181888774Y-110448063D01*
X181719256Y-110334795D01*
X181530898Y-110256774D01*
X181330939Y-110217000D01*
X181127061Y-110217000D01*
X180927102Y-110256774D01*
X180738744Y-110334795D01*
X180569226Y-110448063D01*
X180425063Y-110592226D01*
X180311795Y-110761744D01*
X180233774Y-110950102D01*
X180194000Y-111150061D01*
X180194000Y-111353939D01*
X180233774Y-111553898D01*
X180311795Y-111742256D01*
X180425063Y-111911774D01*
X180569226Y-112055937D01*
X180738744Y-112169205D01*
X180927102Y-112247226D01*
X181127061Y-112287000D01*
X181330939Y-112287000D01*
X181530898Y-112247226D01*
X181587514Y-112223775D01*
X181542710Y-112268579D01*
X181429442Y-112438097D01*
X181351421Y-112626455D01*
X181311647Y-112826414D01*
X181311647Y-113030292D01*
X181338357Y-113164575D01*
X181310004Y-113158935D01*
X181106126Y-113158935D01*
X180906167Y-113198709D01*
X180717809Y-113276730D01*
X180548291Y-113389998D01*
X180404128Y-113534161D01*
X180290860Y-113703679D01*
X180212839Y-113892037D01*
X180173065Y-114091996D01*
X176657000Y-114091996D01*
X176657000Y-109753061D01*
X193275000Y-109753061D01*
X193275000Y-109956939D01*
X193314774Y-110156898D01*
X193392795Y-110345256D01*
X193506063Y-110514774D01*
X193650226Y-110658937D01*
X193819744Y-110772205D01*
X194008102Y-110850226D01*
X194208061Y-110890000D01*
X194411939Y-110890000D01*
X194611898Y-110850226D01*
X194800256Y-110772205D01*
X194969774Y-110658937D01*
X195113937Y-110514774D01*
X195227205Y-110345256D01*
X195305226Y-110156898D01*
X195345000Y-109956939D01*
X195345000Y-109753061D01*
X195305226Y-109553102D01*
X195227205Y-109364744D01*
X195113937Y-109195226D01*
X194969774Y-109051063D01*
X194800256Y-108937795D01*
X194611898Y-108859774D01*
X194411939Y-108820000D01*
X194208061Y-108820000D01*
X194008102Y-108859774D01*
X193819744Y-108937795D01*
X193650226Y-109051063D01*
X193506063Y-109195226D01*
X193392795Y-109364744D01*
X193314774Y-109553102D01*
X193275000Y-109753061D01*
X176657000Y-109753061D01*
X176657000Y-108483061D01*
X197085000Y-108483061D01*
X197085000Y-108686939D01*
X197124774Y-108886898D01*
X197202795Y-109075256D01*
X197316063Y-109244774D01*
X197460226Y-109388937D01*
X197629744Y-109502205D01*
X197818102Y-109580226D01*
X198018061Y-109620000D01*
X198221939Y-109620000D01*
X198421898Y-109580226D01*
X198610256Y-109502205D01*
X198779774Y-109388937D01*
X198923937Y-109244774D01*
X199029525Y-109086749D01*
X205065465Y-109086749D01*
X205065465Y-109290627D01*
X205105239Y-109490586D01*
X205183260Y-109678944D01*
X205296528Y-109848462D01*
X205440691Y-109992625D01*
X205610209Y-110105893D01*
X205798567Y-110183914D01*
X205998526Y-110223688D01*
X206202404Y-110223688D01*
X206402363Y-110183914D01*
X206590721Y-110105893D01*
X206760239Y-109992625D01*
X206904402Y-109848462D01*
X207017670Y-109678944D01*
X207095691Y-109490586D01*
X207135465Y-109290627D01*
X207135465Y-109086749D01*
X207095691Y-108886790D01*
X207017670Y-108698432D01*
X206904402Y-108528914D01*
X206760239Y-108384751D01*
X206590721Y-108271483D01*
X206402363Y-108193462D01*
X206202404Y-108153688D01*
X205998526Y-108153688D01*
X205798567Y-108193462D01*
X205610209Y-108271483D01*
X205440691Y-108384751D01*
X205296528Y-108528914D01*
X205183260Y-108698432D01*
X205105239Y-108886790D01*
X205065465Y-109086749D01*
X199029525Y-109086749D01*
X199037205Y-109075256D01*
X199115226Y-108886898D01*
X199155000Y-108686939D01*
X199155000Y-108483061D01*
X199115226Y-108283102D01*
X199037205Y-108094744D01*
X198923937Y-107925226D01*
X198779774Y-107781063D01*
X198610256Y-107667795D01*
X198421898Y-107589774D01*
X198221939Y-107550000D01*
X198018061Y-107550000D01*
X197818102Y-107589774D01*
X197629744Y-107667795D01*
X197460226Y-107781063D01*
X197316063Y-107925226D01*
X197202795Y-108094744D01*
X197124774Y-108283102D01*
X197085000Y-108483061D01*
X176657000Y-108483061D01*
X176657000Y-103618061D01*
X181845000Y-103618061D01*
X181845000Y-103821939D01*
X181884774Y-104021898D01*
X181962795Y-104210256D01*
X182076063Y-104379774D01*
X182220226Y-104523937D01*
X182389744Y-104637205D01*
X182578102Y-104715226D01*
X182778061Y-104755000D01*
X182981939Y-104755000D01*
X183181898Y-104715226D01*
X183370256Y-104637205D01*
X183539774Y-104523937D01*
X183654422Y-104409289D01*
X184051688Y-104409289D01*
X184051688Y-104613167D01*
X184091462Y-104813126D01*
X184169483Y-105001484D01*
X184282751Y-105171002D01*
X184426914Y-105315165D01*
X184596432Y-105428433D01*
X184784790Y-105506454D01*
X184984749Y-105546228D01*
X185188627Y-105546228D01*
X185388586Y-105506454D01*
X185576944Y-105428433D01*
X185746462Y-105315165D01*
X185753566Y-105308061D01*
X203435000Y-105308061D01*
X203435000Y-105511939D01*
X203474774Y-105711898D01*
X203552795Y-105900256D01*
X203666063Y-106069774D01*
X203810226Y-106213937D01*
X203979744Y-106327205D01*
X204168102Y-106405226D01*
X204368061Y-106445000D01*
X204571939Y-106445000D01*
X204771898Y-106405226D01*
X204960256Y-106327205D01*
X205129774Y-106213937D01*
X205273937Y-106069774D01*
X205387205Y-105900256D01*
X205465226Y-105711898D01*
X205505000Y-105511939D01*
X205505000Y-105308061D01*
X205465226Y-105108102D01*
X205387205Y-104919744D01*
X205273937Y-104750226D01*
X205129774Y-104606063D01*
X204960256Y-104492795D01*
X204771898Y-104414774D01*
X204571939Y-104375000D01*
X204368061Y-104375000D01*
X204168102Y-104414774D01*
X203979744Y-104492795D01*
X203810226Y-104606063D01*
X203666063Y-104750226D01*
X203552795Y-104919744D01*
X203474774Y-105108102D01*
X203435000Y-105308061D01*
X185753566Y-105308061D01*
X185890625Y-105171002D01*
X186003893Y-105001484D01*
X186081914Y-104813126D01*
X186121688Y-104613167D01*
X186121688Y-104409289D01*
X186081914Y-104209330D01*
X186003893Y-104020972D01*
X185890625Y-103851454D01*
X185746462Y-103707291D01*
X185612920Y-103618061D01*
X193185209Y-103618061D01*
X193185209Y-103821939D01*
X193224983Y-104021898D01*
X193303004Y-104210256D01*
X193416272Y-104379774D01*
X193560435Y-104523937D01*
X193729953Y-104637205D01*
X193918311Y-104715226D01*
X194118270Y-104755000D01*
X194322148Y-104755000D01*
X194522107Y-104715226D01*
X194710465Y-104637205D01*
X194879983Y-104523937D01*
X195024146Y-104379774D01*
X195137414Y-104210256D01*
X195215435Y-104021898D01*
X195255209Y-103821939D01*
X195255209Y-103618061D01*
X195215435Y-103418102D01*
X195137414Y-103229744D01*
X195024146Y-103060226D01*
X194879983Y-102916063D01*
X194710465Y-102802795D01*
X194626611Y-102768061D01*
X200260000Y-102768061D01*
X200260000Y-102971939D01*
X200299774Y-103171898D01*
X200377795Y-103360256D01*
X200491063Y-103529774D01*
X200635226Y-103673937D01*
X200804744Y-103787205D01*
X200993102Y-103865226D01*
X201193061Y-103905000D01*
X201396939Y-103905000D01*
X201596898Y-103865226D01*
X201785256Y-103787205D01*
X201954774Y-103673937D01*
X202098937Y-103529774D01*
X202212205Y-103360256D01*
X202247500Y-103275047D01*
X202282795Y-103360256D01*
X202396063Y-103529774D01*
X202540226Y-103673937D01*
X202709744Y-103787205D01*
X202898102Y-103865226D01*
X203098061Y-103905000D01*
X203301939Y-103905000D01*
X203501898Y-103865226D01*
X203690256Y-103787205D01*
X203859774Y-103673937D01*
X204003937Y-103529774D01*
X204117205Y-103360256D01*
X204195226Y-103171898D01*
X204235000Y-102971939D01*
X204235000Y-102768061D01*
X204195226Y-102568102D01*
X204117205Y-102379744D01*
X204003937Y-102210226D01*
X203859774Y-102066063D01*
X203760903Y-102000000D01*
X203936939Y-102000000D01*
X204136898Y-101960226D01*
X204325256Y-101882205D01*
X204494774Y-101768937D01*
X204638937Y-101624774D01*
X204752205Y-101455256D01*
X204830226Y-101266898D01*
X204870000Y-101066939D01*
X204870000Y-100863061D01*
X204830226Y-100663102D01*
X204752205Y-100474744D01*
X204638937Y-100305226D01*
X204494774Y-100161063D01*
X204395903Y-100095000D01*
X204571939Y-100095000D01*
X204771898Y-100055226D01*
X204960256Y-99977205D01*
X205129774Y-99863937D01*
X205273937Y-99719774D01*
X205387205Y-99550256D01*
X205465226Y-99361898D01*
X205505000Y-99161939D01*
X205505000Y-98958061D01*
X205465226Y-98758102D01*
X205387205Y-98569744D01*
X205273937Y-98400226D01*
X205129774Y-98256063D01*
X204960256Y-98142795D01*
X204875047Y-98107500D01*
X204960256Y-98072205D01*
X205129774Y-97958937D01*
X205273937Y-97814774D01*
X205387205Y-97645256D01*
X205465226Y-97456898D01*
X205505000Y-97256939D01*
X205505000Y-97053061D01*
X205465226Y-96853102D01*
X205387205Y-96664744D01*
X205273937Y-96495226D01*
X205129774Y-96351063D01*
X204960256Y-96237795D01*
X204771898Y-96159774D01*
X204571939Y-96120000D01*
X204368061Y-96120000D01*
X204168102Y-96159774D01*
X203979744Y-96237795D01*
X203810226Y-96351063D01*
X203666063Y-96495226D01*
X203552795Y-96664744D01*
X203474774Y-96853102D01*
X203435000Y-97053061D01*
X203435000Y-97256939D01*
X203474774Y-97456898D01*
X203552795Y-97645256D01*
X203666063Y-97814774D01*
X203810226Y-97958937D01*
X203979744Y-98072205D01*
X204064953Y-98107500D01*
X203979744Y-98142795D01*
X203810226Y-98256063D01*
X203666063Y-98400226D01*
X203552795Y-98569744D01*
X203474774Y-98758102D01*
X203435000Y-98958061D01*
X203435000Y-99161939D01*
X203474774Y-99361898D01*
X203552795Y-99550256D01*
X203666063Y-99719774D01*
X203810226Y-99863937D01*
X203909097Y-99930000D01*
X203733061Y-99930000D01*
X203533102Y-99969774D01*
X203344744Y-100047795D01*
X203175226Y-100161063D01*
X203031063Y-100305226D01*
X202917795Y-100474744D01*
X202839774Y-100663102D01*
X202800000Y-100863061D01*
X202800000Y-101066939D01*
X202839774Y-101266898D01*
X202917795Y-101455256D01*
X203031063Y-101624774D01*
X203175226Y-101768937D01*
X203274097Y-101835000D01*
X203098061Y-101835000D01*
X202898102Y-101874774D01*
X202709744Y-101952795D01*
X202540226Y-102066063D01*
X202396063Y-102210226D01*
X202282795Y-102379744D01*
X202247500Y-102464953D01*
X202212205Y-102379744D01*
X202098937Y-102210226D01*
X201954774Y-102066063D01*
X201785256Y-101952795D01*
X201596898Y-101874774D01*
X201396939Y-101835000D01*
X201193061Y-101835000D01*
X200993102Y-101874774D01*
X200804744Y-101952795D01*
X200635226Y-102066063D01*
X200491063Y-102210226D01*
X200377795Y-102379744D01*
X200299774Y-102568102D01*
X200260000Y-102768061D01*
X194626611Y-102768061D01*
X194522107Y-102724774D01*
X194322148Y-102685000D01*
X194118270Y-102685000D01*
X193918311Y-102724774D01*
X193729953Y-102802795D01*
X193560435Y-102916063D01*
X193416272Y-103060226D01*
X193303004Y-103229744D01*
X193224983Y-103418102D01*
X193185209Y-103618061D01*
X185612920Y-103618061D01*
X185576944Y-103594023D01*
X185388586Y-103516002D01*
X185188627Y-103476228D01*
X184984749Y-103476228D01*
X184784790Y-103516002D01*
X184596432Y-103594023D01*
X184426914Y-103707291D01*
X184282751Y-103851454D01*
X184169483Y-104020972D01*
X184091462Y-104209330D01*
X184051688Y-104409289D01*
X183654422Y-104409289D01*
X183683937Y-104379774D01*
X183797205Y-104210256D01*
X183875226Y-104021898D01*
X183915000Y-103821939D01*
X183915000Y-103618061D01*
X183875226Y-103418102D01*
X183797205Y-103229744D01*
X183683937Y-103060226D01*
X183539774Y-102916063D01*
X183370256Y-102802795D01*
X183181898Y-102724774D01*
X182981939Y-102685000D01*
X182778061Y-102685000D01*
X182578102Y-102724774D01*
X182389744Y-102802795D01*
X182220226Y-102916063D01*
X182076063Y-103060226D01*
X181962795Y-103229744D01*
X181884774Y-103418102D01*
X181845000Y-103618061D01*
X176657000Y-103618061D01*
X176657000Y-100569091D01*
X181966488Y-100569091D01*
X181966488Y-100772969D01*
X182006262Y-100972928D01*
X182084283Y-101161286D01*
X182197551Y-101330804D01*
X182341714Y-101474967D01*
X182511232Y-101588235D01*
X182699590Y-101666256D01*
X182899549Y-101706030D01*
X183103427Y-101706030D01*
X183303386Y-101666256D01*
X183491744Y-101588235D01*
X183661262Y-101474967D01*
X183805425Y-101330804D01*
X183918693Y-101161286D01*
X183996714Y-100972928D01*
X184036488Y-100772969D01*
X184036488Y-100569091D01*
X183996714Y-100369132D01*
X183938281Y-100228061D01*
X192005000Y-100228061D01*
X192005000Y-100431939D01*
X192044774Y-100631898D01*
X192122795Y-100820256D01*
X192236063Y-100989774D01*
X192380226Y-101133937D01*
X192549744Y-101247205D01*
X192738102Y-101325226D01*
X192938061Y-101365000D01*
X193141939Y-101365000D01*
X193341898Y-101325226D01*
X193530256Y-101247205D01*
X193699774Y-101133937D01*
X193843937Y-100989774D01*
X193957205Y-100820256D01*
X194035226Y-100631898D01*
X194075000Y-100431939D01*
X194075000Y-100228061D01*
X194035226Y-100028102D01*
X193957205Y-99839744D01*
X193843937Y-99670226D01*
X193699774Y-99526063D01*
X193530256Y-99412795D01*
X193341898Y-99334774D01*
X193141939Y-99295000D01*
X192938061Y-99295000D01*
X192738102Y-99334774D01*
X192549744Y-99412795D01*
X192380226Y-99526063D01*
X192236063Y-99670226D01*
X192122795Y-99839744D01*
X192044774Y-100028102D01*
X192005000Y-100228061D01*
X183938281Y-100228061D01*
X183918693Y-100180774D01*
X183805425Y-100011256D01*
X183661262Y-99867093D01*
X183491744Y-99753825D01*
X183303386Y-99675804D01*
X183103427Y-99636030D01*
X182899549Y-99636030D01*
X182699590Y-99675804D01*
X182511232Y-99753825D01*
X182341714Y-99867093D01*
X182197551Y-100011256D01*
X182084283Y-100180774D01*
X182006262Y-100369132D01*
X181966488Y-100569091D01*
X176657000Y-100569091D01*
X176657000Y-97053061D01*
X181933000Y-97053061D01*
X181933000Y-97256939D01*
X181972774Y-97456898D01*
X182050795Y-97645256D01*
X182164063Y-97814774D01*
X182308226Y-97958937D01*
X182477744Y-98072205D01*
X182666102Y-98150226D01*
X182866061Y-98190000D01*
X183069939Y-98190000D01*
X183269898Y-98150226D01*
X183458256Y-98072205D01*
X183627774Y-97958937D01*
X183771937Y-97814774D01*
X183885205Y-97645256D01*
X183963226Y-97456898D01*
X184003000Y-97256939D01*
X184003000Y-97053061D01*
X183963226Y-96853102D01*
X183885205Y-96664744D01*
X183771937Y-96495226D01*
X183627774Y-96351063D01*
X183458256Y-96237795D01*
X183269898Y-96159774D01*
X183069939Y-96120000D01*
X182866061Y-96120000D01*
X182666102Y-96159774D01*
X182477744Y-96237795D01*
X182308226Y-96351063D01*
X182164063Y-96495226D01*
X182050795Y-96664744D01*
X181972774Y-96853102D01*
X181933000Y-97053061D01*
X176657000Y-97053061D01*
X176657000Y-96012000D01*
X187717247Y-96012000D01*
X187687000Y-96164061D01*
G37*
X187687000Y-96164061D02*
X187687000Y-96367939D01*
X187726774Y-96567898D01*
X187804795Y-96756256D01*
X187918063Y-96925774D01*
X188062226Y-97069937D01*
X188231744Y-97183205D01*
X188420102Y-97261226D01*
X188620061Y-97301000D01*
X188823939Y-97301000D01*
X189023898Y-97261226D01*
X189212256Y-97183205D01*
X189381774Y-97069937D01*
X189525937Y-96925774D01*
X189639205Y-96756256D01*
X189717226Y-96567898D01*
X189757000Y-96367939D01*
X189757000Y-96164061D01*
X189726753Y-96012000D01*
X194878289Y-96012000D01*
X194873522Y-96016767D01*
X194760254Y-96186285D01*
X194682233Y-96374643D01*
X194642459Y-96574602D01*
X194642459Y-96778480D01*
X194682233Y-96978439D01*
X194760254Y-97166797D01*
X194873522Y-97336315D01*
X195017685Y-97480478D01*
X195187203Y-97593746D01*
X195375561Y-97671767D01*
X195575520Y-97711541D01*
X195779398Y-97711541D01*
X195979357Y-97671767D01*
X196167715Y-97593746D01*
X196337233Y-97480478D01*
X196481396Y-97336315D01*
X196594664Y-97166797D01*
X196672685Y-96978439D01*
X196712459Y-96778480D01*
X196712459Y-96574602D01*
X196672685Y-96374643D01*
X196594664Y-96186285D01*
X196481396Y-96016767D01*
X196476629Y-96012000D01*
X197418289Y-96012000D01*
X197460226Y-96053937D01*
X197629744Y-96167205D01*
X197818102Y-96245226D01*
X198018061Y-96285000D01*
X198221939Y-96285000D01*
X198421898Y-96245226D01*
X198610256Y-96167205D01*
X198779774Y-96053937D01*
X198821711Y-96012000D01*
X200593289Y-96012000D01*
X200491063Y-96114226D01*
X200377795Y-96283744D01*
X200299774Y-96472102D01*
X200260000Y-96672061D01*
X200260000Y-96875939D01*
X200299774Y-97075898D01*
X200377795Y-97264256D01*
X200491063Y-97433774D01*
X200635226Y-97577937D01*
X200804744Y-97691205D01*
X200993102Y-97769226D01*
X201193061Y-97809000D01*
X201396939Y-97809000D01*
X201596898Y-97769226D01*
X201785256Y-97691205D01*
X201954774Y-97577937D01*
X202098937Y-97433774D01*
X202212205Y-97264256D01*
X202290226Y-97075898D01*
X202330000Y-96875939D01*
X202330000Y-96672061D01*
X202290226Y-96472102D01*
X202212205Y-96283744D01*
X202098937Y-96114226D01*
X201996711Y-96012000D01*
X207518000Y-96012000D01*
X207518000Y-98358289D01*
X207476063Y-98400226D01*
X207362795Y-98569744D01*
X207284774Y-98758102D01*
X207245000Y-98958061D01*
X207245000Y-99161939D01*
X207284774Y-99361898D01*
X207362795Y-99550256D01*
X207476063Y-99719774D01*
X207518000Y-99761711D01*
X207518000Y-130410000D01*
X207393071Y-130410000D01*
X207193112Y-130449774D01*
X207004754Y-130527795D01*
X206835236Y-130641063D01*
X206691073Y-130785226D01*
X206577805Y-130954744D01*
X206499784Y-131143102D01*
X206460010Y-131343061D01*
X206460010Y-131546939D01*
X206499784Y-131746898D01*
X206577805Y-131935256D01*
X206691073Y-132104774D01*
X206835236Y-132248937D01*
X207004754Y-132362205D01*
X207193112Y-132440226D01*
X207393071Y-132480000D01*
X207518000Y-132480000D01*
X207518000Y-138303000D01*
X176657000Y-138303000D01*
X176657000Y-135407061D01*
X180067000Y-135407061D01*
X180067000Y-135610939D01*
X180106774Y-135810898D01*
X180184795Y-135999256D01*
X180298063Y-136168774D01*
X180442226Y-136312937D01*
X180611744Y-136426205D01*
X180800102Y-136504226D01*
X181000061Y-136544000D01*
X181203939Y-136544000D01*
X181403898Y-136504226D01*
X181592256Y-136426205D01*
X181761774Y-136312937D01*
X181905937Y-136168774D01*
X182019205Y-135999256D01*
X182097226Y-135810898D01*
X182101768Y-135788061D01*
X197085000Y-135788061D01*
X197085000Y-135991939D01*
X197124774Y-136191898D01*
X197202795Y-136380256D01*
X197316063Y-136549774D01*
X197460226Y-136693937D01*
X197629744Y-136807205D01*
X197818102Y-136885226D01*
X198018061Y-136925000D01*
X198221939Y-136925000D01*
X198421898Y-136885226D01*
X198610256Y-136807205D01*
X198779774Y-136693937D01*
X198923937Y-136549774D01*
X199037205Y-136380256D01*
X199115226Y-136191898D01*
X199155000Y-135991939D01*
X199155000Y-135788061D01*
X199115226Y-135588102D01*
X199037205Y-135399744D01*
X198923937Y-135230226D01*
X198846772Y-135153061D01*
X201530000Y-135153061D01*
X201530000Y-135356939D01*
X201569774Y-135556898D01*
X201647795Y-135745256D01*
X201761063Y-135914774D01*
X201905226Y-136058937D01*
X202074744Y-136172205D01*
X202263102Y-136250226D01*
X202463061Y-136290000D01*
X202666939Y-136290000D01*
X202866898Y-136250226D01*
X203055256Y-136172205D01*
X203224774Y-136058937D01*
X203368937Y-135914774D01*
X203482205Y-135745256D01*
X203560226Y-135556898D01*
X203600000Y-135356939D01*
X203600000Y-135153061D01*
X203560226Y-134953102D01*
X203482205Y-134764744D01*
X203368937Y-134595226D01*
X203224774Y-134451063D01*
X203055256Y-134337795D01*
X202866898Y-134259774D01*
X202666939Y-134220000D01*
X202463061Y-134220000D01*
X202263102Y-134259774D01*
X202074744Y-134337795D01*
X201905226Y-134451063D01*
X201761063Y-134595226D01*
X201647795Y-134764744D01*
X201569774Y-134953102D01*
X201530000Y-135153061D01*
X198846772Y-135153061D01*
X198779774Y-135086063D01*
X198610256Y-134972795D01*
X198421898Y-134894774D01*
X198221939Y-134855000D01*
X198018061Y-134855000D01*
X197818102Y-134894774D01*
X197629744Y-134972795D01*
X197460226Y-135086063D01*
X197316063Y-135230226D01*
X197202795Y-135399744D01*
X197124774Y-135588102D01*
X197085000Y-135788061D01*
X182101768Y-135788061D01*
X182137000Y-135610939D01*
X182137000Y-135407061D01*
X182097226Y-135207102D01*
X182019205Y-135018744D01*
X181905937Y-134849226D01*
X181761774Y-134705063D01*
X181592256Y-134591795D01*
X181403898Y-134513774D01*
X181203939Y-134474000D01*
X181000061Y-134474000D01*
X180800102Y-134513774D01*
X180611744Y-134591795D01*
X180442226Y-134705063D01*
X180298063Y-134849226D01*
X180184795Y-135018744D01*
X180106774Y-135207102D01*
X180067000Y-135407061D01*
X176657000Y-135407061D01*
X176657000Y-133883061D01*
X190735000Y-133883061D01*
X190735000Y-134086939D01*
X190774774Y-134286898D01*
X190852795Y-134475256D01*
X190966063Y-134644774D01*
X191110226Y-134788937D01*
X191279744Y-134902205D01*
X191468102Y-134980226D01*
X191668061Y-135020000D01*
X191871939Y-135020000D01*
X192071898Y-134980226D01*
X192260256Y-134902205D01*
X192429774Y-134788937D01*
X192573937Y-134644774D01*
X192687205Y-134475256D01*
X192765226Y-134286898D01*
X192805000Y-134086939D01*
X192805000Y-133883061D01*
X192802614Y-133871063D01*
X195815000Y-133871063D01*
X195815000Y-134074941D01*
X195854774Y-134274900D01*
X195932795Y-134463258D01*
X196046063Y-134632776D01*
X196190226Y-134776939D01*
X196359744Y-134890207D01*
X196548102Y-134968228D01*
X196748061Y-135008002D01*
X196951939Y-135008002D01*
X197151898Y-134968228D01*
X197340256Y-134890207D01*
X197509774Y-134776939D01*
X197653937Y-134632776D01*
X197767205Y-134463258D01*
X197845226Y-134274900D01*
X197885000Y-134074941D01*
X197885000Y-133871063D01*
X197845226Y-133671104D01*
X197767205Y-133482746D01*
X197653937Y-133313228D01*
X197509774Y-133169065D01*
X197340256Y-133055797D01*
X197151898Y-132977776D01*
X196951939Y-132938002D01*
X196748061Y-132938002D01*
X196548102Y-132977776D01*
X196359744Y-133055797D01*
X196190226Y-133169065D01*
X196046063Y-133313228D01*
X195932795Y-133482746D01*
X195854774Y-133671104D01*
X195815000Y-133871063D01*
X192802614Y-133871063D01*
X192765226Y-133683102D01*
X192687205Y-133494744D01*
X192573937Y-133325226D01*
X192429774Y-133181063D01*
X192260256Y-133067795D01*
X192071898Y-132989774D01*
X191871939Y-132950000D01*
X191668061Y-132950000D01*
X191468102Y-132989774D01*
X191279744Y-133067795D01*
X191110226Y-133181063D01*
X190966063Y-133325226D01*
X190852795Y-133494744D01*
X190774774Y-133683102D01*
X190735000Y-133883061D01*
X176657000Y-133883061D01*
X176657000Y-125564561D01*
X202228500Y-125564561D01*
X202228500Y-125768439D01*
X202268274Y-125968398D01*
X202346295Y-126156756D01*
X202459563Y-126326274D01*
X202603726Y-126470437D01*
X202773244Y-126583705D01*
X202961602Y-126661726D01*
X203161561Y-126701500D01*
X203365439Y-126701500D01*
X203565398Y-126661726D01*
X203753756Y-126583705D01*
X203923274Y-126470437D01*
X204067437Y-126326274D01*
X204180705Y-126156756D01*
X204258726Y-125968398D01*
X204298500Y-125768439D01*
X204298500Y-125564561D01*
X204258726Y-125364602D01*
X204180705Y-125176244D01*
X204067437Y-125006726D01*
X203923274Y-124862563D01*
X203753756Y-124749295D01*
X203565398Y-124671274D01*
X203365439Y-124631500D01*
X203161561Y-124631500D01*
X202961602Y-124671274D01*
X202773244Y-124749295D01*
X202603726Y-124862563D01*
X202459563Y-125006726D01*
X202346295Y-125176244D01*
X202268274Y-125364602D01*
X202228500Y-125564561D01*
X176657000Y-125564561D01*
X176657000Y-124358061D01*
X190989000Y-124358061D01*
X190989000Y-124561939D01*
X191028774Y-124761898D01*
X191106795Y-124950256D01*
X191220063Y-125119774D01*
X191364226Y-125263937D01*
X191533744Y-125377205D01*
X191722102Y-125455226D01*
X191922061Y-125495000D01*
X192125939Y-125495000D01*
X192325898Y-125455226D01*
X192514256Y-125377205D01*
X192683774Y-125263937D01*
X192827937Y-125119774D01*
X192941205Y-124950256D01*
X193019226Y-124761898D01*
X193059000Y-124561939D01*
X193059000Y-124358061D01*
X196665000Y-124358061D01*
X196665000Y-124561939D01*
X196704774Y-124761898D01*
X196782795Y-124950256D01*
X196896063Y-125119774D01*
X197040226Y-125263937D01*
X197209744Y-125377205D01*
X197398102Y-125455226D01*
X197598061Y-125495000D01*
X197801939Y-125495000D01*
X198001898Y-125455226D01*
X198190256Y-125377205D01*
X198359774Y-125263937D01*
X198503937Y-125119774D01*
X198617205Y-124950256D01*
X198695226Y-124761898D01*
X198735000Y-124561939D01*
X198735000Y-124358061D01*
X198695226Y-124158102D01*
X198617205Y-123969744D01*
X198503937Y-123800226D01*
X198359774Y-123656063D01*
X198190256Y-123542795D01*
X198001898Y-123464774D01*
X197801939Y-123425000D01*
X197598061Y-123425000D01*
X197398102Y-123464774D01*
X197209744Y-123542795D01*
X197040226Y-123656063D01*
X196896063Y-123800226D01*
X196782795Y-123969744D01*
X196704774Y-124158102D01*
X196665000Y-124358061D01*
X193059000Y-124358061D01*
X193019226Y-124158102D01*
X192941205Y-123969744D01*
X192827937Y-123800226D01*
X192683774Y-123656063D01*
X192514256Y-123542795D01*
X192325898Y-123464774D01*
X192125939Y-123425000D01*
X191922061Y-123425000D01*
X191722102Y-123464774D01*
X191533744Y-123542795D01*
X191364226Y-123656063D01*
X191220063Y-123800226D01*
X191106795Y-123969744D01*
X191028774Y-124158102D01*
X190989000Y-124358061D01*
X176657000Y-124358061D01*
X176657000Y-122072061D01*
X186163000Y-122072061D01*
X186163000Y-122275939D01*
X186202774Y-122475898D01*
X186280795Y-122664256D01*
X186394063Y-122833774D01*
X186538226Y-122977937D01*
X186707744Y-123091205D01*
X186896102Y-123169226D01*
X187096061Y-123209000D01*
X187299939Y-123209000D01*
X187499898Y-123169226D01*
X187688256Y-123091205D01*
X187857774Y-122977937D01*
X188001937Y-122833774D01*
X188115205Y-122664256D01*
X188193226Y-122475898D01*
X188233000Y-122275939D01*
X188233000Y-122072061D01*
X188193226Y-121872102D01*
X188115205Y-121683744D01*
X188001937Y-121514226D01*
X187857774Y-121370063D01*
X187688256Y-121256795D01*
X187499898Y-121178774D01*
X187299939Y-121139000D01*
X187096061Y-121139000D01*
X186896102Y-121178774D01*
X186707744Y-121256795D01*
X186538226Y-121370063D01*
X186394063Y-121514226D01*
X186280795Y-121683744D01*
X186202774Y-121872102D01*
X186163000Y-122072061D01*
X176657000Y-122072061D01*
X176657000Y-116546081D01*
X181845000Y-116546081D01*
X181845000Y-116749959D01*
X181884774Y-116949918D01*
X181962795Y-117138276D01*
X182076063Y-117307794D01*
X182220226Y-117451957D01*
X182389744Y-117565225D01*
X182578102Y-117643246D01*
X182778061Y-117683020D01*
X182919645Y-117683020D01*
X182855226Y-117726063D01*
X182711063Y-117870226D01*
X182597795Y-118039744D01*
X182519774Y-118228102D01*
X182480000Y-118428061D01*
X182480000Y-118631939D01*
X182519774Y-118831898D01*
X182597795Y-119020256D01*
X182711063Y-119189774D01*
X182855226Y-119333937D01*
X183024744Y-119447205D01*
X183213102Y-119525226D01*
X183413061Y-119565000D01*
X183616939Y-119565000D01*
X183816898Y-119525226D01*
X184005256Y-119447205D01*
X184174774Y-119333937D01*
X184318937Y-119189774D01*
X184432205Y-119020256D01*
X184510226Y-118831898D01*
X184550000Y-118631939D01*
X184550000Y-118428061D01*
X184510226Y-118228102D01*
X184432205Y-118039744D01*
X184318937Y-117870226D01*
X184174774Y-117726063D01*
X184005256Y-117612795D01*
X183816898Y-117534774D01*
X183616939Y-117495000D01*
X183475355Y-117495000D01*
X183539774Y-117451957D01*
X183595650Y-117396081D01*
X193910000Y-117396081D01*
X193910000Y-117599959D01*
X193949774Y-117799918D01*
X194027795Y-117988276D01*
X194141063Y-118157794D01*
X194285226Y-118301957D01*
X194454744Y-118415225D01*
X194643102Y-118493246D01*
X194843061Y-118533020D01*
X195026265Y-118533020D01*
X195014749Y-118537790D01*
X194845231Y-118651058D01*
X194701068Y-118795221D01*
X194587800Y-118964739D01*
X194509779Y-119153097D01*
X194470005Y-119353056D01*
X194470005Y-119556934D01*
X194509779Y-119756893D01*
X194587800Y-119945251D01*
X194701068Y-120114769D01*
X194845231Y-120258932D01*
X195014749Y-120372200D01*
X195203107Y-120450221D01*
X195403066Y-120489995D01*
X195606944Y-120489995D01*
X195806903Y-120450221D01*
X195995261Y-120372200D01*
X196164779Y-120258932D01*
X196308942Y-120114769D01*
X196422210Y-119945251D01*
X196500231Y-119756893D01*
X196540005Y-119556934D01*
X196540005Y-119353056D01*
X196525088Y-119278061D01*
X205059990Y-119278061D01*
X205059990Y-119481939D01*
X205099764Y-119681898D01*
X205177785Y-119870256D01*
X205291053Y-120039774D01*
X205435216Y-120183937D01*
X205604734Y-120297205D01*
X205793092Y-120375226D01*
X205993051Y-120415000D01*
X206196929Y-120415000D01*
X206396888Y-120375226D01*
X206585246Y-120297205D01*
X206754764Y-120183937D01*
X206898927Y-120039774D01*
X207012195Y-119870256D01*
X207090216Y-119681898D01*
X207129990Y-119481939D01*
X207129990Y-119278061D01*
X207090216Y-119078102D01*
X207012195Y-118889744D01*
X206898927Y-118720226D01*
X206754764Y-118576063D01*
X206585246Y-118462795D01*
X206396888Y-118384774D01*
X206196929Y-118345000D01*
X205993051Y-118345000D01*
X205793092Y-118384774D01*
X205604734Y-118462795D01*
X205435216Y-118576063D01*
X205291053Y-118720226D01*
X205177785Y-118889744D01*
X205099764Y-119078102D01*
X205059990Y-119278061D01*
X196525088Y-119278061D01*
X196500231Y-119153097D01*
X196422210Y-118964739D01*
X196308942Y-118795221D01*
X196164779Y-118651058D01*
X195995261Y-118537790D01*
X195806903Y-118459769D01*
X195606944Y-118419995D01*
X195423740Y-118419995D01*
X195435256Y-118415225D01*
X195604774Y-118301957D01*
X195748937Y-118157794D01*
X195862205Y-117988276D01*
X195940226Y-117799918D01*
X195980000Y-117599959D01*
X195980000Y-117396081D01*
X195940226Y-117196122D01*
X195862205Y-117007764D01*
X195748937Y-116838246D01*
X195648752Y-116738061D01*
X197085000Y-116738061D01*
X197085000Y-116941939D01*
X197124774Y-117141898D01*
X197202795Y-117330256D01*
X197316063Y-117499774D01*
X197460226Y-117643937D01*
X197629744Y-117757205D01*
X197818102Y-117835226D01*
X198018061Y-117875000D01*
X198221939Y-117875000D01*
X198421898Y-117835226D01*
X198610256Y-117757205D01*
X198779774Y-117643937D01*
X198923937Y-117499774D01*
X199037205Y-117330256D01*
X199115226Y-117141898D01*
X199155000Y-116941939D01*
X199155000Y-116738061D01*
X199115226Y-116538102D01*
X199037205Y-116349744D01*
X198923937Y-116180226D01*
X198779774Y-116036063D01*
X198610256Y-115922795D01*
X198421898Y-115844774D01*
X198221939Y-115805000D01*
X198018061Y-115805000D01*
X197818102Y-115844774D01*
X197629744Y-115922795D01*
X197460226Y-116036063D01*
X197316063Y-116180226D01*
X197202795Y-116349744D01*
X197124774Y-116538102D01*
X197085000Y-116738061D01*
X195648752Y-116738061D01*
X195604774Y-116694083D01*
X195435256Y-116580815D01*
X195246898Y-116502794D01*
X195046939Y-116463020D01*
X194843061Y-116463020D01*
X194643102Y-116502794D01*
X194454744Y-116580815D01*
X194285226Y-116694083D01*
X194141063Y-116838246D01*
X194027795Y-117007764D01*
X193949774Y-117196122D01*
X193910000Y-117396081D01*
X183595650Y-117396081D01*
X183683937Y-117307794D01*
X183797205Y-117138276D01*
X183875226Y-116949918D01*
X183915000Y-116749959D01*
X183915000Y-116546081D01*
X183875226Y-116346122D01*
X183797205Y-116157764D01*
X183683937Y-115988246D01*
X183539774Y-115844083D01*
X183370256Y-115730815D01*
X183181898Y-115652794D01*
X182981939Y-115613020D01*
X182778061Y-115613020D01*
X182578102Y-115652794D01*
X182389744Y-115730815D01*
X182220226Y-115844083D01*
X182076063Y-115988246D01*
X181962795Y-116157764D01*
X181884774Y-116346122D01*
X181845000Y-116546081D01*
X176657000Y-116546081D01*
X176657000Y-114091996D01*
X180173065Y-114091996D01*
X180173065Y-114295874D01*
X180212839Y-114495833D01*
X180290860Y-114684191D01*
X180404128Y-114853709D01*
X180548291Y-114997872D01*
X180717809Y-115111140D01*
X180906167Y-115189161D01*
X181106126Y-115228935D01*
X181310004Y-115228935D01*
X181509963Y-115189161D01*
X181698321Y-115111140D01*
X181867839Y-114997872D01*
X182012002Y-114853709D01*
X182125270Y-114684191D01*
X182203291Y-114495833D01*
X182243065Y-114295874D01*
X182243065Y-114091996D01*
X182216355Y-113957713D01*
X182244708Y-113963353D01*
X182448586Y-113963353D01*
X182648545Y-113923579D01*
X182836903Y-113845558D01*
X183006421Y-113732290D01*
X183150584Y-113588127D01*
X183167332Y-113563061D01*
X203435000Y-113563061D01*
X203435000Y-113766939D01*
X203474774Y-113966898D01*
X203552795Y-114155256D01*
X203666063Y-114324774D01*
X203810226Y-114468937D01*
X203979744Y-114582205D01*
X204168102Y-114660226D01*
X204368061Y-114700000D01*
X204571939Y-114700000D01*
X204771898Y-114660226D01*
X204960256Y-114582205D01*
X205129774Y-114468937D01*
X205273937Y-114324774D01*
X205387205Y-114155256D01*
X205465226Y-113966898D01*
X205505000Y-113766939D01*
X205505000Y-113563061D01*
X205465226Y-113363102D01*
X205387205Y-113174744D01*
X205273937Y-113005226D01*
X205129774Y-112861063D01*
X204960256Y-112747795D01*
X204771898Y-112669774D01*
X204571939Y-112630000D01*
X204368061Y-112630000D01*
X204168102Y-112669774D01*
X203979744Y-112747795D01*
X203810226Y-112861063D01*
X203666063Y-113005226D01*
X203552795Y-113174744D01*
X203474774Y-113363102D01*
X203435000Y-113563061D01*
X183167332Y-113563061D01*
X183263852Y-113418609D01*
X183341873Y-113230251D01*
X183381647Y-113030292D01*
X183381647Y-112826414D01*
X183341873Y-112626455D01*
X183263852Y-112438097D01*
X183150584Y-112268579D01*
X183006421Y-112124416D01*
X182836903Y-112011148D01*
X182648545Y-111933127D01*
X182448586Y-111893353D01*
X182244708Y-111893353D01*
X182044749Y-111933127D01*
X181988133Y-111956578D01*
X182032937Y-111911774D01*
X182146205Y-111742256D01*
X182224226Y-111553898D01*
X182264000Y-111353939D01*
X182264000Y-111150061D01*
X182238739Y-111023061D01*
X185655000Y-111023061D01*
X185655000Y-111226939D01*
X185694774Y-111426898D01*
X185772795Y-111615256D01*
X185886063Y-111784774D01*
X186030226Y-111928937D01*
X186199744Y-112042205D01*
X186388102Y-112120226D01*
X186588061Y-112160000D01*
X186791939Y-112160000D01*
X186991898Y-112120226D01*
X187180256Y-112042205D01*
X187349774Y-111928937D01*
X187493937Y-111784774D01*
X187607205Y-111615256D01*
X187685226Y-111426898D01*
X187725000Y-111226939D01*
X187725000Y-111023061D01*
X191370000Y-111023061D01*
X191370000Y-111226939D01*
X191409774Y-111426898D01*
X191487795Y-111615256D01*
X191601063Y-111784774D01*
X191745226Y-111928937D01*
X191914744Y-112042205D01*
X192103102Y-112120226D01*
X192303061Y-112160000D01*
X192506939Y-112160000D01*
X192706898Y-112120226D01*
X192895256Y-112042205D01*
X193064774Y-111928937D01*
X193208937Y-111784774D01*
X193322205Y-111615256D01*
X193400226Y-111426898D01*
X193440000Y-111226939D01*
X193440000Y-111023061D01*
X193400226Y-110823102D01*
X193322205Y-110634744D01*
X193208937Y-110465226D01*
X193064774Y-110321063D01*
X192895256Y-110207795D01*
X192706898Y-110129774D01*
X192506939Y-110090000D01*
X192303061Y-110090000D01*
X192103102Y-110129774D01*
X191914744Y-110207795D01*
X191745226Y-110321063D01*
X191601063Y-110465226D01*
X191487795Y-110634744D01*
X191409774Y-110823102D01*
X191370000Y-111023061D01*
X187725000Y-111023061D01*
X187685226Y-110823102D01*
X187607205Y-110634744D01*
X187493937Y-110465226D01*
X187349774Y-110321063D01*
X187180256Y-110207795D01*
X186991898Y-110129774D01*
X186791939Y-110090000D01*
X186588061Y-110090000D01*
X186388102Y-110129774D01*
X186199744Y-110207795D01*
X186030226Y-110321063D01*
X185886063Y-110465226D01*
X185772795Y-110634744D01*
X185694774Y-110823102D01*
X185655000Y-111023061D01*
X182238739Y-111023061D01*
X182224226Y-110950102D01*
X182146205Y-110761744D01*
X182032937Y-110592226D01*
X181888774Y-110448063D01*
X181719256Y-110334795D01*
X181530898Y-110256774D01*
X181330939Y-110217000D01*
X181127061Y-110217000D01*
X180927102Y-110256774D01*
X180738744Y-110334795D01*
X180569226Y-110448063D01*
X180425063Y-110592226D01*
X180311795Y-110761744D01*
X180233774Y-110950102D01*
X180194000Y-111150061D01*
X180194000Y-111353939D01*
X180233774Y-111553898D01*
X180311795Y-111742256D01*
X180425063Y-111911774D01*
X180569226Y-112055937D01*
X180738744Y-112169205D01*
X180927102Y-112247226D01*
X181127061Y-112287000D01*
X181330939Y-112287000D01*
X181530898Y-112247226D01*
X181587514Y-112223775D01*
X181542710Y-112268579D01*
X181429442Y-112438097D01*
X181351421Y-112626455D01*
X181311647Y-112826414D01*
X181311647Y-113030292D01*
X181338357Y-113164575D01*
X181310004Y-113158935D01*
X181106126Y-113158935D01*
X180906167Y-113198709D01*
X180717809Y-113276730D01*
X180548291Y-113389998D01*
X180404128Y-113534161D01*
X180290860Y-113703679D01*
X180212839Y-113892037D01*
X180173065Y-114091996D01*
X176657000Y-114091996D01*
X176657000Y-109753061D01*
X193275000Y-109753061D01*
X193275000Y-109956939D01*
X193314774Y-110156898D01*
X193392795Y-110345256D01*
X193506063Y-110514774D01*
X193650226Y-110658937D01*
X193819744Y-110772205D01*
X194008102Y-110850226D01*
X194208061Y-110890000D01*
X194411939Y-110890000D01*
X194611898Y-110850226D01*
X194800256Y-110772205D01*
X194969774Y-110658937D01*
X195113937Y-110514774D01*
X195227205Y-110345256D01*
X195305226Y-110156898D01*
X195345000Y-109956939D01*
X195345000Y-109753061D01*
X195305226Y-109553102D01*
X195227205Y-109364744D01*
X195113937Y-109195226D01*
X194969774Y-109051063D01*
X194800256Y-108937795D01*
X194611898Y-108859774D01*
X194411939Y-108820000D01*
X194208061Y-108820000D01*
X194008102Y-108859774D01*
X193819744Y-108937795D01*
X193650226Y-109051063D01*
X193506063Y-109195226D01*
X193392795Y-109364744D01*
X193314774Y-109553102D01*
X193275000Y-109753061D01*
X176657000Y-109753061D01*
X176657000Y-108483061D01*
X197085000Y-108483061D01*
X197085000Y-108686939D01*
X197124774Y-108886898D01*
X197202795Y-109075256D01*
X197316063Y-109244774D01*
X197460226Y-109388937D01*
X197629744Y-109502205D01*
X197818102Y-109580226D01*
X198018061Y-109620000D01*
X198221939Y-109620000D01*
X198421898Y-109580226D01*
X198610256Y-109502205D01*
X198779774Y-109388937D01*
X198923937Y-109244774D01*
X199029525Y-109086749D01*
X205065465Y-109086749D01*
X205065465Y-109290627D01*
X205105239Y-109490586D01*
X205183260Y-109678944D01*
X205296528Y-109848462D01*
X205440691Y-109992625D01*
X205610209Y-110105893D01*
X205798567Y-110183914D01*
X205998526Y-110223688D01*
X206202404Y-110223688D01*
X206402363Y-110183914D01*
X206590721Y-110105893D01*
X206760239Y-109992625D01*
X206904402Y-109848462D01*
X207017670Y-109678944D01*
X207095691Y-109490586D01*
X207135465Y-109290627D01*
X207135465Y-109086749D01*
X207095691Y-108886790D01*
X207017670Y-108698432D01*
X206904402Y-108528914D01*
X206760239Y-108384751D01*
X206590721Y-108271483D01*
X206402363Y-108193462D01*
X206202404Y-108153688D01*
X205998526Y-108153688D01*
X205798567Y-108193462D01*
X205610209Y-108271483D01*
X205440691Y-108384751D01*
X205296528Y-108528914D01*
X205183260Y-108698432D01*
X205105239Y-108886790D01*
X205065465Y-109086749D01*
X199029525Y-109086749D01*
X199037205Y-109075256D01*
X199115226Y-108886898D01*
X199155000Y-108686939D01*
X199155000Y-108483061D01*
X199115226Y-108283102D01*
X199037205Y-108094744D01*
X198923937Y-107925226D01*
X198779774Y-107781063D01*
X198610256Y-107667795D01*
X198421898Y-107589774D01*
X198221939Y-107550000D01*
X198018061Y-107550000D01*
X197818102Y-107589774D01*
X197629744Y-107667795D01*
X197460226Y-107781063D01*
X197316063Y-107925226D01*
X197202795Y-108094744D01*
X197124774Y-108283102D01*
X197085000Y-108483061D01*
X176657000Y-108483061D01*
X176657000Y-103618061D01*
X181845000Y-103618061D01*
X181845000Y-103821939D01*
X181884774Y-104021898D01*
X181962795Y-104210256D01*
X182076063Y-104379774D01*
X182220226Y-104523937D01*
X182389744Y-104637205D01*
X182578102Y-104715226D01*
X182778061Y-104755000D01*
X182981939Y-104755000D01*
X183181898Y-104715226D01*
X183370256Y-104637205D01*
X183539774Y-104523937D01*
X183654422Y-104409289D01*
X184051688Y-104409289D01*
X184051688Y-104613167D01*
X184091462Y-104813126D01*
X184169483Y-105001484D01*
X184282751Y-105171002D01*
X184426914Y-105315165D01*
X184596432Y-105428433D01*
X184784790Y-105506454D01*
X184984749Y-105546228D01*
X185188627Y-105546228D01*
X185388586Y-105506454D01*
X185576944Y-105428433D01*
X185746462Y-105315165D01*
X185753566Y-105308061D01*
X203435000Y-105308061D01*
X203435000Y-105511939D01*
X203474774Y-105711898D01*
X203552795Y-105900256D01*
X203666063Y-106069774D01*
X203810226Y-106213937D01*
X203979744Y-106327205D01*
X204168102Y-106405226D01*
X204368061Y-106445000D01*
X204571939Y-106445000D01*
X204771898Y-106405226D01*
X204960256Y-106327205D01*
X205129774Y-106213937D01*
X205273937Y-106069774D01*
X205387205Y-105900256D01*
X205465226Y-105711898D01*
X205505000Y-105511939D01*
X205505000Y-105308061D01*
X205465226Y-105108102D01*
X205387205Y-104919744D01*
X205273937Y-104750226D01*
X205129774Y-104606063D01*
X204960256Y-104492795D01*
X204771898Y-104414774D01*
X204571939Y-104375000D01*
X204368061Y-104375000D01*
X204168102Y-104414774D01*
X203979744Y-104492795D01*
X203810226Y-104606063D01*
X203666063Y-104750226D01*
X203552795Y-104919744D01*
X203474774Y-105108102D01*
X203435000Y-105308061D01*
X185753566Y-105308061D01*
X185890625Y-105171002D01*
X186003893Y-105001484D01*
X186081914Y-104813126D01*
X186121688Y-104613167D01*
X186121688Y-104409289D01*
X186081914Y-104209330D01*
X186003893Y-104020972D01*
X185890625Y-103851454D01*
X185746462Y-103707291D01*
X185612920Y-103618061D01*
X193185209Y-103618061D01*
X193185209Y-103821939D01*
X193224983Y-104021898D01*
X193303004Y-104210256D01*
X193416272Y-104379774D01*
X193560435Y-104523937D01*
X193729953Y-104637205D01*
X193918311Y-104715226D01*
X194118270Y-104755000D01*
X194322148Y-104755000D01*
X194522107Y-104715226D01*
X194710465Y-104637205D01*
X194879983Y-104523937D01*
X195024146Y-104379774D01*
X195137414Y-104210256D01*
X195215435Y-104021898D01*
X195255209Y-103821939D01*
X195255209Y-103618061D01*
X195215435Y-103418102D01*
X195137414Y-103229744D01*
X195024146Y-103060226D01*
X194879983Y-102916063D01*
X194710465Y-102802795D01*
X194626611Y-102768061D01*
X200260000Y-102768061D01*
X200260000Y-102971939D01*
X200299774Y-103171898D01*
X200377795Y-103360256D01*
X200491063Y-103529774D01*
X200635226Y-103673937D01*
X200804744Y-103787205D01*
X200993102Y-103865226D01*
X201193061Y-103905000D01*
X201396939Y-103905000D01*
X201596898Y-103865226D01*
X201785256Y-103787205D01*
X201954774Y-103673937D01*
X202098937Y-103529774D01*
X202212205Y-103360256D01*
X202247500Y-103275047D01*
X202282795Y-103360256D01*
X202396063Y-103529774D01*
X202540226Y-103673937D01*
X202709744Y-103787205D01*
X202898102Y-103865226D01*
X203098061Y-103905000D01*
X203301939Y-103905000D01*
X203501898Y-103865226D01*
X203690256Y-103787205D01*
X203859774Y-103673937D01*
X204003937Y-103529774D01*
X204117205Y-103360256D01*
X204195226Y-103171898D01*
X204235000Y-102971939D01*
X204235000Y-102768061D01*
X204195226Y-102568102D01*
X204117205Y-102379744D01*
X204003937Y-102210226D01*
X203859774Y-102066063D01*
X203760903Y-102000000D01*
X203936939Y-102000000D01*
X204136898Y-101960226D01*
X204325256Y-101882205D01*
X204494774Y-101768937D01*
X204638937Y-101624774D01*
X204752205Y-101455256D01*
X204830226Y-101266898D01*
X204870000Y-101066939D01*
X204870000Y-100863061D01*
X204830226Y-100663102D01*
X204752205Y-100474744D01*
X204638937Y-100305226D01*
X204494774Y-100161063D01*
X204395903Y-100095000D01*
X204571939Y-100095000D01*
X204771898Y-100055226D01*
X204960256Y-99977205D01*
X205129774Y-99863937D01*
X205273937Y-99719774D01*
X205387205Y-99550256D01*
X205465226Y-99361898D01*
X205505000Y-99161939D01*
X205505000Y-98958061D01*
X205465226Y-98758102D01*
X205387205Y-98569744D01*
X205273937Y-98400226D01*
X205129774Y-98256063D01*
X204960256Y-98142795D01*
X204875047Y-98107500D01*
X204960256Y-98072205D01*
X205129774Y-97958937D01*
X205273937Y-97814774D01*
X205387205Y-97645256D01*
X205465226Y-97456898D01*
X205505000Y-97256939D01*
X205505000Y-97053061D01*
X205465226Y-96853102D01*
X205387205Y-96664744D01*
X205273937Y-96495226D01*
X205129774Y-96351063D01*
X204960256Y-96237795D01*
X204771898Y-96159774D01*
X204571939Y-96120000D01*
X204368061Y-96120000D01*
X204168102Y-96159774D01*
X203979744Y-96237795D01*
X203810226Y-96351063D01*
X203666063Y-96495226D01*
X203552795Y-96664744D01*
X203474774Y-96853102D01*
X203435000Y-97053061D01*
X203435000Y-97256939D01*
X203474774Y-97456898D01*
X203552795Y-97645256D01*
X203666063Y-97814774D01*
X203810226Y-97958937D01*
X203979744Y-98072205D01*
X204064953Y-98107500D01*
X203979744Y-98142795D01*
X203810226Y-98256063D01*
X203666063Y-98400226D01*
X203552795Y-98569744D01*
X203474774Y-98758102D01*
X203435000Y-98958061D01*
X203435000Y-99161939D01*
X203474774Y-99361898D01*
X203552795Y-99550256D01*
X203666063Y-99719774D01*
X203810226Y-99863937D01*
X203909097Y-99930000D01*
X203733061Y-99930000D01*
X203533102Y-99969774D01*
X203344744Y-100047795D01*
X203175226Y-100161063D01*
X203031063Y-100305226D01*
X202917795Y-100474744D01*
X202839774Y-100663102D01*
X202800000Y-100863061D01*
X202800000Y-101066939D01*
X202839774Y-101266898D01*
X202917795Y-101455256D01*
X203031063Y-101624774D01*
X203175226Y-101768937D01*
X203274097Y-101835000D01*
X203098061Y-101835000D01*
X202898102Y-101874774D01*
X202709744Y-101952795D01*
X202540226Y-102066063D01*
X202396063Y-102210226D01*
X202282795Y-102379744D01*
X202247500Y-102464953D01*
X202212205Y-102379744D01*
X202098937Y-102210226D01*
X201954774Y-102066063D01*
X201785256Y-101952795D01*
X201596898Y-101874774D01*
X201396939Y-101835000D01*
X201193061Y-101835000D01*
X200993102Y-101874774D01*
X200804744Y-101952795D01*
X200635226Y-102066063D01*
X200491063Y-102210226D01*
X200377795Y-102379744D01*
X200299774Y-102568102D01*
X200260000Y-102768061D01*
X194626611Y-102768061D01*
X194522107Y-102724774D01*
X194322148Y-102685000D01*
X194118270Y-102685000D01*
X193918311Y-102724774D01*
X193729953Y-102802795D01*
X193560435Y-102916063D01*
X193416272Y-103060226D01*
X193303004Y-103229744D01*
X193224983Y-103418102D01*
X193185209Y-103618061D01*
X185612920Y-103618061D01*
X185576944Y-103594023D01*
X185388586Y-103516002D01*
X185188627Y-103476228D01*
X184984749Y-103476228D01*
X184784790Y-103516002D01*
X184596432Y-103594023D01*
X184426914Y-103707291D01*
X184282751Y-103851454D01*
X184169483Y-104020972D01*
X184091462Y-104209330D01*
X184051688Y-104409289D01*
X183654422Y-104409289D01*
X183683937Y-104379774D01*
X183797205Y-104210256D01*
X183875226Y-104021898D01*
X183915000Y-103821939D01*
X183915000Y-103618061D01*
X183875226Y-103418102D01*
X183797205Y-103229744D01*
X183683937Y-103060226D01*
X183539774Y-102916063D01*
X183370256Y-102802795D01*
X183181898Y-102724774D01*
X182981939Y-102685000D01*
X182778061Y-102685000D01*
X182578102Y-102724774D01*
X182389744Y-102802795D01*
X182220226Y-102916063D01*
X182076063Y-103060226D01*
X181962795Y-103229744D01*
X181884774Y-103418102D01*
X181845000Y-103618061D01*
X176657000Y-103618061D01*
X176657000Y-100569091D01*
X181966488Y-100569091D01*
X181966488Y-100772969D01*
X182006262Y-100972928D01*
X182084283Y-101161286D01*
X182197551Y-101330804D01*
X182341714Y-101474967D01*
X182511232Y-101588235D01*
X182699590Y-101666256D01*
X182899549Y-101706030D01*
X183103427Y-101706030D01*
X183303386Y-101666256D01*
X183491744Y-101588235D01*
X183661262Y-101474967D01*
X183805425Y-101330804D01*
X183918693Y-101161286D01*
X183996714Y-100972928D01*
X184036488Y-100772969D01*
X184036488Y-100569091D01*
X183996714Y-100369132D01*
X183938281Y-100228061D01*
X192005000Y-100228061D01*
X192005000Y-100431939D01*
X192044774Y-100631898D01*
X192122795Y-100820256D01*
X192236063Y-100989774D01*
X192380226Y-101133937D01*
X192549744Y-101247205D01*
X192738102Y-101325226D01*
X192938061Y-101365000D01*
X193141939Y-101365000D01*
X193341898Y-101325226D01*
X193530256Y-101247205D01*
X193699774Y-101133937D01*
X193843937Y-100989774D01*
X193957205Y-100820256D01*
X194035226Y-100631898D01*
X194075000Y-100431939D01*
X194075000Y-100228061D01*
X194035226Y-100028102D01*
X193957205Y-99839744D01*
X193843937Y-99670226D01*
X193699774Y-99526063D01*
X193530256Y-99412795D01*
X193341898Y-99334774D01*
X193141939Y-99295000D01*
X192938061Y-99295000D01*
X192738102Y-99334774D01*
X192549744Y-99412795D01*
X192380226Y-99526063D01*
X192236063Y-99670226D01*
X192122795Y-99839744D01*
X192044774Y-100028102D01*
X192005000Y-100228061D01*
X183938281Y-100228061D01*
X183918693Y-100180774D01*
X183805425Y-100011256D01*
X183661262Y-99867093D01*
X183491744Y-99753825D01*
X183303386Y-99675804D01*
X183103427Y-99636030D01*
X182899549Y-99636030D01*
X182699590Y-99675804D01*
X182511232Y-99753825D01*
X182341714Y-99867093D01*
X182197551Y-100011256D01*
X182084283Y-100180774D01*
X182006262Y-100369132D01*
X181966488Y-100569091D01*
X176657000Y-100569091D01*
X176657000Y-97053061D01*
X181933000Y-97053061D01*
X181933000Y-97256939D01*
X181972774Y-97456898D01*
X182050795Y-97645256D01*
X182164063Y-97814774D01*
X182308226Y-97958937D01*
X182477744Y-98072205D01*
X182666102Y-98150226D01*
X182866061Y-98190000D01*
X183069939Y-98190000D01*
X183269898Y-98150226D01*
X183458256Y-98072205D01*
X183627774Y-97958937D01*
X183771937Y-97814774D01*
X183885205Y-97645256D01*
X183963226Y-97456898D01*
X184003000Y-97256939D01*
X184003000Y-97053061D01*
X183963226Y-96853102D01*
X183885205Y-96664744D01*
X183771937Y-96495226D01*
X183627774Y-96351063D01*
X183458256Y-96237795D01*
X183269898Y-96159774D01*
X183069939Y-96120000D01*
X182866061Y-96120000D01*
X182666102Y-96159774D01*
X182477744Y-96237795D01*
X182308226Y-96351063D01*
X182164063Y-96495226D01*
X182050795Y-96664744D01*
X181972774Y-96853102D01*
X181933000Y-97053061D01*
X176657000Y-97053061D01*
X176657000Y-96012000D01*
X187717247Y-96012000D01*
X187687000Y-96164061D01*
G36*
X242052495Y-92597188D02*
G01*
X241838688Y-92810995D01*
X241670701Y-93062405D01*
X241554989Y-93341757D01*
X241496000Y-93638316D01*
X241496000Y-93940684D01*
X241554989Y-94237243D01*
X241670701Y-94516595D01*
X241838688Y-94768005D01*
X242052495Y-94981812D01*
X242303905Y-95149799D01*
X242583257Y-95265511D01*
X242879816Y-95324500D01*
X243182184Y-95324500D01*
X243478743Y-95265511D01*
X243758095Y-95149799D01*
X244009505Y-94981812D01*
X244223312Y-94768005D01*
X244281000Y-94681669D01*
X244338688Y-94768005D01*
X244552495Y-94981812D01*
X244803905Y-95149799D01*
X245083257Y-95265511D01*
X245379816Y-95324500D01*
X245682184Y-95324500D01*
X245978743Y-95265511D01*
X246258095Y-95149799D01*
X246509505Y-94981812D01*
X246547120Y-94944197D01*
X246600463Y-95043994D01*
X246679815Y-95140685D01*
X246776506Y-95220037D01*
X246886820Y-95279002D01*
X247006518Y-95315312D01*
X247131000Y-95327572D01*
X247745250Y-95324500D01*
X247904000Y-95165750D01*
X247904000Y-93916500D01*
X248158000Y-93916500D01*
X248158000Y-95165750D01*
X248316750Y-95324500D01*
X248931000Y-95327572D01*
X249055482Y-95315312D01*
X249175180Y-95279002D01*
X249285494Y-95220037D01*
X249382185Y-95140685D01*
X249461537Y-95043994D01*
X249520502Y-94933680D01*
X249556812Y-94813982D01*
X249569072Y-94689500D01*
X249566000Y-94075250D01*
X249407250Y-93916500D01*
X248158000Y-93916500D01*
X247904000Y-93916500D01*
X247884000Y-93916500D01*
X247884000Y-93662500D01*
X247904000Y-93662500D01*
X247904000Y-93642500D01*
X248158000Y-93642500D01*
X248158000Y-93662500D01*
X249407250Y-93662500D01*
X249566000Y-93503750D01*
X249569072Y-92889500D01*
X249556812Y-92765018D01*
X249520502Y-92645320D01*
X249487191Y-92583000D01*
X262601324Y-92583000D01*
X262395257Y-92623989D01*
X262115905Y-92739701D01*
X261864495Y-92907688D01*
X261650688Y-93121495D01*
X261482701Y-93372905D01*
X261366989Y-93652257D01*
X261308000Y-93948816D01*
X261308000Y-94251184D01*
X261366989Y-94547743D01*
X261482701Y-94827095D01*
X261650688Y-95078505D01*
X261864495Y-95292312D01*
X262115905Y-95460299D01*
X262395257Y-95576011D01*
X262691816Y-95635000D01*
X262994184Y-95635000D01*
X263290743Y-95576011D01*
X263570095Y-95460299D01*
X263821505Y-95292312D01*
X264035312Y-95078505D01*
X264093000Y-94992169D01*
X264150688Y-95078505D01*
X264364495Y-95292312D01*
X264615905Y-95460299D01*
X264895257Y-95576011D01*
X265191816Y-95635000D01*
X265494184Y-95635000D01*
X265790743Y-95576011D01*
X266070095Y-95460299D01*
X266321505Y-95292312D01*
X266359120Y-95254697D01*
X266412463Y-95354494D01*
X266491815Y-95451185D01*
X266588506Y-95530537D01*
X266698820Y-95589502D01*
X266818518Y-95625812D01*
X266943000Y-95638072D01*
X267557250Y-95635000D01*
X267716000Y-95476250D01*
X267716000Y-94227000D01*
X267970000Y-94227000D01*
X267970000Y-95476250D01*
X268128750Y-95635000D01*
X268743000Y-95638072D01*
X268867482Y-95625812D01*
X268987180Y-95589502D01*
X269097494Y-95530537D01*
X269194185Y-95451185D01*
X269273537Y-95354494D01*
X269332502Y-95244180D01*
X269368812Y-95124482D01*
X269381072Y-95000000D01*
X269378000Y-94385750D01*
X269219250Y-94227000D01*
X267970000Y-94227000D01*
X267716000Y-94227000D01*
X267696000Y-94227000D01*
X267696000Y-93973000D01*
X267716000Y-93973000D01*
X267716000Y-93953000D01*
X267970000Y-93953000D01*
X267970000Y-93973000D01*
X269219250Y-93973000D01*
X269378000Y-93814250D01*
X269381072Y-93200000D01*
X269368812Y-93075518D01*
X269332502Y-92955820D01*
X269273537Y-92845506D01*
X269194185Y-92748815D01*
X269097494Y-92669463D01*
X268987180Y-92610498D01*
X268896531Y-92583000D01*
X272831928Y-92583000D01*
X272831928Y-94195000D01*
X272844188Y-94319482D01*
X272880498Y-94439180D01*
X272939463Y-94549494D01*
X273018815Y-94646185D01*
X273115506Y-94725537D01*
X273225820Y-94784502D01*
X273298380Y-94806513D01*
X273166525Y-94938368D01*
X273004010Y-95181589D01*
X272892068Y-95451842D01*
X272835000Y-95738740D01*
X272835000Y-96031260D01*
X272892068Y-96318158D01*
X273004010Y-96588411D01*
X273166525Y-96831632D01*
X273373368Y-97038475D01*
X273547760Y-97155000D01*
X273373368Y-97271525D01*
X273166525Y-97478368D01*
X273004010Y-97721589D01*
X272892068Y-97991842D01*
X272835000Y-98278740D01*
X272835000Y-98571260D01*
X272892068Y-98858158D01*
X273004010Y-99128411D01*
X273166525Y-99371632D01*
X273373368Y-99578475D01*
X273547760Y-99695000D01*
X273373368Y-99811525D01*
X273166525Y-100018368D01*
X273004010Y-100261589D01*
X272892068Y-100531842D01*
X272835000Y-100818740D01*
X272835000Y-101111260D01*
X272892068Y-101398158D01*
X273004010Y-101668411D01*
X273166525Y-101911632D01*
X273373368Y-102118475D01*
X273547760Y-102235000D01*
X273373368Y-102351525D01*
X273166525Y-102558368D01*
X273004010Y-102801589D01*
X272892068Y-103071842D01*
X272835000Y-103358740D01*
X272835000Y-103651260D01*
X272892068Y-103938158D01*
X273004010Y-104208411D01*
X273166525Y-104451632D01*
X273373368Y-104658475D01*
X273547760Y-104775000D01*
X273373368Y-104891525D01*
X273166525Y-105098368D01*
X273004010Y-105341589D01*
X272892068Y-105611842D01*
X272835000Y-105898740D01*
X272835000Y-106191260D01*
X272892068Y-106478158D01*
X273004010Y-106748411D01*
X273166525Y-106991632D01*
X273373368Y-107198475D01*
X273547760Y-107315000D01*
X273373368Y-107431525D01*
X273166525Y-107638368D01*
X273004010Y-107881589D01*
X272892068Y-108151842D01*
X272835000Y-108438740D01*
X272835000Y-108731260D01*
X272892068Y-109018158D01*
X273004010Y-109288411D01*
X273166525Y-109531632D01*
X273373368Y-109738475D01*
X273547760Y-109855000D01*
X273373368Y-109971525D01*
X273166525Y-110178368D01*
X273004010Y-110421589D01*
X272892068Y-110691842D01*
X272835000Y-110978740D01*
X272835000Y-111271260D01*
X272892068Y-111558158D01*
X273004010Y-111828411D01*
X273166525Y-112071632D01*
X273373368Y-112278475D01*
X273547760Y-112395000D01*
X273373368Y-112511525D01*
X273166525Y-112718368D01*
X273004010Y-112961589D01*
X272892068Y-113231842D01*
X272835000Y-113518740D01*
X272835000Y-113811260D01*
X272892068Y-114098158D01*
X273004010Y-114368411D01*
X273166525Y-114611632D01*
X273373368Y-114818475D01*
X273547760Y-114935000D01*
X273373368Y-115051525D01*
X273166525Y-115258368D01*
X273004010Y-115501589D01*
X272892068Y-115771842D01*
X272835000Y-116058740D01*
X272835000Y-116351260D01*
X272892068Y-116638158D01*
X273004010Y-116908411D01*
X273166525Y-117151632D01*
X273373368Y-117358475D01*
X273547760Y-117475000D01*
X273373368Y-117591525D01*
X273166525Y-117798368D01*
X273004010Y-118041589D01*
X272892068Y-118311842D01*
X272835000Y-118598740D01*
X272835000Y-118891260D01*
X272892068Y-119178158D01*
X273004010Y-119448411D01*
X273166525Y-119691632D01*
X273373368Y-119898475D01*
X273547760Y-120015000D01*
X273373368Y-120131525D01*
X273166525Y-120338368D01*
X273004010Y-120581589D01*
X272892068Y-120851842D01*
X272835000Y-121138740D01*
X272835000Y-121431260D01*
X272892068Y-121718158D01*
X273004010Y-121988411D01*
X273166525Y-122231632D01*
X273373368Y-122438475D01*
X273547760Y-122555000D01*
X273373368Y-122671525D01*
X273166525Y-122878368D01*
X273004010Y-123121589D01*
X272892068Y-123391842D01*
X272835000Y-123678740D01*
X272835000Y-123971260D01*
X272892068Y-124258158D01*
X273004010Y-124528411D01*
X273166525Y-124771632D01*
X273373368Y-124978475D01*
X273547760Y-125095000D01*
X273373368Y-125211525D01*
X273166525Y-125418368D01*
X273004010Y-125661589D01*
X272892068Y-125931842D01*
X272835000Y-126218740D01*
X272835000Y-126511260D01*
X272892068Y-126798158D01*
X273004010Y-127068411D01*
X273166525Y-127311632D01*
X273373368Y-127518475D01*
X273547760Y-127635000D01*
X273373368Y-127751525D01*
X273166525Y-127958368D01*
X273004010Y-128201589D01*
X272892068Y-128471842D01*
X272858966Y-128638256D01*
X272829773Y-128609063D01*
X272660255Y-128495795D01*
X272471897Y-128417774D01*
X272271938Y-128378000D01*
X272068060Y-128378000D01*
X271868101Y-128417774D01*
X271679743Y-128495795D01*
X271510225Y-128609063D01*
X271366062Y-128753226D01*
X271252794Y-128922744D01*
X271174773Y-129111102D01*
X271134999Y-129311061D01*
X271134999Y-129514939D01*
X271174773Y-129714898D01*
X271252794Y-129903256D01*
X271366062Y-130072774D01*
X271510225Y-130216937D01*
X271679743Y-130330205D01*
X271868101Y-130408226D01*
X272068060Y-130448000D01*
X272271938Y-130448000D01*
X272471897Y-130408226D01*
X272660255Y-130330205D01*
X272829773Y-130216937D01*
X272973936Y-130072774D01*
X273087204Y-129903256D01*
X273130759Y-129798105D01*
X273166525Y-129851632D01*
X273373368Y-130058475D01*
X273547760Y-130175000D01*
X273373368Y-130291525D01*
X273166525Y-130498368D01*
X273004010Y-130741589D01*
X272892068Y-131011842D01*
X272835000Y-131298740D01*
X272835000Y-131591260D01*
X272892068Y-131878158D01*
X273004010Y-132148411D01*
X273166525Y-132391632D01*
X273373368Y-132598475D01*
X273547760Y-132715000D01*
X273373368Y-132831525D01*
X273166525Y-133038368D01*
X273004010Y-133281589D01*
X272892068Y-133551842D01*
X272835000Y-133838740D01*
X272835000Y-134131260D01*
X272892068Y-134418158D01*
X273004010Y-134688411D01*
X273166525Y-134931632D01*
X273373368Y-135138475D01*
X273547760Y-135255000D01*
X273373368Y-135371525D01*
X273166525Y-135578368D01*
X273004010Y-135821589D01*
X272892068Y-136091842D01*
X272835000Y-136378740D01*
X272835000Y-136671260D01*
X272892068Y-136958158D01*
X273004010Y-137228411D01*
X273166525Y-137471632D01*
X273373368Y-137678475D01*
X273547760Y-137795000D01*
X273373368Y-137911525D01*
X273166525Y-138118368D01*
X273004010Y-138361589D01*
X272892068Y-138631842D01*
X272835000Y-138918740D01*
X272835000Y-139211260D01*
X272892068Y-139498158D01*
X273004010Y-139768411D01*
X273166525Y-140011632D01*
X273373368Y-140218475D01*
X273555534Y-140340195D01*
X273438645Y-140409822D01*
X273222412Y-140604731D01*
X273048359Y-140838080D01*
X272923175Y-141100901D01*
X272878524Y-141248110D01*
X272999845Y-141478000D01*
X274193000Y-141478000D01*
X274193000Y-141458000D01*
X274447000Y-141458000D01*
X274447000Y-141478000D01*
X274467000Y-141478000D01*
X274467000Y-141732000D01*
X274447000Y-141732000D01*
X274447000Y-141752000D01*
X274193000Y-141752000D01*
X274193000Y-141732000D01*
X272999845Y-141732000D01*
X272878524Y-141961890D01*
X272923175Y-142109099D01*
X273048359Y-142371920D01*
X273222412Y-142605269D01*
X273438645Y-142800178D01*
X273480316Y-142825000D01*
X237702070Y-142825000D01*
X237801632Y-142758475D01*
X238008475Y-142551632D01*
X238170990Y-142308411D01*
X238282932Y-142038158D01*
X238340000Y-141751260D01*
X238340000Y-141458740D01*
X238282932Y-141171842D01*
X238170990Y-140901589D01*
X238008475Y-140658368D01*
X237801632Y-140451525D01*
X237627240Y-140335000D01*
X237801632Y-140218475D01*
X238008475Y-140011632D01*
X238170990Y-139768411D01*
X238282932Y-139498158D01*
X238340000Y-139211260D01*
X238340000Y-138918740D01*
X238282932Y-138631842D01*
X238170990Y-138361589D01*
X238008475Y-138118368D01*
X237801632Y-137911525D01*
X237627240Y-137795000D01*
X237801632Y-137678475D01*
X238008475Y-137471632D01*
X238170990Y-137228411D01*
X238239503Y-137063003D01*
X238736000Y-137063003D01*
X238736000Y-137778998D01*
X238764867Y-138072088D01*
X238878943Y-138448147D01*
X239064193Y-138794725D01*
X239313498Y-139098503D01*
X239617276Y-139347807D01*
X239963854Y-139533057D01*
X240339913Y-139647133D01*
X240731000Y-139685652D01*
X241122088Y-139647133D01*
X241498147Y-139533057D01*
X241844725Y-139347807D01*
X242148503Y-139098503D01*
X242397807Y-138794725D01*
X242583057Y-138448147D01*
X242697133Y-138072087D01*
X242726000Y-137778997D01*
X242726000Y-137063003D01*
X248336000Y-137063003D01*
X248336000Y-137778998D01*
X248364867Y-138072088D01*
X248478943Y-138448147D01*
X248664193Y-138794725D01*
X248913498Y-139098503D01*
X249217276Y-139347807D01*
X249563854Y-139533057D01*
X249939913Y-139647133D01*
X250331000Y-139685652D01*
X250722088Y-139647133D01*
X251098147Y-139533057D01*
X251444725Y-139347807D01*
X251748503Y-139098503D01*
X251997807Y-138794725D01*
X252183057Y-138448147D01*
X252297133Y-138072087D01*
X252326000Y-137778997D01*
X252326000Y-137063003D01*
X258548000Y-137063003D01*
X258548000Y-137778998D01*
X258576867Y-138072088D01*
X258690943Y-138448147D01*
X258876193Y-138794725D01*
X259125498Y-139098503D01*
X259429276Y-139347807D01*
X259775854Y-139533057D01*
X260151913Y-139647133D01*
X260543000Y-139685652D01*
X260934088Y-139647133D01*
X261310147Y-139533057D01*
X261656725Y-139347807D01*
X261960503Y-139098503D01*
X262209807Y-138794725D01*
X262395057Y-138448147D01*
X262509133Y-138072087D01*
X262538000Y-137778997D01*
X262538000Y-137063003D01*
X268148000Y-137063003D01*
X268148000Y-137778998D01*
X268176867Y-138072088D01*
X268290943Y-138448147D01*
X268476193Y-138794725D01*
X268725498Y-139098503D01*
X269029276Y-139347807D01*
X269375854Y-139533057D01*
X269751913Y-139647133D01*
X270143000Y-139685652D01*
X270534088Y-139647133D01*
X270910147Y-139533057D01*
X271256725Y-139347807D01*
X271560503Y-139098503D01*
X271809807Y-138794725D01*
X271995057Y-138448147D01*
X272109133Y-138072087D01*
X272138000Y-137778997D01*
X272138000Y-137063002D01*
X272109133Y-136769912D01*
X271995057Y-136393853D01*
X271809807Y-136047275D01*
X271560503Y-135743497D01*
X271256725Y-135494193D01*
X270910146Y-135308943D01*
X270534087Y-135194867D01*
X270143000Y-135156348D01*
X269751912Y-135194867D01*
X269375853Y-135308943D01*
X269029275Y-135494193D01*
X268725497Y-135743497D01*
X268476193Y-136047275D01*
X268290943Y-136393854D01*
X268176867Y-136769913D01*
X268148000Y-137063003D01*
X262538000Y-137063003D01*
X262538000Y-137063002D01*
X262509133Y-136769912D01*
X262395057Y-136393853D01*
X262209807Y-136047275D01*
X261960503Y-135743497D01*
X261656725Y-135494193D01*
X261310146Y-135308943D01*
X260934087Y-135194867D01*
X260543000Y-135156348D01*
X260151912Y-135194867D01*
X259775853Y-135308943D01*
X259429275Y-135494193D01*
X259125497Y-135743497D01*
X258876193Y-136047275D01*
X258690943Y-136393854D01*
X258576867Y-136769913D01*
X258548000Y-137063003D01*
X252326000Y-137063003D01*
X252326000Y-137063002D01*
X252297133Y-136769912D01*
X252183057Y-136393853D01*
X251997807Y-136047275D01*
X251748503Y-135743497D01*
X251444725Y-135494193D01*
X251098146Y-135308943D01*
X250722087Y-135194867D01*
X250331000Y-135156348D01*
X249939912Y-135194867D01*
X249563853Y-135308943D01*
X249217275Y-135494193D01*
X248913497Y-135743497D01*
X248664193Y-136047275D01*
X248478943Y-136393854D01*
X248364867Y-136769913D01*
X248336000Y-137063003D01*
X242726000Y-137063003D01*
X242726000Y-137063002D01*
X242697133Y-136769912D01*
X242583057Y-136393853D01*
X242397807Y-136047275D01*
X242148503Y-135743497D01*
X241844725Y-135494193D01*
X241498146Y-135308943D01*
X241122087Y-135194867D01*
X240731000Y-135156348D01*
X240339912Y-135194867D01*
X239963853Y-135308943D01*
X239617275Y-135494193D01*
X239313497Y-135743497D01*
X239064193Y-136047275D01*
X238878943Y-136393854D01*
X238764867Y-136769913D01*
X238736000Y-137063003D01*
X238239503Y-137063003D01*
X238282932Y-136958158D01*
X238340000Y-136671260D01*
X238340000Y-136378740D01*
X238282932Y-136091842D01*
X238170990Y-135821589D01*
X238008475Y-135578368D01*
X237801632Y-135371525D01*
X237627240Y-135255000D01*
X237801632Y-135138475D01*
X238008475Y-134931632D01*
X238170990Y-134688411D01*
X238282932Y-134418158D01*
X238340000Y-134131260D01*
X238340000Y-133838740D01*
X238282932Y-133551842D01*
X238170990Y-133281589D01*
X238008475Y-133038368D01*
X237801632Y-132831525D01*
X237627240Y-132715000D01*
X237801632Y-132598475D01*
X238008475Y-132391632D01*
X238170990Y-132148411D01*
X238282932Y-131878158D01*
X238340000Y-131591260D01*
X238340000Y-131298740D01*
X238282932Y-131011842D01*
X238170990Y-130741589D01*
X238008475Y-130498368D01*
X237801632Y-130291525D01*
X237627240Y-130175000D01*
X237801632Y-130058475D01*
X238008475Y-129851632D01*
X238063142Y-129769816D01*
X241496000Y-129769816D01*
X241496000Y-130072184D01*
X241554989Y-130368743D01*
X241670701Y-130648095D01*
X241838688Y-130899505D01*
X242052495Y-131113312D01*
X242303905Y-131281299D01*
X242583257Y-131397011D01*
X242879816Y-131456000D01*
X243182184Y-131456000D01*
X243478743Y-131397011D01*
X243758095Y-131281299D01*
X244009505Y-131113312D01*
X244223312Y-130899505D01*
X244281000Y-130813169D01*
X244338688Y-130899505D01*
X244552495Y-131113312D01*
X244803905Y-131281299D01*
X245083257Y-131397011D01*
X245379816Y-131456000D01*
X245682184Y-131456000D01*
X245978743Y-131397011D01*
X246258095Y-131281299D01*
X246509505Y-131113312D01*
X246547120Y-131075697D01*
X246600463Y-131175494D01*
X246679815Y-131272185D01*
X246776506Y-131351537D01*
X246886820Y-131410502D01*
X247006518Y-131446812D01*
X247131000Y-131459072D01*
X247745250Y-131456000D01*
X247904000Y-131297250D01*
X247904000Y-130048000D01*
X248158000Y-130048000D01*
X248158000Y-131297250D01*
X248316750Y-131456000D01*
X248931000Y-131459072D01*
X249055482Y-131446812D01*
X249175180Y-131410502D01*
X249285494Y-131351537D01*
X249382185Y-131272185D01*
X249461537Y-131175494D01*
X249520502Y-131065180D01*
X249556812Y-130945482D01*
X249569072Y-130821000D01*
X249566000Y-130206750D01*
X249407250Y-130048000D01*
X248158000Y-130048000D01*
X247904000Y-130048000D01*
X247884000Y-130048000D01*
X247884000Y-129794000D01*
X247904000Y-129794000D01*
X247904000Y-128544750D01*
X248158000Y-128544750D01*
X248158000Y-129794000D01*
X249407250Y-129794000D01*
X249431434Y-129769816D01*
X261308000Y-129769816D01*
X261308000Y-130072184D01*
X261366989Y-130368743D01*
X261482701Y-130648095D01*
X261650688Y-130899505D01*
X261864495Y-131113312D01*
X262115905Y-131281299D01*
X262395257Y-131397011D01*
X262691816Y-131456000D01*
X262994184Y-131456000D01*
X263290743Y-131397011D01*
X263570095Y-131281299D01*
X263821505Y-131113312D01*
X264035312Y-130899505D01*
X264093000Y-130813169D01*
X264150688Y-130899505D01*
X264364495Y-131113312D01*
X264615905Y-131281299D01*
X264895257Y-131397011D01*
X265191816Y-131456000D01*
X265494184Y-131456000D01*
X265790743Y-131397011D01*
X266070095Y-131281299D01*
X266321505Y-131113312D01*
X266359120Y-131075697D01*
X266412463Y-131175494D01*
X266491815Y-131272185D01*
X266588506Y-131351537D01*
X266698820Y-131410502D01*
X266818518Y-131446812D01*
X266943000Y-131459072D01*
X267557250Y-131456000D01*
X267716000Y-131297250D01*
X267716000Y-130048000D01*
X267970000Y-130048000D01*
X267970000Y-131297250D01*
X268128750Y-131456000D01*
X268743000Y-131459072D01*
X268867482Y-131446812D01*
X268987180Y-131410502D01*
X269097494Y-131351537D01*
X269194185Y-131272185D01*
X269273537Y-131175494D01*
X269332502Y-131065180D01*
X269368812Y-130945482D01*
X269381072Y-130821000D01*
X269378000Y-130206750D01*
X269219250Y-130048000D01*
X267970000Y-130048000D01*
X267716000Y-130048000D01*
X267696000Y-130048000D01*
X267696000Y-129794000D01*
X267716000Y-129794000D01*
X267716000Y-128544750D01*
X267970000Y-128544750D01*
X267970000Y-129794000D01*
X269219250Y-129794000D01*
X269378000Y-129635250D01*
X269381072Y-129021000D01*
X269368812Y-128896518D01*
X269332502Y-128776820D01*
X269273537Y-128666506D01*
X269194185Y-128569815D01*
X269097494Y-128490463D01*
X268987180Y-128431498D01*
X268867482Y-128395188D01*
X268743000Y-128382928D01*
X268128750Y-128386000D01*
X267970000Y-128544750D01*
X267716000Y-128544750D01*
X267557250Y-128386000D01*
X266943000Y-128382928D01*
X266818518Y-128395188D01*
X266698820Y-128431498D01*
X266588506Y-128490463D01*
X266491815Y-128569815D01*
X266412463Y-128666506D01*
X266359120Y-128766303D01*
X266321505Y-128728688D01*
X266070095Y-128560701D01*
X265790743Y-128444989D01*
X265494184Y-128386000D01*
X265191816Y-128386000D01*
X264895257Y-128444989D01*
X264615905Y-128560701D01*
X264364495Y-128728688D01*
X264150688Y-128942495D01*
X264093000Y-129028831D01*
X264035312Y-128942495D01*
X263821505Y-128728688D01*
X263570095Y-128560701D01*
X263290743Y-128444989D01*
X262994184Y-128386000D01*
X262691816Y-128386000D01*
X262395257Y-128444989D01*
X262115905Y-128560701D01*
X261864495Y-128728688D01*
X261650688Y-128942495D01*
X261482701Y-129193905D01*
X261366989Y-129473257D01*
X261308000Y-129769816D01*
X249431434Y-129769816D01*
X249566000Y-129635250D01*
X249569072Y-129021000D01*
X249556812Y-128896518D01*
X249520502Y-128776820D01*
X249461537Y-128666506D01*
X249382185Y-128569815D01*
X249285494Y-128490463D01*
X249175180Y-128431498D01*
X249055482Y-128395188D01*
X248931000Y-128382928D01*
X248316750Y-128386000D01*
X248158000Y-128544750D01*
X247904000Y-128544750D01*
X247745250Y-128386000D01*
X247131000Y-128382928D01*
X247006518Y-128395188D01*
X246886820Y-128431498D01*
X246776506Y-128490463D01*
X246679815Y-128569815D01*
X246600463Y-128666506D01*
X246547120Y-128766303D01*
X246509505Y-128728688D01*
X246258095Y-128560701D01*
X245978743Y-128444989D01*
X245682184Y-128386000D01*
X245379816Y-128386000D01*
X245083257Y-128444989D01*
X244803905Y-128560701D01*
X244552495Y-128728688D01*
X244338688Y-128942495D01*
X244281000Y-129028831D01*
X244223312Y-128942495D01*
X244009505Y-128728688D01*
X243758095Y-128560701D01*
X243478743Y-128444989D01*
X243182184Y-128386000D01*
X242879816Y-128386000D01*
X242583257Y-128444989D01*
X242303905Y-128560701D01*
X242052495Y-128728688D01*
X241838688Y-128942495D01*
X241670701Y-129193905D01*
X241554989Y-129473257D01*
X241496000Y-129769816D01*
X238063142Y-129769816D01*
X238170990Y-129608411D01*
X238282932Y-129338158D01*
X238340000Y-129051260D01*
X238340000Y-128758740D01*
X238282932Y-128471842D01*
X238170990Y-128201589D01*
X238008475Y-127958368D01*
X237801632Y-127751525D01*
X237627240Y-127635000D01*
X237801632Y-127518475D01*
X238008475Y-127311632D01*
X238170990Y-127068411D01*
X238282932Y-126798158D01*
X238340000Y-126511260D01*
X238340000Y-126218740D01*
X238282932Y-125931842D01*
X238170990Y-125661589D01*
X238008475Y-125418368D01*
X237801632Y-125211525D01*
X237627240Y-125095000D01*
X237801632Y-124978475D01*
X238008475Y-124771632D01*
X238170990Y-124528411D01*
X238282932Y-124258158D01*
X238340000Y-123971260D01*
X238340000Y-123678740D01*
X238282932Y-123391842D01*
X238170990Y-123121589D01*
X238008475Y-122878368D01*
X237801632Y-122671525D01*
X237627240Y-122555000D01*
X237801632Y-122438475D01*
X238008475Y-122231632D01*
X238170990Y-121988411D01*
X238282932Y-121718158D01*
X238340000Y-121431260D01*
X238340000Y-121138740D01*
X238282932Y-120851842D01*
X238170990Y-120581589D01*
X238008475Y-120338368D01*
X237801632Y-120131525D01*
X237627240Y-120015000D01*
X237801632Y-119898475D01*
X238008475Y-119691632D01*
X238170990Y-119448411D01*
X238242403Y-119276003D01*
X238696600Y-119276003D01*
X238696600Y-119991998D01*
X238725467Y-120285088D01*
X238839543Y-120661147D01*
X239024793Y-121007725D01*
X239274098Y-121311503D01*
X239577876Y-121560807D01*
X239924454Y-121746057D01*
X240300513Y-121860133D01*
X240691600Y-121898652D01*
X241082688Y-121860133D01*
X241458747Y-121746057D01*
X241805325Y-121560807D01*
X242109103Y-121311503D01*
X242358407Y-121007725D01*
X242543657Y-120661147D01*
X242657733Y-120285087D01*
X242686600Y-119991997D01*
X242686600Y-119276003D01*
X248296600Y-119276003D01*
X248296600Y-119991998D01*
X248325467Y-120285088D01*
X248439543Y-120661147D01*
X248624793Y-121007725D01*
X248874098Y-121311503D01*
X249177876Y-121560807D01*
X249524454Y-121746057D01*
X249900513Y-121860133D01*
X250291600Y-121898652D01*
X250682688Y-121860133D01*
X251058747Y-121746057D01*
X251405325Y-121560807D01*
X251709103Y-121311503D01*
X251958407Y-121007725D01*
X252143657Y-120661147D01*
X252257733Y-120285087D01*
X252286600Y-119991997D01*
X252286600Y-119276003D01*
X258482000Y-119276003D01*
X258482000Y-119991998D01*
X258510867Y-120285088D01*
X258624943Y-120661147D01*
X258810193Y-121007725D01*
X259059498Y-121311503D01*
X259363276Y-121560807D01*
X259709854Y-121746057D01*
X260085913Y-121860133D01*
X260477000Y-121898652D01*
X260868088Y-121860133D01*
X261244147Y-121746057D01*
X261590725Y-121560807D01*
X261894503Y-121311503D01*
X262143807Y-121007725D01*
X262329057Y-120661147D01*
X262443133Y-120285087D01*
X262472000Y-119991997D01*
X262472000Y-119276003D01*
X268082000Y-119276003D01*
X268082000Y-119991998D01*
X268110867Y-120285088D01*
X268224943Y-120661147D01*
X268410193Y-121007725D01*
X268659498Y-121311503D01*
X268963276Y-121560807D01*
X269309854Y-121746057D01*
X269685913Y-121860133D01*
X270077000Y-121898652D01*
X270468088Y-121860133D01*
X270844147Y-121746057D01*
X271190725Y-121560807D01*
X271494503Y-121311503D01*
X271743807Y-121007725D01*
X271929057Y-120661147D01*
X272043133Y-120285087D01*
X272072000Y-119991997D01*
X272072000Y-119276002D01*
X272043133Y-118982912D01*
X271929057Y-118606853D01*
X271743807Y-118260275D01*
X271494503Y-117956497D01*
X271190725Y-117707193D01*
X270844146Y-117521943D01*
X270468087Y-117407867D01*
X270077000Y-117369348D01*
X269685912Y-117407867D01*
X269309853Y-117521943D01*
X268963275Y-117707193D01*
X268659497Y-117956497D01*
X268410193Y-118260275D01*
X268224943Y-118606854D01*
X268110867Y-118982913D01*
X268082000Y-119276003D01*
X262472000Y-119276003D01*
X262472000Y-119276002D01*
X262443133Y-118982912D01*
X262329057Y-118606853D01*
X262143807Y-118260275D01*
X261894503Y-117956497D01*
X261590725Y-117707193D01*
X261244146Y-117521943D01*
X260868087Y-117407867D01*
X260477000Y-117369348D01*
X260085912Y-117407867D01*
X259709853Y-117521943D01*
X259363275Y-117707193D01*
X259059497Y-117956497D01*
X258810193Y-118260275D01*
X258624943Y-118606854D01*
X258510867Y-118982913D01*
X258482000Y-119276003D01*
X252286600Y-119276003D01*
X252286600Y-119276002D01*
X252257733Y-118982912D01*
X252143657Y-118606853D01*
X251958407Y-118260275D01*
X251709103Y-117956497D01*
X251405325Y-117707193D01*
X251058746Y-117521943D01*
X250682687Y-117407867D01*
X250291600Y-117369348D01*
X249900512Y-117407867D01*
X249524453Y-117521943D01*
X249177875Y-117707193D01*
X248874097Y-117956497D01*
X248624793Y-118260275D01*
X248439543Y-118606854D01*
X248325467Y-118982913D01*
X248296600Y-119276003D01*
X242686600Y-119276003D01*
X242686600Y-119276002D01*
X242657733Y-118982912D01*
X242543657Y-118606853D01*
X242358407Y-118260275D01*
X242109103Y-117956497D01*
X241805325Y-117707193D01*
X241458746Y-117521943D01*
X241082687Y-117407867D01*
X240691600Y-117369348D01*
X240300512Y-117407867D01*
X239924453Y-117521943D01*
X239577875Y-117707193D01*
X239274097Y-117956497D01*
X239024793Y-118260275D01*
X238839543Y-118606854D01*
X238725467Y-118982913D01*
X238696600Y-119276003D01*
X238242403Y-119276003D01*
X238282932Y-119178158D01*
X238340000Y-118891260D01*
X238340000Y-118598740D01*
X238282932Y-118311842D01*
X238170990Y-118041589D01*
X238008475Y-117798368D01*
X237801632Y-117591525D01*
X237627240Y-117475000D01*
X237801632Y-117358475D01*
X238008475Y-117151632D01*
X238170990Y-116908411D01*
X238282932Y-116638158D01*
X238340000Y-116351260D01*
X238340000Y-116058740D01*
X238282932Y-115771842D01*
X238170990Y-115501589D01*
X238008475Y-115258368D01*
X237801632Y-115051525D01*
X237627240Y-114935000D01*
X237801632Y-114818475D01*
X238008475Y-114611632D01*
X238170990Y-114368411D01*
X238282932Y-114098158D01*
X238340000Y-113811260D01*
X238340000Y-113518740D01*
X238282932Y-113231842D01*
X238170990Y-112961589D01*
X238008475Y-112718368D01*
X237801632Y-112511525D01*
X237627240Y-112395000D01*
X237801632Y-112278475D01*
X238008475Y-112071632D01*
X238067819Y-111982816D01*
X241456600Y-111982816D01*
X241456600Y-112285184D01*
X241515589Y-112581743D01*
X241631301Y-112861095D01*
X241799288Y-113112505D01*
X242013095Y-113326312D01*
X242264505Y-113494299D01*
X242543857Y-113610011D01*
X242840416Y-113669000D01*
X243142784Y-113669000D01*
X243439343Y-113610011D01*
X243718695Y-113494299D01*
X243970105Y-113326312D01*
X244183912Y-113112505D01*
X244241600Y-113026169D01*
X244299288Y-113112505D01*
X244513095Y-113326312D01*
X244764505Y-113494299D01*
X245043857Y-113610011D01*
X245340416Y-113669000D01*
X245642784Y-113669000D01*
X245939343Y-113610011D01*
X246218695Y-113494299D01*
X246470105Y-113326312D01*
X246507720Y-113288697D01*
X246561063Y-113388494D01*
X246640415Y-113485185D01*
X246737106Y-113564537D01*
X246847420Y-113623502D01*
X246967118Y-113659812D01*
X247091600Y-113672072D01*
X247705850Y-113669000D01*
X247864600Y-113510250D01*
X247864600Y-112261000D01*
X248118600Y-112261000D01*
X248118600Y-113510250D01*
X248277350Y-113669000D01*
X248891600Y-113672072D01*
X249016082Y-113659812D01*
X249135780Y-113623502D01*
X249246094Y-113564537D01*
X249342785Y-113485185D01*
X249422137Y-113388494D01*
X249481102Y-113278180D01*
X249517412Y-113158482D01*
X249529672Y-113034000D01*
X249526600Y-112419750D01*
X249367850Y-112261000D01*
X248118600Y-112261000D01*
X247864600Y-112261000D01*
X247844600Y-112261000D01*
X247844600Y-112007000D01*
X247864600Y-112007000D01*
X247864600Y-110757750D01*
X248118600Y-110757750D01*
X248118600Y-112007000D01*
X249367850Y-112007000D01*
X249392034Y-111982816D01*
X261242000Y-111982816D01*
X261242000Y-112285184D01*
X261300989Y-112581743D01*
X261416701Y-112861095D01*
X261584688Y-113112505D01*
X261798495Y-113326312D01*
X262049905Y-113494299D01*
X262329257Y-113610011D01*
X262625816Y-113669000D01*
X262928184Y-113669000D01*
X263224743Y-113610011D01*
X263504095Y-113494299D01*
X263755505Y-113326312D01*
X263969312Y-113112505D01*
X264027000Y-113026169D01*
X264084688Y-113112505D01*
X264298495Y-113326312D01*
X264549905Y-113494299D01*
X264829257Y-113610011D01*
X265125816Y-113669000D01*
X265428184Y-113669000D01*
X265724743Y-113610011D01*
X266004095Y-113494299D01*
X266255505Y-113326312D01*
X266293120Y-113288697D01*
X266346463Y-113388494D01*
X266425815Y-113485185D01*
X266522506Y-113564537D01*
X266632820Y-113623502D01*
X266752518Y-113659812D01*
X266877000Y-113672072D01*
X267491250Y-113669000D01*
X267650000Y-113510250D01*
X267650000Y-112261000D01*
X267904000Y-112261000D01*
X267904000Y-113510250D01*
X268062750Y-113669000D01*
X268677000Y-113672072D01*
X268801482Y-113659812D01*
X268921180Y-113623502D01*
X269031494Y-113564537D01*
X269128185Y-113485185D01*
X269207537Y-113388494D01*
X269266502Y-113278180D01*
X269302812Y-113158482D01*
X269315072Y-113034000D01*
X269312000Y-112419750D01*
X269153250Y-112261000D01*
X267904000Y-112261000D01*
X267650000Y-112261000D01*
X267630000Y-112261000D01*
X267630000Y-112007000D01*
X267650000Y-112007000D01*
X267650000Y-110757750D01*
X267904000Y-110757750D01*
X267904000Y-112007000D01*
X269153250Y-112007000D01*
X269312000Y-111848250D01*
X269315072Y-111234000D01*
X269302812Y-111109518D01*
X269266502Y-110989820D01*
X269207537Y-110879506D01*
X269128185Y-110782815D01*
X269031494Y-110703463D01*
X268921180Y-110644498D01*
X268801482Y-110608188D01*
X268677000Y-110595928D01*
X268062750Y-110599000D01*
X267904000Y-110757750D01*
X267650000Y-110757750D01*
X267491250Y-110599000D01*
X266877000Y-110595928D01*
X266752518Y-110608188D01*
X266632820Y-110644498D01*
X266522506Y-110703463D01*
X266425815Y-110782815D01*
X266346463Y-110879506D01*
X266293120Y-110979303D01*
X266255505Y-110941688D01*
X266004095Y-110773701D01*
X265724743Y-110657989D01*
X265428184Y-110599000D01*
X265125816Y-110599000D01*
X264829257Y-110657989D01*
X264549905Y-110773701D01*
X264298495Y-110941688D01*
X264084688Y-111155495D01*
X264027000Y-111241831D01*
X263969312Y-111155495D01*
X263755505Y-110941688D01*
X263504095Y-110773701D01*
X263224743Y-110657989D01*
X262928184Y-110599000D01*
X262625816Y-110599000D01*
X262329257Y-110657989D01*
X262049905Y-110773701D01*
X261798495Y-110941688D01*
X261584688Y-111155495D01*
X261416701Y-111406905D01*
X261300989Y-111686257D01*
X261242000Y-111982816D01*
X249392034Y-111982816D01*
X249526600Y-111848250D01*
X249529672Y-111234000D01*
X249517412Y-111109518D01*
X249481102Y-110989820D01*
X249422137Y-110879506D01*
X249342785Y-110782815D01*
X249246094Y-110703463D01*
X249135780Y-110644498D01*
X249016082Y-110608188D01*
X248891600Y-110595928D01*
X248277350Y-110599000D01*
X248118600Y-110757750D01*
X247864600Y-110757750D01*
X247705850Y-110599000D01*
X247091600Y-110595928D01*
X246967118Y-110608188D01*
X246847420Y-110644498D01*
X246737106Y-110703463D01*
X246640415Y-110782815D01*
X246561063Y-110879506D01*
X246507720Y-110979303D01*
X246470105Y-110941688D01*
X246218695Y-110773701D01*
X245939343Y-110657989D01*
X245642784Y-110599000D01*
X245340416Y-110599000D01*
X245043857Y-110657989D01*
X244764505Y-110773701D01*
X244513095Y-110941688D01*
X244299288Y-111155495D01*
X244241600Y-111241831D01*
X244183912Y-111155495D01*
X243970105Y-110941688D01*
X243718695Y-110773701D01*
X243439343Y-110657989D01*
X243142784Y-110599000D01*
X242840416Y-110599000D01*
X242543857Y-110657989D01*
X242264505Y-110773701D01*
X242013095Y-110941688D01*
X241799288Y-111155495D01*
X241631301Y-111406905D01*
X241515589Y-111686257D01*
X241456600Y-111982816D01*
X238067819Y-111982816D01*
X238170990Y-111828411D01*
X238282932Y-111558158D01*
X238340000Y-111271260D01*
X238340000Y-110978740D01*
X238282932Y-110691842D01*
X238170990Y-110421589D01*
X238008475Y-110178368D01*
X237801632Y-109971525D01*
X237627240Y-109855000D01*
X237801632Y-109738475D01*
X238008475Y-109531632D01*
X238170990Y-109288411D01*
X238282932Y-109018158D01*
X238340000Y-108731260D01*
X238340000Y-108438740D01*
X238282932Y-108151842D01*
X238170990Y-107881589D01*
X238008475Y-107638368D01*
X237801632Y-107431525D01*
X237627240Y-107315000D01*
X237801632Y-107198475D01*
X238008475Y-106991632D01*
X238170990Y-106748411D01*
X238282932Y-106478158D01*
X238340000Y-106191260D01*
X238340000Y-105898740D01*
X238282932Y-105611842D01*
X238170990Y-105341589D01*
X238008475Y-105098368D01*
X237801632Y-104891525D01*
X237627240Y-104775000D01*
X237801632Y-104658475D01*
X238008475Y-104451632D01*
X238170990Y-104208411D01*
X238282932Y-103938158D01*
X238340000Y-103651260D01*
X238340000Y-103358740D01*
X238282932Y-103071842D01*
X238170990Y-102801589D01*
X238008475Y-102558368D01*
X237801632Y-102351525D01*
X237627240Y-102235000D01*
X237801632Y-102118475D01*
X238008475Y-101911632D01*
X238170990Y-101668411D01*
X238282932Y-101398158D01*
X238340000Y-101111260D01*
X238340000Y-100931503D01*
X238736000Y-100931503D01*
X238736000Y-101647498D01*
X238764867Y-101940588D01*
X238878943Y-102316647D01*
X239064193Y-102663225D01*
X239313498Y-102967003D01*
X239617276Y-103216307D01*
X239963854Y-103401557D01*
X240339913Y-103515633D01*
X240731000Y-103554152D01*
X241122088Y-103515633D01*
X241498147Y-103401557D01*
X241844725Y-103216307D01*
X242148503Y-102967003D01*
X242397807Y-102663225D01*
X242583057Y-102316647D01*
X242697133Y-101940587D01*
X242726000Y-101647497D01*
X242726000Y-100931502D01*
X242697133Y-100638412D01*
X242615759Y-100370154D01*
X245588693Y-100370154D01*
X245588693Y-100574032D01*
X245628467Y-100773991D01*
X245706488Y-100962349D01*
X245819756Y-101131867D01*
X245963919Y-101276030D01*
X246133437Y-101389298D01*
X246321795Y-101467319D01*
X246521754Y-101507093D01*
X246725632Y-101507093D01*
X246925591Y-101467319D01*
X247113949Y-101389298D01*
X247283467Y-101276030D01*
X247427630Y-101131867D01*
X247540898Y-100962349D01*
X247553674Y-100931503D01*
X248336000Y-100931503D01*
X248336000Y-101647498D01*
X248364867Y-101940588D01*
X248478943Y-102316647D01*
X248664193Y-102663225D01*
X248913498Y-102967003D01*
X249217276Y-103216307D01*
X249563854Y-103401557D01*
X249939913Y-103515633D01*
X250331000Y-103554152D01*
X250722088Y-103515633D01*
X251098147Y-103401557D01*
X251444725Y-103216307D01*
X251748503Y-102967003D01*
X251997807Y-102663225D01*
X252183057Y-102316647D01*
X252297133Y-101940587D01*
X252326000Y-101647497D01*
X252326000Y-101242003D01*
X258548000Y-101242003D01*
X258548000Y-101957998D01*
X258576867Y-102251088D01*
X258690943Y-102627147D01*
X258876193Y-102973725D01*
X259125498Y-103277503D01*
X259429276Y-103526807D01*
X259775854Y-103712057D01*
X260151913Y-103826133D01*
X260543000Y-103864652D01*
X260934088Y-103826133D01*
X261310147Y-103712057D01*
X261656725Y-103526807D01*
X261960503Y-103277503D01*
X262209807Y-102973725D01*
X262395057Y-102627147D01*
X262509133Y-102251087D01*
X262538000Y-101957997D01*
X262538000Y-101242003D01*
X268148000Y-101242003D01*
X268148000Y-101957998D01*
X268176867Y-102251088D01*
X268290943Y-102627147D01*
X268476193Y-102973725D01*
X268725498Y-103277503D01*
X269029276Y-103526807D01*
X269375854Y-103712057D01*
X269751913Y-103826133D01*
X270143000Y-103864652D01*
X270534088Y-103826133D01*
X270910147Y-103712057D01*
X271256725Y-103526807D01*
X271560503Y-103277503D01*
X271809807Y-102973725D01*
X271995057Y-102627147D01*
X272109133Y-102251087D01*
X272138000Y-101957997D01*
X272138000Y-101242002D01*
X272109133Y-100948912D01*
X271995057Y-100572853D01*
X271809807Y-100226275D01*
X271560503Y-99922497D01*
X271256725Y-99673193D01*
X270910146Y-99487943D01*
X270534087Y-99373867D01*
X270143000Y-99335348D01*
X269751912Y-99373867D01*
X269375853Y-99487943D01*
X269029275Y-99673193D01*
X268725497Y-99922497D01*
X268476193Y-100226275D01*
X268290943Y-100572854D01*
X268176867Y-100948913D01*
X268148000Y-101242003D01*
X262538000Y-101242003D01*
X262538000Y-101242002D01*
X262509133Y-100948912D01*
X262395057Y-100572853D01*
X262209807Y-100226275D01*
X261960503Y-99922497D01*
X261656725Y-99673193D01*
X261310146Y-99487943D01*
X260934087Y-99373867D01*
X260543000Y-99335348D01*
X260151912Y-99373867D01*
X259775853Y-99487943D01*
X259429275Y-99673193D01*
X259125497Y-99922497D01*
X258876193Y-100226275D01*
X258690943Y-100572854D01*
X258576867Y-100948913D01*
X258548000Y-101242003D01*
X252326000Y-101242003D01*
X252326000Y-100931502D01*
X252297133Y-100638412D01*
X252183057Y-100262353D01*
X251997807Y-99915775D01*
X251748503Y-99611997D01*
X251444725Y-99362693D01*
X251098146Y-99177443D01*
X250722087Y-99063367D01*
X250331000Y-99024848D01*
X249939912Y-99063367D01*
X249563853Y-99177443D01*
X249217275Y-99362693D01*
X248913497Y-99611997D01*
X248664193Y-99915775D01*
X248478943Y-100262354D01*
X248364867Y-100638413D01*
X248336000Y-100931503D01*
X247553674Y-100931503D01*
X247618919Y-100773991D01*
X247658693Y-100574032D01*
X247658693Y-100370154D01*
X247618919Y-100170195D01*
X247540898Y-99981837D01*
X247427630Y-99812319D01*
X247283467Y-99668156D01*
X247113949Y-99554888D01*
X246925591Y-99476867D01*
X246725632Y-99437093D01*
X246521754Y-99437093D01*
X246321795Y-99476867D01*
X246133437Y-99554888D01*
X245963919Y-99668156D01*
X245819756Y-99812319D01*
X245706488Y-99981837D01*
X245628467Y-100170195D01*
X245588693Y-100370154D01*
X242615759Y-100370154D01*
X242583057Y-100262353D01*
X242397807Y-99915775D01*
X242148503Y-99611997D01*
X241844725Y-99362693D01*
X241498146Y-99177443D01*
X241122087Y-99063367D01*
X240731000Y-99024848D01*
X240339912Y-99063367D01*
X239963853Y-99177443D01*
X239617275Y-99362693D01*
X239313497Y-99611997D01*
X239064193Y-99915775D01*
X238878943Y-100262354D01*
X238764867Y-100638413D01*
X238736000Y-100931503D01*
X238340000Y-100931503D01*
X238340000Y-100818740D01*
X238282932Y-100531842D01*
X238170990Y-100261589D01*
X238008475Y-100018368D01*
X237801632Y-99811525D01*
X237627240Y-99695000D01*
X237801632Y-99578475D01*
X238008475Y-99371632D01*
X238170990Y-99128411D01*
X238282932Y-98858158D01*
X238340000Y-98571260D01*
X238340000Y-98278740D01*
X238282932Y-97991842D01*
X238170990Y-97721589D01*
X238008475Y-97478368D01*
X237801632Y-97271525D01*
X237627240Y-97155000D01*
X237801632Y-97038475D01*
X238008475Y-96831632D01*
X238170990Y-96588411D01*
X238282932Y-96318158D01*
X238340000Y-96031260D01*
X238340000Y-95738740D01*
X238282932Y-95451842D01*
X238170990Y-95181589D01*
X238008475Y-94938368D01*
X237876620Y-94806513D01*
X237949180Y-94784502D01*
X238059494Y-94725537D01*
X238156185Y-94646185D01*
X238235537Y-94549494D01*
X238294502Y-94439180D01*
X238330812Y-94319482D01*
X238343072Y-94195000D01*
X238343072Y-92583000D01*
X242073729Y-92583000D01*
X242052495Y-92597188D01*
G37*
X242052495Y-92597188D02*
X241838688Y-92810995D01*
X241670701Y-93062405D01*
X241554989Y-93341757D01*
X241496000Y-93638316D01*
X241496000Y-93940684D01*
X241554989Y-94237243D01*
X241670701Y-94516595D01*
X241838688Y-94768005D01*
X242052495Y-94981812D01*
X242303905Y-95149799D01*
X242583257Y-95265511D01*
X242879816Y-95324500D01*
X243182184Y-95324500D01*
X243478743Y-95265511D01*
X243758095Y-95149799D01*
X244009505Y-94981812D01*
X244223312Y-94768005D01*
X244281000Y-94681669D01*
X244338688Y-94768005D01*
X244552495Y-94981812D01*
X244803905Y-95149799D01*
X245083257Y-95265511D01*
X245379816Y-95324500D01*
X245682184Y-95324500D01*
X245978743Y-95265511D01*
X246258095Y-95149799D01*
X246509505Y-94981812D01*
X246547120Y-94944197D01*
X246600463Y-95043994D01*
X246679815Y-95140685D01*
X246776506Y-95220037D01*
X246886820Y-95279002D01*
X247006518Y-95315312D01*
X247131000Y-95327572D01*
X247745250Y-95324500D01*
X247904000Y-95165750D01*
X247904000Y-93916500D01*
X248158000Y-93916500D01*
X248158000Y-95165750D01*
X248316750Y-95324500D01*
X248931000Y-95327572D01*
X249055482Y-95315312D01*
X249175180Y-95279002D01*
X249285494Y-95220037D01*
X249382185Y-95140685D01*
X249461537Y-95043994D01*
X249520502Y-94933680D01*
X249556812Y-94813982D01*
X249569072Y-94689500D01*
X249566000Y-94075250D01*
X249407250Y-93916500D01*
X248158000Y-93916500D01*
X247904000Y-93916500D01*
X247884000Y-93916500D01*
X247884000Y-93662500D01*
X247904000Y-93662500D01*
X247904000Y-93642500D01*
X248158000Y-93642500D01*
X248158000Y-93662500D01*
X249407250Y-93662500D01*
X249566000Y-93503750D01*
X249569072Y-92889500D01*
X249556812Y-92765018D01*
X249520502Y-92645320D01*
X249487191Y-92583000D01*
X262601324Y-92583000D01*
X262395257Y-92623989D01*
X262115905Y-92739701D01*
X261864495Y-92907688D01*
X261650688Y-93121495D01*
X261482701Y-93372905D01*
X261366989Y-93652257D01*
X261308000Y-93948816D01*
X261308000Y-94251184D01*
X261366989Y-94547743D01*
X261482701Y-94827095D01*
X261650688Y-95078505D01*
X261864495Y-95292312D01*
X262115905Y-95460299D01*
X262395257Y-95576011D01*
X262691816Y-95635000D01*
X262994184Y-95635000D01*
X263290743Y-95576011D01*
X263570095Y-95460299D01*
X263821505Y-95292312D01*
X264035312Y-95078505D01*
X264093000Y-94992169D01*
X264150688Y-95078505D01*
X264364495Y-95292312D01*
X264615905Y-95460299D01*
X264895257Y-95576011D01*
X265191816Y-95635000D01*
X265494184Y-95635000D01*
X265790743Y-95576011D01*
X266070095Y-95460299D01*
X266321505Y-95292312D01*
X266359120Y-95254697D01*
X266412463Y-95354494D01*
X266491815Y-95451185D01*
X266588506Y-95530537D01*
X266698820Y-95589502D01*
X266818518Y-95625812D01*
X266943000Y-95638072D01*
X267557250Y-95635000D01*
X267716000Y-95476250D01*
X267716000Y-94227000D01*
X267970000Y-94227000D01*
X267970000Y-95476250D01*
X268128750Y-95635000D01*
X268743000Y-95638072D01*
X268867482Y-95625812D01*
X268987180Y-95589502D01*
X269097494Y-95530537D01*
X269194185Y-95451185D01*
X269273537Y-95354494D01*
X269332502Y-95244180D01*
X269368812Y-95124482D01*
X269381072Y-95000000D01*
X269378000Y-94385750D01*
X269219250Y-94227000D01*
X267970000Y-94227000D01*
X267716000Y-94227000D01*
X267696000Y-94227000D01*
X267696000Y-93973000D01*
X267716000Y-93973000D01*
X267716000Y-93953000D01*
X267970000Y-93953000D01*
X267970000Y-93973000D01*
X269219250Y-93973000D01*
X269378000Y-93814250D01*
X269381072Y-93200000D01*
X269368812Y-93075518D01*
X269332502Y-92955820D01*
X269273537Y-92845506D01*
X269194185Y-92748815D01*
X269097494Y-92669463D01*
X268987180Y-92610498D01*
X268896531Y-92583000D01*
X272831928Y-92583000D01*
X272831928Y-94195000D01*
X272844188Y-94319482D01*
X272880498Y-94439180D01*
X272939463Y-94549494D01*
X273018815Y-94646185D01*
X273115506Y-94725537D01*
X273225820Y-94784502D01*
X273298380Y-94806513D01*
X273166525Y-94938368D01*
X273004010Y-95181589D01*
X272892068Y-95451842D01*
X272835000Y-95738740D01*
X272835000Y-96031260D01*
X272892068Y-96318158D01*
X273004010Y-96588411D01*
X273166525Y-96831632D01*
X273373368Y-97038475D01*
X273547760Y-97155000D01*
X273373368Y-97271525D01*
X273166525Y-97478368D01*
X273004010Y-97721589D01*
X272892068Y-97991842D01*
X272835000Y-98278740D01*
X272835000Y-98571260D01*
X272892068Y-98858158D01*
X273004010Y-99128411D01*
X273166525Y-99371632D01*
X273373368Y-99578475D01*
X273547760Y-99695000D01*
X273373368Y-99811525D01*
X273166525Y-100018368D01*
X273004010Y-100261589D01*
X272892068Y-100531842D01*
X272835000Y-100818740D01*
X272835000Y-101111260D01*
X272892068Y-101398158D01*
X273004010Y-101668411D01*
X273166525Y-101911632D01*
X273373368Y-102118475D01*
X273547760Y-102235000D01*
X273373368Y-102351525D01*
X273166525Y-102558368D01*
X273004010Y-102801589D01*
X272892068Y-103071842D01*
X272835000Y-103358740D01*
X272835000Y-103651260D01*
X272892068Y-103938158D01*
X273004010Y-104208411D01*
X273166525Y-104451632D01*
X273373368Y-104658475D01*
X273547760Y-104775000D01*
X273373368Y-104891525D01*
X273166525Y-105098368D01*
X273004010Y-105341589D01*
X272892068Y-105611842D01*
X272835000Y-105898740D01*
X272835000Y-106191260D01*
X272892068Y-106478158D01*
X273004010Y-106748411D01*
X273166525Y-106991632D01*
X273373368Y-107198475D01*
X273547760Y-107315000D01*
X273373368Y-107431525D01*
X273166525Y-107638368D01*
X273004010Y-107881589D01*
X272892068Y-108151842D01*
X272835000Y-108438740D01*
X272835000Y-108731260D01*
X272892068Y-109018158D01*
X273004010Y-109288411D01*
X273166525Y-109531632D01*
X273373368Y-109738475D01*
X273547760Y-109855000D01*
X273373368Y-109971525D01*
X273166525Y-110178368D01*
X273004010Y-110421589D01*
X272892068Y-110691842D01*
X272835000Y-110978740D01*
X272835000Y-111271260D01*
X272892068Y-111558158D01*
X273004010Y-111828411D01*
X273166525Y-112071632D01*
X273373368Y-112278475D01*
X273547760Y-112395000D01*
X273373368Y-112511525D01*
X273166525Y-112718368D01*
X273004010Y-112961589D01*
X272892068Y-113231842D01*
X272835000Y-113518740D01*
X272835000Y-113811260D01*
X272892068Y-114098158D01*
X273004010Y-114368411D01*
X273166525Y-114611632D01*
X273373368Y-114818475D01*
X273547760Y-114935000D01*
X273373368Y-115051525D01*
X273166525Y-115258368D01*
X273004010Y-115501589D01*
X272892068Y-115771842D01*
X272835000Y-116058740D01*
X272835000Y-116351260D01*
X272892068Y-116638158D01*
X273004010Y-116908411D01*
X273166525Y-117151632D01*
X273373368Y-117358475D01*
X273547760Y-117475000D01*
X273373368Y-117591525D01*
X273166525Y-117798368D01*
X273004010Y-118041589D01*
X272892068Y-118311842D01*
X272835000Y-118598740D01*
X272835000Y-118891260D01*
X272892068Y-119178158D01*
X273004010Y-119448411D01*
X273166525Y-119691632D01*
X273373368Y-119898475D01*
X273547760Y-120015000D01*
X273373368Y-120131525D01*
X273166525Y-120338368D01*
X273004010Y-120581589D01*
X272892068Y-120851842D01*
X272835000Y-121138740D01*
X272835000Y-121431260D01*
X272892068Y-121718158D01*
X273004010Y-121988411D01*
X273166525Y-122231632D01*
X273373368Y-122438475D01*
X273547760Y-122555000D01*
X273373368Y-122671525D01*
X273166525Y-122878368D01*
X273004010Y-123121589D01*
X272892068Y-123391842D01*
X272835000Y-123678740D01*
X272835000Y-123971260D01*
X272892068Y-124258158D01*
X273004010Y-124528411D01*
X273166525Y-124771632D01*
X273373368Y-124978475D01*
X273547760Y-125095000D01*
X273373368Y-125211525D01*
X273166525Y-125418368D01*
X273004010Y-125661589D01*
X272892068Y-125931842D01*
X272835000Y-126218740D01*
X272835000Y-126511260D01*
X272892068Y-126798158D01*
X273004010Y-127068411D01*
X273166525Y-127311632D01*
X273373368Y-127518475D01*
X273547760Y-127635000D01*
X273373368Y-127751525D01*
X273166525Y-127958368D01*
X273004010Y-128201589D01*
X272892068Y-128471842D01*
X272858966Y-128638256D01*
X272829773Y-128609063D01*
X272660255Y-128495795D01*
X272471897Y-128417774D01*
X272271938Y-128378000D01*
X272068060Y-128378000D01*
X271868101Y-128417774D01*
X271679743Y-128495795D01*
X271510225Y-128609063D01*
X271366062Y-128753226D01*
X271252794Y-128922744D01*
X271174773Y-129111102D01*
X271134999Y-129311061D01*
X271134999Y-129514939D01*
X271174773Y-129714898D01*
X271252794Y-129903256D01*
X271366062Y-130072774D01*
X271510225Y-130216937D01*
X271679743Y-130330205D01*
X271868101Y-130408226D01*
X272068060Y-130448000D01*
X272271938Y-130448000D01*
X272471897Y-130408226D01*
X272660255Y-130330205D01*
X272829773Y-130216937D01*
X272973936Y-130072774D01*
X273087204Y-129903256D01*
X273130759Y-129798105D01*
X273166525Y-129851632D01*
X273373368Y-130058475D01*
X273547760Y-130175000D01*
X273373368Y-130291525D01*
X273166525Y-130498368D01*
X273004010Y-130741589D01*
X272892068Y-131011842D01*
X272835000Y-131298740D01*
X272835000Y-131591260D01*
X272892068Y-131878158D01*
X273004010Y-132148411D01*
X273166525Y-132391632D01*
X273373368Y-132598475D01*
X273547760Y-132715000D01*
X273373368Y-132831525D01*
X273166525Y-133038368D01*
X273004010Y-133281589D01*
X272892068Y-133551842D01*
X272835000Y-133838740D01*
X272835000Y-134131260D01*
X272892068Y-134418158D01*
X273004010Y-134688411D01*
X273166525Y-134931632D01*
X273373368Y-135138475D01*
X273547760Y-135255000D01*
X273373368Y-135371525D01*
X273166525Y-135578368D01*
X273004010Y-135821589D01*
X272892068Y-136091842D01*
X272835000Y-136378740D01*
X272835000Y-136671260D01*
X272892068Y-136958158D01*
X273004010Y-137228411D01*
X273166525Y-137471632D01*
X273373368Y-137678475D01*
X273547760Y-137795000D01*
X273373368Y-137911525D01*
X273166525Y-138118368D01*
X273004010Y-138361589D01*
X272892068Y-138631842D01*
X272835000Y-138918740D01*
X272835000Y-139211260D01*
X272892068Y-139498158D01*
X273004010Y-139768411D01*
X273166525Y-140011632D01*
X273373368Y-140218475D01*
X273555534Y-140340195D01*
X273438645Y-140409822D01*
X273222412Y-140604731D01*
X273048359Y-140838080D01*
X272923175Y-141100901D01*
X272878524Y-141248110D01*
X272999845Y-141478000D01*
X274193000Y-141478000D01*
X274193000Y-141458000D01*
X274447000Y-141458000D01*
X274447000Y-141478000D01*
X274467000Y-141478000D01*
X274467000Y-141732000D01*
X274447000Y-141732000D01*
X274447000Y-141752000D01*
X274193000Y-141752000D01*
X274193000Y-141732000D01*
X272999845Y-141732000D01*
X272878524Y-141961890D01*
X272923175Y-142109099D01*
X273048359Y-142371920D01*
X273222412Y-142605269D01*
X273438645Y-142800178D01*
X273480316Y-142825000D01*
X237702070Y-142825000D01*
X237801632Y-142758475D01*
X238008475Y-142551632D01*
X238170990Y-142308411D01*
X238282932Y-142038158D01*
X238340000Y-141751260D01*
X238340000Y-141458740D01*
X238282932Y-141171842D01*
X238170990Y-140901589D01*
X238008475Y-140658368D01*
X237801632Y-140451525D01*
X237627240Y-140335000D01*
X237801632Y-140218475D01*
X238008475Y-140011632D01*
X238170990Y-139768411D01*
X238282932Y-139498158D01*
X238340000Y-139211260D01*
X238340000Y-138918740D01*
X238282932Y-138631842D01*
X238170990Y-138361589D01*
X238008475Y-138118368D01*
X237801632Y-137911525D01*
X237627240Y-137795000D01*
X237801632Y-137678475D01*
X238008475Y-137471632D01*
X238170990Y-137228411D01*
X238239503Y-137063003D01*
X238736000Y-137063003D01*
X238736000Y-137778998D01*
X238764867Y-138072088D01*
X238878943Y-138448147D01*
X239064193Y-138794725D01*
X239313498Y-139098503D01*
X239617276Y-139347807D01*
X239963854Y-139533057D01*
X240339913Y-139647133D01*
X240731000Y-139685652D01*
X241122088Y-139647133D01*
X241498147Y-139533057D01*
X241844725Y-139347807D01*
X242148503Y-139098503D01*
X242397807Y-138794725D01*
X242583057Y-138448147D01*
X242697133Y-138072087D01*
X242726000Y-137778997D01*
X242726000Y-137063003D01*
X248336000Y-137063003D01*
X248336000Y-137778998D01*
X248364867Y-138072088D01*
X248478943Y-138448147D01*
X248664193Y-138794725D01*
X248913498Y-139098503D01*
X249217276Y-139347807D01*
X249563854Y-139533057D01*
X249939913Y-139647133D01*
X250331000Y-139685652D01*
X250722088Y-139647133D01*
X251098147Y-139533057D01*
X251444725Y-139347807D01*
X251748503Y-139098503D01*
X251997807Y-138794725D01*
X252183057Y-138448147D01*
X252297133Y-138072087D01*
X252326000Y-137778997D01*
X252326000Y-137063003D01*
X258548000Y-137063003D01*
X258548000Y-137778998D01*
X258576867Y-138072088D01*
X258690943Y-138448147D01*
X258876193Y-138794725D01*
X259125498Y-139098503D01*
X259429276Y-139347807D01*
X259775854Y-139533057D01*
X260151913Y-139647133D01*
X260543000Y-139685652D01*
X260934088Y-139647133D01*
X261310147Y-139533057D01*
X261656725Y-139347807D01*
X261960503Y-139098503D01*
X262209807Y-138794725D01*
X262395057Y-138448147D01*
X262509133Y-138072087D01*
X262538000Y-137778997D01*
X262538000Y-137063003D01*
X268148000Y-137063003D01*
X268148000Y-137778998D01*
X268176867Y-138072088D01*
X268290943Y-138448147D01*
X268476193Y-138794725D01*
X268725498Y-139098503D01*
X269029276Y-139347807D01*
X269375854Y-139533057D01*
X269751913Y-139647133D01*
X270143000Y-139685652D01*
X270534088Y-139647133D01*
X270910147Y-139533057D01*
X271256725Y-139347807D01*
X271560503Y-139098503D01*
X271809807Y-138794725D01*
X271995057Y-138448147D01*
X272109133Y-138072087D01*
X272138000Y-137778997D01*
X272138000Y-137063002D01*
X272109133Y-136769912D01*
X271995057Y-136393853D01*
X271809807Y-136047275D01*
X271560503Y-135743497D01*
X271256725Y-135494193D01*
X270910146Y-135308943D01*
X270534087Y-135194867D01*
X270143000Y-135156348D01*
X269751912Y-135194867D01*
X269375853Y-135308943D01*
X269029275Y-135494193D01*
X268725497Y-135743497D01*
X268476193Y-136047275D01*
X268290943Y-136393854D01*
X268176867Y-136769913D01*
X268148000Y-137063003D01*
X262538000Y-137063003D01*
X262538000Y-137063002D01*
X262509133Y-136769912D01*
X262395057Y-136393853D01*
X262209807Y-136047275D01*
X261960503Y-135743497D01*
X261656725Y-135494193D01*
X261310146Y-135308943D01*
X260934087Y-135194867D01*
X260543000Y-135156348D01*
X260151912Y-135194867D01*
X259775853Y-135308943D01*
X259429275Y-135494193D01*
X259125497Y-135743497D01*
X258876193Y-136047275D01*
X258690943Y-136393854D01*
X258576867Y-136769913D01*
X258548000Y-137063003D01*
X252326000Y-137063003D01*
X252326000Y-137063002D01*
X252297133Y-136769912D01*
X252183057Y-136393853D01*
X251997807Y-136047275D01*
X251748503Y-135743497D01*
X251444725Y-135494193D01*
X251098146Y-135308943D01*
X250722087Y-135194867D01*
X250331000Y-135156348D01*
X249939912Y-135194867D01*
X249563853Y-135308943D01*
X249217275Y-135494193D01*
X248913497Y-135743497D01*
X248664193Y-136047275D01*
X248478943Y-136393854D01*
X248364867Y-136769913D01*
X248336000Y-137063003D01*
X242726000Y-137063003D01*
X242726000Y-137063002D01*
X242697133Y-136769912D01*
X242583057Y-136393853D01*
X242397807Y-136047275D01*
X242148503Y-135743497D01*
X241844725Y-135494193D01*
X241498146Y-135308943D01*
X241122087Y-135194867D01*
X240731000Y-135156348D01*
X240339912Y-135194867D01*
X239963853Y-135308943D01*
X239617275Y-135494193D01*
X239313497Y-135743497D01*
X239064193Y-136047275D01*
X238878943Y-136393854D01*
X238764867Y-136769913D01*
X238736000Y-137063003D01*
X238239503Y-137063003D01*
X238282932Y-136958158D01*
X238340000Y-136671260D01*
X238340000Y-136378740D01*
X238282932Y-136091842D01*
X238170990Y-135821589D01*
X238008475Y-135578368D01*
X237801632Y-135371525D01*
X237627240Y-135255000D01*
X237801632Y-135138475D01*
X238008475Y-134931632D01*
X238170990Y-134688411D01*
X238282932Y-134418158D01*
X238340000Y-134131260D01*
X238340000Y-133838740D01*
X238282932Y-133551842D01*
X238170990Y-133281589D01*
X238008475Y-133038368D01*
X237801632Y-132831525D01*
X237627240Y-132715000D01*
X237801632Y-132598475D01*
X238008475Y-132391632D01*
X238170990Y-132148411D01*
X238282932Y-131878158D01*
X238340000Y-131591260D01*
X238340000Y-131298740D01*
X238282932Y-131011842D01*
X238170990Y-130741589D01*
X238008475Y-130498368D01*
X237801632Y-130291525D01*
X237627240Y-130175000D01*
X237801632Y-130058475D01*
X238008475Y-129851632D01*
X238063142Y-129769816D01*
X241496000Y-129769816D01*
X241496000Y-130072184D01*
X241554989Y-130368743D01*
X241670701Y-130648095D01*
X241838688Y-130899505D01*
X242052495Y-131113312D01*
X242303905Y-131281299D01*
X242583257Y-131397011D01*
X242879816Y-131456000D01*
X243182184Y-131456000D01*
X243478743Y-131397011D01*
X243758095Y-131281299D01*
X244009505Y-131113312D01*
X244223312Y-130899505D01*
X244281000Y-130813169D01*
X244338688Y-130899505D01*
X244552495Y-131113312D01*
X244803905Y-131281299D01*
X245083257Y-131397011D01*
X245379816Y-131456000D01*
X245682184Y-131456000D01*
X245978743Y-131397011D01*
X246258095Y-131281299D01*
X246509505Y-131113312D01*
X246547120Y-131075697D01*
X246600463Y-131175494D01*
X246679815Y-131272185D01*
X246776506Y-131351537D01*
X246886820Y-131410502D01*
X247006518Y-131446812D01*
X247131000Y-131459072D01*
X247745250Y-131456000D01*
X247904000Y-131297250D01*
X247904000Y-130048000D01*
X248158000Y-130048000D01*
X248158000Y-131297250D01*
X248316750Y-131456000D01*
X248931000Y-131459072D01*
X249055482Y-131446812D01*
X249175180Y-131410502D01*
X249285494Y-131351537D01*
X249382185Y-131272185D01*
X249461537Y-131175494D01*
X249520502Y-131065180D01*
X249556812Y-130945482D01*
X249569072Y-130821000D01*
X249566000Y-130206750D01*
X249407250Y-130048000D01*
X248158000Y-130048000D01*
X247904000Y-130048000D01*
X247884000Y-130048000D01*
X247884000Y-129794000D01*
X247904000Y-129794000D01*
X247904000Y-128544750D01*
X248158000Y-128544750D01*
X248158000Y-129794000D01*
X249407250Y-129794000D01*
X249431434Y-129769816D01*
X261308000Y-129769816D01*
X261308000Y-130072184D01*
X261366989Y-130368743D01*
X261482701Y-130648095D01*
X261650688Y-130899505D01*
X261864495Y-131113312D01*
X262115905Y-131281299D01*
X262395257Y-131397011D01*
X262691816Y-131456000D01*
X262994184Y-131456000D01*
X263290743Y-131397011D01*
X263570095Y-131281299D01*
X263821505Y-131113312D01*
X264035312Y-130899505D01*
X264093000Y-130813169D01*
X264150688Y-130899505D01*
X264364495Y-131113312D01*
X264615905Y-131281299D01*
X264895257Y-131397011D01*
X265191816Y-131456000D01*
X265494184Y-131456000D01*
X265790743Y-131397011D01*
X266070095Y-131281299D01*
X266321505Y-131113312D01*
X266359120Y-131075697D01*
X266412463Y-131175494D01*
X266491815Y-131272185D01*
X266588506Y-131351537D01*
X266698820Y-131410502D01*
X266818518Y-131446812D01*
X266943000Y-131459072D01*
X267557250Y-131456000D01*
X267716000Y-131297250D01*
X267716000Y-130048000D01*
X267970000Y-130048000D01*
X267970000Y-131297250D01*
X268128750Y-131456000D01*
X268743000Y-131459072D01*
X268867482Y-131446812D01*
X268987180Y-131410502D01*
X269097494Y-131351537D01*
X269194185Y-131272185D01*
X269273537Y-131175494D01*
X269332502Y-131065180D01*
X269368812Y-130945482D01*
X269381072Y-130821000D01*
X269378000Y-130206750D01*
X269219250Y-130048000D01*
X267970000Y-130048000D01*
X267716000Y-130048000D01*
X267696000Y-130048000D01*
X267696000Y-129794000D01*
X267716000Y-129794000D01*
X267716000Y-128544750D01*
X267970000Y-128544750D01*
X267970000Y-129794000D01*
X269219250Y-129794000D01*
X269378000Y-129635250D01*
X269381072Y-129021000D01*
X269368812Y-128896518D01*
X269332502Y-128776820D01*
X269273537Y-128666506D01*
X269194185Y-128569815D01*
X269097494Y-128490463D01*
X268987180Y-128431498D01*
X268867482Y-128395188D01*
X268743000Y-128382928D01*
X268128750Y-128386000D01*
X267970000Y-128544750D01*
X267716000Y-128544750D01*
X267557250Y-128386000D01*
X266943000Y-128382928D01*
X266818518Y-128395188D01*
X266698820Y-128431498D01*
X266588506Y-128490463D01*
X266491815Y-128569815D01*
X266412463Y-128666506D01*
X266359120Y-128766303D01*
X266321505Y-128728688D01*
X266070095Y-128560701D01*
X265790743Y-128444989D01*
X265494184Y-128386000D01*
X265191816Y-128386000D01*
X264895257Y-128444989D01*
X264615905Y-128560701D01*
X264364495Y-128728688D01*
X264150688Y-128942495D01*
X264093000Y-129028831D01*
X264035312Y-128942495D01*
X263821505Y-128728688D01*
X263570095Y-128560701D01*
X263290743Y-128444989D01*
X262994184Y-128386000D01*
X262691816Y-128386000D01*
X262395257Y-128444989D01*
X262115905Y-128560701D01*
X261864495Y-128728688D01*
X261650688Y-128942495D01*
X261482701Y-129193905D01*
X261366989Y-129473257D01*
X261308000Y-129769816D01*
X249431434Y-129769816D01*
X249566000Y-129635250D01*
X249569072Y-129021000D01*
X249556812Y-128896518D01*
X249520502Y-128776820D01*
X249461537Y-128666506D01*
X249382185Y-128569815D01*
X249285494Y-128490463D01*
X249175180Y-128431498D01*
X249055482Y-128395188D01*
X248931000Y-128382928D01*
X248316750Y-128386000D01*
X248158000Y-128544750D01*
X247904000Y-128544750D01*
X247745250Y-128386000D01*
X247131000Y-128382928D01*
X247006518Y-128395188D01*
X246886820Y-128431498D01*
X246776506Y-128490463D01*
X246679815Y-128569815D01*
X246600463Y-128666506D01*
X246547120Y-128766303D01*
X246509505Y-128728688D01*
X246258095Y-128560701D01*
X245978743Y-128444989D01*
X245682184Y-128386000D01*
X245379816Y-128386000D01*
X245083257Y-128444989D01*
X244803905Y-128560701D01*
X244552495Y-128728688D01*
X244338688Y-128942495D01*
X244281000Y-129028831D01*
X244223312Y-128942495D01*
X244009505Y-128728688D01*
X243758095Y-128560701D01*
X243478743Y-128444989D01*
X243182184Y-128386000D01*
X242879816Y-128386000D01*
X242583257Y-128444989D01*
X242303905Y-128560701D01*
X242052495Y-128728688D01*
X241838688Y-128942495D01*
X241670701Y-129193905D01*
X241554989Y-129473257D01*
X241496000Y-129769816D01*
X238063142Y-129769816D01*
X238170990Y-129608411D01*
X238282932Y-129338158D01*
X238340000Y-129051260D01*
X238340000Y-128758740D01*
X238282932Y-128471842D01*
X238170990Y-128201589D01*
X238008475Y-127958368D01*
X237801632Y-127751525D01*
X237627240Y-127635000D01*
X237801632Y-127518475D01*
X238008475Y-127311632D01*
X238170990Y-127068411D01*
X238282932Y-126798158D01*
X238340000Y-126511260D01*
X238340000Y-126218740D01*
X238282932Y-125931842D01*
X238170990Y-125661589D01*
X238008475Y-125418368D01*
X237801632Y-125211525D01*
X237627240Y-125095000D01*
X237801632Y-124978475D01*
X238008475Y-124771632D01*
X238170990Y-124528411D01*
X238282932Y-124258158D01*
X238340000Y-123971260D01*
X238340000Y-123678740D01*
X238282932Y-123391842D01*
X238170990Y-123121589D01*
X238008475Y-122878368D01*
X237801632Y-122671525D01*
X237627240Y-122555000D01*
X237801632Y-122438475D01*
X238008475Y-122231632D01*
X238170990Y-121988411D01*
X238282932Y-121718158D01*
X238340000Y-121431260D01*
X238340000Y-121138740D01*
X238282932Y-120851842D01*
X238170990Y-120581589D01*
X238008475Y-120338368D01*
X237801632Y-120131525D01*
X237627240Y-120015000D01*
X237801632Y-119898475D01*
X238008475Y-119691632D01*
X238170990Y-119448411D01*
X238242403Y-119276003D01*
X238696600Y-119276003D01*
X238696600Y-119991998D01*
X238725467Y-120285088D01*
X238839543Y-120661147D01*
X239024793Y-121007725D01*
X239274098Y-121311503D01*
X239577876Y-121560807D01*
X239924454Y-121746057D01*
X240300513Y-121860133D01*
X240691600Y-121898652D01*
X241082688Y-121860133D01*
X241458747Y-121746057D01*
X241805325Y-121560807D01*
X242109103Y-121311503D01*
X242358407Y-121007725D01*
X242543657Y-120661147D01*
X242657733Y-120285087D01*
X242686600Y-119991997D01*
X242686600Y-119276003D01*
X248296600Y-119276003D01*
X248296600Y-119991998D01*
X248325467Y-120285088D01*
X248439543Y-120661147D01*
X248624793Y-121007725D01*
X248874098Y-121311503D01*
X249177876Y-121560807D01*
X249524454Y-121746057D01*
X249900513Y-121860133D01*
X250291600Y-121898652D01*
X250682688Y-121860133D01*
X251058747Y-121746057D01*
X251405325Y-121560807D01*
X251709103Y-121311503D01*
X251958407Y-121007725D01*
X252143657Y-120661147D01*
X252257733Y-120285087D01*
X252286600Y-119991997D01*
X252286600Y-119276003D01*
X258482000Y-119276003D01*
X258482000Y-119991998D01*
X258510867Y-120285088D01*
X258624943Y-120661147D01*
X258810193Y-121007725D01*
X259059498Y-121311503D01*
X259363276Y-121560807D01*
X259709854Y-121746057D01*
X260085913Y-121860133D01*
X260477000Y-121898652D01*
X260868088Y-121860133D01*
X261244147Y-121746057D01*
X261590725Y-121560807D01*
X261894503Y-121311503D01*
X262143807Y-121007725D01*
X262329057Y-120661147D01*
X262443133Y-120285087D01*
X262472000Y-119991997D01*
X262472000Y-119276003D01*
X268082000Y-119276003D01*
X268082000Y-119991998D01*
X268110867Y-120285088D01*
X268224943Y-120661147D01*
X268410193Y-121007725D01*
X268659498Y-121311503D01*
X268963276Y-121560807D01*
X269309854Y-121746057D01*
X269685913Y-121860133D01*
X270077000Y-121898652D01*
X270468088Y-121860133D01*
X270844147Y-121746057D01*
X271190725Y-121560807D01*
X271494503Y-121311503D01*
X271743807Y-121007725D01*
X271929057Y-120661147D01*
X272043133Y-120285087D01*
X272072000Y-119991997D01*
X272072000Y-119276002D01*
X272043133Y-118982912D01*
X271929057Y-118606853D01*
X271743807Y-118260275D01*
X271494503Y-117956497D01*
X271190725Y-117707193D01*
X270844146Y-117521943D01*
X270468087Y-117407867D01*
X270077000Y-117369348D01*
X269685912Y-117407867D01*
X269309853Y-117521943D01*
X268963275Y-117707193D01*
X268659497Y-117956497D01*
X268410193Y-118260275D01*
X268224943Y-118606854D01*
X268110867Y-118982913D01*
X268082000Y-119276003D01*
X262472000Y-119276003D01*
X262472000Y-119276002D01*
X262443133Y-118982912D01*
X262329057Y-118606853D01*
X262143807Y-118260275D01*
X261894503Y-117956497D01*
X261590725Y-117707193D01*
X261244146Y-117521943D01*
X260868087Y-117407867D01*
X260477000Y-117369348D01*
X260085912Y-117407867D01*
X259709853Y-117521943D01*
X259363275Y-117707193D01*
X259059497Y-117956497D01*
X258810193Y-118260275D01*
X258624943Y-118606854D01*
X258510867Y-118982913D01*
X258482000Y-119276003D01*
X252286600Y-119276003D01*
X252286600Y-119276002D01*
X252257733Y-118982912D01*
X252143657Y-118606853D01*
X251958407Y-118260275D01*
X251709103Y-117956497D01*
X251405325Y-117707193D01*
X251058746Y-117521943D01*
X250682687Y-117407867D01*
X250291600Y-117369348D01*
X249900512Y-117407867D01*
X249524453Y-117521943D01*
X249177875Y-117707193D01*
X248874097Y-117956497D01*
X248624793Y-118260275D01*
X248439543Y-118606854D01*
X248325467Y-118982913D01*
X248296600Y-119276003D01*
X242686600Y-119276003D01*
X242686600Y-119276002D01*
X242657733Y-118982912D01*
X242543657Y-118606853D01*
X242358407Y-118260275D01*
X242109103Y-117956497D01*
X241805325Y-117707193D01*
X241458746Y-117521943D01*
X241082687Y-117407867D01*
X240691600Y-117369348D01*
X240300512Y-117407867D01*
X239924453Y-117521943D01*
X239577875Y-117707193D01*
X239274097Y-117956497D01*
X239024793Y-118260275D01*
X238839543Y-118606854D01*
X238725467Y-118982913D01*
X238696600Y-119276003D01*
X238242403Y-119276003D01*
X238282932Y-119178158D01*
X238340000Y-118891260D01*
X238340000Y-118598740D01*
X238282932Y-118311842D01*
X238170990Y-118041589D01*
X238008475Y-117798368D01*
X237801632Y-117591525D01*
X237627240Y-117475000D01*
X237801632Y-117358475D01*
X238008475Y-117151632D01*
X238170990Y-116908411D01*
X238282932Y-116638158D01*
X238340000Y-116351260D01*
X238340000Y-116058740D01*
X238282932Y-115771842D01*
X238170990Y-115501589D01*
X238008475Y-115258368D01*
X237801632Y-115051525D01*
X237627240Y-114935000D01*
X237801632Y-114818475D01*
X238008475Y-114611632D01*
X238170990Y-114368411D01*
X238282932Y-114098158D01*
X238340000Y-113811260D01*
X238340000Y-113518740D01*
X238282932Y-113231842D01*
X238170990Y-112961589D01*
X238008475Y-112718368D01*
X237801632Y-112511525D01*
X237627240Y-112395000D01*
X237801632Y-112278475D01*
X238008475Y-112071632D01*
X238067819Y-111982816D01*
X241456600Y-111982816D01*
X241456600Y-112285184D01*
X241515589Y-112581743D01*
X241631301Y-112861095D01*
X241799288Y-113112505D01*
X242013095Y-113326312D01*
X242264505Y-113494299D01*
X242543857Y-113610011D01*
X242840416Y-113669000D01*
X243142784Y-113669000D01*
X243439343Y-113610011D01*
X243718695Y-113494299D01*
X243970105Y-113326312D01*
X244183912Y-113112505D01*
X244241600Y-113026169D01*
X244299288Y-113112505D01*
X244513095Y-113326312D01*
X244764505Y-113494299D01*
X245043857Y-113610011D01*
X245340416Y-113669000D01*
X245642784Y-113669000D01*
X245939343Y-113610011D01*
X246218695Y-113494299D01*
X246470105Y-113326312D01*
X246507720Y-113288697D01*
X246561063Y-113388494D01*
X246640415Y-113485185D01*
X246737106Y-113564537D01*
X246847420Y-113623502D01*
X246967118Y-113659812D01*
X247091600Y-113672072D01*
X247705850Y-113669000D01*
X247864600Y-113510250D01*
X247864600Y-112261000D01*
X248118600Y-112261000D01*
X248118600Y-113510250D01*
X248277350Y-113669000D01*
X248891600Y-113672072D01*
X249016082Y-113659812D01*
X249135780Y-113623502D01*
X249246094Y-113564537D01*
X249342785Y-113485185D01*
X249422137Y-113388494D01*
X249481102Y-113278180D01*
X249517412Y-113158482D01*
X249529672Y-113034000D01*
X249526600Y-112419750D01*
X249367850Y-112261000D01*
X248118600Y-112261000D01*
X247864600Y-112261000D01*
X247844600Y-112261000D01*
X247844600Y-112007000D01*
X247864600Y-112007000D01*
X247864600Y-110757750D01*
X248118600Y-110757750D01*
X248118600Y-112007000D01*
X249367850Y-112007000D01*
X249392034Y-111982816D01*
X261242000Y-111982816D01*
X261242000Y-112285184D01*
X261300989Y-112581743D01*
X261416701Y-112861095D01*
X261584688Y-113112505D01*
X261798495Y-113326312D01*
X262049905Y-113494299D01*
X262329257Y-113610011D01*
X262625816Y-113669000D01*
X262928184Y-113669000D01*
X263224743Y-113610011D01*
X263504095Y-113494299D01*
X263755505Y-113326312D01*
X263969312Y-113112505D01*
X264027000Y-113026169D01*
X264084688Y-113112505D01*
X264298495Y-113326312D01*
X264549905Y-113494299D01*
X264829257Y-113610011D01*
X265125816Y-113669000D01*
X265428184Y-113669000D01*
X265724743Y-113610011D01*
X266004095Y-113494299D01*
X266255505Y-113326312D01*
X266293120Y-113288697D01*
X266346463Y-113388494D01*
X266425815Y-113485185D01*
X266522506Y-113564537D01*
X266632820Y-113623502D01*
X266752518Y-113659812D01*
X266877000Y-113672072D01*
X267491250Y-113669000D01*
X267650000Y-113510250D01*
X267650000Y-112261000D01*
X267904000Y-112261000D01*
X267904000Y-113510250D01*
X268062750Y-113669000D01*
X268677000Y-113672072D01*
X268801482Y-113659812D01*
X268921180Y-113623502D01*
X269031494Y-113564537D01*
X269128185Y-113485185D01*
X269207537Y-113388494D01*
X269266502Y-113278180D01*
X269302812Y-113158482D01*
X269315072Y-113034000D01*
X269312000Y-112419750D01*
X269153250Y-112261000D01*
X267904000Y-112261000D01*
X267650000Y-112261000D01*
X267630000Y-112261000D01*
X267630000Y-112007000D01*
X267650000Y-112007000D01*
X267650000Y-110757750D01*
X267904000Y-110757750D01*
X267904000Y-112007000D01*
X269153250Y-112007000D01*
X269312000Y-111848250D01*
X269315072Y-111234000D01*
X269302812Y-111109518D01*
X269266502Y-110989820D01*
X269207537Y-110879506D01*
X269128185Y-110782815D01*
X269031494Y-110703463D01*
X268921180Y-110644498D01*
X268801482Y-110608188D01*
X268677000Y-110595928D01*
X268062750Y-110599000D01*
X267904000Y-110757750D01*
X267650000Y-110757750D01*
X267491250Y-110599000D01*
X266877000Y-110595928D01*
X266752518Y-110608188D01*
X266632820Y-110644498D01*
X266522506Y-110703463D01*
X266425815Y-110782815D01*
X266346463Y-110879506D01*
X266293120Y-110979303D01*
X266255505Y-110941688D01*
X266004095Y-110773701D01*
X265724743Y-110657989D01*
X265428184Y-110599000D01*
X265125816Y-110599000D01*
X264829257Y-110657989D01*
X264549905Y-110773701D01*
X264298495Y-110941688D01*
X264084688Y-111155495D01*
X264027000Y-111241831D01*
X263969312Y-111155495D01*
X263755505Y-110941688D01*
X263504095Y-110773701D01*
X263224743Y-110657989D01*
X262928184Y-110599000D01*
X262625816Y-110599000D01*
X262329257Y-110657989D01*
X262049905Y-110773701D01*
X261798495Y-110941688D01*
X261584688Y-111155495D01*
X261416701Y-111406905D01*
X261300989Y-111686257D01*
X261242000Y-111982816D01*
X249392034Y-111982816D01*
X249526600Y-111848250D01*
X249529672Y-111234000D01*
X249517412Y-111109518D01*
X249481102Y-110989820D01*
X249422137Y-110879506D01*
X249342785Y-110782815D01*
X249246094Y-110703463D01*
X249135780Y-110644498D01*
X249016082Y-110608188D01*
X248891600Y-110595928D01*
X248277350Y-110599000D01*
X248118600Y-110757750D01*
X247864600Y-110757750D01*
X247705850Y-110599000D01*
X247091600Y-110595928D01*
X246967118Y-110608188D01*
X246847420Y-110644498D01*
X246737106Y-110703463D01*
X246640415Y-110782815D01*
X246561063Y-110879506D01*
X246507720Y-110979303D01*
X246470105Y-110941688D01*
X246218695Y-110773701D01*
X245939343Y-110657989D01*
X245642784Y-110599000D01*
X245340416Y-110599000D01*
X245043857Y-110657989D01*
X244764505Y-110773701D01*
X244513095Y-110941688D01*
X244299288Y-111155495D01*
X244241600Y-111241831D01*
X244183912Y-111155495D01*
X243970105Y-110941688D01*
X243718695Y-110773701D01*
X243439343Y-110657989D01*
X243142784Y-110599000D01*
X242840416Y-110599000D01*
X242543857Y-110657989D01*
X242264505Y-110773701D01*
X242013095Y-110941688D01*
X241799288Y-111155495D01*
X241631301Y-111406905D01*
X241515589Y-111686257D01*
X241456600Y-111982816D01*
X238067819Y-111982816D01*
X238170990Y-111828411D01*
X238282932Y-111558158D01*
X238340000Y-111271260D01*
X238340000Y-110978740D01*
X238282932Y-110691842D01*
X238170990Y-110421589D01*
X238008475Y-110178368D01*
X237801632Y-109971525D01*
X237627240Y-109855000D01*
X237801632Y-109738475D01*
X238008475Y-109531632D01*
X238170990Y-109288411D01*
X238282932Y-109018158D01*
X238340000Y-108731260D01*
X238340000Y-108438740D01*
X238282932Y-108151842D01*
X238170990Y-107881589D01*
X238008475Y-107638368D01*
X237801632Y-107431525D01*
X237627240Y-107315000D01*
X237801632Y-107198475D01*
X238008475Y-106991632D01*
X238170990Y-106748411D01*
X238282932Y-106478158D01*
X238340000Y-106191260D01*
X238340000Y-105898740D01*
X238282932Y-105611842D01*
X238170990Y-105341589D01*
X238008475Y-105098368D01*
X237801632Y-104891525D01*
X237627240Y-104775000D01*
X237801632Y-104658475D01*
X238008475Y-104451632D01*
X238170990Y-104208411D01*
X238282932Y-103938158D01*
X238340000Y-103651260D01*
X238340000Y-103358740D01*
X238282932Y-103071842D01*
X238170990Y-102801589D01*
X238008475Y-102558368D01*
X237801632Y-102351525D01*
X237627240Y-102235000D01*
X237801632Y-102118475D01*
X238008475Y-101911632D01*
X238170990Y-101668411D01*
X238282932Y-101398158D01*
X238340000Y-101111260D01*
X238340000Y-100931503D01*
X238736000Y-100931503D01*
X238736000Y-101647498D01*
X238764867Y-101940588D01*
X238878943Y-102316647D01*
X239064193Y-102663225D01*
X239313498Y-102967003D01*
X239617276Y-103216307D01*
X239963854Y-103401557D01*
X240339913Y-103515633D01*
X240731000Y-103554152D01*
X241122088Y-103515633D01*
X241498147Y-103401557D01*
X241844725Y-103216307D01*
X242148503Y-102967003D01*
X242397807Y-102663225D01*
X242583057Y-102316647D01*
X242697133Y-101940587D01*
X242726000Y-101647497D01*
X242726000Y-100931502D01*
X242697133Y-100638412D01*
X242615759Y-100370154D01*
X245588693Y-100370154D01*
X245588693Y-100574032D01*
X245628467Y-100773991D01*
X245706488Y-100962349D01*
X245819756Y-101131867D01*
X245963919Y-101276030D01*
X246133437Y-101389298D01*
X246321795Y-101467319D01*
X246521754Y-101507093D01*
X246725632Y-101507093D01*
X246925591Y-101467319D01*
X247113949Y-101389298D01*
X247283467Y-101276030D01*
X247427630Y-101131867D01*
X247540898Y-100962349D01*
X247553674Y-100931503D01*
X248336000Y-100931503D01*
X248336000Y-101647498D01*
X248364867Y-101940588D01*
X248478943Y-102316647D01*
X248664193Y-102663225D01*
X248913498Y-102967003D01*
X249217276Y-103216307D01*
X249563854Y-103401557D01*
X249939913Y-103515633D01*
X250331000Y-103554152D01*
X250722088Y-103515633D01*
X251098147Y-103401557D01*
X251444725Y-103216307D01*
X251748503Y-102967003D01*
X251997807Y-102663225D01*
X252183057Y-102316647D01*
X252297133Y-101940587D01*
X252326000Y-101647497D01*
X252326000Y-101242003D01*
X258548000Y-101242003D01*
X258548000Y-101957998D01*
X258576867Y-102251088D01*
X258690943Y-102627147D01*
X258876193Y-102973725D01*
X259125498Y-103277503D01*
X259429276Y-103526807D01*
X259775854Y-103712057D01*
X260151913Y-103826133D01*
X260543000Y-103864652D01*
X260934088Y-103826133D01*
X261310147Y-103712057D01*
X261656725Y-103526807D01*
X261960503Y-103277503D01*
X262209807Y-102973725D01*
X262395057Y-102627147D01*
X262509133Y-102251087D01*
X262538000Y-101957997D01*
X262538000Y-101242003D01*
X268148000Y-101242003D01*
X268148000Y-101957998D01*
X268176867Y-102251088D01*
X268290943Y-102627147D01*
X268476193Y-102973725D01*
X268725498Y-103277503D01*
X269029276Y-103526807D01*
X269375854Y-103712057D01*
X269751913Y-103826133D01*
X270143000Y-103864652D01*
X270534088Y-103826133D01*
X270910147Y-103712057D01*
X271256725Y-103526807D01*
X271560503Y-103277503D01*
X271809807Y-102973725D01*
X271995057Y-102627147D01*
X272109133Y-102251087D01*
X272138000Y-101957997D01*
X272138000Y-101242002D01*
X272109133Y-100948912D01*
X271995057Y-100572853D01*
X271809807Y-100226275D01*
X271560503Y-99922497D01*
X271256725Y-99673193D01*
X270910146Y-99487943D01*
X270534087Y-99373867D01*
X270143000Y-99335348D01*
X269751912Y-99373867D01*
X269375853Y-99487943D01*
X269029275Y-99673193D01*
X268725497Y-99922497D01*
X268476193Y-100226275D01*
X268290943Y-100572854D01*
X268176867Y-100948913D01*
X268148000Y-101242003D01*
X262538000Y-101242003D01*
X262538000Y-101242002D01*
X262509133Y-100948912D01*
X262395057Y-100572853D01*
X262209807Y-100226275D01*
X261960503Y-99922497D01*
X261656725Y-99673193D01*
X261310146Y-99487943D01*
X260934087Y-99373867D01*
X260543000Y-99335348D01*
X260151912Y-99373867D01*
X259775853Y-99487943D01*
X259429275Y-99673193D01*
X259125497Y-99922497D01*
X258876193Y-100226275D01*
X258690943Y-100572854D01*
X258576867Y-100948913D01*
X258548000Y-101242003D01*
X252326000Y-101242003D01*
X252326000Y-100931502D01*
X252297133Y-100638412D01*
X252183057Y-100262353D01*
X251997807Y-99915775D01*
X251748503Y-99611997D01*
X251444725Y-99362693D01*
X251098146Y-99177443D01*
X250722087Y-99063367D01*
X250331000Y-99024848D01*
X249939912Y-99063367D01*
X249563853Y-99177443D01*
X249217275Y-99362693D01*
X248913497Y-99611997D01*
X248664193Y-99915775D01*
X248478943Y-100262354D01*
X248364867Y-100638413D01*
X248336000Y-100931503D01*
X247553674Y-100931503D01*
X247618919Y-100773991D01*
X247658693Y-100574032D01*
X247658693Y-100370154D01*
X247618919Y-100170195D01*
X247540898Y-99981837D01*
X247427630Y-99812319D01*
X247283467Y-99668156D01*
X247113949Y-99554888D01*
X246925591Y-99476867D01*
X246725632Y-99437093D01*
X246521754Y-99437093D01*
X246321795Y-99476867D01*
X246133437Y-99554888D01*
X245963919Y-99668156D01*
X245819756Y-99812319D01*
X245706488Y-99981837D01*
X245628467Y-100170195D01*
X245588693Y-100370154D01*
X242615759Y-100370154D01*
X242583057Y-100262353D01*
X242397807Y-99915775D01*
X242148503Y-99611997D01*
X241844725Y-99362693D01*
X241498146Y-99177443D01*
X241122087Y-99063367D01*
X240731000Y-99024848D01*
X240339912Y-99063367D01*
X239963853Y-99177443D01*
X239617275Y-99362693D01*
X239313497Y-99611997D01*
X239064193Y-99915775D01*
X238878943Y-100262354D01*
X238764867Y-100638413D01*
X238736000Y-100931503D01*
X238340000Y-100931503D01*
X238340000Y-100818740D01*
X238282932Y-100531842D01*
X238170990Y-100261589D01*
X238008475Y-100018368D01*
X237801632Y-99811525D01*
X237627240Y-99695000D01*
X237801632Y-99578475D01*
X238008475Y-99371632D01*
X238170990Y-99128411D01*
X238282932Y-98858158D01*
X238340000Y-98571260D01*
X238340000Y-98278740D01*
X238282932Y-97991842D01*
X238170990Y-97721589D01*
X238008475Y-97478368D01*
X237801632Y-97271525D01*
X237627240Y-97155000D01*
X237801632Y-97038475D01*
X238008475Y-96831632D01*
X238170990Y-96588411D01*
X238282932Y-96318158D01*
X238340000Y-96031260D01*
X238340000Y-95738740D01*
X238282932Y-95451842D01*
X238170990Y-95181589D01*
X238008475Y-94938368D01*
X237876620Y-94806513D01*
X237949180Y-94784502D01*
X238059494Y-94725537D01*
X238156185Y-94646185D01*
X238235537Y-94549494D01*
X238294502Y-94439180D01*
X238330812Y-94319482D01*
X238343072Y-94195000D01*
X238343072Y-92583000D01*
X242073729Y-92583000D01*
X242052495Y-92597188D01*
%TD*%
M02*
