%TF.GenerationSoftware,KiCad,Pcbnew,(5.1.6-0-10_14)*%
%TF.CreationDate,2021-03-24T18:08:36-04:00*%
%TF.ProjectId,lowstepper_hardware,6c6f7773-7465-4707-9065-725f68617264,rev?*%
%TF.SameCoordinates,Original*%
%TF.FileFunction,Soldermask,Bot*%
%TF.FilePolarity,Negative*%
%FSLAX46Y46*%
G04 Gerber Fmt 4.6, Leading zero omitted, Abs format (unit mm)*
G04 Created by KiCad (PCBNEW (5.1.6-0-10_14)) date 2021-03-24 18:08:36*
%MOMM*%
%LPD*%
G01*
G04 APERTURE LIST*
%ADD10O,2.216000X1.108000*%
%ADD11O,2.016000X1.008000*%
%ADD12C,1.600000*%
%ADD13R,1.600000X1.600000*%
%ADD14R,1.800000X1.800000*%
%ADD15C,1.800000*%
%ADD16O,2.720000X3.240000*%
G04 APERTURE END LIST*
D10*
%TO.C,J17*%
X260604000Y-44320000D03*
X260604000Y-47420000D03*
D11*
X260604000Y-55720000D03*
%TD*%
D10*
%TO.C,J16*%
X240284000Y-44320000D03*
X240284000Y-47420000D03*
D11*
X240284000Y-55720000D03*
%TD*%
D10*
%TO.C,J15*%
X250444000Y-44320000D03*
X250444000Y-47420000D03*
D11*
X250444000Y-55720000D03*
%TD*%
D10*
%TO.C,J14*%
X260604000Y-30096000D03*
X260604000Y-33196000D03*
D11*
X260604000Y-41496000D03*
%TD*%
D10*
%TO.C,J13*%
X240284000Y-30096000D03*
X240284000Y-33196000D03*
D11*
X240284000Y-41496000D03*
%TD*%
D10*
%TO.C,J12*%
X250444000Y-30096000D03*
X250444000Y-33196000D03*
D11*
X250444000Y-41496000D03*
%TD*%
D10*
%TO.C,J11*%
X260604000Y-72768000D03*
X260604000Y-75868000D03*
D11*
X260604000Y-84168000D03*
%TD*%
D10*
%TO.C,J10*%
X240284000Y-72768000D03*
X240284000Y-75868000D03*
D11*
X240284000Y-84168000D03*
%TD*%
D10*
%TO.C,J9*%
X250444000Y-72768000D03*
X250444000Y-75868000D03*
D11*
X250444000Y-84168000D03*
%TD*%
D10*
%TO.C,J7*%
X260604000Y-58544000D03*
X260604000Y-61644000D03*
D11*
X260604000Y-69944000D03*
%TD*%
D10*
%TO.C,J6*%
X240284000Y-58544000D03*
X240284000Y-61644000D03*
D11*
X240284000Y-69944000D03*
%TD*%
D10*
%TO.C,J5*%
X250444000Y-58544000D03*
X250444000Y-61644000D03*
D11*
X250444000Y-69944000D03*
%TD*%
D10*
%TO.C,J4*%
X270764000Y-44320000D03*
X270764000Y-47420000D03*
D11*
X270764000Y-55720000D03*
%TD*%
D10*
%TO.C,J3*%
X270764000Y-30096000D03*
X270764000Y-33196000D03*
D11*
X270764000Y-41496000D03*
%TD*%
D10*
%TO.C,J2*%
X270764000Y-72768000D03*
X270764000Y-75868000D03*
D11*
X270764000Y-84168000D03*
%TD*%
D10*
%TO.C,J1*%
X270764000Y-58544000D03*
X270764000Y-61644000D03*
D11*
X270764000Y-69944000D03*
%TD*%
D12*
%TO.C,U3*%
X166412000Y-51981000D03*
X163872000Y-51981000D03*
X161332000Y-51981000D03*
X158792000Y-51981000D03*
X156252000Y-51981000D03*
X162602000Y-42281000D03*
X160062000Y-42281000D03*
X157522000Y-42281000D03*
X152442000Y-42281000D03*
X149902000Y-39741000D03*
X152442000Y-39741000D03*
X154982000Y-39741000D03*
X157522000Y-39741000D03*
X160062000Y-39741000D03*
X162602000Y-39741000D03*
X165142000Y-39741000D03*
X167682000Y-39741000D03*
X170222000Y-39741000D03*
X172762000Y-39741000D03*
X175302000Y-39741000D03*
X177842000Y-39741000D03*
X180382000Y-39741000D03*
X182922000Y-39741000D03*
X185462000Y-39741000D03*
X188002000Y-39741000D03*
D13*
X149902000Y-54981000D03*
D12*
X152442000Y-54981000D03*
X154982000Y-54981000D03*
X157522000Y-54981000D03*
X160062000Y-54981000D03*
X162602000Y-54981000D03*
X165142000Y-54981000D03*
X167682000Y-54981000D03*
X170222000Y-54981000D03*
X172762000Y-54981000D03*
X175302000Y-54981000D03*
X177842000Y-54981000D03*
X180382000Y-54981000D03*
X190542000Y-39741000D03*
X193082000Y-39741000D03*
X195622000Y-39741000D03*
X198162000Y-39741000D03*
X200702000Y-39741000D03*
X203242000Y-39741000D03*
X205782000Y-39741000D03*
X208322000Y-39741000D03*
X195622000Y-42281000D03*
X195622000Y-44821000D03*
X195622000Y-47361000D03*
X195622000Y-49901000D03*
X195622000Y-52441000D03*
X208322000Y-54981000D03*
X205782000Y-54981000D03*
X203242000Y-54981000D03*
X200702000Y-54981000D03*
X182922000Y-54981000D03*
X185462000Y-54981000D03*
X188002000Y-54981000D03*
X198162000Y-54981000D03*
X195622000Y-54981000D03*
X193082000Y-54981000D03*
X190542000Y-54981000D03*
%TD*%
D14*
%TO.C,RV6*%
X267843000Y-129921000D03*
D15*
X265343000Y-129921000D03*
X262843000Y-129921000D03*
D16*
X260543000Y-137421000D03*
X270143000Y-137421000D03*
%TD*%
D14*
%TO.C,RV5*%
X267843000Y-112141000D03*
D15*
X265343000Y-112141000D03*
X262843000Y-112141000D03*
D16*
X260543000Y-119641000D03*
X270143000Y-119641000D03*
%TD*%
%TO.C,RV4*%
X270143000Y-101393000D03*
X260543000Y-101393000D03*
D15*
X262843000Y-93893000D03*
X265343000Y-93893000D03*
D14*
X267843000Y-93893000D03*
%TD*%
%TO.C,RV3*%
X248031000Y-129921000D03*
D15*
X245531000Y-129921000D03*
X243031000Y-129921000D03*
D16*
X240731000Y-137421000D03*
X250331000Y-137421000D03*
%TD*%
D14*
%TO.C,RV2*%
X248031000Y-112014000D03*
D15*
X245531000Y-112014000D03*
X243031000Y-112014000D03*
D16*
X240731000Y-119514000D03*
X250331000Y-119514000D03*
%TD*%
%TO.C,RV1*%
X250331000Y-101353000D03*
X240731000Y-101353000D03*
D15*
X243031000Y-93853000D03*
X245531000Y-93853000D03*
D14*
X248031000Y-93853000D03*
%TD*%
M02*
