%TF.GenerationSoftware,KiCad,Pcbnew,(5.1.6-0-10_14)*%
%TF.CreationDate,2021-03-24T18:08:36-04:00*%
%TF.ProjectId,lowstepper_hardware,6c6f7773-7465-4707-9065-725f68617264,rev?*%
%TF.SameCoordinates,Original*%
%TF.FileFunction,Copper,L2,Bot*%
%TF.FilePolarity,Positive*%
%FSLAX46Y46*%
G04 Gerber Fmt 4.6, Leading zero omitted, Abs format (unit mm)*
G04 Created by KiCad (PCBNEW (5.1.6-0-10_14)) date 2021-03-24 18:08:36*
%MOMM*%
%LPD*%
G01*
G04 APERTURE LIST*
%TA.AperFunction,ComponentPad*%
%ADD10O,2.216000X1.108000*%
%TD*%
%TA.AperFunction,ComponentPad*%
%ADD11O,2.016000X1.008000*%
%TD*%
%TA.AperFunction,ComponentPad*%
%ADD12C,1.600000*%
%TD*%
%TA.AperFunction,ComponentPad*%
%ADD13R,1.600000X1.600000*%
%TD*%
%TA.AperFunction,ComponentPad*%
%ADD14R,1.800000X1.800000*%
%TD*%
%TA.AperFunction,ComponentPad*%
%ADD15C,1.800000*%
%TD*%
%TA.AperFunction,ComponentPad*%
%ADD16O,2.720000X3.240000*%
%TD*%
G04 APERTURE END LIST*
D10*
%TO.P,J17,1*%
%TO.N,GND*%
X260604000Y-44320000D03*
%TO.P,J17,2*%
%TO.N,/RESET_SENSE_B*%
X260604000Y-47420000D03*
D11*
%TO.P,J17,3*%
%TO.N,Net-(J17-Pad3)*%
X260604000Y-55720000D03*
%TD*%
D10*
%TO.P,J16,1*%
%TO.N,GND*%
X240284000Y-44320000D03*
%TO.P,J16,2*%
%TO.N,/TRIG_SENSE_B*%
X240284000Y-47420000D03*
D11*
%TO.P,J16,3*%
%TO.N,Net-(J16-Pad3)*%
X240284000Y-55720000D03*
%TD*%
D10*
%TO.P,J15,1*%
%TO.N,GND*%
X250444000Y-44320000D03*
%TO.P,J15,2*%
%TO.N,/CLK_SENSE_B*%
X250444000Y-47420000D03*
D11*
%TO.P,J15,3*%
%TO.N,Net-(J15-Pad3)*%
X250444000Y-55720000D03*
%TD*%
D10*
%TO.P,J14,1*%
%TO.N,GND*%
X260604000Y-30096000D03*
%TO.P,J14,2*%
%TO.N,/RESET_SENSE_A*%
X260604000Y-33196000D03*
D11*
%TO.P,J14,3*%
%TO.N,Net-(J14-Pad3)*%
X260604000Y-41496000D03*
%TD*%
D10*
%TO.P,J13,1*%
%TO.N,GND*%
X240284000Y-30096000D03*
%TO.P,J13,2*%
%TO.N,/TRIG_SENSE_A*%
X240284000Y-33196000D03*
D11*
%TO.P,J13,3*%
%TO.N,Net-(J13-Pad3)*%
X240284000Y-41496000D03*
%TD*%
D10*
%TO.P,J12,1*%
%TO.N,GND*%
X250444000Y-30096000D03*
%TO.P,J12,2*%
%TO.N,/CLK_SENSE_A*%
X250444000Y-33196000D03*
D11*
%TO.P,J12,3*%
%TO.N,Net-(J12-Pad3)*%
X250444000Y-41496000D03*
%TD*%
D10*
%TO.P,J11,1*%
%TO.N,GND*%
X260604000Y-72768000D03*
%TO.P,J11,2*%
X260604000Y-75868000D03*
D11*
%TO.P,J11,3*%
%TO.N,Net-(J11-Pad3)*%
X260604000Y-84168000D03*
%TD*%
D10*
%TO.P,J10,1*%
%TO.N,GND*%
X240284000Y-72768000D03*
%TO.P,J10,2*%
X240284000Y-75868000D03*
D11*
%TO.P,J10,3*%
%TO.N,Net-(J10-Pad3)*%
X240284000Y-84168000D03*
%TD*%
D10*
%TO.P,J9,1*%
%TO.N,GND*%
X250444000Y-72768000D03*
%TO.P,J9,2*%
X250444000Y-75868000D03*
D11*
%TO.P,J9,3*%
%TO.N,Net-(J9-Pad3)*%
X250444000Y-84168000D03*
%TD*%
D10*
%TO.P,J7,1*%
%TO.N,GND*%
X260604000Y-58544000D03*
%TO.P,J7,2*%
X260604000Y-61644000D03*
D11*
%TO.P,J7,3*%
%TO.N,Net-(J7-Pad3)*%
X260604000Y-69944000D03*
%TD*%
D10*
%TO.P,J6,1*%
%TO.N,GND*%
X240284000Y-58544000D03*
%TO.P,J6,2*%
X240284000Y-61644000D03*
D11*
%TO.P,J6,3*%
%TO.N,Net-(J6-Pad3)*%
X240284000Y-69944000D03*
%TD*%
D10*
%TO.P,J5,1*%
%TO.N,GND*%
X250444000Y-58544000D03*
%TO.P,J5,2*%
X250444000Y-61644000D03*
D11*
%TO.P,J5,3*%
%TO.N,Net-(J5-Pad3)*%
X250444000Y-69944000D03*
%TD*%
D10*
%TO.P,J4,1*%
%TO.N,GND*%
X270764000Y-44320000D03*
%TO.P,J4,2*%
%TO.N,Net-(J4-Pad2)*%
X270764000Y-47420000D03*
D11*
%TO.P,J4,3*%
%TO.N,Net-(J4-Pad3)*%
X270764000Y-55720000D03*
%TD*%
D10*
%TO.P,J3,1*%
%TO.N,GND*%
X270764000Y-30096000D03*
%TO.P,J3,2*%
%TO.N,Net-(J3-Pad2)*%
X270764000Y-33196000D03*
D11*
%TO.P,J3,3*%
%TO.N,Net-(J3-Pad3)*%
X270764000Y-41496000D03*
%TD*%
D10*
%TO.P,J2,1*%
%TO.N,GND*%
X270764000Y-72768000D03*
%TO.P,J2,2*%
%TO.N,Net-(J2-Pad2)*%
X270764000Y-75868000D03*
D11*
%TO.P,J2,3*%
%TO.N,Net-(J2-Pad3)*%
X270764000Y-84168000D03*
%TD*%
D10*
%TO.P,J1,1*%
%TO.N,GND*%
X270764000Y-58544000D03*
%TO.P,J1,2*%
%TO.N,Net-(J1-Pad2)*%
X270764000Y-61644000D03*
D11*
%TO.P,J1,3*%
%TO.N,Net-(J1-Pad3)*%
X270764000Y-69944000D03*
%TD*%
D12*
%TO.P,U3,62*%
%TO.N,N/C*%
X166412000Y-51981000D03*
%TO.P,U3,61*%
X163872000Y-51981000D03*
%TO.P,U3,60*%
X161332000Y-51981000D03*
%TO.P,U3,59*%
X158792000Y-51981000D03*
%TO.P,U3,58*%
X156252000Y-51981000D03*
%TO.P,U3,57*%
%TO.N,/EOC_A*%
X162602000Y-42281000D03*
%TO.P,U3,56*%
%TO.N,/EOC_B*%
X160062000Y-42281000D03*
%TO.P,U3,55*%
%TO.N,Net-(U3-Pad55)*%
X157522000Y-42281000D03*
%TO.P,U3,54*%
%TO.N,Net-(U3-Pad54)*%
X152442000Y-42281000D03*
%TO.P,U3,53*%
%TO.N,+5V*%
X149902000Y-39741000D03*
%TO.P,U3,52*%
%TO.N,Net-(U3-Pad52)*%
X152442000Y-39741000D03*
%TO.P,U3,51*%
%TO.N,+3V3*%
X154982000Y-39741000D03*
%TO.P,U3,50*%
%TO.N,/RATE_POT_B*%
X157522000Y-39741000D03*
%TO.P,U3,49*%
%TO.N,/MORPH_POT_B*%
X160062000Y-39741000D03*
%TO.P,U3,48*%
%TO.N,/CHUNK_POT_B*%
X162602000Y-39741000D03*
%TO.P,U3,47*%
%TO.N,/RATE_CV_B*%
X165142000Y-39741000D03*
%TO.P,U3,46*%
%TO.N,/MORPH_CV_B*%
X167682000Y-39741000D03*
%TO.P,U3,45*%
%TO.N,/CHUNK_CV_B*%
X170222000Y-39741000D03*
%TO.P,U3,44*%
%TO.N,/RESET_SENSE_B*%
X172762000Y-39741000D03*
%TO.P,U3,43*%
%TO.N,/TRIG_SENSE_B*%
X175302000Y-39741000D03*
%TO.P,U3,42*%
%TO.N,/CLK_SENSE_B*%
X177842000Y-39741000D03*
%TO.P,U3,41*%
%TO.N,/BTN_MODE_SELECT*%
X180382000Y-39741000D03*
%TO.P,U3,40*%
%TO.N,Net-(U3-Pad40)*%
X182922000Y-39741000D03*
%TO.P,U3,39*%
%TO.N,GND*%
X185462000Y-39741000D03*
%TO.P,U3,38*%
%TO.N,/DAC_OUT_B*%
X188002000Y-39741000D03*
D13*
%TO.P,U3,1*%
%TO.N,GND*%
X149902000Y-54981000D03*
D12*
%TO.P,U3,2*%
%TO.N,Net-(U3-Pad2)*%
X152442000Y-54981000D03*
%TO.P,U3,3*%
%TO.N,Net-(U3-Pad3)*%
X154982000Y-54981000D03*
%TO.P,U3,4*%
%TO.N,Net-(U3-Pad4)*%
X157522000Y-54981000D03*
%TO.P,U3,5*%
%TO.N,/LED_A_R*%
X160062000Y-54981000D03*
%TO.P,U3,6*%
%TO.N,/LED_A_G*%
X162602000Y-54981000D03*
%TO.P,U3,7*%
%TO.N,/LED_A_B*%
X165142000Y-54981000D03*
%TO.P,U3,8*%
%TO.N,/LED_B_R*%
X167682000Y-54981000D03*
%TO.P,U3,9*%
%TO.N,Net-(U3-Pad9)*%
X170222000Y-54981000D03*
%TO.P,U3,10*%
%TO.N,Net-(U3-Pad10)*%
X172762000Y-54981000D03*
%TO.P,U3,11*%
%TO.N,/LED_B_G*%
X175302000Y-54981000D03*
%TO.P,U3,12*%
%TO.N,/LED_B_B*%
X177842000Y-54981000D03*
%TO.P,U3,13*%
%TO.N,Net-(U3-Pad13)*%
X180382000Y-54981000D03*
%TO.P,U3,37*%
%TO.N,/DAC_OUT_A*%
X190542000Y-39741000D03*
%TO.P,U3,36*%
%TO.N,Net-(U3-Pad36)*%
X193082000Y-39741000D03*
%TO.P,U3,35*%
%TO.N,/CHUNK_CV_A*%
X195622000Y-39741000D03*
%TO.P,U3,34*%
%TO.N,/MORPH_CV_A*%
X198162000Y-39741000D03*
%TO.P,U3,33*%
%TO.N,/RATE_CV_A*%
X200702000Y-39741000D03*
%TO.P,U3,32*%
%TO.N,/CHUNK_POT_A*%
X203242000Y-39741000D03*
%TO.P,U3,31*%
%TO.N,/MORPH_POT_A*%
X205782000Y-39741000D03*
%TO.P,U3,30*%
%TO.N,/RATE_POT_A*%
X208322000Y-39741000D03*
%TO.P,U3,29*%
%TO.N,Net-(U3-Pad29)*%
X195622000Y-42281000D03*
%TO.P,U3,28*%
%TO.N,Net-(U3-Pad28)*%
X195622000Y-44821000D03*
%TO.P,U3,27*%
%TO.N,GND*%
X195622000Y-47361000D03*
%TO.P,U3,26*%
%TO.N,Net-(U3-Pad26)*%
X195622000Y-49901000D03*
%TO.P,U3,25*%
%TO.N,Net-(U3-Pad25)*%
X195622000Y-52441000D03*
%TO.P,U3,24*%
%TO.N,/RESET_SENSE_A*%
X208322000Y-54981000D03*
%TO.P,U3,23*%
%TO.N,/TRIG_SENSE_A*%
X205782000Y-54981000D03*
%TO.P,U3,22*%
%TO.N,/CLK_SENSE_A*%
X203242000Y-54981000D03*
%TO.P,U3,21*%
%TO.N,/RESET_IN_B*%
X200702000Y-54981000D03*
%TO.P,U3,14*%
%TO.N,Net-(U3-Pad14)*%
X182922000Y-54981000D03*
%TO.P,U3,15*%
%TO.N,Net-(U3-Pad15)*%
X185462000Y-54981000D03*
%TO.P,U3,16*%
%TO.N,/CLK_IN_A*%
X188002000Y-54981000D03*
%TO.P,U3,20*%
%TO.N,/TRIG_IN_B*%
X198162000Y-54981000D03*
%TO.P,U3,19*%
%TO.N,/CLK_IN_B*%
X195622000Y-54981000D03*
%TO.P,U3,18*%
%TO.N,/RESET_IN_A*%
X193082000Y-54981000D03*
%TO.P,U3,17*%
%TO.N,/TRIG_IN_A*%
X190542000Y-54981000D03*
%TD*%
D14*
%TO.P,RV6,1*%
%TO.N,+3V3*%
X267843000Y-129921000D03*
D15*
%TO.P,RV6,2*%
%TO.N,/CHUNK_POT_B*%
X265343000Y-129921000D03*
%TO.P,RV6,3*%
%TO.N,GND*%
X262843000Y-129921000D03*
D16*
%TO.P,RV6,*%
%TO.N,*%
X260543000Y-137421000D03*
X270143000Y-137421000D03*
%TD*%
D14*
%TO.P,RV5,1*%
%TO.N,+3V3*%
X267843000Y-112141000D03*
D15*
%TO.P,RV5,2*%
%TO.N,/RATE_POT_B*%
X265343000Y-112141000D03*
%TO.P,RV5,3*%
%TO.N,GND*%
X262843000Y-112141000D03*
D16*
%TO.P,RV5,*%
%TO.N,*%
X260543000Y-119641000D03*
X270143000Y-119641000D03*
%TD*%
%TO.P,RV4,*%
%TO.N,*%
X270143000Y-101393000D03*
X260543000Y-101393000D03*
D15*
%TO.P,RV4,3*%
%TO.N,GND*%
X262843000Y-93893000D03*
%TO.P,RV4,2*%
%TO.N,/MORPH_POT_B*%
X265343000Y-93893000D03*
D14*
%TO.P,RV4,1*%
%TO.N,+3V3*%
X267843000Y-93893000D03*
%TD*%
%TO.P,RV3,1*%
%TO.N,+3V3*%
X248031000Y-129921000D03*
D15*
%TO.P,RV3,2*%
%TO.N,/CHUNK_POT_A*%
X245531000Y-129921000D03*
%TO.P,RV3,3*%
%TO.N,GND*%
X243031000Y-129921000D03*
D16*
%TO.P,RV3,*%
%TO.N,*%
X240731000Y-137421000D03*
X250331000Y-137421000D03*
%TD*%
D14*
%TO.P,RV2,1*%
%TO.N,+3V3*%
X248031000Y-112014000D03*
D15*
%TO.P,RV2,2*%
%TO.N,/RATE_POT_A*%
X245531000Y-112014000D03*
%TO.P,RV2,3*%
%TO.N,GND*%
X243031000Y-112014000D03*
D16*
%TO.P,RV2,*%
%TO.N,*%
X240731000Y-119514000D03*
X250331000Y-119514000D03*
%TD*%
%TO.P,RV1,*%
%TO.N,*%
X250331000Y-101353000D03*
X240731000Y-101353000D03*
D15*
%TO.P,RV1,3*%
%TO.N,GND*%
X243031000Y-93853000D03*
%TO.P,RV1,2*%
%TO.N,/MORPH_POT_A*%
X245531000Y-93853000D03*
D14*
%TO.P,RV1,1*%
%TO.N,+3V3*%
X248031000Y-93853000D03*
%TD*%
M02*
