M48
; DRILL file {KiCad (5.1.6-0-10_14)} date Friday, March 26, 2021 at 06:45:17 PM
; FORMAT={-:-/ absolute / inch / decimal}
; #@! TF.CreationDate,2021-03-26T18:45:17-04:00
; #@! TF.GenerationSoftware,Kicad,Pcbnew,(5.1.6-0-10_14)
FMAT,2
INCH
T1C0.0157
T2C0.0197
T3C0.0236
T4C0.0394
T5C0.0433
%
G90
G05
T1
X6.8Y-2.425
X6.875Y-4.325
X6.9085Y-3.6408
X7.0227Y-2.915
X7.09Y-3.25
X7.125Y-1.525
X7.13Y-3.295
X7.13Y-5.335
X7.1342Y-4.4958
X7.135Y-4.38
X7.1762Y-3.3512
X7.179Y-4.446
X7.2Y-4.0835
X7.2Y-4.5924
X7.2035Y-3.825
X7.2048Y-3.9634
X7.225Y-3.525
X7.225Y-4.6665
X7.225Y-4.95
X7.225Y-5.325
X7.25Y-1.65
X7.275Y-3.7
X7.2869Y-4.1146
X7.3Y-3.55
X7.35Y-4.375
X7.37Y-4.81
X7.425Y-2.2
X7.43Y-3.79
X7.45Y-3.0
X7.55Y-5.275
X7.56Y-4.9
X7.575Y-4.375
X7.5915Y-3.65
X7.6Y-3.95
X7.6065Y-4.2415
X7.6465Y-4.0835
X7.65Y-4.325
X7.65Y-4.95
X7.65Y-5.325
X7.6637Y-3.6713
X7.675Y-4.6259
X7.697Y-4.703
X7.703Y-3.6699
X7.7038Y-3.8062
X7.7306Y-3.5
X7.75Y-3.025
X7.75Y-3.15
X7.75Y-3.825
X7.75Y-5.2745
X7.7835Y-4.9
X7.8Y-3.75
X7.8Y-4.275
X7.8Y-4.6
X7.8Y-5.35
X7.875Y-1.85
X7.875Y-3.475
X7.9Y-1.65
X7.9Y-3.05
X7.925Y-3.45
X7.925Y-3.81
X7.925Y-4.05
X7.95Y-2.9
X7.975Y-2.15
X7.975Y-5.325
X7.985Y-3.58
X8.0Y-3.7
X8.0Y-4.05
X8.0025Y-4.9475
X8.025Y-3.975
X8.035Y-2.09
X8.05Y-3.825
X8.05Y-3.9
X8.05Y-4.15
X8.05Y-4.475
X8.05Y-4.95
X8.05Y-5.325
X8.114Y-4.7
X8.1142Y-4.2988
X8.1691Y-5.175
X8.2Y-3.25
X8.2Y-3.9
X8.25Y-2.525
X8.25Y-3.3
X8.255Y-2.805
X8.265Y-3.2475
X8.275Y-3.475
X9.5025Y-3.5675
X9.7096Y-3.9556
X9.8Y-3.4809
X9.995Y-3.59
X10.04Y-3.48
X10.06Y-3.44
X10.4429Y-3.3821
X10.575Y-3.525
X10.7154Y-5.095
T4
X6.8Y-3.675
X6.8Y-3.775
X6.8Y-3.875
X6.8Y-3.975
X6.8Y-4.075
X6.8Y-4.175
X6.8Y-4.275
X6.8Y-4.375
X6.8Y-4.475
X6.8Y-4.575
X6.8Y-4.675
X6.8Y-4.775
X6.8Y-4.875
X6.8Y-4.975
X6.8Y-5.075
X6.8Y-5.175
X6.8Y-5.275
X6.8Y-5.375
X6.8Y-5.475
X6.8Y-5.575
X8.145Y-1.31
X8.145Y-1.41
X8.145Y-1.51
X8.145Y-1.61
X8.145Y-1.71
X8.145Y-1.81
X8.145Y-1.91
X8.145Y-2.01
X8.245Y-1.31
X8.245Y-1.41
X8.245Y-1.51
X8.245Y-1.61
X8.245Y-1.71
X8.245Y-1.81
X8.245Y-1.91
X8.245Y-2.01
X10.3456Y-4.4147
X10.444Y-4.4147
X10.5424Y-4.4147
X10.3481Y-5.115
X10.4466Y-5.115
X10.545Y-5.115
X9.5681Y-3.6925
X9.6666Y-3.6925
X9.765Y-3.6925
X9.5666Y-4.4147
X9.665Y-4.4147
X9.7634Y-4.4147
X9.5681Y-5.115
X9.6666Y-5.115
X9.765Y-5.115
X8.275Y-3.675
X8.275Y-3.775
X8.275Y-3.875
X8.275Y-3.975
X8.275Y-4.075
X8.275Y-4.175
X8.275Y-4.275
X8.275Y-4.375
X8.275Y-4.475
X8.275Y-4.575
X8.275Y-4.675
X8.275Y-4.775
X8.275Y-4.875
X8.275Y-4.975
X8.275Y-5.075
X8.275Y-5.175
X8.275Y-5.275
X8.275Y-5.375
X8.275Y-5.475
X8.275Y-5.575
X10.3481Y-3.7047
X10.4466Y-3.7047
X10.545Y-3.7047
X9.325Y-3.675
X9.325Y-3.775
X9.325Y-3.875
X9.325Y-3.975
X9.325Y-4.075
X9.325Y-4.175
X9.325Y-4.275
X9.325Y-4.375
X9.325Y-4.475
X9.325Y-4.575
X9.325Y-4.675
X9.325Y-4.775
X9.325Y-4.875
X9.325Y-4.975
X9.325Y-5.075
X9.325Y-5.175
X9.325Y-5.275
X9.325Y-5.375
X9.325Y-5.475
X9.325Y-5.575
X10.8Y-3.675
X10.8Y-3.775
X10.8Y-3.875
X10.8Y-3.975
X10.8Y-4.075
X10.8Y-4.175
X10.8Y-4.275
X10.8Y-4.375
X10.8Y-4.475
X10.8Y-4.575
X10.8Y-4.675
X10.8Y-4.775
X10.8Y-4.875
X10.8Y-4.975
X10.8Y-5.075
X10.8Y-5.175
X10.8Y-5.275
X10.8Y-5.375
X10.8Y-5.475
X10.8Y-5.575
T5
X6.94Y-1.2825
X6.94Y-1.3825
X6.94Y-1.4825
X6.94Y-1.5825
X6.94Y-1.6825
X6.94Y-1.7825
X6.94Y-1.8825
X6.94Y-1.9825
X6.94Y-2.0825
X6.94Y-2.1825
X6.94Y-2.2825
X6.94Y-2.3825
X6.94Y-2.4825
X6.94Y-2.5825
X6.94Y-2.6825
X6.94Y-2.7825
X6.94Y-2.8825
X6.94Y-2.9825
X6.94Y-3.0825
X6.94Y-3.1825
X6.94Y-3.2825
X6.94Y-3.3825
X6.94Y-3.4825
X6.94Y-3.5825
X7.04Y-3.0825
X7.0581Y-1.5325
X7.0581Y-1.6325
X7.0581Y-1.7325
X7.0581Y-1.8325
X7.0581Y-1.9325
X7.14Y-3.0825
X7.24Y-3.0825
X7.34Y-3.0825
X7.44Y-1.3825
X7.44Y-1.5825
X7.44Y-1.6825
X7.44Y-1.7825
X7.44Y-3.0825
X7.54Y-1.2825
X7.54Y-1.3825
X7.54Y-1.4825
X7.54Y-1.5825
X7.54Y-1.6825
X7.54Y-1.7825
X7.54Y-1.8825
X7.54Y-1.9825
X7.54Y-2.0825
X7.54Y-2.1825
X7.54Y-2.2825
X7.54Y-2.3825
X7.54Y-2.4825
X7.54Y-2.5825
X7.54Y-2.6825
X7.54Y-2.7825
X7.54Y-2.8825
X7.54Y-2.9825
X7.54Y-3.0825
X7.54Y-3.1825
X7.54Y-3.2825
X7.54Y-3.3825
X7.54Y-3.4825
X7.54Y-3.5825
T2
G00X10.6797Y-2.1937
M15
G01X10.6403Y-2.1937
M16
G05
G00X9.8797Y-2.7537
M15
G01X9.8403Y-2.7537
M16
G05
G00X9.4797Y-1.6337
M15
G01X9.4403Y-1.6337
M16
G05
G00X9.4797Y-2.7537
M15
G01X9.4403Y-2.7537
M16
G05
G00X10.2797Y-1.6337
M15
G01X10.2403Y-1.6337
M16
G05
G00X10.2797Y-2.7537
M15
G01X10.2403Y-2.7537
M16
G05
G00X9.8797Y-2.1937
M15
G01X9.8403Y-2.1937
M16
G05
G00X9.8797Y-3.3137
M15
G01X9.8403Y-3.3137
M16
G05
G00X10.2797Y-3.3137
M15
G01X10.2403Y-3.3137
M16
G05
G00X9.4797Y-2.1937
M15
G01X9.4403Y-2.1937
M16
G05
G00X10.6797Y-3.3137
M15
G01X10.6403Y-3.3137
M16
G05
G00X9.4797Y-3.3137
M15
G01X9.4403Y-3.3137
M16
G05
G00X10.2797Y-2.1937
M15
G01X10.2403Y-2.1937
M16
G05
G00X10.6797Y-1.6337
M15
G01X10.6403Y-1.6337
M16
G05
G00X10.6797Y-2.7537
M15
G01X10.6403Y-2.7537
M16
G05
G00X9.8797Y-1.6337
M15
G01X9.8403Y-1.6337
M16
G05
T3
G00X10.2738Y-2.8649
M15
G01X10.2462Y-2.8649
M16
G05
G00X10.2777Y-2.9869
M15
G01X10.2423Y-2.9869
M16
G05
G00X9.4738Y-1.7449
M15
G01X9.4462Y-1.7449
M16
G05
G00X9.4777Y-1.8669
M15
G01X9.4423Y-1.8669
M16
G05
G00X10.6738Y-2.8649
M15
G01X10.6462Y-2.8649
M16
G05
G00X10.6777Y-2.9869
M15
G01X10.6423Y-2.9869
M16
G05
G00X9.4738Y-2.8649
M15
G01X9.4462Y-2.8649
M16
G05
G00X9.4777Y-2.9869
M15
G01X9.4423Y-2.9869
M16
G05
G00X10.2738Y-1.7449
M15
G01X10.2462Y-1.7449
M16
G05
G00X10.2777Y-1.8669
M15
G01X10.2423Y-1.8669
M16
G05
G00X10.6738Y-1.1849
M15
G01X10.6462Y-1.1849
M16
G05
G00X10.6777Y-1.3069
M15
G01X10.6423Y-1.3069
M16
G05
G00X10.6738Y-2.3049
M15
G01X10.6462Y-2.3049
M16
G05
G00X10.6777Y-2.4269
M15
G01X10.6423Y-2.4269
M16
G05
G00X9.8738Y-1.1849
M15
G01X9.8462Y-1.1849
M16
G05
G00X9.8777Y-1.3069
M15
G01X9.8423Y-1.3069
M16
G05
G00X10.6738Y-1.7449
M15
G01X10.6462Y-1.7449
M16
G05
G00X10.6777Y-1.8669
M15
G01X10.6423Y-1.8669
M16
G05
G00X9.8738Y-2.3049
M15
G01X9.8462Y-2.3049
M16
G05
G00X9.8777Y-2.4269
M15
G01X9.8423Y-2.4269
M16
G05
G00X9.4738Y-1.1849
M15
G01X9.4462Y-1.1849
M16
G05
G00X9.4777Y-1.3069
M15
G01X9.4423Y-1.3069
M16
G05
G00X9.4738Y-2.3049
M15
G01X9.4462Y-2.3049
M16
G05
G00X9.4777Y-2.4269
M15
G01X9.4423Y-2.4269
M16
G05
G00X10.2738Y-1.1849
M15
G01X10.2462Y-1.1849
M16
G05
G00X10.2777Y-1.3069
M15
G01X10.2423Y-1.3069
M16
G05
G00X10.2738Y-2.3049
M15
G01X10.2462Y-2.3049
M16
G05
G00X10.2777Y-2.4269
M15
G01X10.2423Y-2.4269
M16
G05
G00X9.8738Y-1.7449
M15
G01X9.8462Y-1.7449
M16
G05
G00X9.8777Y-1.8669
M15
G01X9.8423Y-1.8669
M16
G05
G00X9.8738Y-2.8649
M15
G01X9.8462Y-2.8649
M16
G05
G00X9.8777Y-2.9869
M15
G01X9.8423Y-2.9869
M16
G05
T5
G00X10.2576Y-3.9862
M15
G01X10.2576Y-4.0138
M16
G05
G00X10.6356Y-3.9862
M15
G01X10.6356Y-4.0138
M16
G05
G00X10.255Y-4.6962
M15
G01X10.255Y-4.7238
M16
G05
G00X10.633Y-4.6962
M15
G01X10.633Y-4.7238
M16
G05
G00X10.2576Y-5.3965
M15
G01X10.2576Y-5.4241
M16
G05
G00X10.6356Y-5.3965
M15
G01X10.6356Y-5.4241
M16
G05
G00X9.4776Y-3.974
M15
G01X9.4776Y-4.0016
M16
G05
G00X9.8556Y-3.974
M15
G01X9.8556Y-4.0016
M16
G05
G00X9.476Y-4.6962
M15
G01X9.476Y-4.7238
M16
G05
G00X9.854Y-4.6962
M15
G01X9.854Y-4.7238
M16
G05
G00X9.4776Y-5.3965
M15
G01X9.4776Y-5.4241
M16
G05
G00X9.8556Y-5.3965
M15
G01X9.8556Y-5.4241
M16
G05
T0
M30
