%FSLAX45Y45*%
G04 Gerber Fmt 4.5, Leading zero omitted, Abs format (unit mm)*
G04 Created by KiCad (PCBNEW (6.0.0-0)) date 2022-09-18 02:58:43*
%MOMM*%
%LPD*%
G01*
G04 APERTURE LIST*
%TA.AperFunction,Profile*%
%ADD10C,0.200000*%
%TD*%
%ADD11C,0.200000*%
%ADD12C,0.330000*%
%ADD13C,0.500000*%
%ADD14C,0.600000*%
%ADD15C,0.620000*%
%ADD16C,0.720000*%
G04 APERTURE END LIST*
D10*
X13995400Y-25016000D02*
X19045400Y-25016000D01*
X19045400Y-25016000D02*
X19045400Y-37846000D01*
X19045400Y-37846000D02*
X13995400Y-37846000D01*
X13995400Y-37846000D02*
X13995400Y-25016000D01*
D11*
D12*
X14384280Y-25166000D02*
X14714280Y-25496000D01*
X14714280Y-25166000D02*
X14384280Y-25496000D01*
D11*
X14314280Y-25486000D02*
X14784280Y-25486000D01*
X14314280Y-25176000D02*
X14784280Y-25176000D01*
X14784280Y-25486000D02*
G75*
G03*
X14784280Y-25176000I0J155000D01*
G01*
X14314280Y-25176000D02*
G75*
G03*
X14314280Y-25486000I0J-155000D01*
G01*
D12*
X14394280Y-37383140D02*
X14724280Y-37713140D01*
X14724280Y-37383140D02*
X14394280Y-37713140D01*
D11*
X14324280Y-37703140D02*
X14794280Y-37703140D01*
X14324280Y-37393140D02*
X14794280Y-37393140D01*
X14794280Y-37703140D02*
G75*
G03*
X14794280Y-37393140I0J155000D01*
G01*
X14324280Y-37393140D02*
G75*
G03*
X14324280Y-37703140I0J-155000D01*
G01*
D12*
X18321900Y-25166000D02*
X18651900Y-25496000D01*
X18651900Y-25166000D02*
X18321900Y-25496000D01*
D11*
X18251900Y-25486000D02*
X18721900Y-25486000D01*
X18251900Y-25176000D02*
X18721900Y-25176000D01*
X18721900Y-25486000D02*
G75*
G03*
X18721900Y-25176000I0J155000D01*
G01*
X18251900Y-25176000D02*
G75*
G03*
X18251900Y-25486000I0J-155000D01*
G01*
D12*
X18331900Y-37383140D02*
X18661900Y-37713140D01*
X18661900Y-37383140D02*
X18331900Y-37713140D01*
D11*
X18261900Y-37703140D02*
X18731900Y-37703140D01*
X18261900Y-37393140D02*
X18731900Y-37393140D01*
X18731900Y-37703140D02*
G75*
G03*
X18731900Y-37393140I0J155000D01*
G01*
X18261900Y-37393140D02*
G75*
G03*
X18261900Y-37703140I0J-155000D01*
G01*
D13*
X14760000Y-33250000D02*
G75*
G03*
X14760000Y-33250000I-250000J0D01*
G01*
X18785000Y-33253000D02*
G75*
G03*
X18785000Y-33253000I-250000J0D01*
G01*
D14*
X15440000Y-32953000D02*
X15440000Y-33553000D01*
X15140000Y-33253000D02*
X15740000Y-33253000D01*
X17580000Y-32953000D02*
X17580000Y-33553000D01*
X17280000Y-33253000D02*
X17880000Y-33253000D01*
D15*
X14811505Y-34577105D02*
X14811505Y-34138695D01*
X14373095Y-34138695D01*
X14373095Y-34577105D01*
X14811505Y-34577105D01*
X14811505Y-35984265D02*
X14811505Y-35545855D01*
X14373095Y-35545855D01*
X14373095Y-35984265D01*
X14811505Y-35984265D01*
X16096745Y-34577105D02*
X16096745Y-34138695D01*
X15658335Y-34138695D01*
X15658335Y-34577105D01*
X16096745Y-34577105D01*
X16099285Y-35984265D02*
X16099285Y-35545855D01*
X15660875Y-35545855D01*
X15660875Y-35984265D01*
X16099285Y-35984265D01*
X16200538Y-30845845D02*
X16200538Y-30407435D01*
X15762128Y-30407435D01*
X15762128Y-30845845D01*
X16200538Y-30845845D01*
X16200885Y-29263425D02*
X16200885Y-28825015D01*
X15762475Y-28825015D01*
X15762475Y-29263425D01*
X16200885Y-29263425D01*
X16200885Y-32430805D02*
X16200885Y-31992395D01*
X15762475Y-31992395D01*
X15762475Y-32430805D01*
X16200885Y-32430805D01*
X16203425Y-27681005D02*
X16203425Y-27242595D01*
X15765015Y-27242595D01*
X15765015Y-27681005D01*
X16203425Y-27681005D01*
X17257525Y-27678465D02*
X17257525Y-27240055D01*
X16819115Y-27240055D01*
X16819115Y-27678465D01*
X17257525Y-27678465D01*
X17257525Y-29263425D02*
X17257525Y-28825015D01*
X16819115Y-28825015D01*
X16819115Y-29263425D01*
X17257525Y-29263425D01*
X17257525Y-30848385D02*
X17257525Y-30409975D01*
X16819115Y-30409975D01*
X16819115Y-30848385D01*
X17257525Y-30848385D01*
X17257525Y-32430805D02*
X17257525Y-31992395D01*
X16819115Y-31992395D01*
X16819115Y-32430805D01*
X17257525Y-32430805D01*
X17384525Y-34577105D02*
X17384525Y-34138695D01*
X16946115Y-34138695D01*
X16946115Y-34577105D01*
X17384525Y-34577105D01*
X17384525Y-35984265D02*
X17384525Y-35545855D01*
X16946115Y-35545855D01*
X16946115Y-35984265D01*
X17384525Y-35984265D01*
X18669765Y-34577105D02*
X18669765Y-34138695D01*
X18231355Y-34138695D01*
X18231355Y-34577105D01*
X18669765Y-34577105D01*
X18669765Y-35984265D02*
X18669765Y-35545855D01*
X18231355Y-35545855D01*
X18231355Y-35984265D01*
X18669765Y-35984265D01*
D16*
X14732000Y-27911400D02*
X15092000Y-27551400D01*
X14732000Y-27191400D01*
X14372000Y-27551400D01*
X14732000Y-27911400D01*
X14732000Y-29486200D02*
X15092000Y-29126200D01*
X14732000Y-28766200D01*
X14372000Y-29126200D01*
X14732000Y-29486200D01*
X14732000Y-31073700D02*
X15092000Y-30713700D01*
X14732000Y-30353700D01*
X14372000Y-30713700D01*
X14732000Y-31073700D01*
X14732000Y-32661200D02*
X15092000Y-32301200D01*
X14732000Y-31941200D01*
X14372000Y-32301200D01*
X14732000Y-32661200D01*
X18288000Y-27910700D02*
X18648000Y-27550700D01*
X18288000Y-27190700D01*
X17928000Y-27550700D01*
X18288000Y-27910700D01*
X18288000Y-29485500D02*
X18648000Y-29125500D01*
X18288000Y-28765500D01*
X17928000Y-29125500D01*
X18288000Y-29485500D01*
X18288000Y-31073000D02*
X18648000Y-30713000D01*
X18288000Y-30353000D01*
X17928000Y-30713000D01*
X18288000Y-31073000D01*
X18288000Y-32660500D02*
X18648000Y-32300500D01*
X18288000Y-31940500D01*
X17928000Y-32300500D01*
X18288000Y-32660500D01*
D11*
X14243019Y-38166476D02*
X14243019Y-37966476D01*
X14290638Y-37966476D01*
X14319209Y-37976000D01*
X14338257Y-37995048D01*
X14347781Y-38014095D01*
X14357305Y-38052190D01*
X14357305Y-38080762D01*
X14347781Y-38118857D01*
X14338257Y-38137905D01*
X14319209Y-38156952D01*
X14290638Y-38166476D01*
X14243019Y-38166476D01*
X14443019Y-38166476D02*
X14443019Y-38033143D01*
X14443019Y-38071238D02*
X14452543Y-38052190D01*
X14462067Y-38042667D01*
X14481114Y-38033143D01*
X14500162Y-38033143D01*
X14566828Y-38166476D02*
X14566828Y-38033143D01*
X14566828Y-37966476D02*
X14557305Y-37976000D01*
X14566828Y-37985524D01*
X14576352Y-37976000D01*
X14566828Y-37966476D01*
X14566828Y-37985524D01*
X14690638Y-38166476D02*
X14671590Y-38156952D01*
X14662067Y-38137905D01*
X14662067Y-37966476D01*
X14795400Y-38166476D02*
X14776352Y-38156952D01*
X14766828Y-38137905D01*
X14766828Y-37966476D01*
X15023971Y-38166476D02*
X15023971Y-37966476D01*
X15090638Y-38109333D01*
X15157305Y-37966476D01*
X15157305Y-38166476D01*
X15338257Y-38166476D02*
X15338257Y-38061714D01*
X15328733Y-38042667D01*
X15309686Y-38033143D01*
X15271590Y-38033143D01*
X15252543Y-38042667D01*
X15338257Y-38156952D02*
X15319209Y-38166476D01*
X15271590Y-38166476D01*
X15252543Y-38156952D01*
X15243019Y-38137905D01*
X15243019Y-38118857D01*
X15252543Y-38099810D01*
X15271590Y-38090286D01*
X15319209Y-38090286D01*
X15338257Y-38080762D01*
X15433495Y-38033143D02*
X15433495Y-38233143D01*
X15433495Y-38042667D02*
X15452543Y-38033143D01*
X15490638Y-38033143D01*
X15509686Y-38042667D01*
X15519209Y-38052190D01*
X15528733Y-38071238D01*
X15528733Y-38128381D01*
X15519209Y-38147429D01*
X15509686Y-38156952D01*
X15490638Y-38166476D01*
X15452543Y-38166476D01*
X15433495Y-38156952D01*
X15614448Y-38147429D02*
X15623971Y-38156952D01*
X15614448Y-38166476D01*
X15604924Y-38156952D01*
X15614448Y-38147429D01*
X15614448Y-38166476D01*
X15614448Y-38042667D02*
X15623971Y-38052190D01*
X15614448Y-38061714D01*
X15604924Y-38052190D01*
X15614448Y-38042667D01*
X15614448Y-38061714D01*
X13785400Y-38396000D02*
X13985400Y-38596000D01*
X13985400Y-38396000D02*
X13785400Y-38596000D01*
X14223971Y-38386476D02*
X14347781Y-38386476D01*
X14281114Y-38462667D01*
X14309686Y-38462667D01*
X14328733Y-38472190D01*
X14338257Y-38481714D01*
X14347781Y-38500762D01*
X14347781Y-38548381D01*
X14338257Y-38567429D01*
X14328733Y-38576952D01*
X14309686Y-38586476D01*
X14252543Y-38586476D01*
X14233495Y-38576952D01*
X14223971Y-38567429D01*
X14433495Y-38567429D02*
X14443019Y-38576952D01*
X14433495Y-38586476D01*
X14423971Y-38576952D01*
X14433495Y-38567429D01*
X14433495Y-38586476D01*
X14509686Y-38386476D02*
X14633495Y-38386476D01*
X14566828Y-38462667D01*
X14595400Y-38462667D01*
X14614448Y-38472190D01*
X14623971Y-38481714D01*
X14633495Y-38500762D01*
X14633495Y-38548381D01*
X14623971Y-38567429D01*
X14614448Y-38576952D01*
X14595400Y-38586476D01*
X14538257Y-38586476D01*
X14519209Y-38576952D01*
X14509686Y-38567429D01*
X14757305Y-38386476D02*
X14776352Y-38386476D01*
X14795400Y-38396000D01*
X14804924Y-38405524D01*
X14814448Y-38424571D01*
X14823971Y-38462667D01*
X14823971Y-38510286D01*
X14814448Y-38548381D01*
X14804924Y-38567429D01*
X14795400Y-38576952D01*
X14776352Y-38586476D01*
X14757305Y-38586476D01*
X14738257Y-38576952D01*
X14728733Y-38567429D01*
X14719209Y-38548381D01*
X14709686Y-38510286D01*
X14709686Y-38462667D01*
X14719209Y-38424571D01*
X14728733Y-38405524D01*
X14738257Y-38396000D01*
X14757305Y-38386476D01*
X14947781Y-38386476D02*
X14966828Y-38386476D01*
X14985876Y-38396000D01*
X14995400Y-38405524D01*
X15004924Y-38424571D01*
X15014448Y-38462667D01*
X15014448Y-38510286D01*
X15004924Y-38548381D01*
X14995400Y-38567429D01*
X14985876Y-38576952D01*
X14966828Y-38586476D01*
X14947781Y-38586476D01*
X14928733Y-38576952D01*
X14919209Y-38567429D01*
X14909686Y-38548381D01*
X14900162Y-38510286D01*
X14900162Y-38462667D01*
X14909686Y-38424571D01*
X14919209Y-38405524D01*
X14928733Y-38396000D01*
X14947781Y-38386476D01*
X15100162Y-38586476D02*
X15100162Y-38453143D01*
X15100162Y-38472190D02*
X15109686Y-38462667D01*
X15128733Y-38453143D01*
X15157305Y-38453143D01*
X15176352Y-38462667D01*
X15185876Y-38481714D01*
X15185876Y-38586476D01*
X15185876Y-38481714D02*
X15195400Y-38462667D01*
X15214448Y-38453143D01*
X15243019Y-38453143D01*
X15262067Y-38462667D01*
X15271590Y-38481714D01*
X15271590Y-38586476D01*
X15366828Y-38586476D02*
X15366828Y-38453143D01*
X15366828Y-38472190D02*
X15376352Y-38462667D01*
X15395400Y-38453143D01*
X15423971Y-38453143D01*
X15443019Y-38462667D01*
X15452543Y-38481714D01*
X15452543Y-38586476D01*
X15452543Y-38481714D02*
X15462067Y-38462667D01*
X15481114Y-38453143D01*
X15509686Y-38453143D01*
X15528733Y-38462667D01*
X15538257Y-38481714D01*
X15538257Y-38586476D01*
X15928733Y-38376952D02*
X15757305Y-38634095D01*
X16185876Y-38386476D02*
X16204924Y-38386476D01*
X16223971Y-38396000D01*
X16233495Y-38405524D01*
X16243019Y-38424571D01*
X16252543Y-38462667D01*
X16252543Y-38510286D01*
X16243019Y-38548381D01*
X16233495Y-38567429D01*
X16223971Y-38576952D01*
X16204924Y-38586476D01*
X16185876Y-38586476D01*
X16166828Y-38576952D01*
X16157305Y-38567429D01*
X16147781Y-38548381D01*
X16138257Y-38510286D01*
X16138257Y-38462667D01*
X16147781Y-38424571D01*
X16157305Y-38405524D01*
X16166828Y-38396000D01*
X16185876Y-38386476D01*
X16338257Y-38567429D02*
X16347781Y-38576952D01*
X16338257Y-38586476D01*
X16328733Y-38576952D01*
X16338257Y-38567429D01*
X16338257Y-38586476D01*
X16538257Y-38586476D02*
X16423971Y-38586476D01*
X16481114Y-38586476D02*
X16481114Y-38386476D01*
X16462067Y-38415048D01*
X16443019Y-38434095D01*
X16423971Y-38443619D01*
X16614448Y-38405524D02*
X16623971Y-38396000D01*
X16643019Y-38386476D01*
X16690638Y-38386476D01*
X16709686Y-38396000D01*
X16719209Y-38405524D01*
X16728733Y-38424571D01*
X16728733Y-38443619D01*
X16719209Y-38472190D01*
X16604924Y-38586476D01*
X16728733Y-38586476D01*
X16823971Y-38586476D02*
X16862067Y-38586476D01*
X16881114Y-38576952D01*
X16890638Y-38567429D01*
X16909686Y-38538857D01*
X16919210Y-38500762D01*
X16919210Y-38424571D01*
X16909686Y-38405524D01*
X16900162Y-38396000D01*
X16881114Y-38386476D01*
X16843019Y-38386476D01*
X16823971Y-38396000D01*
X16814448Y-38405524D01*
X16804924Y-38424571D01*
X16804924Y-38472190D01*
X16814448Y-38491238D01*
X16823971Y-38500762D01*
X16843019Y-38510286D01*
X16881114Y-38510286D01*
X16900162Y-38500762D01*
X16909686Y-38491238D01*
X16919210Y-38472190D01*
X17014448Y-38586476D02*
X17052543Y-38586476D01*
X17071590Y-38576952D01*
X17081114Y-38567429D01*
X17100162Y-38538857D01*
X17109686Y-38500762D01*
X17109686Y-38424571D01*
X17100162Y-38405524D01*
X17090638Y-38396000D01*
X17071590Y-38386476D01*
X17033495Y-38386476D01*
X17014448Y-38396000D01*
X17004924Y-38405524D01*
X16995400Y-38424571D01*
X16995400Y-38472190D01*
X17004924Y-38491238D01*
X17014448Y-38500762D01*
X17033495Y-38510286D01*
X17071590Y-38510286D01*
X17090638Y-38500762D01*
X17100162Y-38491238D01*
X17109686Y-38472190D01*
X17185876Y-38386476D02*
X17185876Y-38424571D01*
X17262067Y-38386476D02*
X17262067Y-38424571D01*
X17557305Y-38662667D02*
X17547781Y-38653143D01*
X17528733Y-38624571D01*
X17519210Y-38605524D01*
X17509686Y-38576952D01*
X17500162Y-38529333D01*
X17500162Y-38491238D01*
X17509686Y-38443619D01*
X17519210Y-38415048D01*
X17528733Y-38396000D01*
X17547781Y-38367429D01*
X17557305Y-38357905D01*
X17671590Y-38386476D02*
X17690638Y-38386476D01*
X17709686Y-38396000D01*
X17719210Y-38405524D01*
X17728733Y-38424571D01*
X17738257Y-38462667D01*
X17738257Y-38510286D01*
X17728733Y-38548381D01*
X17719210Y-38567429D01*
X17709686Y-38576952D01*
X17690638Y-38586476D01*
X17671590Y-38586476D01*
X17652543Y-38576952D01*
X17643019Y-38567429D01*
X17633495Y-38548381D01*
X17623971Y-38510286D01*
X17623971Y-38462667D01*
X17633495Y-38424571D01*
X17643019Y-38405524D01*
X17652543Y-38396000D01*
X17671590Y-38386476D01*
X17976352Y-38586476D02*
X17976352Y-38386476D01*
X18062067Y-38586476D02*
X18062067Y-38481714D01*
X18052543Y-38462667D01*
X18033495Y-38453143D01*
X18004924Y-38453143D01*
X17985876Y-38462667D01*
X17976352Y-38472190D01*
X18185876Y-38586476D02*
X18166829Y-38576952D01*
X18157305Y-38567429D01*
X18147781Y-38548381D01*
X18147781Y-38491238D01*
X18157305Y-38472190D01*
X18166829Y-38462667D01*
X18185876Y-38453143D01*
X18214448Y-38453143D01*
X18233495Y-38462667D01*
X18243019Y-38472190D01*
X18252543Y-38491238D01*
X18252543Y-38548381D01*
X18243019Y-38567429D01*
X18233495Y-38576952D01*
X18214448Y-38586476D01*
X18185876Y-38586476D01*
X18366829Y-38586476D02*
X18347781Y-38576952D01*
X18338257Y-38557905D01*
X18338257Y-38386476D01*
X18519210Y-38576952D02*
X18500162Y-38586476D01*
X18462067Y-38586476D01*
X18443019Y-38576952D01*
X18433495Y-38557905D01*
X18433495Y-38481714D01*
X18443019Y-38462667D01*
X18462067Y-38453143D01*
X18500162Y-38453143D01*
X18519210Y-38462667D01*
X18528733Y-38481714D01*
X18528733Y-38500762D01*
X18433495Y-38519810D01*
X18604924Y-38576952D02*
X18623971Y-38586476D01*
X18662067Y-38586476D01*
X18681114Y-38576952D01*
X18690638Y-38557905D01*
X18690638Y-38548381D01*
X18681114Y-38529333D01*
X18662067Y-38519810D01*
X18633495Y-38519810D01*
X18614448Y-38510286D01*
X18604924Y-38491238D01*
X18604924Y-38481714D01*
X18614448Y-38462667D01*
X18633495Y-38453143D01*
X18662067Y-38453143D01*
X18681114Y-38462667D01*
X18928733Y-38510286D02*
X19081114Y-38510286D01*
X19004924Y-38586476D02*
X19004924Y-38434095D01*
X19414448Y-38453143D02*
X19414448Y-38586476D01*
X19366829Y-38376952D02*
X19319210Y-38519810D01*
X19443019Y-38519810D01*
X19662067Y-38576952D02*
X19681114Y-38586476D01*
X19719210Y-38586476D01*
X19738257Y-38576952D01*
X19747781Y-38557905D01*
X19747781Y-38548381D01*
X19738257Y-38529333D01*
X19719210Y-38519810D01*
X19690638Y-38519810D01*
X19671590Y-38510286D01*
X19662067Y-38491238D01*
X19662067Y-38481714D01*
X19671590Y-38462667D01*
X19690638Y-38453143D01*
X19719210Y-38453143D01*
X19738257Y-38462667D01*
X19862067Y-38586476D02*
X19843019Y-38576952D01*
X19833495Y-38557905D01*
X19833495Y-38386476D01*
X19966829Y-38586476D02*
X19947781Y-38576952D01*
X19938257Y-38567429D01*
X19928733Y-38548381D01*
X19928733Y-38491238D01*
X19938257Y-38472190D01*
X19947781Y-38462667D01*
X19966829Y-38453143D01*
X19995400Y-38453143D01*
X20014448Y-38462667D01*
X20023971Y-38472190D01*
X20033495Y-38491238D01*
X20033495Y-38548381D01*
X20023971Y-38567429D01*
X20014448Y-38576952D01*
X19995400Y-38586476D01*
X19966829Y-38586476D01*
X20090638Y-38453143D02*
X20166829Y-38453143D01*
X20119210Y-38386476D02*
X20119210Y-38557905D01*
X20128733Y-38576952D01*
X20147781Y-38586476D01*
X20166829Y-38586476D01*
X20223971Y-38576952D02*
X20243019Y-38586476D01*
X20281114Y-38586476D01*
X20300162Y-38576952D01*
X20309686Y-38557905D01*
X20309686Y-38548381D01*
X20300162Y-38529333D01*
X20281114Y-38519810D01*
X20252543Y-38519810D01*
X20233495Y-38510286D01*
X20223971Y-38491238D01*
X20223971Y-38481714D01*
X20233495Y-38462667D01*
X20252543Y-38453143D01*
X20281114Y-38453143D01*
X20300162Y-38462667D01*
X20376352Y-38662667D02*
X20385876Y-38653143D01*
X20404924Y-38624571D01*
X20414448Y-38605524D01*
X20423971Y-38576952D01*
X20433495Y-38529333D01*
X20433495Y-38491238D01*
X20423971Y-38443619D01*
X20414448Y-38415048D01*
X20404924Y-38396000D01*
X20385876Y-38367429D01*
X20376352Y-38357905D01*
X20738257Y-38662667D02*
X20728733Y-38653143D01*
X20709686Y-38624571D01*
X20700162Y-38605524D01*
X20690638Y-38576952D01*
X20681114Y-38529333D01*
X20681114Y-38491238D01*
X20690638Y-38443619D01*
X20700162Y-38415048D01*
X20709686Y-38396000D01*
X20728733Y-38367429D01*
X20738257Y-38357905D01*
X20814448Y-38453143D02*
X20814448Y-38586476D01*
X20814448Y-38472190D02*
X20823971Y-38462667D01*
X20843019Y-38453143D01*
X20871590Y-38453143D01*
X20890638Y-38462667D01*
X20900162Y-38481714D01*
X20900162Y-38586476D01*
X21023971Y-38586476D02*
X21004924Y-38576952D01*
X20995400Y-38567429D01*
X20985876Y-38548381D01*
X20985876Y-38491238D01*
X20995400Y-38472190D01*
X21004924Y-38462667D01*
X21023971Y-38453143D01*
X21052543Y-38453143D01*
X21071590Y-38462667D01*
X21081114Y-38472190D01*
X21090638Y-38491238D01*
X21090638Y-38548381D01*
X21081114Y-38567429D01*
X21071590Y-38576952D01*
X21052543Y-38586476D01*
X21023971Y-38586476D01*
X21147781Y-38453143D02*
X21223971Y-38453143D01*
X21176352Y-38386476D02*
X21176352Y-38557905D01*
X21185876Y-38576952D01*
X21204924Y-38586476D01*
X21223971Y-38586476D01*
X21443019Y-38453143D02*
X21443019Y-38653143D01*
X21443019Y-38462667D02*
X21462067Y-38453143D01*
X21500162Y-38453143D01*
X21519210Y-38462667D01*
X21528733Y-38472190D01*
X21538257Y-38491238D01*
X21538257Y-38548381D01*
X21528733Y-38567429D01*
X21519210Y-38576952D01*
X21500162Y-38586476D01*
X21462067Y-38586476D01*
X21443019Y-38576952D01*
X21652543Y-38586476D02*
X21633495Y-38576952D01*
X21623971Y-38557905D01*
X21623971Y-38386476D01*
X21814448Y-38586476D02*
X21814448Y-38481714D01*
X21804924Y-38462667D01*
X21785876Y-38453143D01*
X21747781Y-38453143D01*
X21728733Y-38462667D01*
X21814448Y-38576952D02*
X21795400Y-38586476D01*
X21747781Y-38586476D01*
X21728733Y-38576952D01*
X21719210Y-38557905D01*
X21719210Y-38538857D01*
X21728733Y-38519810D01*
X21747781Y-38510286D01*
X21795400Y-38510286D01*
X21814448Y-38500762D01*
X21881114Y-38453143D02*
X21957305Y-38453143D01*
X21909686Y-38386476D02*
X21909686Y-38557905D01*
X21919210Y-38576952D01*
X21938257Y-38586476D01*
X21957305Y-38586476D01*
X22100162Y-38576952D02*
X22081114Y-38586476D01*
X22043019Y-38586476D01*
X22023971Y-38576952D01*
X22014448Y-38557905D01*
X22014448Y-38481714D01*
X22023971Y-38462667D01*
X22043019Y-38453143D01*
X22081114Y-38453143D01*
X22100162Y-38462667D01*
X22109686Y-38481714D01*
X22109686Y-38500762D01*
X22014448Y-38519810D01*
X22281114Y-38586476D02*
X22281114Y-38386476D01*
X22281114Y-38576952D02*
X22262067Y-38586476D01*
X22223971Y-38586476D01*
X22204924Y-38576952D01*
X22195400Y-38567429D01*
X22185876Y-38548381D01*
X22185876Y-38491238D01*
X22195400Y-38472190D01*
X22204924Y-38462667D01*
X22223971Y-38453143D01*
X22262067Y-38453143D01*
X22281114Y-38462667D01*
X22357305Y-38662667D02*
X22366829Y-38653143D01*
X22385876Y-38624571D01*
X22395400Y-38605524D01*
X22404924Y-38576952D01*
X22414448Y-38529333D01*
X22414448Y-38491238D01*
X22404924Y-38443619D01*
X22395400Y-38415048D01*
X22385876Y-38396000D01*
X22366829Y-38367429D01*
X22357305Y-38357905D01*
X13985400Y-38816000D02*
G75*
G03*
X13985400Y-38816000I-100000J0D01*
G01*
X14338257Y-38706476D02*
X14243019Y-38706476D01*
X14233495Y-38801714D01*
X14243019Y-38792190D01*
X14262067Y-38782667D01*
X14309686Y-38782667D01*
X14328733Y-38792190D01*
X14338257Y-38801714D01*
X14347781Y-38820762D01*
X14347781Y-38868381D01*
X14338257Y-38887429D01*
X14328733Y-38896952D01*
X14309686Y-38906476D01*
X14262067Y-38906476D01*
X14243019Y-38896952D01*
X14233495Y-38887429D01*
X14433495Y-38887429D02*
X14443019Y-38896952D01*
X14433495Y-38906476D01*
X14423971Y-38896952D01*
X14433495Y-38887429D01*
X14433495Y-38906476D01*
X14566828Y-38706476D02*
X14585876Y-38706476D01*
X14604924Y-38716000D01*
X14614448Y-38725524D01*
X14623971Y-38744571D01*
X14633495Y-38782667D01*
X14633495Y-38830286D01*
X14623971Y-38868381D01*
X14614448Y-38887429D01*
X14604924Y-38896952D01*
X14585876Y-38906476D01*
X14566828Y-38906476D01*
X14547781Y-38896952D01*
X14538257Y-38887429D01*
X14528733Y-38868381D01*
X14519209Y-38830286D01*
X14519209Y-38782667D01*
X14528733Y-38744571D01*
X14538257Y-38725524D01*
X14547781Y-38716000D01*
X14566828Y-38706476D01*
X14757305Y-38706476D02*
X14776352Y-38706476D01*
X14795400Y-38716000D01*
X14804924Y-38725524D01*
X14814448Y-38744571D01*
X14823971Y-38782667D01*
X14823971Y-38830286D01*
X14814448Y-38868381D01*
X14804924Y-38887429D01*
X14795400Y-38896952D01*
X14776352Y-38906476D01*
X14757305Y-38906476D01*
X14738257Y-38896952D01*
X14728733Y-38887429D01*
X14719209Y-38868381D01*
X14709686Y-38830286D01*
X14709686Y-38782667D01*
X14719209Y-38744571D01*
X14728733Y-38725524D01*
X14738257Y-38716000D01*
X14757305Y-38706476D01*
X14947781Y-38706476D02*
X14966828Y-38706476D01*
X14985876Y-38716000D01*
X14995400Y-38725524D01*
X15004924Y-38744571D01*
X15014448Y-38782667D01*
X15014448Y-38830286D01*
X15004924Y-38868381D01*
X14995400Y-38887429D01*
X14985876Y-38896952D01*
X14966828Y-38906476D01*
X14947781Y-38906476D01*
X14928733Y-38896952D01*
X14919209Y-38887429D01*
X14909686Y-38868381D01*
X14900162Y-38830286D01*
X14900162Y-38782667D01*
X14909686Y-38744571D01*
X14919209Y-38725524D01*
X14928733Y-38716000D01*
X14947781Y-38706476D01*
X15100162Y-38906476D02*
X15100162Y-38773143D01*
X15100162Y-38792190D02*
X15109686Y-38782667D01*
X15128733Y-38773143D01*
X15157305Y-38773143D01*
X15176352Y-38782667D01*
X15185876Y-38801714D01*
X15185876Y-38906476D01*
X15185876Y-38801714D02*
X15195400Y-38782667D01*
X15214448Y-38773143D01*
X15243019Y-38773143D01*
X15262067Y-38782667D01*
X15271590Y-38801714D01*
X15271590Y-38906476D01*
X15366828Y-38906476D02*
X15366828Y-38773143D01*
X15366828Y-38792190D02*
X15376352Y-38782667D01*
X15395400Y-38773143D01*
X15423971Y-38773143D01*
X15443019Y-38782667D01*
X15452543Y-38801714D01*
X15452543Y-38906476D01*
X15452543Y-38801714D02*
X15462067Y-38782667D01*
X15481114Y-38773143D01*
X15509686Y-38773143D01*
X15528733Y-38782667D01*
X15538257Y-38801714D01*
X15538257Y-38906476D01*
X15928733Y-38696952D02*
X15757305Y-38954095D01*
X16185876Y-38706476D02*
X16204924Y-38706476D01*
X16223971Y-38716000D01*
X16233495Y-38725524D01*
X16243019Y-38744571D01*
X16252543Y-38782667D01*
X16252543Y-38830286D01*
X16243019Y-38868381D01*
X16233495Y-38887429D01*
X16223971Y-38896952D01*
X16204924Y-38906476D01*
X16185876Y-38906476D01*
X16166828Y-38896952D01*
X16157305Y-38887429D01*
X16147781Y-38868381D01*
X16138257Y-38830286D01*
X16138257Y-38782667D01*
X16147781Y-38744571D01*
X16157305Y-38725524D01*
X16166828Y-38716000D01*
X16185876Y-38706476D01*
X16338257Y-38887429D02*
X16347781Y-38896952D01*
X16338257Y-38906476D01*
X16328733Y-38896952D01*
X16338257Y-38887429D01*
X16338257Y-38906476D01*
X16538257Y-38906476D02*
X16423971Y-38906476D01*
X16481114Y-38906476D02*
X16481114Y-38706476D01*
X16462067Y-38735048D01*
X16443019Y-38754095D01*
X16423971Y-38763619D01*
X16633495Y-38906476D02*
X16671590Y-38906476D01*
X16690638Y-38896952D01*
X16700162Y-38887429D01*
X16719209Y-38858857D01*
X16728733Y-38820762D01*
X16728733Y-38744571D01*
X16719209Y-38725524D01*
X16709686Y-38716000D01*
X16690638Y-38706476D01*
X16652543Y-38706476D01*
X16633495Y-38716000D01*
X16623971Y-38725524D01*
X16614448Y-38744571D01*
X16614448Y-38792190D01*
X16623971Y-38811238D01*
X16633495Y-38820762D01*
X16652543Y-38830286D01*
X16690638Y-38830286D01*
X16709686Y-38820762D01*
X16719209Y-38811238D01*
X16728733Y-38792190D01*
X16900162Y-38706476D02*
X16862067Y-38706476D01*
X16843019Y-38716000D01*
X16833495Y-38725524D01*
X16814448Y-38754095D01*
X16804924Y-38792190D01*
X16804924Y-38868381D01*
X16814448Y-38887429D01*
X16823971Y-38896952D01*
X16843019Y-38906476D01*
X16881114Y-38906476D01*
X16900162Y-38896952D01*
X16909686Y-38887429D01*
X16919210Y-38868381D01*
X16919210Y-38820762D01*
X16909686Y-38801714D01*
X16900162Y-38792190D01*
X16881114Y-38782667D01*
X16843019Y-38782667D01*
X16823971Y-38792190D01*
X16814448Y-38801714D01*
X16804924Y-38820762D01*
X17014448Y-38906476D02*
X17052543Y-38906476D01*
X17071590Y-38896952D01*
X17081114Y-38887429D01*
X17100162Y-38858857D01*
X17109686Y-38820762D01*
X17109686Y-38744571D01*
X17100162Y-38725524D01*
X17090638Y-38716000D01*
X17071590Y-38706476D01*
X17033495Y-38706476D01*
X17014448Y-38716000D01*
X17004924Y-38725524D01*
X16995400Y-38744571D01*
X16995400Y-38792190D01*
X17004924Y-38811238D01*
X17014448Y-38820762D01*
X17033495Y-38830286D01*
X17071590Y-38830286D01*
X17090638Y-38820762D01*
X17100162Y-38811238D01*
X17109686Y-38792190D01*
X17185876Y-38706476D02*
X17185876Y-38744571D01*
X17262067Y-38706476D02*
X17262067Y-38744571D01*
X17557305Y-38982667D02*
X17547781Y-38973143D01*
X17528733Y-38944571D01*
X17519210Y-38925524D01*
X17509686Y-38896952D01*
X17500162Y-38849333D01*
X17500162Y-38811238D01*
X17509686Y-38763619D01*
X17519210Y-38735048D01*
X17528733Y-38716000D01*
X17547781Y-38687429D01*
X17557305Y-38677905D01*
X17623971Y-38725524D02*
X17633495Y-38716000D01*
X17652543Y-38706476D01*
X17700162Y-38706476D01*
X17719210Y-38716000D01*
X17728733Y-38725524D01*
X17738257Y-38744571D01*
X17738257Y-38763619D01*
X17728733Y-38792190D01*
X17614448Y-38906476D01*
X17738257Y-38906476D01*
X17976352Y-38906476D02*
X17976352Y-38706476D01*
X18062067Y-38906476D02*
X18062067Y-38801714D01*
X18052543Y-38782667D01*
X18033495Y-38773143D01*
X18004924Y-38773143D01*
X17985876Y-38782667D01*
X17976352Y-38792190D01*
X18185876Y-38906476D02*
X18166829Y-38896952D01*
X18157305Y-38887429D01*
X18147781Y-38868381D01*
X18147781Y-38811238D01*
X18157305Y-38792190D01*
X18166829Y-38782667D01*
X18185876Y-38773143D01*
X18214448Y-38773143D01*
X18233495Y-38782667D01*
X18243019Y-38792190D01*
X18252543Y-38811238D01*
X18252543Y-38868381D01*
X18243019Y-38887429D01*
X18233495Y-38896952D01*
X18214448Y-38906476D01*
X18185876Y-38906476D01*
X18366829Y-38906476D02*
X18347781Y-38896952D01*
X18338257Y-38877905D01*
X18338257Y-38706476D01*
X18519210Y-38896952D02*
X18500162Y-38906476D01*
X18462067Y-38906476D01*
X18443019Y-38896952D01*
X18433495Y-38877905D01*
X18433495Y-38801714D01*
X18443019Y-38782667D01*
X18462067Y-38773143D01*
X18500162Y-38773143D01*
X18519210Y-38782667D01*
X18528733Y-38801714D01*
X18528733Y-38820762D01*
X18433495Y-38839810D01*
X18604924Y-38896952D02*
X18623971Y-38906476D01*
X18662067Y-38906476D01*
X18681114Y-38896952D01*
X18690638Y-38877905D01*
X18690638Y-38868381D01*
X18681114Y-38849333D01*
X18662067Y-38839810D01*
X18633495Y-38839810D01*
X18614448Y-38830286D01*
X18604924Y-38811238D01*
X18604924Y-38801714D01*
X18614448Y-38782667D01*
X18633495Y-38773143D01*
X18662067Y-38773143D01*
X18681114Y-38782667D01*
X18757305Y-38982667D02*
X18766829Y-38973143D01*
X18785876Y-38944571D01*
X18795400Y-38925524D01*
X18804924Y-38896952D01*
X18814448Y-38849333D01*
X18814448Y-38811238D01*
X18804924Y-38763619D01*
X18795400Y-38735048D01*
X18785876Y-38716000D01*
X18766829Y-38687429D01*
X18757305Y-38677905D01*
X19119210Y-38982667D02*
X19109686Y-38973143D01*
X19090638Y-38944571D01*
X19081114Y-38925524D01*
X19071590Y-38896952D01*
X19062067Y-38849333D01*
X19062067Y-38811238D01*
X19071590Y-38763619D01*
X19081114Y-38735048D01*
X19090638Y-38716000D01*
X19109686Y-38687429D01*
X19119210Y-38677905D01*
X19195400Y-38773143D02*
X19195400Y-38906476D01*
X19195400Y-38792190D02*
X19204924Y-38782667D01*
X19223971Y-38773143D01*
X19252543Y-38773143D01*
X19271590Y-38782667D01*
X19281114Y-38801714D01*
X19281114Y-38906476D01*
X19404924Y-38906476D02*
X19385876Y-38896952D01*
X19376352Y-38887429D01*
X19366829Y-38868381D01*
X19366829Y-38811238D01*
X19376352Y-38792190D01*
X19385876Y-38782667D01*
X19404924Y-38773143D01*
X19433495Y-38773143D01*
X19452543Y-38782667D01*
X19462067Y-38792190D01*
X19471590Y-38811238D01*
X19471590Y-38868381D01*
X19462067Y-38887429D01*
X19452543Y-38896952D01*
X19433495Y-38906476D01*
X19404924Y-38906476D01*
X19528733Y-38773143D02*
X19604924Y-38773143D01*
X19557305Y-38706476D02*
X19557305Y-38877905D01*
X19566829Y-38896952D01*
X19585876Y-38906476D01*
X19604924Y-38906476D01*
X19823971Y-38773143D02*
X19823971Y-38973143D01*
X19823971Y-38782667D02*
X19843019Y-38773143D01*
X19881114Y-38773143D01*
X19900162Y-38782667D01*
X19909686Y-38792190D01*
X19919210Y-38811238D01*
X19919210Y-38868381D01*
X19909686Y-38887429D01*
X19900162Y-38896952D01*
X19881114Y-38906476D01*
X19843019Y-38906476D01*
X19823971Y-38896952D01*
X20033495Y-38906476D02*
X20014448Y-38896952D01*
X20004924Y-38877905D01*
X20004924Y-38706476D01*
X20195400Y-38906476D02*
X20195400Y-38801714D01*
X20185876Y-38782667D01*
X20166829Y-38773143D01*
X20128733Y-38773143D01*
X20109686Y-38782667D01*
X20195400Y-38896952D02*
X20176352Y-38906476D01*
X20128733Y-38906476D01*
X20109686Y-38896952D01*
X20100162Y-38877905D01*
X20100162Y-38858857D01*
X20109686Y-38839810D01*
X20128733Y-38830286D01*
X20176352Y-38830286D01*
X20195400Y-38820762D01*
X20262067Y-38773143D02*
X20338257Y-38773143D01*
X20290638Y-38706476D02*
X20290638Y-38877905D01*
X20300162Y-38896952D01*
X20319210Y-38906476D01*
X20338257Y-38906476D01*
X20481114Y-38896952D02*
X20462067Y-38906476D01*
X20423971Y-38906476D01*
X20404924Y-38896952D01*
X20395400Y-38877905D01*
X20395400Y-38801714D01*
X20404924Y-38782667D01*
X20423971Y-38773143D01*
X20462067Y-38773143D01*
X20481114Y-38782667D01*
X20490638Y-38801714D01*
X20490638Y-38820762D01*
X20395400Y-38839810D01*
X20662067Y-38906476D02*
X20662067Y-38706476D01*
X20662067Y-38896952D02*
X20643019Y-38906476D01*
X20604924Y-38906476D01*
X20585876Y-38896952D01*
X20576352Y-38887429D01*
X20566829Y-38868381D01*
X20566829Y-38811238D01*
X20576352Y-38792190D01*
X20585876Y-38782667D01*
X20604924Y-38773143D01*
X20643019Y-38773143D01*
X20662067Y-38782667D01*
X20738257Y-38982667D02*
X20747781Y-38973143D01*
X20766829Y-38944571D01*
X20776352Y-38925524D01*
X20785876Y-38896952D01*
X20795400Y-38849333D01*
X20795400Y-38811238D01*
X20785876Y-38763619D01*
X20776352Y-38735048D01*
X20766829Y-38716000D01*
X20747781Y-38687429D01*
X20738257Y-38677905D01*
X13885400Y-39036000D02*
X13885400Y-39236000D01*
X13785400Y-39136000D02*
X13985400Y-39136000D01*
X14328733Y-39026476D02*
X14290638Y-39026476D01*
X14271590Y-39036000D01*
X14262067Y-39045524D01*
X14243019Y-39074095D01*
X14233495Y-39112190D01*
X14233495Y-39188381D01*
X14243019Y-39207429D01*
X14252543Y-39216952D01*
X14271590Y-39226476D01*
X14309686Y-39226476D01*
X14328733Y-39216952D01*
X14338257Y-39207429D01*
X14347781Y-39188381D01*
X14347781Y-39140762D01*
X14338257Y-39121714D01*
X14328733Y-39112190D01*
X14309686Y-39102667D01*
X14271590Y-39102667D01*
X14252543Y-39112190D01*
X14243019Y-39121714D01*
X14233495Y-39140762D01*
X14433495Y-39207429D02*
X14443019Y-39216952D01*
X14433495Y-39226476D01*
X14423971Y-39216952D01*
X14433495Y-39207429D01*
X14433495Y-39226476D01*
X14566828Y-39026476D02*
X14585876Y-39026476D01*
X14604924Y-39036000D01*
X14614448Y-39045524D01*
X14623971Y-39064571D01*
X14633495Y-39102667D01*
X14633495Y-39150286D01*
X14623971Y-39188381D01*
X14614448Y-39207429D01*
X14604924Y-39216952D01*
X14585876Y-39226476D01*
X14566828Y-39226476D01*
X14547781Y-39216952D01*
X14538257Y-39207429D01*
X14528733Y-39188381D01*
X14519209Y-39150286D01*
X14519209Y-39102667D01*
X14528733Y-39064571D01*
X14538257Y-39045524D01*
X14547781Y-39036000D01*
X14566828Y-39026476D01*
X14757305Y-39026476D02*
X14776352Y-39026476D01*
X14795400Y-39036000D01*
X14804924Y-39045524D01*
X14814448Y-39064571D01*
X14823971Y-39102667D01*
X14823971Y-39150286D01*
X14814448Y-39188381D01*
X14804924Y-39207429D01*
X14795400Y-39216952D01*
X14776352Y-39226476D01*
X14757305Y-39226476D01*
X14738257Y-39216952D01*
X14728733Y-39207429D01*
X14719209Y-39188381D01*
X14709686Y-39150286D01*
X14709686Y-39102667D01*
X14719209Y-39064571D01*
X14728733Y-39045524D01*
X14738257Y-39036000D01*
X14757305Y-39026476D01*
X14947781Y-39026476D02*
X14966828Y-39026476D01*
X14985876Y-39036000D01*
X14995400Y-39045524D01*
X15004924Y-39064571D01*
X15014448Y-39102667D01*
X15014448Y-39150286D01*
X15004924Y-39188381D01*
X14995400Y-39207429D01*
X14985876Y-39216952D01*
X14966828Y-39226476D01*
X14947781Y-39226476D01*
X14928733Y-39216952D01*
X14919209Y-39207429D01*
X14909686Y-39188381D01*
X14900162Y-39150286D01*
X14900162Y-39102667D01*
X14909686Y-39064571D01*
X14919209Y-39045524D01*
X14928733Y-39036000D01*
X14947781Y-39026476D01*
X15100162Y-39226476D02*
X15100162Y-39093143D01*
X15100162Y-39112190D02*
X15109686Y-39102667D01*
X15128733Y-39093143D01*
X15157305Y-39093143D01*
X15176352Y-39102667D01*
X15185876Y-39121714D01*
X15185876Y-39226476D01*
X15185876Y-39121714D02*
X15195400Y-39102667D01*
X15214448Y-39093143D01*
X15243019Y-39093143D01*
X15262067Y-39102667D01*
X15271590Y-39121714D01*
X15271590Y-39226476D01*
X15366828Y-39226476D02*
X15366828Y-39093143D01*
X15366828Y-39112190D02*
X15376352Y-39102667D01*
X15395400Y-39093143D01*
X15423971Y-39093143D01*
X15443019Y-39102667D01*
X15452543Y-39121714D01*
X15452543Y-39226476D01*
X15452543Y-39121714D02*
X15462067Y-39102667D01*
X15481114Y-39093143D01*
X15509686Y-39093143D01*
X15528733Y-39102667D01*
X15538257Y-39121714D01*
X15538257Y-39226476D01*
X15928733Y-39016952D02*
X15757305Y-39274095D01*
X16185876Y-39026476D02*
X16204924Y-39026476D01*
X16223971Y-39036000D01*
X16233495Y-39045524D01*
X16243019Y-39064571D01*
X16252543Y-39102667D01*
X16252543Y-39150286D01*
X16243019Y-39188381D01*
X16233495Y-39207429D01*
X16223971Y-39216952D01*
X16204924Y-39226476D01*
X16185876Y-39226476D01*
X16166828Y-39216952D01*
X16157305Y-39207429D01*
X16147781Y-39188381D01*
X16138257Y-39150286D01*
X16138257Y-39102667D01*
X16147781Y-39064571D01*
X16157305Y-39045524D01*
X16166828Y-39036000D01*
X16185876Y-39026476D01*
X16338257Y-39207429D02*
X16347781Y-39216952D01*
X16338257Y-39226476D01*
X16328733Y-39216952D01*
X16338257Y-39207429D01*
X16338257Y-39226476D01*
X16423971Y-39045524D02*
X16433495Y-39036000D01*
X16452543Y-39026476D01*
X16500162Y-39026476D01*
X16519209Y-39036000D01*
X16528733Y-39045524D01*
X16538257Y-39064571D01*
X16538257Y-39083619D01*
X16528733Y-39112190D01*
X16414448Y-39226476D01*
X16538257Y-39226476D01*
X16604924Y-39026476D02*
X16728733Y-39026476D01*
X16662067Y-39102667D01*
X16690638Y-39102667D01*
X16709686Y-39112190D01*
X16719209Y-39121714D01*
X16728733Y-39140762D01*
X16728733Y-39188381D01*
X16719209Y-39207429D01*
X16709686Y-39216952D01*
X16690638Y-39226476D01*
X16633495Y-39226476D01*
X16614448Y-39216952D01*
X16604924Y-39207429D01*
X16900162Y-39026476D02*
X16862067Y-39026476D01*
X16843019Y-39036000D01*
X16833495Y-39045524D01*
X16814448Y-39074095D01*
X16804924Y-39112190D01*
X16804924Y-39188381D01*
X16814448Y-39207429D01*
X16823971Y-39216952D01*
X16843019Y-39226476D01*
X16881114Y-39226476D01*
X16900162Y-39216952D01*
X16909686Y-39207429D01*
X16919210Y-39188381D01*
X16919210Y-39140762D01*
X16909686Y-39121714D01*
X16900162Y-39112190D01*
X16881114Y-39102667D01*
X16843019Y-39102667D01*
X16823971Y-39112190D01*
X16814448Y-39121714D01*
X16804924Y-39140762D01*
X16995400Y-39045524D02*
X17004924Y-39036000D01*
X17023971Y-39026476D01*
X17071590Y-39026476D01*
X17090638Y-39036000D01*
X17100162Y-39045524D01*
X17109686Y-39064571D01*
X17109686Y-39083619D01*
X17100162Y-39112190D01*
X16985876Y-39226476D01*
X17109686Y-39226476D01*
X17185876Y-39026476D02*
X17185876Y-39064571D01*
X17262067Y-39026476D02*
X17262067Y-39064571D01*
X17557305Y-39302667D02*
X17547781Y-39293143D01*
X17528733Y-39264571D01*
X17519210Y-39245524D01*
X17509686Y-39216952D01*
X17500162Y-39169333D01*
X17500162Y-39131238D01*
X17509686Y-39083619D01*
X17519210Y-39055048D01*
X17528733Y-39036000D01*
X17547781Y-39007429D01*
X17557305Y-38997905D01*
X17623971Y-39045524D02*
X17633495Y-39036000D01*
X17652543Y-39026476D01*
X17700162Y-39026476D01*
X17719210Y-39036000D01*
X17728733Y-39045524D01*
X17738257Y-39064571D01*
X17738257Y-39083619D01*
X17728733Y-39112190D01*
X17614448Y-39226476D01*
X17738257Y-39226476D01*
X17976352Y-39226476D02*
X17976352Y-39026476D01*
X18062067Y-39226476D02*
X18062067Y-39121714D01*
X18052543Y-39102667D01*
X18033495Y-39093143D01*
X18004924Y-39093143D01*
X17985876Y-39102667D01*
X17976352Y-39112190D01*
X18185876Y-39226476D02*
X18166829Y-39216952D01*
X18157305Y-39207429D01*
X18147781Y-39188381D01*
X18147781Y-39131238D01*
X18157305Y-39112190D01*
X18166829Y-39102667D01*
X18185876Y-39093143D01*
X18214448Y-39093143D01*
X18233495Y-39102667D01*
X18243019Y-39112190D01*
X18252543Y-39131238D01*
X18252543Y-39188381D01*
X18243019Y-39207429D01*
X18233495Y-39216952D01*
X18214448Y-39226476D01*
X18185876Y-39226476D01*
X18366829Y-39226476D02*
X18347781Y-39216952D01*
X18338257Y-39197905D01*
X18338257Y-39026476D01*
X18519210Y-39216952D02*
X18500162Y-39226476D01*
X18462067Y-39226476D01*
X18443019Y-39216952D01*
X18433495Y-39197905D01*
X18433495Y-39121714D01*
X18443019Y-39102667D01*
X18462067Y-39093143D01*
X18500162Y-39093143D01*
X18519210Y-39102667D01*
X18528733Y-39121714D01*
X18528733Y-39140762D01*
X18433495Y-39159810D01*
X18604924Y-39216952D02*
X18623971Y-39226476D01*
X18662067Y-39226476D01*
X18681114Y-39216952D01*
X18690638Y-39197905D01*
X18690638Y-39188381D01*
X18681114Y-39169333D01*
X18662067Y-39159810D01*
X18633495Y-39159810D01*
X18614448Y-39150286D01*
X18604924Y-39131238D01*
X18604924Y-39121714D01*
X18614448Y-39102667D01*
X18633495Y-39093143D01*
X18662067Y-39093143D01*
X18681114Y-39102667D01*
X18757305Y-39302667D02*
X18766829Y-39293143D01*
X18785876Y-39264571D01*
X18795400Y-39245524D01*
X18804924Y-39216952D01*
X18814448Y-39169333D01*
X18814448Y-39131238D01*
X18804924Y-39083619D01*
X18795400Y-39055048D01*
X18785876Y-39036000D01*
X18766829Y-39007429D01*
X18757305Y-38997905D01*
X19119210Y-39302667D02*
X19109686Y-39293143D01*
X19090638Y-39264571D01*
X19081114Y-39245524D01*
X19071590Y-39216952D01*
X19062067Y-39169333D01*
X19062067Y-39131238D01*
X19071590Y-39083619D01*
X19081114Y-39055048D01*
X19090638Y-39036000D01*
X19109686Y-39007429D01*
X19119210Y-38997905D01*
X19195400Y-39093143D02*
X19195400Y-39226476D01*
X19195400Y-39112190D02*
X19204924Y-39102667D01*
X19223971Y-39093143D01*
X19252543Y-39093143D01*
X19271590Y-39102667D01*
X19281114Y-39121714D01*
X19281114Y-39226476D01*
X19404924Y-39226476D02*
X19385876Y-39216952D01*
X19376352Y-39207429D01*
X19366829Y-39188381D01*
X19366829Y-39131238D01*
X19376352Y-39112190D01*
X19385876Y-39102667D01*
X19404924Y-39093143D01*
X19433495Y-39093143D01*
X19452543Y-39102667D01*
X19462067Y-39112190D01*
X19471590Y-39131238D01*
X19471590Y-39188381D01*
X19462067Y-39207429D01*
X19452543Y-39216952D01*
X19433495Y-39226476D01*
X19404924Y-39226476D01*
X19528733Y-39093143D02*
X19604924Y-39093143D01*
X19557305Y-39026476D02*
X19557305Y-39197905D01*
X19566829Y-39216952D01*
X19585876Y-39226476D01*
X19604924Y-39226476D01*
X19823971Y-39093143D02*
X19823971Y-39293143D01*
X19823971Y-39102667D02*
X19843019Y-39093143D01*
X19881114Y-39093143D01*
X19900162Y-39102667D01*
X19909686Y-39112190D01*
X19919210Y-39131238D01*
X19919210Y-39188381D01*
X19909686Y-39207429D01*
X19900162Y-39216952D01*
X19881114Y-39226476D01*
X19843019Y-39226476D01*
X19823971Y-39216952D01*
X20033495Y-39226476D02*
X20014448Y-39216952D01*
X20004924Y-39197905D01*
X20004924Y-39026476D01*
X20195400Y-39226476D02*
X20195400Y-39121714D01*
X20185876Y-39102667D01*
X20166829Y-39093143D01*
X20128733Y-39093143D01*
X20109686Y-39102667D01*
X20195400Y-39216952D02*
X20176352Y-39226476D01*
X20128733Y-39226476D01*
X20109686Y-39216952D01*
X20100162Y-39197905D01*
X20100162Y-39178857D01*
X20109686Y-39159810D01*
X20128733Y-39150286D01*
X20176352Y-39150286D01*
X20195400Y-39140762D01*
X20262067Y-39093143D02*
X20338257Y-39093143D01*
X20290638Y-39026476D02*
X20290638Y-39197905D01*
X20300162Y-39216952D01*
X20319210Y-39226476D01*
X20338257Y-39226476D01*
X20481114Y-39216952D02*
X20462067Y-39226476D01*
X20423971Y-39226476D01*
X20404924Y-39216952D01*
X20395400Y-39197905D01*
X20395400Y-39121714D01*
X20404924Y-39102667D01*
X20423971Y-39093143D01*
X20462067Y-39093143D01*
X20481114Y-39102667D01*
X20490638Y-39121714D01*
X20490638Y-39140762D01*
X20395400Y-39159810D01*
X20662067Y-39226476D02*
X20662067Y-39026476D01*
X20662067Y-39216952D02*
X20643019Y-39226476D01*
X20604924Y-39226476D01*
X20585876Y-39216952D01*
X20576352Y-39207429D01*
X20566829Y-39188381D01*
X20566829Y-39131238D01*
X20576352Y-39112190D01*
X20585876Y-39102667D01*
X20604924Y-39093143D01*
X20643019Y-39093143D01*
X20662067Y-39102667D01*
X20738257Y-39302667D02*
X20747781Y-39293143D01*
X20766829Y-39264571D01*
X20776352Y-39245524D01*
X20785876Y-39216952D01*
X20795400Y-39169333D01*
X20795400Y-39131238D01*
X20785876Y-39083619D01*
X20776352Y-39055048D01*
X20766829Y-39036000D01*
X20747781Y-39007429D01*
X20738257Y-38997905D01*
X13956111Y-39526711D02*
X13956111Y-39385289D01*
X13814689Y-39385289D01*
X13814689Y-39526711D01*
X13956111Y-39526711D01*
X14328733Y-39346476D02*
X14290638Y-39346476D01*
X14271590Y-39356000D01*
X14262067Y-39365524D01*
X14243019Y-39394095D01*
X14233495Y-39432190D01*
X14233495Y-39508381D01*
X14243019Y-39527429D01*
X14252543Y-39536952D01*
X14271590Y-39546476D01*
X14309686Y-39546476D01*
X14328733Y-39536952D01*
X14338257Y-39527429D01*
X14347781Y-39508381D01*
X14347781Y-39460762D01*
X14338257Y-39441714D01*
X14328733Y-39432190D01*
X14309686Y-39422667D01*
X14271590Y-39422667D01*
X14252543Y-39432190D01*
X14243019Y-39441714D01*
X14233495Y-39460762D01*
X14433495Y-39527429D02*
X14443019Y-39536952D01*
X14433495Y-39546476D01*
X14423971Y-39536952D01*
X14433495Y-39527429D01*
X14433495Y-39546476D01*
X14519209Y-39365524D02*
X14528733Y-39356000D01*
X14547781Y-39346476D01*
X14595400Y-39346476D01*
X14614448Y-39356000D01*
X14623971Y-39365524D01*
X14633495Y-39384571D01*
X14633495Y-39403619D01*
X14623971Y-39432190D01*
X14509686Y-39546476D01*
X14633495Y-39546476D01*
X14757305Y-39346476D02*
X14776352Y-39346476D01*
X14795400Y-39356000D01*
X14804924Y-39365524D01*
X14814448Y-39384571D01*
X14823971Y-39422667D01*
X14823971Y-39470286D01*
X14814448Y-39508381D01*
X14804924Y-39527429D01*
X14795400Y-39536952D01*
X14776352Y-39546476D01*
X14757305Y-39546476D01*
X14738257Y-39536952D01*
X14728733Y-39527429D01*
X14719209Y-39508381D01*
X14709686Y-39470286D01*
X14709686Y-39422667D01*
X14719209Y-39384571D01*
X14728733Y-39365524D01*
X14738257Y-39356000D01*
X14757305Y-39346476D01*
X14947781Y-39346476D02*
X14966828Y-39346476D01*
X14985876Y-39356000D01*
X14995400Y-39365524D01*
X15004924Y-39384571D01*
X15014448Y-39422667D01*
X15014448Y-39470286D01*
X15004924Y-39508381D01*
X14995400Y-39527429D01*
X14985876Y-39536952D01*
X14966828Y-39546476D01*
X14947781Y-39546476D01*
X14928733Y-39536952D01*
X14919209Y-39527429D01*
X14909686Y-39508381D01*
X14900162Y-39470286D01*
X14900162Y-39422667D01*
X14909686Y-39384571D01*
X14919209Y-39365524D01*
X14928733Y-39356000D01*
X14947781Y-39346476D01*
X15100162Y-39546476D02*
X15100162Y-39413143D01*
X15100162Y-39432190D02*
X15109686Y-39422667D01*
X15128733Y-39413143D01*
X15157305Y-39413143D01*
X15176352Y-39422667D01*
X15185876Y-39441714D01*
X15185876Y-39546476D01*
X15185876Y-39441714D02*
X15195400Y-39422667D01*
X15214448Y-39413143D01*
X15243019Y-39413143D01*
X15262067Y-39422667D01*
X15271590Y-39441714D01*
X15271590Y-39546476D01*
X15366828Y-39546476D02*
X15366828Y-39413143D01*
X15366828Y-39432190D02*
X15376352Y-39422667D01*
X15395400Y-39413143D01*
X15423971Y-39413143D01*
X15443019Y-39422667D01*
X15452543Y-39441714D01*
X15452543Y-39546476D01*
X15452543Y-39441714D02*
X15462067Y-39422667D01*
X15481114Y-39413143D01*
X15509686Y-39413143D01*
X15528733Y-39422667D01*
X15538257Y-39441714D01*
X15538257Y-39546476D01*
X15928733Y-39336952D02*
X15757305Y-39594095D01*
X16185876Y-39346476D02*
X16204924Y-39346476D01*
X16223971Y-39356000D01*
X16233495Y-39365524D01*
X16243019Y-39384571D01*
X16252543Y-39422667D01*
X16252543Y-39470286D01*
X16243019Y-39508381D01*
X16233495Y-39527429D01*
X16223971Y-39536952D01*
X16204924Y-39546476D01*
X16185876Y-39546476D01*
X16166828Y-39536952D01*
X16157305Y-39527429D01*
X16147781Y-39508381D01*
X16138257Y-39470286D01*
X16138257Y-39422667D01*
X16147781Y-39384571D01*
X16157305Y-39365524D01*
X16166828Y-39356000D01*
X16185876Y-39346476D01*
X16338257Y-39527429D02*
X16347781Y-39536952D01*
X16338257Y-39546476D01*
X16328733Y-39536952D01*
X16338257Y-39527429D01*
X16338257Y-39546476D01*
X16423971Y-39365524D02*
X16433495Y-39356000D01*
X16452543Y-39346476D01*
X16500162Y-39346476D01*
X16519209Y-39356000D01*
X16528733Y-39365524D01*
X16538257Y-39384571D01*
X16538257Y-39403619D01*
X16528733Y-39432190D01*
X16414448Y-39546476D01*
X16538257Y-39546476D01*
X16709686Y-39413143D02*
X16709686Y-39546476D01*
X16662067Y-39336952D02*
X16614448Y-39479810D01*
X16738257Y-39479810D01*
X16900162Y-39413143D02*
X16900162Y-39546476D01*
X16852543Y-39336952D02*
X16804924Y-39479810D01*
X16928733Y-39479810D01*
X17109686Y-39546476D02*
X16995400Y-39546476D01*
X17052543Y-39546476D02*
X17052543Y-39346476D01*
X17033495Y-39375048D01*
X17014448Y-39394095D01*
X16995400Y-39403619D01*
X17185876Y-39346476D02*
X17185876Y-39384571D01*
X17262067Y-39346476D02*
X17262067Y-39384571D01*
X17557305Y-39622667D02*
X17547781Y-39613143D01*
X17528733Y-39584571D01*
X17519210Y-39565524D01*
X17509686Y-39536952D01*
X17500162Y-39489333D01*
X17500162Y-39451238D01*
X17509686Y-39403619D01*
X17519210Y-39375048D01*
X17528733Y-39356000D01*
X17547781Y-39327429D01*
X17557305Y-39317905D01*
X17738257Y-39546476D02*
X17623971Y-39546476D01*
X17681114Y-39546476D02*
X17681114Y-39346476D01*
X17662067Y-39375048D01*
X17643019Y-39394095D01*
X17623971Y-39403619D01*
X17909686Y-39346476D02*
X17871590Y-39346476D01*
X17852543Y-39356000D01*
X17843019Y-39365524D01*
X17823971Y-39394095D01*
X17814448Y-39432190D01*
X17814448Y-39508381D01*
X17823971Y-39527429D01*
X17833495Y-39536952D01*
X17852543Y-39546476D01*
X17890638Y-39546476D01*
X17909686Y-39536952D01*
X17919210Y-39527429D01*
X17928733Y-39508381D01*
X17928733Y-39460762D01*
X17919210Y-39441714D01*
X17909686Y-39432190D01*
X17890638Y-39422667D01*
X17852543Y-39422667D01*
X17833495Y-39432190D01*
X17823971Y-39441714D01*
X17814448Y-39460762D01*
X18166829Y-39546476D02*
X18166829Y-39346476D01*
X18252543Y-39546476D02*
X18252543Y-39441714D01*
X18243019Y-39422667D01*
X18223971Y-39413143D01*
X18195400Y-39413143D01*
X18176352Y-39422667D01*
X18166829Y-39432190D01*
X18376352Y-39546476D02*
X18357305Y-39536952D01*
X18347781Y-39527429D01*
X18338257Y-39508381D01*
X18338257Y-39451238D01*
X18347781Y-39432190D01*
X18357305Y-39422667D01*
X18376352Y-39413143D01*
X18404924Y-39413143D01*
X18423971Y-39422667D01*
X18433495Y-39432190D01*
X18443019Y-39451238D01*
X18443019Y-39508381D01*
X18433495Y-39527429D01*
X18423971Y-39536952D01*
X18404924Y-39546476D01*
X18376352Y-39546476D01*
X18557305Y-39546476D02*
X18538257Y-39536952D01*
X18528733Y-39517905D01*
X18528733Y-39346476D01*
X18709686Y-39536952D02*
X18690638Y-39546476D01*
X18652543Y-39546476D01*
X18633495Y-39536952D01*
X18623971Y-39517905D01*
X18623971Y-39441714D01*
X18633495Y-39422667D01*
X18652543Y-39413143D01*
X18690638Y-39413143D01*
X18709686Y-39422667D01*
X18719210Y-39441714D01*
X18719210Y-39460762D01*
X18623971Y-39479810D01*
X18795400Y-39536952D02*
X18814448Y-39546476D01*
X18852543Y-39546476D01*
X18871590Y-39536952D01*
X18881114Y-39517905D01*
X18881114Y-39508381D01*
X18871590Y-39489333D01*
X18852543Y-39479810D01*
X18823971Y-39479810D01*
X18804924Y-39470286D01*
X18795400Y-39451238D01*
X18795400Y-39441714D01*
X18804924Y-39422667D01*
X18823971Y-39413143D01*
X18852543Y-39413143D01*
X18871590Y-39422667D01*
X18947781Y-39622667D02*
X18957305Y-39613143D01*
X18976352Y-39584571D01*
X18985876Y-39565524D01*
X18995400Y-39536952D01*
X19004924Y-39489333D01*
X19004924Y-39451238D01*
X18995400Y-39403619D01*
X18985876Y-39375048D01*
X18976352Y-39356000D01*
X18957305Y-39327429D01*
X18947781Y-39317905D01*
X19309686Y-39622667D02*
X19300162Y-39613143D01*
X19281114Y-39584571D01*
X19271590Y-39565524D01*
X19262067Y-39536952D01*
X19252543Y-39489333D01*
X19252543Y-39451238D01*
X19262067Y-39403619D01*
X19271590Y-39375048D01*
X19281114Y-39356000D01*
X19300162Y-39327429D01*
X19309686Y-39317905D01*
X19385876Y-39413143D02*
X19385876Y-39546476D01*
X19385876Y-39432190D02*
X19395400Y-39422667D01*
X19414448Y-39413143D01*
X19443019Y-39413143D01*
X19462067Y-39422667D01*
X19471590Y-39441714D01*
X19471590Y-39546476D01*
X19595400Y-39546476D02*
X19576352Y-39536952D01*
X19566829Y-39527429D01*
X19557305Y-39508381D01*
X19557305Y-39451238D01*
X19566829Y-39432190D01*
X19576352Y-39422667D01*
X19595400Y-39413143D01*
X19623971Y-39413143D01*
X19643019Y-39422667D01*
X19652543Y-39432190D01*
X19662067Y-39451238D01*
X19662067Y-39508381D01*
X19652543Y-39527429D01*
X19643019Y-39536952D01*
X19623971Y-39546476D01*
X19595400Y-39546476D01*
X19719210Y-39413143D02*
X19795400Y-39413143D01*
X19747781Y-39346476D02*
X19747781Y-39517905D01*
X19757305Y-39536952D01*
X19776352Y-39546476D01*
X19795400Y-39546476D01*
X20014448Y-39413143D02*
X20014448Y-39613143D01*
X20014448Y-39422667D02*
X20033495Y-39413143D01*
X20071590Y-39413143D01*
X20090638Y-39422667D01*
X20100162Y-39432190D01*
X20109686Y-39451238D01*
X20109686Y-39508381D01*
X20100162Y-39527429D01*
X20090638Y-39536952D01*
X20071590Y-39546476D01*
X20033495Y-39546476D01*
X20014448Y-39536952D01*
X20223971Y-39546476D02*
X20204924Y-39536952D01*
X20195400Y-39517905D01*
X20195400Y-39346476D01*
X20385876Y-39546476D02*
X20385876Y-39441714D01*
X20376352Y-39422667D01*
X20357305Y-39413143D01*
X20319210Y-39413143D01*
X20300162Y-39422667D01*
X20385876Y-39536952D02*
X20366829Y-39546476D01*
X20319210Y-39546476D01*
X20300162Y-39536952D01*
X20290638Y-39517905D01*
X20290638Y-39498857D01*
X20300162Y-39479810D01*
X20319210Y-39470286D01*
X20366829Y-39470286D01*
X20385876Y-39460762D01*
X20452543Y-39413143D02*
X20528733Y-39413143D01*
X20481114Y-39346476D02*
X20481114Y-39517905D01*
X20490638Y-39536952D01*
X20509686Y-39546476D01*
X20528733Y-39546476D01*
X20671590Y-39536952D02*
X20652543Y-39546476D01*
X20614448Y-39546476D01*
X20595400Y-39536952D01*
X20585876Y-39517905D01*
X20585876Y-39441714D01*
X20595400Y-39422667D01*
X20614448Y-39413143D01*
X20652543Y-39413143D01*
X20671590Y-39422667D01*
X20681114Y-39441714D01*
X20681114Y-39460762D01*
X20585876Y-39479810D01*
X20852543Y-39546476D02*
X20852543Y-39346476D01*
X20852543Y-39536952D02*
X20833495Y-39546476D01*
X20795400Y-39546476D01*
X20776352Y-39536952D01*
X20766829Y-39527429D01*
X20757305Y-39508381D01*
X20757305Y-39451238D01*
X20766829Y-39432190D01*
X20776352Y-39422667D01*
X20795400Y-39413143D01*
X20833495Y-39413143D01*
X20852543Y-39422667D01*
X20928733Y-39622667D02*
X20938257Y-39613143D01*
X20957305Y-39584571D01*
X20966829Y-39565524D01*
X20976352Y-39536952D01*
X20985876Y-39489333D01*
X20985876Y-39451238D01*
X20976352Y-39403619D01*
X20966829Y-39375048D01*
X20957305Y-39356000D01*
X20938257Y-39327429D01*
X20928733Y-39317905D01*
X13885400Y-39876000D02*
X13985400Y-39776000D01*
X13885400Y-39676000D01*
X13785400Y-39776000D01*
X13885400Y-39876000D01*
X14223971Y-39666476D02*
X14357305Y-39666476D01*
X14271590Y-39866476D01*
X14433495Y-39847429D02*
X14443019Y-39856952D01*
X14433495Y-39866476D01*
X14423971Y-39856952D01*
X14433495Y-39847429D01*
X14433495Y-39866476D01*
X14519209Y-39685524D02*
X14528733Y-39676000D01*
X14547781Y-39666476D01*
X14595400Y-39666476D01*
X14614448Y-39676000D01*
X14623971Y-39685524D01*
X14633495Y-39704571D01*
X14633495Y-39723619D01*
X14623971Y-39752190D01*
X14509686Y-39866476D01*
X14633495Y-39866476D01*
X14757305Y-39666476D02*
X14776352Y-39666476D01*
X14795400Y-39676000D01*
X14804924Y-39685524D01*
X14814448Y-39704571D01*
X14823971Y-39742667D01*
X14823971Y-39790286D01*
X14814448Y-39828381D01*
X14804924Y-39847429D01*
X14795400Y-39856952D01*
X14776352Y-39866476D01*
X14757305Y-39866476D01*
X14738257Y-39856952D01*
X14728733Y-39847429D01*
X14719209Y-39828381D01*
X14709686Y-39790286D01*
X14709686Y-39742667D01*
X14719209Y-39704571D01*
X14728733Y-39685524D01*
X14738257Y-39676000D01*
X14757305Y-39666476D01*
X14947781Y-39666476D02*
X14966828Y-39666476D01*
X14985876Y-39676000D01*
X14995400Y-39685524D01*
X15004924Y-39704571D01*
X15014448Y-39742667D01*
X15014448Y-39790286D01*
X15004924Y-39828381D01*
X14995400Y-39847429D01*
X14985876Y-39856952D01*
X14966828Y-39866476D01*
X14947781Y-39866476D01*
X14928733Y-39856952D01*
X14919209Y-39847429D01*
X14909686Y-39828381D01*
X14900162Y-39790286D01*
X14900162Y-39742667D01*
X14909686Y-39704571D01*
X14919209Y-39685524D01*
X14928733Y-39676000D01*
X14947781Y-39666476D01*
X15100162Y-39866476D02*
X15100162Y-39733143D01*
X15100162Y-39752190D02*
X15109686Y-39742667D01*
X15128733Y-39733143D01*
X15157305Y-39733143D01*
X15176352Y-39742667D01*
X15185876Y-39761714D01*
X15185876Y-39866476D01*
X15185876Y-39761714D02*
X15195400Y-39742667D01*
X15214448Y-39733143D01*
X15243019Y-39733143D01*
X15262067Y-39742667D01*
X15271590Y-39761714D01*
X15271590Y-39866476D01*
X15366828Y-39866476D02*
X15366828Y-39733143D01*
X15366828Y-39752190D02*
X15376352Y-39742667D01*
X15395400Y-39733143D01*
X15423971Y-39733143D01*
X15443019Y-39742667D01*
X15452543Y-39761714D01*
X15452543Y-39866476D01*
X15452543Y-39761714D02*
X15462067Y-39742667D01*
X15481114Y-39733143D01*
X15509686Y-39733143D01*
X15528733Y-39742667D01*
X15538257Y-39761714D01*
X15538257Y-39866476D01*
X15928733Y-39656952D02*
X15757305Y-39914095D01*
X16185876Y-39666476D02*
X16204924Y-39666476D01*
X16223971Y-39676000D01*
X16233495Y-39685524D01*
X16243019Y-39704571D01*
X16252543Y-39742667D01*
X16252543Y-39790286D01*
X16243019Y-39828381D01*
X16233495Y-39847429D01*
X16223971Y-39856952D01*
X16204924Y-39866476D01*
X16185876Y-39866476D01*
X16166828Y-39856952D01*
X16157305Y-39847429D01*
X16147781Y-39828381D01*
X16138257Y-39790286D01*
X16138257Y-39742667D01*
X16147781Y-39704571D01*
X16157305Y-39685524D01*
X16166828Y-39676000D01*
X16185876Y-39666476D01*
X16338257Y-39847429D02*
X16347781Y-39856952D01*
X16338257Y-39866476D01*
X16328733Y-39856952D01*
X16338257Y-39847429D01*
X16338257Y-39866476D01*
X16423971Y-39685524D02*
X16433495Y-39676000D01*
X16452543Y-39666476D01*
X16500162Y-39666476D01*
X16519209Y-39676000D01*
X16528733Y-39685524D01*
X16538257Y-39704571D01*
X16538257Y-39723619D01*
X16528733Y-39752190D01*
X16414448Y-39866476D01*
X16538257Y-39866476D01*
X16652543Y-39752190D02*
X16633495Y-39742667D01*
X16623971Y-39733143D01*
X16614448Y-39714095D01*
X16614448Y-39704571D01*
X16623971Y-39685524D01*
X16633495Y-39676000D01*
X16652543Y-39666476D01*
X16690638Y-39666476D01*
X16709686Y-39676000D01*
X16719209Y-39685524D01*
X16728733Y-39704571D01*
X16728733Y-39714095D01*
X16719209Y-39733143D01*
X16709686Y-39742667D01*
X16690638Y-39752190D01*
X16652543Y-39752190D01*
X16633495Y-39761714D01*
X16623971Y-39771238D01*
X16614448Y-39790286D01*
X16614448Y-39828381D01*
X16623971Y-39847429D01*
X16633495Y-39856952D01*
X16652543Y-39866476D01*
X16690638Y-39866476D01*
X16709686Y-39856952D01*
X16719209Y-39847429D01*
X16728733Y-39828381D01*
X16728733Y-39790286D01*
X16719209Y-39771238D01*
X16709686Y-39761714D01*
X16690638Y-39752190D01*
X16795400Y-39666476D02*
X16919210Y-39666476D01*
X16852543Y-39742667D01*
X16881114Y-39742667D01*
X16900162Y-39752190D01*
X16909686Y-39761714D01*
X16919210Y-39780762D01*
X16919210Y-39828381D01*
X16909686Y-39847429D01*
X16900162Y-39856952D01*
X16881114Y-39866476D01*
X16823971Y-39866476D01*
X16804924Y-39856952D01*
X16795400Y-39847429D01*
X17100162Y-39666476D02*
X17004924Y-39666476D01*
X16995400Y-39761714D01*
X17004924Y-39752190D01*
X17023971Y-39742667D01*
X17071590Y-39742667D01*
X17090638Y-39752190D01*
X17100162Y-39761714D01*
X17109686Y-39780762D01*
X17109686Y-39828381D01*
X17100162Y-39847429D01*
X17090638Y-39856952D01*
X17071590Y-39866476D01*
X17023971Y-39866476D01*
X17004924Y-39856952D01*
X16995400Y-39847429D01*
X17185876Y-39666476D02*
X17185876Y-39704571D01*
X17262067Y-39666476D02*
X17262067Y-39704571D01*
X17557305Y-39942667D02*
X17547781Y-39933143D01*
X17528733Y-39904571D01*
X17519210Y-39885524D01*
X17509686Y-39856952D01*
X17500162Y-39809333D01*
X17500162Y-39771238D01*
X17509686Y-39723619D01*
X17519210Y-39695048D01*
X17528733Y-39676000D01*
X17547781Y-39647429D01*
X17557305Y-39637905D01*
X17662067Y-39752190D02*
X17643019Y-39742667D01*
X17633495Y-39733143D01*
X17623971Y-39714095D01*
X17623971Y-39704571D01*
X17633495Y-39685524D01*
X17643019Y-39676000D01*
X17662067Y-39666476D01*
X17700162Y-39666476D01*
X17719210Y-39676000D01*
X17728733Y-39685524D01*
X17738257Y-39704571D01*
X17738257Y-39714095D01*
X17728733Y-39733143D01*
X17719210Y-39742667D01*
X17700162Y-39752190D01*
X17662067Y-39752190D01*
X17643019Y-39761714D01*
X17633495Y-39771238D01*
X17623971Y-39790286D01*
X17623971Y-39828381D01*
X17633495Y-39847429D01*
X17643019Y-39856952D01*
X17662067Y-39866476D01*
X17700162Y-39866476D01*
X17719210Y-39856952D01*
X17728733Y-39847429D01*
X17738257Y-39828381D01*
X17738257Y-39790286D01*
X17728733Y-39771238D01*
X17719210Y-39761714D01*
X17700162Y-39752190D01*
X17976352Y-39866476D02*
X17976352Y-39666476D01*
X18062067Y-39866476D02*
X18062067Y-39761714D01*
X18052543Y-39742667D01*
X18033495Y-39733143D01*
X18004924Y-39733143D01*
X17985876Y-39742667D01*
X17976352Y-39752190D01*
X18185876Y-39866476D02*
X18166829Y-39856952D01*
X18157305Y-39847429D01*
X18147781Y-39828381D01*
X18147781Y-39771238D01*
X18157305Y-39752190D01*
X18166829Y-39742667D01*
X18185876Y-39733143D01*
X18214448Y-39733143D01*
X18233495Y-39742667D01*
X18243019Y-39752190D01*
X18252543Y-39771238D01*
X18252543Y-39828381D01*
X18243019Y-39847429D01*
X18233495Y-39856952D01*
X18214448Y-39866476D01*
X18185876Y-39866476D01*
X18366829Y-39866476D02*
X18347781Y-39856952D01*
X18338257Y-39837905D01*
X18338257Y-39666476D01*
X18519210Y-39856952D02*
X18500162Y-39866476D01*
X18462067Y-39866476D01*
X18443019Y-39856952D01*
X18433495Y-39837905D01*
X18433495Y-39761714D01*
X18443019Y-39742667D01*
X18462067Y-39733143D01*
X18500162Y-39733143D01*
X18519210Y-39742667D01*
X18528733Y-39761714D01*
X18528733Y-39780762D01*
X18433495Y-39799810D01*
X18604924Y-39856952D02*
X18623971Y-39866476D01*
X18662067Y-39866476D01*
X18681114Y-39856952D01*
X18690638Y-39837905D01*
X18690638Y-39828381D01*
X18681114Y-39809333D01*
X18662067Y-39799810D01*
X18633495Y-39799810D01*
X18614448Y-39790286D01*
X18604924Y-39771238D01*
X18604924Y-39761714D01*
X18614448Y-39742667D01*
X18633495Y-39733143D01*
X18662067Y-39733143D01*
X18681114Y-39742667D01*
X18757305Y-39942667D02*
X18766829Y-39933143D01*
X18785876Y-39904571D01*
X18795400Y-39885524D01*
X18804924Y-39856952D01*
X18814448Y-39809333D01*
X18814448Y-39771238D01*
X18804924Y-39723619D01*
X18795400Y-39695048D01*
X18785876Y-39676000D01*
X18766829Y-39647429D01*
X18757305Y-39637905D01*
X19119210Y-39942667D02*
X19109686Y-39933143D01*
X19090638Y-39904571D01*
X19081114Y-39885524D01*
X19071590Y-39856952D01*
X19062067Y-39809333D01*
X19062067Y-39771238D01*
X19071590Y-39723619D01*
X19081114Y-39695048D01*
X19090638Y-39676000D01*
X19109686Y-39647429D01*
X19119210Y-39637905D01*
X19195400Y-39733143D02*
X19195400Y-39866476D01*
X19195400Y-39752190D02*
X19204924Y-39742667D01*
X19223971Y-39733143D01*
X19252543Y-39733143D01*
X19271590Y-39742667D01*
X19281114Y-39761714D01*
X19281114Y-39866476D01*
X19404924Y-39866476D02*
X19385876Y-39856952D01*
X19376352Y-39847429D01*
X19366829Y-39828381D01*
X19366829Y-39771238D01*
X19376352Y-39752190D01*
X19385876Y-39742667D01*
X19404924Y-39733143D01*
X19433495Y-39733143D01*
X19452543Y-39742667D01*
X19462067Y-39752190D01*
X19471590Y-39771238D01*
X19471590Y-39828381D01*
X19462067Y-39847429D01*
X19452543Y-39856952D01*
X19433495Y-39866476D01*
X19404924Y-39866476D01*
X19528733Y-39733143D02*
X19604924Y-39733143D01*
X19557305Y-39666476D02*
X19557305Y-39837905D01*
X19566829Y-39856952D01*
X19585876Y-39866476D01*
X19604924Y-39866476D01*
X19823971Y-39733143D02*
X19823971Y-39933143D01*
X19823971Y-39742667D02*
X19843019Y-39733143D01*
X19881114Y-39733143D01*
X19900162Y-39742667D01*
X19909686Y-39752190D01*
X19919210Y-39771238D01*
X19919210Y-39828381D01*
X19909686Y-39847429D01*
X19900162Y-39856952D01*
X19881114Y-39866476D01*
X19843019Y-39866476D01*
X19823971Y-39856952D01*
X20033495Y-39866476D02*
X20014448Y-39856952D01*
X20004924Y-39837905D01*
X20004924Y-39666476D01*
X20195400Y-39866476D02*
X20195400Y-39761714D01*
X20185876Y-39742667D01*
X20166829Y-39733143D01*
X20128733Y-39733143D01*
X20109686Y-39742667D01*
X20195400Y-39856952D02*
X20176352Y-39866476D01*
X20128733Y-39866476D01*
X20109686Y-39856952D01*
X20100162Y-39837905D01*
X20100162Y-39818857D01*
X20109686Y-39799810D01*
X20128733Y-39790286D01*
X20176352Y-39790286D01*
X20195400Y-39780762D01*
X20262067Y-39733143D02*
X20338257Y-39733143D01*
X20290638Y-39666476D02*
X20290638Y-39837905D01*
X20300162Y-39856952D01*
X20319210Y-39866476D01*
X20338257Y-39866476D01*
X20481114Y-39856952D02*
X20462067Y-39866476D01*
X20423971Y-39866476D01*
X20404924Y-39856952D01*
X20395400Y-39837905D01*
X20395400Y-39761714D01*
X20404924Y-39742667D01*
X20423971Y-39733143D01*
X20462067Y-39733143D01*
X20481114Y-39742667D01*
X20490638Y-39761714D01*
X20490638Y-39780762D01*
X20395400Y-39799810D01*
X20662067Y-39866476D02*
X20662067Y-39666476D01*
X20662067Y-39856952D02*
X20643019Y-39866476D01*
X20604924Y-39866476D01*
X20585876Y-39856952D01*
X20576352Y-39847429D01*
X20566829Y-39828381D01*
X20566829Y-39771238D01*
X20576352Y-39752190D01*
X20585876Y-39742667D01*
X20604924Y-39733143D01*
X20643019Y-39733143D01*
X20662067Y-39742667D01*
X20738257Y-39942667D02*
X20747781Y-39933143D01*
X20766829Y-39904571D01*
X20776352Y-39885524D01*
X20785876Y-39856952D01*
X20795400Y-39809333D01*
X20795400Y-39771238D01*
X20785876Y-39723619D01*
X20776352Y-39695048D01*
X20766829Y-39676000D01*
X20747781Y-39647429D01*
X20738257Y-39637905D01*
M02*
