%FSLAX45Y45*%
G04 Gerber Fmt 4.5, Leading zero omitted, Abs format (unit mm)*
G04 Created by KiCad (PCBNEW (6.0.0-0)) date 2022-09-18 02:58:43*
%MOMM*%
%LPD*%
G01*
G04 APERTURE LIST*
%TA.AperFunction,Profile*%
%ADD10C,0.200000*%
%TD*%
%ADD11C,0.200000*%
G04 APERTURE END LIST*
D10*
X13995400Y-25016000D02*
X19045400Y-25016000D01*
X19045400Y-25016000D02*
X19045400Y-37846000D01*
X19045400Y-37846000D02*
X13995400Y-37846000D01*
X13995400Y-37846000D02*
X13995400Y-25016000D01*
D11*
X14243019Y-38166476D02*
X14243019Y-37966476D01*
X14290638Y-37966476D01*
X14319209Y-37976000D01*
X14338257Y-37995048D01*
X14347781Y-38014095D01*
X14357305Y-38052190D01*
X14357305Y-38080762D01*
X14347781Y-38118857D01*
X14338257Y-38137905D01*
X14319209Y-38156952D01*
X14290638Y-38166476D01*
X14243019Y-38166476D01*
X14443019Y-38166476D02*
X14443019Y-38033143D01*
X14443019Y-38071238D02*
X14452543Y-38052190D01*
X14462067Y-38042667D01*
X14481114Y-38033143D01*
X14500162Y-38033143D01*
X14566828Y-38166476D02*
X14566828Y-38033143D01*
X14566828Y-37966476D02*
X14557305Y-37976000D01*
X14566828Y-37985524D01*
X14576352Y-37976000D01*
X14566828Y-37966476D01*
X14566828Y-37985524D01*
X14690638Y-38166476D02*
X14671590Y-38156952D01*
X14662067Y-38137905D01*
X14662067Y-37966476D01*
X14795400Y-38166476D02*
X14776352Y-38156952D01*
X14766828Y-38137905D01*
X14766828Y-37966476D01*
X15023971Y-38166476D02*
X15023971Y-37966476D01*
X15090638Y-38109333D01*
X15157305Y-37966476D01*
X15157305Y-38166476D01*
X15338257Y-38166476D02*
X15338257Y-38061714D01*
X15328733Y-38042667D01*
X15309686Y-38033143D01*
X15271590Y-38033143D01*
X15252543Y-38042667D01*
X15338257Y-38156952D02*
X15319209Y-38166476D01*
X15271590Y-38166476D01*
X15252543Y-38156952D01*
X15243019Y-38137905D01*
X15243019Y-38118857D01*
X15252543Y-38099810D01*
X15271590Y-38090286D01*
X15319209Y-38090286D01*
X15338257Y-38080762D01*
X15433495Y-38033143D02*
X15433495Y-38233143D01*
X15433495Y-38042667D02*
X15452543Y-38033143D01*
X15490638Y-38033143D01*
X15509686Y-38042667D01*
X15519209Y-38052190D01*
X15528733Y-38071238D01*
X15528733Y-38128381D01*
X15519209Y-38147429D01*
X15509686Y-38156952D01*
X15490638Y-38166476D01*
X15452543Y-38166476D01*
X15433495Y-38156952D01*
X15614448Y-38147429D02*
X15623971Y-38156952D01*
X15614448Y-38166476D01*
X15604924Y-38156952D01*
X15614448Y-38147429D01*
X15614448Y-38166476D01*
X15614448Y-38042667D02*
X15623971Y-38052190D01*
X15614448Y-38061714D01*
X15604924Y-38052190D01*
X15614448Y-38042667D01*
X15614448Y-38061714D01*
M02*
