%TF.GenerationSoftware,KiCad,Pcbnew,(6.0.0-0)*%
%TF.CreationDate,2022-07-11T02:03:33-04:00*%
%TF.ProjectId,daisy_hardware_v1,64616973-795f-4686-9172-64776172655f,rev?*%
%TF.SameCoordinates,Original*%
%TF.FileFunction,Paste,Top*%
%TF.FilePolarity,Positive*%
%FSLAX46Y46*%
G04 Gerber Fmt 4.6, Leading zero omitted, Abs format (unit mm)*
G04 Created by KiCad (PCBNEW (6.0.0-0)) date 2022-07-11 02:03:33*
%MOMM*%
%LPD*%
G01*
G04 APERTURE LIST*
G04 Aperture macros list*
%AMRoundRect*
0 Rectangle with rounded corners*
0 $1 Rounding radius*
0 $2 $3 $4 $5 $6 $7 $8 $9 X,Y pos of 4 corners*
0 Add a 4 corners polygon primitive as box body*
4,1,4,$2,$3,$4,$5,$6,$7,$8,$9,$2,$3,0*
0 Add four circle primitives for the rounded corners*
1,1,$1+$1,$2,$3*
1,1,$1+$1,$4,$5*
1,1,$1+$1,$6,$7*
1,1,$1+$1,$8,$9*
0 Add four rect primitives between the rounded corners*
20,1,$1+$1,$2,$3,$4,$5,0*
20,1,$1+$1,$4,$5,$6,$7,0*
20,1,$1+$1,$6,$7,$8,$9,0*
20,1,$1+$1,$8,$9,$2,$3,0*%
G04 Aperture macros list end*
%ADD10RoundRect,0.250000X0.550000X-1.050000X0.550000X1.050000X-0.550000X1.050000X-0.550000X-1.050000X0*%
%ADD11RoundRect,0.200000X0.275000X-0.200000X0.275000X0.200000X-0.275000X0.200000X-0.275000X-0.200000X0*%
%ADD12RoundRect,0.200000X-0.200000X-0.275000X0.200000X-0.275000X0.200000X0.275000X-0.200000X0.275000X0*%
%ADD13RoundRect,0.225000X0.250000X-0.225000X0.250000X0.225000X-0.250000X0.225000X-0.250000X-0.225000X0*%
%ADD14RoundRect,0.225000X-0.250000X0.225000X-0.250000X-0.225000X0.250000X-0.225000X0.250000X0.225000X0*%
%ADD15RoundRect,0.200000X-0.275000X0.200000X-0.275000X-0.200000X0.275000X-0.200000X0.275000X0.200000X0*%
%ADD16RoundRect,0.250000X-0.550000X1.050000X-0.550000X-1.050000X0.550000X-1.050000X0.550000X1.050000X0*%
%ADD17RoundRect,0.200000X0.200000X0.275000X-0.200000X0.275000X-0.200000X-0.275000X0.200000X-0.275000X0*%
%ADD18RoundRect,0.150000X-0.587500X-0.150000X0.587500X-0.150000X0.587500X0.150000X-0.587500X0.150000X0*%
%ADD19RoundRect,0.225000X-0.225000X-0.250000X0.225000X-0.250000X0.225000X0.250000X-0.225000X0.250000X0*%
%ADD20RoundRect,0.150000X-0.150000X0.587500X-0.150000X-0.587500X0.150000X-0.587500X0.150000X0.587500X0*%
%ADD21RoundRect,0.150000X-0.825000X-0.150000X0.825000X-0.150000X0.825000X0.150000X-0.825000X0.150000X0*%
%ADD22R,1.500000X2.000000*%
%ADD23R,3.800000X2.000000*%
%ADD24RoundRect,0.150000X0.825000X0.150000X-0.825000X0.150000X-0.825000X-0.150000X0.825000X-0.150000X0*%
%ADD25RoundRect,0.250000X1.050000X0.550000X-1.050000X0.550000X-1.050000X-0.550000X1.050000X-0.550000X0*%
%ADD26RoundRect,0.150000X0.150000X-0.825000X0.150000X0.825000X-0.150000X0.825000X-0.150000X-0.825000X0*%
G04 APERTURE END LIST*
D10*
%TO.C,C15*%
X57620000Y-319091000D03*
X57620000Y-315491000D03*
%TD*%
D11*
%TO.C,R22*%
X39556000Y-365841000D03*
X39556000Y-364191000D03*
%TD*%
D12*
%TO.C,R7*%
X63539200Y-366059000D03*
X65189200Y-366059000D03*
%TD*%
D13*
%TO.C,C11*%
X52946800Y-287596000D03*
X52946800Y-286046000D03*
%TD*%
D14*
%TO.C,C10*%
X77377600Y-293896200D03*
X77377600Y-295446200D03*
%TD*%
D15*
%TO.C,R23*%
X45144000Y-364191000D03*
X45144000Y-365841000D03*
%TD*%
D16*
%TO.C,C2*%
X48730000Y-319329800D03*
X48730000Y-322929800D03*
%TD*%
D13*
%TO.C,C12*%
X77580800Y-287572200D03*
X77580800Y-286022200D03*
%TD*%
D15*
%TO.C,R20*%
X45018000Y-346984000D03*
X45018000Y-348634000D03*
%TD*%
%TO.C,R3*%
X67878000Y-369525000D03*
X67878000Y-371175000D03*
%TD*%
D11*
%TO.C,R10*%
X51431000Y-349140000D03*
X51431000Y-347490000D03*
%TD*%
%TO.C,R47*%
X79562000Y-287609000D03*
X79562000Y-285959000D03*
%TD*%
D17*
%TO.C,R4*%
X77847000Y-372128000D03*
X76197000Y-372128000D03*
%TD*%
D15*
%TO.C,R36*%
X64779200Y-290544200D03*
X64779200Y-292194200D03*
%TD*%
D13*
%TO.C,C5*%
X43404800Y-287607400D03*
X43404800Y-286057400D03*
%TD*%
D11*
%TO.C,R19*%
X39176000Y-348697000D03*
X39176000Y-347047000D03*
%TD*%
D15*
%TO.C,R32*%
X55850800Y-293435000D03*
X55850800Y-295085000D03*
%TD*%
D12*
%TO.C,R25*%
X38668200Y-284104800D03*
X40318200Y-284104800D03*
%TD*%
D15*
%TO.C,R31*%
X52955200Y-290294400D03*
X52955200Y-291944400D03*
%TD*%
%TO.C,R37*%
X67979600Y-290544200D03*
X67979600Y-292194200D03*
%TD*%
D13*
%TO.C,C8*%
X67979600Y-287419800D03*
X67979600Y-285869800D03*
%TD*%
D15*
%TO.C,R39*%
X80324000Y-290659000D03*
X80324000Y-292309000D03*
%TD*%
D18*
%TO.C,Q3*%
X41480166Y-355050000D03*
X41480166Y-356950000D03*
X43355166Y-356000000D03*
%TD*%
D15*
%TO.C,R38*%
X64728400Y-293795400D03*
X64728400Y-295445400D03*
%TD*%
%TO.C,R41*%
X80324000Y-293833000D03*
X80324000Y-295483000D03*
%TD*%
%TO.C,R28*%
X43455600Y-290434600D03*
X43455600Y-292084600D03*
%TD*%
D12*
%TO.C,R42*%
X52862600Y-284104800D03*
X54512600Y-284104800D03*
%TD*%
%TO.C,R9*%
X51622000Y-351046000D03*
X53272000Y-351046000D03*
%TD*%
D19*
%TO.C,C14*%
X56210000Y-322371000D03*
X57760000Y-322371000D03*
%TD*%
D14*
%TO.C,C7*%
X52960000Y-293485000D03*
X52960000Y-295035000D03*
%TD*%
D17*
%TO.C,R34*%
X68004000Y-284104800D03*
X66354000Y-284104800D03*
%TD*%
D12*
%TO.C,R21*%
X39684000Y-367556000D03*
X41334000Y-367556000D03*
%TD*%
D10*
%TO.C,C1*%
X48730000Y-313474200D03*
X48730000Y-309874200D03*
%TD*%
D20*
%TO.C,U5*%
X50032000Y-301594500D03*
X48132000Y-301594500D03*
X49082000Y-303469500D03*
%TD*%
D21*
%TO.C,U6*%
X45755800Y-285514000D03*
X45755800Y-286784000D03*
X45755800Y-288054000D03*
X45755800Y-289324000D03*
X45755800Y-290594000D03*
X45755800Y-291864000D03*
X45755800Y-293134000D03*
X50705800Y-293134000D03*
X50705800Y-291864000D03*
X50705800Y-290594000D03*
X50705800Y-289324000D03*
X50705800Y-288054000D03*
X50705800Y-286784000D03*
X50705800Y-285514000D03*
%TD*%
D15*
%TO.C,R11*%
X57273000Y-347364000D03*
X57273000Y-349014000D03*
%TD*%
D12*
%TO.C,R6*%
X63539200Y-367710000D03*
X65189200Y-367710000D03*
%TD*%
D10*
%TO.C,C13*%
X52540000Y-318986000D03*
X52540000Y-315386000D03*
%TD*%
D18*
%TO.C,Q6*%
X41412500Y-364066000D03*
X41412500Y-365966000D03*
X43287500Y-365016000D03*
%TD*%
D22*
%TO.C,U10*%
X58650000Y-324961000D03*
X56350000Y-324961000D03*
X54050000Y-324961000D03*
D23*
X56350000Y-331261000D03*
%TD*%
D15*
%TO.C,R40*%
X77428400Y-290710600D03*
X77428400Y-292360600D03*
%TD*%
D18*
%TO.C,Q2*%
X53463000Y-347368000D03*
X53463000Y-349268000D03*
X55338000Y-348318000D03*
%TD*%
D24*
%TO.C,U3*%
X80005000Y-310279000D03*
X80005000Y-309009000D03*
X80005000Y-307739000D03*
X80005000Y-306469000D03*
X80005000Y-305199000D03*
X80005000Y-303929000D03*
X80005000Y-302659000D03*
X80005000Y-301389000D03*
X75055000Y-301389000D03*
X75055000Y-302659000D03*
X75055000Y-303929000D03*
X75055000Y-305199000D03*
X75055000Y-306469000D03*
X75055000Y-307739000D03*
X75055000Y-309009000D03*
X75055000Y-310279000D03*
%TD*%
D14*
%TO.C,C6*%
X43455600Y-293685000D03*
X43455600Y-295235000D03*
%TD*%
D11*
%TO.C,R44*%
X54670000Y-287646000D03*
X54670000Y-285996000D03*
%TD*%
D21*
%TO.C,U4*%
X58799000Y-301135000D03*
X58799000Y-302405000D03*
X58799000Y-303675000D03*
X58799000Y-304945000D03*
X58799000Y-306215000D03*
X58799000Y-307485000D03*
X58799000Y-308755000D03*
X58799000Y-310025000D03*
X63749000Y-310025000D03*
X63749000Y-308755000D03*
X63749000Y-307485000D03*
X63749000Y-306215000D03*
X63749000Y-304945000D03*
X63749000Y-303675000D03*
X63749000Y-302405000D03*
X63749000Y-301135000D03*
%TD*%
D19*
%TO.C,C4*%
X49564000Y-306596000D03*
X51114000Y-306596000D03*
%TD*%
D11*
%TO.C,R26*%
X41716000Y-287607400D03*
X41716000Y-285957400D03*
%TD*%
D25*
%TO.C,C3*%
X44107200Y-330549800D03*
X40507200Y-330549800D03*
%TD*%
D11*
%TO.C,R13*%
X39430000Y-356825000D03*
X39430000Y-355175000D03*
%TD*%
D18*
%TO.C,Q5*%
X41111000Y-346922000D03*
X41111000Y-348822000D03*
X42986000Y-347872000D03*
%TD*%
D17*
%TO.C,R43*%
X57687600Y-284104800D03*
X56037600Y-284104800D03*
%TD*%
D12*
%TO.C,R46*%
X77580800Y-284104800D03*
X79230800Y-284104800D03*
%TD*%
D15*
%TO.C,R14*%
X45272000Y-355238000D03*
X45272000Y-356888000D03*
%TD*%
%TO.C,R2*%
X77784000Y-368700000D03*
X77784000Y-370350000D03*
%TD*%
D24*
%TO.C,U2*%
X75433000Y-370223000D03*
X75433000Y-368953000D03*
X75433000Y-367683000D03*
X75433000Y-366413000D03*
X70483000Y-366413000D03*
X70483000Y-367683000D03*
X70483000Y-368953000D03*
X70483000Y-370223000D03*
%TD*%
D15*
%TO.C,R29*%
X40560000Y-293635000D03*
X40560000Y-295285000D03*
%TD*%
D14*
%TO.C,C9*%
X67878000Y-293845400D03*
X67878000Y-295395400D03*
%TD*%
D15*
%TO.C,R30*%
X55850800Y-290294400D03*
X55850800Y-291944400D03*
%TD*%
D26*
%TO.C,U8*%
X52765000Y-360379000D03*
X54035000Y-360379000D03*
X55305000Y-360379000D03*
X56575000Y-360379000D03*
X56575000Y-355429000D03*
X55305000Y-355429000D03*
X54035000Y-355429000D03*
X52765000Y-355429000D03*
%TD*%
D12*
%TO.C,R18*%
X39304000Y-350412000D03*
X40954000Y-350412000D03*
%TD*%
%TO.C,R5*%
X46225000Y-306596000D03*
X47875000Y-306596000D03*
%TD*%
D11*
%TO.C,R35*%
X66049200Y-287469800D03*
X66049200Y-285819800D03*
%TD*%
D15*
%TO.C,R27*%
X40560000Y-290434600D03*
X40560000Y-292084600D03*
%TD*%
D21*
%TO.C,U7*%
X70292000Y-285514000D03*
X70292000Y-286784000D03*
X70292000Y-288054000D03*
X70292000Y-289324000D03*
X70292000Y-290594000D03*
X70292000Y-291864000D03*
X70292000Y-293134000D03*
X75242000Y-293134000D03*
X75242000Y-291864000D03*
X75242000Y-290594000D03*
X75242000Y-289324000D03*
X75242000Y-288054000D03*
X75242000Y-286784000D03*
X75242000Y-285514000D03*
%TD*%
D15*
%TO.C,R1*%
X67878000Y-366286000D03*
X67878000Y-367936000D03*
%TD*%
D17*
%TO.C,R45*%
X82380400Y-284104800D03*
X80730400Y-284104800D03*
%TD*%
%TO.C,R24*%
X43571800Y-284104800D03*
X41921800Y-284104800D03*
%TD*%
D12*
%TO.C,R12*%
X39558000Y-358540000D03*
X41208000Y-358540000D03*
%TD*%
%TO.C,R33*%
X63090600Y-284104800D03*
X64740600Y-284104800D03*
%TD*%
M02*
