M48
; DRILL file {KiCad (6.0.0-0)} date Monday, July 11, 2022 at 02:04:18 am
; FORMAT={-:-/ absolute / metric / decimal}
; #@! TF.CreationDate,2022-07-11T02:04:18-04:00
; #@! TF.GenerationSoftware,Kicad,Pcbnew,(6.0.0-0)
; #@! TF.FileFunction,NonPlated,1,4,NPTH
FMAT,2
METRIC
; #@! TA.AperFunction,NonPlated,NPTH,ComponentDrill
T1C3.300
; #@! TA.AperFunction,NonPlated,NPTH,ComponentDrill
T2C5.000
; #@! TA.AperFunction,NonPlated,NPTH,ComponentDrill
T3C6.200
; #@! TA.AperFunction,NonPlated,NPTH,ComponentDrill
T4C7.200
%
G90
G05
T2
X152.019Y-332.022
X178.054Y-332.53
T3
X145.923Y-343.579
X145.923Y-357.651
X158.775Y-343.579
X158.801Y-357.651
X159.813Y-306.266
X159.817Y-290.442
X159.817Y-322.116
X159.842Y-274.618
X170.383Y-274.593
X170.383Y-290.442
X170.383Y-306.292
X170.383Y-322.116
X171.653Y-343.579
X171.653Y-357.651
X184.506Y-343.579
X184.506Y-357.651
T4
X147.32Y-275.514
X147.32Y-291.262
X147.32Y-307.137
X147.32Y-323.012
X182.88Y-275.507
X182.88Y-291.255
X182.88Y-307.13
X182.88Y-323.005
T1
X143.143Y-253.31G85X147.843Y-253.31
G05
X143.243Y-375.481G85X147.943Y-375.481
G05
X182.519Y-253.31G85X187.219Y-253.31
G05
X182.619Y-375.481G85X187.319Y-375.481
G05
T0
M30
