%FSLAX45Y45*%
G04 Gerber Fmt 4.5, Leading zero omitted, Abs format (unit mm)*
G04 Created by KiCad (PCBNEW (6.0.0-0)) date 2022-07-11 02:04:20*
%MOMM*%
%LPD*%
G01*
G04 APERTURE LIST*
%TA.AperFunction,Profile*%
%ADD10C,0.200000*%
%TD*%
%ADD11C,0.200000*%
%ADD12C,0.040000*%
%ADD13C,0.050000*%
%ADD14C,0.060000*%
%ADD15C,0.076200*%
%ADD16C,0.100000*%
%ADD17C,0.180000*%
G04 APERTURE END LIST*
D10*
X8817600Y-27251080D02*
X13817600Y-27251080D01*
X13817600Y-27251080D02*
X13817600Y-37851080D01*
X13817600Y-37851080D02*
X8817600Y-37851080D01*
X8817600Y-37851080D02*
X8817600Y-27251080D01*
X13995400Y-25016000D02*
X19045400Y-25016000D01*
X19045400Y-25016000D02*
X19045400Y-37846000D01*
X19045400Y-37846000D02*
X13995400Y-37846000D01*
X13995400Y-37846000D02*
X13995400Y-25016000D01*
X3556000Y-27246000D02*
X8556000Y-27246000D01*
X8556000Y-27246000D02*
X8556000Y-37846000D01*
X8556000Y-37846000D02*
X3556000Y-37846000D01*
X3556000Y-37846000D02*
X3556000Y-27246000D01*
D11*
D12*
X3791280Y-33052760D02*
X3831280Y-33092760D01*
X3831280Y-33052760D02*
X3791280Y-33092760D01*
X3938600Y-33692840D02*
X3978600Y-33732840D01*
X3978600Y-33692840D02*
X3938600Y-33732840D01*
X3948400Y-28988600D02*
X3988400Y-29028600D01*
X3988400Y-28988600D02*
X3948400Y-29028600D01*
X4091000Y-37119300D02*
X4131000Y-37159300D01*
X4131000Y-37119300D02*
X4091000Y-37159300D01*
X4126200Y-35922800D02*
X4166200Y-35962800D01*
X4166200Y-35922800D02*
X4126200Y-35962800D01*
X4151600Y-35084600D02*
X4191600Y-35124600D01*
X4191600Y-35084600D02*
X4151600Y-35124600D01*
X4151600Y-36786400D02*
X4191600Y-36826400D01*
X4191600Y-36786400D02*
X4151600Y-36826400D01*
X4329400Y-28912400D02*
X4369400Y-28952400D01*
X4369400Y-28912400D02*
X4329400Y-28952400D01*
X4456400Y-28379000D02*
X4496400Y-28419000D01*
X4496400Y-28379000D02*
X4456400Y-28419000D01*
X4507200Y-35417600D02*
X4547200Y-35457600D01*
X4547200Y-35417600D02*
X4507200Y-35457600D01*
X4532600Y-34906800D02*
X4572600Y-34946800D01*
X4572600Y-34906800D02*
X4532600Y-34946800D01*
X4532600Y-35745000D02*
X4572600Y-35785000D01*
X4572600Y-35745000D02*
X4532600Y-35785000D01*
X4558000Y-36634000D02*
X4598000Y-36674000D01*
X4598000Y-36634000D02*
X4558000Y-36674000D01*
X4631400Y-28810800D02*
X4671400Y-28850800D01*
X4671400Y-28810800D02*
X4631400Y-28850800D01*
X4631400Y-29064800D02*
X4671400Y-29104800D01*
X4671400Y-29064800D02*
X4631400Y-29104800D01*
X4634200Y-36380000D02*
X4674200Y-36420000D01*
X4674200Y-36380000D02*
X4634200Y-36420000D01*
X4662500Y-32407600D02*
X4702500Y-32447600D01*
X4702500Y-32407600D02*
X4662500Y-32447600D01*
X4710400Y-28582200D02*
X4750400Y-28622200D01*
X4750400Y-28582200D02*
X4710400Y-28622200D01*
X4726000Y-31455100D02*
X4766000Y-31495100D01*
X4766000Y-31455100D02*
X4726000Y-31495100D01*
X4786600Y-29649000D02*
X4826600Y-29689000D01*
X4826600Y-29649000D02*
X4786600Y-29689000D01*
X4853000Y-31912980D02*
X4893000Y-31952980D01*
X4893000Y-31912980D02*
X4853000Y-31952980D01*
X4862800Y-28607600D02*
X4902800Y-28647600D01*
X4902800Y-28607600D02*
X4862800Y-28647600D01*
X4939000Y-35414800D02*
X4979000Y-35454800D01*
X4979000Y-35414800D02*
X4939000Y-35454800D01*
X4941800Y-28785400D02*
X4981800Y-28825400D01*
X4981800Y-28785400D02*
X4941800Y-28825400D01*
X4941800Y-28912400D02*
X4981800Y-28952400D01*
X4981800Y-28912400D02*
X4941800Y-28952400D01*
X4941800Y-29039400D02*
X4981800Y-29079400D01*
X4981800Y-29039400D02*
X4941800Y-29079400D01*
X5116800Y-35567200D02*
X5156800Y-35607200D01*
X5156800Y-35567200D02*
X5116800Y-35607200D01*
X5167600Y-28379000D02*
X5207600Y-28419000D01*
X5207600Y-28379000D02*
X5167600Y-28419000D01*
X5167600Y-30614200D02*
X5207600Y-30654200D01*
X5207600Y-30614200D02*
X5167600Y-30654200D01*
X5475200Y-35222218D02*
X5515200Y-35262218D01*
X5515200Y-35222218D02*
X5475200Y-35262218D01*
X5548600Y-29903000D02*
X5588600Y-29943000D01*
X5588600Y-29903000D02*
X5548600Y-29943000D01*
X5548600Y-35872000D02*
X5588600Y-35912000D01*
X5588600Y-35872000D02*
X5548600Y-35912000D01*
X5624800Y-28277400D02*
X5664800Y-28317400D01*
X5664800Y-28277400D02*
X5624800Y-28317400D01*
X5624800Y-28963200D02*
X5664800Y-29003200D01*
X5664800Y-28963200D02*
X5624800Y-29003200D01*
X5650200Y-30385600D02*
X5690200Y-30425600D01*
X5690200Y-30385600D02*
X5650200Y-30425600D01*
X5675600Y-35033800D02*
X5715600Y-35073800D01*
X5715600Y-35033800D02*
X5675600Y-35073800D01*
X5701000Y-30233200D02*
X5741000Y-30273200D01*
X5741000Y-30233200D02*
X5701000Y-30273200D01*
X5701000Y-30741200D02*
X5741000Y-30781200D01*
X5741000Y-30741200D02*
X5701000Y-30781200D01*
X5701000Y-30868200D02*
X5741000Y-30908200D01*
X5741000Y-30868200D02*
X5701000Y-30908200D01*
X5701000Y-30995200D02*
X5741000Y-31035200D01*
X5741000Y-30995200D02*
X5701000Y-31035200D01*
X5736920Y-35976300D02*
X5776920Y-36016300D01*
X5776920Y-35976300D02*
X5736920Y-36016300D01*
X5742000Y-31889100D02*
X5782000Y-31929100D01*
X5782000Y-31889100D02*
X5742000Y-31929100D01*
X5777200Y-35516400D02*
X5817200Y-35556400D01*
X5817200Y-35516400D02*
X5777200Y-35556400D01*
X5899748Y-36090600D02*
X5939748Y-36130600D01*
X5939748Y-36090600D02*
X5899748Y-36130600D01*
X6031200Y-30385600D02*
X6071200Y-30425600D01*
X6071200Y-30385600D02*
X6031200Y-30425600D01*
X6079200Y-29928400D02*
X6119200Y-29968400D01*
X6119200Y-29928400D02*
X6079200Y-29968400D01*
X6194120Y-36692580D02*
X6234120Y-36732580D01*
X6234120Y-36692580D02*
X6194120Y-36732580D01*
X6199200Y-31864040D02*
X6239200Y-31904040D01*
X6239200Y-31864040D02*
X6199200Y-31904040D01*
X6303340Y-31180780D02*
X6343340Y-31220780D01*
X6343340Y-31180780D02*
X6303340Y-31220780D01*
X6313500Y-28483300D02*
X6353500Y-28523300D01*
X6353500Y-28483300D02*
X6313500Y-28523300D01*
X6326200Y-29054800D02*
X6366200Y-29094800D01*
X6366200Y-29054800D02*
X6326200Y-29094800D01*
X6354900Y-30093500D02*
X6394900Y-30133500D01*
X6394900Y-30093500D02*
X6354900Y-30133500D01*
X6640800Y-28912400D02*
X6680800Y-28952400D01*
X6680800Y-28912400D02*
X6640800Y-28952400D01*
X6742400Y-28305600D02*
X6782400Y-28345600D01*
X6782400Y-28305600D02*
X6742400Y-28345600D01*
X6762738Y-35155739D02*
X6802738Y-35195739D01*
X6802738Y-35155739D02*
X6762738Y-35195739D01*
X6767800Y-36608600D02*
X6807800Y-36648600D01*
X6807800Y-36608600D02*
X6767800Y-36648600D01*
X6793200Y-28861600D02*
X6833200Y-28901600D01*
X6833200Y-28861600D02*
X6793200Y-28901600D01*
X6920200Y-34906800D02*
X6960200Y-34946800D01*
X6960200Y-34906800D02*
X6920200Y-34946800D01*
X6945600Y-37319800D02*
X6985600Y-37359800D01*
X6985600Y-37319800D02*
X6945600Y-37359800D01*
X6948500Y-28788100D02*
X6988500Y-28828100D01*
X6988500Y-28788100D02*
X6948500Y-28828100D01*
X6948500Y-29042100D02*
X6988500Y-29082100D01*
X6988500Y-29042100D02*
X6948500Y-29082100D01*
X6973900Y-36077900D02*
X7013900Y-36117900D01*
X7013900Y-36077900D02*
X6973900Y-36117900D01*
X7326600Y-36481600D02*
X7366600Y-36521600D01*
X7366600Y-36481600D02*
X7326600Y-36521600D01*
X7485500Y-30499900D02*
X7525500Y-30539900D01*
X7525500Y-30499900D02*
X7485500Y-30539900D01*
X7485500Y-30626900D02*
X7525500Y-30666900D01*
X7525500Y-30626900D02*
X7485500Y-30666900D01*
X7485500Y-30753900D02*
X7525500Y-30793900D01*
X7525500Y-30753900D02*
X7485500Y-30793900D01*
X7485500Y-30880900D02*
X7525500Y-30920900D01*
X7525500Y-30880900D02*
X7485500Y-30920900D01*
X7485500Y-31007900D02*
X7525500Y-31047900D01*
X7525500Y-31007900D02*
X7485500Y-31047900D01*
X7570800Y-28788100D02*
X7610800Y-28828100D01*
X7610800Y-28788100D02*
X7570800Y-28828100D01*
X7570800Y-29042100D02*
X7610800Y-29082100D01*
X7610800Y-29042100D02*
X7570800Y-29082100D01*
X7758400Y-36850000D02*
X7798400Y-36890000D01*
X7798400Y-36850000D02*
X7758400Y-36890000D01*
X7980500Y-30499900D02*
X8020500Y-30539900D01*
X8020500Y-30499900D02*
X7980500Y-30539900D01*
X7980500Y-30626900D02*
X8020500Y-30666900D01*
X8020500Y-30626900D02*
X7980500Y-30666900D01*
X8111200Y-28927800D02*
X8151200Y-28967800D01*
X8151200Y-28927800D02*
X8111200Y-28967800D01*
X8269200Y-28912400D02*
X8309200Y-28952400D01*
X8309200Y-28912400D02*
X8269200Y-28952400D01*
X10203500Y-29850400D02*
X10243500Y-29890400D01*
X10243500Y-29850400D02*
X10203500Y-29890400D01*
X10292400Y-31813800D02*
X10332400Y-31853800D01*
X10332400Y-31813800D02*
X10292400Y-31853800D01*
X10343200Y-28123200D02*
X10383200Y-28163200D01*
X10383200Y-28123200D02*
X10343200Y-28163200D01*
X11283000Y-29215400D02*
X11323000Y-29255400D01*
X11323000Y-29215400D02*
X11283000Y-29255400D01*
X11448100Y-37279900D02*
X11488100Y-37319900D01*
X11488100Y-37279900D02*
X11448100Y-37319900D01*
X11486200Y-28859800D02*
X11526200Y-28899800D01*
X11526200Y-28859800D02*
X11486200Y-28899800D01*
X11573811Y-29226811D02*
X11613811Y-29266811D01*
X11613811Y-29226811D02*
X11573811Y-29266811D01*
X12121200Y-28897900D02*
X12161200Y-28937900D01*
X12161200Y-28897900D02*
X12121200Y-28937900D01*
X12311700Y-28008900D02*
X12351700Y-28048900D01*
X12351700Y-28008900D02*
X12311700Y-28048900D01*
X12314500Y-28364500D02*
X12354500Y-28404500D01*
X12354500Y-28364500D02*
X12314500Y-28404500D01*
X12337100Y-35908300D02*
X12377100Y-35948300D01*
X12377100Y-35908300D02*
X12337100Y-35948300D01*
X12349800Y-36251200D02*
X12389800Y-36291200D01*
X12389800Y-36251200D02*
X12349800Y-36291200D01*
X12530400Y-36073400D02*
X12570400Y-36113400D01*
X12570400Y-36073400D02*
X12530400Y-36113400D01*
X12629200Y-37165600D02*
X12669200Y-37205600D01*
X12669200Y-37165600D02*
X12629200Y-37205600D01*
X13469940Y-36065780D02*
X13509940Y-36105780D01*
X13509940Y-36065780D02*
X13469940Y-36105780D01*
X13678220Y-37485640D02*
X13718220Y-37525640D01*
X13718220Y-37485640D02*
X13678220Y-37525640D01*
D13*
X9423000Y-35884450D02*
G75*
G03*
X9423000Y-35884450I-25000J0D01*
G01*
D11*
X9448000Y-35869450D02*
X9348000Y-35869450D01*
X9448000Y-35899450D02*
X9348000Y-35899450D01*
X9348000Y-35869450D02*
G75*
G03*
X9348000Y-35899450I0J-15000D01*
G01*
X9448000Y-35899450D02*
G75*
G03*
X9448000Y-35869450I0J15000D01*
G01*
D13*
X9423000Y-37271200D02*
G75*
G03*
X9423000Y-37271200I-25000J0D01*
G01*
D11*
X9448000Y-37256200D02*
X9348000Y-37256200D01*
X9448000Y-37286200D02*
X9348000Y-37286200D01*
X9348000Y-37256200D02*
G75*
G03*
X9348000Y-37286200I0J-15000D01*
G01*
X9448000Y-37286200D02*
G75*
G03*
X9448000Y-37256200I0J15000D01*
G01*
D13*
X10709933Y-35861500D02*
G75*
G03*
X10709933Y-35861500I-25000J0D01*
G01*
D11*
X10734933Y-35846500D02*
X10634933Y-35846500D01*
X10734933Y-35876500D02*
X10634933Y-35876500D01*
X10634933Y-35846500D02*
G75*
G03*
X10634933Y-35876500I0J-15000D01*
G01*
X10734933Y-35876500D02*
G75*
G03*
X10734933Y-35846500I0J15000D01*
G01*
D13*
X10709933Y-37271200D02*
G75*
G03*
X10709933Y-37271200I-25000J0D01*
G01*
D11*
X10734933Y-37256200D02*
X10634933Y-37256200D01*
X10734933Y-37286200D02*
X10634933Y-37286200D01*
X10634933Y-37256200D02*
G75*
G03*
X10634933Y-37286200I0J-15000D01*
G01*
X10734933Y-37286200D02*
G75*
G03*
X10734933Y-37256200I0J15000D01*
G01*
D13*
X10812033Y-28964400D02*
G75*
G03*
X10812033Y-28964400I-25000J0D01*
G01*
D11*
X10837033Y-28949400D02*
X10737033Y-28949400D01*
X10837033Y-28979400D02*
X10737033Y-28979400D01*
X10737033Y-28949400D02*
G75*
G03*
X10737033Y-28979400I0J-15000D01*
G01*
X10837033Y-28979400D02*
G75*
G03*
X10837033Y-28949400I0J15000D01*
G01*
D13*
X10812033Y-30548000D02*
G75*
G03*
X10812033Y-30548000I-25000J0D01*
G01*
D11*
X10837033Y-30533000D02*
X10737033Y-30533000D01*
X10837033Y-30563000D02*
X10737033Y-30563000D01*
X10737033Y-30533000D02*
G75*
G03*
X10737033Y-30563000I0J-15000D01*
G01*
X10837033Y-30563000D02*
G75*
G03*
X10837033Y-30533000I0J15000D01*
G01*
D13*
X10812033Y-32131600D02*
G75*
G03*
X10812033Y-32131600I-25000J0D01*
G01*
D11*
X10837033Y-32116600D02*
X10737033Y-32116600D01*
X10837033Y-32146600D02*
X10737033Y-32146600D01*
X10737033Y-32116600D02*
G75*
G03*
X10737033Y-32146600I0J-15000D01*
G01*
X10837033Y-32146600D02*
G75*
G03*
X10837033Y-32116600I0J15000D01*
G01*
D13*
X10812033Y-33715200D02*
G75*
G03*
X10812033Y-33715200I-25000J0D01*
G01*
D11*
X10837033Y-33700200D02*
X10737033Y-33700200D01*
X10837033Y-33730200D02*
X10737033Y-33730200D01*
X10737033Y-33700200D02*
G75*
G03*
X10737033Y-33730200I0J-15000D01*
G01*
X10837033Y-33730200D02*
G75*
G03*
X10837033Y-33700200I0J15000D01*
G01*
D13*
X11869367Y-28964400D02*
G75*
G03*
X11869367Y-28964400I-25000J0D01*
G01*
D11*
X11894367Y-28949400D02*
X11794367Y-28949400D01*
X11894367Y-28979400D02*
X11794367Y-28979400D01*
X11794367Y-28949400D02*
G75*
G03*
X11794367Y-28979400I0J-15000D01*
G01*
X11894367Y-28979400D02*
G75*
G03*
X11894367Y-28949400I0J15000D01*
G01*
D13*
X11869367Y-30548000D02*
G75*
G03*
X11869367Y-30548000I-25000J0D01*
G01*
D11*
X11894367Y-30533000D02*
X11794367Y-30533000D01*
X11894367Y-30563000D02*
X11794367Y-30563000D01*
X11794367Y-30533000D02*
G75*
G03*
X11794367Y-30563000I0J-15000D01*
G01*
X11894367Y-30563000D02*
G75*
G03*
X11894367Y-30533000I0J15000D01*
G01*
D13*
X11869367Y-32131600D02*
G75*
G03*
X11869367Y-32131600I-25000J0D01*
G01*
D11*
X11894367Y-32116600D02*
X11794367Y-32116600D01*
X11894367Y-32146600D02*
X11794367Y-32146600D01*
X11794367Y-32116600D02*
G75*
G03*
X11794367Y-32146600I0J-15000D01*
G01*
X11894367Y-32146600D02*
G75*
G03*
X11894367Y-32116600I0J15000D01*
G01*
D13*
X11869367Y-33715200D02*
G75*
G03*
X11869367Y-33715200I-25000J0D01*
G01*
D11*
X11894367Y-33700200D02*
X11794367Y-33700200D01*
X11894367Y-33730200D02*
X11794367Y-33730200D01*
X11794367Y-33700200D02*
G75*
G03*
X11794367Y-33730200I0J-15000D01*
G01*
X11894367Y-33730200D02*
G75*
G03*
X11894367Y-33700200I0J15000D01*
G01*
D13*
X11996867Y-35861500D02*
G75*
G03*
X11996867Y-35861500I-25000J0D01*
G01*
D11*
X12021867Y-35846500D02*
X11921867Y-35846500D01*
X12021867Y-35876500D02*
X11921867Y-35876500D01*
X11921867Y-35846500D02*
G75*
G03*
X11921867Y-35876500I0J-15000D01*
G01*
X12021867Y-35876500D02*
G75*
G03*
X12021867Y-35846500I0J15000D01*
G01*
D13*
X11996867Y-37271200D02*
G75*
G03*
X11996867Y-37271200I-25000J0D01*
G01*
D11*
X12021867Y-37256200D02*
X11921867Y-37256200D01*
X12021867Y-37286200D02*
X11921867Y-37286200D01*
X11921867Y-37256200D02*
G75*
G03*
X11921867Y-37286200I0J-15000D01*
G01*
X12021867Y-37286200D02*
G75*
G03*
X12021867Y-37256200I0J15000D01*
G01*
D13*
X13283800Y-35861500D02*
G75*
G03*
X13283800Y-35861500I-25000J0D01*
G01*
D11*
X13308800Y-35846500D02*
X13208800Y-35846500D01*
X13308800Y-35876500D02*
X13208800Y-35876500D01*
X13208800Y-35846500D02*
G75*
G03*
X13208800Y-35876500I0J-15000D01*
G01*
X13308800Y-35876500D02*
G75*
G03*
X13308800Y-35846500I0J15000D01*
G01*
D13*
X13283800Y-37271200D02*
G75*
G03*
X13283800Y-37271200I-25000J0D01*
G01*
D11*
X13308800Y-37256200D02*
X13208800Y-37256200D01*
X13308800Y-37286200D02*
X13208800Y-37286200D01*
X13208800Y-37256200D02*
G75*
G03*
X13208800Y-37286200I0J-15000D01*
G01*
X13308800Y-37286200D02*
G75*
G03*
X13308800Y-37256200I0J15000D01*
G01*
D14*
X9398000Y-34714450D02*
X9398000Y-34774450D01*
X9368000Y-34744450D02*
X9428000Y-34744450D01*
D11*
X9433000Y-34724450D02*
X9363000Y-34724450D01*
X9433000Y-34764450D02*
X9363000Y-34764450D01*
X9363000Y-34724450D02*
G75*
G03*
X9363000Y-34764450I0J-20000D01*
G01*
X9433000Y-34764450D02*
G75*
G03*
X9433000Y-34724450I0J20000D01*
G01*
D14*
X9398000Y-35024450D02*
X9398000Y-35084450D01*
X9368000Y-35054450D02*
X9428000Y-35054450D01*
D11*
X9443000Y-35034450D02*
X9353000Y-35034450D01*
X9443000Y-35074450D02*
X9353000Y-35074450D01*
X9353000Y-35034450D02*
G75*
G03*
X9353000Y-35074450I0J-20000D01*
G01*
X9443000Y-35074450D02*
G75*
G03*
X9443000Y-35034450I0J20000D01*
G01*
D14*
X9398000Y-36101200D02*
X9398000Y-36161200D01*
X9368000Y-36131200D02*
X9428000Y-36131200D01*
D11*
X9433000Y-36111200D02*
X9363000Y-36111200D01*
X9433000Y-36151200D02*
X9363000Y-36151200D01*
X9363000Y-36111200D02*
G75*
G03*
X9363000Y-36151200I0J-20000D01*
G01*
X9433000Y-36151200D02*
G75*
G03*
X9433000Y-36111200I0J20000D01*
G01*
D14*
X9398000Y-36411200D02*
X9398000Y-36471200D01*
X9368000Y-36441200D02*
X9428000Y-36441200D01*
D11*
X9443000Y-36421200D02*
X9353000Y-36421200D01*
X9443000Y-36461200D02*
X9353000Y-36461200D01*
X9353000Y-36421200D02*
G75*
G03*
X9353000Y-36461200I0J-20000D01*
G01*
X9443000Y-36461200D02*
G75*
G03*
X9443000Y-36421200I0J20000D01*
G01*
D14*
X10684933Y-34691500D02*
X10684933Y-34751500D01*
X10654933Y-34721500D02*
X10714933Y-34721500D01*
D11*
X10719933Y-34701500D02*
X10649933Y-34701500D01*
X10719933Y-34741500D02*
X10649933Y-34741500D01*
X10649933Y-34701500D02*
G75*
G03*
X10649933Y-34741500I0J-20000D01*
G01*
X10719933Y-34741500D02*
G75*
G03*
X10719933Y-34701500I0J20000D01*
G01*
D14*
X10684933Y-35001500D02*
X10684933Y-35061500D01*
X10654933Y-35031500D02*
X10714933Y-35031500D01*
D11*
X10729933Y-35011500D02*
X10639933Y-35011500D01*
X10729933Y-35051500D02*
X10639933Y-35051500D01*
X10639933Y-35011500D02*
G75*
G03*
X10639933Y-35051500I0J-20000D01*
G01*
X10729933Y-35051500D02*
G75*
G03*
X10729933Y-35011500I0J20000D01*
G01*
D14*
X10684933Y-36101200D02*
X10684933Y-36161200D01*
X10654933Y-36131200D02*
X10714933Y-36131200D01*
D11*
X10719933Y-36111200D02*
X10649933Y-36111200D01*
X10719933Y-36151200D02*
X10649933Y-36151200D01*
X10649933Y-36111200D02*
G75*
G03*
X10649933Y-36151200I0J-20000D01*
G01*
X10719933Y-36151200D02*
G75*
G03*
X10719933Y-36111200I0J20000D01*
G01*
D14*
X10684933Y-36411200D02*
X10684933Y-36471200D01*
X10654933Y-36441200D02*
X10714933Y-36441200D01*
D11*
X10729933Y-36421200D02*
X10639933Y-36421200D01*
X10729933Y-36461200D02*
X10639933Y-36461200D01*
X10639933Y-36421200D02*
G75*
G03*
X10639933Y-36461200I0J-20000D01*
G01*
X10729933Y-36461200D02*
G75*
G03*
X10729933Y-36421200I0J20000D01*
G01*
D14*
X10787033Y-27794400D02*
X10787033Y-27854400D01*
X10757033Y-27824400D02*
X10817033Y-27824400D01*
D11*
X10822033Y-27804400D02*
X10752033Y-27804400D01*
X10822033Y-27844400D02*
X10752033Y-27844400D01*
X10752033Y-27804400D02*
G75*
G03*
X10752033Y-27844400I0J-20000D01*
G01*
X10822033Y-27844400D02*
G75*
G03*
X10822033Y-27804400I0J20000D01*
G01*
D14*
X10787033Y-28104400D02*
X10787033Y-28164400D01*
X10757033Y-28134400D02*
X10817033Y-28134400D01*
D11*
X10832033Y-28114400D02*
X10742033Y-28114400D01*
X10832033Y-28154400D02*
X10742033Y-28154400D01*
X10742033Y-28114400D02*
G75*
G03*
X10742033Y-28154400I0J-20000D01*
G01*
X10832033Y-28154400D02*
G75*
G03*
X10832033Y-28114400I0J20000D01*
G01*
D14*
X10787033Y-29378000D02*
X10787033Y-29438000D01*
X10757033Y-29408000D02*
X10817033Y-29408000D01*
D11*
X10822033Y-29388000D02*
X10752033Y-29388000D01*
X10822033Y-29428000D02*
X10752033Y-29428000D01*
X10752033Y-29388000D02*
G75*
G03*
X10752033Y-29428000I0J-20000D01*
G01*
X10822033Y-29428000D02*
G75*
G03*
X10822033Y-29388000I0J20000D01*
G01*
D14*
X10787033Y-29688000D02*
X10787033Y-29748000D01*
X10757033Y-29718000D02*
X10817033Y-29718000D01*
D11*
X10832033Y-29698000D02*
X10742033Y-29698000D01*
X10832033Y-29738000D02*
X10742033Y-29738000D01*
X10742033Y-29698000D02*
G75*
G03*
X10742033Y-29738000I0J-20000D01*
G01*
X10832033Y-29738000D02*
G75*
G03*
X10832033Y-29698000I0J20000D01*
G01*
D14*
X10787033Y-30961600D02*
X10787033Y-31021600D01*
X10757033Y-30991600D02*
X10817033Y-30991600D01*
D11*
X10822033Y-30971600D02*
X10752033Y-30971600D01*
X10822033Y-31011600D02*
X10752033Y-31011600D01*
X10752033Y-30971600D02*
G75*
G03*
X10752033Y-31011600I0J-20000D01*
G01*
X10822033Y-31011600D02*
G75*
G03*
X10822033Y-30971600I0J20000D01*
G01*
D14*
X10787033Y-31271600D02*
X10787033Y-31331600D01*
X10757033Y-31301600D02*
X10817033Y-31301600D01*
D11*
X10832033Y-31281600D02*
X10742033Y-31281600D01*
X10832033Y-31321600D02*
X10742033Y-31321600D01*
X10742033Y-31281600D02*
G75*
G03*
X10742033Y-31321600I0J-20000D01*
G01*
X10832033Y-31321600D02*
G75*
G03*
X10832033Y-31281600I0J20000D01*
G01*
D14*
X10787033Y-32545200D02*
X10787033Y-32605200D01*
X10757033Y-32575200D02*
X10817033Y-32575200D01*
D11*
X10822033Y-32555200D02*
X10752033Y-32555200D01*
X10822033Y-32595200D02*
X10752033Y-32595200D01*
X10752033Y-32555200D02*
G75*
G03*
X10752033Y-32595200I0J-20000D01*
G01*
X10822033Y-32595200D02*
G75*
G03*
X10822033Y-32555200I0J20000D01*
G01*
D14*
X10787033Y-32855200D02*
X10787033Y-32915200D01*
X10757033Y-32885200D02*
X10817033Y-32885200D01*
D11*
X10832033Y-32865200D02*
X10742033Y-32865200D01*
X10832033Y-32905200D02*
X10742033Y-32905200D01*
X10742033Y-32865200D02*
G75*
G03*
X10742033Y-32905200I0J-20000D01*
G01*
X10832033Y-32905200D02*
G75*
G03*
X10832033Y-32865200I0J20000D01*
G01*
D14*
X11844367Y-27794400D02*
X11844367Y-27854400D01*
X11814367Y-27824400D02*
X11874367Y-27824400D01*
D11*
X11879367Y-27804400D02*
X11809367Y-27804400D01*
X11879367Y-27844400D02*
X11809367Y-27844400D01*
X11809367Y-27804400D02*
G75*
G03*
X11809367Y-27844400I0J-20000D01*
G01*
X11879367Y-27844400D02*
G75*
G03*
X11879367Y-27804400I0J20000D01*
G01*
D14*
X11844367Y-28104400D02*
X11844367Y-28164400D01*
X11814367Y-28134400D02*
X11874367Y-28134400D01*
D11*
X11889367Y-28114400D02*
X11799367Y-28114400D01*
X11889367Y-28154400D02*
X11799367Y-28154400D01*
X11799367Y-28114400D02*
G75*
G03*
X11799367Y-28154400I0J-20000D01*
G01*
X11889367Y-28154400D02*
G75*
G03*
X11889367Y-28114400I0J20000D01*
G01*
D14*
X11844367Y-29378000D02*
X11844367Y-29438000D01*
X11814367Y-29408000D02*
X11874367Y-29408000D01*
D11*
X11879367Y-29388000D02*
X11809367Y-29388000D01*
X11879367Y-29428000D02*
X11809367Y-29428000D01*
X11809367Y-29388000D02*
G75*
G03*
X11809367Y-29428000I0J-20000D01*
G01*
X11879367Y-29428000D02*
G75*
G03*
X11879367Y-29388000I0J20000D01*
G01*
D14*
X11844367Y-29688000D02*
X11844367Y-29748000D01*
X11814367Y-29718000D02*
X11874367Y-29718000D01*
D11*
X11889367Y-29698000D02*
X11799367Y-29698000D01*
X11889367Y-29738000D02*
X11799367Y-29738000D01*
X11799367Y-29698000D02*
G75*
G03*
X11799367Y-29738000I0J-20000D01*
G01*
X11889367Y-29738000D02*
G75*
G03*
X11889367Y-29698000I0J20000D01*
G01*
D14*
X11844367Y-30961600D02*
X11844367Y-31021600D01*
X11814367Y-30991600D02*
X11874367Y-30991600D01*
D11*
X11879367Y-30971600D02*
X11809367Y-30971600D01*
X11879367Y-31011600D02*
X11809367Y-31011600D01*
X11809367Y-30971600D02*
G75*
G03*
X11809367Y-31011600I0J-20000D01*
G01*
X11879367Y-31011600D02*
G75*
G03*
X11879367Y-30971600I0J20000D01*
G01*
D14*
X11844367Y-31271600D02*
X11844367Y-31331600D01*
X11814367Y-31301600D02*
X11874367Y-31301600D01*
D11*
X11889367Y-31281600D02*
X11799367Y-31281600D01*
X11889367Y-31321600D02*
X11799367Y-31321600D01*
X11799367Y-31281600D02*
G75*
G03*
X11799367Y-31321600I0J-20000D01*
G01*
X11889367Y-31321600D02*
G75*
G03*
X11889367Y-31281600I0J20000D01*
G01*
D14*
X11844367Y-32545200D02*
X11844367Y-32605200D01*
X11814367Y-32575200D02*
X11874367Y-32575200D01*
D11*
X11879367Y-32555200D02*
X11809367Y-32555200D01*
X11879367Y-32595200D02*
X11809367Y-32595200D01*
X11809367Y-32555200D02*
G75*
G03*
X11809367Y-32595200I0J-20000D01*
G01*
X11879367Y-32595200D02*
G75*
G03*
X11879367Y-32555200I0J20000D01*
G01*
D14*
X11844367Y-32855200D02*
X11844367Y-32915200D01*
X11814367Y-32885200D02*
X11874367Y-32885200D01*
D11*
X11889367Y-32865200D02*
X11799367Y-32865200D01*
X11889367Y-32905200D02*
X11799367Y-32905200D01*
X11799367Y-32865200D02*
G75*
G03*
X11799367Y-32905200I0J-20000D01*
G01*
X11889367Y-32905200D02*
G75*
G03*
X11889367Y-32865200I0J20000D01*
G01*
D14*
X11971867Y-34691500D02*
X11971867Y-34751500D01*
X11941867Y-34721500D02*
X12001867Y-34721500D01*
D11*
X12006867Y-34701500D02*
X11936867Y-34701500D01*
X12006867Y-34741500D02*
X11936867Y-34741500D01*
X11936867Y-34701500D02*
G75*
G03*
X11936867Y-34741500I0J-20000D01*
G01*
X12006867Y-34741500D02*
G75*
G03*
X12006867Y-34701500I0J20000D01*
G01*
D14*
X11971867Y-35001500D02*
X11971867Y-35061500D01*
X11941867Y-35031500D02*
X12001867Y-35031500D01*
D11*
X12016867Y-35011500D02*
X11926867Y-35011500D01*
X12016867Y-35051500D02*
X11926867Y-35051500D01*
X11926867Y-35011500D02*
G75*
G03*
X11926867Y-35051500I0J-20000D01*
G01*
X12016867Y-35051500D02*
G75*
G03*
X12016867Y-35011500I0J20000D01*
G01*
D14*
X11971867Y-36101200D02*
X11971867Y-36161200D01*
X11941867Y-36131200D02*
X12001867Y-36131200D01*
D11*
X12006867Y-36111200D02*
X11936867Y-36111200D01*
X12006867Y-36151200D02*
X11936867Y-36151200D01*
X11936867Y-36111200D02*
G75*
G03*
X11936867Y-36151200I0J-20000D01*
G01*
X12006867Y-36151200D02*
G75*
G03*
X12006867Y-36111200I0J20000D01*
G01*
D14*
X11971867Y-36411200D02*
X11971867Y-36471200D01*
X11941867Y-36441200D02*
X12001867Y-36441200D01*
D11*
X12016867Y-36421200D02*
X11926867Y-36421200D01*
X12016867Y-36461200D02*
X11926867Y-36461200D01*
X11926867Y-36421200D02*
G75*
G03*
X11926867Y-36461200I0J-20000D01*
G01*
X12016867Y-36461200D02*
G75*
G03*
X12016867Y-36421200I0J20000D01*
G01*
D14*
X13258800Y-34691500D02*
X13258800Y-34751500D01*
X13228800Y-34721500D02*
X13288800Y-34721500D01*
D11*
X13293800Y-34701500D02*
X13223800Y-34701500D01*
X13293800Y-34741500D02*
X13223800Y-34741500D01*
X13223800Y-34701500D02*
G75*
G03*
X13223800Y-34741500I0J-20000D01*
G01*
X13293800Y-34741500D02*
G75*
G03*
X13293800Y-34701500I0J20000D01*
G01*
D14*
X13258800Y-35001500D02*
X13258800Y-35061500D01*
X13228800Y-35031500D02*
X13288800Y-35031500D01*
D11*
X13303800Y-35011500D02*
X13213800Y-35011500D01*
X13303800Y-35051500D02*
X13213800Y-35051500D01*
X13213800Y-35011500D02*
G75*
G03*
X13213800Y-35051500I0J-20000D01*
G01*
X13303800Y-35051500D02*
G75*
G03*
X13303800Y-35011500I0J20000D01*
G01*
D14*
X13258800Y-36101200D02*
X13258800Y-36161200D01*
X13228800Y-36131200D02*
X13288800Y-36131200D01*
D11*
X13293800Y-36111200D02*
X13223800Y-36111200D01*
X13293800Y-36151200D02*
X13223800Y-36151200D01*
X13223800Y-36111200D02*
G75*
G03*
X13223800Y-36151200I0J-20000D01*
G01*
X13293800Y-36151200D02*
G75*
G03*
X13293800Y-36111200I0J20000D01*
G01*
D14*
X13258800Y-36411200D02*
X13258800Y-36471200D01*
X13228800Y-36441200D02*
X13288800Y-36441200D01*
D11*
X13303800Y-36421200D02*
X13213800Y-36421200D01*
X13303800Y-36461200D02*
X13213800Y-36461200D01*
X13213800Y-36421200D02*
G75*
G03*
X13213800Y-36461200I0J-20000D01*
G01*
X13303800Y-36461200D02*
G75*
G03*
X13303800Y-36421200I0J20000D01*
G01*
D15*
X6509941Y-31550141D02*
X6509941Y-31496259D01*
X6456059Y-31496259D01*
X6456059Y-31550141D01*
X6509941Y-31550141D01*
X6509941Y-31804141D02*
X6509941Y-31750259D01*
X6456059Y-31750259D01*
X6456059Y-31804141D01*
X6509941Y-31804141D01*
X6509941Y-32058141D02*
X6509941Y-32004259D01*
X6456059Y-32004259D01*
X6456059Y-32058141D01*
X6509941Y-32058141D01*
X6509941Y-32312141D02*
X6509941Y-32258259D01*
X6456059Y-32258259D01*
X6456059Y-32312141D01*
X6509941Y-32312141D01*
X6509941Y-32566141D02*
X6509941Y-32512259D01*
X6456059Y-32512259D01*
X6456059Y-32566141D01*
X6509941Y-32566141D01*
X6509941Y-32820141D02*
X6509941Y-32766259D01*
X6456059Y-32766259D01*
X6456059Y-32820141D01*
X6509941Y-32820141D01*
X6509941Y-33074141D02*
X6509941Y-33020259D01*
X6456059Y-33020259D01*
X6456059Y-33074141D01*
X6509941Y-33074141D01*
X6509941Y-33328141D02*
X6509941Y-33274259D01*
X6456059Y-33274259D01*
X6456059Y-33328141D01*
X6509941Y-33328141D01*
X6509941Y-33582141D02*
X6509941Y-33528259D01*
X6456059Y-33528259D01*
X6456059Y-33582141D01*
X6509941Y-33582141D01*
X6509941Y-33836141D02*
X6509941Y-33782259D01*
X6456059Y-33782259D01*
X6456059Y-33836141D01*
X6509941Y-33836141D01*
X6509941Y-34090141D02*
X6509941Y-34036259D01*
X6456059Y-34036259D01*
X6456059Y-34090141D01*
X6509941Y-34090141D01*
X6509941Y-34344141D02*
X6509941Y-34290259D01*
X6456059Y-34290259D01*
X6456059Y-34344141D01*
X6509941Y-34344141D01*
X6509941Y-34598141D02*
X6509941Y-34544259D01*
X6456059Y-34544259D01*
X6456059Y-34598141D01*
X6509941Y-34598141D01*
X6509941Y-34852141D02*
X6509941Y-34798259D01*
X6456059Y-34798259D01*
X6456059Y-34852141D01*
X6509941Y-34852141D01*
X6509941Y-35106141D02*
X6509941Y-35052259D01*
X6456059Y-35052259D01*
X6456059Y-35106141D01*
X6509941Y-35106141D01*
X6509941Y-35360141D02*
X6509941Y-35306259D01*
X6456059Y-35306259D01*
X6456059Y-35360141D01*
X6509941Y-35360141D01*
X6509941Y-35614141D02*
X6509941Y-35560259D01*
X6456059Y-35560259D01*
X6456059Y-35614141D01*
X6509941Y-35614141D01*
X6509941Y-35868141D02*
X6509941Y-35814259D01*
X6456059Y-35814259D01*
X6456059Y-35868141D01*
X6509941Y-35868141D01*
X6509941Y-36122141D02*
X6509941Y-36068259D01*
X6456059Y-36068259D01*
X6456059Y-36122141D01*
X6509941Y-36122141D01*
X6509941Y-36376141D02*
X6509941Y-36322259D01*
X6456059Y-36322259D01*
X6456059Y-36376141D01*
X6509941Y-36376141D01*
X8033941Y-31550141D02*
X8033941Y-31496259D01*
X7980059Y-31496259D01*
X7980059Y-31550141D01*
X8033941Y-31550141D01*
X8033941Y-31804141D02*
X8033941Y-31750259D01*
X7980059Y-31750259D01*
X7980059Y-31804141D01*
X8033941Y-31804141D01*
X8033941Y-32058141D02*
X8033941Y-32004259D01*
X7980059Y-32004259D01*
X7980059Y-32058141D01*
X8033941Y-32058141D01*
X8033941Y-32312141D02*
X8033941Y-32258259D01*
X7980059Y-32258259D01*
X7980059Y-32312141D01*
X8033941Y-32312141D01*
X8033941Y-32566141D02*
X8033941Y-32512259D01*
X7980059Y-32512259D01*
X7980059Y-32566141D01*
X8033941Y-32566141D01*
X8033941Y-32820141D02*
X8033941Y-32766259D01*
X7980059Y-32766259D01*
X7980059Y-32820141D01*
X8033941Y-32820141D01*
X8033941Y-33074141D02*
X8033941Y-33020259D01*
X7980059Y-33020259D01*
X7980059Y-33074141D01*
X8033941Y-33074141D01*
X8033941Y-33328141D02*
X8033941Y-33274259D01*
X7980059Y-33274259D01*
X7980059Y-33328141D01*
X8033941Y-33328141D01*
X8033941Y-33582141D02*
X8033941Y-33528259D01*
X7980059Y-33528259D01*
X7980059Y-33582141D01*
X8033941Y-33582141D01*
X8033941Y-33836141D02*
X8033941Y-33782259D01*
X7980059Y-33782259D01*
X7980059Y-33836141D01*
X8033941Y-33836141D01*
X8033941Y-34090141D02*
X8033941Y-34036259D01*
X7980059Y-34036259D01*
X7980059Y-34090141D01*
X8033941Y-34090141D01*
X8033941Y-34344141D02*
X8033941Y-34290259D01*
X7980059Y-34290259D01*
X7980059Y-34344141D01*
X8033941Y-34344141D01*
X8033941Y-34598141D02*
X8033941Y-34544259D01*
X7980059Y-34544259D01*
X7980059Y-34598141D01*
X8033941Y-34598141D01*
X8033941Y-34852141D02*
X8033941Y-34798259D01*
X7980059Y-34798259D01*
X7980059Y-34852141D01*
X8033941Y-34852141D01*
X8033941Y-35106141D02*
X8033941Y-35052259D01*
X7980059Y-35052259D01*
X7980059Y-35106141D01*
X8033941Y-35106141D01*
X8033941Y-35360141D02*
X8033941Y-35306259D01*
X7980059Y-35306259D01*
X7980059Y-35360141D01*
X8033941Y-35360141D01*
X8033941Y-35614141D02*
X8033941Y-35560259D01*
X7980059Y-35560259D01*
X7980059Y-35614141D01*
X8033941Y-35614141D01*
X8033941Y-35868141D02*
X8033941Y-35814259D01*
X7980059Y-35814259D01*
X7980059Y-35868141D01*
X8033941Y-35868141D01*
X8033941Y-36122141D02*
X8033941Y-36068259D01*
X7980059Y-36068259D01*
X7980059Y-36122141D01*
X8033941Y-36122141D01*
X8033941Y-36376141D02*
X8033941Y-36322259D01*
X7980059Y-36322259D01*
X7980059Y-36376141D01*
X8033941Y-36376141D01*
X9780541Y-34266141D02*
X9780541Y-34212259D01*
X9726659Y-34212259D01*
X9726659Y-34266141D01*
X9780541Y-34266141D01*
X10034541Y-34266141D02*
X10034541Y-34212259D01*
X9980659Y-34212259D01*
X9980659Y-34266141D01*
X10034541Y-34266141D01*
X10288541Y-34266141D02*
X10288541Y-34212259D01*
X10234659Y-34212259D01*
X10234659Y-34266141D01*
X10288541Y-34266141D01*
X12384041Y-34316941D02*
X12384041Y-34263059D01*
X12330159Y-34263059D01*
X12330159Y-34316941D01*
X12384041Y-34316941D01*
X12638041Y-34316941D02*
X12638041Y-34263059D01*
X12584159Y-34263059D01*
X12584159Y-34316941D01*
X12638041Y-34316941D01*
X12892041Y-34316941D02*
X12892041Y-34263059D01*
X12838159Y-34263059D01*
X12838159Y-34316941D01*
X12892041Y-34316941D01*
D16*
X3894640Y-27547500D02*
X3944640Y-27497500D01*
X3894640Y-27447500D01*
X3844640Y-27497500D01*
X3894640Y-27547500D01*
X3897640Y-37669360D02*
X3947640Y-37619360D01*
X3897640Y-37569360D01*
X3847640Y-37619360D01*
X3897640Y-37669360D01*
X3958600Y-33762840D02*
X4008600Y-33712840D01*
X3958600Y-33662840D01*
X3908600Y-33712840D01*
X3958600Y-33762840D01*
X3958600Y-34016840D02*
X4008600Y-33966840D01*
X3958600Y-33916840D01*
X3908600Y-33966840D01*
X3958600Y-34016840D01*
X3958600Y-34270840D02*
X4008600Y-34220840D01*
X3958600Y-34170840D01*
X3908600Y-34220840D01*
X3958600Y-34270840D01*
X3982000Y-30746000D02*
X4032000Y-30696000D01*
X3982000Y-30646000D01*
X3932000Y-30696000D01*
X3982000Y-30746000D01*
X3982000Y-31000000D02*
X4032000Y-30950000D01*
X3982000Y-30900000D01*
X3932000Y-30950000D01*
X3982000Y-31000000D01*
X3982000Y-31254000D02*
X4032000Y-31204000D01*
X3982000Y-31154000D01*
X3932000Y-31204000D01*
X3982000Y-31254000D01*
X3982000Y-31508000D02*
X4032000Y-31458000D01*
X3982000Y-31408000D01*
X3932000Y-31458000D01*
X3982000Y-31508000D01*
X3982000Y-31762000D02*
X4032000Y-31712000D01*
X3982000Y-31662000D01*
X3932000Y-31712000D01*
X3982000Y-31762000D01*
X3982000Y-32016000D02*
X4032000Y-31966000D01*
X3982000Y-31916000D01*
X3932000Y-31966000D01*
X3982000Y-32016000D01*
X3982000Y-32270000D02*
X4032000Y-32220000D01*
X3982000Y-32170000D01*
X3932000Y-32220000D01*
X3982000Y-32270000D01*
X3982000Y-32524000D02*
X4032000Y-32474000D01*
X3982000Y-32424000D01*
X3932000Y-32474000D01*
X3982000Y-32524000D01*
X4148640Y-27547500D02*
X4198640Y-27497500D01*
X4148640Y-27447500D01*
X4098640Y-27497500D01*
X4148640Y-27547500D01*
X4151640Y-37669360D02*
X4201640Y-37619360D01*
X4151640Y-37569360D01*
X4101640Y-37619360D01*
X4151640Y-37669360D01*
X4236000Y-30746000D02*
X4286000Y-30696000D01*
X4236000Y-30646000D01*
X4186000Y-30696000D01*
X4236000Y-30746000D01*
X4236000Y-31000000D02*
X4286000Y-30950000D01*
X4236000Y-30900000D01*
X4186000Y-30950000D01*
X4236000Y-31000000D01*
X4236000Y-31254000D02*
X4286000Y-31204000D01*
X4236000Y-31154000D01*
X4186000Y-31204000D01*
X4236000Y-31254000D01*
X4236000Y-31508000D02*
X4286000Y-31458000D01*
X4236000Y-31408000D01*
X4186000Y-31458000D01*
X4236000Y-31508000D01*
X4236000Y-31762000D02*
X4286000Y-31712000D01*
X4236000Y-31662000D01*
X4186000Y-31712000D01*
X4236000Y-31762000D01*
X4236000Y-32016000D02*
X4286000Y-31966000D01*
X4236000Y-31916000D01*
X4186000Y-31966000D01*
X4236000Y-32016000D01*
X4236000Y-32270000D02*
X4286000Y-32220000D01*
X4236000Y-32170000D01*
X4186000Y-32220000D01*
X4236000Y-32270000D01*
X4236000Y-32524000D02*
X4286000Y-32474000D01*
X4236000Y-32424000D01*
X4186000Y-32474000D01*
X4236000Y-32524000D01*
X4402640Y-27547500D02*
X4452640Y-27497500D01*
X4402640Y-27447500D01*
X4352640Y-27497500D01*
X4402640Y-27547500D01*
X4405640Y-37669360D02*
X4455640Y-37619360D01*
X4405640Y-37569360D01*
X4355640Y-37619360D01*
X4405640Y-37669360D01*
X4656640Y-27547500D02*
X4706640Y-27497500D01*
X4656640Y-27447500D01*
X4606640Y-27497500D01*
X4656640Y-27547500D01*
X4659640Y-37669360D02*
X4709640Y-37619360D01*
X4659640Y-37569360D01*
X4609640Y-37619360D01*
X4659640Y-37669360D01*
X4910640Y-27547500D02*
X4960640Y-27497500D01*
X4910640Y-27447500D01*
X4860640Y-27497500D01*
X4910640Y-27547500D01*
X4913640Y-37669360D02*
X4963640Y-37619360D01*
X4913640Y-37569360D01*
X4863640Y-37619360D01*
X4913640Y-37669360D01*
X5164640Y-27547500D02*
X5214640Y-27497500D01*
X5164640Y-27447500D01*
X5114640Y-27497500D01*
X5164640Y-27547500D01*
X5167640Y-37669360D02*
X5217640Y-37619360D01*
X5167640Y-37569360D01*
X5117640Y-37619360D01*
X5167640Y-37669360D01*
X5418640Y-27547500D02*
X5468640Y-27497500D01*
X5418640Y-27447500D01*
X5368640Y-27497500D01*
X5418640Y-27547500D01*
X5421640Y-37669360D02*
X5471640Y-37619360D01*
X5421640Y-37569360D01*
X5371640Y-37619360D01*
X5421640Y-37669360D01*
X5672640Y-27547500D02*
X5722640Y-27497500D01*
X5672640Y-27447500D01*
X5622640Y-27497500D01*
X5672640Y-27547500D01*
X5675640Y-37669360D02*
X5725640Y-37619360D01*
X5675640Y-37569360D01*
X5625640Y-37619360D01*
X5675640Y-37669360D01*
X5926640Y-27547500D02*
X5976640Y-27497500D01*
X5926640Y-27447500D01*
X5876640Y-27497500D01*
X5926640Y-27547500D01*
X5929640Y-37669360D02*
X5979640Y-37619360D01*
X5929640Y-37569360D01*
X5879640Y-37619360D01*
X5929640Y-37669360D01*
X6180640Y-27547500D02*
X6230640Y-27497500D01*
X6180640Y-27447500D01*
X6130640Y-27497500D01*
X6180640Y-27547500D01*
X6183640Y-37669360D02*
X6233640Y-37619360D01*
X6183640Y-37569360D01*
X6133640Y-37619360D01*
X6183640Y-37669360D01*
X6434640Y-27547500D02*
X6484640Y-27497500D01*
X6434640Y-27447500D01*
X6384640Y-27497500D01*
X6434640Y-27547500D01*
X6437640Y-37669360D02*
X6487640Y-37619360D01*
X6437640Y-37569360D01*
X6387640Y-37619360D01*
X6437640Y-37669360D01*
X6688640Y-27547500D02*
X6738640Y-27497500D01*
X6688640Y-27447500D01*
X6638640Y-27497500D01*
X6688640Y-27547500D01*
X6691640Y-37669360D02*
X6741640Y-37619360D01*
X6691640Y-37569360D01*
X6641640Y-37619360D01*
X6691640Y-37669360D01*
X6942640Y-27547500D02*
X6992640Y-27497500D01*
X6942640Y-27447500D01*
X6892640Y-27497500D01*
X6942640Y-27547500D01*
X6945640Y-37669360D02*
X6995640Y-37619360D01*
X6945640Y-37569360D01*
X6895640Y-37619360D01*
X6945640Y-37669360D01*
X7196640Y-27547500D02*
X7246640Y-27497500D01*
X7196640Y-27447500D01*
X7146640Y-27497500D01*
X7196640Y-27547500D01*
X7199640Y-37669360D02*
X7249640Y-37619360D01*
X7199640Y-37569360D01*
X7149640Y-37619360D01*
X7199640Y-37669360D01*
X7450640Y-27547500D02*
X7500640Y-27497500D01*
X7450640Y-27447500D01*
X7400640Y-27497500D01*
X7450640Y-27547500D01*
X7453640Y-37669360D02*
X7503640Y-37619360D01*
X7453640Y-37569360D01*
X7403640Y-37619360D01*
X7453640Y-37669360D01*
X7704640Y-27547500D02*
X7754640Y-27497500D01*
X7704640Y-27447500D01*
X7654640Y-27497500D01*
X7704640Y-27547500D01*
X7707640Y-37669360D02*
X7757640Y-37619360D01*
X7707640Y-37569360D01*
X7657640Y-37619360D01*
X7707640Y-37669360D01*
X7958640Y-27547500D02*
X8008640Y-27497500D01*
X7958640Y-27447500D01*
X7908640Y-27497500D01*
X7958640Y-27547500D01*
X7961640Y-37669360D02*
X8011640Y-37619360D01*
X7961640Y-37569360D01*
X7911640Y-37619360D01*
X7961640Y-37669360D01*
X8212640Y-27547500D02*
X8262640Y-27497500D01*
X8212640Y-27447500D01*
X8162640Y-27497500D01*
X8212640Y-27547500D01*
X8215640Y-37669360D02*
X8265640Y-37619360D01*
X8215640Y-37569360D01*
X8165640Y-37619360D01*
X8215640Y-37669360D01*
X9156240Y-27532800D02*
X9206240Y-27482800D01*
X9156240Y-27432800D01*
X9106240Y-27482800D01*
X9156240Y-27532800D01*
X9159240Y-37692800D02*
X9209240Y-37642800D01*
X9159240Y-37592800D01*
X9109240Y-37642800D01*
X9159240Y-37692800D01*
X9287700Y-27887400D02*
X9337700Y-27837400D01*
X9287700Y-27787400D01*
X9237700Y-27837400D01*
X9287700Y-27887400D01*
X9287700Y-29471000D02*
X9337700Y-29421000D01*
X9287700Y-29371000D01*
X9237700Y-29421000D01*
X9287700Y-29471000D01*
X9287700Y-31054600D02*
X9337700Y-31004600D01*
X9287700Y-30954600D01*
X9237700Y-31004600D01*
X9287700Y-31054600D01*
X9287700Y-32638200D02*
X9337700Y-32588200D01*
X9287700Y-32538200D01*
X9237700Y-32588200D01*
X9287700Y-32638200D01*
X9410240Y-27532800D02*
X9460240Y-27482800D01*
X9410240Y-27432800D01*
X9360240Y-27482800D01*
X9410240Y-27532800D01*
X9413240Y-37692800D02*
X9463240Y-37642800D01*
X9413240Y-37592800D01*
X9363240Y-37642800D01*
X9413240Y-37692800D01*
X9537700Y-27887400D02*
X9587700Y-27837400D01*
X9537700Y-27787400D01*
X9487700Y-27837400D01*
X9537700Y-27887400D01*
X9537700Y-29471000D02*
X9587700Y-29421000D01*
X9537700Y-29371000D01*
X9487700Y-29421000D01*
X9537700Y-29471000D01*
X9537700Y-31054600D02*
X9587700Y-31004600D01*
X9537700Y-30954600D01*
X9487700Y-31004600D01*
X9537700Y-31054600D01*
X9537700Y-32638200D02*
X9587700Y-32588200D01*
X9537700Y-32538200D01*
X9487700Y-32588200D01*
X9537700Y-32638200D01*
X9664240Y-27532800D02*
X9714240Y-27482800D01*
X9664240Y-27432800D01*
X9614240Y-27482800D01*
X9664240Y-27532800D01*
X9667240Y-37692800D02*
X9717240Y-37642800D01*
X9667240Y-37592800D01*
X9617240Y-37642800D01*
X9667240Y-37692800D01*
X9787700Y-27887400D02*
X9837700Y-27837400D01*
X9787700Y-27787400D01*
X9737700Y-27837400D01*
X9787700Y-27887400D01*
X9787700Y-29471000D02*
X9837700Y-29421000D01*
X9787700Y-29371000D01*
X9737700Y-29421000D01*
X9787700Y-29471000D01*
X9787700Y-31054600D02*
X9837700Y-31004600D01*
X9787700Y-30954600D01*
X9737700Y-31004600D01*
X9787700Y-31054600D01*
X9787700Y-32638200D02*
X9837700Y-32588200D01*
X9787700Y-32538200D01*
X9737700Y-32588200D01*
X9787700Y-32638200D01*
X9918240Y-27532800D02*
X9968240Y-27482800D01*
X9918240Y-27432800D01*
X9868240Y-27482800D01*
X9918240Y-27532800D01*
X9921240Y-37692800D02*
X9971240Y-37642800D01*
X9921240Y-37592800D01*
X9871240Y-37642800D01*
X9921240Y-37692800D01*
X10172240Y-27532800D02*
X10222240Y-27482800D01*
X10172240Y-27432800D01*
X10122240Y-27482800D01*
X10172240Y-27532800D01*
X10175240Y-37692800D02*
X10225240Y-37642800D01*
X10175240Y-37592800D01*
X10125240Y-37642800D01*
X10175240Y-37692800D01*
X10426240Y-27532800D02*
X10476240Y-27482800D01*
X10426240Y-27432800D01*
X10376240Y-27482800D01*
X10426240Y-27532800D01*
X10429240Y-37692800D02*
X10479240Y-37642800D01*
X10429240Y-37592800D01*
X10379240Y-37642800D01*
X10429240Y-37692800D01*
X10680240Y-27532800D02*
X10730240Y-27482800D01*
X10680240Y-27432800D01*
X10630240Y-27482800D01*
X10680240Y-27532800D01*
X10683240Y-37692800D02*
X10733240Y-37642800D01*
X10683240Y-37592800D01*
X10633240Y-37642800D01*
X10683240Y-37692800D01*
X10934240Y-27532800D02*
X10984240Y-27482800D01*
X10934240Y-27432800D01*
X10884240Y-27482800D01*
X10934240Y-27532800D01*
X10937240Y-37692800D02*
X10987240Y-37642800D01*
X10937240Y-37592800D01*
X10887240Y-37642800D01*
X10937240Y-37692800D01*
X11188240Y-27532800D02*
X11238240Y-27482800D01*
X11188240Y-27432800D01*
X11138240Y-27482800D01*
X11188240Y-27532800D01*
X11191240Y-37692800D02*
X11241240Y-37642800D01*
X11191240Y-37592800D01*
X11141240Y-37642800D01*
X11191240Y-37692800D01*
X11442240Y-27532800D02*
X11492240Y-27482800D01*
X11442240Y-27432800D01*
X11392240Y-27482800D01*
X11442240Y-27532800D01*
X11445240Y-37692800D02*
X11495240Y-37642800D01*
X11445240Y-37592800D01*
X11395240Y-37642800D01*
X11445240Y-37692800D01*
X11696240Y-27532800D02*
X11746240Y-27482800D01*
X11696240Y-27432800D01*
X11646240Y-27482800D01*
X11696240Y-27532800D01*
X11699240Y-37692800D02*
X11749240Y-37642800D01*
X11699240Y-37592800D01*
X11649240Y-37642800D01*
X11699240Y-37692800D01*
X11950240Y-27532800D02*
X12000240Y-27482800D01*
X11950240Y-27432800D01*
X11900240Y-27482800D01*
X11950240Y-27532800D01*
X11953240Y-37692800D02*
X12003240Y-37642800D01*
X11953240Y-37592800D01*
X11903240Y-37642800D01*
X11953240Y-37692800D01*
X12204240Y-27532800D02*
X12254240Y-27482800D01*
X12204240Y-27432800D01*
X12154240Y-27482800D01*
X12204240Y-27532800D01*
X12207240Y-37692800D02*
X12257240Y-37642800D01*
X12207240Y-37592800D01*
X12157240Y-37642800D01*
X12207240Y-37692800D01*
X12458240Y-27532800D02*
X12508240Y-27482800D01*
X12458240Y-27432800D01*
X12408240Y-27482800D01*
X12458240Y-27532800D01*
X12461240Y-37692800D02*
X12511240Y-37642800D01*
X12461240Y-37592800D01*
X12411240Y-37642800D01*
X12461240Y-37692800D01*
X12712240Y-27532800D02*
X12762240Y-27482800D01*
X12712240Y-27432800D01*
X12662240Y-27482800D01*
X12712240Y-27532800D01*
X12715240Y-37692800D02*
X12765240Y-37642800D01*
X12715240Y-37592800D01*
X12665240Y-37642800D01*
X12715240Y-37692800D01*
X12843700Y-27887400D02*
X12893700Y-27837400D01*
X12843700Y-27787400D01*
X12793700Y-27837400D01*
X12843700Y-27887400D01*
X12843700Y-29471000D02*
X12893700Y-29421000D01*
X12843700Y-29371000D01*
X12793700Y-29421000D01*
X12843700Y-29471000D01*
X12843700Y-31054600D02*
X12893700Y-31004600D01*
X12843700Y-30954600D01*
X12793700Y-31004600D01*
X12843700Y-31054600D01*
X12843700Y-32638200D02*
X12893700Y-32588200D01*
X12843700Y-32538200D01*
X12793700Y-32588200D01*
X12843700Y-32638200D01*
X12966240Y-27532800D02*
X13016240Y-27482800D01*
X12966240Y-27432800D01*
X12916240Y-27482800D01*
X12966240Y-27532800D01*
X12969240Y-37692800D02*
X13019240Y-37642800D01*
X12969240Y-37592800D01*
X12919240Y-37642800D01*
X12969240Y-37692800D01*
X13093700Y-27887400D02*
X13143700Y-27837400D01*
X13093700Y-27787400D01*
X13043700Y-27837400D01*
X13093700Y-27887400D01*
X13093700Y-29471000D02*
X13143700Y-29421000D01*
X13093700Y-29371000D01*
X13043700Y-29421000D01*
X13093700Y-29471000D01*
X13093700Y-31054600D02*
X13143700Y-31004600D01*
X13093700Y-30954600D01*
X13043700Y-31004600D01*
X13093700Y-31054600D01*
X13093700Y-32638200D02*
X13143700Y-32588200D01*
X13093700Y-32538200D01*
X13043700Y-32588200D01*
X13093700Y-32638200D01*
X13220240Y-27532800D02*
X13270240Y-27482800D01*
X13220240Y-27432800D01*
X13170240Y-27482800D01*
X13220240Y-27532800D01*
X13223240Y-37692800D02*
X13273240Y-37642800D01*
X13223240Y-37592800D01*
X13173240Y-37642800D01*
X13223240Y-37692800D01*
X13343700Y-27887400D02*
X13393700Y-27837400D01*
X13343700Y-27787400D01*
X13293700Y-27837400D01*
X13343700Y-27887400D01*
X13343700Y-29471000D02*
X13393700Y-29421000D01*
X13343700Y-29371000D01*
X13293700Y-29421000D01*
X13343700Y-29471000D01*
X13343700Y-31054600D02*
X13393700Y-31004600D01*
X13343700Y-30954600D01*
X13293700Y-31004600D01*
X13343700Y-31054600D01*
X13343700Y-32638200D02*
X13393700Y-32588200D01*
X13343700Y-32538200D01*
X13293700Y-32588200D01*
X13343700Y-32638200D01*
X13474240Y-27532800D02*
X13524240Y-27482800D01*
X13474240Y-27432800D01*
X13424240Y-27482800D01*
X13474240Y-27532800D01*
X13477240Y-37692800D02*
X13527240Y-37642800D01*
X13477240Y-37592800D01*
X13427240Y-37642800D01*
X13477240Y-37692800D01*
D17*
X8967700Y-28497400D02*
X9147700Y-28677400D01*
X9147700Y-28497400D02*
X8967700Y-28677400D01*
X9147700Y-28587400D02*
G75*
G03*
X9147700Y-28587400I-90000J0D01*
G01*
X8967700Y-30081000D02*
X9147700Y-30261000D01*
X9147700Y-30081000D02*
X8967700Y-30261000D01*
X9147700Y-30171000D02*
G75*
G03*
X9147700Y-30171000I-90000J0D01*
G01*
X8967700Y-31664600D02*
X9147700Y-31844600D01*
X9147700Y-31664600D02*
X8967700Y-31844600D01*
X9147700Y-31754600D02*
G75*
G03*
X9147700Y-31754600I-90000J0D01*
G01*
X8967700Y-33248200D02*
X9147700Y-33428200D01*
X9147700Y-33248200D02*
X8967700Y-33428200D01*
X9147700Y-33338200D02*
G75*
G03*
X9147700Y-33338200I-90000J0D01*
G01*
X9927700Y-28497400D02*
X10107700Y-28677400D01*
X10107700Y-28497400D02*
X9927700Y-28677400D01*
X10107700Y-28587400D02*
G75*
G03*
X10107700Y-28587400I-90000J0D01*
G01*
X9927700Y-30081000D02*
X10107700Y-30261000D01*
X10107700Y-30081000D02*
X9927700Y-30261000D01*
X10107700Y-30171000D02*
G75*
G03*
X10107700Y-30171000I-90000J0D01*
G01*
X9927700Y-31664600D02*
X10107700Y-31844600D01*
X10107700Y-31664600D02*
X9927700Y-31844600D01*
X10107700Y-31754600D02*
G75*
G03*
X10107700Y-31754600I-90000J0D01*
G01*
X9927700Y-33248200D02*
X10107700Y-33428200D01*
X10107700Y-33248200D02*
X9927700Y-33428200D01*
X10107700Y-33338200D02*
G75*
G03*
X10107700Y-33338200I-90000J0D01*
G01*
X12523700Y-28497400D02*
X12703700Y-28677400D01*
X12703700Y-28497400D02*
X12523700Y-28677400D01*
X12703700Y-28587400D02*
G75*
G03*
X12703700Y-28587400I-90000J0D01*
G01*
X12523700Y-30081000D02*
X12703700Y-30261000D01*
X12703700Y-30081000D02*
X12523700Y-30261000D01*
X12703700Y-30171000D02*
G75*
G03*
X12703700Y-30171000I-90000J0D01*
G01*
X12523700Y-31664600D02*
X12703700Y-31844600D01*
X12703700Y-31664600D02*
X12523700Y-31844600D01*
X12703700Y-31754600D02*
G75*
G03*
X12703700Y-31754600I-90000J0D01*
G01*
X12523700Y-33248200D02*
X12703700Y-33428200D01*
X12703700Y-33248200D02*
X12523700Y-33428200D01*
X12703700Y-33338200D02*
G75*
G03*
X12703700Y-33338200I-90000J0D01*
G01*
X13483700Y-28497400D02*
X13663700Y-28677400D01*
X13663700Y-28497400D02*
X13483700Y-28677400D01*
X13663700Y-28587400D02*
G75*
G03*
X13663700Y-28587400I-90000J0D01*
G01*
X13483700Y-30081000D02*
X13663700Y-30261000D01*
X13663700Y-30081000D02*
X13483700Y-30261000D01*
X13663700Y-30171000D02*
G75*
G03*
X13663700Y-30171000I-90000J0D01*
G01*
X13483700Y-31664600D02*
X13663700Y-31844600D01*
X13663700Y-31664600D02*
X13483700Y-31844600D01*
X13663700Y-31754600D02*
G75*
G03*
X13663700Y-31754600I-90000J0D01*
G01*
X13483700Y-33248200D02*
X13663700Y-33428200D01*
X13663700Y-33248200D02*
X13483700Y-33428200D01*
X13663700Y-33338200D02*
G75*
G03*
X13663700Y-33338200I-90000J0D01*
G01*
D11*
X3803619Y-38171556D02*
X3803619Y-37971556D01*
X3851238Y-37971556D01*
X3879809Y-37981080D01*
X3898857Y-38000128D01*
X3908381Y-38019175D01*
X3917905Y-38057270D01*
X3917905Y-38085842D01*
X3908381Y-38123937D01*
X3898857Y-38142985D01*
X3879809Y-38162032D01*
X3851238Y-38171556D01*
X3803619Y-38171556D01*
X4003619Y-38171556D02*
X4003619Y-38038223D01*
X4003619Y-38076318D02*
X4013143Y-38057270D01*
X4022667Y-38047747D01*
X4041714Y-38038223D01*
X4060762Y-38038223D01*
X4127428Y-38171556D02*
X4127428Y-38038223D01*
X4127428Y-37971556D02*
X4117905Y-37981080D01*
X4127428Y-37990604D01*
X4136952Y-37981080D01*
X4127428Y-37971556D01*
X4127428Y-37990604D01*
X4251238Y-38171556D02*
X4232190Y-38162032D01*
X4222667Y-38142985D01*
X4222667Y-37971556D01*
X4356000Y-38171556D02*
X4336952Y-38162032D01*
X4327429Y-38142985D01*
X4327429Y-37971556D01*
X4584571Y-38171556D02*
X4584571Y-37971556D01*
X4651238Y-38114413D01*
X4717905Y-37971556D01*
X4717905Y-38171556D01*
X4898857Y-38171556D02*
X4898857Y-38066794D01*
X4889333Y-38047747D01*
X4870286Y-38038223D01*
X4832190Y-38038223D01*
X4813143Y-38047747D01*
X4898857Y-38162032D02*
X4879810Y-38171556D01*
X4832190Y-38171556D01*
X4813143Y-38162032D01*
X4803619Y-38142985D01*
X4803619Y-38123937D01*
X4813143Y-38104890D01*
X4832190Y-38095366D01*
X4879810Y-38095366D01*
X4898857Y-38085842D01*
X4994095Y-38038223D02*
X4994095Y-38238223D01*
X4994095Y-38047747D02*
X5013143Y-38038223D01*
X5051238Y-38038223D01*
X5070286Y-38047747D01*
X5079810Y-38057270D01*
X5089333Y-38076318D01*
X5089333Y-38133461D01*
X5079810Y-38152509D01*
X5070286Y-38162032D01*
X5051238Y-38171556D01*
X5013143Y-38171556D01*
X4994095Y-38162032D01*
X5175048Y-38152509D02*
X5184571Y-38162032D01*
X5175048Y-38171556D01*
X5165524Y-38162032D01*
X5175048Y-38152509D01*
X5175048Y-38171556D01*
X5175048Y-38047747D02*
X5184571Y-38057270D01*
X5175048Y-38066794D01*
X5165524Y-38057270D01*
X5175048Y-38047747D01*
X5175048Y-38066794D01*
D12*
X3506000Y-38481080D02*
X3546000Y-38521080D01*
X3546000Y-38481080D02*
X3506000Y-38521080D01*
D11*
X3841714Y-38391556D02*
X3860762Y-38391556D01*
X3879809Y-38401080D01*
X3889333Y-38410604D01*
X3898857Y-38429651D01*
X3908381Y-38467747D01*
X3908381Y-38515366D01*
X3898857Y-38553461D01*
X3889333Y-38572509D01*
X3879809Y-38582032D01*
X3860762Y-38591556D01*
X3841714Y-38591556D01*
X3822667Y-38582032D01*
X3813143Y-38572509D01*
X3803619Y-38553461D01*
X3794095Y-38515366D01*
X3794095Y-38467747D01*
X3803619Y-38429651D01*
X3813143Y-38410604D01*
X3822667Y-38401080D01*
X3841714Y-38391556D01*
X3994095Y-38572509D02*
X4003619Y-38582032D01*
X3994095Y-38591556D01*
X3984571Y-38582032D01*
X3994095Y-38572509D01*
X3994095Y-38591556D01*
X4175048Y-38458223D02*
X4175048Y-38591556D01*
X4127428Y-38382032D02*
X4079809Y-38524890D01*
X4203619Y-38524890D01*
X4317905Y-38391556D02*
X4336952Y-38391556D01*
X4356000Y-38401080D01*
X4365524Y-38410604D01*
X4375048Y-38429651D01*
X4384571Y-38467747D01*
X4384571Y-38515366D01*
X4375048Y-38553461D01*
X4365524Y-38572509D01*
X4356000Y-38582032D01*
X4336952Y-38591556D01*
X4317905Y-38591556D01*
X4298857Y-38582032D01*
X4289333Y-38572509D01*
X4279810Y-38553461D01*
X4270286Y-38515366D01*
X4270286Y-38467747D01*
X4279810Y-38429651D01*
X4289333Y-38410604D01*
X4298857Y-38401080D01*
X4317905Y-38391556D01*
X4508381Y-38391556D02*
X4527429Y-38391556D01*
X4546476Y-38401080D01*
X4556000Y-38410604D01*
X4565524Y-38429651D01*
X4575048Y-38467747D01*
X4575048Y-38515366D01*
X4565524Y-38553461D01*
X4556000Y-38572509D01*
X4546476Y-38582032D01*
X4527429Y-38591556D01*
X4508381Y-38591556D01*
X4489333Y-38582032D01*
X4479810Y-38572509D01*
X4470286Y-38553461D01*
X4460762Y-38515366D01*
X4460762Y-38467747D01*
X4470286Y-38429651D01*
X4479810Y-38410604D01*
X4489333Y-38401080D01*
X4508381Y-38391556D01*
X4660762Y-38591556D02*
X4660762Y-38458223D01*
X4660762Y-38477270D02*
X4670286Y-38467747D01*
X4689333Y-38458223D01*
X4717905Y-38458223D01*
X4736952Y-38467747D01*
X4746476Y-38486794D01*
X4746476Y-38591556D01*
X4746476Y-38486794D02*
X4756000Y-38467747D01*
X4775048Y-38458223D01*
X4803619Y-38458223D01*
X4822667Y-38467747D01*
X4832190Y-38486794D01*
X4832190Y-38591556D01*
X4927429Y-38591556D02*
X4927429Y-38458223D01*
X4927429Y-38477270D02*
X4936952Y-38467747D01*
X4956000Y-38458223D01*
X4984571Y-38458223D01*
X5003619Y-38467747D01*
X5013143Y-38486794D01*
X5013143Y-38591556D01*
X5013143Y-38486794D02*
X5022667Y-38467747D01*
X5041714Y-38458223D01*
X5070286Y-38458223D01*
X5089333Y-38467747D01*
X5098857Y-38486794D01*
X5098857Y-38591556D01*
X5489333Y-38382032D02*
X5317905Y-38639175D01*
X5746476Y-38391556D02*
X5765524Y-38391556D01*
X5784571Y-38401080D01*
X5794095Y-38410604D01*
X5803619Y-38429651D01*
X5813143Y-38467747D01*
X5813143Y-38515366D01*
X5803619Y-38553461D01*
X5794095Y-38572509D01*
X5784571Y-38582032D01*
X5765524Y-38591556D01*
X5746476Y-38591556D01*
X5727428Y-38582032D01*
X5717905Y-38572509D01*
X5708381Y-38553461D01*
X5698857Y-38515366D01*
X5698857Y-38467747D01*
X5708381Y-38429651D01*
X5717905Y-38410604D01*
X5727428Y-38401080D01*
X5746476Y-38391556D01*
X5898857Y-38572509D02*
X5908381Y-38582032D01*
X5898857Y-38591556D01*
X5889333Y-38582032D01*
X5898857Y-38572509D01*
X5898857Y-38591556D01*
X6032190Y-38391556D02*
X6051238Y-38391556D01*
X6070286Y-38401080D01*
X6079809Y-38410604D01*
X6089333Y-38429651D01*
X6098857Y-38467747D01*
X6098857Y-38515366D01*
X6089333Y-38553461D01*
X6079809Y-38572509D01*
X6070286Y-38582032D01*
X6051238Y-38591556D01*
X6032190Y-38591556D01*
X6013143Y-38582032D01*
X6003619Y-38572509D01*
X5994095Y-38553461D01*
X5984571Y-38515366D01*
X5984571Y-38467747D01*
X5994095Y-38429651D01*
X6003619Y-38410604D01*
X6013143Y-38401080D01*
X6032190Y-38391556D01*
X6289333Y-38591556D02*
X6175048Y-38591556D01*
X6232190Y-38591556D02*
X6232190Y-38391556D01*
X6213143Y-38420128D01*
X6194095Y-38439175D01*
X6175048Y-38448699D01*
X6470286Y-38391556D02*
X6375048Y-38391556D01*
X6365524Y-38486794D01*
X6375048Y-38477270D01*
X6394095Y-38467747D01*
X6441714Y-38467747D01*
X6460762Y-38477270D01*
X6470286Y-38486794D01*
X6479809Y-38505842D01*
X6479809Y-38553461D01*
X6470286Y-38572509D01*
X6460762Y-38582032D01*
X6441714Y-38591556D01*
X6394095Y-38591556D01*
X6375048Y-38582032D01*
X6365524Y-38572509D01*
X6546476Y-38391556D02*
X6679809Y-38391556D01*
X6594095Y-38591556D01*
X6746476Y-38391556D02*
X6746476Y-38429651D01*
X6822667Y-38391556D02*
X6822667Y-38429651D01*
X7117905Y-38667747D02*
X7108381Y-38658223D01*
X7089333Y-38629651D01*
X7079809Y-38610604D01*
X7070286Y-38582032D01*
X7060762Y-38534413D01*
X7060762Y-38496318D01*
X7070286Y-38448699D01*
X7079809Y-38420128D01*
X7089333Y-38401080D01*
X7108381Y-38372509D01*
X7117905Y-38362985D01*
X7203619Y-38591556D02*
X7241714Y-38591556D01*
X7260762Y-38582032D01*
X7270286Y-38572509D01*
X7289333Y-38543937D01*
X7298857Y-38505842D01*
X7298857Y-38429651D01*
X7289333Y-38410604D01*
X7279809Y-38401080D01*
X7260762Y-38391556D01*
X7222667Y-38391556D01*
X7203619Y-38401080D01*
X7194095Y-38410604D01*
X7184571Y-38429651D01*
X7184571Y-38477270D01*
X7194095Y-38496318D01*
X7203619Y-38505842D01*
X7222667Y-38515366D01*
X7260762Y-38515366D01*
X7279809Y-38505842D01*
X7289333Y-38496318D01*
X7298857Y-38477270D01*
X7489333Y-38591556D02*
X7375048Y-38591556D01*
X7432190Y-38591556D02*
X7432190Y-38391556D01*
X7413143Y-38420128D01*
X7394095Y-38439175D01*
X7375048Y-38448699D01*
X7727428Y-38591556D02*
X7727428Y-38391556D01*
X7813143Y-38591556D02*
X7813143Y-38486794D01*
X7803619Y-38467747D01*
X7784571Y-38458223D01*
X7756000Y-38458223D01*
X7736952Y-38467747D01*
X7727428Y-38477270D01*
X7936952Y-38591556D02*
X7917905Y-38582032D01*
X7908381Y-38572509D01*
X7898857Y-38553461D01*
X7898857Y-38496318D01*
X7908381Y-38477270D01*
X7917905Y-38467747D01*
X7936952Y-38458223D01*
X7965524Y-38458223D01*
X7984571Y-38467747D01*
X7994095Y-38477270D01*
X8003619Y-38496318D01*
X8003619Y-38553461D01*
X7994095Y-38572509D01*
X7984571Y-38582032D01*
X7965524Y-38591556D01*
X7936952Y-38591556D01*
X8117905Y-38591556D02*
X8098857Y-38582032D01*
X8089333Y-38562985D01*
X8089333Y-38391556D01*
X8270286Y-38582032D02*
X8251238Y-38591556D01*
X8213143Y-38591556D01*
X8194095Y-38582032D01*
X8184571Y-38562985D01*
X8184571Y-38486794D01*
X8194095Y-38467747D01*
X8213143Y-38458223D01*
X8251238Y-38458223D01*
X8270286Y-38467747D01*
X8279809Y-38486794D01*
X8279809Y-38505842D01*
X8184571Y-38524890D01*
X8356000Y-38582032D02*
X8375048Y-38591556D01*
X8413143Y-38591556D01*
X8432190Y-38582032D01*
X8441714Y-38562985D01*
X8441714Y-38553461D01*
X8432190Y-38534413D01*
X8413143Y-38524890D01*
X8384571Y-38524890D01*
X8365524Y-38515366D01*
X8356000Y-38496318D01*
X8356000Y-38486794D01*
X8365524Y-38467747D01*
X8384571Y-38458223D01*
X8413143Y-38458223D01*
X8432190Y-38467747D01*
X8508381Y-38667747D02*
X8517905Y-38658223D01*
X8536952Y-38629651D01*
X8546476Y-38610604D01*
X8556000Y-38582032D01*
X8565524Y-38534413D01*
X8565524Y-38496318D01*
X8556000Y-38448699D01*
X8546476Y-38420128D01*
X8536952Y-38401080D01*
X8517905Y-38372509D01*
X8508381Y-38362985D01*
D13*
X3546000Y-38765080D02*
G75*
G03*
X3546000Y-38765080I-25000J0D01*
G01*
D11*
X3841714Y-38655556D02*
X3860762Y-38655556D01*
X3879809Y-38665080D01*
X3889333Y-38674604D01*
X3898857Y-38693651D01*
X3908381Y-38731747D01*
X3908381Y-38779366D01*
X3898857Y-38817461D01*
X3889333Y-38836509D01*
X3879809Y-38846032D01*
X3860762Y-38855556D01*
X3841714Y-38855556D01*
X3822667Y-38846032D01*
X3813143Y-38836509D01*
X3803619Y-38817461D01*
X3794095Y-38779366D01*
X3794095Y-38731747D01*
X3803619Y-38693651D01*
X3813143Y-38674604D01*
X3822667Y-38665080D01*
X3841714Y-38655556D01*
X3994095Y-38836509D02*
X4003619Y-38846032D01*
X3994095Y-38855556D01*
X3984571Y-38846032D01*
X3994095Y-38836509D01*
X3994095Y-38855556D01*
X4184571Y-38655556D02*
X4089333Y-38655556D01*
X4079809Y-38750794D01*
X4089333Y-38741270D01*
X4108381Y-38731747D01*
X4156000Y-38731747D01*
X4175048Y-38741270D01*
X4184571Y-38750794D01*
X4194095Y-38769842D01*
X4194095Y-38817461D01*
X4184571Y-38836509D01*
X4175048Y-38846032D01*
X4156000Y-38855556D01*
X4108381Y-38855556D01*
X4089333Y-38846032D01*
X4079809Y-38836509D01*
X4317905Y-38655556D02*
X4336952Y-38655556D01*
X4356000Y-38665080D01*
X4365524Y-38674604D01*
X4375048Y-38693651D01*
X4384571Y-38731747D01*
X4384571Y-38779366D01*
X4375048Y-38817461D01*
X4365524Y-38836509D01*
X4356000Y-38846032D01*
X4336952Y-38855556D01*
X4317905Y-38855556D01*
X4298857Y-38846032D01*
X4289333Y-38836509D01*
X4279810Y-38817461D01*
X4270286Y-38779366D01*
X4270286Y-38731747D01*
X4279810Y-38693651D01*
X4289333Y-38674604D01*
X4298857Y-38665080D01*
X4317905Y-38655556D01*
X4508381Y-38655556D02*
X4527429Y-38655556D01*
X4546476Y-38665080D01*
X4556000Y-38674604D01*
X4565524Y-38693651D01*
X4575048Y-38731747D01*
X4575048Y-38779366D01*
X4565524Y-38817461D01*
X4556000Y-38836509D01*
X4546476Y-38846032D01*
X4527429Y-38855556D01*
X4508381Y-38855556D01*
X4489333Y-38846032D01*
X4479810Y-38836509D01*
X4470286Y-38817461D01*
X4460762Y-38779366D01*
X4460762Y-38731747D01*
X4470286Y-38693651D01*
X4479810Y-38674604D01*
X4489333Y-38665080D01*
X4508381Y-38655556D01*
X4660762Y-38855556D02*
X4660762Y-38722223D01*
X4660762Y-38741270D02*
X4670286Y-38731747D01*
X4689333Y-38722223D01*
X4717905Y-38722223D01*
X4736952Y-38731747D01*
X4746476Y-38750794D01*
X4746476Y-38855556D01*
X4746476Y-38750794D02*
X4756000Y-38731747D01*
X4775048Y-38722223D01*
X4803619Y-38722223D01*
X4822667Y-38731747D01*
X4832190Y-38750794D01*
X4832190Y-38855556D01*
X4927429Y-38855556D02*
X4927429Y-38722223D01*
X4927429Y-38741270D02*
X4936952Y-38731747D01*
X4956000Y-38722223D01*
X4984571Y-38722223D01*
X5003619Y-38731747D01*
X5013143Y-38750794D01*
X5013143Y-38855556D01*
X5013143Y-38750794D02*
X5022667Y-38731747D01*
X5041714Y-38722223D01*
X5070286Y-38722223D01*
X5089333Y-38731747D01*
X5098857Y-38750794D01*
X5098857Y-38855556D01*
X5489333Y-38646032D02*
X5317905Y-38903175D01*
X5746476Y-38655556D02*
X5765524Y-38655556D01*
X5784571Y-38665080D01*
X5794095Y-38674604D01*
X5803619Y-38693651D01*
X5813143Y-38731747D01*
X5813143Y-38779366D01*
X5803619Y-38817461D01*
X5794095Y-38836509D01*
X5784571Y-38846032D01*
X5765524Y-38855556D01*
X5746476Y-38855556D01*
X5727428Y-38846032D01*
X5717905Y-38836509D01*
X5708381Y-38817461D01*
X5698857Y-38779366D01*
X5698857Y-38731747D01*
X5708381Y-38693651D01*
X5717905Y-38674604D01*
X5727428Y-38665080D01*
X5746476Y-38655556D01*
X5898857Y-38836509D02*
X5908381Y-38846032D01*
X5898857Y-38855556D01*
X5889333Y-38846032D01*
X5898857Y-38836509D01*
X5898857Y-38855556D01*
X6032190Y-38655556D02*
X6051238Y-38655556D01*
X6070286Y-38665080D01*
X6079809Y-38674604D01*
X6089333Y-38693651D01*
X6098857Y-38731747D01*
X6098857Y-38779366D01*
X6089333Y-38817461D01*
X6079809Y-38836509D01*
X6070286Y-38846032D01*
X6051238Y-38855556D01*
X6032190Y-38855556D01*
X6013143Y-38846032D01*
X6003619Y-38836509D01*
X5994095Y-38817461D01*
X5984571Y-38779366D01*
X5984571Y-38731747D01*
X5994095Y-38693651D01*
X6003619Y-38674604D01*
X6013143Y-38665080D01*
X6032190Y-38655556D01*
X6289333Y-38855556D02*
X6175048Y-38855556D01*
X6232190Y-38855556D02*
X6232190Y-38655556D01*
X6213143Y-38684128D01*
X6194095Y-38703175D01*
X6175048Y-38712699D01*
X6384571Y-38855556D02*
X6422667Y-38855556D01*
X6441714Y-38846032D01*
X6451238Y-38836509D01*
X6470286Y-38807937D01*
X6479809Y-38769842D01*
X6479809Y-38693651D01*
X6470286Y-38674604D01*
X6460762Y-38665080D01*
X6441714Y-38655556D01*
X6403619Y-38655556D01*
X6384571Y-38665080D01*
X6375048Y-38674604D01*
X6365524Y-38693651D01*
X6365524Y-38741270D01*
X6375048Y-38760318D01*
X6384571Y-38769842D01*
X6403619Y-38779366D01*
X6441714Y-38779366D01*
X6460762Y-38769842D01*
X6470286Y-38760318D01*
X6479809Y-38741270D01*
X6546476Y-38655556D02*
X6679809Y-38655556D01*
X6594095Y-38855556D01*
X6746476Y-38655556D02*
X6746476Y-38693651D01*
X6822667Y-38655556D02*
X6822667Y-38693651D01*
X7117905Y-38931747D02*
X7108381Y-38922223D01*
X7089333Y-38893651D01*
X7079809Y-38874604D01*
X7070286Y-38846032D01*
X7060762Y-38798413D01*
X7060762Y-38760318D01*
X7070286Y-38712699D01*
X7079809Y-38684128D01*
X7089333Y-38665080D01*
X7108381Y-38636509D01*
X7117905Y-38626985D01*
X7232190Y-38655556D02*
X7251238Y-38655556D01*
X7270286Y-38665080D01*
X7279809Y-38674604D01*
X7289333Y-38693651D01*
X7298857Y-38731747D01*
X7298857Y-38779366D01*
X7289333Y-38817461D01*
X7279809Y-38836509D01*
X7270286Y-38846032D01*
X7251238Y-38855556D01*
X7232190Y-38855556D01*
X7213143Y-38846032D01*
X7203619Y-38836509D01*
X7194095Y-38817461D01*
X7184571Y-38779366D01*
X7184571Y-38731747D01*
X7194095Y-38693651D01*
X7203619Y-38674604D01*
X7213143Y-38665080D01*
X7232190Y-38655556D01*
X7536952Y-38855556D02*
X7536952Y-38655556D01*
X7622667Y-38855556D02*
X7622667Y-38750794D01*
X7613143Y-38731747D01*
X7594095Y-38722223D01*
X7565524Y-38722223D01*
X7546476Y-38731747D01*
X7536952Y-38741270D01*
X7746476Y-38855556D02*
X7727428Y-38846032D01*
X7717905Y-38836509D01*
X7708381Y-38817461D01*
X7708381Y-38760318D01*
X7717905Y-38741270D01*
X7727428Y-38731747D01*
X7746476Y-38722223D01*
X7775048Y-38722223D01*
X7794095Y-38731747D01*
X7803619Y-38741270D01*
X7813143Y-38760318D01*
X7813143Y-38817461D01*
X7803619Y-38836509D01*
X7794095Y-38846032D01*
X7775048Y-38855556D01*
X7746476Y-38855556D01*
X7927428Y-38855556D02*
X7908381Y-38846032D01*
X7898857Y-38826985D01*
X7898857Y-38655556D01*
X8079809Y-38846032D02*
X8060762Y-38855556D01*
X8022667Y-38855556D01*
X8003619Y-38846032D01*
X7994095Y-38826985D01*
X7994095Y-38750794D01*
X8003619Y-38731747D01*
X8022667Y-38722223D01*
X8060762Y-38722223D01*
X8079809Y-38731747D01*
X8089333Y-38750794D01*
X8089333Y-38769842D01*
X7994095Y-38788890D01*
X8165524Y-38846032D02*
X8184571Y-38855556D01*
X8222667Y-38855556D01*
X8241714Y-38846032D01*
X8251238Y-38826985D01*
X8251238Y-38817461D01*
X8241714Y-38798413D01*
X8222667Y-38788890D01*
X8194095Y-38788890D01*
X8175048Y-38779366D01*
X8165524Y-38760318D01*
X8165524Y-38750794D01*
X8175048Y-38731747D01*
X8194095Y-38722223D01*
X8222667Y-38722223D01*
X8241714Y-38731747D01*
X8489333Y-38779366D02*
X8641714Y-38779366D01*
X8565524Y-38855556D02*
X8565524Y-38703175D01*
X8994095Y-38855556D02*
X8879810Y-38855556D01*
X8936952Y-38855556D02*
X8936952Y-38655556D01*
X8917905Y-38684128D01*
X8898857Y-38703175D01*
X8879810Y-38712699D01*
X9165524Y-38655556D02*
X9127429Y-38655556D01*
X9108381Y-38665080D01*
X9098857Y-38674604D01*
X9079810Y-38703175D01*
X9070286Y-38741270D01*
X9070286Y-38817461D01*
X9079810Y-38836509D01*
X9089333Y-38846032D01*
X9108381Y-38855556D01*
X9146476Y-38855556D01*
X9165524Y-38846032D01*
X9175048Y-38836509D01*
X9184571Y-38817461D01*
X9184571Y-38769842D01*
X9175048Y-38750794D01*
X9165524Y-38741270D01*
X9146476Y-38731747D01*
X9108381Y-38731747D01*
X9089333Y-38741270D01*
X9079810Y-38750794D01*
X9070286Y-38769842D01*
X9413143Y-38846032D02*
X9432190Y-38855556D01*
X9470286Y-38855556D01*
X9489333Y-38846032D01*
X9498857Y-38826985D01*
X9498857Y-38817461D01*
X9489333Y-38798413D01*
X9470286Y-38788890D01*
X9441714Y-38788890D01*
X9422667Y-38779366D01*
X9413143Y-38760318D01*
X9413143Y-38750794D01*
X9422667Y-38731747D01*
X9441714Y-38722223D01*
X9470286Y-38722223D01*
X9489333Y-38731747D01*
X9613143Y-38855556D02*
X9594095Y-38846032D01*
X9584571Y-38826985D01*
X9584571Y-38655556D01*
X9717905Y-38855556D02*
X9698857Y-38846032D01*
X9689333Y-38836509D01*
X9679810Y-38817461D01*
X9679810Y-38760318D01*
X9689333Y-38741270D01*
X9698857Y-38731747D01*
X9717905Y-38722223D01*
X9746476Y-38722223D01*
X9765524Y-38731747D01*
X9775048Y-38741270D01*
X9784571Y-38760318D01*
X9784571Y-38817461D01*
X9775048Y-38836509D01*
X9765524Y-38846032D01*
X9746476Y-38855556D01*
X9717905Y-38855556D01*
X9841714Y-38722223D02*
X9917905Y-38722223D01*
X9870286Y-38655556D02*
X9870286Y-38826985D01*
X9879810Y-38846032D01*
X9898857Y-38855556D01*
X9917905Y-38855556D01*
X9975048Y-38846032D02*
X9994095Y-38855556D01*
X10032190Y-38855556D01*
X10051238Y-38846032D01*
X10060762Y-38826985D01*
X10060762Y-38817461D01*
X10051238Y-38798413D01*
X10032190Y-38788890D01*
X10003619Y-38788890D01*
X9984571Y-38779366D01*
X9975048Y-38760318D01*
X9975048Y-38750794D01*
X9984571Y-38731747D01*
X10003619Y-38722223D01*
X10032190Y-38722223D01*
X10051238Y-38731747D01*
X10127429Y-38931747D02*
X10136952Y-38922223D01*
X10156000Y-38893651D01*
X10165524Y-38874604D01*
X10175048Y-38846032D01*
X10184571Y-38798413D01*
X10184571Y-38760318D01*
X10175048Y-38712699D01*
X10165524Y-38684128D01*
X10156000Y-38665080D01*
X10136952Y-38636509D01*
X10127429Y-38626985D01*
D14*
X3516000Y-38999080D02*
X3516000Y-39059080D01*
X3486000Y-39029080D02*
X3546000Y-39029080D01*
D11*
X3841714Y-38919556D02*
X3860762Y-38919556D01*
X3879809Y-38929080D01*
X3889333Y-38938604D01*
X3898857Y-38957651D01*
X3908381Y-38995747D01*
X3908381Y-39043366D01*
X3898857Y-39081461D01*
X3889333Y-39100509D01*
X3879809Y-39110032D01*
X3860762Y-39119556D01*
X3841714Y-39119556D01*
X3822667Y-39110032D01*
X3813143Y-39100509D01*
X3803619Y-39081461D01*
X3794095Y-39043366D01*
X3794095Y-38995747D01*
X3803619Y-38957651D01*
X3813143Y-38938604D01*
X3822667Y-38929080D01*
X3841714Y-38919556D01*
X3994095Y-39100509D02*
X4003619Y-39110032D01*
X3994095Y-39119556D01*
X3984571Y-39110032D01*
X3994095Y-39100509D01*
X3994095Y-39119556D01*
X4175048Y-38919556D02*
X4136952Y-38919556D01*
X4117905Y-38929080D01*
X4108381Y-38938604D01*
X4089333Y-38967175D01*
X4079809Y-39005270D01*
X4079809Y-39081461D01*
X4089333Y-39100509D01*
X4098857Y-39110032D01*
X4117905Y-39119556D01*
X4156000Y-39119556D01*
X4175048Y-39110032D01*
X4184571Y-39100509D01*
X4194095Y-39081461D01*
X4194095Y-39033842D01*
X4184571Y-39014794D01*
X4175048Y-39005270D01*
X4156000Y-38995747D01*
X4117905Y-38995747D01*
X4098857Y-39005270D01*
X4089333Y-39014794D01*
X4079809Y-39033842D01*
X4317905Y-38919556D02*
X4336952Y-38919556D01*
X4356000Y-38929080D01*
X4365524Y-38938604D01*
X4375048Y-38957651D01*
X4384571Y-38995747D01*
X4384571Y-39043366D01*
X4375048Y-39081461D01*
X4365524Y-39100509D01*
X4356000Y-39110032D01*
X4336952Y-39119556D01*
X4317905Y-39119556D01*
X4298857Y-39110032D01*
X4289333Y-39100509D01*
X4279810Y-39081461D01*
X4270286Y-39043366D01*
X4270286Y-38995747D01*
X4279810Y-38957651D01*
X4289333Y-38938604D01*
X4298857Y-38929080D01*
X4317905Y-38919556D01*
X4508381Y-38919556D02*
X4527429Y-38919556D01*
X4546476Y-38929080D01*
X4556000Y-38938604D01*
X4565524Y-38957651D01*
X4575048Y-38995747D01*
X4575048Y-39043366D01*
X4565524Y-39081461D01*
X4556000Y-39100509D01*
X4546476Y-39110032D01*
X4527429Y-39119556D01*
X4508381Y-39119556D01*
X4489333Y-39110032D01*
X4479810Y-39100509D01*
X4470286Y-39081461D01*
X4460762Y-39043366D01*
X4460762Y-38995747D01*
X4470286Y-38957651D01*
X4479810Y-38938604D01*
X4489333Y-38929080D01*
X4508381Y-38919556D01*
X4660762Y-39119556D02*
X4660762Y-38986223D01*
X4660762Y-39005270D02*
X4670286Y-38995747D01*
X4689333Y-38986223D01*
X4717905Y-38986223D01*
X4736952Y-38995747D01*
X4746476Y-39014794D01*
X4746476Y-39119556D01*
X4746476Y-39014794D02*
X4756000Y-38995747D01*
X4775048Y-38986223D01*
X4803619Y-38986223D01*
X4822667Y-38995747D01*
X4832190Y-39014794D01*
X4832190Y-39119556D01*
X4927429Y-39119556D02*
X4927429Y-38986223D01*
X4927429Y-39005270D02*
X4936952Y-38995747D01*
X4956000Y-38986223D01*
X4984571Y-38986223D01*
X5003619Y-38995747D01*
X5013143Y-39014794D01*
X5013143Y-39119556D01*
X5013143Y-39014794D02*
X5022667Y-38995747D01*
X5041714Y-38986223D01*
X5070286Y-38986223D01*
X5089333Y-38995747D01*
X5098857Y-39014794D01*
X5098857Y-39119556D01*
X5489333Y-38910032D02*
X5317905Y-39167175D01*
X5746476Y-38919556D02*
X5765524Y-38919556D01*
X5784571Y-38929080D01*
X5794095Y-38938604D01*
X5803619Y-38957651D01*
X5813143Y-38995747D01*
X5813143Y-39043366D01*
X5803619Y-39081461D01*
X5794095Y-39100509D01*
X5784571Y-39110032D01*
X5765524Y-39119556D01*
X5746476Y-39119556D01*
X5727428Y-39110032D01*
X5717905Y-39100509D01*
X5708381Y-39081461D01*
X5698857Y-39043366D01*
X5698857Y-38995747D01*
X5708381Y-38957651D01*
X5717905Y-38938604D01*
X5727428Y-38929080D01*
X5746476Y-38919556D01*
X5898857Y-39100509D02*
X5908381Y-39110032D01*
X5898857Y-39119556D01*
X5889333Y-39110032D01*
X5898857Y-39100509D01*
X5898857Y-39119556D01*
X6032190Y-38919556D02*
X6051238Y-38919556D01*
X6070286Y-38929080D01*
X6079809Y-38938604D01*
X6089333Y-38957651D01*
X6098857Y-38995747D01*
X6098857Y-39043366D01*
X6089333Y-39081461D01*
X6079809Y-39100509D01*
X6070286Y-39110032D01*
X6051238Y-39119556D01*
X6032190Y-39119556D01*
X6013143Y-39110032D01*
X6003619Y-39100509D01*
X5994095Y-39081461D01*
X5984571Y-39043366D01*
X5984571Y-38995747D01*
X5994095Y-38957651D01*
X6003619Y-38938604D01*
X6013143Y-38929080D01*
X6032190Y-38919556D01*
X6175048Y-38938604D02*
X6184571Y-38929080D01*
X6203619Y-38919556D01*
X6251238Y-38919556D01*
X6270286Y-38929080D01*
X6279809Y-38938604D01*
X6289333Y-38957651D01*
X6289333Y-38976699D01*
X6279809Y-39005270D01*
X6165524Y-39119556D01*
X6289333Y-39119556D01*
X6356000Y-38919556D02*
X6479809Y-38919556D01*
X6413143Y-38995747D01*
X6441714Y-38995747D01*
X6460762Y-39005270D01*
X6470286Y-39014794D01*
X6479809Y-39033842D01*
X6479809Y-39081461D01*
X6470286Y-39100509D01*
X6460762Y-39110032D01*
X6441714Y-39119556D01*
X6384571Y-39119556D01*
X6365524Y-39110032D01*
X6356000Y-39100509D01*
X6651238Y-38919556D02*
X6613143Y-38919556D01*
X6594095Y-38929080D01*
X6584571Y-38938604D01*
X6565524Y-38967175D01*
X6556000Y-39005270D01*
X6556000Y-39081461D01*
X6565524Y-39100509D01*
X6575048Y-39110032D01*
X6594095Y-39119556D01*
X6632190Y-39119556D01*
X6651238Y-39110032D01*
X6660762Y-39100509D01*
X6670286Y-39081461D01*
X6670286Y-39033842D01*
X6660762Y-39014794D01*
X6651238Y-39005270D01*
X6632190Y-38995747D01*
X6594095Y-38995747D01*
X6575048Y-39005270D01*
X6565524Y-39014794D01*
X6556000Y-39033842D01*
X6746476Y-38919556D02*
X6746476Y-38957651D01*
X6822667Y-38919556D02*
X6822667Y-38957651D01*
X7117905Y-39195747D02*
X7108381Y-39186223D01*
X7089333Y-39157651D01*
X7079809Y-39138604D01*
X7070286Y-39110032D01*
X7060762Y-39062413D01*
X7060762Y-39024318D01*
X7070286Y-38976699D01*
X7079809Y-38948128D01*
X7089333Y-38929080D01*
X7108381Y-38900509D01*
X7117905Y-38890985D01*
X7232190Y-38919556D02*
X7251238Y-38919556D01*
X7270286Y-38929080D01*
X7279809Y-38938604D01*
X7289333Y-38957651D01*
X7298857Y-38995747D01*
X7298857Y-39043366D01*
X7289333Y-39081461D01*
X7279809Y-39100509D01*
X7270286Y-39110032D01*
X7251238Y-39119556D01*
X7232190Y-39119556D01*
X7213143Y-39110032D01*
X7203619Y-39100509D01*
X7194095Y-39081461D01*
X7184571Y-39043366D01*
X7184571Y-38995747D01*
X7194095Y-38957651D01*
X7203619Y-38938604D01*
X7213143Y-38929080D01*
X7232190Y-38919556D01*
X7536952Y-39119556D02*
X7536952Y-38919556D01*
X7622667Y-39119556D02*
X7622667Y-39014794D01*
X7613143Y-38995747D01*
X7594095Y-38986223D01*
X7565524Y-38986223D01*
X7546476Y-38995747D01*
X7536952Y-39005270D01*
X7746476Y-39119556D02*
X7727428Y-39110032D01*
X7717905Y-39100509D01*
X7708381Y-39081461D01*
X7708381Y-39024318D01*
X7717905Y-39005270D01*
X7727428Y-38995747D01*
X7746476Y-38986223D01*
X7775048Y-38986223D01*
X7794095Y-38995747D01*
X7803619Y-39005270D01*
X7813143Y-39024318D01*
X7813143Y-39081461D01*
X7803619Y-39100509D01*
X7794095Y-39110032D01*
X7775048Y-39119556D01*
X7746476Y-39119556D01*
X7927428Y-39119556D02*
X7908381Y-39110032D01*
X7898857Y-39090985D01*
X7898857Y-38919556D01*
X8079809Y-39110032D02*
X8060762Y-39119556D01*
X8022667Y-39119556D01*
X8003619Y-39110032D01*
X7994095Y-39090985D01*
X7994095Y-39014794D01*
X8003619Y-38995747D01*
X8022667Y-38986223D01*
X8060762Y-38986223D01*
X8079809Y-38995747D01*
X8089333Y-39014794D01*
X8089333Y-39033842D01*
X7994095Y-39052890D01*
X8165524Y-39110032D02*
X8184571Y-39119556D01*
X8222667Y-39119556D01*
X8241714Y-39110032D01*
X8251238Y-39090985D01*
X8251238Y-39081461D01*
X8241714Y-39062413D01*
X8222667Y-39052890D01*
X8194095Y-39052890D01*
X8175048Y-39043366D01*
X8165524Y-39024318D01*
X8165524Y-39014794D01*
X8175048Y-38995747D01*
X8194095Y-38986223D01*
X8222667Y-38986223D01*
X8241714Y-38995747D01*
X8489333Y-39043366D02*
X8641714Y-39043366D01*
X8565524Y-39119556D02*
X8565524Y-38967175D01*
X8870286Y-38919556D02*
X8994095Y-38919556D01*
X8927429Y-38995747D01*
X8956000Y-38995747D01*
X8975048Y-39005270D01*
X8984571Y-39014794D01*
X8994095Y-39033842D01*
X8994095Y-39081461D01*
X8984571Y-39100509D01*
X8975048Y-39110032D01*
X8956000Y-39119556D01*
X8898857Y-39119556D01*
X8879810Y-39110032D01*
X8870286Y-39100509D01*
X9070286Y-38938604D02*
X9079810Y-38929080D01*
X9098857Y-38919556D01*
X9146476Y-38919556D01*
X9165524Y-38929080D01*
X9175048Y-38938604D01*
X9184571Y-38957651D01*
X9184571Y-38976699D01*
X9175048Y-39005270D01*
X9060762Y-39119556D01*
X9184571Y-39119556D01*
X9413143Y-39110032D02*
X9432190Y-39119556D01*
X9470286Y-39119556D01*
X9489333Y-39110032D01*
X9498857Y-39090985D01*
X9498857Y-39081461D01*
X9489333Y-39062413D01*
X9470286Y-39052890D01*
X9441714Y-39052890D01*
X9422667Y-39043366D01*
X9413143Y-39024318D01*
X9413143Y-39014794D01*
X9422667Y-38995747D01*
X9441714Y-38986223D01*
X9470286Y-38986223D01*
X9489333Y-38995747D01*
X9613143Y-39119556D02*
X9594095Y-39110032D01*
X9584571Y-39090985D01*
X9584571Y-38919556D01*
X9717905Y-39119556D02*
X9698857Y-39110032D01*
X9689333Y-39100509D01*
X9679810Y-39081461D01*
X9679810Y-39024318D01*
X9689333Y-39005270D01*
X9698857Y-38995747D01*
X9717905Y-38986223D01*
X9746476Y-38986223D01*
X9765524Y-38995747D01*
X9775048Y-39005270D01*
X9784571Y-39024318D01*
X9784571Y-39081461D01*
X9775048Y-39100509D01*
X9765524Y-39110032D01*
X9746476Y-39119556D01*
X9717905Y-39119556D01*
X9841714Y-38986223D02*
X9917905Y-38986223D01*
X9870286Y-38919556D02*
X9870286Y-39090985D01*
X9879810Y-39110032D01*
X9898857Y-39119556D01*
X9917905Y-39119556D01*
X9975048Y-39110032D02*
X9994095Y-39119556D01*
X10032190Y-39119556D01*
X10051238Y-39110032D01*
X10060762Y-39090985D01*
X10060762Y-39081461D01*
X10051238Y-39062413D01*
X10032190Y-39052890D01*
X10003619Y-39052890D01*
X9984571Y-39043366D01*
X9975048Y-39024318D01*
X9975048Y-39014794D01*
X9984571Y-38995747D01*
X10003619Y-38986223D01*
X10032190Y-38986223D01*
X10051238Y-38995747D01*
X10127429Y-39195747D02*
X10136952Y-39186223D01*
X10156000Y-39157651D01*
X10165524Y-39138604D01*
X10175048Y-39110032D01*
X10184571Y-39062413D01*
X10184571Y-39024318D01*
X10175048Y-38976699D01*
X10165524Y-38948128D01*
X10156000Y-38929080D01*
X10136952Y-38900509D01*
X10127429Y-38890985D01*
D15*
X3534841Y-39320021D02*
X3534841Y-39266139D01*
X3480959Y-39266139D01*
X3480959Y-39320021D01*
X3534841Y-39320021D01*
D11*
X3841714Y-39183556D02*
X3860762Y-39183556D01*
X3879809Y-39193080D01*
X3889333Y-39202604D01*
X3898857Y-39221651D01*
X3908381Y-39259747D01*
X3908381Y-39307366D01*
X3898857Y-39345461D01*
X3889333Y-39364509D01*
X3879809Y-39374032D01*
X3860762Y-39383556D01*
X3841714Y-39383556D01*
X3822667Y-39374032D01*
X3813143Y-39364509D01*
X3803619Y-39345461D01*
X3794095Y-39307366D01*
X3794095Y-39259747D01*
X3803619Y-39221651D01*
X3813143Y-39202604D01*
X3822667Y-39193080D01*
X3841714Y-39183556D01*
X3994095Y-39364509D02*
X4003619Y-39374032D01*
X3994095Y-39383556D01*
X3984571Y-39374032D01*
X3994095Y-39364509D01*
X3994095Y-39383556D01*
X4070286Y-39183556D02*
X4203619Y-39183556D01*
X4117905Y-39383556D01*
X4365524Y-39183556D02*
X4327429Y-39183556D01*
X4308381Y-39193080D01*
X4298857Y-39202604D01*
X4279810Y-39231175D01*
X4270286Y-39269270D01*
X4270286Y-39345461D01*
X4279810Y-39364509D01*
X4289333Y-39374032D01*
X4308381Y-39383556D01*
X4346476Y-39383556D01*
X4365524Y-39374032D01*
X4375048Y-39364509D01*
X4384571Y-39345461D01*
X4384571Y-39297842D01*
X4375048Y-39278794D01*
X4365524Y-39269270D01*
X4346476Y-39259747D01*
X4308381Y-39259747D01*
X4289333Y-39269270D01*
X4279810Y-39278794D01*
X4270286Y-39297842D01*
X4460762Y-39202604D02*
X4470286Y-39193080D01*
X4489333Y-39183556D01*
X4536952Y-39183556D01*
X4556000Y-39193080D01*
X4565524Y-39202604D01*
X4575048Y-39221651D01*
X4575048Y-39240699D01*
X4565524Y-39269270D01*
X4451238Y-39383556D01*
X4575048Y-39383556D01*
X4660762Y-39383556D02*
X4660762Y-39250223D01*
X4660762Y-39269270D02*
X4670286Y-39259747D01*
X4689333Y-39250223D01*
X4717905Y-39250223D01*
X4736952Y-39259747D01*
X4746476Y-39278794D01*
X4746476Y-39383556D01*
X4746476Y-39278794D02*
X4756000Y-39259747D01*
X4775048Y-39250223D01*
X4803619Y-39250223D01*
X4822667Y-39259747D01*
X4832190Y-39278794D01*
X4832190Y-39383556D01*
X4927429Y-39383556D02*
X4927429Y-39250223D01*
X4927429Y-39269270D02*
X4936952Y-39259747D01*
X4956000Y-39250223D01*
X4984571Y-39250223D01*
X5003619Y-39259747D01*
X5013143Y-39278794D01*
X5013143Y-39383556D01*
X5013143Y-39278794D02*
X5022667Y-39259747D01*
X5041714Y-39250223D01*
X5070286Y-39250223D01*
X5089333Y-39259747D01*
X5098857Y-39278794D01*
X5098857Y-39383556D01*
X5489333Y-39174032D02*
X5317905Y-39431175D01*
X5746476Y-39183556D02*
X5765524Y-39183556D01*
X5784571Y-39193080D01*
X5794095Y-39202604D01*
X5803619Y-39221651D01*
X5813143Y-39259747D01*
X5813143Y-39307366D01*
X5803619Y-39345461D01*
X5794095Y-39364509D01*
X5784571Y-39374032D01*
X5765524Y-39383556D01*
X5746476Y-39383556D01*
X5727428Y-39374032D01*
X5717905Y-39364509D01*
X5708381Y-39345461D01*
X5698857Y-39307366D01*
X5698857Y-39259747D01*
X5708381Y-39221651D01*
X5717905Y-39202604D01*
X5727428Y-39193080D01*
X5746476Y-39183556D01*
X5898857Y-39364509D02*
X5908381Y-39374032D01*
X5898857Y-39383556D01*
X5889333Y-39374032D01*
X5898857Y-39364509D01*
X5898857Y-39383556D01*
X6032190Y-39183556D02*
X6051238Y-39183556D01*
X6070286Y-39193080D01*
X6079809Y-39202604D01*
X6089333Y-39221651D01*
X6098857Y-39259747D01*
X6098857Y-39307366D01*
X6089333Y-39345461D01*
X6079809Y-39364509D01*
X6070286Y-39374032D01*
X6051238Y-39383556D01*
X6032190Y-39383556D01*
X6013143Y-39374032D01*
X6003619Y-39364509D01*
X5994095Y-39345461D01*
X5984571Y-39307366D01*
X5984571Y-39259747D01*
X5994095Y-39221651D01*
X6003619Y-39202604D01*
X6013143Y-39193080D01*
X6032190Y-39183556D01*
X6165524Y-39183556D02*
X6289333Y-39183556D01*
X6222667Y-39259747D01*
X6251238Y-39259747D01*
X6270286Y-39269270D01*
X6279809Y-39278794D01*
X6289333Y-39297842D01*
X6289333Y-39345461D01*
X6279809Y-39364509D01*
X6270286Y-39374032D01*
X6251238Y-39383556D01*
X6194095Y-39383556D01*
X6175048Y-39374032D01*
X6165524Y-39364509D01*
X6413143Y-39183556D02*
X6432190Y-39183556D01*
X6451238Y-39193080D01*
X6460762Y-39202604D01*
X6470286Y-39221651D01*
X6479809Y-39259747D01*
X6479809Y-39307366D01*
X6470286Y-39345461D01*
X6460762Y-39364509D01*
X6451238Y-39374032D01*
X6432190Y-39383556D01*
X6413143Y-39383556D01*
X6394095Y-39374032D01*
X6384571Y-39364509D01*
X6375048Y-39345461D01*
X6365524Y-39307366D01*
X6365524Y-39259747D01*
X6375048Y-39221651D01*
X6384571Y-39202604D01*
X6394095Y-39193080D01*
X6413143Y-39183556D01*
X6603619Y-39183556D02*
X6622667Y-39183556D01*
X6641714Y-39193080D01*
X6651238Y-39202604D01*
X6660762Y-39221651D01*
X6670286Y-39259747D01*
X6670286Y-39307366D01*
X6660762Y-39345461D01*
X6651238Y-39364509D01*
X6641714Y-39374032D01*
X6622667Y-39383556D01*
X6603619Y-39383556D01*
X6584571Y-39374032D01*
X6575048Y-39364509D01*
X6565524Y-39345461D01*
X6556000Y-39307366D01*
X6556000Y-39259747D01*
X6565524Y-39221651D01*
X6575048Y-39202604D01*
X6584571Y-39193080D01*
X6603619Y-39183556D01*
X6746476Y-39183556D02*
X6746476Y-39221651D01*
X6822667Y-39183556D02*
X6822667Y-39221651D01*
X7117905Y-39459747D02*
X7108381Y-39450223D01*
X7089333Y-39421651D01*
X7079809Y-39402604D01*
X7070286Y-39374032D01*
X7060762Y-39326413D01*
X7060762Y-39288318D01*
X7070286Y-39240699D01*
X7079809Y-39212128D01*
X7089333Y-39193080D01*
X7108381Y-39164509D01*
X7117905Y-39154985D01*
X7279809Y-39250223D02*
X7279809Y-39383556D01*
X7232190Y-39174032D02*
X7184571Y-39316890D01*
X7308381Y-39316890D01*
X7470286Y-39183556D02*
X7432190Y-39183556D01*
X7413143Y-39193080D01*
X7403619Y-39202604D01*
X7384571Y-39231175D01*
X7375048Y-39269270D01*
X7375048Y-39345461D01*
X7384571Y-39364509D01*
X7394095Y-39374032D01*
X7413143Y-39383556D01*
X7451238Y-39383556D01*
X7470286Y-39374032D01*
X7479809Y-39364509D01*
X7489333Y-39345461D01*
X7489333Y-39297842D01*
X7479809Y-39278794D01*
X7470286Y-39269270D01*
X7451238Y-39259747D01*
X7413143Y-39259747D01*
X7394095Y-39269270D01*
X7384571Y-39278794D01*
X7375048Y-39297842D01*
X7727428Y-39383556D02*
X7727428Y-39183556D01*
X7813143Y-39383556D02*
X7813143Y-39278794D01*
X7803619Y-39259747D01*
X7784571Y-39250223D01*
X7756000Y-39250223D01*
X7736952Y-39259747D01*
X7727428Y-39269270D01*
X7936952Y-39383556D02*
X7917905Y-39374032D01*
X7908381Y-39364509D01*
X7898857Y-39345461D01*
X7898857Y-39288318D01*
X7908381Y-39269270D01*
X7917905Y-39259747D01*
X7936952Y-39250223D01*
X7965524Y-39250223D01*
X7984571Y-39259747D01*
X7994095Y-39269270D01*
X8003619Y-39288318D01*
X8003619Y-39345461D01*
X7994095Y-39364509D01*
X7984571Y-39374032D01*
X7965524Y-39383556D01*
X7936952Y-39383556D01*
X8117905Y-39383556D02*
X8098857Y-39374032D01*
X8089333Y-39354985D01*
X8089333Y-39183556D01*
X8270286Y-39374032D02*
X8251238Y-39383556D01*
X8213143Y-39383556D01*
X8194095Y-39374032D01*
X8184571Y-39354985D01*
X8184571Y-39278794D01*
X8194095Y-39259747D01*
X8213143Y-39250223D01*
X8251238Y-39250223D01*
X8270286Y-39259747D01*
X8279809Y-39278794D01*
X8279809Y-39297842D01*
X8184571Y-39316890D01*
X8356000Y-39374032D02*
X8375048Y-39383556D01*
X8413143Y-39383556D01*
X8432190Y-39374032D01*
X8441714Y-39354985D01*
X8441714Y-39345461D01*
X8432190Y-39326413D01*
X8413143Y-39316890D01*
X8384571Y-39316890D01*
X8365524Y-39307366D01*
X8356000Y-39288318D01*
X8356000Y-39278794D01*
X8365524Y-39259747D01*
X8384571Y-39250223D01*
X8413143Y-39250223D01*
X8432190Y-39259747D01*
X8508381Y-39459747D02*
X8517905Y-39450223D01*
X8536952Y-39421651D01*
X8546476Y-39402604D01*
X8556000Y-39374032D01*
X8565524Y-39326413D01*
X8565524Y-39288318D01*
X8556000Y-39240699D01*
X8546476Y-39212128D01*
X8536952Y-39193080D01*
X8517905Y-39164509D01*
X8508381Y-39154985D01*
D16*
X3496000Y-39607080D02*
X3546000Y-39557080D01*
X3496000Y-39507080D01*
X3446000Y-39557080D01*
X3496000Y-39607080D01*
D11*
X3908381Y-39647556D02*
X3794095Y-39647556D01*
X3851238Y-39647556D02*
X3851238Y-39447556D01*
X3832190Y-39476128D01*
X3813143Y-39495175D01*
X3794095Y-39504699D01*
X3994095Y-39628509D02*
X4003619Y-39638032D01*
X3994095Y-39647556D01*
X3984571Y-39638032D01*
X3994095Y-39628509D01*
X3994095Y-39647556D01*
X4127428Y-39447556D02*
X4146476Y-39447556D01*
X4165524Y-39457080D01*
X4175048Y-39466604D01*
X4184571Y-39485651D01*
X4194095Y-39523747D01*
X4194095Y-39571366D01*
X4184571Y-39609461D01*
X4175048Y-39628509D01*
X4165524Y-39638032D01*
X4146476Y-39647556D01*
X4127428Y-39647556D01*
X4108381Y-39638032D01*
X4098857Y-39628509D01*
X4089333Y-39609461D01*
X4079809Y-39571366D01*
X4079809Y-39523747D01*
X4089333Y-39485651D01*
X4098857Y-39466604D01*
X4108381Y-39457080D01*
X4127428Y-39447556D01*
X4317905Y-39447556D02*
X4336952Y-39447556D01*
X4356000Y-39457080D01*
X4365524Y-39466604D01*
X4375048Y-39485651D01*
X4384571Y-39523747D01*
X4384571Y-39571366D01*
X4375048Y-39609461D01*
X4365524Y-39628509D01*
X4356000Y-39638032D01*
X4336952Y-39647556D01*
X4317905Y-39647556D01*
X4298857Y-39638032D01*
X4289333Y-39628509D01*
X4279810Y-39609461D01*
X4270286Y-39571366D01*
X4270286Y-39523747D01*
X4279810Y-39485651D01*
X4289333Y-39466604D01*
X4298857Y-39457080D01*
X4317905Y-39447556D01*
X4508381Y-39447556D02*
X4527429Y-39447556D01*
X4546476Y-39457080D01*
X4556000Y-39466604D01*
X4565524Y-39485651D01*
X4575048Y-39523747D01*
X4575048Y-39571366D01*
X4565524Y-39609461D01*
X4556000Y-39628509D01*
X4546476Y-39638032D01*
X4527429Y-39647556D01*
X4508381Y-39647556D01*
X4489333Y-39638032D01*
X4479810Y-39628509D01*
X4470286Y-39609461D01*
X4460762Y-39571366D01*
X4460762Y-39523747D01*
X4470286Y-39485651D01*
X4479810Y-39466604D01*
X4489333Y-39457080D01*
X4508381Y-39447556D01*
X4660762Y-39647556D02*
X4660762Y-39514223D01*
X4660762Y-39533270D02*
X4670286Y-39523747D01*
X4689333Y-39514223D01*
X4717905Y-39514223D01*
X4736952Y-39523747D01*
X4746476Y-39542794D01*
X4746476Y-39647556D01*
X4746476Y-39542794D02*
X4756000Y-39523747D01*
X4775048Y-39514223D01*
X4803619Y-39514223D01*
X4822667Y-39523747D01*
X4832190Y-39542794D01*
X4832190Y-39647556D01*
X4927429Y-39647556D02*
X4927429Y-39514223D01*
X4927429Y-39533270D02*
X4936952Y-39523747D01*
X4956000Y-39514223D01*
X4984571Y-39514223D01*
X5003619Y-39523747D01*
X5013143Y-39542794D01*
X5013143Y-39647556D01*
X5013143Y-39542794D02*
X5022667Y-39523747D01*
X5041714Y-39514223D01*
X5070286Y-39514223D01*
X5089333Y-39523747D01*
X5098857Y-39542794D01*
X5098857Y-39647556D01*
X5489333Y-39438032D02*
X5317905Y-39695175D01*
X5746476Y-39447556D02*
X5765524Y-39447556D01*
X5784571Y-39457080D01*
X5794095Y-39466604D01*
X5803619Y-39485651D01*
X5813143Y-39523747D01*
X5813143Y-39571366D01*
X5803619Y-39609461D01*
X5794095Y-39628509D01*
X5784571Y-39638032D01*
X5765524Y-39647556D01*
X5746476Y-39647556D01*
X5727428Y-39638032D01*
X5717905Y-39628509D01*
X5708381Y-39609461D01*
X5698857Y-39571366D01*
X5698857Y-39523747D01*
X5708381Y-39485651D01*
X5717905Y-39466604D01*
X5727428Y-39457080D01*
X5746476Y-39447556D01*
X5898857Y-39628509D02*
X5908381Y-39638032D01*
X5898857Y-39647556D01*
X5889333Y-39638032D01*
X5898857Y-39628509D01*
X5898857Y-39647556D01*
X6032190Y-39447556D02*
X6051238Y-39447556D01*
X6070286Y-39457080D01*
X6079809Y-39466604D01*
X6089333Y-39485651D01*
X6098857Y-39523747D01*
X6098857Y-39571366D01*
X6089333Y-39609461D01*
X6079809Y-39628509D01*
X6070286Y-39638032D01*
X6051238Y-39647556D01*
X6032190Y-39647556D01*
X6013143Y-39638032D01*
X6003619Y-39628509D01*
X5994095Y-39609461D01*
X5984571Y-39571366D01*
X5984571Y-39523747D01*
X5994095Y-39485651D01*
X6003619Y-39466604D01*
X6013143Y-39457080D01*
X6032190Y-39447556D01*
X6165524Y-39447556D02*
X6289333Y-39447556D01*
X6222667Y-39523747D01*
X6251238Y-39523747D01*
X6270286Y-39533270D01*
X6279809Y-39542794D01*
X6289333Y-39561842D01*
X6289333Y-39609461D01*
X6279809Y-39628509D01*
X6270286Y-39638032D01*
X6251238Y-39647556D01*
X6194095Y-39647556D01*
X6175048Y-39638032D01*
X6165524Y-39628509D01*
X6384571Y-39647556D02*
X6422667Y-39647556D01*
X6441714Y-39638032D01*
X6451238Y-39628509D01*
X6470286Y-39599937D01*
X6479809Y-39561842D01*
X6479809Y-39485651D01*
X6470286Y-39466604D01*
X6460762Y-39457080D01*
X6441714Y-39447556D01*
X6403619Y-39447556D01*
X6384571Y-39457080D01*
X6375048Y-39466604D01*
X6365524Y-39485651D01*
X6365524Y-39533270D01*
X6375048Y-39552318D01*
X6384571Y-39561842D01*
X6403619Y-39571366D01*
X6441714Y-39571366D01*
X6460762Y-39561842D01*
X6470286Y-39552318D01*
X6479809Y-39533270D01*
X6651238Y-39514223D02*
X6651238Y-39647556D01*
X6603619Y-39438032D02*
X6556000Y-39580890D01*
X6679809Y-39580890D01*
X6746476Y-39447556D02*
X6746476Y-39485651D01*
X6822667Y-39447556D02*
X6822667Y-39485651D01*
X7117905Y-39723747D02*
X7108381Y-39714223D01*
X7089333Y-39685651D01*
X7079809Y-39666604D01*
X7070286Y-39638032D01*
X7060762Y-39590413D01*
X7060762Y-39552318D01*
X7070286Y-39504699D01*
X7079809Y-39476128D01*
X7089333Y-39457080D01*
X7108381Y-39428509D01*
X7117905Y-39418985D01*
X7298857Y-39647556D02*
X7184571Y-39647556D01*
X7241714Y-39647556D02*
X7241714Y-39447556D01*
X7222667Y-39476128D01*
X7203619Y-39495175D01*
X7184571Y-39504699D01*
X7489333Y-39647556D02*
X7375048Y-39647556D01*
X7432190Y-39647556D02*
X7432190Y-39447556D01*
X7413143Y-39476128D01*
X7394095Y-39495175D01*
X7375048Y-39504699D01*
X7670286Y-39447556D02*
X7575048Y-39447556D01*
X7565524Y-39542794D01*
X7575048Y-39533270D01*
X7594095Y-39523747D01*
X7641714Y-39523747D01*
X7660762Y-39533270D01*
X7670286Y-39542794D01*
X7679809Y-39561842D01*
X7679809Y-39609461D01*
X7670286Y-39628509D01*
X7660762Y-39638032D01*
X7641714Y-39647556D01*
X7594095Y-39647556D01*
X7575048Y-39638032D01*
X7565524Y-39628509D01*
X7917905Y-39647556D02*
X7917905Y-39447556D01*
X8003619Y-39647556D02*
X8003619Y-39542794D01*
X7994095Y-39523747D01*
X7975048Y-39514223D01*
X7946476Y-39514223D01*
X7927428Y-39523747D01*
X7917905Y-39533270D01*
X8127428Y-39647556D02*
X8108381Y-39638032D01*
X8098857Y-39628509D01*
X8089333Y-39609461D01*
X8089333Y-39552318D01*
X8098857Y-39533270D01*
X8108381Y-39523747D01*
X8127428Y-39514223D01*
X8156000Y-39514223D01*
X8175048Y-39523747D01*
X8184571Y-39533270D01*
X8194095Y-39552318D01*
X8194095Y-39609461D01*
X8184571Y-39628509D01*
X8175048Y-39638032D01*
X8156000Y-39647556D01*
X8127428Y-39647556D01*
X8308381Y-39647556D02*
X8289333Y-39638032D01*
X8279809Y-39618985D01*
X8279809Y-39447556D01*
X8460762Y-39638032D02*
X8441714Y-39647556D01*
X8403619Y-39647556D01*
X8384571Y-39638032D01*
X8375048Y-39618985D01*
X8375048Y-39542794D01*
X8384571Y-39523747D01*
X8403619Y-39514223D01*
X8441714Y-39514223D01*
X8460762Y-39523747D01*
X8470286Y-39542794D01*
X8470286Y-39561842D01*
X8375048Y-39580890D01*
X8546476Y-39638032D02*
X8565524Y-39647556D01*
X8603619Y-39647556D01*
X8622667Y-39638032D01*
X8632190Y-39618985D01*
X8632190Y-39609461D01*
X8622667Y-39590413D01*
X8603619Y-39580890D01*
X8575048Y-39580890D01*
X8556000Y-39571366D01*
X8546476Y-39552318D01*
X8546476Y-39542794D01*
X8556000Y-39523747D01*
X8575048Y-39514223D01*
X8603619Y-39514223D01*
X8622667Y-39523747D01*
X8698857Y-39723747D02*
X8708381Y-39714223D01*
X8727429Y-39685651D01*
X8736952Y-39666604D01*
X8746476Y-39638032D01*
X8756000Y-39590413D01*
X8756000Y-39552318D01*
X8746476Y-39504699D01*
X8736952Y-39476128D01*
X8727429Y-39457080D01*
X8708381Y-39428509D01*
X8698857Y-39418985D01*
D17*
X3366000Y-39731080D02*
X3546000Y-39911080D01*
X3546000Y-39731080D02*
X3366000Y-39911080D01*
X3546000Y-39821080D02*
G75*
G03*
X3546000Y-39821080I-90000J0D01*
G01*
D11*
X3908381Y-39911556D02*
X3794095Y-39911556D01*
X3851238Y-39911556D02*
X3851238Y-39711556D01*
X3832190Y-39740128D01*
X3813143Y-39759175D01*
X3794095Y-39768699D01*
X3994095Y-39892509D02*
X4003619Y-39902032D01*
X3994095Y-39911556D01*
X3984571Y-39902032D01*
X3994095Y-39892509D01*
X3994095Y-39911556D01*
X4117905Y-39797270D02*
X4098857Y-39787747D01*
X4089333Y-39778223D01*
X4079809Y-39759175D01*
X4079809Y-39749651D01*
X4089333Y-39730604D01*
X4098857Y-39721080D01*
X4117905Y-39711556D01*
X4156000Y-39711556D01*
X4175048Y-39721080D01*
X4184571Y-39730604D01*
X4194095Y-39749651D01*
X4194095Y-39759175D01*
X4184571Y-39778223D01*
X4175048Y-39787747D01*
X4156000Y-39797270D01*
X4117905Y-39797270D01*
X4098857Y-39806794D01*
X4089333Y-39816318D01*
X4079809Y-39835366D01*
X4079809Y-39873461D01*
X4089333Y-39892509D01*
X4098857Y-39902032D01*
X4117905Y-39911556D01*
X4156000Y-39911556D01*
X4175048Y-39902032D01*
X4184571Y-39892509D01*
X4194095Y-39873461D01*
X4194095Y-39835366D01*
X4184571Y-39816318D01*
X4175048Y-39806794D01*
X4156000Y-39797270D01*
X4317905Y-39711556D02*
X4336952Y-39711556D01*
X4356000Y-39721080D01*
X4365524Y-39730604D01*
X4375048Y-39749651D01*
X4384571Y-39787747D01*
X4384571Y-39835366D01*
X4375048Y-39873461D01*
X4365524Y-39892509D01*
X4356000Y-39902032D01*
X4336952Y-39911556D01*
X4317905Y-39911556D01*
X4298857Y-39902032D01*
X4289333Y-39892509D01*
X4279810Y-39873461D01*
X4270286Y-39835366D01*
X4270286Y-39787747D01*
X4279810Y-39749651D01*
X4289333Y-39730604D01*
X4298857Y-39721080D01*
X4317905Y-39711556D01*
X4508381Y-39711556D02*
X4527429Y-39711556D01*
X4546476Y-39721080D01*
X4556000Y-39730604D01*
X4565524Y-39749651D01*
X4575048Y-39787747D01*
X4575048Y-39835366D01*
X4565524Y-39873461D01*
X4556000Y-39892509D01*
X4546476Y-39902032D01*
X4527429Y-39911556D01*
X4508381Y-39911556D01*
X4489333Y-39902032D01*
X4479810Y-39892509D01*
X4470286Y-39873461D01*
X4460762Y-39835366D01*
X4460762Y-39787747D01*
X4470286Y-39749651D01*
X4479810Y-39730604D01*
X4489333Y-39721080D01*
X4508381Y-39711556D01*
X4660762Y-39911556D02*
X4660762Y-39778223D01*
X4660762Y-39797270D02*
X4670286Y-39787747D01*
X4689333Y-39778223D01*
X4717905Y-39778223D01*
X4736952Y-39787747D01*
X4746476Y-39806794D01*
X4746476Y-39911556D01*
X4746476Y-39806794D02*
X4756000Y-39787747D01*
X4775048Y-39778223D01*
X4803619Y-39778223D01*
X4822667Y-39787747D01*
X4832190Y-39806794D01*
X4832190Y-39911556D01*
X4927429Y-39911556D02*
X4927429Y-39778223D01*
X4927429Y-39797270D02*
X4936952Y-39787747D01*
X4956000Y-39778223D01*
X4984571Y-39778223D01*
X5003619Y-39787747D01*
X5013143Y-39806794D01*
X5013143Y-39911556D01*
X5013143Y-39806794D02*
X5022667Y-39787747D01*
X5041714Y-39778223D01*
X5070286Y-39778223D01*
X5089333Y-39787747D01*
X5098857Y-39806794D01*
X5098857Y-39911556D01*
X5489333Y-39702032D02*
X5317905Y-39959175D01*
X5746476Y-39711556D02*
X5765524Y-39711556D01*
X5784571Y-39721080D01*
X5794095Y-39730604D01*
X5803619Y-39749651D01*
X5813143Y-39787747D01*
X5813143Y-39835366D01*
X5803619Y-39873461D01*
X5794095Y-39892509D01*
X5784571Y-39902032D01*
X5765524Y-39911556D01*
X5746476Y-39911556D01*
X5727428Y-39902032D01*
X5717905Y-39892509D01*
X5708381Y-39873461D01*
X5698857Y-39835366D01*
X5698857Y-39787747D01*
X5708381Y-39749651D01*
X5717905Y-39730604D01*
X5727428Y-39721080D01*
X5746476Y-39711556D01*
X5898857Y-39892509D02*
X5908381Y-39902032D01*
X5898857Y-39911556D01*
X5889333Y-39902032D01*
X5898857Y-39892509D01*
X5898857Y-39911556D01*
X6032190Y-39711556D02*
X6051238Y-39711556D01*
X6070286Y-39721080D01*
X6079809Y-39730604D01*
X6089333Y-39749651D01*
X6098857Y-39787747D01*
X6098857Y-39835366D01*
X6089333Y-39873461D01*
X6079809Y-39892509D01*
X6070286Y-39902032D01*
X6051238Y-39911556D01*
X6032190Y-39911556D01*
X6013143Y-39902032D01*
X6003619Y-39892509D01*
X5994095Y-39873461D01*
X5984571Y-39835366D01*
X5984571Y-39787747D01*
X5994095Y-39749651D01*
X6003619Y-39730604D01*
X6013143Y-39721080D01*
X6032190Y-39711556D01*
X6165524Y-39711556D02*
X6298857Y-39711556D01*
X6213143Y-39911556D01*
X6413143Y-39711556D02*
X6432190Y-39711556D01*
X6451238Y-39721080D01*
X6460762Y-39730604D01*
X6470286Y-39749651D01*
X6479809Y-39787747D01*
X6479809Y-39835366D01*
X6470286Y-39873461D01*
X6460762Y-39892509D01*
X6451238Y-39902032D01*
X6432190Y-39911556D01*
X6413143Y-39911556D01*
X6394095Y-39902032D01*
X6384571Y-39892509D01*
X6375048Y-39873461D01*
X6365524Y-39835366D01*
X6365524Y-39787747D01*
X6375048Y-39749651D01*
X6384571Y-39730604D01*
X6394095Y-39721080D01*
X6413143Y-39711556D01*
X6575048Y-39911556D02*
X6613143Y-39911556D01*
X6632190Y-39902032D01*
X6641714Y-39892509D01*
X6660762Y-39863937D01*
X6670286Y-39825842D01*
X6670286Y-39749651D01*
X6660762Y-39730604D01*
X6651238Y-39721080D01*
X6632190Y-39711556D01*
X6594095Y-39711556D01*
X6575048Y-39721080D01*
X6565524Y-39730604D01*
X6556000Y-39749651D01*
X6556000Y-39797270D01*
X6565524Y-39816318D01*
X6575048Y-39825842D01*
X6594095Y-39835366D01*
X6632190Y-39835366D01*
X6651238Y-39825842D01*
X6660762Y-39816318D01*
X6670286Y-39797270D01*
X6746476Y-39711556D02*
X6746476Y-39749651D01*
X6822667Y-39711556D02*
X6822667Y-39749651D01*
X7117905Y-39987747D02*
X7108381Y-39978223D01*
X7089333Y-39949651D01*
X7079809Y-39930604D01*
X7070286Y-39902032D01*
X7060762Y-39854413D01*
X7060762Y-39816318D01*
X7070286Y-39768699D01*
X7079809Y-39740128D01*
X7089333Y-39721080D01*
X7108381Y-39692509D01*
X7117905Y-39682985D01*
X7298857Y-39911556D02*
X7184571Y-39911556D01*
X7241714Y-39911556D02*
X7241714Y-39711556D01*
X7222667Y-39740128D01*
X7203619Y-39759175D01*
X7184571Y-39768699D01*
X7470286Y-39711556D02*
X7432190Y-39711556D01*
X7413143Y-39721080D01*
X7403619Y-39730604D01*
X7384571Y-39759175D01*
X7375048Y-39797270D01*
X7375048Y-39873461D01*
X7384571Y-39892509D01*
X7394095Y-39902032D01*
X7413143Y-39911556D01*
X7451238Y-39911556D01*
X7470286Y-39902032D01*
X7479809Y-39892509D01*
X7489333Y-39873461D01*
X7489333Y-39825842D01*
X7479809Y-39806794D01*
X7470286Y-39797270D01*
X7451238Y-39787747D01*
X7413143Y-39787747D01*
X7394095Y-39797270D01*
X7384571Y-39806794D01*
X7375048Y-39825842D01*
X7727428Y-39911556D02*
X7727428Y-39711556D01*
X7813143Y-39911556D02*
X7813143Y-39806794D01*
X7803619Y-39787747D01*
X7784571Y-39778223D01*
X7756000Y-39778223D01*
X7736952Y-39787747D01*
X7727428Y-39797270D01*
X7936952Y-39911556D02*
X7917905Y-39902032D01*
X7908381Y-39892509D01*
X7898857Y-39873461D01*
X7898857Y-39816318D01*
X7908381Y-39797270D01*
X7917905Y-39787747D01*
X7936952Y-39778223D01*
X7965524Y-39778223D01*
X7984571Y-39787747D01*
X7994095Y-39797270D01*
X8003619Y-39816318D01*
X8003619Y-39873461D01*
X7994095Y-39892509D01*
X7984571Y-39902032D01*
X7965524Y-39911556D01*
X7936952Y-39911556D01*
X8117905Y-39911556D02*
X8098857Y-39902032D01*
X8089333Y-39882985D01*
X8089333Y-39711556D01*
X8270286Y-39902032D02*
X8251238Y-39911556D01*
X8213143Y-39911556D01*
X8194095Y-39902032D01*
X8184571Y-39882985D01*
X8184571Y-39806794D01*
X8194095Y-39787747D01*
X8213143Y-39778223D01*
X8251238Y-39778223D01*
X8270286Y-39787747D01*
X8279809Y-39806794D01*
X8279809Y-39825842D01*
X8184571Y-39844890D01*
X8356000Y-39902032D02*
X8375048Y-39911556D01*
X8413143Y-39911556D01*
X8432190Y-39902032D01*
X8441714Y-39882985D01*
X8441714Y-39873461D01*
X8432190Y-39854413D01*
X8413143Y-39844890D01*
X8384571Y-39844890D01*
X8365524Y-39835366D01*
X8356000Y-39816318D01*
X8356000Y-39806794D01*
X8365524Y-39787747D01*
X8384571Y-39778223D01*
X8413143Y-39778223D01*
X8432190Y-39787747D01*
X8508381Y-39987747D02*
X8517905Y-39978223D01*
X8536952Y-39949651D01*
X8546476Y-39930604D01*
X8556000Y-39902032D01*
X8565524Y-39854413D01*
X8565524Y-39816318D01*
X8556000Y-39768699D01*
X8546476Y-39740128D01*
X8536952Y-39721080D01*
X8517905Y-39692509D01*
X8508381Y-39682985D01*
M02*
