%TF.GenerationSoftware,KiCad,Pcbnew,(6.0.0-0)*%
%TF.CreationDate,2022-09-18T01:10:02-04:00*%
%TF.ProjectId,daisy_hardware_v1,64616973-795f-4686-9172-64776172655f,rev?*%
%TF.SameCoordinates,Original*%
%TF.FileFunction,Copper,L4,Bot*%
%TF.FilePolarity,Positive*%
%FSLAX46Y46*%
G04 Gerber Fmt 4.6, Leading zero omitted, Abs format (unit mm)*
G04 Created by KiCad (PCBNEW (6.0.0-0)) date 2022-09-18 01:10:02*
%MOMM*%
%LPD*%
G01*
G04 APERTURE LIST*
%TA.AperFunction,ComponentPad*%
%ADD10O,2.216000X1.108000*%
%TD*%
%TA.AperFunction,ComponentPad*%
%ADD11O,2.016000X1.008000*%
%TD*%
%TA.AperFunction,ComponentPad*%
%ADD12R,1.700000X1.700000*%
%TD*%
%TA.AperFunction,ComponentPad*%
%ADD13O,1.700000X1.700000*%
%TD*%
%TA.AperFunction,ComponentPad*%
%ADD14C,3.240000*%
%TD*%
%TA.AperFunction,ComponentPad*%
%ADD15R,1.800000X1.800000*%
%TD*%
%TA.AperFunction,ComponentPad*%
%ADD16C,1.800000*%
%TD*%
%TA.AperFunction,ComponentPad*%
%ADD17C,1.524000*%
%TD*%
%TA.AperFunction,ComponentPad*%
%ADD18R,2.300000X1.500000*%
%TD*%
%TA.AperFunction,ComponentPad*%
%ADD19O,2.300000X1.500000*%
%TD*%
%TA.AperFunction,ViaPad*%
%ADD20C,0.800000*%
%TD*%
%TA.AperFunction,Conductor*%
%ADD21C,0.381000*%
%TD*%
G04 APERTURE END LIST*
D10*
%TO.P,J13,1*%
%TO.N,GND*%
X107870333Y-294079999D03*
%TO.P,J13,2*%
X107870333Y-297179999D03*
D11*
%TO.P,J13,3*%
%TO.N,/CV_MORPH_A_TOP*%
X107870333Y-305479999D03*
%TD*%
D10*
%TO.P,J15,1*%
%TO.N,GND*%
X118443666Y-278244000D03*
%TO.P,J15,2*%
X118443666Y-281344000D03*
D11*
%TO.P,J15,3*%
%TO.N,/CV_RATE_B_TOP*%
X118443666Y-289644000D03*
%TD*%
D12*
%TO.P,J1,1,Pin_1*%
%TO.N,-12V*%
X39820000Y-306960000D03*
D13*
%TO.P,J1,2,Pin_2*%
X42360000Y-306960000D03*
%TO.P,J1,3,Pin_3*%
%TO.N,GND*%
X39820000Y-309500000D03*
%TO.P,J1,4,Pin_4*%
X42360000Y-309500000D03*
%TO.P,J1,5,Pin_5*%
X39820000Y-312040000D03*
%TO.P,J1,6,Pin_6*%
X42360000Y-312040000D03*
%TO.P,J1,7,Pin_7*%
X39820000Y-314580000D03*
%TO.P,J1,8,Pin_8*%
X42360000Y-314580000D03*
%TO.P,J1,9,Pin_9*%
%TO.N,+12V*%
X39820000Y-317120000D03*
%TO.P,J1,10,Pin_10*%
X42360000Y-317120000D03*
%TO.P,J1,11,Pin_11*%
%TO.N,unconnected-(J1-Pad11)*%
X39820000Y-319660000D03*
%TO.P,J1,12,Pin_12*%
%TO.N,unconnected-(J1-Pad12)*%
X42360000Y-319660000D03*
%TO.P,J1,13,Pin_13*%
%TO.N,unconnected-(J1-Pad13)*%
X39820000Y-322200000D03*
%TO.P,J1,14,Pin_14*%
%TO.N,unconnected-(J1-Pad14)*%
X42360000Y-322200000D03*
%TO.P,J1,15,Pin_15*%
%TO.N,unconnected-(J1-Pad15)*%
X39820000Y-324740000D03*
%TO.P,J1,16,Pin_16*%
%TO.N,unconnected-(J1-Pad16)*%
X42360000Y-324740000D03*
%TD*%
D10*
%TO.P,J14,1*%
%TO.N,GND*%
X107870333Y-309915998D03*
%TO.P,J14,2*%
X107870333Y-313015998D03*
D11*
%TO.P,J14,3*%
%TO.N,/CV_START_A_TOP*%
X107870333Y-321315998D03*
%TD*%
D14*
%TO.P,RV1,*%
%TO.N,*%
X135737000Y-285874000D03*
X126137000Y-285874000D03*
D15*
%TO.P,RV1,1,1*%
%TO.N,+3V3*%
X133437000Y-278374000D03*
D16*
%TO.P,RV1,2,2*%
%TO.N,/POT_RATE_B_TOP*%
X130937000Y-278374000D03*
%TO.P,RV1,3,3*%
%TO.N,GND*%
X128437000Y-278374000D03*
%TD*%
D15*
%TO.P,D1,1,KA*%
%TO.N,Net-(D1-Pad1)*%
X91960000Y-342900000D03*
D16*
%TO.P,D1,2,AK*%
%TO.N,Net-(D1-Pad2)*%
X94500000Y-342900000D03*
%TD*%
D10*
%TO.P,J10,1*%
%TO.N,GND*%
X119718666Y-347215000D03*
%TO.P,J10,2*%
%TO.N,/SYNC_DETECT_B_TOP*%
X119718666Y-350315000D03*
D11*
%TO.P,J10,3*%
%TO.N,/SYNC_B_TOP*%
X119718666Y-358615000D03*
%TD*%
D14*
%TO.P,RV3,*%
%TO.N,*%
X100177000Y-317546000D03*
X90577000Y-317546000D03*
D15*
%TO.P,RV3,1,1*%
%TO.N,+3V3*%
X97877000Y-310046000D03*
D16*
%TO.P,RV3,2,2*%
%TO.N,/POT_START_A_TOP*%
X95377000Y-310046000D03*
%TO.P,RV3,3,3*%
%TO.N,GND*%
X92877000Y-310046000D03*
%TD*%
D14*
%TO.P,RV5,*%
%TO.N,*%
X100177000Y-301710000D03*
X90577000Y-301710000D03*
D15*
%TO.P,RV5,1,1*%
%TO.N,+3V3*%
X97877000Y-294210000D03*
D16*
%TO.P,RV5,2,2*%
%TO.N,/POT_MORPH_A_TOP*%
X95377000Y-294210000D03*
%TO.P,RV5,3,3*%
%TO.N,GND*%
X92877000Y-294210000D03*
%TD*%
D10*
%TO.P,J3,1*%
%TO.N,GND*%
X93980000Y-361312000D03*
%TO.P,J3,2*%
%TO.N,unconnected-(J3-Pad2)*%
X93980000Y-364412000D03*
D11*
%TO.P,J3,3*%
%TO.N,/DAC1_TOP*%
X93980000Y-372712000D03*
%TD*%
D10*
%TO.P,J18,1*%
%TO.N,GND*%
X107870333Y-325751998D03*
%TO.P,J18,2*%
X107870333Y-328851998D03*
D11*
%TO.P,J18,3*%
%TO.N,/CV_END_A_TOP*%
X107870333Y-337151998D03*
%TD*%
D14*
%TO.P,RV2,*%
%TO.N,*%
X135737000Y-301710000D03*
X126137000Y-301710000D03*
D15*
%TO.P,RV2,1,1*%
%TO.N,+3V3*%
X133437000Y-294210000D03*
D16*
%TO.P,RV2,2,2*%
%TO.N,/POT_MORPH_B_TOP*%
X130937000Y-294210000D03*
%TO.P,RV2,3,3*%
%TO.N,GND*%
X128437000Y-294210000D03*
%TD*%
D10*
%TO.P,J12,1*%
%TO.N,GND*%
X107870333Y-278244000D03*
%TO.P,J12,2*%
X107870333Y-281344000D03*
D11*
%TO.P,J12,3*%
%TO.N,/CV_RATE_A_TOP*%
X107870333Y-289644000D03*
%TD*%
D10*
%TO.P,J16,1*%
%TO.N,GND*%
X118443666Y-294080000D03*
%TO.P,J16,2*%
X118443666Y-297180000D03*
D11*
%TO.P,J16,3*%
%TO.N,/CV_MORPH_B_TOP*%
X118443666Y-305480000D03*
%TD*%
D10*
%TO.P,J17,1*%
%TO.N,GND*%
X118443666Y-309916000D03*
%TO.P,J17,2*%
X118443666Y-313016000D03*
D11*
%TO.P,J17,3*%
%TO.N,/CV_START_B_TOP*%
X118443666Y-321316000D03*
%TD*%
D10*
%TO.P,J7,1*%
%TO.N,GND*%
X93980000Y-347444500D03*
%TO.P,J7,2*%
%TO.N,/SYNC_DETECT_A_TOP*%
X93980000Y-350544500D03*
D11*
%TO.P,J7,3*%
%TO.N,/SYNC_A_TOP*%
X93980000Y-358844500D03*
%TD*%
D10*
%TO.P,J4,1*%
%TO.N,GND*%
X106849333Y-361312000D03*
%TO.P,J4,2*%
%TO.N,unconnected-(J4-Pad2)*%
X106849333Y-364412000D03*
D11*
%TO.P,J4,3*%
%TO.N,/EOC_A_TOP*%
X106849333Y-372712000D03*
%TD*%
D14*
%TO.P,RV4,*%
%TO.N,*%
X90577000Y-333382000D03*
X100177000Y-333382000D03*
D15*
%TO.P,RV4,1,1*%
%TO.N,+3V3*%
X97877000Y-325882000D03*
D16*
%TO.P,RV4,2,2*%
%TO.N,/POT_END_A_TOP*%
X95377000Y-325882000D03*
%TO.P,RV4,3,3*%
%TO.N,GND*%
X92877000Y-325882000D03*
%TD*%
D14*
%TO.P,RV7,*%
%TO.N,*%
X126137000Y-333382000D03*
X135737000Y-333382000D03*
D15*
%TO.P,RV7,1,1*%
%TO.N,+3V3*%
X133437000Y-325882000D03*
D16*
%TO.P,RV7,2,2*%
%TO.N,/POT_END_B_TOP*%
X130937000Y-325882000D03*
%TO.P,RV7,3,3*%
%TO.N,GND*%
X128437000Y-325882000D03*
%TD*%
D10*
%TO.P,J2,1*%
%TO.N,GND*%
X119718666Y-361312000D03*
%TO.P,J2,2*%
%TO.N,unconnected-(J2-Pad2)*%
X119718666Y-364412000D03*
D11*
%TO.P,J2,3*%
%TO.N,/DAC2_TOP*%
X119718666Y-372712000D03*
%TD*%
D17*
%TO.P,SW1,1,A*%
%TO.N,/SW_A_1_TOP*%
X99960000Y-342900000D03*
%TO.P,SW1,2,B*%
%TO.N,GND*%
X102500000Y-342900000D03*
%TO.P,SW1,3,C*%
%TO.N,/SW_A_2_TOP*%
X105040000Y-342900000D03*
%TD*%
D10*
%TO.P,J19,1*%
%TO.N,GND*%
X118443666Y-325752000D03*
%TO.P,J19,2*%
X118443666Y-328852000D03*
D11*
%TO.P,J19,3*%
%TO.N,/CV_END_B_TOP*%
X118443666Y-337152000D03*
%TD*%
D10*
%TO.P,J11,1*%
%TO.N,GND*%
X132588000Y-347215000D03*
%TO.P,J11,2*%
%TO.N,/RESET_DETECT_B_TOP*%
X132588000Y-350315000D03*
D11*
%TO.P,J11,3*%
%TO.N,/RESET_B_TOP*%
X132588000Y-358615000D03*
%TD*%
D14*
%TO.P,RV8,*%
%TO.N,*%
X100177000Y-285874000D03*
X90577000Y-285874000D03*
D15*
%TO.P,RV8,1,1*%
%TO.N,+3V3*%
X97877000Y-278374000D03*
D16*
%TO.P,RV8,2,2*%
%TO.N,/POT_RATE_A_TOP*%
X95377000Y-278374000D03*
%TO.P,RV8,3,3*%
%TO.N,GND*%
X92877000Y-278374000D03*
%TD*%
D10*
%TO.P,J8,1*%
%TO.N,GND*%
X106849333Y-347215000D03*
%TO.P,J8,2*%
%TO.N,/RESET_DETECT_A_TOP*%
X106849333Y-350315000D03*
D11*
%TO.P,J8,3*%
%TO.N,/RESET_A_TOP*%
X106849333Y-358615000D03*
%TD*%
D14*
%TO.P,RV6,*%
%TO.N,*%
X126137000Y-317546000D03*
X135737000Y-317546000D03*
D15*
%TO.P,RV6,1,1*%
%TO.N,+3V3*%
X133437000Y-310046000D03*
D16*
%TO.P,RV6,2,2*%
%TO.N,/POT_START_B_TOP*%
X130937000Y-310046000D03*
%TO.P,RV6,3,3*%
%TO.N,GND*%
X128437000Y-310046000D03*
%TD*%
D10*
%TO.P,J5,1*%
%TO.N,GND*%
X132588000Y-361312000D03*
%TO.P,J5,2*%
%TO.N,unconnected-(J5-Pad2)*%
X132588000Y-364412000D03*
D11*
%TO.P,J5,3*%
%TO.N,/EOC_B_TOP*%
X132588000Y-372712000D03*
%TD*%
D15*
%TO.P,D2,1,KA*%
%TO.N,Net-(D2-Pad1)*%
X134100000Y-342646000D03*
D16*
%TO.P,D2,2,AK*%
%TO.N,Net-(D2-Pad2)*%
X131560000Y-342646000D03*
%TD*%
D18*
%TO.P,U9,1,IN*%
%TO.N,+12V*%
X39586000Y-337128400D03*
D19*
%TO.P,U9,2,GND*%
%TO.N,GND*%
X39586000Y-339668400D03*
%TO.P,U9,3,OUT*%
%TO.N,+3V3*%
X39586000Y-342208400D03*
%TD*%
D17*
%TO.P,U1,1*%
%TO.N,unconnected-(U1-Pad1)*%
X64830000Y-315232000D03*
%TO.P,U1,2*%
%TO.N,/MUX2_S2*%
X64830000Y-317772000D03*
%TO.P,U1,3*%
%TO.N,/MUX2_S1*%
X64830000Y-320312000D03*
%TO.P,U1,4*%
%TO.N,/MUX2_S0*%
X64830000Y-322852000D03*
%TO.P,U1,5*%
%TO.N,unconnected-(U1-Pad5)*%
X64830000Y-325392000D03*
%TO.P,U1,6*%
%TO.N,unconnected-(U1-Pad6)*%
X64830000Y-327932000D03*
%TO.P,U1,7*%
%TO.N,/RESET_DETECT_B_BOTTOM*%
X64830000Y-330472000D03*
%TO.P,U1,8*%
%TO.N,/SYNC_DETECT_B_BOTTOM*%
X64830000Y-333012000D03*
%TO.P,U1,9*%
%TO.N,/RESET_DETECT_A_BOTTOM*%
X64830000Y-335552000D03*
%TO.P,U1,10*%
%TO.N,/SYNC_DETECT_A_BOTTOM*%
X64830000Y-338092000D03*
%TO.P,U1,11*%
%TO.N,/SYNC_B*%
X64830000Y-340632000D03*
%TO.P,U1,12*%
%TO.N,unconnected-(U1-Pad12)*%
X64830000Y-343172000D03*
%TO.P,U1,13*%
%TO.N,/SYNC_A*%
X64830000Y-345712000D03*
%TO.P,U1,14*%
%TO.N,/RESET_A*%
X64830000Y-348252000D03*
%TO.P,U1,15*%
%TO.N,/RESET_B*%
X64830000Y-350792000D03*
%TO.P,U1,16*%
%TO.N,unconnected-(U1-Pad16)*%
X64830000Y-353332000D03*
%TO.P,U1,17*%
%TO.N,unconnected-(U1-Pad17)*%
X64830000Y-355872000D03*
%TO.P,U1,18*%
%TO.N,unconnected-(U1-Pad18)*%
X64830000Y-358412000D03*
%TO.P,U1,19*%
%TO.N,unconnected-(U1-Pad19)*%
X64830000Y-360952000D03*
%TO.P,U1,20*%
%TO.N,GND*%
X64830000Y-363492000D03*
%TO.P,U1,21*%
%TO.N,unconnected-(U1-Pad21)*%
X80070000Y-363492000D03*
%TO.P,U1,22*%
%TO.N,/SW_B_2_BOTTOM*%
X80070000Y-360952000D03*
%TO.P,U1,23*%
%TO.N,/SW_B_1_BOTTOM*%
X80070000Y-358412000D03*
%TO.P,U1,24*%
%TO.N,/SW_A_2_BOTTOM*%
X80070000Y-355872000D03*
%TO.P,U1,25*%
%TO.N,/SW_A_1_BOTTOM*%
X80070000Y-353332000D03*
%TO.P,U1,26*%
%TO.N,/EOC_B*%
X80070000Y-350792000D03*
%TO.P,U1,27*%
%TO.N,/EOC_A*%
X80070000Y-348252000D03*
%TO.P,U1,28*%
%TO.N,unconnected-(U1-Pad28)*%
X80070000Y-345712000D03*
%TO.P,U1,29*%
%TO.N,/DAC1*%
X80070000Y-343172000D03*
%TO.P,U1,30*%
%TO.N,/DAC2*%
X80070000Y-340632000D03*
%TO.P,U1,31*%
%TO.N,/MUX2_ADC*%
X80070000Y-338092000D03*
%TO.P,U1,32*%
%TO.N,/MUX1_S2*%
X80070000Y-335552000D03*
%TO.P,U1,33*%
%TO.N,/MUX1_S1*%
X80070000Y-333012000D03*
%TO.P,U1,34*%
%TO.N,/MUX1_S0*%
X80070000Y-330472000D03*
%TO.P,U1,35*%
%TO.N,/MUX1_ADC*%
X80070000Y-327932000D03*
%TO.P,U1,36*%
%TO.N,unconnected-(U1-Pad36)*%
X80070000Y-325392000D03*
%TO.P,U1,37*%
%TO.N,unconnected-(U1-Pad37)*%
X80070000Y-322852000D03*
%TO.P,U1,38*%
%TO.N,unconnected-(U1-Pad38)*%
X80070000Y-320312000D03*
%TO.P,U1,39*%
%TO.N,+3V3*%
X80070000Y-317772000D03*
%TO.P,U1,40*%
%TO.N,GND*%
X80070000Y-315232000D03*
%TD*%
%TO.P,SW2,1,A*%
%TO.N,/SW_B_1_TOP*%
X126040000Y-342900000D03*
%TO.P,SW2,2,B*%
%TO.N,GND*%
X123500000Y-342900000D03*
%TO.P,SW2,3,C*%
%TO.N,/SW_B_2_TOP*%
X120960000Y-342900000D03*
%TD*%
D12*
%TO.P,J21,1,Pin_1*%
%TO.N,+3V3*%
X38976400Y-376193600D03*
D13*
%TO.P,J21,2,Pin_2*%
%TO.N,/RESET_A_BOTTOM*%
X41516400Y-376193600D03*
%TO.P,J21,3,Pin_3*%
%TO.N,/RESET_B_BOTTOM*%
X44056400Y-376193600D03*
%TO.P,J21,4,Pin_4*%
%TO.N,/SYNC_B_BOTTOM*%
X46596400Y-376193600D03*
%TO.P,J21,5,Pin_5*%
%TO.N,/SYNC_A_BOTTOM*%
X49136400Y-376193600D03*
%TO.P,J21,6,Pin_6*%
%TO.N,/RESET_DETECT_B_BOTTOM*%
X51676400Y-376193600D03*
%TO.P,J21,7,Pin_7*%
%TO.N,/SYNC_DETECT_B_BOTTOM*%
X54216400Y-376193600D03*
%TO.P,J21,8,Pin_8*%
%TO.N,/RESET_DETECT_A_BOTTOM*%
X56756400Y-376193600D03*
%TO.P,J21,9,Pin_9*%
%TO.N,/SYNC_DETECT_A_BOTTOM*%
X59296400Y-376193600D03*
%TO.P,J21,10,Pin_10*%
%TO.N,/SW_B_2_BOTTOM*%
X61836400Y-376193600D03*
%TO.P,J21,11,Pin_11*%
%TO.N,/SW_B_1_BOTTOM*%
X64376400Y-376193600D03*
%TO.P,J21,12,Pin_12*%
%TO.N,/EOC_B_BOTTOM*%
X66916400Y-376193600D03*
%TO.P,J21,13,Pin_13*%
%TO.N,/EOC_A_BOTTOM*%
X69456400Y-376193600D03*
%TO.P,J21,14,Pin_14*%
%TO.N,/DAC2_BOTTOM*%
X71996400Y-376193600D03*
%TO.P,J21,15,Pin_15*%
%TO.N,/DAC1_BOTTOM*%
X74536400Y-376193600D03*
%TO.P,J21,16,Pin_16*%
%TO.N,/SW_A_2_BOTTOM*%
X77076400Y-376193600D03*
%TO.P,J21,17,Pin_17*%
%TO.N,/SW_A_1_BOTTOM*%
X79616400Y-376193600D03*
%TO.P,J21,18,Pin_18*%
%TO.N,GND*%
X82156400Y-376193600D03*
%TD*%
D12*
%TO.P,J20,1,Pin_1*%
%TO.N,+12V*%
X82126400Y-274975000D03*
D13*
%TO.P,J20,2,Pin_2*%
%TO.N,/POT_END_B_BOTTOM*%
X79586400Y-274975000D03*
%TO.P,J20,3,Pin_3*%
%TO.N,/POT_END_A_BOTTOM*%
X77046400Y-274975000D03*
%TO.P,J20,4,Pin_4*%
%TO.N,/POT_START_B_BOTTOM*%
X74506400Y-274975000D03*
%TO.P,J20,5,Pin_5*%
%TO.N,/POT_START_A_BOTTOM*%
X71966400Y-274975000D03*
%TO.P,J20,6,Pin_6*%
%TO.N,/POT_MORPH_B_BOTTOM*%
X69426400Y-274975000D03*
%TO.P,J20,7,Pin_7*%
%TO.N,/POT_RATE_B_BOTTOM*%
X66886400Y-274975000D03*
%TO.P,J20,8,Pin_8*%
%TO.N,/POT_RATE_A_BOTTOM*%
X64346400Y-274975000D03*
%TO.P,J20,9,Pin_9*%
%TO.N,/POT_MORPH_A_BOTTOM*%
X61806400Y-274975000D03*
%TO.P,J20,10,Pin_10*%
%TO.N,/CV_START_B_BOTTOM*%
X59266400Y-274975000D03*
%TO.P,J20,11,Pin_11*%
%TO.N,/CV_END_B_BOTTOM*%
X56726400Y-274975000D03*
%TO.P,J20,12,Pin_12*%
%TO.N,/CV_RATE_B_BOTTOM*%
X54186400Y-274975000D03*
%TO.P,J20,13,Pin_13*%
%TO.N,/CV_MORPH_B_BOTTOM*%
X51646400Y-274975000D03*
%TO.P,J20,14,Pin_14*%
%TO.N,/CV_START_A_BOTTOM*%
X49106400Y-274975000D03*
%TO.P,J20,15,Pin_15*%
%TO.N,/CV_END_A_BOTTOM*%
X46566400Y-274975000D03*
%TO.P,J20,16,Pin_16*%
%TO.N,/CV_RATE_A_BOTTOM*%
X44026400Y-274975000D03*
%TO.P,J20,17,Pin_17*%
%TO.N,/CV_MORPH_A_BOTTOM*%
X41486400Y-274975000D03*
%TO.P,J20,18,Pin_18*%
%TO.N,-12V*%
X38946400Y-274975000D03*
%TD*%
D12*
%TO.P,J9,1,Pin_1*%
%TO.N,GND*%
X91592400Y-376428000D03*
D13*
%TO.P,J9,2,Pin_2*%
%TO.N,/SW_A_1_TOP*%
X94132400Y-376428000D03*
%TO.P,J9,3,Pin_3*%
%TO.N,/SW_A_2_TOP*%
X96672400Y-376428000D03*
%TO.P,J9,4,Pin_4*%
%TO.N,/DAC1_TOP*%
X99212400Y-376428000D03*
%TO.P,J9,5,Pin_5*%
%TO.N,/DAC2_TOP*%
X101752400Y-376428000D03*
%TO.P,J9,6,Pin_6*%
%TO.N,/EOC_A_TOP*%
X104292400Y-376428000D03*
%TO.P,J9,7,Pin_7*%
%TO.N,/EOC_B_TOP*%
X106832400Y-376428000D03*
%TO.P,J9,8,Pin_8*%
%TO.N,/SW_B_1_TOP*%
X109372400Y-376428000D03*
%TO.P,J9,9,Pin_9*%
%TO.N,/SW_B_2_TOP*%
X111912400Y-376428000D03*
%TO.P,J9,10,Pin_10*%
%TO.N,/SYNC_DETECT_A_TOP*%
X114452400Y-376428000D03*
%TO.P,J9,11,Pin_11*%
%TO.N,/RESET_DETECT_A_TOP*%
X116992400Y-376428000D03*
%TO.P,J9,12,Pin_12*%
%TO.N,/SYNC_DETECT_B_TOP*%
X119532400Y-376428000D03*
%TO.P,J9,13,Pin_13*%
%TO.N,/RESET_DETECT_B_TOP*%
X122072400Y-376428000D03*
%TO.P,J9,14,Pin_14*%
%TO.N,/SYNC_A_TOP*%
X124612400Y-376428000D03*
%TO.P,J9,15,Pin_15*%
%TO.N,/SYNC_B_TOP*%
X127152400Y-376428000D03*
%TO.P,J9,16,Pin_16*%
%TO.N,/RESET_B_TOP*%
X129692400Y-376428000D03*
%TO.P,J9,17,Pin_17*%
%TO.N,/RESET_A_TOP*%
X132232400Y-376428000D03*
%TO.P,J9,18,Pin_18*%
%TO.N,+3V3*%
X134772400Y-376428000D03*
%TD*%
D12*
%TO.P,J6,1,Pin_1*%
%TO.N,-12V*%
X134742400Y-274828000D03*
D13*
%TO.P,J6,2,Pin_2*%
%TO.N,/CV_RATE_A_TOP*%
X132202400Y-274828000D03*
%TO.P,J6,3,Pin_3*%
%TO.N,/CV_MORPH_A_TOP*%
X129662400Y-274828000D03*
%TO.P,J6,4,Pin_4*%
%TO.N,/CV_START_A_TOP*%
X127122400Y-274828000D03*
%TO.P,J6,5,Pin_5*%
%TO.N,/CV_RATE_B_TOP*%
X124582400Y-274828000D03*
%TO.P,J6,6,Pin_6*%
%TO.N,/CV_MORPH_B_TOP*%
X122042400Y-274828000D03*
%TO.P,J6,7,Pin_7*%
%TO.N,/CV_START_B_TOP*%
X119502400Y-274828000D03*
%TO.P,J6,8,Pin_8*%
%TO.N,/CV_END_A_TOP*%
X116962400Y-274828000D03*
%TO.P,J6,9,Pin_9*%
%TO.N,/CV_END_B_TOP*%
X114422400Y-274828000D03*
%TO.P,J6,10,Pin_10*%
%TO.N,/POT_RATE_B_TOP*%
X111882400Y-274828000D03*
%TO.P,J6,11,Pin_11*%
%TO.N,/POT_RATE_A_TOP*%
X109342400Y-274828000D03*
%TO.P,J6,12,Pin_12*%
%TO.N,/POT_MORPH_A_TOP*%
X106802400Y-274828000D03*
%TO.P,J6,13,Pin_13*%
%TO.N,/POT_MORPH_B_TOP*%
X104262400Y-274828000D03*
%TO.P,J6,14,Pin_14*%
%TO.N,/POT_START_A_TOP*%
X101722400Y-274828000D03*
%TO.P,J6,15,Pin_15*%
%TO.N,/POT_START_B_TOP*%
X99182400Y-274828000D03*
%TO.P,J6,16,Pin_16*%
%TO.N,/POT_END_A_TOP*%
X96642400Y-274828000D03*
%TO.P,J6,17,Pin_17*%
%TO.N,/POT_END_B_TOP*%
X94102400Y-274828000D03*
%TO.P,J6,18,Pin_18*%
%TO.N,+12V*%
X91562400Y-274828000D03*
%TD*%
D20*
%TO.N,GND*%
X75908000Y-290621000D03*
X134899400Y-360857800D03*
X46514000Y-290848000D03*
X117602000Y-342138000D03*
X38112800Y-330727600D03*
X69685000Y-290621000D03*
X41716000Y-351046000D03*
X41716000Y-368064000D03*
X46825000Y-324276000D03*
X57210000Y-308882000D03*
X41462000Y-359428000D03*
X49618000Y-290594000D03*
X47460000Y-314751000D03*
X75908000Y-288081000D03*
X69685000Y-288081000D03*
X46514000Y-288308000D03*
X51876000Y-306342000D03*
X49618000Y-288054000D03*
X49618000Y-289324000D03*
X54952000Y-352422180D03*
X57210000Y-310152000D03*
X57569200Y-359963000D03*
X108204000Y-340614000D03*
X57210000Y-307612000D03*
%TO.N,/RESET_A*%
X45272000Y-354376000D03*
X49590000Y-354348000D03*
%TO.N,/DAC2_TOP*%
X115300000Y-342900000D03*
%TO.N,/RESET_B*%
X59197480Y-361106000D03*
X46542000Y-364000000D03*
%TO.N,-12V*%
X62192000Y-318840400D03*
X73466000Y-365016000D03*
X115251000Y-341630000D03*
%TO.N,+12V*%
X110301000Y-345440000D03*
X48730000Y-319329800D03*
X69656000Y-373398000D03*
X39586000Y-337128400D03*
%TO.N,+3V3*%
X45526000Y-349268000D03*
X51368000Y-355872000D03*
X45526000Y-357650000D03*
X63233400Y-312007800D03*
X43494000Y-289324000D03*
X68132000Y-288816000D03*
X41110000Y-371393000D03*
X45780000Y-366540000D03*
X136982200Y-375056400D03*
X55686000Y-299230000D03*
X60992000Y-299484000D03*
X56956000Y-350538000D03*
%TO.N,/DAC1_TOP*%
X111500000Y-341900000D03*
%TO.N,/MUX2_ADC*%
X60512000Y-304056000D03*
%TO.N,/CV_END_A*%
X48828000Y-286276000D03*
X57210000Y-302532000D03*
%TO.N,/CV_RATE_A*%
X56702000Y-304056000D03*
X47304000Y-286022000D03*
%TO.N,/RESET_A_TOP*%
X123698000Y-362712000D03*
%TO.N,/EOC_B*%
X67827385Y-351757385D03*
X55686000Y-358920000D03*
%TO.N,/EOC_A*%
X57972000Y-355364000D03*
X69402000Y-349268000D03*
%TO.N,/SYNC_B_TOP*%
X123571000Y-359283000D03*
X125504000Y-360934000D03*
%TO.N,/CV_START_A_TOP*%
X113030000Y-292354000D03*
%TO.N,/CV_RATE_B_TOP*%
X121412000Y-289179000D03*
%TO.N,/CV_MORPH_B_TOP*%
X123345000Y-283845000D03*
X123317000Y-280289000D03*
%TO.N,/CV_START_B_TOP*%
X115938115Y-292468115D03*
%TO.N,/DAC2*%
X67878000Y-366286000D03*
%TO.N,/DAC1*%
X77784000Y-368700000D03*
%TO.N,/POT_RATE_B_BOTTOM*%
X75055000Y-306469000D03*
%TO.N,/POT_RATE_A_BOTTOM*%
X75055000Y-307739000D03*
%TO.N,/POT_MORPH_A_BOTTOM*%
X75055000Y-309009000D03*
%TO.N,/POT_MORPH_B_BOTTOM*%
X75055000Y-305199000D03*
%TO.N,/POT_START_B_BOTTOM*%
X80005000Y-305199000D03*
%TO.N,/POT_END_B_BOTTOM*%
X80005000Y-306469000D03*
%TO.N,/CV_END_B_TOP*%
X115062000Y-288798000D03*
%TO.N,/CV_RATE_B_BOTTOM*%
X67624000Y-283256000D03*
%TO.N,/CV_MORPH_B_BOTTOM*%
X66608000Y-289324000D03*
%TO.N,/CV_END_A_BOTTOM*%
X56448000Y-282974000D03*
%TO.N,AREF_-10V*%
X51876000Y-283990000D03*
X63462000Y-290748000D03*
X82892000Y-289324000D03*
X48066000Y-296690000D03*
X44764000Y-283990000D03*
X63335000Y-285033000D03*
X56448000Y-289832000D03*
X39684000Y-290086000D03*
X81312000Y-289478000D03*
%TO.N,+5V*%
X57620000Y-319091000D03*
X62141200Y-367125800D03*
X75055000Y-310279000D03*
X63749000Y-301135000D03*
%TO.N,/RESET_DETECT_A_TOP*%
X114681000Y-372999000D03*
%TO.N,/RESET_DETECT_B_TOP*%
X126492000Y-371856000D03*
%TO.N,/POT_MORPH_A_TOP*%
X103632000Y-281432000D03*
%TO.N,/POT_END_A_TOP*%
X102235000Y-298704000D03*
%TO.N,/POT_END_B_TOP*%
X103124000Y-318338000D03*
%TO.N,/SW_B_2_BOTTOM*%
X69939000Y-360979000D03*
%TD*%
D21*
%TO.N,/RESET_A*%
X49590000Y-354348000D02*
X45300000Y-354348000D01*
X45300000Y-354348000D02*
X45272000Y-354376000D01*
%TO.N,/EOC_A_TOP*%
X106849333Y-372712000D02*
X106849333Y-373871067D01*
X106849333Y-373871067D02*
X104292400Y-376428000D01*
%TO.N,/EOC_B_TOP*%
X126144000Y-372712000D02*
X132588000Y-372712000D01*
X106832400Y-376428000D02*
X109372400Y-373888000D01*
X124968000Y-373888000D02*
X126144000Y-372712000D01*
X109372400Y-373888000D02*
X124968000Y-373888000D01*
%TO.N,/MUX2_ADC*%
X75752000Y-318026000D02*
X75752000Y-333774000D01*
X60512000Y-304056000D02*
X61782000Y-304056000D01*
X61782000Y-304056000D02*
X75752000Y-318026000D01*
X75752000Y-333774000D02*
X80070000Y-338092000D01*
%TO.N,/CV_END_A*%
X48828000Y-294150000D02*
X57210000Y-302532000D01*
X48828000Y-286276000D02*
X48828000Y-294150000D01*
%TO.N,/CV_RATE_A*%
X47304000Y-286022000D02*
X47304000Y-294810755D01*
X56702000Y-304208755D02*
X56702000Y-304056000D01*
X47304000Y-294810755D02*
X56702000Y-304208755D01*
%TO.N,/EOC_B*%
X65189191Y-354602000D02*
X60004000Y-354602000D01*
X67827385Y-351963806D02*
X65189191Y-354602000D01*
X67827385Y-351757385D02*
X67827385Y-351963806D01*
X60004000Y-354602000D02*
X55686000Y-358920000D01*
%TO.N,/EOC_A*%
X63696011Y-349639989D02*
X69030011Y-349639989D01*
X69030011Y-349639989D02*
X69402000Y-349268000D01*
X57972000Y-355364000D02*
X63696011Y-349639989D01*
%TO.N,/SW_B_1_TOP*%
X101238770Y-377668011D02*
X100457000Y-376886241D01*
X108132389Y-377668011D02*
X101238770Y-377668011D01*
X123979989Y-340839989D02*
X126040000Y-342900000D01*
X100457000Y-376886241D02*
X100457000Y-351663000D01*
X100457000Y-351663000D02*
X100512288Y-351663000D01*
X100512288Y-351663000D02*
X111335299Y-340839989D01*
X111335299Y-340839989D02*
X123979989Y-340839989D01*
X109372400Y-376428000D02*
X108132389Y-377668011D01*
%TO.N,/SYNC_B_TOP*%
X123571000Y-359283000D02*
X123853000Y-359283000D01*
X123853000Y-359283000D02*
X125504000Y-360934000D01*
%TO.N,/CV_MORPH_A_TOP*%
X116332000Y-290957000D02*
X120751245Y-290957000D01*
X107870333Y-305479999D02*
X109302001Y-305479999D01*
X123952000Y-287756245D02*
X123952000Y-284355245D01*
X126619000Y-281688245D02*
X126619000Y-277871400D01*
X120751245Y-290957000D02*
X123952000Y-287756245D01*
X112903000Y-294386000D02*
X116332000Y-290957000D01*
X109302001Y-305479999D02*
X112903000Y-301879000D01*
X126619000Y-277871400D02*
X129662400Y-274828000D01*
X123952000Y-284355245D02*
X126619000Y-281688245D01*
X112903000Y-301879000D02*
X112903000Y-294386000D01*
%TO.N,/CV_START_A_TOP*%
X120802389Y-284581611D02*
X120802389Y-274314370D01*
X113030000Y-292354000D02*
X120802389Y-284581611D01*
X121812759Y-273304000D02*
X125598400Y-273304000D01*
X120802389Y-274314370D02*
X121812759Y-273304000D01*
X125598400Y-273304000D02*
X127122400Y-274828000D01*
%TO.N,/CV_RATE_B_TOP*%
X121412000Y-277998400D02*
X124582400Y-274828000D01*
X121412000Y-289179000D02*
X121412000Y-277998400D01*
%TO.N,/CV_MORPH_B_TOP*%
X123317000Y-280289000D02*
X123317000Y-283817000D01*
X123317000Y-283817000D02*
X123345000Y-283845000D01*
%TO.N,/DAC2*%
X80070000Y-340632000D02*
X67878000Y-352824000D01*
X67878000Y-352824000D02*
X67878000Y-366286000D01*
%TO.N,/DAC1*%
X80070000Y-343172000D02*
X77784000Y-345458000D01*
X77784000Y-345458000D02*
X77784000Y-368700000D01*
%TO.N,/POT_RATE_B_BOTTOM*%
X66886400Y-274975000D02*
X73596000Y-281684600D01*
X73596000Y-281684600D02*
X73596000Y-305010000D01*
X73596000Y-305010000D02*
X75055000Y-306469000D01*
%TO.N,/POT_RATE_A_BOTTOM*%
X72072000Y-304756000D02*
X75055000Y-307739000D01*
X72072000Y-304756000D02*
X72072000Y-282700600D01*
X72072000Y-282700600D02*
X64346400Y-274975000D01*
%TO.N,/POT_MORPH_A_BOTTOM*%
X70796000Y-283964600D02*
X70796000Y-304750000D01*
X70796000Y-304750000D02*
X75055000Y-309009000D01*
X61806400Y-274975000D02*
X70796000Y-283964600D01*
%TO.N,/POT_MORPH_B_BOTTOM*%
X69426400Y-274975000D02*
X78292000Y-283840600D01*
X78292000Y-283840600D02*
X78292000Y-301962000D01*
X78292000Y-301962000D02*
X75055000Y-305199000D01*
%TO.N,/POT_START_B_BOTTOM*%
X74506400Y-274975000D02*
X82102000Y-282570600D01*
X82102000Y-282570600D02*
X82102000Y-303102000D01*
X82102000Y-303102000D02*
X80005000Y-305199000D01*
%TO.N,/POT_END_B_BOTTOM*%
X80005000Y-306469000D02*
X84544000Y-301930000D01*
X84544000Y-301930000D02*
X84544000Y-279932600D01*
X84544000Y-279932600D02*
X79586400Y-274975000D01*
%TO.N,/CV_RATE_B_BOTTOM*%
X54186400Y-274975000D02*
X62467400Y-283256000D01*
X62467400Y-283256000D02*
X67624000Y-283256000D01*
%TO.N,/CV_MORPH_B_BOTTOM*%
X65995400Y-289324000D02*
X66608000Y-289324000D01*
X51646400Y-274975000D02*
X65995400Y-289324000D01*
%TO.N,/CV_END_A_BOTTOM*%
X54565400Y-282974000D02*
X46566400Y-274975000D01*
X56448000Y-282974000D02*
X54565400Y-282974000D01*
%TO.N,/RESET_DETECT_A_TOP*%
X114681000Y-351663000D02*
X114681000Y-372999000D01*
X114554000Y-351536000D02*
X114681000Y-351663000D01*
X113333000Y-350315000D02*
X114554000Y-351536000D01*
X106849333Y-350315000D02*
X113333000Y-350315000D01*
%TO.N,/SYNC_DETECT_A_BOTTOM*%
X55742011Y-357649989D02*
X54895989Y-358496011D01*
X54895989Y-358496011D02*
X54895989Y-371793189D01*
X54895989Y-371793189D02*
X59296400Y-376193600D01*
X55742011Y-347179989D02*
X55742011Y-357649989D01*
X64830000Y-338092000D02*
X55742011Y-347179989D01*
%TO.N,/RESET_DETECT_A_BOTTOM*%
X54161989Y-373599189D02*
X56756400Y-376193600D01*
X64830000Y-335552000D02*
X54161989Y-346220011D01*
X54161989Y-346220011D02*
X54161989Y-373599189D01*
%TO.N,/SYNC_DETECT_B_BOTTOM*%
X53048000Y-375025200D02*
X54216400Y-376193600D01*
X64830000Y-333012000D02*
X53048000Y-344794000D01*
X53048000Y-375025200D02*
X53048000Y-344794000D01*
%TO.N,/POT_MORPH_A_TOP*%
X103632000Y-277998400D02*
X106802400Y-274828000D01*
X103632000Y-281432000D02*
X103632000Y-277998400D01*
%TO.N,/POT_START_A_TOP*%
X102767531Y-275873131D02*
X101722400Y-274828000D01*
X102767531Y-281684776D02*
X102767531Y-275873131D01*
X103025011Y-281942256D02*
X102767531Y-281684776D01*
X103025011Y-302397989D02*
X103025011Y-281942256D01*
X95377000Y-310046000D02*
X103025011Y-302397989D01*
X102841989Y-275947589D02*
X101722400Y-274828000D01*
%TO.N,/POT_END_A_TOP*%
X96642400Y-274828000D02*
X96911022Y-274828000D01*
X102187011Y-280103989D02*
X102187011Y-298656011D01*
X102187011Y-298656011D02*
X102235000Y-298704000D01*
X96911022Y-274828000D02*
X102187011Y-280103989D01*
%TO.N,/RESET_DETECT_B_BOTTOM*%
X52158011Y-343143989D02*
X64830000Y-330472000D01*
X52158011Y-375711989D02*
X51676400Y-376193600D01*
X52158011Y-343143989D02*
X52158011Y-375711989D01*
%TO.N,/SW_A_2_BOTTOM*%
X78574011Y-374695989D02*
X78574011Y-357367989D01*
X77076400Y-376193600D02*
X78574011Y-374695989D01*
X78574011Y-357367989D02*
X80070000Y-355872000D01*
%TO.N,/SW_A_1_BOTTOM*%
X81222011Y-354484011D02*
X81222011Y-374587989D01*
X81222011Y-374587989D02*
X79616400Y-376193600D01*
X80070000Y-353332000D02*
X81222011Y-354484011D01*
%TD*%
M02*
