%TF.GenerationSoftware,KiCad,Pcbnew,(6.0.0-0)*%
%TF.CreationDate,2022-07-11T02:03:33-04:00*%
%TF.ProjectId,daisy_hardware_v1,64616973-795f-4686-9172-64776172655f,rev?*%
%TF.SameCoordinates,Original*%
%TF.FileFunction,Soldermask,Bot*%
%TF.FilePolarity,Negative*%
%FSLAX46Y46*%
G04 Gerber Fmt 4.6, Leading zero omitted, Abs format (unit mm)*
G04 Created by KiCad (PCBNEW (6.0.0-0)) date 2022-07-11 02:03:33*
%MOMM*%
%LPD*%
G01*
G04 APERTURE LIST*
%ADD10O,2.216000X1.108000*%
%ADD11O,2.016000X1.008000*%
%ADD12C,6.200000*%
%ADD13O,8.000000X3.300000*%
%ADD14C,7.200000*%
%ADD15R,1.700000X1.700000*%
%ADD16O,1.700000X1.700000*%
%ADD17C,3.240000*%
%ADD18R,1.800000X1.800000*%
%ADD19C,1.800000*%
%ADD20C,1.524000*%
%ADD21C,5.000000*%
%ADD22R,2.300000X1.500000*%
%ADD23O,2.300000X1.500000*%
G04 APERTURE END LIST*
D10*
%TO.C,J13*%
X107870333Y-294079999D03*
X107870333Y-297179999D03*
D11*
X107870333Y-305479999D03*
%TD*%
D12*
%TO.C,REF\u002A\u002A*%
X159816800Y-322116000D03*
%TD*%
%TO.C,REF\u002A\u002A*%
X170383200Y-306291800D03*
%TD*%
D13*
%TO.C,REF\u002A\u002A*%
X145492800Y-253310000D03*
%TD*%
D10*
%TO.C,J15*%
X118443666Y-278244000D03*
X118443666Y-281344000D03*
D11*
X118443666Y-289644000D03*
%TD*%
D14*
%TO.C,REF\u002A\u002A*%
X182880000Y-275507000D03*
%TD*%
D15*
%TO.C,J1*%
X39820000Y-306960000D03*
D16*
X42360000Y-306960000D03*
X39820000Y-309500000D03*
X42360000Y-309500000D03*
X39820000Y-312040000D03*
X42360000Y-312040000D03*
X39820000Y-314580000D03*
X42360000Y-314580000D03*
X39820000Y-317120000D03*
X42360000Y-317120000D03*
X39820000Y-319660000D03*
X42360000Y-319660000D03*
X39820000Y-322200000D03*
X42360000Y-322200000D03*
X39820000Y-324740000D03*
X42360000Y-324740000D03*
%TD*%
D10*
%TO.C,J14*%
X107870333Y-309915998D03*
X107870333Y-313015998D03*
D11*
X107870333Y-321315998D03*
%TD*%
D17*
%TO.C,RV1*%
X135737000Y-285874000D03*
X126137000Y-285874000D03*
D18*
X133437000Y-278374000D03*
D19*
X130937000Y-278374000D03*
X128437000Y-278374000D03*
%TD*%
D14*
%TO.C,REF\u002A\u002A*%
X182880000Y-323005000D03*
%TD*%
D10*
%TO.C,J10*%
X119718666Y-347215000D03*
X119718666Y-350315000D03*
D11*
X119718666Y-358615000D03*
%TD*%
D17*
%TO.C,RV3*%
X100177000Y-317546000D03*
X90577000Y-317546000D03*
D18*
X97877000Y-310046000D03*
D19*
X95377000Y-310046000D03*
X92877000Y-310046000D03*
%TD*%
D17*
%TO.C,RV5*%
X100177000Y-301710000D03*
X90577000Y-301710000D03*
D18*
X97877000Y-294210000D03*
D19*
X95377000Y-294210000D03*
X92877000Y-294210000D03*
%TD*%
D10*
%TO.C,J3*%
X93980000Y-361312000D03*
X93980000Y-364412000D03*
D11*
X93980000Y-372712000D03*
%TD*%
D12*
%TO.C,EOC*%
X184505600Y-357650600D03*
%TD*%
%TO.C,REF\u002A\u002A*%
X159842200Y-274618000D03*
%TD*%
%TO.C,EOC*%
X158800800Y-357650600D03*
%TD*%
D10*
%TO.C,J18*%
X107870333Y-325751998D03*
X107870333Y-328851998D03*
D11*
X107870333Y-337151998D03*
%TD*%
D17*
%TO.C,RV2*%
X135737000Y-301710000D03*
X126137000Y-301710000D03*
D18*
X133437000Y-294210000D03*
D19*
X130937000Y-294210000D03*
X128437000Y-294210000D03*
%TD*%
D13*
%TO.C,REF\u002A\u002A*%
X145592800Y-375481400D03*
%TD*%
D14*
%TO.C,REF\u002A\u002A*%
X147320000Y-291262000D03*
%TD*%
D10*
%TO.C,J12*%
X107870333Y-278244000D03*
X107870333Y-281344000D03*
D11*
X107870333Y-289644000D03*
%TD*%
D12*
%TO.C,REF\u002A\u002A*%
X170383200Y-274592600D03*
%TD*%
D10*
%TO.C,J16*%
X118443666Y-294080000D03*
X118443666Y-297180000D03*
D11*
X118443666Y-305480000D03*
%TD*%
D14*
%TO.C,REF\u002A\u002A*%
X182880000Y-307130000D03*
%TD*%
D10*
%TO.C,J17*%
X118443666Y-309916000D03*
X118443666Y-313016000D03*
D11*
X118443666Y-321316000D03*
%TD*%
D10*
%TO.C,J7*%
X93980000Y-347444500D03*
X93980000Y-350544500D03*
D11*
X93980000Y-358844500D03*
%TD*%
D12*
%TO.C,REF\u002A\u002A*%
X159816800Y-290442200D03*
%TD*%
D10*
%TO.C,J4*%
X106849333Y-361312000D03*
X106849333Y-364412000D03*
D11*
X106849333Y-372712000D03*
%TD*%
D12*
%TO.C,SYNC*%
X145923000Y-343579000D03*
%TD*%
%TO.C,RESET*%
X184505600Y-343579000D03*
%TD*%
D17*
%TO.C,RV4*%
X90577000Y-333382000D03*
X100177000Y-333382000D03*
D18*
X97877000Y-325882000D03*
D19*
X95377000Y-325882000D03*
X92877000Y-325882000D03*
%TD*%
D12*
%TO.C,REF\u002A\u002A*%
X170383200Y-322116000D03*
%TD*%
%TO.C,RESET*%
X158775400Y-343579000D03*
%TD*%
D17*
%TO.C,RV7*%
X126137000Y-333382000D03*
X135737000Y-333382000D03*
D18*
X133437000Y-325882000D03*
D19*
X130937000Y-325882000D03*
X128437000Y-325882000D03*
%TD*%
D12*
%TO.C,REF\u002A\u002A*%
X159813333Y-306266400D03*
%TD*%
D10*
%TO.C,J2*%
X119718666Y-361312000D03*
X119718666Y-364412000D03*
D11*
X119718666Y-372712000D03*
%TD*%
D20*
%TO.C,SW1*%
X97536000Y-342392000D03*
X100076000Y-342392000D03*
X102616000Y-342392000D03*
%TD*%
D10*
%TO.C,J19*%
X118443666Y-325752000D03*
X118443666Y-328852000D03*
D11*
X118443666Y-337152000D03*
%TD*%
D12*
%TO.C,CV OUT*%
X145923000Y-357650600D03*
%TD*%
D10*
%TO.C,J11*%
X132588000Y-347215000D03*
X132588000Y-350315000D03*
D11*
X132588000Y-358615000D03*
%TD*%
D14*
%TO.C,REF\u002A\u002A*%
X182880000Y-291255000D03*
%TD*%
D17*
%TO.C,RV8*%
X100177000Y-285874000D03*
X90577000Y-285874000D03*
D18*
X97877000Y-278374000D03*
D19*
X95377000Y-278374000D03*
X92877000Y-278374000D03*
%TD*%
D13*
%TO.C,REF\u002A\u002A*%
X184869000Y-253310000D03*
%TD*%
D21*
%TO.C,LFO / ADSR / ???*%
X178054000Y-332530000D03*
%TD*%
D14*
%TO.C,REF\u002A\u002A*%
X147320000Y-323012000D03*
%TD*%
D10*
%TO.C,J8*%
X106849333Y-347215000D03*
X106849333Y-350315000D03*
D11*
X106849333Y-358615000D03*
%TD*%
D17*
%TO.C,RV6*%
X126137000Y-317546000D03*
X135737000Y-317546000D03*
D18*
X133437000Y-310046000D03*
D19*
X130937000Y-310046000D03*
X128437000Y-310046000D03*
%TD*%
D12*
%TO.C,SYNC*%
X171653200Y-343579000D03*
%TD*%
%TO.C,REF\u002A\u002A*%
X170383200Y-290442200D03*
%TD*%
D10*
%TO.C,J5*%
X132588000Y-361312000D03*
X132588000Y-364412000D03*
D11*
X132588000Y-372712000D03*
%TD*%
D12*
%TO.C,CV OUT*%
X171653200Y-357650600D03*
%TD*%
D21*
%TO.C,LFO / ADSR / ???*%
X152019000Y-332022000D03*
%TD*%
D14*
%TO.C,REF\u002A\u002A*%
X147320000Y-275514000D03*
%TD*%
D13*
%TO.C,REF\u002A\u002A*%
X184969000Y-375481400D03*
%TD*%
D22*
%TO.C,U9*%
X39586000Y-337128400D03*
D23*
X39586000Y-339668400D03*
X39586000Y-342208400D03*
%TD*%
D20*
%TO.C,U1*%
X64830000Y-315232000D03*
X64830000Y-317772000D03*
X64830000Y-320312000D03*
X64830000Y-322852000D03*
X64830000Y-325392000D03*
X64830000Y-327932000D03*
X64830000Y-330472000D03*
X64830000Y-333012000D03*
X64830000Y-335552000D03*
X64830000Y-338092000D03*
X64830000Y-340632000D03*
X64830000Y-343172000D03*
X64830000Y-345712000D03*
X64830000Y-348252000D03*
X64830000Y-350792000D03*
X64830000Y-353332000D03*
X64830000Y-355872000D03*
X64830000Y-358412000D03*
X64830000Y-360952000D03*
X64830000Y-363492000D03*
X80070000Y-363492000D03*
X80070000Y-360952000D03*
X80070000Y-358412000D03*
X80070000Y-355872000D03*
X80070000Y-353332000D03*
X80070000Y-350792000D03*
X80070000Y-348252000D03*
X80070000Y-345712000D03*
X80070000Y-343172000D03*
X80070000Y-340632000D03*
X80070000Y-338092000D03*
X80070000Y-335552000D03*
X80070000Y-333012000D03*
X80070000Y-330472000D03*
X80070000Y-327932000D03*
X80070000Y-325392000D03*
X80070000Y-322852000D03*
X80070000Y-320312000D03*
X80070000Y-317772000D03*
X80070000Y-315232000D03*
%TD*%
D14*
%TO.C,REF\u002A\u002A*%
X147320000Y-307137000D03*
%TD*%
D20*
%TO.C,SW2*%
X123571000Y-342900000D03*
X126111000Y-342900000D03*
X128651000Y-342900000D03*
%TD*%
D15*
%TO.C,J21*%
X38976400Y-376193600D03*
D16*
X41516400Y-376193600D03*
X44056400Y-376193600D03*
X46596400Y-376193600D03*
X49136400Y-376193600D03*
X51676400Y-376193600D03*
X54216400Y-376193600D03*
X56756400Y-376193600D03*
X59296400Y-376193600D03*
X61836400Y-376193600D03*
X64376400Y-376193600D03*
X66916400Y-376193600D03*
X69456400Y-376193600D03*
X71996400Y-376193600D03*
X74536400Y-376193600D03*
X77076400Y-376193600D03*
X79616400Y-376193600D03*
X82156400Y-376193600D03*
%TD*%
D15*
%TO.C,J20*%
X82126400Y-274975000D03*
D16*
X79586400Y-274975000D03*
X77046400Y-274975000D03*
X74506400Y-274975000D03*
X71966400Y-274975000D03*
X69426400Y-274975000D03*
X66886400Y-274975000D03*
X64346400Y-274975000D03*
X61806400Y-274975000D03*
X59266400Y-274975000D03*
X56726400Y-274975000D03*
X54186400Y-274975000D03*
X51646400Y-274975000D03*
X49106400Y-274975000D03*
X46566400Y-274975000D03*
X44026400Y-274975000D03*
X41486400Y-274975000D03*
X38946400Y-274975000D03*
%TD*%
D15*
%TO.C,J9*%
X91592400Y-376428000D03*
D16*
X94132400Y-376428000D03*
X96672400Y-376428000D03*
X99212400Y-376428000D03*
X101752400Y-376428000D03*
X104292400Y-376428000D03*
X106832400Y-376428000D03*
X109372400Y-376428000D03*
X111912400Y-376428000D03*
X114452400Y-376428000D03*
X116992400Y-376428000D03*
X119532400Y-376428000D03*
X122072400Y-376428000D03*
X124612400Y-376428000D03*
X127152400Y-376428000D03*
X129692400Y-376428000D03*
X132232400Y-376428000D03*
X134772400Y-376428000D03*
%TD*%
D15*
%TO.C,J6*%
X134742400Y-274828000D03*
D16*
X132202400Y-274828000D03*
X129662400Y-274828000D03*
X127122400Y-274828000D03*
X124582400Y-274828000D03*
X122042400Y-274828000D03*
X119502400Y-274828000D03*
X116962400Y-274828000D03*
X114422400Y-274828000D03*
X111882400Y-274828000D03*
X109342400Y-274828000D03*
X106802400Y-274828000D03*
X104262400Y-274828000D03*
X101722400Y-274828000D03*
X99182400Y-274828000D03*
X96642400Y-274828000D03*
X94102400Y-274828000D03*
X91562400Y-274828000D03*
%TD*%
M02*
