%FSLAX45Y45*%
G04 Gerber Fmt 4.5, Leading zero omitted, Abs format (unit mm)*
G04 Created by KiCad (PCBNEW (6.0.0-0)) date 2022-09-18 03:10:00*
%MOMM*%
%LPD*%
G01*
G04 APERTURE LIST*
%TA.AperFunction,Profile*%
%ADD10C,0.200000*%
%TD*%
%ADD11C,0.200000*%
G04 APERTURE END LIST*
D10*
X8803000Y-27251080D02*
X13803000Y-27251080D01*
X13803000Y-27251080D02*
X13803000Y-37851080D01*
X13803000Y-37851080D02*
X8803000Y-37851080D01*
X8803000Y-37851080D02*
X8803000Y-27251080D01*
X3556000Y-27246000D02*
X8556000Y-27246000D01*
X8556000Y-27246000D02*
X8556000Y-37846000D01*
X8556000Y-37846000D02*
X3556000Y-37846000D01*
X3556000Y-37846000D02*
X3556000Y-27246000D01*
D11*
X3803619Y-38171556D02*
X3803619Y-37971556D01*
X3851238Y-37971556D01*
X3879809Y-37981080D01*
X3898857Y-38000128D01*
X3908381Y-38019175D01*
X3917905Y-38057270D01*
X3917905Y-38085842D01*
X3908381Y-38123937D01*
X3898857Y-38142985D01*
X3879809Y-38162032D01*
X3851238Y-38171556D01*
X3803619Y-38171556D01*
X4003619Y-38171556D02*
X4003619Y-38038223D01*
X4003619Y-38076318D02*
X4013143Y-38057270D01*
X4022667Y-38047747D01*
X4041714Y-38038223D01*
X4060762Y-38038223D01*
X4127428Y-38171556D02*
X4127428Y-38038223D01*
X4127428Y-37971556D02*
X4117905Y-37981080D01*
X4127428Y-37990604D01*
X4136952Y-37981080D01*
X4127428Y-37971556D01*
X4127428Y-37990604D01*
X4251238Y-38171556D02*
X4232190Y-38162032D01*
X4222667Y-38142985D01*
X4222667Y-37971556D01*
X4356000Y-38171556D02*
X4336952Y-38162032D01*
X4327429Y-38142985D01*
X4327429Y-37971556D01*
X4584571Y-38171556D02*
X4584571Y-37971556D01*
X4651238Y-38114413D01*
X4717905Y-37971556D01*
X4717905Y-38171556D01*
X4898857Y-38171556D02*
X4898857Y-38066794D01*
X4889333Y-38047747D01*
X4870286Y-38038223D01*
X4832190Y-38038223D01*
X4813143Y-38047747D01*
X4898857Y-38162032D02*
X4879810Y-38171556D01*
X4832190Y-38171556D01*
X4813143Y-38162032D01*
X4803619Y-38142985D01*
X4803619Y-38123937D01*
X4813143Y-38104890D01*
X4832190Y-38095366D01*
X4879810Y-38095366D01*
X4898857Y-38085842D01*
X4994095Y-38038223D02*
X4994095Y-38238223D01*
X4994095Y-38047747D02*
X5013143Y-38038223D01*
X5051238Y-38038223D01*
X5070286Y-38047747D01*
X5079810Y-38057270D01*
X5089333Y-38076318D01*
X5089333Y-38133461D01*
X5079810Y-38152509D01*
X5070286Y-38162032D01*
X5051238Y-38171556D01*
X5013143Y-38171556D01*
X4994095Y-38162032D01*
X5175048Y-38152509D02*
X5184571Y-38162032D01*
X5175048Y-38171556D01*
X5165524Y-38162032D01*
X5175048Y-38152509D01*
X5175048Y-38171556D01*
X5175048Y-38047747D02*
X5184571Y-38057270D01*
X5175048Y-38066794D01*
X5165524Y-38057270D01*
X5175048Y-38047747D01*
X5175048Y-38066794D01*
M02*
