<?xml version="1.0" encoding="utf-8"?>
<!-- Generator: Adobe Illustrator 25.2.1, SVG Export Plug-In . SVG Version: 6.00 Build 0)  -->
<svg version="1.1" id="Layer_1" xmlns="http://www.w3.org/2000/svg" xmlns:xlink="http://www.w3.org/1999/xlink" x="0px" y="0px"
	 viewBox="0 0 100 125" style="enable-background:new 0 0 100 125;" xml:space="preserve">
<style type="text/css">
	.st0{font-family:'HelveticaNeue-Bold';}
	.st1{font-size:5px;}
</style>
<path d="M77.5,15H38.6c-4.1,0-7.5,3.4-7.5,7.5s3.4,7.5,7.5,7.5h20.8L19.2,70.2c-2.9,2.9-2.9,7.7,0,10.6s7.7,2.9,10.6,0L70,40.6
	l0,20.8c0,4.1,3.4,7.5,7.5,7.5s7.5-3.4,7.5-7.5V22.5C85,18.4,81.6,15,77.5,15z"/>
<text transform="matrix(1 0 0 1 0 115)" class="st0 st1">Created by Jamison Wieser</text>
<text transform="matrix(1 0 0 1 0 120)" class="st0 st1">from the Noun Project</text>
</svg>
