<svg xmlns="http://www.w3.org/2000/svg" xmlns:xlink="http://www.w3.org/1999/xlink" version="1.1" x="0px" y="0px" viewBox="0 0 100 125" enable-background="new 0 0 100 100" xml:space="preserve"><g><path d="M25.978,74.001c13.279,13.277,34.808,13.277,48.085,0.001c13.277-13.279,13.277-34.807,0-48.086   C60.785,12.639,39.257,12.64,25.978,25.918C12.7,39.195,12.702,60.723,25.978,74.001z M67.335,35.95   c0.007,0.055,0.016,0.109,0.02,0.164c0.01,0.101,0.015,0.206,0.015,0.314c0.001,0.003,0.001,0.007,0.001,0.01v24.026   c0,2.114-1.712,3.826-3.827,3.826c-2.112,0-3.825-1.713-3.825-3.824L59.72,45.67L39.202,66.188c-1.494,1.494-3.917,1.494-5.411,0   c-1.494-1.493-1.493-3.917,0.001-5.411L54.31,40.26H39.516c-2.114,0.001-3.828-1.712-3.827-3.827c0-2.11,1.713-3.823,3.824-3.823   l24.031,0c0.114,0,0.221,0.005,0.326,0.017c0.045,0.002,0.091,0.008,0.135,0.013c0.034,0.004,0.072,0.009,0.105,0.017   c0.782,0.116,1.534,0.47,2.138,1.072c0.604,0.605,0.958,1.359,1.076,2.143C67.328,35.898,67.33,35.924,67.335,35.95z"/></g><text x="0" y="115" fill="#000000" font-size="5px" font-weight="bold" font-family="'Helvetica Neue', Helvetica, Arial-Unicode, Arial, Sans-serif">Created by Jamison Wieser</text><text x="0" y="120" fill="#000000" font-size="5px" font-weight="bold" font-family="'Helvetica Neue', Helvetica, Arial-Unicode, Arial, Sans-serif">from the Noun Project</text></svg>