<svg xmlns="http://www.w3.org/2000/svg" xmlns:xlink="http://www.w3.org/1999/xlink" version="1.1" x="0px" y="0px" viewBox="0 0 100 125" enable-background="new 0 0 100 100" xml:space="preserve"><path fill="#000000" d="M7.197,44.697l27.5-27.5c2.929-2.929,7.678-2.929,10.607,0c2.929,2.929,2.929,7.678,0,10.607L30.607,42.5H70  h0c5.118,0,10.237,1.953,14.142,5.858c7.81,7.81,7.81,20.474,0,28.284c-2.929,2.929-7.678,2.929-10.607,0  c-2.929-2.929-2.929-7.678,0-10.607c1.953-1.953,1.953-5.118,0-7.071C72.559,57.988,71.28,57.5,70,57.5h0v0H30.607l14.697,14.697  c2.929,2.929,2.929,7.678,0,10.607c-2.929,2.929-7.678,2.929-10.607,0L16.036,64.142l-8.839-8.839  C4.268,52.374,4.268,47.626,7.197,44.697z"/><text x="0" y="115" fill="#000000" font-size="5px" font-weight="bold" font-family="'Helvetica Neue', Helvetica, Arial-Unicode, Arial, Sans-serif">Created by Jamison Wieser</text><text x="0" y="120" fill="#000000" font-size="5px" font-weight="bold" font-family="'Helvetica Neue', Helvetica, Arial-Unicode, Arial, Sans-serif">from the Noun Project</text></svg>