<?xml version="1.0" encoding="utf-8"?>
<!-- Generator: Adobe Illustrator 25.4.8, SVG Export Plug-In . SVG Version: 6.00 Build 0)  -->
<svg version="1.1" id="Layer_1" xmlns="http://www.w3.org/2000/svg" xmlns:xlink="http://www.w3.org/1999/xlink" x="0px" y="0px"
	 viewBox="0 0 700 700" style="enable-background:new 0 0 700 700;" xml:space="preserve">
<g>
	<path d="M249.8,243.6c53.2,0,96.3-43.1,96.3-96.3c0-53.2-43.7-95.8-96.3-95.8c-52.6,0-96.3,43.1-96.3,96.3S196.6,243.6,249.8,243.6
		L249.8,243.6z M249.8,84c35.3,0,63.8,28.6,63.8,63.8s-28.6,63.8-63.8,63.8s-63.8-28.6-63.8-63.8S214.5,84,249.8,84L249.8,84z
		 M505.7,436.8c6.7,6.7,6.7,17.4,0,24.1l-37,34.7c-6.7,6.2-16.8,5.6-23-0.6c-6.2-6.7-5.6-16.8,0.6-23l11.2-10.6
		c6.7-6.7,6.7-17.4,0-24.1L434,415c-6.7-6.7-6.7-17.4,0-24.1l23.5-21.8c6.7-6.7,6.7-17.4,0-24.1L434,323.1c-6.7-6.7-6.7-17.4,0-24.1
		l37-34.7c6.7-6.2,16.8-5.6,23,0.6c6.2,6.7,5.6,16.8-0.6,23l-11.8,10.6c-6.7,6.7-6.7,17.4,0,24.1l23.5,21.8c6.7,6.7,6.7,17.4,0,24.1
		l-23.5,21.8c-6.7,6.7-6.7,17.4,0,24.1L505.7,436.8z M351.7,311.9v179.8c0,9-7.3,16.2-16.2,16.2H188.2c-9,0-16.2-7.3-16.2-16.2
		V311.9c0-9,7.3-16.2,16.2-16.2h146.7C344.4,295.7,351.7,303,351.7,311.9L351.7,311.9z M533.7,226.2H399.3
		c-12.3,0-20.2-13.4-14-24.1l67.2-115.9c6.2-10.6,21.8-10.6,28,0l67.2,115.9C553.8,212.8,546,226.2,533.7,226.2L533.7,226.2z"/>
</g>
</svg>
