%TF.GenerationSoftware,KiCad,Pcbnew,(6.0.0-0)*%
%TF.CreationDate,2022-09-18T03:09:56-04:00*%
%TF.ProjectId,daisy_hardware_v1,64616973-795f-4686-9172-64776172655f,rev?*%
%TF.SameCoordinates,Original*%
%TF.FileFunction,Legend,Bot*%
%TF.FilePolarity,Positive*%
%FSLAX46Y46*%
G04 Gerber Fmt 4.6, Leading zero omitted, Abs format (unit mm)*
G04 Created by KiCad (PCBNEW (6.0.0-0)) date 2022-09-18 03:09:56*
%MOMM*%
%LPD*%
G01*
G04 APERTURE LIST*
%ADD10C,0.150000*%
%ADD11C,0.120000*%
%ADD12O,2.216000X1.108000*%
%ADD13O,2.016000X1.008000*%
%ADD14R,1.700000X1.700000*%
%ADD15O,1.700000X1.700000*%
%ADD16C,3.240000*%
%ADD17R,1.800000X1.800000*%
%ADD18C,1.800000*%
%ADD19C,1.524000*%
%ADD20R,2.300000X1.500000*%
%ADD21O,2.300000X1.500000*%
G04 APERTURE END LIST*
D10*
%TO.C,J21*%
X45513523Y-373594380D02*
X45513523Y-374308666D01*
X45561142Y-374451523D01*
X45656380Y-374546761D01*
X45799238Y-374594380D01*
X45894476Y-374594380D01*
X45084952Y-373689619D02*
X45037333Y-373642000D01*
X44942095Y-373594380D01*
X44704000Y-373594380D01*
X44608761Y-373642000D01*
X44561142Y-373689619D01*
X44513523Y-373784857D01*
X44513523Y-373880095D01*
X44561142Y-374022952D01*
X45132571Y-374594380D01*
X44513523Y-374594380D01*
X43561142Y-374594380D02*
X44132571Y-374594380D01*
X43846857Y-374594380D02*
X43846857Y-373594380D01*
X43942095Y-373737238D01*
X44037333Y-373832476D01*
X44132571Y-373880095D01*
%TO.C,J20*%
X82950923Y-277093980D02*
X82950923Y-277808266D01*
X82998542Y-277951123D01*
X83093780Y-278046361D01*
X83236638Y-278093980D01*
X83331876Y-278093980D01*
X82522352Y-277189219D02*
X82474733Y-277141600D01*
X82379495Y-277093980D01*
X82141400Y-277093980D01*
X82046161Y-277141600D01*
X81998542Y-277189219D01*
X81950923Y-277284457D01*
X81950923Y-277379695D01*
X81998542Y-277522552D01*
X82569971Y-278093980D01*
X81950923Y-278093980D01*
X81331876Y-277093980D02*
X81236638Y-277093980D01*
X81141400Y-277141600D01*
X81093780Y-277189219D01*
X81046161Y-277284457D01*
X80998542Y-277474933D01*
X80998542Y-277713028D01*
X81046161Y-277903504D01*
X81093780Y-277998742D01*
X81141400Y-278046361D01*
X81236638Y-278093980D01*
X81331876Y-278093980D01*
X81427114Y-278046361D01*
X81474733Y-277998742D01*
X81522352Y-277903504D01*
X81569971Y-277713028D01*
X81569971Y-277474933D01*
X81522352Y-277284457D01*
X81474733Y-277189219D01*
X81427114Y-277141600D01*
X81331876Y-277093980D01*
%TO.C,J9*%
X88714780Y-376094666D02*
X89429066Y-376094666D01*
X89571923Y-376047047D01*
X89667161Y-375951809D01*
X89714780Y-375808952D01*
X89714780Y-375713714D01*
X89714780Y-376618476D02*
X89714780Y-376808952D01*
X89667161Y-376904190D01*
X89619542Y-376951809D01*
X89476685Y-377047047D01*
X89286209Y-377094666D01*
X88905257Y-377094666D01*
X88810019Y-377047047D01*
X88762400Y-376999428D01*
X88714780Y-376904190D01*
X88714780Y-376713714D01*
X88762400Y-376618476D01*
X88810019Y-376570857D01*
X88905257Y-376523238D01*
X89143352Y-376523238D01*
X89238590Y-376570857D01*
X89286209Y-376618476D01*
X89333828Y-376713714D01*
X89333828Y-376904190D01*
X89286209Y-376999428D01*
X89238590Y-377047047D01*
X89143352Y-377094666D01*
%TO.C,J6*%
X136524780Y-274494666D02*
X137239066Y-274494666D01*
X137381923Y-274447047D01*
X137477161Y-274351809D01*
X137524780Y-274208952D01*
X137524780Y-274113714D01*
X136524780Y-275399428D02*
X136524780Y-275208952D01*
X136572400Y-275113714D01*
X136620019Y-275066095D01*
X136762876Y-274970857D01*
X136953352Y-274923238D01*
X137334304Y-274923238D01*
X137429542Y-274970857D01*
X137477161Y-275018476D01*
X137524780Y-275113714D01*
X137524780Y-275304190D01*
X137477161Y-275399428D01*
X137429542Y-275447047D01*
X137334304Y-275494666D01*
X137096209Y-275494666D01*
X137000971Y-275447047D01*
X136953352Y-275399428D01*
X136905733Y-275304190D01*
X136905733Y-275113714D01*
X136953352Y-275018476D01*
X137000971Y-274970857D01*
X137096209Y-274923238D01*
D11*
%TO.C,J21*%
X40246400Y-374863600D02*
X40246400Y-377523600D01*
X83486400Y-374863600D02*
X83486400Y-377523600D01*
X40246400Y-374863600D02*
X83486400Y-374863600D01*
X37646400Y-377523600D02*
X38976400Y-377523600D01*
X40246400Y-377523600D02*
X83486400Y-377523600D01*
X37646400Y-376193600D02*
X37646400Y-377523600D01*
%TO.C,J20*%
X80856400Y-276305000D02*
X80856400Y-273645000D01*
X83456400Y-274975000D02*
X83456400Y-273645000D01*
X80856400Y-276305000D02*
X37616400Y-276305000D01*
X83456400Y-273645000D02*
X82126400Y-273645000D01*
X37616400Y-276305000D02*
X37616400Y-273645000D01*
X80856400Y-273645000D02*
X37616400Y-273645000D01*
%TO.C,J9*%
X92862400Y-375098000D02*
X92862400Y-377758000D01*
X91592400Y-375098000D02*
X90262400Y-375098000D01*
X92862400Y-377758000D02*
X136102400Y-377758000D01*
X92862400Y-375098000D02*
X136102400Y-375098000D01*
X90262400Y-375098000D02*
X90262400Y-376428000D01*
X136102400Y-375098000D02*
X136102400Y-377758000D01*
%TO.C,J6*%
X133472400Y-276158000D02*
X133472400Y-273498000D01*
X133472400Y-273498000D02*
X90232400Y-273498000D01*
X136072400Y-276158000D02*
X136072400Y-274828000D01*
X134742400Y-276158000D02*
X136072400Y-276158000D01*
X90232400Y-276158000D02*
X90232400Y-273498000D01*
X133472400Y-276158000D02*
X90232400Y-276158000D01*
%TD*%
%LPC*%
D12*
%TO.C,J13*%
X107870333Y-294079999D03*
X107870333Y-297179999D03*
D13*
X107870333Y-305479999D03*
%TD*%
D12*
%TO.C,J15*%
X118443666Y-278244000D03*
X118443666Y-281344000D03*
D13*
X118443666Y-289644000D03*
%TD*%
D14*
%TO.C,J1*%
X39820000Y-306960000D03*
D15*
X42360000Y-306960000D03*
X39820000Y-309500000D03*
X42360000Y-309500000D03*
X39820000Y-312040000D03*
X42360000Y-312040000D03*
X39820000Y-314580000D03*
X42360000Y-314580000D03*
X39820000Y-317120000D03*
X42360000Y-317120000D03*
X39820000Y-319660000D03*
X42360000Y-319660000D03*
X39820000Y-322200000D03*
X42360000Y-322200000D03*
X39820000Y-324740000D03*
X42360000Y-324740000D03*
%TD*%
D12*
%TO.C,J14*%
X107870333Y-309915998D03*
X107870333Y-313015998D03*
D13*
X107870333Y-321315998D03*
%TD*%
D16*
%TO.C,RV1*%
X135737000Y-285874000D03*
X126137000Y-285874000D03*
D17*
X133437000Y-278374000D03*
D18*
X130937000Y-278374000D03*
X128437000Y-278374000D03*
%TD*%
D17*
%TO.C,D1*%
X91960000Y-342900000D03*
D18*
X94500000Y-342900000D03*
%TD*%
D12*
%TO.C,J10*%
X119718666Y-347215000D03*
X119718666Y-350315000D03*
D13*
X119718666Y-358615000D03*
%TD*%
D16*
%TO.C,RV3*%
X100177000Y-317546000D03*
X90577000Y-317546000D03*
D17*
X97877000Y-310046000D03*
D18*
X95377000Y-310046000D03*
X92877000Y-310046000D03*
%TD*%
D16*
%TO.C,RV5*%
X100177000Y-301710000D03*
X90577000Y-301710000D03*
D17*
X97877000Y-294210000D03*
D18*
X95377000Y-294210000D03*
X92877000Y-294210000D03*
%TD*%
D12*
%TO.C,J3*%
X93980000Y-361312000D03*
X93980000Y-364412000D03*
D13*
X93980000Y-372712000D03*
%TD*%
D12*
%TO.C,J18*%
X107870333Y-325751998D03*
X107870333Y-328851998D03*
D13*
X107870333Y-337151998D03*
%TD*%
D16*
%TO.C,RV2*%
X135737000Y-301710000D03*
X126137000Y-301710000D03*
D17*
X133437000Y-294210000D03*
D18*
X130937000Y-294210000D03*
X128437000Y-294210000D03*
%TD*%
D12*
%TO.C,J12*%
X107870333Y-278244000D03*
X107870333Y-281344000D03*
D13*
X107870333Y-289644000D03*
%TD*%
D12*
%TO.C,J16*%
X118443666Y-294080000D03*
X118443666Y-297180000D03*
D13*
X118443666Y-305480000D03*
%TD*%
D12*
%TO.C,J17*%
X118443666Y-309916000D03*
X118443666Y-313016000D03*
D13*
X118443666Y-321316000D03*
%TD*%
D12*
%TO.C,J7*%
X93980000Y-347444500D03*
X93980000Y-350544500D03*
D13*
X93980000Y-358844500D03*
%TD*%
D12*
%TO.C,J4*%
X106849333Y-361312000D03*
X106849333Y-364412000D03*
D13*
X106849333Y-372712000D03*
%TD*%
D16*
%TO.C,RV4*%
X90577000Y-333382000D03*
X100177000Y-333382000D03*
D17*
X97877000Y-325882000D03*
D18*
X95377000Y-325882000D03*
X92877000Y-325882000D03*
%TD*%
D16*
%TO.C,RV7*%
X126137000Y-333382000D03*
X135737000Y-333382000D03*
D17*
X133437000Y-325882000D03*
D18*
X130937000Y-325882000D03*
X128437000Y-325882000D03*
%TD*%
D12*
%TO.C,J2*%
X119718666Y-361312000D03*
X119718666Y-364412000D03*
D13*
X119718666Y-372712000D03*
%TD*%
D19*
%TO.C,SW1*%
X99960000Y-342900000D03*
X102500000Y-342900000D03*
X105040000Y-342900000D03*
%TD*%
D12*
%TO.C,J19*%
X118443666Y-325752000D03*
X118443666Y-328852000D03*
D13*
X118443666Y-337152000D03*
%TD*%
D12*
%TO.C,J11*%
X132588000Y-347215000D03*
X132588000Y-350315000D03*
D13*
X132588000Y-358615000D03*
%TD*%
D16*
%TO.C,RV8*%
X100177000Y-285874000D03*
X90577000Y-285874000D03*
D17*
X97877000Y-278374000D03*
D18*
X95377000Y-278374000D03*
X92877000Y-278374000D03*
%TD*%
D12*
%TO.C,J8*%
X106849333Y-347215000D03*
X106849333Y-350315000D03*
D13*
X106849333Y-358615000D03*
%TD*%
D16*
%TO.C,RV6*%
X126137000Y-317546000D03*
X135737000Y-317546000D03*
D17*
X133437000Y-310046000D03*
D18*
X130937000Y-310046000D03*
X128437000Y-310046000D03*
%TD*%
D12*
%TO.C,J5*%
X132588000Y-361312000D03*
X132588000Y-364412000D03*
D13*
X132588000Y-372712000D03*
%TD*%
D17*
%TO.C,D2*%
X134100000Y-342646000D03*
D18*
X131560000Y-342646000D03*
%TD*%
D20*
%TO.C,U9*%
X39586000Y-337128400D03*
D21*
X39586000Y-339668400D03*
X39586000Y-342208400D03*
%TD*%
D19*
%TO.C,U1*%
X64830000Y-315232000D03*
X64830000Y-317772000D03*
X64830000Y-320312000D03*
X64830000Y-322852000D03*
X64830000Y-325392000D03*
X64830000Y-327932000D03*
X64830000Y-330472000D03*
X64830000Y-333012000D03*
X64830000Y-335552000D03*
X64830000Y-338092000D03*
X64830000Y-340632000D03*
X64830000Y-343172000D03*
X64830000Y-345712000D03*
X64830000Y-348252000D03*
X64830000Y-350792000D03*
X64830000Y-353332000D03*
X64830000Y-355872000D03*
X64830000Y-358412000D03*
X64830000Y-360952000D03*
X64830000Y-363492000D03*
X80070000Y-363492000D03*
X80070000Y-360952000D03*
X80070000Y-358412000D03*
X80070000Y-355872000D03*
X80070000Y-353332000D03*
X80070000Y-350792000D03*
X80070000Y-348252000D03*
X80070000Y-345712000D03*
X80070000Y-343172000D03*
X80070000Y-340632000D03*
X80070000Y-338092000D03*
X80070000Y-335552000D03*
X80070000Y-333012000D03*
X80070000Y-330472000D03*
X80070000Y-327932000D03*
X80070000Y-325392000D03*
X80070000Y-322852000D03*
X80070000Y-320312000D03*
X80070000Y-317772000D03*
X80070000Y-315232000D03*
%TD*%
%TO.C,SW2*%
X126040000Y-342900000D03*
X123500000Y-342900000D03*
X120960000Y-342900000D03*
%TD*%
D14*
%TO.C,J21*%
X38976400Y-376193600D03*
D15*
X41516400Y-376193600D03*
X44056400Y-376193600D03*
X46596400Y-376193600D03*
X49136400Y-376193600D03*
X51676400Y-376193600D03*
X54216400Y-376193600D03*
X56756400Y-376193600D03*
X59296400Y-376193600D03*
X61836400Y-376193600D03*
X64376400Y-376193600D03*
X66916400Y-376193600D03*
X69456400Y-376193600D03*
X71996400Y-376193600D03*
X74536400Y-376193600D03*
X77076400Y-376193600D03*
X79616400Y-376193600D03*
X82156400Y-376193600D03*
%TD*%
D14*
%TO.C,J20*%
X82126400Y-274975000D03*
D15*
X79586400Y-274975000D03*
X77046400Y-274975000D03*
X74506400Y-274975000D03*
X71966400Y-274975000D03*
X69426400Y-274975000D03*
X66886400Y-274975000D03*
X64346400Y-274975000D03*
X61806400Y-274975000D03*
X59266400Y-274975000D03*
X56726400Y-274975000D03*
X54186400Y-274975000D03*
X51646400Y-274975000D03*
X49106400Y-274975000D03*
X46566400Y-274975000D03*
X44026400Y-274975000D03*
X41486400Y-274975000D03*
X38946400Y-274975000D03*
%TD*%
D14*
%TO.C,J9*%
X91592400Y-376428000D03*
D15*
X94132400Y-376428000D03*
X96672400Y-376428000D03*
X99212400Y-376428000D03*
X101752400Y-376428000D03*
X104292400Y-376428000D03*
X106832400Y-376428000D03*
X109372400Y-376428000D03*
X111912400Y-376428000D03*
X114452400Y-376428000D03*
X116992400Y-376428000D03*
X119532400Y-376428000D03*
X122072400Y-376428000D03*
X124612400Y-376428000D03*
X127152400Y-376428000D03*
X129692400Y-376428000D03*
X132232400Y-376428000D03*
X134772400Y-376428000D03*
%TD*%
D14*
%TO.C,J6*%
X134742400Y-274828000D03*
D15*
X132202400Y-274828000D03*
X129662400Y-274828000D03*
X127122400Y-274828000D03*
X124582400Y-274828000D03*
X122042400Y-274828000D03*
X119502400Y-274828000D03*
X116962400Y-274828000D03*
X114422400Y-274828000D03*
X111882400Y-274828000D03*
X109342400Y-274828000D03*
X106802400Y-274828000D03*
X104262400Y-274828000D03*
X101722400Y-274828000D03*
X99182400Y-274828000D03*
X96642400Y-274828000D03*
X94102400Y-274828000D03*
X91562400Y-274828000D03*
%TD*%
M02*
