M48
; DRILL file {KiCad (6.0.0-0)} date Sunday, September 18, 2022 at 03:10:00 am
; FORMAT={-:-/ absolute / metric / decimal}
; #@! TF.CreationDate,2022-09-18T03:10:00-04:00
; #@! TF.GenerationSoftware,Kicad,Pcbnew,(6.0.0-0)
; #@! TF.FileFunction,Plated,1,4,PTH
FMAT,2
METRIC
; #@! TA.AperFunction,Plated,PTH,ViaDrill
T1C0.400
; #@! TA.AperFunction,Plated,PTH,ComponentDrill
T2C0.500
; #@! TA.AperFunction,Plated,PTH,ComponentDrill
T3C0.600
; #@! TA.AperFunction,Plated,PTH,ComponentDrill
T4C0.762
; #@! TA.AperFunction,Plated,PTH,ComponentDrill
T5C0.900
; #@! TA.AperFunction,Plated,PTH,ComponentDrill
T6C1.000
; #@! TA.AperFunction,Plated,PTH,ComponentDrill
T7C1.800
%
G90
G05
T1
X38.113Y-330.728
X39.586Y-337.128
X39.684Y-290.086
X41.11Y-371.393
X41.462Y-359.428
X41.716Y-351.046
X41.716Y-368.064
X43.494Y-289.324
X44.764Y-283.99
X45.272Y-354.376
X45.526Y-349.268
X45.526Y-357.65
X45.78Y-366.54
X46.514Y-288.308
X46.514Y-290.848
X46.542Y-364.0
X46.825Y-324.276
X47.304Y-286.022
X47.46Y-314.751
X48.066Y-296.69
X48.73Y-319.33
X48.828Y-286.276
X49.59Y-354.348
X49.618Y-288.054
X49.618Y-289.324
X49.618Y-290.594
X51.368Y-355.872
X51.876Y-283.99
X51.876Y-306.342
X54.952Y-352.422
X55.686Y-299.23
X55.686Y-358.92
X56.448Y-282.974
X56.448Y-289.832
X56.702Y-304.056
X56.956Y-350.538
X57.21Y-302.532
X57.21Y-307.612
X57.21Y-308.882
X57.21Y-310.152
X57.569Y-359.963
X57.62Y-319.091
X57.972Y-355.364
X59.197Y-361.106
X60.512Y-304.056
X60.992Y-299.484
X62.141Y-367.126
X62.192Y-318.84
X63.233Y-312.008
X63.335Y-285.033
X63.462Y-290.748
X63.749Y-301.135
X66.608Y-289.324
X67.624Y-283.256
X67.827Y-351.757
X67.878Y-366.286
X68.132Y-288.816
X69.402Y-349.268
X69.656Y-373.398
X69.685Y-288.081
X69.685Y-290.621
X69.939Y-360.979
X73.466Y-365.016
X75.055Y-305.199
X75.055Y-306.469
X75.055Y-307.739
X75.055Y-309.009
X75.055Y-310.279
X75.908Y-288.081
X75.908Y-290.621
X77.784Y-368.7
X80.005Y-305.199
X80.005Y-306.469
X81.312Y-289.478
X82.892Y-289.324
X102.235Y-298.704
X103.124Y-318.338
X103.632Y-281.432
X108.204Y-340.614
X110.301Y-345.44
X111.5Y-341.9
X113.03Y-292.354
X114.681Y-372.999
X115.062Y-288.798
X115.251Y-341.63
X115.3Y-342.9
X115.938Y-292.468
X117.602Y-342.138
X121.412Y-289.179
X123.317Y-280.289
X123.345Y-283.845
X123.571Y-359.283
X123.698Y-362.712
X125.504Y-360.934
X126.492Y-371.856
X134.899Y-360.858
X136.982Y-375.056
T4
X64.83Y-315.232
X64.83Y-317.772
X64.83Y-320.312
X64.83Y-322.852
X64.83Y-325.392
X64.83Y-327.932
X64.83Y-330.472
X64.83Y-333.012
X64.83Y-335.552
X64.83Y-338.092
X64.83Y-340.632
X64.83Y-343.172
X64.83Y-345.712
X64.83Y-348.252
X64.83Y-350.792
X64.83Y-353.332
X64.83Y-355.872
X64.83Y-358.412
X64.83Y-360.952
X64.83Y-363.492
X80.07Y-315.232
X80.07Y-317.772
X80.07Y-320.312
X80.07Y-322.852
X80.07Y-325.392
X80.07Y-327.932
X80.07Y-330.472
X80.07Y-333.012
X80.07Y-335.552
X80.07Y-338.092
X80.07Y-340.632
X80.07Y-343.172
X80.07Y-345.712
X80.07Y-348.252
X80.07Y-350.792
X80.07Y-353.332
X80.07Y-355.872
X80.07Y-358.412
X80.07Y-360.952
X80.07Y-363.492
X99.96Y-342.9
X102.5Y-342.9
X105.04Y-342.9
X120.96Y-342.9
X123.5Y-342.9
X126.04Y-342.9
T5
X91.96Y-342.9
X94.5Y-342.9
X131.56Y-342.646
X134.1Y-342.646
T6
X38.946Y-274.975
X38.976Y-376.194
X39.586Y-337.128
X39.586Y-339.668
X39.586Y-342.208
X39.82Y-306.96
X39.82Y-309.5
X39.82Y-312.04
X39.82Y-314.58
X39.82Y-317.12
X39.82Y-319.66
X39.82Y-322.2
X39.82Y-324.74
X41.486Y-274.975
X41.516Y-376.194
X42.36Y-306.96
X42.36Y-309.5
X42.36Y-312.04
X42.36Y-314.58
X42.36Y-317.12
X42.36Y-319.66
X42.36Y-322.2
X42.36Y-324.74
X44.026Y-274.975
X44.056Y-376.194
X46.566Y-274.975
X46.596Y-376.194
X49.106Y-274.975
X49.136Y-376.194
X51.646Y-274.975
X51.676Y-376.194
X54.186Y-274.975
X54.216Y-376.194
X56.726Y-274.975
X56.756Y-376.194
X59.266Y-274.975
X59.296Y-376.194
X61.806Y-274.975
X61.836Y-376.194
X64.346Y-274.975
X64.376Y-376.194
X66.886Y-274.975
X66.916Y-376.194
X69.426Y-274.975
X69.456Y-376.194
X71.966Y-274.975
X71.996Y-376.194
X74.506Y-274.975
X74.536Y-376.194
X77.046Y-274.975
X77.076Y-376.194
X79.586Y-274.975
X79.616Y-376.194
X82.126Y-274.975
X82.156Y-376.194
X91.562Y-274.828
X91.592Y-376.428
X92.877Y-278.374
X92.877Y-294.21
X92.877Y-310.046
X92.877Y-325.882
X94.102Y-274.828
X94.132Y-376.428
X95.377Y-278.374
X95.377Y-294.21
X95.377Y-310.046
X95.377Y-325.882
X96.642Y-274.828
X96.672Y-376.428
X97.877Y-278.374
X97.877Y-294.21
X97.877Y-310.046
X97.877Y-325.882
X99.182Y-274.828
X99.212Y-376.428
X101.722Y-274.828
X101.752Y-376.428
X104.262Y-274.828
X104.292Y-376.428
X106.802Y-274.828
X106.832Y-376.428
X109.342Y-274.828
X109.372Y-376.428
X111.882Y-274.828
X111.912Y-376.428
X114.422Y-274.828
X114.452Y-376.428
X116.962Y-274.828
X116.992Y-376.428
X119.502Y-274.828
X119.532Y-376.428
X122.042Y-274.828
X122.072Y-376.428
X124.582Y-274.828
X124.612Y-376.428
X127.122Y-274.828
X127.152Y-376.428
X128.437Y-278.374
X128.437Y-294.21
X128.437Y-310.046
X128.437Y-325.882
X129.662Y-274.828
X129.692Y-376.428
X130.937Y-278.374
X130.937Y-294.21
X130.937Y-310.046
X130.937Y-325.882
X132.202Y-274.828
X132.232Y-376.428
X133.437Y-278.374
X133.437Y-294.21
X133.437Y-310.046
X133.437Y-325.882
X134.742Y-274.828
X134.772Y-376.428
T7
X90.577Y-285.874
X90.577Y-301.71
X90.577Y-317.546
X90.577Y-333.382
X100.177Y-285.874
X100.177Y-301.71
X100.177Y-317.546
X100.177Y-333.382
X126.137Y-285.874
X126.137Y-301.71
X126.137Y-317.546
X126.137Y-333.382
X135.737Y-285.874
X135.737Y-301.71
X135.737Y-317.546
X135.737Y-333.382
T2
X94.48Y-358.844G85X93.48Y-358.844
G05
X94.48Y-372.712G85X93.48Y-372.712
G05
X107.349Y-358.615G85X106.349Y-358.615
G05
X107.349Y-372.712G85X106.349Y-372.712
G05
X108.37Y-289.644G85X107.37Y-289.644
G05
X108.37Y-305.48G85X107.37Y-305.48
G05
X108.37Y-321.316G85X107.37Y-321.316
G05
X108.37Y-337.152G85X107.37Y-337.152
G05
X118.944Y-289.644G85X117.944Y-289.644
G05
X118.944Y-305.48G85X117.944Y-305.48
G05
X118.944Y-321.316G85X117.944Y-321.316
G05
X118.944Y-337.152G85X117.944Y-337.152
G05
X120.219Y-358.615G85X119.219Y-358.615
G05
X120.219Y-372.712G85X119.219Y-372.712
G05
X133.088Y-358.615G85X132.088Y-358.615
G05
X133.088Y-372.712G85X132.088Y-372.712
G05
T3
X94.33Y-347.445G85X93.63Y-347.445
G05
X94.43Y-350.544G85X93.53Y-350.544
G05
X94.33Y-361.312G85X93.63Y-361.312
G05
X94.43Y-364.412G85X93.53Y-364.412
G05
X107.199Y-347.215G85X106.499Y-347.215
G05
X107.299Y-350.315G85X106.399Y-350.315
G05
X107.199Y-361.312G85X106.499Y-361.312
G05
X107.299Y-364.412G85X106.399Y-364.412
G05
X108.22Y-278.244G85X107.52Y-278.244
G05
X108.32Y-281.344G85X107.42Y-281.344
G05
X108.22Y-294.08G85X107.52Y-294.08
G05
X108.32Y-297.18G85X107.42Y-297.18
G05
X108.22Y-309.916G85X107.52Y-309.916
G05
X108.32Y-313.016G85X107.42Y-313.016
G05
X108.22Y-325.752G85X107.52Y-325.752
G05
X108.32Y-328.852G85X107.42Y-328.852
G05
X118.794Y-278.244G85X118.094Y-278.244
G05
X118.894Y-281.344G85X117.994Y-281.344
G05
X118.794Y-294.08G85X118.094Y-294.08
G05
X118.894Y-297.18G85X117.994Y-297.18
G05
X118.794Y-309.916G85X118.094Y-309.916
G05
X118.894Y-313.016G85X117.994Y-313.016
G05
X118.794Y-325.752G85X118.094Y-325.752
G05
X118.894Y-328.852G85X117.994Y-328.852
G05
X120.069Y-347.215G85X119.369Y-347.215
G05
X120.169Y-350.315G85X119.269Y-350.315
G05
X120.069Y-361.312G85X119.369Y-361.312
G05
X120.169Y-364.412G85X119.269Y-364.412
G05
X132.938Y-347.215G85X132.238Y-347.215
G05
X133.038Y-350.315G85X132.138Y-350.315
G05
X132.938Y-361.312G85X132.238Y-361.312
G05
X133.038Y-364.412G85X132.138Y-364.412
G05
T0
M30
