<?xml version="1.0" encoding="utf-8"?>
<!-- Generator: Adobe Illustrator 25.1.0, SVG Export Plug-In . SVG Version: 6.00 Build 0)  -->
<svg version="1.1"
	 id="svg8" inkscape:export-filename="/Users/stasivanov/Desktop/lowstepperfinalbetter2.png" inkscape:export-xdpi="800" inkscape:export-ydpi="800" inkscape:version="1.0.1 (c497b03c, 2020-09-10)" sodipodi:docname="Lowstepper3.svg" xmlns:cc="http://creativecommons.org/ns#" xmlns:dc="http://purl.org/dc/elements/1.1/" xmlns:inkscape="http://www.inkscape.org/namespaces/inkscape" xmlns:ns="&#38;#38;#38;ns_ai;" xmlns:rdf="http://www.w3.org/1999/02/22-rdf-syntax-ns#" xmlns:sodipodi="http://sodipodi.sourceforge.net/DTD/sodipodi-0.dtd" xmlns:svg="http://www.w3.org/2000/svg"
	 xmlns="http://www.w3.org/2000/svg" xmlns:xlink="http://www.w3.org/1999/xlink" x="0px" y="0px" viewBox="0 0 85.7 364.3"
	 style="enable-background:new 0 0 85.7 364.3;" xml:space="preserve">
<style type="text/css">
	.st0{filter:url(#filter2992);}
	.st1{fill:#FFFFFF;}
	.st2{fill:none;stroke:#F6921E;stroke-width:8.035215e-02;stroke-miterlimit:11.3386;}
	.st3{display:none;}
	.st4{display:inline;}
	.st5{stroke:#000000;stroke-width:1.4173;stroke-miterlimit:11.3386;}
	.st6{fill:#204A87;stroke:#000000;stroke-width:1.4173;stroke-miterlimit:11.3386;}
	.st7{fill:none;stroke:#204A87;stroke-width:1.4173;stroke-miterlimit:11.3386;}
	.st8{fill:#888A85;stroke:#888A85;stroke-width:0.2835;stroke-miterlimit:11.3386;}
	.st9{stroke:#888A85;stroke-width:3.5433;stroke-miterlimit:11.3386;}
	.st10{fill:none;stroke:#000000;stroke-width:0.5669;stroke-miterlimit:11.3386;}
	.st11{filter:url(#filter7743);}
	.st12{enable-background:new    ;}
	.st13{font-family:'ArialMT';}
	.st14{font-size:13.3954px;}
	.st15{letter-spacing:-1;}
	.st16{font-size:3.15px;}
	.st17{fill-rule:evenodd;clip-rule:evenodd;fill:#FF0000;}
	.st18{fill-rule:evenodd;clip-rule:evenodd;fill:#CCCCCC;}
	.st19{fill-rule:evenodd;clip-rule:evenodd;fill:#FFFFFF;}
	.st20{font-family:'AppleSDGothicNeo-Regular-KSCpc-EUC-H';}
	.st21{font-size:9px;}
	.st22{letter-spacing:1;}
	.st23{font-size:5px;}
	.st24{fill:none;stroke:#FFFFFF;stroke-width:0.3352;stroke-miterlimit:11.3386;}
	.st25{font-size:7px;}
	.st26{font-size:4px;}
	.st27{fill:#2E3436;stroke:#000000;stroke-width:1.4173;stroke-miterlimit:11.3386;}
	.st28{fill:#204A87;stroke:#204A87;stroke-width:1.4173;stroke-miterlimit:11.3386;}
	.st29{fill:none;stroke:#636363;stroke-width:0.8504;stroke-miterlimit:28.3465;}
	.st30{fill:#307DEE;}
	.st31{fill:#2E3436;stroke:#000000;stroke-width:1.8089;stroke-miterlimit:14.4712;}
	.st32{fill:#204A87;stroke:#204A87;stroke-width:1.8089;stroke-miterlimit:14.4712;}
	.st33{fill:none;stroke:#204A87;stroke-width:1.8089;stroke-miterlimit:14.4712;}
	.st34{fill:none;stroke:#636363;stroke-width:1.0853;stroke-miterlimit:36.1781;}
</style>
<filter  id="filter7743" inkscape:label="Invert" style="color-interpolation-filters:sRGB">
	<feColorMatrix  id="feColorMatrix7739" result="color1" type="hueRotate" values="180"></feColorMatrix>
	<feColorMatrix  id="feColorMatrix7741" result="color2" values="-1 0 0 0 1 0 -1 0 0 1 0 0 -1 0 1 -0.21 -0.72 -0.07 1 0 ">
		</feColorMatrix>
</filter>
<filter  id="filter2992" inkscape:label="Opacity" style="color-interpolation-filters:sRGB;">
	<feColorMatrix  id="feColorMatrix2988" result="colormatrix" values="1 0 0 0 0 0 1 0 0 0 0 0 1 0 0 0 0 0 1 -0 "></feColorMatrix>
	<feComposite  id="feComposite2990" in2="colormatrix" k2="0.89521" operator="arithmetic" result="composite"></feComposite>
</filter>
<sodipodi:namedview  bordercolor="#666666" borderopacity="1.0" id="base" inkscape:current-layer="panel" inkscape:cx="48.379667" inkscape:cy="309.05153" inkscape:document-rotation="0" inkscape:document-units="mm" inkscape:lockguides="true" inkscape:pageopacity="0.0" inkscape:pageshadow="2" inkscape:snap-global="true" inkscape:window-height="829" inkscape:window-maximized="0" inkscape:window-width="1252" inkscape:window-x="102" inkscape:window-y="23" inkscape:zoom="3.7900923" pagecolor="#ffffff" showgrid="false" units="mm">
	</sodipodi:namedview>
<g id="layer1" inkscape:groupmode="layer" inkscape:label="Layer 1" sodipodi:insensitive="true">
</g>
<g id="g434" inkscape:label="LowStepper" class="st0">
	<g id="panel_1_" inkscape:groupmode="layer" inkscape:label="Panel">
		<g id="rect423_1_" inkscape:export-xdpi="800" inkscape:export-ydpi="800">
			
				<image style="overflow:visible;" width="103" height="437" xlink:href="CBFEE7DCA75883F.png"  transform="matrix(1 0 0 1 -7.6912 -36.7555)">
			</image>
		</g>
	</g>
</g>
<g id="g7208" inkscape:label="LowStepper" sodipodi:insensitive="true">
	<g id="g7174" inkscape:groupmode="layer" inkscape:label="Panel">
	</g>
	<g id="g7182" inkscape:groupmode="layer" inkscape:label="Holes">
		<g id="g7180" inkscape:label="Holes">
			<rect id="rect7176" x="13.5" y="351.2" class="st1" width="15.6" height="9.1"/>
			<rect id="rect7178" x="13.5" y="4" class="st1" width="15.6" height="9.1"/>
		</g>
	</g>
	<g id="g7186" inkscape:groupmode="layer" inkscape:label="Screws">
		<g id="g7184" inkscape:label="Screws">
		</g>
	</g>
	<g id="g7206" inkscape:groupmode="layer" inkscape:label="Center">
		<g id="g7204" inkscape:label="Center">
			<path id="path7188" class="st2" d="M15.7,355.7h11.1"/>
			<path id="path7190" class="st2" d="M18,358v-4.5"/>
			<path id="path7192" class="st2" d="M21.3,358v-4.5"/>
			<path id="path7194" class="st2" d="M24.5,358v-4.5"/>
			<path id="path7196" class="st2" d="M15.7,8.5h11.1"/>
			<path id="path7198" class="st2" d="M18,10.8V6.2"/>
			<path id="path7200" class="st2" d="M21.3,10.8V6.2"/>
			<path id="path7202" class="st2" d="M24.5,10.8V6.2"/>
		</g>
	</g>
</g>
<g id="knobs-group" inkscape:groupmode="layer" inkscape:label="Knobs Group">
	<g id="g531" inkscape:groupmode="layer" inkscape:label="SEGMENTS" class="st3">
		<g id="g522" inkscape:groupmode="layer" inkscape:label="Skirt" class="st4">
			<circle id="id_s_SEGMENTS" class="st5" cx="28.3" cy="28.3" r="17"/>
		</g>
		<g id="g525" inkscape:groupmode="layer" inkscape:label="Main color" class="st4">
			<circle id="id_SEGMENTS" class="st6" cx="28.3" cy="28.3" r="14.2"/>
		</g>
		<g id="g529" inkscape:groupmode="layer" inkscape:label="Tick" class="st4">
			<path id="path527" class="st7" d="M28.3,28.3l-11,11"/>
		</g>
	</g>
	<g id="g1388" inkscape:groupmode="layer" inkscape:label="SEGMENTS">
		<g id="g1378" inkscape:groupmode="layer" inkscape:label="Skirt">
		</g>
		<g id="g1382" inkscape:groupmode="layer" inkscape:label="Main color">
		</g>
		<g id="g1386" inkscape:groupmode="layer" inkscape:label="Tick">
		</g>
	</g>
	<g id="g1580" inkscape:groupmode="layer" inkscape:label="SEGMENTS">
		<g id="g1570" inkscape:groupmode="layer" inkscape:label="Skirt">
		</g>
		<g id="g1574" inkscape:groupmode="layer" inkscape:label="Main color">
		</g>
		<g id="g1578" inkscape:groupmode="layer" inkscape:label="Tick">
		</g>
	</g>
	<g id="g1800" inkscape:groupmode="layer" inkscape:label="SEGMENTS">
		<g id="g1790" inkscape:groupmode="layer" inkscape:label="Skirt">
		</g>
		<g id="g1794" inkscape:groupmode="layer" inkscape:label="Main color">
		</g>
		<g id="g1798" inkscape:groupmode="layer" inkscape:label="Tick">
		</g>
	</g>
	<g id="g2234" inkscape:groupmode="layer" inkscape:label="SEGMENTS">
		<g id="g2224" inkscape:groupmode="layer" inkscape:label="Skirt">
		</g>
		<g id="g2228" inkscape:groupmode="layer" inkscape:label="Main color">
		</g>
		<g id="g2232" inkscape:groupmode="layer" inkscape:label="Tick">
		</g>
	</g>
</g>
<g id="jacks-group" inkscape:groupmode="layer" inkscape:label="Jacks Group">
	<g id="g1101" inkscape:groupmode="layer" inkscape:label="OUT LFO ">
		<g id="g1086" inkscape:groupmode="layer" inkscape:label="Nut skirt">
		</g>
		<g id="g1090" inkscape:groupmode="layer" inkscape:label="Nut">
		</g>
		<g id="g1093" inkscape:groupmode="layer" inkscape:label="Main color">
		</g>
		<g id="g1099" inkscape:groupmode="layer" inkscape:label="Drill guide">
			<g id="g416" transform="translate(-0.29140744)">
				
					<path id="path1088" inkscape:flatsided="false" inkscape:randomized="0" inkscape:rounded="0" sodipodi:arg1="0.78539816" sodipodi:arg2="0.84823001" sodipodi:cx="15.450029" sodipodi:cy="38.810429" sodipodi:r1="4" sodipodi:r2="3.8095238" sodipodi:sides="50" sodipodi:type="star" class="st8" d="
					M51.3,118l-0.9,0.1l-0.2,0.9l-0.9,0l-0.3,0.8l-0.9-0.1l-0.4,0.8l-0.8-0.2l-0.5,0.7l-0.8-0.3l-0.6,0.7l-0.8-0.4l-0.7,0.6
					l-0.7-0.5l-0.7,0.5l-0.6-0.6l-0.8,0.4l-0.5-0.7l-0.8,0.3l-0.4-0.8l-0.9,0.2l-0.3-0.8l-0.9,0.1l-0.2-0.8l-0.9,0l-0.1-0.9
					l-0.9-0.1l0-0.9l-0.8-0.2l0.1-0.9l-0.8-0.3l0.2-0.9l-0.8-0.4l0.3-0.8l-0.7-0.5l0.4-0.8l-0.6-0.6l0.5-0.7l-0.5-0.7l0.6-0.7
					l-0.4-0.8l0.7-0.6l-0.3-0.8l0.7-0.5l-0.2-0.8l0.8-0.4l-0.1-0.9l0.8-0.3l0-0.9l0.9-0.2l0.1-0.9l0.9-0.1l0.2-0.9l0.9,0l0.3-0.8
					l0.9,0.1l0.4-0.8l0.8,0.2l0.5-0.7l0.8,0.3l0.6-0.7l0.8,0.4l0.7-0.6l0.7,0.5l0.7-0.5l0.6,0.6l0.8-0.4l0.5,0.7l0.8-0.3l0.4,0.8
					l0.9-0.2l0.3,0.8l0.9-0.1l0.2,0.8l0.9,0l0.1,0.9l0.9,0.1l0,0.9l0.8,0.2l-0.1,0.9l0.8,0.3l-0.2,0.9l0.8,0.4l-0.3,0.8l0.7,0.5
					l-0.4,0.8l0.6,0.6l-0.5,0.7l0.5,0.7L54,111l0.4,0.8l-0.7,0.6l0.3,0.8l-0.7,0.5l0.2,0.8l-0.8,0.4l0.1,0.9l-0.8,0.3l0,0.9
					l-0.9,0.2L51.3,118z"/>
				<circle id="id_x5F_OUT_LFO" class="st9" cx="43.3" cy="110" r="6.7"/>
				<path id="path1095" class="st10" d="M52.5,110H34"/>
				<path id="path1097" class="st10" d="M43.3,119.2v-18.4"/>
			</g>
			<g id="g7628_1_" ns:extraneous="self" class="st11">
				<g id="text_1_" class="st3">
					<g id="g7586_1_" class="st4">
						<text id="text7582_1_" transform="matrix(1 0 0 1 44.6782 356.0713)" class="st12"><tspan x="0" y="0" class="st13 st14">Oka</tspan><tspan x="23.7" y="0" class="st13 st14 st15">y</tspan><tspan x="29.1" y="0" class="st13 st14">.</tspan></text>
						<text id="text7584_1_" transform="matrix(1 0 0 1 45.4048 359.2061)" class="st13 st16">SYNTHESIZER</text>
					</g>
				</g>
				<g id="outlines_1_">
					<g id="g7625_1_">
						<g id="g7599_1_">
							<path id="path7589_1_" d="M45.1,352.1c0-0.7,0.1-1.3,0.3-1.8c0.2-0.5,0.5-1,0.9-1.3c0.4-0.4,0.8-0.6,1.3-0.8
								c0.5-0.2,1.1-0.3,1.7-0.3c0.6,0,1.2,0.1,1.7,0.3c0.5,0.2,1,0.5,1.3,0.8c0.4,0.4,0.7,0.8,0.9,1.3c0.2,0.5,0.3,1.2,0.3,1.8
								s-0.1,1.3-0.3,1.9c-0.2,0.5-0.5,1-0.9,1.4c-0.4,0.4-0.8,0.6-1.3,0.8c-0.5,0.2-1.1,0.3-1.7,0.3c-0.6,0-1.2-0.1-1.7-0.3
								c-0.5-0.2-1-0.5-1.3-0.8c-0.4-0.4-0.7-0.8-0.9-1.4C45.2,353.4,45.1,352.8,45.1,352.1z M47.5,352.1c0,0.8,0.2,1.4,0.5,1.8
								c0.3,0.4,0.8,0.6,1.3,0.6c0.6,0,1-0.2,1.3-0.6c0.3-0.4,0.5-1,0.5-1.8c0-0.8-0.2-1.4-0.5-1.8c-0.3-0.4-0.8-0.6-1.3-0.6
								c-0.6,0-1,0.2-1.3,0.6C47.6,350.6,47.5,351.3,47.5,352.1z"/>
							<path id="path7591_1_" d="M60.7,355c0,0.4-0.2,0.7-0.4,1c-0.2,0.2-0.5,0.3-0.9,0.3c-0.3,0-0.5-0.1-0.8-0.2
								c-0.2-0.1-0.5-0.4-0.7-0.7l-1.3-1.7v2.4c-0.1,0-0.2,0-0.4,0.1s-0.4,0-0.6,0s-0.4,0-0.5,0c-0.2,0-0.3-0.1-0.4-0.2
								c-0.1-0.1-0.2-0.2-0.3-0.3c-0.1-0.1-0.1-0.3-0.1-0.5v-7.8c0.1,0,0.2-0.1,0.4-0.1c0.2,0,0.4,0,0.6,0s0.4,0,0.5,0
								c0.2,0,0.3,0.1,0.4,0.2c0.1,0.1,0.2,0.2,0.3,0.3c0.1,0.1,0.1,0.3,0.1,0.5v3.5l2.3-2.4c0.5,0,0.8,0.1,1.1,0.3
								c0.3,0.2,0.4,0.5,0.4,0.8c0,0.1,0,0.3-0.1,0.4c0,0.1-0.1,0.2-0.2,0.3c-0.1,0.1-0.2,0.2-0.4,0.4c-0.1,0.1-0.3,0.3-0.5,0.5
								l-0.8,0.7L60.7,355z"/>
							<path id="path7593_1_" d="M64.2,349.4c0.5,0,0.9,0,1.3,0.1c0.4,0.1,0.7,0.3,1,0.5c0.3,0.2,0.5,0.4,0.6,0.8s0.2,0.7,0.2,1.1v3
								c0,0.2-0.1,0.4-0.2,0.6c-0.1,0.1-0.3,0.3-0.5,0.4c-0.6,0.3-1.4,0.5-2.4,0.5c-0.5,0-0.9,0-1.3-0.1c-0.4-0.1-0.7-0.2-1-0.4
								c-0.3-0.2-0.5-0.4-0.6-0.7c-0.1-0.3-0.2-0.6-0.2-1c0-0.6,0.2-1.1,0.6-1.4c0.4-0.3,0.9-0.5,1.7-0.6l1.8-0.2v-0.1
								c0-0.3-0.1-0.4-0.3-0.6c-0.2-0.1-0.6-0.2-1-0.2c-0.3,0-0.7,0-1,0.1c-0.3,0.1-0.6,0.2-0.9,0.3c-0.1-0.1-0.2-0.2-0.3-0.4
								c-0.1-0.2-0.1-0.3-0.1-0.5c0-0.2,0.1-0.4,0.2-0.6c0.1-0.1,0.3-0.3,0.5-0.4c0.3-0.1,0.6-0.2,0.9-0.2
								C63.5,349.4,63.9,349.4,64.2,349.4z M64.3,354.7c0.2,0,0.3,0,0.5,0c0.2,0,0.3-0.1,0.4-0.1v-1.1l-1,0.1
								c-0.3,0-0.5,0.1-0.6,0.2s-0.2,0.2-0.2,0.4s0.1,0.3,0.2,0.4C63.7,354.6,64,354.7,64.3,354.7z"/>
							<path id="path7595_1_" d="M69.3,354.5c-0.1-0.2-0.2-0.5-0.3-0.8c-0.1-0.3-0.2-0.6-0.3-0.9c-0.1-0.4-0.2-0.8-0.4-1.2
								c-0.1-0.5-0.3-1-0.4-1.6c0.1-0.1,0.3-0.2,0.5-0.3s0.4-0.1,0.7-0.1c0.3,0,0.6,0.1,0.8,0.2c0.2,0.1,0.4,0.4,0.5,0.7l1.1,3.7
								h0.1c0.1-0.3,0.2-0.6,0.3-1c0.1-0.4,0.2-0.7,0.3-1.1c0.1-0.4,0.2-0.8,0.3-1.1c0.1-0.4,0.2-0.8,0.2-1.1
								c0.3-0.2,0.7-0.3,1.1-0.3c0.3,0,0.6,0.1,0.8,0.2c0.2,0.1,0.3,0.4,0.3,0.7c0,0.2,0,0.5-0.1,0.8s-0.2,0.7-0.3,1
								c-0.1,0.4-0.2,0.7-0.4,1.1c-0.1,0.4-0.3,0.8-0.4,1.1c-0.1,0.4-0.3,0.7-0.5,1c-0.2,0.3-0.3,0.6-0.5,0.9
								c-0.3,0.4-0.5,0.8-0.7,1.1c-0.2,0.3-0.4,0.5-0.6,0.6s-0.4,0.3-0.6,0.3c-0.2,0.1-0.4,0.1-0.6,0.1c-0.4,0-0.7-0.1-0.9-0.3
								c-0.2-0.2-0.4-0.5-0.4-0.9c0.3-0.2,0.6-0.5,0.9-0.8c0.3-0.3,0.5-0.6,0.8-0.8c-0.2,0-0.3-0.1-0.5-0.3
								C69.7,355.2,69.5,354.9,69.3,354.5z"/>
							<path id="path7597_1_" d="M74.4,355c0-0.4,0.1-0.7,0.3-0.9s0.6-0.4,0.9-0.4s0.7,0.1,0.9,0.4s0.3,0.6,0.3,0.9
								s-0.1,0.7-0.3,0.9s-0.6,0.4-0.9,0.4s-0.7-0.1-0.9-0.4S74.4,355.4,74.4,355z"/>
						</g>
						<g id="g7623_1_">
							<path id="path7601_1_" d="M46.1,358.5c-0.1,0-0.2-0.1-0.3-0.1c-0.1,0-0.1-0.1-0.2-0.1c-0.1,0-0.1-0.1-0.1-0.2
								c0-0.1,0-0.1,0-0.2c0-0.2,0.1-0.3,0.2-0.4c0.1-0.1,0.3-0.2,0.6-0.2c0.1,0,0.2,0,0.3,0c0.1,0,0.2,0,0.2,0.1
								c0.1,0,0.1,0.1,0.1,0.1c0,0,0,0.1,0,0.1s0,0.1,0,0.1c0,0-0.1,0.1-0.1,0.1c0,0-0.1-0.1-0.2-0.1c-0.1,0-0.2,0-0.3,0
								s-0.2,0-0.2,0c0,0-0.1,0.1-0.1,0.1c0,0,0,0.1,0,0.1c0,0,0.1,0,0.1,0.1l0.2,0.1c0.2,0.1,0.3,0.1,0.4,0.2s0.2,0.2,0.2,0.4
								s-0.1,0.3-0.2,0.4c-0.1,0.1-0.3,0.2-0.6,0.2c-0.1,0-0.2,0-0.3,0c-0.1,0-0.2,0-0.2-0.1c-0.1,0-0.1-0.1-0.2-0.1
								c0,0,0-0.1,0-0.1s0-0.1,0.1-0.1c0,0,0.1-0.1,0.1-0.1c0.1,0,0.1,0.1,0.2,0.1c0.1,0,0.2,0,0.3,0s0.2,0,0.2,0
								c0,0,0.1-0.1,0.1-0.1c0,0,0-0.1,0-0.1c0,0-0.1,0-0.1-0.1L46.1,358.5z"/>
							<path id="path7603_1_" d="M48.6,359.3c0,0-0.1,0-0.1,0c0,0-0.1,0-0.1,0c-0.1,0-0.2,0-0.2,0c0,0-0.1-0.1-0.1-0.2v-0.4
								c-0.1-0.1-0.1-0.2-0.2-0.3s-0.1-0.2-0.2-0.3c-0.1-0.1-0.1-0.2-0.2-0.3c0-0.1-0.1-0.2-0.1-0.3c0,0,0.1-0.1,0.1-0.1
								c0,0,0.1,0,0.2,0c0.1,0,0.2,0,0.2,0c0,0,0.1,0.1,0.1,0.2l0.3,0.5h0c0-0.1,0.1-0.1,0.1-0.2s0-0.1,0.1-0.2c0-0.1,0-0.1,0.1-0.2
								c0-0.1,0-0.1,0.1-0.2c0,0,0.1,0,0.1,0c0,0,0.1,0,0.1,0c0.1,0,0.1,0,0.2,0.1c0,0,0.1,0.1,0.1,0.2c0,0,0,0.1,0,0.1
								c0,0,0,0.1-0.1,0.2c0,0.1-0.1,0.2-0.2,0.3c-0.1,0.1-0.2,0.3-0.3,0.5L48.6,359.3L48.6,359.3z"/>
							<path id="path7605_1_" d="M51.5,359.2c0,0-0.1,0-0.1,0.1c-0.1,0-0.1,0-0.2,0c-0.1,0-0.2,0-0.2,0c-0.1,0-0.1-0.1-0.2-0.2
								l-0.3-0.6c0-0.1-0.1-0.1-0.1-0.2c0-0.1-0.1-0.1-0.1-0.2h0c0,0.1,0,0.2,0,0.3s0,0.2,0,0.3v0.5c0,0-0.1,0-0.1,0
								c0,0-0.1,0-0.1,0s-0.1,0-0.1,0c0,0-0.1,0-0.1,0c0,0,0,0-0.1-0.1s0-0.1,0-0.1v-1.6c0,0,0.1-0.1,0.1-0.1c0.1,0,0.1,0,0.2,0
								c0.1,0,0.2,0,0.2,0c0.1,0,0.1,0.1,0.2,0.2l0.3,0.6c0,0.1,0.1,0.1,0.1,0.2c0,0.1,0.1,0.1,0.1,0.2h0c0-0.1,0-0.2,0-0.3
								c0-0.1,0-0.2,0-0.3v-0.5c0,0,0.1,0,0.1,0c0,0,0.1,0,0.1,0c0.1,0,0.2,0,0.2,0c0,0,0.1,0.1,0.1,0.2L51.5,359.2z"/>
							<path id="path7607_1_" d="M52.2,357.8C52.2,357.8,52.2,357.7,52.2,357.8c-0.1-0.1-0.1-0.2-0.1-0.2c0-0.1,0-0.1,0.1-0.2
								c0,0,0.1-0.1,0.2-0.1h1.4c0,0,0,0.1,0,0.1c0,0,0,0.1,0,0.1c0,0.1,0,0.1-0.1,0.2c0,0-0.1,0.1-0.2,0.1h-0.3v1.5
								c0,0-0.1,0-0.1,0c0,0-0.1,0-0.1,0c0,0-0.1,0-0.1,0c0,0-0.1,0-0.1,0c0,0,0,0-0.1-0.1s0-0.1,0-0.1v-1.2H52.2z"/>
							<path id="path7609_1_" d="M56.1,359.3c0,0-0.1,0-0.1,0c0,0-0.1,0-0.1,0c0,0-0.1,0-0.1,0c0,0-0.1,0-0.1,0c0,0,0,0-0.1-0.1
								s0-0.1,0-0.1v-0.5H55v0.7c0,0-0.1,0-0.1,0c0,0-0.1,0-0.1,0c0,0-0.1,0-0.1,0c0,0-0.1,0-0.1,0c0,0,0,0-0.1-0.1c0,0,0-0.1,0-0.1
								v-1.7c0,0,0.1,0,0.1,0c0,0,0.1,0,0.2,0s0.1,0,0.1,0c0,0,0.1,0,0.1,0c0,0,0,0,0.1,0.1s0,0.1,0,0.1v0.5h0.6v-0.7
								c0,0,0.1,0,0.1,0c0,0,0.1,0,0.1,0c0,0,0.1,0,0.1,0c0,0,0.1,0,0.1,0c0,0,0,0,0.1,0.1s0,0.1,0,0.1V359.3z"/>
							<path id="path7611_1_" d="M56.9,357.7c0-0.1,0-0.2,0.1-0.2c0,0,0.1-0.1,0.2-0.1h1c0,0,0,0.1,0,0.1c0,0,0,0.1,0,0.1
								c0,0.1,0,0.1,0,0.2c0,0-0.1,0-0.1,0h-0.7v0.3h0.7c0,0,0,0.1,0,0.1s0,0.1,0,0.1c0,0.1,0,0.1,0,0.2s-0.1,0-0.1,0h-0.6v0.3h0.8
								c0,0,0,0.1,0,0.1c0,0,0,0.1,0,0.1c0,0.1,0,0.1,0,0.2c0,0-0.1,0-0.1,0h-0.9c-0.1,0-0.2,0-0.2-0.1c-0.1-0.1-0.1-0.1-0.1-0.2
								L56.9,357.7L56.9,357.7z"/>
							<path id="path7613_1_" d="M59.6,358.5c-0.1,0-0.2-0.1-0.3-0.1s-0.1-0.1-0.2-0.1c-0.1,0-0.1-0.1-0.1-0.2c0-0.1,0-0.1,0-0.2
								c0-0.2,0.1-0.3,0.2-0.4c0.1-0.1,0.3-0.2,0.6-0.2c0.1,0,0.2,0,0.3,0c0.1,0,0.2,0,0.2,0.1c0.1,0,0.1,0.1,0.1,0.1s0,0.1,0,0.1
								s0,0.1,0,0.1s-0.1,0.1-0.1,0.1c0,0-0.1-0.1-0.2-0.1c-0.1,0-0.2,0-0.3,0s-0.2,0-0.2,0s-0.1,0.1-0.1,0.1c0,0,0,0.1,0,0.1
								c0,0,0.1,0,0.1,0.1l0.2,0.1c0.2,0.1,0.3,0.1,0.5,0.2s0.2,0.2,0.2,0.4s-0.1,0.3-0.2,0.4c-0.1,0.1-0.3,0.2-0.6,0.2
								c-0.1,0-0.2,0-0.3,0c-0.1,0-0.2,0-0.2-0.1s-0.1-0.1-0.2-0.1c0,0,0-0.1,0-0.1s0-0.1,0.1-0.1c0,0,0.1-0.1,0.1-0.1
								c0.1,0,0.1,0.1,0.2,0.1c0.1,0,0.2,0,0.3,0s0.2,0,0.2,0c0,0,0.1-0.1,0.1-0.1c0,0,0-0.1,0-0.1c0,0-0.1,0-0.1-0.1L59.6,358.5z"
								/>
							<path id="path7615_1_" d="M61.7,359.3c0,0-0.1,0-0.1,0c0,0-0.1,0-0.2,0s-0.1,0-0.1,0c0,0-0.1,0-0.1,0s0,0-0.1-0.1
								c0,0,0-0.1,0-0.1v-1.7c0,0,0.1,0,0.1,0c0,0,0.1,0,0.1,0s0.1,0,0.1,0c0,0,0.1,0,0.1,0c0,0,0,0,0.1,0.1s0,0.1,0,0.1L61.7,359.3
								z"/>
							<path id="path7617_1_" d="M63.3,357.8h-0.8c0,0,0-0.1,0-0.1c0,0,0-0.1,0-0.1c0-0.1,0-0.1,0.1-0.2c0,0,0.1-0.1,0.2-0.1h1.2
								c0.1,0.1,0.1,0.2,0.1,0.3c0,0.1,0,0.1,0,0.2c0,0-0.1,0.1-0.1,0.1l-0.7,0.9h0.8c0,0,0,0.1,0,0.1c0,0,0,0.1,0,0.1
								c0,0.1,0,0.1-0.1,0.2c0,0-0.1,0.1-0.1,0.1h-1.2c0,0-0.1-0.1-0.1-0.1c0,0,0-0.1,0-0.2c0,0,0-0.1,0-0.2c0-0.1,0.1-0.1,0.1-0.1
								L63.3,357.8z"/>
							<path id="path7619_1_" d="M64.6,357.7c0-0.1,0-0.2,0.1-0.2c0,0,0.1-0.1,0.2-0.1h1c0,0,0,0.1,0,0.1c0,0,0,0.1,0,0.1
								c0,0.1,0,0.1,0,0.2c0,0-0.1,0-0.1,0h-0.7v0.3h0.7c0,0,0,0.1,0,0.1s0,0.1,0,0.1c0,0.1,0,0.1,0,0.2c0,0-0.1,0-0.1,0h-0.6v0.3
								H66c0,0,0,0.1,0,0.1c0,0,0,0.1,0,0.1c0,0.1,0,0.1,0,0.2c0,0-0.1,0-0.1,0h-0.9c-0.1,0-0.2,0-0.2-0.1c-0.1-0.1-0.1-0.1-0.1-0.2
								L64.6,357.7L64.6,357.7z"/>
							<path id="path7621_1_" d="M67.3,358.6v0.6c0,0-0.1,0-0.1,0c0,0-0.1,0-0.2,0s-0.1,0-0.1,0c0,0-0.1,0-0.1,0c0,0,0,0-0.1-0.1
								s0-0.1,0-0.1v-1.5c0,0,0-0.1,0-0.1c0,0,0.1,0,0.1-0.1c0.1,0,0.2,0,0.3-0.1c0.1,0,0.2,0,0.3,0c0.3,0,0.5,0.1,0.7,0.2
								c0.1,0.1,0.2,0.3,0.2,0.5c0,0.1,0,0.2-0.1,0.3s-0.2,0.2-0.2,0.2c0.1,0.1,0.1,0.2,0.2,0.3c0.1,0.1,0.1,0.2,0.2,0.2
								c0,0.1-0.1,0.1-0.1,0.2c-0.1,0-0.1,0.1-0.2,0.1c0,0-0.1,0-0.1,0s-0.1,0-0.1,0c0,0,0,0-0.1-0.1c0,0,0-0.1-0.1-0.1l-0.3-0.4
								L67.3,358.6L67.3,358.6z M67.5,358.2c0.1,0,0.2,0,0.2-0.1c0,0,0.1-0.1,0.1-0.2c0-0.1,0-0.1-0.1-0.2c0,0-0.1-0.1-0.2-0.1
								c0,0-0.1,0-0.1,0s0,0-0.1,0v0.5H67.5z"/>
						</g>
					</g>
				</g>
			</g>
		</g>
	</g>
	<g id="g1612" inkscape:groupmode="layer" inkscape:label="OUT LFO ">
		<g id="g1596" inkscape:groupmode="layer" inkscape:label="Nut skirt">
		</g>
		<g id="g1600" inkscape:groupmode="layer" inkscape:label="Nut">
		</g>
		<g id="g1604" inkscape:groupmode="layer" inkscape:label="Main color">
		</g>
		<g id="g1610" inkscape:groupmode="layer" inkscape:label="Drill guide">
			<g id="g392" transform="translate(-0.30283881,0.46617568)">
				
					<path id="path1598" inkscape:flatsided="false" inkscape:randomized="0" inkscape:rounded="0" sodipodi:arg1="0.78539816" sodipodi:arg2="0.84823001" sodipodi:cx="15.404016" sodipodi:cy="24.226252" sodipodi:r1="4" sodipodi:r2="3.8095238" sodipodi:sides="50" sodipodi:type="star" class="st8" d="
					M51.1,77.5l-0.9,0.1l-0.2,0.9l-0.9,0l-0.3,0.8L48,79.1l-0.4,0.8l-0.8-0.2l-0.5,0.7l-0.8-0.3l-0.6,0.7l-0.8-0.4l-0.7,0.6
					l-0.7-0.5L42,80.8l-0.6-0.6l-0.8,0.4l-0.5-0.7l-0.8,0.3l-0.4-0.8L38,79.6l-0.3-0.8l-0.9,0.1l-0.2-0.8l-0.9,0l-0.1-0.9L34.6,77
					l0-0.9l-0.8-0.2l0.1-0.9L33,74.7l0.2-0.9l-0.8-0.4l0.3-0.8L32,72l0.4-0.8l-0.6-0.6l0.5-0.7l-0.5-0.7l0.6-0.7l-0.4-0.8l0.7-0.6
					l-0.3-0.8l0.7-0.5L32.7,65l0.8-0.4l-0.1-0.9l0.8-0.3l0-0.9l0.9-0.2l0.1-0.9l0.9-0.1l0.2-0.9l0.9,0l0.3-0.8l0.9,0.1l0.4-0.8
					l0.8,0.2l0.5-0.7l0.8,0.3l0.6-0.7l0.8,0.4l0.7-0.6l0.7,0.5l0.7-0.5l0.6,0.6l0.8-0.4l0.5,0.7l0.8-0.3l0.4,0.8l0.9-0.2l0.3,0.8
					l0.9-0.1l0.2,0.8l0.9,0l0.1,0.9l0.9,0.1l0,0.9l0.8,0.2L52.4,64l0.8,0.3L53,65.2l0.8,0.4l-0.3,0.8l0.7,0.5l-0.4,0.8l0.6,0.6
					l-0.5,0.7l0.5,0.7l-0.6,0.7l0.4,0.8l-0.7,0.6l0.3,0.8l-0.7,0.5l0.2,0.8l-0.8,0.4l0.1,0.9L52,75.6l0,0.9l-0.9,0.2L51.1,77.5z"/>
				<circle id="circle1602" class="st9" cx="43.1" cy="69.5" r="6.7"/>
				<path id="path1606" class="st10" d="M52.3,69.5H33.9"/>
				<path id="path1608" class="st10" d="M43.1,78.7V60.3"/>
			</g>
		</g>
	</g>
	<g id="g1895" inkscape:groupmode="layer" inkscape:label="OUT LFO ">
		<g id="g1879" inkscape:groupmode="layer" inkscape:label="Nut skirt">
		</g>
		<g id="g1883" inkscape:groupmode="layer" inkscape:label="Nut">
		</g>
		<g id="g1887" inkscape:groupmode="layer" inkscape:label="Main color">
		</g>
		<g id="g1893" inkscape:groupmode="layer" inkscape:label="Drill guide">
			<g id="g400" transform="translate(-0.40037808,0.44269085)">
				
					<path id="path1881" inkscape:flatsided="false" inkscape:randomized="0" inkscape:rounded="0" sodipodi:arg1="0.78539816" sodipodi:arg2="0.84823001" sodipodi:cx="25.470833" sodipodi:cy="24.220882" sodipodi:r1="4" sodipodi:r2="3.8095238" sodipodi:sides="50" sodipodi:type="star" class="st8" d="
					M79.5,77.5l-0.9,0.1l-0.2,0.9l-0.9,0l-0.3,0.8l-0.9-0.1L76,79.9l-0.8-0.2l-0.5,0.7L73.8,80l-0.6,0.7l-0.8-0.4l-0.7,0.6l-0.7-0.5
					l-0.7,0.5l-0.6-0.6L69,80.5l-0.5-0.7l-0.8,0.3l-0.4-0.8l-0.9,0.2L66,78.8l-0.9,0.1L64.8,78L64,78l-0.1-0.9L63,77l0-0.9l-0.8-0.2
					l0.1-0.9l-0.8-0.3l0.2-0.9l-0.8-0.4l0.3-0.8l-0.7-0.5l0.4-0.8l-0.6-0.6l0.5-0.7l-0.5-0.7l0.6-0.7l-0.4-0.8l0.7-0.6l-0.3-0.8
					l0.7-0.5L61.1,65l0.8-0.4l-0.1-0.9l0.8-0.3l0-0.9l0.9-0.2l0.1-0.9l0.9-0.1l0.2-0.9l0.9,0l0.3-0.8l0.9,0.1l0.4-0.8l0.8,0.2
					l0.5-0.7l0.8,0.3l0.6-0.7l0.8,0.4l0.7-0.6l0.7,0.5l0.7-0.5l0.6,0.6l0.8-0.4l0.5,0.7l0.8-0.3l0.4,0.8l0.9-0.2l0.3,0.8l0.9-0.1
					l0.2,0.8l0.9,0l0.1,0.9L80,62l0,0.9l0.8,0.2L80.8,64l0.8,0.3l-0.2,0.9l0.8,0.4l-0.3,0.8l0.7,0.5l-0.4,0.8l0.6,0.6l-0.5,0.7
					l0.5,0.7l-0.6,0.7l0.4,0.8L82,71.8l0.3,0.8l-0.7,0.5l0.2,0.8l-0.8,0.4l0.1,0.9l-0.8,0.3l0,0.9l-0.9,0.2L79.5,77.5z"/>
				<circle id="circle1885" class="st9" cx="71.5" cy="69.5" r="6.7"/>
				<path id="path1889" class="st10" d="M80.7,69.5H62.3"/>
				<path id="path1891" class="st10" d="M71.5,78.7V60.3"/>
			</g>
			<g id="g408" transform="translate(-0.40037808)">
				
					<path id="path10393" inkscape:flatsided="false" inkscape:randomized="0" inkscape:rounded="0" sodipodi:arg1="0.78539816" sodipodi:arg2="0.84823001" sodipodi:cx="25.4709" sodipodi:cy="38.752724" sodipodi:r1="4" sodipodi:r2="3.8095238" sodipodi:sides="50" sodipodi:type="star" class="st8" d="
					M79.5,117.9l-0.9,0.1l-0.2,0.9l-0.9,0l-0.3,0.8l-0.9-0.1l-0.4,0.8l-0.8-0.2l-0.5,0.7l-0.8-0.3l-0.6,0.7l-0.8-0.4l-0.7,0.6
					l-0.7-0.5l-0.7,0.5l-0.6-0.6l-0.8,0.4l-0.5-0.7l-0.8,0.3l-0.4-0.8l-0.9,0.2l-0.3-0.8l-0.9,0.1l-0.2-0.8l-0.9,0l-0.1-0.9
					l-0.9-0.1l0-0.9l-0.8-0.2l0.1-0.9l-0.8-0.3l0.2-0.9l-0.8-0.4l0.3-0.8l-0.7-0.5l0.4-0.8l-0.6-0.6l0.5-0.7l-0.5-0.7l0.6-0.7
					l-0.4-0.8l0.7-0.6l-0.3-0.8l0.7-0.5l-0.2-0.8l0.8-0.4l-0.1-0.9l0.8-0.3l0-0.9l0.9-0.2l0.1-0.9l0.9-0.1l0.2-0.9l0.9,0l0.3-0.8
					l0.9,0.1l0.4-0.8l0.8,0.2l0.5-0.7l0.8,0.3l0.6-0.7l0.8,0.4l0.7-0.6l0.7,0.5l0.7-0.5l0.6,0.6l0.8-0.4l0.5,0.7l0.8-0.3l0.4,0.8
					l0.9-0.2l0.3,0.8l0.9-0.1l0.2,0.8l0.9,0l0.1,0.9l0.9,0.1l0,0.9l0.8,0.2l-0.1,0.9l0.8,0.3l-0.2,0.9l0.8,0.4l-0.3,0.8l0.7,0.5
					l-0.4,0.8l0.6,0.6l-0.5,0.7l0.5,0.7l-0.6,0.7l0.4,0.8l-0.7,0.6l0.3,0.8l-0.7,0.5l0.2,0.8l-0.8,0.4l0.1,0.9l-0.8,0.3l0,0.9
					l-0.9,0.2L79.5,117.9z"/>
				<circle id="circle10395" class="st9" cx="71.5" cy="109.9" r="6.7"/>
				<path id="path10397" class="st10" d="M80.7,109.8H62.3"/>
				<path id="path10399" class="st10" d="M71.5,119.1v-18.4"/>
			</g>
		</g>
	</g>
	<g id="g2204" inkscape:groupmode="layer" inkscape:label="OUT LFO ">
		<g id="g2188" inkscape:groupmode="layer" inkscape:label="Nut skirt">
		</g>
		<g id="g2192" inkscape:groupmode="layer" inkscape:label="Nut">
		</g>
		<g id="g2196" inkscape:groupmode="layer" inkscape:label="Main color">
		</g>
		<g id="g2202" inkscape:groupmode="layer" inkscape:label="Drill guide">
			<g id="g360" transform="translate(-0.40037808,0.0577817)">
				
					<path id="path2190" inkscape:flatsided="false" inkscape:randomized="0" inkscape:rounded="0" sodipodi:arg1="0.78539816" sodipodi:arg2="0.84823001" sodipodi:cx="25.470833" sodipodi:cy="10.516642" sodipodi:r1="4" sodipodi:r2="3.8095238" sodipodi:sides="50" sodipodi:type="star" class="st8" d="
					M79.5,37.9L78.6,38l-0.2,0.9l-0.9,0l-0.3,0.8l-0.9-0.1L76,40.3l-0.8-0.2l-0.5,0.7l-0.8-0.3l-0.6,0.7l-0.8-0.4l-0.7,0.6l-0.7-0.5
					l-0.7,0.5l-0.6-0.6L69,41l-0.5-0.7l-0.8,0.3l-0.4-0.8L66.3,40L66,39.2l-0.9,0.1l-0.2-0.8l-0.9,0l-0.1-0.9L63,37.4l0-0.9
					l-0.8-0.2l0.1-0.9l-0.8-0.3l0.2-0.9l-0.8-0.4l0.3-0.8l-0.7-0.5l0.4-0.8L60.2,31l0.5-0.7l-0.5-0.7l0.6-0.7l-0.4-0.8l0.7-0.6
					l-0.3-0.8l0.7-0.5l-0.2-0.8l0.8-0.4l-0.1-0.9l0.8-0.3l0-0.9l0.9-0.2l0.1-0.9l0.9-0.1l0.2-0.9l0.9,0l0.3-0.8l0.9,0.1l0.4-0.8
					l0.8,0.2l0.5-0.7l0.8,0.3l0.6-0.7l0.8,0.4l0.7-0.6l0.7,0.5l0.7-0.5l0.6,0.6l0.8-0.4l0.5,0.7l0.8-0.3l0.4,0.8l0.9-0.2l0.3,0.8
					l0.9-0.1l0.2,0.8l0.9,0l0.1,0.9l0.9,0.1l0,0.9l0.8,0.2l-0.1,0.9l0.8,0.3l-0.2,0.9l0.8,0.4l-0.3,0.8l0.7,0.5l-0.4,0.8l0.6,0.6
					l-0.5,0.7l0.5,0.7l-0.6,0.7l0.4,0.8L82,32.3l0.3,0.8l-0.7,0.5l0.2,0.8l-0.8,0.4l0.1,0.9L80.4,36l0,0.9l-0.9,0.2L79.5,37.9z"/>
				<circle id="circle2194" class="st9" cx="71.5" cy="29.9" r="6.7"/>
				<path id="path2198" class="st10" d="M80.7,29.9H62.3"/>
				<path id="path2200" class="st10" d="M71.5,39.1V20.7"/>
			</g>
		</g>
	</g>
	<g id="g2428" inkscape:groupmode="layer" inkscape:label="OUT LFO ">
		<g id="g2412" inkscape:groupmode="layer" inkscape:label="Nut skirt">
		</g>
		<g id="g2416" inkscape:groupmode="layer" inkscape:label="Nut">
		</g>
		<g id="g2420" inkscape:groupmode="layer" inkscape:label="Main color">
		</g>
		<g id="g2426" inkscape:groupmode="layer" inkscape:label="Drill guide">
			<g id="g368" transform="translate(-0.13579475,0.0577817)">
				
					<path id="path2414" inkscape:flatsided="false" inkscape:randomized="0" inkscape:rounded="0" sodipodi:arg1="0.78539816" sodipodi:arg2="0.84823001" sodipodi:cx="15.270381" sodipodi:cy="10.516642" sodipodi:r1="4" sodipodi:r2="3.8095238" sodipodi:sides="50" sodipodi:type="star" class="st8" d="
					M51.1,37.9L50.2,38L50,38.9l-0.9,0l-0.3,0.8l-0.9-0.1l-0.4,0.8l-0.8-0.2l-0.5,0.7l-0.8-0.3l-0.6,0.7l-0.8-0.4l-0.7,0.6l-0.7-0.5
					L42,41.2l-0.6-0.6L40.6,41L40,40.3l-0.8,0.3l-0.4-0.8L37.9,40l-0.3-0.8l-0.9,0.1l-0.2-0.8l-0.9,0l-0.1-0.9l-0.9-0.1l0-0.9
					l-0.8-0.2l0.1-0.9l-0.8-0.3l0.2-0.9l-0.8-0.4l0.3-0.8L32,32.4l0.4-0.8L31.7,31l0.5-0.7l-0.5-0.7l0.6-0.7l-0.4-0.8l0.7-0.6
					l-0.3-0.8l0.7-0.5l-0.2-0.8l0.8-0.4l-0.1-0.9l0.8-0.3l0-0.9l0.9-0.2l0.1-0.9l0.9-0.1l0.2-0.9l0.9,0l0.3-0.8l0.9,0.1l0.4-0.8
					l0.8,0.2l0.5-0.7l0.8,0.3l0.6-0.7l0.8,0.4l0.7-0.6l0.7,0.5l0.7-0.5l0.6,0.6l0.8-0.4l0.5,0.7l0.8-0.3l0.4,0.8l0.9-0.2l0.3,0.8
					l0.9-0.1l0.2,0.8l0.9,0l0.1,0.9l0.9,0.1l0,0.9l0.8,0.2l-0.1,0.9l0.8,0.3l-0.2,0.9l0.8,0.4l-0.3,0.8l0.7,0.5l-0.4,0.8l0.6,0.6
					l-0.5,0.7l0.5,0.7l-0.6,0.7l0.4,0.8l-0.7,0.6l0.3,0.8l-0.7,0.5l0.2,0.8l-0.8,0.4l0.1,0.9L52,36l0,0.9l-0.9,0.2L51.1,37.9z"/>
				<circle id="circle2418" class="st9" cx="43" cy="29.9" r="6.7"/>
				<path id="path2422" class="st10" d="M52.2,29.9H33.8"/>
				<path id="path2424" class="st10" d="M43,39.1V20.7"/>
			</g>
		</g>
	</g>
	<g id="g2670" inkscape:groupmode="layer" inkscape:label="OUT LFO ">
		<g id="g2654" inkscape:groupmode="layer" inkscape:label="Nut skirt">
		</g>
		<g id="g2658" inkscape:groupmode="layer" inkscape:label="Nut">
		</g>
		<g id="g2662" inkscape:groupmode="layer" inkscape:label="Main color">
		</g>
		<g id="g2668" inkscape:groupmode="layer" inkscape:label="Drill guide">
			<g id="g384" transform="translate(-0.40037808,0.41237647)">
				
					<path id="path2656" inkscape:flatsided="false" inkscape:randomized="0" inkscape:rounded="0" sodipodi:arg1="0.78539816" sodipodi:arg2="0.84823001" sodipodi:cx="5.5322785" sodipodi:cy="24.408632" sodipodi:r1="4" sodipodi:r2="3.8095238" sodipodi:sides="50" sodipodi:type="star" class="st8" d="
					M23,78L22.1,78l-0.2,0.9l-0.9,0l-0.3,0.8l-0.9-0.1l-0.4,0.8l-0.8-0.2l-0.5,0.7l-0.8-0.3l-0.6,0.7L16,80.7l-0.7,0.6l-0.7-0.5
					l-0.7,0.5l-0.6-0.6L12.5,81l-0.5-0.7l-0.8,0.3l-0.4-0.8L9.8,80l-0.3-0.8l-0.9,0.1l-0.2-0.8l-0.9,0l-0.1-0.9l-0.9-0.1l0-0.9
					l-0.8-0.2l0.1-0.9l-0.8-0.3L5,74.2l-0.8-0.4L4.6,73l-0.7-0.5l0.4-0.8L3.7,71l0.5-0.7l-0.5-0.7l0.6-0.7l-0.4-0.8l0.7-0.6
					l-0.3-0.8l0.7-0.5l-0.2-0.8L5.3,65l-0.1-0.9L6,63.9L6,63l0.9-0.2l0.1-0.9l0.9-0.1L8,61l0.9,0l0.3-0.8l0.9,0.1l0.4-0.8l0.8,0.2
					l0.5-0.7l0.8,0.3l0.6-0.7l0.8,0.4l0.7-0.6l0.7,0.5l0.7-0.5l0.6,0.6l0.8-0.4l0.5,0.7l0.8-0.3l0.4,0.8l0.9-0.2l0.3,0.8l0.9-0.1
					l0.2,0.8l0.9,0l0.1,0.9l0.9,0.1l0,0.9l0.8,0.2l-0.1,0.9l0.8,0.3l-0.2,0.9l0.8,0.4l-0.3,0.8l0.7,0.5l-0.4,0.8l0.6,0.6l-0.5,0.7
					l0.5,0.7L25.7,71l0.4,0.8l-0.7,0.6l0.3,0.8l-0.7,0.5l0.2,0.8l-0.8,0.4l0.1,0.9L23.9,76l0,0.9L23,77.1L23,78z"/>
				<circle id="circle2660" class="st9" cx="14.9" cy="69.9" r="6.7"/>
				<path id="path2664" class="st10" d="M24.2,69.9H5.7"/>
				<path id="path2666" class="st10" d="M14.9,79.2V60.7"/>
			</g>
		</g>
	</g>
	<g id="g2930" inkscape:groupmode="layer" inkscape:label="OUT LFO ">
		<g id="g2914" inkscape:groupmode="layer" inkscape:label="Nut skirt">
		</g>
		<g id="g2918" inkscape:groupmode="layer" inkscape:label="Nut">
		</g>
		<g id="g2922" inkscape:groupmode="layer" inkscape:label="Main color">
		</g>
		<g id="g2928" inkscape:groupmode="layer" inkscape:label="Drill guide">
			<g id="g376" transform="translate(-0.40037808,-0.0577817)">
				
					<path id="path2916" inkscape:flatsided="false" inkscape:randomized="0" inkscape:rounded="0" sodipodi:arg1="0.78539816" sodipodi:arg2="0.84823001" sodipodi:cx="5.5990958" sodipodi:cy="10.632205" sodipodi:r1="4" sodipodi:r2="3.8095238" sodipodi:sides="50" sodipodi:type="star" class="st8" d="
					M23.2,38.1l-0.9,0.1L22.1,39l-0.9,0l-0.3,0.8L20,39.7l-0.4,0.8l-0.8-0.2l-0.5,0.7l-0.8-0.3l-0.6,0.7l-0.8-0.4l-0.7,0.6l-0.7-0.5
					l-0.7,0.5l-0.6-0.6l-0.8,0.4l-0.5-0.7l-0.8,0.3l-0.4-0.8L10,40.1l-0.3-0.8l-0.9,0.1l-0.2-0.8l-0.9,0l-0.1-0.9l-0.9-0.1l0-0.9
					l-0.8-0.2l0.1-0.9L5,35.2l0.2-0.9l-0.8-0.4L4.8,33l-0.7-0.5l0.4-0.8l-0.6-0.6l0.5-0.7l-0.5-0.7L4.4,29l-0.4-0.8l0.7-0.6
					l-0.3-0.8L5,26.4l-0.2-0.8l0.8-0.4l-0.1-0.9L6.2,24l0-0.9L7,22.9L7.1,22L8,21.9l0.2-0.9l0.9,0l0.3-0.8l0.9,0.1l0.4-0.8l0.8,0.2
					l0.5-0.7l0.8,0.3l0.6-0.7l0.8,0.4l0.7-0.6l0.7,0.5l0.7-0.5l0.6,0.6l0.8-0.4l0.5,0.7l0.8-0.3l0.4,0.8l0.9-0.2l0.3,0.8l0.9-0.1
					l0.2,0.8l0.9,0l0.1,0.9l0.9,0.1l0,0.9l0.8,0.2l-0.1,0.9l0.8,0.3L25,25.7l0.8,0.4L25.5,27l0.7,0.5l-0.4,0.8l0.6,0.6l-0.5,0.7
					l0.5,0.7L25.9,31l0.4,0.8l-0.7,0.6l0.3,0.8l-0.7,0.5l0.2,0.8l-0.8,0.4l0.1,0.9l-0.8,0.3l0,0.9l-0.9,0.2L23.2,38.1z"/>
				<circle id="circle2920" class="st9" cx="15" cy="30" r="6.7"/>
				<path id="path2924" class="st10" d="M24.3,30H5.9"/>
				<path id="path2926" class="st10" d="M15.3,39.2V20.8"/>
			</g>
		</g>
	</g>
</g>
<g id="sliders-group" inkscape:groupmode="layer" inkscape:label="Sliders Group">
	<g id="g5836" inkscape:groupmode="layer">
		<g id="g5828" inkscape:groupmode="layer" inkscape:label="Coarse">
		</g>
		<g id="g5832" inkscape:groupmode="layer" inkscape:label="Cursor">
		</g>
		<g id="g5834" inkscape:groupmode="layer" inkscape:label="Tick">
		</g>
	</g>
	<g id="g6522" inkscape:groupmode="layer">
		<g id="g6514" inkscape:groupmode="layer" inkscape:label="Coarse">
		</g>
		<g id="layer2" inkscape:groupmode="layer" inkscape:label="Led1">
		</g>
		<g id="g6518" inkscape:groupmode="layer" inkscape:label="Cursor">
		</g>
		<g id="g6520" inkscape:groupmode="layer" inkscape:label="Tick">
		</g>
	</g>
</g>
<g id="layer3" inkscape:groupmode="layer" inkscape:label="LED1">
	<ellipse id="path7462" class="st17" cx="29" cy="48.6" rx="3.8" ry="4.2"/>
	<g id="g424" transform="translate(-0.40037808)">
		<ellipse id="ellipse10465" class="st18" cx="14.6" cy="111.1" rx="4.7" ry="5.2"/>
		<ellipse id="ellipse10469" class="st19" cx="14.6" cy="110.4" rx="4.7" ry="5.2"/>
	</g>
</g>
<g id="g7466" inkscape:groupmode="layer" inkscape:label="LED1 copy">
	<ellipse id="ellipse7464" class="st17" cx="57.2" cy="49" rx="3.8" ry="4.2"/>
</g>
<g id="layer4" inkscape:groupmode="layer" inkscape:label="Type">
	<text transform="matrix(1 0 0 1 24.3975 339.9336)" class="st1 st20 st21 st22">CHUNKS</text>
	<text transform="matrix(1 0 0 1 32.3135 263.4102)" class="st1 st20 st21 st22">RATE</text>
	<text transform="matrix(1 0 0 1 26.9785 194.5859)" class="st1 st20 st21 st22">MORPH</text>
	<text transform="matrix(1 0 0 1 36.7031 91.8926)" class="st1 st20 st23">RATE</text>
	<text transform="matrix(1 0 0 1 4.3164 92.4355)" class="st1 st20 st23">CHUNKS</text>
	<text transform="matrix(1 0 0 1 63.3145 91.7695)" class="st1 st20 st23">CLOCK</text>
	<text transform="matrix(1 0 0 1 66.1914 51.2559)" class="st1 st20 st23">OUT</text>
	<text transform="matrix(1 0 0 1 38.0811 51.6562)" class="st1 st20 st23">EOC</text>
	<text transform="matrix(1 0 0 1 9.3311 52.0547)" class="st1 st20 st23">TRIG</text>
	<path id="path10385" class="st24" d="M44.2,240.3v2.9"/>
	<text transform="matrix(1 0 0 1 63.5947 131.2539)" class="st1 st20 st23">RESET</text>
	<text transform="matrix(1 0 0 1 32.7119 11.8359)" class="st1 st20 st25 st22">LOWSTEPPER</text>
	<text transform="matrix(1 0 0 1 7.2432 131.2539)" class="st1 st20 st23">MODE</text>
	<text transform="matrix(1 0 0 1 33.5947 131.2539)" class="st1 st20 st23">MORPH</text>
	<text transform="matrix(1 0 0 1 12.543 185.6699)" class="st1 st20 st26 st22">I</text>
	<text transform="matrix(1 0 0 1 12.543 254.6699)" class="st1 st20 st26 st22">I</text>
	<text transform="matrix(1 0 0 1 12.543 331.3711)" class="st1 st20 st26 st22">I</text>
</g>
<g id="layer5" inkscape:groupmode="layer" inkscape:label="Type 1">
	<g id="g437" transform="translate(6.1988831e-5,0.78753918)">
		<circle id="circle1568" class="st27" cx="44.1" cy="158.9" r="21.3"/>
		<circle id="circle1572" class="st28" cx="44.1" cy="158.9" r="8.5"/>
		<path id="path1576" class="st7" d="M44.1,158.9l-11,11"/>
		<g id="layer1-7" transform="translate(-41.85904,-41.525152)" inkscape:label="Layer 1">
			<path id="path7663" inkscape:connector-curvature="0" d="M107.6,200.4c0,12-9.7,21.7-21.7,21.7s-21.7-9.7-21.7-21.7
				c0-12,9.7-21.7,21.7-21.7S107.6,188.4,107.6,200.4"/>
			<path id="path7665" inkscape:connector-curvature="0" class="st29" d="M103.1,200.4c0,9.5-7.7,17.1-17.1,17.1
				c-9.5,0-17.1-7.7-17.1-17.1c0-9.5,7.7-17.1,17.1-17.1C95.4,183.2,103.1,190.9,103.1,200.4z"/>
			<path id="path7667" inkscape:connector-curvature="0" class="st30" d="M98.2,200.4c0,6.8-5.5,12.2-12.2,12.2
				c-6.8,0-12.2-5.5-12.2-12.2c0-6.8,5.5-12.2,12.2-12.2C92.7,188.2,98.2,193.6,98.2,200.4"/>
			<path id="path7669" inkscape:connector-curvature="0" class="st30" d="M88,178.8c-0.7-0.1-1.3-0.1-2-0.1c-0.7,0-1.3,0-2,0.1v9.9
				h4L88,178.8z"/>
		</g>
	</g>
	<g id="g456" transform="translate(0,4.2739235)">
		<circle id="circle1788" class="st27" cx="44.1" cy="224.4" r="21.3"/>
		<circle id="circle1792" class="st28" cx="44.1" cy="224.4" r="8.5"/>
		<path id="path1796" class="st7" d="M44.1,224.4l-11,11"/>
		<circle id="circle2222" class="st27" cx="44.1" cy="224.4" r="21.3"/>
		<circle id="circle2226" class="st28" cx="44.1" cy="224.4" r="8.5"/>
		<path id="path2230" class="st7" d="M44.1,224.4l-11,11"/>
		<g id="g10781" transform="translate(-41.85904,-20.887639)" inkscape:label="Layer 1">
			<path id="path10773" inkscape:connector-curvature="0" d="M107.6,244.6c0,12-9.7,21.7-21.7,21.7s-21.7-9.7-21.7-21.7
				c0-12,9.7-21.7,21.7-21.7S107.6,232.7,107.6,244.6"/>
			<path id="path10775" inkscape:connector-curvature="0" class="st29" d="M103.1,244.6c0,9.5-7.7,17.1-17.1,17.1
				c-9.5,0-17.1-7.7-17.1-17.1c0-9.5,7.7-17.1,17.1-17.1C95.4,227.5,103.1,235.2,103.1,244.6z"/>
			<path id="path10777" inkscape:connector-curvature="0" class="st30" d="M98.2,244.6c0,6.8-5.5,12.2-12.2,12.2
				c-6.8,0-12.2-5.5-12.2-12.2c0-6.8,5.5-12.2,12.2-12.2C92.7,232.4,98.2,237.9,98.2,244.6"/>
			<path id="path10779" inkscape:connector-curvature="0" class="st30" d="M88,223.1c-0.7-0.1-1.3-0.1-2-0.1c-0.7,0-1.3,0-2,0.1v9.9
				h4L88,223.1z"/>
		</g>
	</g>
	<g id="g4002" transform="matrix(1.2762815,0,0,1.2762815,-4.2975939,7.4608757)">
		<circle id="circle3980" class="st31" cx="37.9" cy="227.2" r="21.3"/>
		<circle id="circle3982" class="st32" cx="37.9" cy="227.2" r="8.5"/>
		<path id="path3984" class="st33" d="M37.9,227.2l-11,11"/>
		<circle id="circle3986" class="st31" cx="37.9" cy="227.2" r="21.3"/>
		<circle id="circle3988" class="st32" cx="37.9" cy="227.2" r="8.5"/>
		<path id="path3990" class="st33" d="M37.9,227.2l-11,11"/>
		<g id="g4000" transform="translate(-41.85904,-20.887639)" inkscape:label="Layer 1">
			<path id="path3992" inkscape:connector-curvature="0" d="M101.4,247.5c0,12-9.7,21.7-21.7,21.7c-12,0-21.7-9.7-21.7-21.7
				c0-12,9.7-21.7,21.7-21.7S101.4,235.6,101.4,247.5"/>
			<path id="path3994" inkscape:connector-curvature="0" class="st34" d="M96.9,247.5c0,9.5-7.7,17.1-17.1,17.1s-17.1-7.7-17.1-17.1
				c0-9.5,7.7-17.1,17.1-17.1S96.9,238.1,96.9,247.5z"/>
			<path id="path3996" inkscape:connector-curvature="0" class="st30" d="M92,247.5c0,6.8-5.5,12.2-12.2,12.2
				c-6.8,0-12.2-5.5-12.2-12.2c0-6.8,5.5-12.2,12.2-12.2C86.5,235.3,92,240.8,92,247.5"/>
			<path id="path3998" inkscape:connector-curvature="0" class="st30" d="M81.8,226c-0.7-0.1-1.3-0.1-2-0.1c-0.7,0-1.3,0-2,0.1v9.9
				h4L81.8,226z"/>
		</g>
	</g>
</g>
<g id="layer6" inkscape:groupmode="layer" inkscape:label="Tics">
</g>
</svg>
