<svg xmlns="http://www.w3.org/2000/svg" viewBox="0 0 1000 1000"><defs><style>.cls-1{font-size:200px;font-family:Baloo2-Bold, "Baloo 2";font-weight:700;}.cls-2{letter-spacing:0em;}.cls-3,.cls-4{stroke:#000;stroke-miterlimit:10;}.cls-3{stroke-width:13px;}.cls-4{stroke-width:25px;}</style></defs><g id="Layer_1" data-name="Layer 1"><text class="cls-1" transform="translate(245.25 355.13)">S<tspan class="cls-2" x="109.2" y="0">t</tspan><tspan x="187.8" y="0">art</tspan></text></g><g id="Layer_4" data-name="Layer 4"><path class="cls-3" d="M431.2,488.14l-48.44-48.45a16,16,0,0,0-22.66,0h0a16,16,0,0,0,0,22.66l20.78,20.78H299.79a16,16,0,0,0-16,16h0a16,16,0,0,0,16,16h81.37l-21.47,21.47a16,16,0,0,0,0,22.66h0a16,16,0,0,0,22.66,0l46.78-46.78a16,16,0,0,0,2.07-1.73h0A16,16,0,0,0,431.2,488.14Z"/><rect class="cls-3" x="470.5" y="403.5" width="24" height="333" rx="12"/><path class="cls-4" d="M674.57,553.84a10.74,10.74,0,0,0-13.52,6.94l-23.51,73.15L605,570.47c-.08-.18-.15-.37-.25-.55l-46.37-90.29a10.75,10.75,0,0,0-19.12,9.82l44,85.76c.08.19.16.37.25.56l46.37,90.29a10.76,10.76,0,0,0,14.48,4.65h0l.65-.38a10.68,10.68,0,0,0,5.46-6.34l31.06-96.63A10.75,10.75,0,0,0,674.57,553.84Z"/></g></svg>