<svg xmlns="http://www.w3.org/2000/svg" viewBox="0 0 1000 1000"><defs><style>.cls-1{font-size:200px;font-family:Baloo2-Bold, "Baloo 2";font-weight:700;}.cls-2{letter-spacing:0em;}.cls-3{letter-spacing:0em;}.cls-4{letter-spacing:-0.01em;}</style></defs><g id="Layer_1" data-name="Layer 1"><text class="cls-1" transform="translate(223.03 371.3)"><tspan class="cls-2">M</tspan><tspan class="cls-3" x="158" y="0">o</tspan><tspan class="cls-4" x="274" y="0">r</tspan><tspan x="353.2" y="0">ph</tspan></text></g><g id="Layer_3" data-name="Layer 3"><path d="M448.79,727.47a96.31,96.31,0,0,0-96.32-96.32c-53.2,0-95.76,43.68-95.76,96.32s43.12,96.32,96.32,96.32,95.76-43.12,95.76-96.32Zm-159.6,0A63.84,63.84,0,1,1,353,791.31a63.81,63.81,0,0,1-63.84-63.84ZM642,471.55a16.9,16.9,0,0,1,24.08,0l34.72,37a16.24,16.24,0,0,1-23.52,22.4l-10.64-11.2a16.9,16.9,0,0,0-24.08,0l-22.4,23.52a16.9,16.9,0,0,1-24.08,0l-21.84-23.52a16.9,16.9,0,0,0-24.08,0l-21.84,23.52a16.92,16.92,0,0,1-24.08,0l-34.72-37A16.24,16.24,0,1,1,493,483.86l10.64,11.76a16.9,16.9,0,0,0,24.08,0l21.84-23.52a16.92,16.92,0,0,1,24.08,0l21.84,23.52a16.9,16.9,0,0,0,24.08,0Zm-124.88,154H696.87a16.25,16.25,0,0,1,16.24,16.23V789.06a16.25,16.25,0,0,1-16.24,16.24H517.11a16.25,16.25,0,0,1-16.24-16.24V642.34c0-9.52,7.28-16.8,16.24-16.8Zm-85.68-182V578c0,12.32-13.45,20.16-24.08,14l-115.92-67.2a16.27,16.27,0,0,1,0-28l115.92-67.2c10.64-6.16,24.08,1.68,24.08,14Z"/></g></svg>