<svg xmlns="http://www.w3.org/2000/svg" viewBox="0 0 1000 1000"><defs><style>.cls-1{font-size:200px;font-family:Baloo2-Bold, "Baloo 2";font-weight:700;}.cls-2{letter-spacing:-0.01em;}.cls-3{stroke:#000;stroke-miterlimit:10;stroke-width:8px;}</style></defs><g id="Layer_1" data-name="Layer 1"><text class="cls-1" transform="translate(278.23 371.15)">Ra<tspan class="cls-2" x="228" y="0">t</tspan><tspan x="305.2" y="0">e</tspan></text></g><g id="Layer_4" data-name="Layer 4"><path class="cls-3" d="M618.74,539.79l-10.41,10.53A151,151,0,0,1,497.87,791.66q-5.17.35-10.27.34a150.45,150.45,0,0,1-112.14-49.8,9.37,9.37,0,0,1,13.9-12.55A132.34,132.34,0,0,0,588.65,555.53a9.37,9.37,0,0,1,.53-12.7l16.34-16.34h0a6.63,6.63,0,0,0-9.37-9.37l-17,17h0a9.39,9.39,0,0,1-12.26.86,132,132,0,0,0-64.37-25.56,9.37,9.37,0,0,1-8.36-9.29v-30.2a9.39,9.39,0,0,1,9.37-9.52h8.58a6.63,6.63,0,1,0,0-13.26H463a6.63,6.63,0,0,0,0,13.26h8.58a9.37,9.37,0,0,1,9.37,9.37v30.35a9.37,9.37,0,0,1-8.32,9.29,132.5,132.5,0,0,0-79.73,39.08,9.39,9.39,0,0,1-13.42-13.15A151.47,151.47,0,0,1,462.19,492V479.13a25.37,25.37,0,0,1,.79-50.59h49.16a25.37,25.37,0,0,1,.78,50.59v12.7a150.58,150.58,0,0,1,58.57,23.27l11.24-11.24h0a25.36,25.36,0,1,1,35.89,35.85ZM311.5,592.92a9.35,9.35,0,0,0,9.36,9.37h65.05a9.37,9.37,0,1,0,0-18.73h-65a9.37,9.37,0,0,0-9.37,9.33ZM418,638.34a9.35,9.35,0,0,0-9.36-9.37h-65a9.37,9.37,0,0,0,0,18.74h65a9.37,9.37,0,0,0,9.36-9.37ZM320.9,693.16h65a9.37,9.37,0,0,0,0-18.74h-65a9.37,9.37,0,1,0,0,18.74Zm218.63-91-24,24h0a31.64,31.64,0,1,1-13.26-13.27l24-24h0a9.38,9.38,0,0,1,13.26,13.27Zm-39.12,38.74a12.87,12.87,0,1,0-3.77,9.08,12.83,12.83,0,0,0,3.77-9.08ZM487.56,752.39a111.51,111.51,0,1,0-78.68-190.34,9.38,9.38,0,0,0,13.26,13.27,92.81,92.81,0,1,1,0,131.14,9.38,9.38,0,0,0-13.26,13.26,111.2,111.2,0,0,0,78.68,32.67Z"/></g></svg>