<svg xmlns="http://www.w3.org/2000/svg" viewBox="0 0 1000 1000"><defs><style>.cls-1{font-size:200px;font-family:Baloo2-Bold, "Baloo 2";font-weight:700;}.cls-2{letter-spacing:0em;}.cls-3,.cls-4{stroke:#000;stroke-miterlimit:10;}.cls-3{stroke-width:13px;}.cls-4{stroke-width:25px;}</style></defs><g id="Layer_1" data-name="Layer 1"><text class="cls-1" transform="translate(328.05 355.28)"><tspan class="cls-2">E</tspan><tspan x="108" y="0">nd</tspan></text></g><g id="Layer_4" data-name="Layer 4"><path class="cls-3" d="M552,710.27l48.45,48.45a16,16,0,0,0,22.66,0h0a16,16,0,0,0,0-22.66l-20.78-20.78h81.08a16,16,0,0,0,16-16h0a16,16,0,0,0-16-16H602l21.47-21.47a16,16,0,0,0,0-22.66h0a16,16,0,0,0-22.66,0l-46.77,46.78a15.39,15.39,0,0,0-2.08,1.73h0A16,16,0,0,0,552,710.27Z"/><rect class="cls-3" x="488.7" y="435.91" width="24" height="333" rx="12" transform="translate(1001.41 1204.82) rotate(180)"/><path class="cls-4" d="M308.63,618.57a10.75,10.75,0,0,0,13.53-6.94l23.5-73.15,32.59,63.46c.08.18.16.37.25.55l46.37,90.29A10.75,10.75,0,0,0,444,683L400,597.2c-.08-.19-.15-.37-.25-.56l-46.37-90.28a10.74,10.74,0,0,0-14.47-4.66h0c-.23.12-.44.25-.65.38a10.73,10.73,0,0,0-5.47,6.34l-31.05,96.63A10.74,10.74,0,0,0,308.63,618.57Z"/></g></svg>