G04 #@! TF.GenerationSoftware,KiCad,Pcbnew,(6.0.0-0)*
G04 #@! TF.CreationDate,2023-01-05T23:18:16-05:00*
G04 #@! TF.ProjectId,daisy_hardware_v1,64616973-795f-4686-9172-64776172655f,rev?*
G04 #@! TF.SameCoordinates,Original*
G04 #@! TF.FileFunction,Copper,L4,Bot*
G04 #@! TF.FilePolarity,Positive*
%FSLAX46Y46*%
G04 Gerber Fmt 4.6, Leading zero omitted, Abs format (unit mm)*
G04 Created by KiCad (PCBNEW (6.0.0-0)) date 2023-01-05 23:18:16*
%MOMM*%
%LPD*%
G01*
G04 APERTURE LIST*
G04 #@! TA.AperFunction,ComponentPad*
%ADD10O,2.216000X1.108000*%
G04 #@! TD*
G04 #@! TA.AperFunction,ComponentPad*
%ADD11O,2.016000X1.008000*%
G04 #@! TD*
G04 #@! TA.AperFunction,ComponentPad*
%ADD12C,3.240000*%
G04 #@! TD*
G04 #@! TA.AperFunction,ComponentPad*
%ADD13R,1.800000X1.800000*%
G04 #@! TD*
G04 #@! TA.AperFunction,ComponentPad*
%ADD14C,1.800000*%
G04 #@! TD*
G04 #@! TA.AperFunction,ComponentPad*
%ADD15R,1.700000X1.700000*%
G04 #@! TD*
G04 #@! TA.AperFunction,ComponentPad*
%ADD16O,1.700000X1.700000*%
G04 #@! TD*
G04 #@! TA.AperFunction,ComponentPad*
%ADD17C,1.524000*%
G04 #@! TD*
G04 #@! TA.AperFunction,ComponentPad*
%ADD18R,2.300000X1.500000*%
G04 #@! TD*
G04 #@! TA.AperFunction,ComponentPad*
%ADD19O,2.300000X1.500000*%
G04 #@! TD*
G04 #@! TA.AperFunction,ViaPad*
%ADD20C,0.800000*%
G04 #@! TD*
G04 #@! TA.AperFunction,Conductor*
%ADD21C,0.381000*%
G04 #@! TD*
G04 APERTURE END LIST*
D10*
X107870333Y-294079999D03*
X107870333Y-297179999D03*
D11*
X107870333Y-305479999D03*
D10*
X118443666Y-278244000D03*
X118443666Y-281344000D03*
D11*
X118443666Y-289644000D03*
D10*
X107870333Y-309915998D03*
X107870333Y-313015998D03*
D11*
X107870333Y-321315998D03*
D12*
X135737000Y-285874000D03*
X126137000Y-285874000D03*
D13*
X133437000Y-278374000D03*
D14*
X130937000Y-278374000D03*
X128437000Y-278374000D03*
D13*
X91960000Y-342900000D03*
D14*
X94500000Y-342900000D03*
D10*
X119718666Y-347215000D03*
X119718666Y-350315000D03*
D11*
X119718666Y-358615000D03*
D12*
X100177000Y-317546000D03*
X90577000Y-317546000D03*
D13*
X97877000Y-310046000D03*
D14*
X95377000Y-310046000D03*
X92877000Y-310046000D03*
D12*
X100177000Y-301710000D03*
X90577000Y-301710000D03*
D13*
X97877000Y-294210000D03*
D14*
X95377000Y-294210000D03*
X92877000Y-294210000D03*
D10*
X93980000Y-361312000D03*
X93980000Y-364412000D03*
D11*
X93980000Y-372712000D03*
D10*
X107870333Y-325751998D03*
X107870333Y-328851998D03*
D11*
X107870333Y-337151998D03*
D12*
X135737000Y-301710000D03*
X126137000Y-301710000D03*
D13*
X133437000Y-294210000D03*
D14*
X130937000Y-294210000D03*
X128437000Y-294210000D03*
D15*
X39925000Y-307125000D03*
D16*
X42465000Y-307125000D03*
X39925000Y-309665000D03*
X42465000Y-309665000D03*
X39925000Y-312205000D03*
X42465000Y-312205000D03*
X39925000Y-314745000D03*
X42465000Y-314745000D03*
X39925000Y-317285000D03*
X42465000Y-317285000D03*
D10*
X107870333Y-278244000D03*
X107870333Y-281344000D03*
D11*
X107870333Y-289644000D03*
D10*
X118443666Y-294080000D03*
X118443666Y-297180000D03*
D11*
X118443666Y-305480000D03*
D10*
X118443666Y-309916000D03*
X118443666Y-313016000D03*
D11*
X118443666Y-321316000D03*
D10*
X93980000Y-347444500D03*
X93980000Y-350544500D03*
D11*
X93980000Y-358844500D03*
D10*
X106849333Y-361312000D03*
X106849333Y-364412000D03*
D11*
X106849333Y-372712000D03*
D12*
X90577000Y-333382000D03*
X100177000Y-333382000D03*
D13*
X97877000Y-325882000D03*
D14*
X95377000Y-325882000D03*
X92877000Y-325882000D03*
D12*
X126137000Y-333382000D03*
X135737000Y-333382000D03*
D13*
X133437000Y-325882000D03*
D14*
X130937000Y-325882000D03*
X128437000Y-325882000D03*
D10*
X119718666Y-361312000D03*
X119718666Y-364412000D03*
D11*
X119718666Y-372712000D03*
D17*
X99960000Y-342900000D03*
X102500000Y-342900000D03*
X105040000Y-342900000D03*
D10*
X118443666Y-325752000D03*
X118443666Y-328852000D03*
D11*
X118443666Y-337152000D03*
D10*
X132588000Y-347215000D03*
X132588000Y-350315000D03*
D11*
X132588000Y-358615000D03*
D12*
X100177000Y-285874000D03*
X90577000Y-285874000D03*
D13*
X97877000Y-278374000D03*
D14*
X95377000Y-278374000D03*
X92877000Y-278374000D03*
D10*
X106849333Y-347215000D03*
X106849333Y-350315000D03*
D11*
X106849333Y-358615000D03*
D12*
X126137000Y-317546000D03*
X135737000Y-317546000D03*
D13*
X133437000Y-310046000D03*
D14*
X130937000Y-310046000D03*
X128437000Y-310046000D03*
D10*
X132588000Y-361312000D03*
X132588000Y-364412000D03*
D11*
X132588000Y-372712000D03*
D13*
X134100000Y-342646000D03*
D14*
X131560000Y-342646000D03*
D18*
X39586000Y-337128400D03*
D19*
X39586000Y-339668400D03*
X39586000Y-342208400D03*
D17*
X64830000Y-315232000D03*
X64830000Y-317772000D03*
X64830000Y-320312000D03*
X64830000Y-322852000D03*
X64830000Y-325392000D03*
X64830000Y-327932000D03*
X64830000Y-330472000D03*
X64830000Y-333012000D03*
X64830000Y-335552000D03*
X64830000Y-338092000D03*
X64830000Y-340632000D03*
X64830000Y-343172000D03*
X64830000Y-345712000D03*
X64830000Y-348252000D03*
X64830000Y-350792000D03*
X64830000Y-353332000D03*
X64830000Y-355872000D03*
X64830000Y-358412000D03*
X64830000Y-360952000D03*
X64830000Y-363492000D03*
X80070000Y-363492000D03*
X80070000Y-360952000D03*
X80070000Y-358412000D03*
X80070000Y-355872000D03*
X80070000Y-353332000D03*
X80070000Y-350792000D03*
X80070000Y-348252000D03*
X80070000Y-345712000D03*
X80070000Y-343172000D03*
X80070000Y-340632000D03*
X80070000Y-338092000D03*
X80070000Y-335552000D03*
X80070000Y-333012000D03*
X80070000Y-330472000D03*
X80070000Y-327932000D03*
X80070000Y-325392000D03*
X80070000Y-322852000D03*
X80070000Y-320312000D03*
X80070000Y-317772000D03*
X80070000Y-315232000D03*
X126040000Y-342900000D03*
X123500000Y-342900000D03*
X120960000Y-342900000D03*
D15*
X38976400Y-376193600D03*
D16*
X41516400Y-376193600D03*
X44056400Y-376193600D03*
X46596400Y-376193600D03*
X49136400Y-376193600D03*
X51676400Y-376193600D03*
X54216400Y-376193600D03*
X56756400Y-376193600D03*
X59296400Y-376193600D03*
X61836400Y-376193600D03*
X64376400Y-376193600D03*
X66916400Y-376193600D03*
X69456400Y-376193600D03*
X71996400Y-376193600D03*
X74536400Y-376193600D03*
X77076400Y-376193600D03*
X79616400Y-376193600D03*
X82156400Y-376193600D03*
D15*
X82126400Y-274975000D03*
D16*
X79586400Y-274975000D03*
X77046400Y-274975000D03*
X74506400Y-274975000D03*
X71966400Y-274975000D03*
X69426400Y-274975000D03*
X66886400Y-274975000D03*
X64346400Y-274975000D03*
X61806400Y-274975000D03*
X59266400Y-274975000D03*
X56726400Y-274975000D03*
X54186400Y-274975000D03*
X51646400Y-274975000D03*
X49106400Y-274975000D03*
X46566400Y-274975000D03*
X44026400Y-274975000D03*
X41486400Y-274975000D03*
X38946400Y-274975000D03*
D15*
X91592400Y-376428000D03*
D16*
X94132400Y-376428000D03*
X96672400Y-376428000D03*
X99212400Y-376428000D03*
X101752400Y-376428000D03*
X104292400Y-376428000D03*
X106832400Y-376428000D03*
X109372400Y-376428000D03*
X111912400Y-376428000D03*
X114452400Y-376428000D03*
X116992400Y-376428000D03*
X119532400Y-376428000D03*
X122072400Y-376428000D03*
X124612400Y-376428000D03*
X127152400Y-376428000D03*
X129692400Y-376428000D03*
X132232400Y-376428000D03*
X134772400Y-376428000D03*
D15*
X134742400Y-274828000D03*
D16*
X132202400Y-274828000D03*
X129662400Y-274828000D03*
X127122400Y-274828000D03*
X124582400Y-274828000D03*
X122042400Y-274828000D03*
X119502400Y-274828000D03*
X116962400Y-274828000D03*
X114422400Y-274828000D03*
X111882400Y-274828000D03*
X109342400Y-274828000D03*
X106802400Y-274828000D03*
X104262400Y-274828000D03*
X101722400Y-274828000D03*
X99182400Y-274828000D03*
X96642400Y-274828000D03*
X94102400Y-274828000D03*
X91562400Y-274828000D03*
D20*
X75908000Y-290621000D03*
X134899400Y-360857800D03*
X46514000Y-290848000D03*
X117602000Y-342138000D03*
X38112800Y-330727600D03*
X69685000Y-290621000D03*
X41716000Y-351046000D03*
X41716000Y-368064000D03*
X46825000Y-324276000D03*
X57210000Y-308882000D03*
X41462000Y-359428000D03*
X49618000Y-290594000D03*
X47460000Y-314751000D03*
X75908000Y-288081000D03*
X69685000Y-288081000D03*
X46514000Y-288308000D03*
X51876000Y-306342000D03*
X49618000Y-288054000D03*
X49618000Y-289324000D03*
X54952000Y-352422180D03*
X57210000Y-310152000D03*
X57569200Y-359963000D03*
X108204000Y-340614000D03*
X57210000Y-307612000D03*
X45272000Y-354376000D03*
X49590000Y-354348000D03*
X115300000Y-342900000D03*
X59197480Y-361106000D03*
X46542000Y-364000000D03*
X73600000Y-365000000D03*
X62192000Y-318840400D03*
X115251000Y-341630000D03*
X110301000Y-345440000D03*
X69200000Y-372200000D03*
X48730000Y-319329800D03*
X39586000Y-337128400D03*
X45526000Y-349268000D03*
X51368000Y-355872000D03*
X45526000Y-357650000D03*
X63233400Y-312007800D03*
X43494000Y-289324000D03*
X68132000Y-288816000D03*
X45780000Y-366540000D03*
X55686000Y-299230000D03*
X60992000Y-299484000D03*
X56956000Y-350538000D03*
X111500000Y-341900000D03*
X60512000Y-304056000D03*
X48828000Y-286276000D03*
X57210000Y-302532000D03*
X56702000Y-304056000D03*
X47304000Y-286022000D03*
X123698000Y-362712000D03*
X67827385Y-351757385D03*
X55686000Y-358920000D03*
X57972000Y-355364000D03*
X69402000Y-349268000D03*
X123571000Y-359283000D03*
X125504000Y-360934000D03*
X113030000Y-292354000D03*
X121412000Y-289179000D03*
X123345000Y-283845000D03*
X123317000Y-280289000D03*
X115938115Y-292468115D03*
X67878000Y-366286000D03*
X77784000Y-368700000D03*
X75055000Y-306469000D03*
X75055000Y-307739000D03*
X75055000Y-309009000D03*
X75055000Y-305199000D03*
X80005000Y-305199000D03*
X80005000Y-306469000D03*
X136982200Y-375056400D03*
X115062000Y-288798000D03*
X67624000Y-283256000D03*
X66608000Y-289324000D03*
X56448000Y-282974000D03*
X51876000Y-283990000D03*
X63462000Y-290748000D03*
X82892000Y-289324000D03*
X48066000Y-296690000D03*
X44764000Y-283990000D03*
X63335000Y-285033000D03*
X56448000Y-289832000D03*
X39684000Y-290086000D03*
X81312000Y-289478000D03*
X57620000Y-319091000D03*
X62141200Y-367125800D03*
X75055000Y-310279000D03*
X63749000Y-301135000D03*
X114681000Y-372999000D03*
X126492000Y-371856000D03*
X103632000Y-281432000D03*
X102235000Y-298704000D03*
X103124000Y-318338000D03*
X69939000Y-360979000D03*
D21*
X49590000Y-354348000D02*
X45300000Y-354348000D01*
X45300000Y-354348000D02*
X45272000Y-354376000D01*
X106849333Y-372712000D02*
X106849333Y-373871067D01*
X106849333Y-373871067D02*
X104292400Y-376428000D01*
X126144000Y-372712000D02*
X132588000Y-372712000D01*
X106832400Y-376428000D02*
X109372400Y-373888000D01*
X124968000Y-373888000D02*
X126144000Y-372712000D01*
X109372400Y-373888000D02*
X124968000Y-373888000D01*
X75752000Y-318026000D02*
X75752000Y-333774000D01*
X60512000Y-304056000D02*
X61782000Y-304056000D01*
X61782000Y-304056000D02*
X75752000Y-318026000D01*
X75752000Y-333774000D02*
X80070000Y-338092000D01*
X48828000Y-294150000D02*
X57210000Y-302532000D01*
X48828000Y-286276000D02*
X48828000Y-294150000D01*
X47304000Y-286022000D02*
X47304000Y-294810755D01*
X56702000Y-304208755D02*
X56702000Y-304056000D01*
X47304000Y-294810755D02*
X56702000Y-304208755D01*
X65189191Y-354602000D02*
X60004000Y-354602000D01*
X67827385Y-351963806D02*
X65189191Y-354602000D01*
X67827385Y-351757385D02*
X67827385Y-351963806D01*
X60004000Y-354602000D02*
X55686000Y-358920000D01*
X63696011Y-349639989D02*
X69030011Y-349639989D01*
X69030011Y-349639989D02*
X69402000Y-349268000D01*
X57972000Y-355364000D02*
X63696011Y-349639989D01*
X101238770Y-377668011D02*
X100457000Y-376886241D01*
X108132389Y-377668011D02*
X101238770Y-377668011D01*
X123979989Y-340839989D02*
X126040000Y-342900000D01*
X100457000Y-376886241D02*
X100457000Y-351663000D01*
X100457000Y-351663000D02*
X100512288Y-351663000D01*
X100512288Y-351663000D02*
X111335299Y-340839989D01*
X111335299Y-340839989D02*
X123979989Y-340839989D01*
X109372400Y-376428000D02*
X108132389Y-377668011D01*
X123571000Y-359283000D02*
X123853000Y-359283000D01*
X123853000Y-359283000D02*
X125504000Y-360934000D01*
X116332000Y-290957000D02*
X120751245Y-290957000D01*
X107870333Y-305479999D02*
X109302001Y-305479999D01*
X123952000Y-287756245D02*
X123952000Y-284355245D01*
X126619000Y-281688245D02*
X126619000Y-277871400D01*
X120751245Y-290957000D02*
X123952000Y-287756245D01*
X112903000Y-294386000D02*
X116332000Y-290957000D01*
X109302001Y-305479999D02*
X112903000Y-301879000D01*
X126619000Y-277871400D02*
X129662400Y-274828000D01*
X123952000Y-284355245D02*
X126619000Y-281688245D01*
X112903000Y-301879000D02*
X112903000Y-294386000D01*
X120802389Y-284581611D02*
X120802389Y-274314370D01*
X113030000Y-292354000D02*
X120802389Y-284581611D01*
X121812759Y-273304000D02*
X125598400Y-273304000D01*
X120802389Y-274314370D02*
X121812759Y-273304000D01*
X125598400Y-273304000D02*
X127122400Y-274828000D01*
X121412000Y-277998400D02*
X124582400Y-274828000D01*
X121412000Y-289179000D02*
X121412000Y-277998400D01*
X123317000Y-280289000D02*
X123317000Y-283817000D01*
X123317000Y-283817000D02*
X123345000Y-283845000D01*
X80070000Y-340632000D02*
X67878000Y-352824000D01*
X67878000Y-352824000D02*
X67878000Y-366286000D01*
X80070000Y-343172000D02*
X77784000Y-345458000D01*
X77784000Y-345458000D02*
X77784000Y-368700000D01*
X66886400Y-274975000D02*
X73596000Y-281684600D01*
X73596000Y-281684600D02*
X73596000Y-305010000D01*
X73596000Y-305010000D02*
X75055000Y-306469000D01*
X72072000Y-304756000D02*
X75055000Y-307739000D01*
X72072000Y-304756000D02*
X72072000Y-282700600D01*
X72072000Y-282700600D02*
X64346400Y-274975000D01*
X70796000Y-283964600D02*
X70796000Y-304750000D01*
X70796000Y-304750000D02*
X75055000Y-309009000D01*
X61806400Y-274975000D02*
X70796000Y-283964600D01*
X69426400Y-274975000D02*
X78292000Y-283840600D01*
X78292000Y-283840600D02*
X78292000Y-301962000D01*
X78292000Y-301962000D02*
X75055000Y-305199000D01*
X74506400Y-274975000D02*
X82102000Y-282570600D01*
X82102000Y-282570600D02*
X82102000Y-303102000D01*
X82102000Y-303102000D02*
X80005000Y-305199000D01*
X80005000Y-306469000D02*
X84544000Y-301930000D01*
X84544000Y-301930000D02*
X84544000Y-279932600D01*
X84544000Y-279932600D02*
X79586400Y-274975000D01*
X54186400Y-274975000D02*
X62467400Y-283256000D01*
X62467400Y-283256000D02*
X67624000Y-283256000D01*
X65995400Y-289324000D02*
X66608000Y-289324000D01*
X51646400Y-274975000D02*
X65995400Y-289324000D01*
X54565400Y-282974000D02*
X46566400Y-274975000D01*
X56448000Y-282974000D02*
X54565400Y-282974000D01*
X114681000Y-351663000D02*
X114681000Y-372999000D01*
X114554000Y-351536000D02*
X114681000Y-351663000D01*
X113333000Y-350315000D02*
X114554000Y-351536000D01*
X106849333Y-350315000D02*
X113333000Y-350315000D01*
X55742011Y-357649989D02*
X54895989Y-358496011D01*
X54895989Y-358496011D02*
X54895989Y-371793189D01*
X54895989Y-371793189D02*
X59296400Y-376193600D01*
X55742011Y-347179989D02*
X55742011Y-357649989D01*
X64830000Y-338092000D02*
X55742011Y-347179989D01*
X54161989Y-373599189D02*
X56756400Y-376193600D01*
X64830000Y-335552000D02*
X54161989Y-346220011D01*
X54161989Y-346220011D02*
X54161989Y-373599189D01*
X53048000Y-375025200D02*
X54216400Y-376193600D01*
X64830000Y-333012000D02*
X53048000Y-344794000D01*
X53048000Y-375025200D02*
X53048000Y-344794000D01*
X103632000Y-277998400D02*
X106802400Y-274828000D01*
X103632000Y-281432000D02*
X103632000Y-277998400D01*
X102767531Y-275873131D02*
X101722400Y-274828000D01*
X102767531Y-281684776D02*
X102767531Y-275873131D01*
X103025011Y-281942256D02*
X102767531Y-281684776D01*
X103025011Y-302397989D02*
X103025011Y-281942256D01*
X95377000Y-310046000D02*
X103025011Y-302397989D01*
X102841989Y-275947589D02*
X101722400Y-274828000D01*
X96642400Y-274828000D02*
X96911022Y-274828000D01*
X102187011Y-280103989D02*
X102187011Y-298656011D01*
X102187011Y-298656011D02*
X102235000Y-298704000D01*
X96911022Y-274828000D02*
X102187011Y-280103989D01*
X52158011Y-343143989D02*
X64830000Y-330472000D01*
X52158011Y-375711989D02*
X51676400Y-376193600D01*
X52158011Y-343143989D02*
X52158011Y-375711989D01*
X78574011Y-374695989D02*
X78574011Y-357367989D01*
X77076400Y-376193600D02*
X78574011Y-374695989D01*
X78574011Y-357367989D02*
X80070000Y-355872000D01*
X81222011Y-354484011D02*
X81222011Y-374587989D01*
X81222011Y-374587989D02*
X79616400Y-376193600D01*
X80070000Y-353332000D02*
X81222011Y-354484011D01*
M02*
